<?xml version="1.0" encoding="UTF-8"?>
<svg xmlns="http://www.w3.org/2000/svg" xmlns:xlink="http://www.w3.org/1999/xlink" width="152px" height="57px" viewBox="0 0 152 57" version="1.1">
<g id="surface1">
<path style=" stroke:none;fill-rule:nonzero;fill:rgb(7.843137%,19.215686%,59.215686%);fill-opacity:1;" d="M 13.644531 32.132812 L 13.28125 24.585938 L 26.761719 10.335938 L 34.003906 10.335938 L 21.851562 23.453125 L 18.230469 27.328125 Z M 7.808594 38.589844 L 7.808594 10.335938 L 14.289062 10.335938 L 14.289062 38.589844 Z M 27.082031 38.589844 L 17.0625 26.28125 L 21.328125 21.636719 L 34.6875 38.589844 Z M 36.757812 38.589844 L 36.757812 16.875 L 42.753906 16.875 L 42.753906 23.011719 L 41.90625 21.234375 C 42.550781 19.703125 43.585938 18.542969 45.007812 17.765625 C 46.429688 16.957031 48.15625 16.554688 50.195312 16.554688 L 50.195312 22.363281 C 49.929688 22.339844 49.6875 22.324219 49.472656 22.324219 C 49.257812 22.296875 49.03125 22.285156 48.789062 22.285156 C 47.070312 22.285156 45.675781 22.78125 44.605469 23.777344 C 43.558594 24.746094 43.035156 26.265625 43.035156 28.339844 L 43.035156 38.589844 Z M 63.21875 38.914062 C 61.421875 38.914062 59.8125 38.5625 58.390625 37.863281 C 56.996094 37.164062 55.910156 36.101562 55.132812 34.675781 C 54.355469 33.222656 53.964844 31.378906 53.964844 29.144531 L 53.964844 16.875 L 60.242188 16.875 L 60.242188 28.21875 C 60.242188 30.019531 60.617188 31.351562 61.367188 32.214844 C 62.148438 33.046875 63.234375 33.464844 64.628906 33.464844 C 65.59375 33.464844 66.453125 33.261719 67.203125 32.859375 C 67.953125 32.429688 68.542969 31.78125 68.972656 30.921875 C 69.402344 30.035156 69.617188 28.929688 69.617188 27.613281 L 69.617188 16.875 L 75.894531 16.875 L 75.894531 38.589844 L 69.9375 38.589844 L 69.9375 32.617188 L 71.023438 34.351562 C 70.300781 35.859375 69.226562 37.003906 67.804688 37.78125 C 66.410156 38.535156 64.882812 38.914062 63.21875 38.914062 Z M 88.992188 38.914062 C 87.140625 38.914062 85.355469 38.699219 83.640625 38.265625 C 81.949219 37.808594 80.609375 37.246094 79.617188 36.570312 L 81.707031 32.050781 C 82.699219 32.671875 83.867188 33.183594 85.207031 33.585938 C 86.578125 33.960938 87.917969 34.152344 89.234375 34.152344 C 90.679688 34.152344 91.699219 33.976562 92.289062 33.625 C 92.90625 33.277344 93.214844 32.792969 93.214844 32.171875 C 93.214844 31.660156 92.972656 31.285156 92.492188 31.042969 C 92.035156 30.773438 91.417969 30.570312 90.640625 30.4375 C 89.863281 30.304688 89.003906 30.167969 88.066406 30.035156 C 87.152344 29.898438 86.226562 29.722656 85.289062 29.507812 C 84.351562 29.265625 83.492188 28.917969 82.714844 28.460938 C 81.9375 28.003906 81.304688 27.382812 80.824219 26.601562 C 80.367188 25.824219 80.140625 24.8125 80.140625 23.574219 C 80.140625 22.203125 80.527344 20.992188 81.304688 19.945312 C 82.109375 18.894531 83.265625 18.074219 84.765625 17.480469 C 86.269531 16.863281 88.066406 16.554688 90.15625 16.554688 C 91.632812 16.554688 93.136719 16.714844 94.664062 17.039062 C 96.191406 17.359375 97.46875 17.832031 98.488281 18.449219 L 96.394531 22.929688 C 95.347656 22.3125 94.289062 21.894531 93.214844 21.679688 C 92.167969 21.4375 91.148438 21.316406 90.15625 21.316406 C 88.761719 21.316406 87.742188 21.503906 87.101562 21.878906 C 86.457031 22.257812 86.132812 22.742188 86.132812 23.332031 C 86.132812 23.871094 86.363281 24.277344 86.820312 24.542969 C 87.300781 24.8125 87.929688 25.027344 88.710938 25.191406 C 89.488281 25.351562 90.332031 25.5 91.246094 25.632812 C 92.183594 25.742188 93.121094 25.917969 94.0625 26.160156 C 95 26.402344 95.84375 26.75 96.59375 27.207031 C 97.375 27.640625 98.003906 28.246094 98.488281 29.023438 C 98.96875 29.777344 99.210938 30.773438 99.210938 32.011719 C 99.210938 33.355469 98.808594 34.554688 98.003906 35.605469 C 97.199219 36.625 96.03125 37.433594 94.503906 38.023438 C 93 38.617188 91.164062 38.914062 88.992188 38.914062 Z M 116.242188 16.554688 C 117.957031 16.554688 119.484375 16.902344 120.828125 17.601562 C 122.195312 18.273438 123.269531 19.324219 124.046875 20.75 C 124.824219 22.148438 125.214844 23.953125 125.214844 26.160156 L 125.214844 38.589844 L 118.9375 38.589844 L 118.9375 27.128906 C 118.9375 25.378906 118.546875 24.085938 117.769531 23.253906 C 117.019531 22.417969 115.945312 22 114.550781 22 C 113.558594 22 112.660156 22.21875 111.855469 22.648438 C 111.078125 23.050781 110.460938 23.683594 110.003906 24.542969 C 109.574219 25.40625 109.359375 26.507812 109.359375 27.855469 L 109.359375 38.589844 L 103.082031 38.589844 L 103.082031 8.640625 L 109.359375 8.640625 L 109.359375 22.890625 L 107.953125 21.074219 C 108.730469 19.621094 109.84375 18.503906 111.292969 17.722656 C 112.738281 16.941406 114.390625 16.554688 116.242188 16.554688 Z M 116.242188 16.554688 "/>
<path style=" stroke:none;fill-rule:nonzero;fill:rgb(37.254902%,37.254902%,37.254902%);fill-opacity:1;" d="M 76.332031 49.882812 C 75.789062 49.882812 75.289062 49.796875 74.832031 49.621094 C 74.375 49.4375 73.980469 49.1875 73.644531 48.863281 C 73.308594 48.535156 73.046875 48.148438 72.859375 47.714844 C 72.671875 47.277344 72.578125 46.792969 72.578125 46.269531 C 72.578125 45.746094 72.671875 45.265625 72.859375 44.828125 C 73.046875 44.390625 73.308594 44.011719 73.644531 43.6875 C 73.988281 43.355469 74.386719 43.105469 74.84375 42.929688 C 75.296875 42.75 75.800781 42.65625 76.351562 42.65625 C 76.90625 42.65625 77.417969 42.75 77.878906 42.929688 C 78.34375 43.113281 78.734375 43.382812 79.054688 43.746094 L 78.433594 44.375 C 78.144531 44.089844 77.828125 43.886719 77.488281 43.757812 C 77.152344 43.625 76.785156 43.554688 76.390625 43.554688 C 75.988281 43.554688 75.613281 43.625 75.265625 43.757812 C 74.921875 43.890625 74.625 44.082031 74.367188 44.324219 C 74.121094 44.566406 73.925781 44.855469 73.785156 45.191406 C 73.652344 45.519531 73.585938 45.878906 73.585938 46.269531 C 73.585938 46.652344 73.652344 47.011719 73.785156 47.351562 C 73.925781 47.679688 74.121094 47.96875 74.367188 48.21875 C 74.625 48.460938 74.921875 48.648438 75.265625 48.78125 C 75.605469 48.917969 75.980469 48.984375 76.382812 48.984375 C 76.757812 48.984375 77.113281 48.925781 77.457031 48.8125 C 77.804688 48.691406 78.128906 48.492188 78.421875 48.21875 L 78.996094 48.984375 C 78.648438 49.28125 78.238281 49.503906 77.769531 49.660156 C 77.304688 49.808594 76.828125 49.882812 76.332031 49.882812 Z M 78.03125 48.851562 L 78.03125 46.230469 L 78.996094 46.230469 L 78.996094 48.984375 Z M 81.835938 45.785156 L 85.457031 45.785156 L 85.457031 46.644531 L 81.835938 46.644531 Z M 81.929688 48.921875 L 86.03125 48.921875 L 86.03125 49.800781 L 80.921875 49.800781 L 80.921875 42.738281 L 85.890625 42.738281 L 85.890625 43.617188 L 81.929688 43.617188 Z M 89.058594 49.800781 L 89.058594 43.617188 L 86.644531 43.617188 L 86.644531 42.738281 L 92.46875 42.738281 L 92.46875 43.617188 L 90.054688 43.617188 L 90.054688 49.800781 Z M 96.265625 49.800781 L 96.265625 42.738281 L 97.273438 42.738281 L 97.273438 49.800781 Z M 100.777344 49.800781 L 100.777344 43.617188 L 98.363281 43.617188 L 98.363281 42.738281 L 104.1875 42.738281 L 104.1875 43.617188 L 101.773438 43.617188 L 101.773438 49.800781 Z M 107.984375 49.800781 L 107.984375 42.738281 L 110.953125 42.738281 C 111.703125 42.738281 112.363281 42.886719 112.933594 43.183594 C 113.511719 43.476562 113.957031 43.890625 114.269531 44.421875 C 114.59375 44.953125 114.753906 45.570312 114.753906 46.269531 C 114.753906 46.96875 114.59375 47.585938 114.269531 48.117188 C 113.957031 48.648438 113.511719 49.0625 112.933594 49.359375 C 112.363281 49.652344 111.703125 49.800781 110.953125 49.800781 Z M 108.992188 48.921875 L 110.890625 48.921875 C 111.476562 48.921875 111.976562 48.8125 112.402344 48.589844 C 112.828125 48.367188 113.160156 48.058594 113.394531 47.664062 C 113.632812 47.257812 113.75 46.792969 113.75 46.269531 C 113.75 45.738281 113.632812 45.273438 113.394531 44.878906 C 113.160156 44.480469 112.828125 44.171875 112.402344 43.949219 C 111.976562 43.726562 111.476562 43.617188 110.890625 43.617188 L 108.992188 43.617188 Z M 119.472656 49.882812 C 118.9375 49.882812 118.4375 49.792969 117.976562 49.609375 C 117.519531 49.429688 117.125 49.175781 116.789062 48.851562 C 116.453125 48.523438 116.191406 48.140625 116.003906 47.703125 C 115.816406 47.265625 115.722656 46.789062 115.722656 46.269531 C 115.722656 45.753906 115.816406 45.273438 116.003906 44.835938 C 116.191406 44.398438 116.453125 44.019531 116.789062 43.695312 C 117.125 43.367188 117.519531 43.113281 117.976562 42.929688 C 118.429688 42.75 118.929688 42.65625 119.472656 42.65625 C 120.011719 42.65625 120.503906 42.75 120.953125 42.929688 C 121.410156 43.105469 121.804688 43.355469 122.140625 43.6875 C 122.480469 44.011719 122.742188 44.390625 122.921875 44.828125 C 123.113281 45.265625 123.207031 45.746094 123.207031 46.269531 C 123.207031 46.792969 123.113281 47.277344 122.921875 47.714844 C 122.742188 48.148438 122.480469 48.535156 122.140625 48.863281 C 121.804688 49.1875 121.410156 49.4375 120.953125 49.621094 C 120.503906 49.796875 120.011719 49.882812 119.472656 49.882812 Z M 119.472656 48.984375 C 119.863281 48.984375 120.222656 48.917969 120.550781 48.78125 C 120.886719 48.648438 121.171875 48.460938 121.414062 48.21875 C 121.664062 47.96875 121.855469 47.679688 121.988281 47.351562 C 122.128906 47.019531 122.199219 46.660156 122.199219 46.269531 C 122.199219 45.878906 122.128906 45.519531 121.988281 45.191406 C 121.855469 44.859375 121.664062 44.574219 121.414062 44.332031 C 121.171875 44.082031 120.886719 43.890625 120.550781 43.757812 C 120.222656 43.625 119.863281 43.554688 119.472656 43.554688 C 119.078125 43.554688 118.710938 43.625 118.378906 43.757812 C 118.046875 43.890625 117.761719 44.082031 117.511719 44.332031 C 117.265625 44.574219 117.070312 44.859375 116.929688 45.191406 C 116.792969 45.519531 116.726562 45.878906 116.726562 46.269531 C 116.726562 46.660156 116.792969 47.019531 116.929688 47.351562 C 117.070312 47.679688 117.265625 47.96875 117.511719 48.21875 C 117.761719 48.460938 118.046875 48.648438 118.378906 48.78125 C 118.710938 48.917969 119.078125 48.984375 119.472656 48.984375 Z M 124.742188 49.800781 L 124.742188 42.738281 L 125.566406 42.738281 L 130.226562 48.539062 L 129.792969 48.539062 L 129.792969 42.738281 L 130.796875 42.738281 L 130.796875 49.800781 L 129.972656 49.800781 L 125.316406 44 L 125.75 44 L 125.75 49.800781 Z M 133.820312 45.785156 L 137.441406 45.785156 L 137.441406 46.644531 L 133.820312 46.644531 Z M 133.910156 48.921875 L 138.015625 48.921875 L 138.015625 49.800781 L 132.90625 49.800781 L 132.90625 42.738281 L 137.875 42.738281 L 137.875 43.617188 L 133.910156 43.617188 Z M 133.910156 48.921875 "/>
<path style=" stroke:none;fill-rule:nonzero;fill:rgb(92.156863%,34.509804%,34.117647%);fill-opacity:1;" d="M 130.308594 38.589844 L 130.308594 16.875 L 136.304688 16.875 L 136.304688 23.011719 L 135.457031 21.234375 C 136.101562 19.703125 137.136719 18.542969 138.558594 17.765625 C 139.980469 16.957031 141.707031 16.554688 143.746094 16.554688 L 143.746094 22.363281 C 143.480469 22.339844 143.238281 22.324219 143.023438 22.324219 C 142.808594 22.296875 142.582031 22.285156 142.339844 22.285156 C 140.621094 22.285156 139.226562 22.78125 138.15625 23.777344 C 137.109375 24.746094 136.585938 26.265625 136.585938 28.339844 L 136.585938 38.589844 Z M 130.308594 38.589844 "/>
<path style=" stroke:none;fill-rule:nonzero;fill:rgb(92.156863%,34.509804%,34.117647%);fill-opacity:1;" d="M 148.003906 16.1875 C 147.667969 16.1875 147.355469 16.128906 147.070312 16.007812 C 146.785156 15.886719 146.535156 15.714844 146.320312 15.5 C 146.105469 15.28125 145.9375 15.027344 145.816406 14.742188 C 145.699219 14.453125 145.644531 14.144531 145.644531 13.8125 C 145.644531 13.480469 145.703125 13.171875 145.824219 12.886719 C 145.945312 12.597656 146.113281 12.347656 146.328125 12.132812 C 146.542969 11.910156 146.792969 11.742188 147.078125 11.621094 C 147.367188 11.5 147.679688 11.4375 148.015625 11.4375 C 148.351562 11.4375 148.664062 11.5 148.949219 11.621094 C 149.238281 11.738281 149.488281 11.902344 149.699219 12.117188 C 149.914062 12.332031 150.078125 12.585938 150.195312 12.871094 C 150.316406 13.152344 150.378906 13.464844 150.378906 13.800781 C 150.378906 14.136719 150.316406 14.449219 150.195312 14.742188 C 150.074219 15.027344 149.90625 15.28125 149.6875 15.5 C 149.472656 15.714844 149.222656 15.886719 148.933594 16.007812 C 148.648438 16.128906 148.339844 16.1875 148.003906 16.1875 Z M 148.867188 15.171875 L 148.191406 14.121094 L 148.554688 14.121094 L 149.230469 15.171875 Z M 147.996094 15.9375 C 148.300781 15.9375 148.578125 15.886719 148.835938 15.777344 C 149.089844 15.664062 149.3125 15.511719 149.503906 15.320312 C 149.703125 15.128906 149.855469 14.902344 149.960938 14.640625 C 150.070312 14.375 150.121094 14.09375 150.121094 13.800781 C 150.121094 13.5 150.070312 13.222656 149.960938 12.964844 C 149.859375 12.710938 149.710938 12.484375 149.519531 12.292969 C 149.332031 12.101562 149.109375 11.953125 148.847656 11.847656 C 148.59375 11.742188 148.316406 11.6875 148.015625 11.6875 C 147.710938 11.6875 147.429688 11.742188 147.171875 11.847656 C 146.914062 11.957031 146.6875 12.109375 146.496094 12.304688 C 146.308594 12.5 146.160156 12.722656 146.050781 12.980469 C 145.945312 13.234375 145.890625 13.511719 145.890625 13.8125 C 145.890625 14.109375 145.945312 14.386719 146.050781 14.648438 C 146.160156 14.902344 146.308594 15.128906 146.496094 15.328125 C 146.6875 15.519531 146.910156 15.667969 147.164062 15.777344 C 147.425781 15.886719 147.703125 15.9375 147.996094 15.9375 Z M 147.085938 15.171875 L 147.085938 12.453125 L 148.128906 12.453125 C 148.464844 12.453125 148.726562 12.539062 148.914062 12.703125 C 149.109375 12.863281 149.203125 13.082031 149.203125 13.355469 C 149.203125 13.644531 149.109375 13.867188 148.914062 14.027344 C 148.726562 14.191406 148.464844 14.269531 148.128906 14.269531 L 147.433594 14.269531 L 147.433594 15.171875 Z M 147.425781 13.972656 L 148.109375 13.972656 C 148.347656 13.972656 148.53125 13.921875 148.660156 13.8125 C 148.792969 13.707031 148.863281 13.554688 148.863281 13.355469 C 148.863281 13.164062 148.792969 13.015625 148.660156 12.910156 C 148.53125 12.804688 148.347656 12.75 148.109375 12.75 L 147.425781 12.75 Z M 147.425781 13.972656 "/>
</g>
</svg>
