<svg width="21" height="21" viewBox="0 0 21 21" fill="none" xmlns="http://www.w3.org/2000/svg">
<path d="M4.104 14.12L3.942 10.754L9.972 4.4H13.212L7.776 10.25L6.156 11.978L4.104 14.12ZM1.494 17V4.4H4.392V17H1.494ZM10.116 17L5.634 11.51L7.542 9.44L13.518 17H10.116Z" fill="#143197"/>
<path d="M14.296 17L14.296 7.316L16.978 7.316L16.978 10.052L16.6 9.26C16.888 8.576 17.35 8.06 17.986 7.712C18.622 7.352 19.396 7.172 20.308 7.172L20.308 9.764C20.188 9.752 20.08 9.746 19.984 9.746C19.888 9.734 19.786 9.728 19.678 9.728C18.91 9.728 18.286 9.95 17.806 10.394C17.338 10.826 17.104 11.504 17.104 12.428L17.104 17L14.296 17Z" fill="#EB5857"/>
</svg>
