<svg width="388" height="110" viewBox="0 0 388 110" fill="none" xmlns="http://www.w3.org/2000/svg">
<g clip-path="url(#clip0_2976_38776)">
<rect width="388" height="110" fill="white"/>
<path d="M-6.67383 -1.89062H394.253V111.67H-6.67383V-1.89062Z" fill="#FFCD42" fill-opacity="0.1"/>
<mask id="mask0_2976_38776" style="mask-type:alpha" maskUnits="userSpaceOnUse" x="-6" y="-2" width="400" height="114">
<path d="M26.5293 -0.939697H361.897C379.294 -0.939697 393.397 13.1633 393.397 30.5603V111.17H-4.9707V30.5603C-4.9707 13.1633 9.13233 -0.939697 26.5293 -0.939697Z" fill="#7D42FB" stroke="#FFCD42"/>
</mask>
<g mask="url(#mask0_2976_38776)">
<path opacity="0.3" fill-rule="evenodd" clip-rule="evenodd" d="M60.7541 148.794C76.7865 132.479 105.965 132.54 130.823 127.73C153.953 123.258 176.508 118.638 200.162 121.839C228.008 125.607 262.751 127.184 277.12 147.524C291.593 168.013 268.181 192.091 266.333 215.506C264.66 236.694 283.414 261.863 266.841 277.755C250.091 293.816 217.106 281.615 192.094 286.694C169.029 291.378 150.229 310.656 126.84 306.186C103.099 301.646 89.3402 281.287 75.6225 264.428C62.2328 247.971 51.7286 230.354 49.2115 210.779C46.4546 189.338 44.5645 165.269 60.7541 148.794Z" stroke="#FFCD42"/>
<path opacity="0.3" fill-rule="evenodd" clip-rule="evenodd" d="M42.481 139.04C61.2122 119.977 95.2957 120.04 124.333 114.422C151.352 109.193 177.7 103.79 205.329 107.524C237.855 111.92 278.437 113.76 295.216 137.521C312.117 161.452 284.765 189.583 282.6 216.937C280.641 241.69 302.54 271.089 283.177 289.657C263.609 308.423 225.082 294.175 195.865 300.113C168.921 305.589 146.957 328.113 119.637 322.894C91.9065 317.596 75.8399 293.813 59.8201 274.121C44.1837 254.9 31.9183 234.32 28.9831 211.452C25.768 186.405 23.5664 158.288 42.481 139.04Z" stroke="#FFCD42"/>
<path opacity="0.3" fill-rule="evenodd" clip-rule="evenodd" d="M22.5534 128.399C44.2288 106.341 83.6629 106.406 117.26 99.9006C148.522 93.8476 179.007 87.5912 210.973 91.9083C248.604 96.9924 295.556 99.1144 314.965 126.604C334.514 154.292 302.862 186.847 300.352 218.498C298.081 247.14 323.413 281.154 301.006 302.641C278.362 324.357 233.791 307.877 199.985 314.752C168.81 321.091 143.394 347.157 111.786 341.121C79.7031 334.995 61.1185 307.48 42.588 284.696C24.5008 262.457 10.3133 238.646 6.92439 212.187C3.20761 183.206 0.665728 150.673 22.5534 128.399Z" stroke="#FFCD42"/>
<path opacity="0.3" fill-rule="evenodd" clip-rule="evenodd" d="M3.17595 118.053C27.7162 93.0798 72.3517 93.1513 110.38 85.7847C145.765 78.928 180.273 71.8435 216.456 76.7274C259.051 82.4775 312.196 84.8784 334.161 115.991C356.285 147.333 320.453 184.187 317.608 220.016C315.033 252.439 343.7 290.939 318.336 315.265C292.702 339.85 242.252 321.199 203.986 328.984C168.699 336.163 139.926 365.671 104.149 358.842C67.8352 351.91 46.8028 320.766 25.8312 294.978C5.36103 269.805 -10.6938 242.853 -14.5293 212.902C-18.7296 180.095 -21.6024 143.27 3.17595 118.053Z" stroke="#FFCD42"/>
<path opacity="0.3" fill-rule="evenodd" clip-rule="evenodd" d="M-14.541 108.593C12.6144 80.956 62.0064 81.0327 104.089 72.8775C143.247 65.2885 181.433 57.445 221.468 62.8486C268.602 69.2077 327.409 71.861 351.712 106.289C376.19 140.971 336.536 181.756 333.384 221.405C330.532 257.284 362.251 299.886 334.18 326.808C305.812 354.015 249.989 333.379 207.645 341.997C168.596 349.944 136.755 382.6 97.1666 375.045C56.9839 367.377 33.7137 332.915 10.5104 304.378C-12.1387 276.523 -29.9014 246.699 -34.1441 213.554C-38.7873 177.252 -41.9622 136.5 -14.541 108.593Z" stroke="#FFCD42"/>
<path opacity="0.3" fill-rule="evenodd" clip-rule="evenodd" d="M-33.3615 98.5436C-3.42568 68.0761 51.0195 68.1584 97.4084 59.1645C140.573 50.7945 182.665 42.149 226.798 48.1028C278.752 55.1087 343.578 58.028 370.363 95.983C397.343 134.21 353.628 179.173 350.15 222.879C347.003 262.43 381.964 309.391 351.019 339.07C319.746 369.064 258.212 346.319 211.537 355.822C168.491 364.586 133.389 400.586 89.7511 392.261C45.4583 383.81 19.8105 345.821 -5.76479 314.365C-30.7263 283.661 -50.306 250.786 -54.9774 214.249C-60.0944 174.231 -63.5909 129.307 -33.3615 98.5436Z" stroke="#FFCD42"/>
<path opacity="0.3" fill-rule="evenodd" clip-rule="evenodd" d="M-53.8461 87.6062C-20.884 54.0588 39.0608 54.1444 90.1358 44.24C137.661 35.0243 184.007 25.5017 232.595 32.0519C289.798 39.7653 361.169 42.9767 390.657 84.7628C420.36 126.852 372.225 176.361 368.393 224.484C364.924 268.033 403.412 319.738 369.339 352.416C334.905 385.442 267.159 360.402 215.767 370.868C168.375 380.519 129.724 420.159 81.6786 410.994C32.9125 401.692 4.67712 359.867 -23.4788 325.233C-50.9612 291.427 -72.5135 255.231 -77.6555 215.003C-83.285 170.942 -87.1308 121.479 -53.8461 87.6062Z" stroke="#FFCD42"/>
</g>
</g>
<defs>
<clipPath id="clip0_2976_38776">
<rect width="388" height="110" fill="white"/>
</clipPath>
</defs>
</svg>
