<svg width="54" height="54" viewBox="0 0 54 54" fill="none" xmlns="http://www.w3.org/2000/svg">
<rect width="54" height="54" rx="16" fill="#7D42FB"/>
<path opacity="0.7" d="M14.5748 18.9395C13.019 18.9395 11.7378 20.2207 11.7378 21.807V40.6038C11.7378 42.1596 13.019 43.4408 14.5748 43.4408C16.1611 43.4408 17.4424 42.1596 17.4424 40.6038V21.807C17.4424 20.2207 16.1611 18.9395 14.5748 18.9395Z" fill="white"/>
<path d="M26.985 10.5586C25.4292 10.5586 24.1479 11.8398 24.1479 13.4261V40.604C24.1479 42.1598 25.4292 43.4411 26.985 43.4411C28.5713 43.4411 29.8525 42.1598 29.8525 40.604V13.4261C29.8525 11.8398 28.5713 10.5586 26.985 10.5586Z" fill="white"/>
<path opacity="0.7" d="M39.4252 20.8511C37.8389 20.8511 36.5576 22.1323 36.5576 23.7186V40.6043C36.5576 42.1601 37.8389 43.4414 39.3947 43.4414C40.981 43.4414 42.2622 42.1601 42.2622 40.6043V23.7186C42.2622 22.1323 40.981 20.8511 39.4252 20.8511Z" fill="white"/>
</svg>
