<svg width="78" height="78" viewBox="0 0 78 78" fill="none" xmlns="http://www.w3.org/2000/svg">
<rect width="78" height="78" rx="17.3521" fill="#FFCD42"/>
<path opacity="0.35" d="M44.2109 25.9741V15.5537L59.8415 31.1843H49.4211C46.5425 31.1843 44.2109 28.8527 44.2109 25.9741Z" fill="white"/>
<path fill-rule="evenodd" clip-rule="evenodd" d="M52.0264 62.4454H25.9754C21.6588 62.4454 18.1602 58.9468 18.1602 54.6301V23.369C18.1602 19.0524 21.6588 15.5537 25.9754 15.5537H44.2109V25.9741C44.2109 28.8527 46.5425 31.1843 49.4211 31.1843H59.8415L44.2109 15.5537H44.2111L59.8417 31.1843V54.6301C59.8417 58.9468 56.343 62.4454 52.0264 62.4454ZM24.2602 56.5921C24.7525 57.0246 25.3647 57.2356 25.9743 57.2356C26.6985 57.2356 27.4201 56.936 27.9359 56.3446L35.0452 48.2219L39.6042 53.6952C40.1043 54.2918 40.8155 54.7477 41.6309 54.6305C42.4125 54.6227 43.1497 54.2631 43.6395 53.6536L54.0598 40.6281C54.9586 39.5053 54.7762 37.8667 53.6534 36.9653C52.528 36.064 50.8946 36.2515 49.9907 37.3717L41.5658 47.9067L37.0955 42.5402C36.6057 41.9567 35.8867 41.6154 35.1234 41.605C34.2924 41.631 33.6307 41.9176 33.1305 42.4959L24.0127 52.9163C23.067 53.9974 23.1764 55.6439 24.2602 56.5921Z" fill="white"/>
<path opacity="0.35" d="M25.9739 57.2355C25.3643 57.2355 24.7521 57.0245 24.2598 56.592C23.1761 55.6438 23.0666 53.9973 24.0123 52.9162L33.1301 42.4958C33.6303 41.9175 34.292 41.631 35.123 41.6049C35.8863 41.6153 36.6053 41.9566 37.0951 42.5401L41.5654 47.9066L49.9903 37.3716C50.8943 36.2514 52.5277 36.0639 53.6531 36.9652C54.7759 37.8666 54.9582 39.5052 54.0595 40.628L43.6391 53.6535C43.1493 54.2631 42.4121 54.6226 41.6305 54.6304C40.8152 54.7476 40.104 54.2917 39.6038 53.6951L35.0449 48.2218L27.9356 56.3445C27.4198 56.9359 26.6981 57.2355 25.9739 57.2355Z" fill="white"/>
</svg>
