<svg width="388" height="110" viewBox="0 0 388 110" fill="none" xmlns="http://www.w3.org/2000/svg">
<g clip-path="url(#clip0_2976_38775)">
<rect width="388" height="110" fill="white"/>
<path d="M-22.0605 -6.24133H410.061V116.012H-22.0605V-6.24133Z" fill="#1DE4FF" fill-opacity="0.1"/>
<mask id="mask0_2976_38775" style="mask-type:alpha" maskUnits="userSpaceOnUse" x="-23" y="-7" width="434" height="124">
<path d="M9.12695 -5.74133H378.874C396.271 -5.74133 410.374 8.3617 410.374 25.7587V115.971H-22.373V25.7587C-22.373 8.36172 -8.27001 -5.74133 9.12695 -5.74133Z" fill="#7D42FB" stroke="#1DE4FF"/>
</mask>
<g mask="url(#mask0_2976_38775)">
<path opacity="0.3" fill-rule="evenodd" clip-rule="evenodd" d="M133.918 303.779C117.788 299.357 107.48 280.76 95.5906 266.638C84.5282 253.497 73.5716 240.777 67.2328 224.581C59.7745 205.515 48.4684 182.835 56.3987 166.473C64.3852 149.993 88.1021 156.36 103.749 149.233C117.909 142.783 127.376 121.918 143.427 126.832C159.648 131.801 163.531 157.129 175.65 171.252C186.826 184.276 205.835 189.409 211.264 205.886C216.776 222.612 208.618 238.592 202.687 253.307C196.897 267.668 189.341 280.603 177.699 289.148C164.947 298.506 150.207 308.244 133.918 303.779Z" stroke="#1DE4FF"/>
<path opacity="0.3" fill-rule="evenodd" clip-rule="evenodd" d="M134.168 320.061C115.108 314.834 102.925 292.866 88.8716 276.184C75.7936 260.661 62.8482 245.632 55.3567 226.503C46.5404 203.98 33.1796 177.19 42.5511 157.864C51.9876 138.4 80.0179 145.924 98.5095 137.507C115.244 129.891 126.43 105.247 145.4 111.055C164.571 116.924 169.16 146.844 183.484 163.528C196.691 178.914 219.157 184.978 225.574 204.442C232.087 224.198 222.447 243.073 215.438 260.452C208.597 277.414 199.667 292.692 185.909 302.784C170.839 313.836 153.418 325.337 134.168 320.061Z" stroke="#1DE4FF"/>
<path opacity="0.3" fill-rule="evenodd" clip-rule="evenodd" d="M134.428 336.969C112.32 330.909 98.1936 305.438 81.8926 286.098C66.7282 268.101 51.7125 250.676 43.0265 228.498C32.8006 202.388 17.3012 171.329 28.1683 148.926C39.1152 126.36 71.6224 135.086 93.0684 125.331C112.476 116.503 125.449 87.9338 147.449 94.6701C169.684 101.478 175.006 136.162 191.618 155.505C206.938 173.344 232.991 180.378 240.434 202.942C247.988 225.846 236.808 247.726 228.679 267.871C220.744 287.535 210.389 305.246 194.433 316.944C176.957 329.756 156.754 343.087 134.428 336.969Z" stroke="#1DE4FF"/>
<path opacity="0.3" fill-rule="evenodd" clip-rule="evenodd" d="M134.747 357.634C108.916 350.555 92.4071 320.806 73.3667 298.214C55.6468 277.193 38.1017 256.841 27.9519 230.938C16.0028 200.443 -2.10412 164.165 10.5941 138C23.382 111.646 61.3607 121.84 86.4177 110.449C109.092 100.141 124.249 66.7754 149.954 74.6446C175.931 82.5977 182.15 123.108 201.56 145.701C219.459 166.537 249.899 174.754 258.595 201.109C267.423 227.86 254.359 253.414 244.864 276.942C235.594 299.907 223.495 320.592 204.853 334.252C184.435 349.214 160.831 364.782 134.747 357.634Z" stroke="#1DE4FF"/>
<path opacity="0.3" fill-rule="evenodd" clip-rule="evenodd" d="M135.092 380.177C105.202 371.984 86.0956 337.568 64.0594 311.431C43.5555 287.111 23.2501 263.566 11.5046 233.599C-2.32139 198.318 -23.2763 156.348 -8.58389 126.08C6.21371 95.5937 50.1647 107.39 79.16 94.2135C105.398 82.2901 122.937 43.691 152.683 52.7971C182.745 61.9998 189.942 108.864 212.404 135.004C233.117 159.109 268.342 168.618 278.406 199.108C288.621 230.056 273.506 259.618 262.517 286.835C251.791 313.402 237.79 337.331 216.217 353.131C192.59 370.44 165.277 388.449 135.092 380.177Z" stroke="#1DE4FF"/>
<path opacity="0.3" fill-rule="evenodd" clip-rule="evenodd" d="M135.431 402.095C101.59 392.82 79.9613 353.865 55.0165 324.283C31.8031 296.757 8.81626 270.107 -4.48128 236.187C-20.135 196.255 -43.8547 148.75 -27.2254 114.494C-10.4723 79.9885 39.2828 93.3421 72.1074 78.4303C101.811 64.9366 121.667 21.2509 155.34 31.558C189.372 41.9758 197.522 95.0192 222.95 124.606C246.398 151.889 286.276 162.654 297.67 197.164C309.234 232.193 292.124 265.65 279.684 296.455C267.542 326.524 251.691 353.606 227.271 371.49C200.522 391.078 169.602 411.459 135.431 402.095Z" stroke="#1DE4FF"/>
<path opacity="0.3" fill-rule="evenodd" clip-rule="evenodd" d="M135.739 422.134C98.289 411.872 74.3535 368.767 46.7461 336.032C21.057 305.573 -4.38324 276.084 -19.0971 238.552C-36.4219 194.367 -62.6717 141.803 -44.2691 103.899C-25.7289 65.7196 29.3327 80.4975 65.6591 63.9992C98.5314 49.0696 120.504 0.731332 157.77 12.1387C195.432 23.667 204.451 82.3594 232.591 115.097C258.542 145.288 302.673 157.199 315.282 195.386C328.08 234.145 309.145 271.165 295.378 305.25C281.94 338.52 264.4 368.486 237.376 388.275C207.774 409.946 173.554 432.497 135.739 422.134Z" stroke="#1DE4FF"/>
<path opacity="0.3" fill-rule="evenodd" clip-rule="evenodd" d="M136.066 443.424C94.7815 432.111 68.3953 384.598 37.9592 348.515C9.63748 314.941 -18.4045 282.436 -34.627 241.064C-53.7266 192.362 -82.6677 134.421 -62.3766 92.6407C-41.9411 50.5588 18.7607 66.849 58.8056 48.6657C95.0438 32.2102 119.265 -21.0697 160.348 -8.49488C201.867 4.2136 211.811 68.9091 242.833 104.994C271.442 138.273 320.093 151.404 333.994 193.496C348.102 236.219 327.228 277.024 312.052 314.594C297.238 351.264 277.903 384.295 248.109 406.105C215.478 429.992 177.754 454.849 136.066 443.424Z" stroke="#1DE4FF"/>
<path opacity="0.3" fill-rule="evenodd" clip-rule="evenodd" d="M136.423 466.595C90.9642 454.139 61.9084 401.829 28.396 362.102C-2.78686 325.136 -33.666 289.348 -51.5302 243.801C-72.5594 190.18 -104.425 126.389 -82.0856 80.3921C-59.5836 34.0614 7.25496 51.9991 51.3488 31.9801C91.2509 13.8647 117.922 -44.7944 163.157 -30.948C208.873 -16.9548 219.822 54.271 253.981 94.002C285.481 130.64 339.05 145.099 354.356 191.441C369.892 238.478 346.908 283.401 330.198 324.764C313.887 365.138 292.596 401.501 259.792 425.513C223.862 451.81 182.323 479.174 136.423 466.595Z" stroke="#1DE4FF"/>
</g>
</g>
<defs>
<clipPath id="clip0_2976_38775">
<rect width="388" height="110" fill="white"/>
</clipPath>
</defs>
</svg>
