<svg width="78" height="78" viewBox="0 0 78 78" fill="none" xmlns="http://www.w3.org/2000/svg">
<rect width="78" height="78" rx="17.3521" fill="#1DE4FF"/>
<path opacity="0.35" d="M46.2066 41.3242C46.2066 40.4284 46.6097 39.6293 47.2439 39.0942C47.8073 38.6157 48.0548 37.8566 47.7955 37.1635C47.3382 35.9542 46.6899 34.8392 45.886 33.8586C45.4334 33.307 44.6744 33.0972 44.0096 33.3518C43.2105 33.6582 42.2911 33.6181 41.492 33.1584C40.6905 32.6964 40.1955 31.9138 40.0658 31.0675C39.9597 30.3744 39.4105 29.8205 38.7198 29.7026C38.088 29.5942 37.4398 29.5376 36.7773 29.5376C36.1149 29.5376 35.4667 29.5942 34.8373 29.7026C34.1442 29.8181 33.595 30.3721 33.4889 31.0651C33.3592 31.9138 32.8642 32.6964 32.0627 33.1584C31.2636 33.6181 30.3442 33.6582 29.5451 33.3518C28.8827 33.0948 28.1212 33.307 27.671 33.8586C26.8648 34.8416 26.2165 35.9542 25.7616 37.1635C25.4999 37.8566 25.7474 38.6157 26.3132 39.0942C26.9449 39.6293 27.348 40.4284 27.348 41.3242C27.348 42.22 26.9449 43.0191 26.3108 43.5543C25.7474 44.0328 25.4999 44.7919 25.7592 45.4849C26.2165 46.6942 26.8648 47.8092 27.6686 48.7899C28.1212 49.3415 28.8803 49.5513 29.5451 49.2967C30.3418 48.9902 31.2636 49.028 32.0627 49.49C32.8642 49.952 33.3592 50.7347 33.4889 51.5809C33.595 52.274 34.1442 52.828 34.8349 52.9458C35.4667 53.0543 36.1149 53.1109 36.7773 53.1109C37.4398 53.1109 38.088 53.0543 38.7174 52.9458C39.4081 52.828 39.9574 52.274 40.0635 51.5809C40.1931 50.7323 40.6881 49.952 41.4896 49.49C42.2888 49.028 43.2081 48.9902 44.0073 49.2967C44.672 49.5536 45.4311 49.3415 45.8837 48.7899C46.6899 47.8069 47.3382 46.6942 47.7931 45.4849C48.0548 44.7942 47.8073 44.0328 47.2415 43.5543C46.6097 43.0191 46.2066 42.22 46.2066 41.3242ZM36.7773 46.0389C34.1725 46.0389 32.0627 43.9267 32.0627 41.3242C32.0627 38.7217 34.1725 36.6096 36.7773 36.6096C39.3822 36.6096 41.492 38.7217 41.492 41.3242C41.492 43.9267 39.3822 46.0389 36.7773 46.0389Z" fill="white"/>
<path fill-rule="evenodd" clip-rule="evenodd" d="M57.2767 36.3948L61.3548 41.3594C63.434 43.8911 62.6938 47.6888 59.8155 49.2564L57.1659 50.6967L55.9306 56.8588C55.2682 60.1614 52.3663 62.5399 48.9977 62.5399H28.6587C25.5117 62.5399 22.789 60.4419 21.8743 57.4292C21.239 55.335 20.2801 53.4944 19.3023 51.6177C17.4901 48.1394 15.6133 44.5371 15.6133 38.9667C15.6133 27.0103 23.4867 17.7507 36.775 17.7507C48.5616 17.7507 56.1404 26.0132 57.2767 36.3948ZM47.2437 39.0942C46.6096 39.6293 46.2065 40.4284 46.2065 41.3242C46.2065 42.22 46.6096 43.0191 47.2414 43.5542C47.8071 44.0328 48.0546 44.7942 47.793 45.4849C47.338 46.6942 46.6897 47.8069 45.8835 48.7899C45.4309 49.3415 44.6719 49.5536 44.0071 49.2967C43.208 48.9902 42.2886 49.028 41.4895 49.49C40.688 49.952 40.193 50.7323 40.0633 51.5809C39.9572 52.274 39.408 52.828 38.7173 52.9458C38.0879 53.0543 37.4396 53.1108 36.7772 53.1108C36.1148 53.1108 35.4665 53.0543 34.8348 52.9458C34.1441 52.828 33.5948 52.274 33.4887 51.5809C33.3591 50.7347 32.864 49.952 32.0625 49.49C31.2634 49.028 30.3417 48.9902 29.5449 49.2967C28.8802 49.5513 28.1211 49.3415 27.6685 48.7899C26.8646 47.8092 26.2164 46.6942 25.7591 45.4849C25.4997 44.7918 25.7473 44.0328 26.3107 43.5542C26.9448 43.0191 27.3479 42.22 27.3479 41.3242C27.3479 40.4284 26.9448 39.6293 26.313 39.0942C25.7473 38.6156 25.4997 37.8566 25.7614 37.1635C26.2164 35.9542 26.8646 34.8416 27.6708 33.8586C28.1211 33.307 28.8825 33.0948 29.5449 33.3517C30.344 33.6582 31.2634 33.6181 32.0625 33.1584C32.864 32.6964 33.3591 31.9138 33.4887 31.0651C33.5948 30.3721 34.1441 29.8181 34.8371 29.7026C35.4665 29.5942 36.1148 29.5376 36.7772 29.5376C37.4396 29.5376 38.0879 29.5942 38.7196 29.7026C39.4103 29.8205 39.9596 30.3744 40.0657 31.0675C40.1953 31.9138 40.6903 32.6964 41.4918 33.1584C42.291 33.6181 43.2103 33.6582 44.0095 33.3517C44.6742 33.0971 45.4333 33.307 45.8859 33.8586C46.6897 34.8392 47.338 35.9542 47.7953 37.1635C48.0546 37.8566 47.8071 38.6156 47.2437 39.0942ZM32.0625 41.3242C32.0625 43.9267 34.1723 46.0389 36.7772 46.0389C39.382 46.0389 41.4918 43.9267 41.4918 41.3242C41.4918 38.7217 39.382 36.6096 36.7772 36.6096C34.1723 36.6096 32.0625 38.7217 32.0625 41.3242Z" fill="white"/>
</svg>
