<svg width="388" height="110" viewBox="0 0 388 110" fill="none" xmlns="http://www.w3.org/2000/svg">
<g clip-path="url(#clip0_2942_28903)">
<rect width="388" height="110" fill="white"/>
<path opacity="0.1" d="M-0.25 -0.174805H388.478V110.174H-0.25V-0.174805Z" fill="#FF813A"/>
<mask id="mask0_2942_28903" style="mask-type:alpha" maskUnits="userSpaceOnUse" x="0" y="-1" width="389" height="112">
<path d="M0.25 -0.174805H388.25V110.174H0.25V-0.174805Z" fill="#7D42FB"/>
</mask>
<g mask="url(#mask0_2942_28903)">
<path opacity="0.3" fill-rule="evenodd" clip-rule="evenodd" d="M388.879 43.0599C383.396 45.2016 376.315 42.0292 369.81 40.4798C363.757 39.0386 357.828 37.6948 352.395 34.3733C345.999 30.4626 337.716 26.3254 336.208 19.9354C334.688 13.4987 342.721 10.311 345.449 4.94562C347.919 0.0905625 345.817 -7.92186 351.39 -9.90446C357.023 -11.9085 363.845 -5.43719 370.415 -3.9362C376.473 -2.55222 382.917 -5.0997 388.162 -1.50336C393.486 2.14587 394.844 8.47425 396.532 13.9665C398.181 19.3275 399.016 24.6521 397.72 29.5775C396.302 34.9722 394.416 40.8972 388.879 43.0599Z" stroke="#FFCCB1"/>
<path opacity="0.3" fill-rule="evenodd" clip-rule="evenodd" d="M401.542 58.6508C392.684 62.1108 381.267 57.0148 370.773 54.5325C361.007 52.2228 351.444 50.0698 342.686 44.7295C332.375 38.443 319.019 31.7945 316.605 21.5035C314.174 11.1379 327.147 5.98638 331.57 -2.66164C335.573 -10.4876 332.205 -23.3907 341.207 -26.5964C350.304 -29.8355 361.294 -19.4236 371.893 -17.0196C381.666 -14.8018 392.074 -18.9171 400.528 -13.1358C409.109 -7.26776 411.281 2.92436 413.99 11.7685C416.633 20.4014 417.963 28.9774 415.857 36.9128C413.548 45.6073 410.486 55.1557 401.542 58.6508Z" stroke="#FFCCB1"/>
<path opacity="0.3" fill-rule="evenodd" clip-rule="evenodd" d="M413.81 73.7536C401.685 78.4926 386.065 71.5314 371.706 68.1441C358.343 64.9944 345.257 62.0582 333.279 54.7612C319.176 46.1727 300.905 37.0916 297.614 23.0217C294.299 8.84946 312.059 1.79596 318.122 -10.0328C323.61 -20.7369 319.016 -38.378 331.338 -42.7675C343.792 -47.2035 358.821 -32.9755 373.322 -29.6951C386.695 -26.6695 400.943 -32.3048 412.505 -24.4058C424.241 -16.3882 427.202 -2.45333 430.899 9.63854C434.507 21.441 436.317 33.1666 433.424 44.0208C430.255 55.9089 426.053 68.9679 413.81 73.7536Z" stroke="#FFCCB1"/>
<path opacity="0.3" fill-rule="evenodd" clip-rule="evenodd" d="M424.888 87.3956C409.812 93.2894 390.396 84.6447 372.547 80.4405C355.939 76.5285 339.673 72.8855 324.781 63.8241C307.254 53.1544 284.544 41.8771 280.461 24.3928C276.347 6.78307 298.431 -1.9887 305.976 -16.69C312.804 -29.9937 307.102 -51.9144 322.424 -57.3741C337.909 -62.8912 356.585 -45.2157 374.611 -41.1443C391.234 -37.3898 408.952 -44.3968 423.322 -34.5855C437.91 -24.6267 441.582 -7.31036 446.172 7.71538C450.651 22.3806 452.895 36.9513 449.292 50.4404C445.345 65.2142 440.113 81.4437 424.888 87.3956Z" stroke="#FFCCB1"/>
<path opacity="0.3" fill-rule="evenodd" clip-rule="evenodd" d="M435.177 100.063C417.361 107.026 394.421 96.8181 373.33 91.8571C353.703 87.242 334.484 82.9373 316.892 72.2378C296.183 59.6375 269.353 46.3196 264.533 25.6655C259.678 4.86467 285.778 -5.50266 294.698 -22.8718C302.771 -38.5894 296.041 -64.4838 314.149 -70.9363C332.448 -77.4587 354.512 -56.5805 375.811 -51.7752C395.452 -47.3424 416.392 -55.6252 433.369 -44.0375C450.602 -32.2757 454.936 -11.8208 460.354 5.92809C465.642 23.2517 468.288 40.4642 464.027 56.4005C459.357 73.8546 453.169 93.0283 435.177 100.063Z" stroke="#FFCCB1"/>
<path opacity="0.3" fill-rule="evenodd" clip-rule="evenodd" d="M445.862 113.217C425.198 121.295 398.6 109.461 374.141 103.714C351.385 98.3639 329.097 93.3777 308.701 80.9727C284.689 66.3686 253.576 50.9341 247.992 26.9896C242.369 2.87089 272.637 -9.1533 282.986 -29.2921C292.351 -47.5164 284.554 -77.5376 305.554 -85.0212C326.778 -92.5844 352.357 -68.3835 377.056 -62.8153C399.833 -57.6801 424.118 -67.2846 443.802 -53.8538C463.782 -40.2192 468.802 -16.5045 475.08 4.07202C481.207 24.1573 484.272 44.1121 479.326 62.5891C473.908 82.8268 466.728 105.058 445.862 113.217Z" stroke="#FFCCB1"/>
<path opacity="0.3" fill-rule="evenodd" clip-rule="evenodd" d="M458.921 129.293C434.778 138.734 403.706 124.917 375.135 118.203C348.55 111.959 322.512 106.139 298.687 91.6531C270.638 74.5993 234.294 56.5733 227.778 28.6042C221.212 0.434493 256.575 -13.6134 268.671 -37.1379C279.617 -58.4262 270.514 -93.4905 295.05 -102.235C319.846 -111.072 349.724 -82.8078 378.578 -76.3079C405.186 -70.3133 433.558 -81.5359 456.552 -65.8496C479.892 -49.9282 485.75 -22.2275 493.08 1.80501C500.234 25.2636 503.81 48.572 498.027 70.1546C491.693 93.7938 483.299 119.762 458.921 129.293Z" stroke="#FFCCB1"/>
<path opacity="0.3" fill-rule="evenodd" clip-rule="evenodd" d="M473.166 146.832C445.23 157.755 409.277 141.775 376.217 134.012C345.457 126.789 315.328 120.061 287.762 103.304C255.31 83.5747 213.259 62.7247 205.723 30.3682C198.131 -2.22169 239.054 -18.4795 253.055 -45.6978C265.723 -70.3279 255.197 -110.895 283.59 -121.015C312.284 -131.242 346.851 -98.5458 380.237 -91.0279C411.024 -84.0956 443.857 -97.083 470.461 -78.9372C497.465 -60.5191 504.24 -28.4734 512.716 -0.66905C520.99 26.4703 525.124 53.4371 518.426 78.4062C511.094 105.757 501.377 135.801 473.166 146.832Z" stroke="#FFCCB1"/>
<path opacity="0.3" fill-rule="evenodd" clip-rule="evenodd" d="M487.017 163.883C455.388 176.249 414.691 158.164 377.271 149.38C342.451 141.209 308.346 133.595 277.142 114.63C240.408 92.3027 192.81 68.7034 184.282 32.0832C175.693 -4.80556 222.02 -23.2105 237.872 -54.0197C252.217 -81.8996 240.308 -127.815 272.449 -139.273C304.932 -150.851 344.059 -113.845 381.851 -105.339C416.702 -97.4951 453.87 -112.198 483.984 -91.6615C514.55 -70.8165 522.216 -34.545 531.808 -3.07522C541.17 27.6429 545.846 58.1654 538.263 86.4297C529.957 117.388 518.953 151.395 487.017 163.883Z" stroke="#FFCCB1"/>
<path opacity="0.3" fill-rule="evenodd" clip-rule="evenodd" d="M499.679 179.475C464.679 193.162 419.645 173.151 378.233 163.434C339.7 154.393 301.959 145.971 267.433 124.986C226.783 100.284 174.113 74.1729 164.678 33.6516C155.178 -7.16675 206.446 -27.5345 223.991 -61.6272C239.869 -92.4782 226.692 -143.285 262.263 -155.964C298.211 -168.778 341.506 -127.832 383.326 -118.423C421.893 -109.745 463.025 -126.017 496.348 -103.294C530.172 -80.2303 538.651 -40.0953 549.262 -5.27251C559.62 28.7177 564.791 62.4913 556.399 93.7681C547.203 128.023 535.022 165.655 499.679 179.475Z" stroke="#FFCCB1"/>
<path opacity="0.3" fill-rule="evenodd" clip-rule="evenodd" d="M513.134 196.038C474.549 211.127 424.907 189.07 379.257 178.363C336.779 168.4 295.178 159.117 257.116 135.987C212.308 108.761 154.245 79.9834 143.851 35.314C133.379 -9.67665 189.898 -32.132 209.242 -69.7115C226.747 -103.719 212.226 -159.722 251.439 -173.7C291.068 -187.827 338.793 -142.694 384.893 -132.325C427.408 -122.762 472.752 -140.701 509.485 -115.655C546.769 -90.2341 556.113 -45.9935 567.808 -7.60978C579.221 29.8558 584.921 67.0842 575.664 101.561C565.527 139.321 552.095 180.803 513.134 196.038Z" stroke="#FFCCB1"/>
<path opacity="0.3" fill-rule="evenodd" clip-rule="evenodd" d="M527.775 214.064C485.29 230.678 430.632 206.399 380.37 194.611C333.601 183.643 287.794 173.424 245.888 147.963C196.554 117.987 132.627 86.3058 121.184 37.128C109.658 -12.4072 171.891 -37.1321 193.192 -78.509C212.469 -115.952 196.486 -177.611 239.662 -193.002C283.297 -208.556 335.84 -158.869 386.6 -147.454C433.408 -136.927 483.338 -156.679 523.781 -129.106C564.831 -101.119 575.116 -52.4119 587.99 -10.1517C600.555 31.0981 606.826 72.0855 596.633 110.044C585.467 151.618 570.675 197.29 527.775 214.064Z" stroke="#FFCCB1"/>
</g>
</g>
<defs>
<clipPath id="clip0_2942_28903">
<rect width="388" height="110" fill="white"/>
</clipPath>
</defs>
</svg>
