<svg width="78" height="78" viewBox="0 0 78 78" fill="none" xmlns="http://www.w3.org/2000/svg">
<rect width="78" height="78" rx="17.3521" fill="#FF813A"/>
<path opacity="0.5" fill-rule="evenodd" clip-rule="evenodd" d="M41.0219 25.305C42.2318 24.6052 43.0458 23.2972 43.0458 21.799C43.0458 19.5638 41.2338 17.7517 38.9985 17.7517C36.7632 17.7517 34.9512 19.5638 34.9512 21.799C34.9512 23.297 35.765 24.6049 36.9746 25.3048V27.8701H41.0219V25.305Z" fill="white"/>
<path opacity="0.5" d="M59.2344 50.13V37.988C61.4705 37.988 63.2817 39.7992 63.2817 42.0354V46.0827C63.2817 48.3188 61.4705 50.13 59.2344 50.13Z" fill="white"/>
<path opacity="0.5" d="M18.7622 37.988V50.13C16.526 50.13 14.7148 48.3188 14.7148 46.0827V42.0354C14.7148 39.7992 16.526 37.988 18.7622 37.988Z" fill="white"/>
<path fill-rule="evenodd" clip-rule="evenodd" d="M53.1659 60.2487H24.8346C21.4814 60.2487 18.7637 57.5309 18.7637 54.1777V33.9411C18.7637 30.5879 21.4814 27.8701 24.8346 27.8701H53.1659C56.5191 27.8701 59.2368 30.5879 59.2368 33.9411V54.1777C59.2368 57.5309 56.5191 60.2487 53.1659 60.2487ZM47.0942 46.0827C49.3295 46.0827 51.1415 44.2706 51.1415 42.0354C51.1415 39.8001 49.3295 37.988 47.0942 37.988C44.8589 37.988 43.0469 39.8001 43.0469 42.0354C43.0469 44.2706 44.8589 46.0827 47.0942 46.0827ZM34.9521 42.0354C34.9521 44.2706 33.14 46.0827 30.9047 46.0827C28.6695 46.0827 26.8574 44.2706 26.8574 42.0354C26.8574 39.8001 28.6695 37.988 30.9047 37.988C33.14 37.988 34.9521 39.8001 34.9521 42.0354Z" fill="white"/>
</svg>
