<svg width="64" height="64" viewBox="0 0 64 64" fill="none" xmlns="http://www.w3.org/2000/svg">
<path opacity="0.5" fill-rule="evenodd" clip-rule="evenodd" d="M34.5459 14.7732C36.0673 13.8929 37.0908 12.2479 37.0908 10.3638C37.0908 7.55219 34.8116 5.27295 32 5.27295C29.1884 5.27295 26.9092 7.55219 26.9092 10.3638C26.9092 12.2483 27.9332 13.8936 29.4551 14.7738V18H34.5459V14.7732Z" fill="#2FF2B8"/>
<path opacity="0.5" d="M57.4541 45.999V30.7266C60.2668 30.7266 62.5449 33.0047 62.5449 35.8174V40.9082C62.5449 43.7209 60.2668 45.999 57.4541 45.999Z" fill="#2FF2B8"/>
<path opacity="0.5" d="M6.54687 30.7266V45.999C3.7342 45.999 1.45605 43.7209 1.45605 40.9082V35.8174C1.45605 33.0047 3.7342 30.7266 6.54687 30.7266Z" fill="#2FF2B8"/>
<path fill-rule="evenodd" clip-rule="evenodd" d="M49.8198 58.727H14.1841C9.96634 58.727 6.54785 55.3085 6.54785 51.0908V25.6367C6.54785 21.419 9.96634 18.0005 14.1841 18.0005H49.8198C54.0375 18.0005 57.456 21.419 57.456 25.6367V51.0908C57.456 55.3085 54.0375 58.727 49.8198 58.727ZM42.1836 40.9087C44.9952 40.9087 47.2744 38.6294 47.2744 35.8179C47.2744 33.0063 44.9952 30.7271 42.1836 30.7271C39.372 30.7271 37.0928 33.0063 37.0928 35.8179C37.0928 38.6294 39.372 40.9087 42.1836 40.9087ZM26.9101 35.8179C26.9101 38.6294 24.6309 40.9087 21.8193 40.9087C19.0078 40.9087 16.7285 38.6294 16.7285 35.8179C16.7285 33.0063 19.0078 30.7271 21.8193 30.7271C24.6309 30.7271 26.9101 33.0063 26.9101 35.8179Z" fill="#2FF2B8"/>
</svg>
