<svg width="388" height="110" viewBox="0 0 388 110" fill="none" xmlns="http://www.w3.org/2000/svg">
<g clip-path="url(#clip0_2976_38774)">
<rect width="388" height="110" fill="white"/>
<path d="M-50.0352 -14.1799H437.537V123.997H-50.0352V-14.1799Z" fill="#FF813A" fill-opacity="0.1"/>
<mask id="mask0_2976_38774" style="mask-type:alpha" maskUnits="userSpaceOnUse" x="-30" y="-9" width="449" height="128">
<path d="M2.48047 -8.02075H386.016C403.413 -8.02075 417.516 6.08228 417.516 23.4792V118.021H-29.0195V23.4793C-29.0195 6.08229 -14.9165 -8.02075 2.48047 -8.02075Z" fill="#7D42FB" stroke="#FF813A"/>
</mask>
<g mask="url(#mask0_2976_38774)">
<path opacity="0.3" fill-rule="evenodd" clip-rule="evenodd" d="M49.7753 165.739C62.7743 146.893 91.5282 141.969 115.192 132.975C137.211 124.61 158.639 116.196 182.488 115.317C210.565 114.282 245.06 109.906 262.7 127.535C280.466 145.293 261.528 173.065 263.718 196.499C265.7 217.706 288.486 239.353 274.882 257.875C261.133 276.593 226.549 270.179 202.78 279.466C180.861 288.029 165.643 310.274 141.837 309.855C117.673 309.427 100.631 291.675 84.2299 277.372C68.2208 263.409 54.8553 247.809 49.0225 228.911C42.6339 208.212 36.6492 184.771 49.7753 165.739Z" stroke="#FF813A"/>
<path opacity="0.3" fill-rule="evenodd" clip-rule="evenodd" d="M30.1068 159.228C45.2934 137.208 78.8797 131.449 106.522 120.944C132.243 111.166 157.273 101.332 185.129 100.301C217.924 99.0861 258.216 93.9721 278.816 114.568C299.564 135.31 277.438 167.756 279.991 195.134C282.302 219.909 308.91 245.196 293.017 266.836C276.955 288.706 236.561 281.218 208.796 292.071C183.192 302.079 165.414 328.069 137.607 327.581C109.382 327.086 89.4807 306.348 70.3265 289.641C51.6304 273.332 36.0226 255.108 29.2138 233.03C21.7562 208.849 14.7712 181.464 30.1068 159.228Z" stroke="#FF813A"/>
<path opacity="0.3" fill-rule="evenodd" clip-rule="evenodd" d="M8.65175 152.125C26.2258 126.644 65.0837 119.975 97.0659 107.813C126.825 96.4983 155.785 85.1147 188.013 83.9183C225.955 82.5116 272.572 76.5884 296.4 100.416C320.401 124.416 294.797 161.964 297.746 193.644C300.415 222.311 331.196 251.569 312.804 276.611C294.217 301.92 247.486 293.26 215.361 305.821C185.737 317.404 165.165 347.48 132.994 346.919C100.339 346.349 77.3185 322.356 55.1612 303.025C33.534 284.156 15.4791 263.069 7.60822 237.522C-1.01758 209.543 -9.09427 177.856 8.65175 152.125Z" stroke="#FF813A"/>
<path opacity="0.3" fill-rule="evenodd" clip-rule="evenodd" d="M-12.2086 145.219C7.68824 116.371 51.671 108.819 87.8705 95.0512C121.554 82.2382 154.335 69.35 190.815 67.993C233.761 66.3962 286.525 59.6908 313.493 86.6592C340.656 113.827 311.671 156.334 315.005 192.196C318.023 224.648 352.858 257.766 332.039 286.116C310.997 314.767 258.104 304.968 221.742 319.189C188.21 332.304 164.92 366.353 128.507 365.72C91.5466 365.078 65.4926 337.919 40.416 316.038C15.9387 294.68 -4.49376 270.81 -13.4027 241.892C-23.1602 210.218 -32.2983 174.349 -12.2086 145.219Z" stroke="#FF813A"/>
<path opacity="0.3" fill-rule="evenodd" clip-rule="evenodd" d="M-31.279 138.904C-9.26233 106.979 39.407 98.6198 79.4658 83.381C116.74 69.2008 153.014 54.9352 193.379 53.4333C240.899 51.6627 299.285 44.2395 329.124 74.0821C359.178 104.145 327.101 151.186 330.787 190.872C334.123 226.785 372.668 263.432 349.627 294.806C326.342 326.514 267.815 315.672 227.578 331.413C190.473 345.928 164.7 383.609 124.407 382.911C83.5094 382.202 54.6825 352.149 26.9365 327.935C-0.146568 304.3 -22.7535 277.887 -32.6105 245.886C-43.4031 210.836 -53.5114 171.141 -31.279 138.904Z" stroke="#FF813A"/>
<path opacity="0.3" fill-rule="evenodd" clip-rule="evenodd" d="M-51.5437 132.196C-27.2728 97.0015 26.3754 87.7849 70.5326 70.9825C111.621 55.3469 151.604 39.6224 196.1 37.964C248.48 36.0089 312.84 27.8205 345.728 60.7213C378.854 93.8575 343.493 145.718 347.553 189.465C351.228 229.053 393.712 269.449 368.312 304.038C342.643 338.993 278.129 327.045 233.777 344.399C192.874 360.403 164.462 401.943 120.048 401.175C74.9674 400.395 43.1941 367.266 12.6116 340.576C-17.2377 314.523 -42.157 285.407 -53.0176 250.13C-64.9134 211.492 -76.0531 167.733 -51.5437 132.196Z" stroke="#FF813A"/>
<path opacity="0.3" fill-rule="evenodd" clip-rule="evenodd" d="M-73.5965 124.895C-46.8719 86.143 12.1945 75.9904 60.812 57.4889C106.05 40.2735 150.075 22.9565 199.062 21.1262C256.733 18.9732 327.591 9.95545 363.798 46.1772C400.268 82.6623 361.331 139.765 365.799 187.934C369.842 231.525 416.613 276.003 388.646 314.087C360.382 352.576 289.356 339.422 240.522 358.532C195.489 376.154 164.204 421.894 115.305 421.05C65.6719 420.194 30.6925 383.719 -2.97659 354.332C-35.8405 325.647 -63.2719 293.589 -75.2284 254.748C-88.3215 212.205 -100.583 164.024 -73.5965 124.895Z" stroke="#FF813A"/>
</g>
</g>
<defs>
<clipPath id="clip0_2976_38774">
<rect width="388" height="110" fill="white"/>
</clipPath>
</defs>
</svg>
