<svg width="72" height="72" viewBox="0 0 72 72" fill="none" xmlns="http://www.w3.org/2000/svg">
<rect width="72" height="72" rx="18" fill="#2FF2B8"/>
<path d="M48.4562 54.6842H23.5442C20.5957 54.6842 18.206 52.2944 18.206 49.3459V31.5517C18.206 28.6031 20.5957 26.2134 23.5442 26.2134H48.4562C51.4047 26.2134 53.7944 28.6031 53.7944 31.5517V49.3459C53.7944 52.2944 51.4047 54.6842 48.4562 54.6842Z" fill="white"/>
<path opacity="0.5" fill-rule="evenodd" clip-rule="evenodd" d="M37.7795 23.9576C38.8433 23.3423 39.559 22.1921 39.559 20.8748C39.559 18.9093 37.9657 17.3159 36.0002 17.3159C34.0347 17.3159 32.4413 18.9093 32.4413 20.8748C32.4413 22.192 33.1569 23.3421 34.2206 23.9574V26.2131H37.7795V23.9576Z" fill="white"/>
<path opacity="0.7" d="M53.7943 45.7864V35.1099C55.7606 35.1099 57.3532 36.7024 57.3532 38.6687V42.2276C57.3532 44.1938 55.7606 45.7864 53.7943 45.7864Z" fill="white"/>
<path opacity="0.7" d="M18.2057 35.1099V45.7864C16.2394 45.7864 14.6469 44.1938 14.6469 42.2276V38.6687C14.6469 36.7024 16.2394 35.1099 18.2057 35.1099Z" fill="white"/>
<path d="M43.1178 42.2276C45.0833 42.2276 46.6767 40.6342 46.6767 38.6687C46.6767 36.7032 45.0833 35.1099 43.1178 35.1099C41.1523 35.1099 39.559 36.7032 39.559 38.6687C39.559 40.6342 41.1523 42.2276 43.1178 42.2276Z" fill="#2FF2B8"/>
<path d="M28.8825 42.2276C30.848 42.2276 32.4413 40.6342 32.4413 38.6687C32.4413 36.7032 30.848 35.1099 28.8825 35.1099C26.917 35.1099 25.3236 36.7032 25.3236 38.6687C25.3236 40.6342 26.917 42.2276 28.8825 42.2276Z" fill="#2FF2B8"/>
</svg>
