<svg width="12" height="12" viewBox="0 0 12 12" fill="none" xmlns="http://www.w3.org/2000/svg">
<g id="bar-chart-10">
<path id="Icon" d="M7.5 8.5H9.7C9.98003 8.5 10.12 8.5 10.227 8.4455C10.3211 8.39757 10.3976 8.32108 10.4455 8.227C10.5 8.12004 10.5 7.98003 10.5 7.7L10.5 2.3C10.5 2.01997 10.5 1.87996 10.4455 1.773C10.3976 1.67892 10.3211 1.60243 10.227 1.5545C10.12 1.5 9.98003 1.5 9.7 1.5H7.5M7.5 1.5H4.5M7.5 1.5L7.5 9.7C7.5 9.98003 7.5 10.12 7.4455 10.227C7.39757 10.3211 7.32108 10.3976 7.227 10.4455C7.12004 10.5 6.98003 10.5 6.7 10.5L5.3 10.5C5.01997 10.5 4.87996 10.5 4.773 10.4455C4.67892 10.3976 4.60243 10.3211 4.5545 10.227C4.5 10.12 4.5 9.98003 4.5 9.7L4.5 1.5M4.5 6.5H2.3C2.01997 6.5 1.87996 6.5 1.773 6.4455C1.67892 6.39757 1.60243 6.32108 1.5545 6.227C1.5 6.12004 1.5 5.98003 1.5 5.7L1.5 2.3C1.5 2.01997 1.5 1.87996 1.5545 1.773C1.60243 1.67892 1.67892 1.60243 1.773 1.5545C1.87996 1.5 2.01997 1.5 2.3 1.5L4.5 1.5" stroke="#EB5857" stroke-width="0.7" stroke-linecap="round" stroke-linejoin="round"/>
</g>
</svg>
