<svg width="72" height="72" viewBox="0 0 72 72" fill="none" xmlns="http://www.w3.org/2000/svg">
<rect width="72" height="72" rx="16" fill="#2FF2B8"/>
<path d="M50.5154 40.8379C49.0615 40.8379 47.7745 41.491 46.8867 42.5071C47.6294 43.3562 48.0963 44.4568 48.0963 45.6761C48.0963 46.8953 47.6294 47.9936 46.8867 48.8451C47.7745 49.8611 49.0615 50.5142 50.5154 50.5142C53.1884 50.5142 55.3535 48.3492 55.3535 45.6761C55.3535 43.003 53.1884 40.8379 50.5154 40.8379Z" fill="white"/>
<path d="M46.8867 42.5071C45.9989 41.491 44.712 40.8379 43.2581 40.8379C40.585 40.8379 38.4199 43.003 38.4199 45.6761C38.4199 48.3492 40.585 50.5142 43.2581 50.5142C44.712 50.5142 45.9989 49.8611 46.8867 48.8451C46.1441 47.9936 45.6772 46.8953 45.6772 45.6761C45.6772 44.4568 46.1441 43.3562 46.8867 42.5071Z" fill="white"/>
<path opacity="0.35" d="M60.1904 26.3237H11.8086V33.581H60.1904V26.3237Z" fill="white"/>
<path d="M19.0659 55.3526H52.9331C56.9415 55.3526 60.1904 52.1038 60.1904 48.0954V33.5807H11.8086V48.0954C11.8086 52.1038 15.0574 55.3526 19.0659 55.3526Z" fill="white"/>
<path d="M11.8086 26.3235V23.9045C11.8086 19.8961 15.0574 16.6472 19.0659 16.6472H52.9331C56.9415 16.6472 60.1904 19.8961 60.1904 23.9045V26.3235H11.8086Z" fill="white"/>
<path d="M46.8871 48.9044C45.9991 49.899 44.7071 50.5251 43.2689 50.5251C40.5909 50.5251 38.4199 48.3541 38.4199 45.6761C38.4199 42.9981 40.5909 40.8271 43.2689 40.8271C44.7071 40.8271 45.9991 41.4533 46.8871 42.4478C47.7751 41.4533 49.067 40.8271 50.5052 40.8271C53.1832 40.8271 55.3542 42.9981 55.3542 45.6761C55.3542 48.3541 53.1832 50.5251 50.5052 50.5251C49.067 50.5251 47.7751 49.899 46.8871 48.9044Z" fill="#2FF2B8"/>
<circle opacity="0.5" cx="50.4958" cy="45.6815" r="4.85709" fill="white"/>
<circle opacity="0.5" cx="43.2683" cy="45.6816" r="4.84836" fill="white"/>
</svg>
