<svg width="1440" height="1170" viewBox="0 0 1440 1170" fill="none" xmlns="http://www.w3.org/2000/svg">
<g clip-path="url(#clip0_3044_46032)">
<g opacity="0.7">
<path opacity="0.3" fill-rule="evenodd" clip-rule="evenodd" d="M749.271 646.194C742.04 659.423 722.934 664.861 707.628 672.533C693.385 679.674 679.548 686.801 663.43 689.232C644.454 692.094 621.403 697.62 607.936 687.571C594.369 677.449 604.88 657.971 601.406 642.957C598.265 629.367 580.964 617.115 588.634 604.05C596.385 590.845 620.408 592.303 635.761 584.429C649.92 577.168 658.369 561.561 674.57 559.978C691.013 558.369 704.085 568.544 716.43 576.535C728.481 584.334 738.875 593.403 744.435 605.196C750.527 618.11 756.574 632.836 749.271 646.194Z" stroke="#A0A3BD"/>
<path opacity="0.3" fill-rule="evenodd" clip-rule="evenodd" d="M799.747 655.919C788.065 677.29 757.292 686.095 732.627 698.507C709.676 710.057 687.378 721.582 661.418 725.529C630.857 730.177 593.726 739.131 572.066 722.923C550.249 706.597 567.22 675.133 561.672 650.889C556.651 628.95 528.823 609.19 541.205 588.081C553.72 566.749 592.399 569.072 617.139 556.336C639.955 544.592 653.6 519.383 679.689 516.801C706.169 514.181 727.192 530.593 747.051 543.478C766.434 556.056 783.148 570.685 792.068 589.717C801.841 610.569 811.539 634.338 799.747 655.919Z" stroke="#A0A3BD"/>
<path opacity="0.3" fill-rule="evenodd" clip-rule="evenodd" d="M848.641 665.339C832.656 694.597 790.571 706.666 756.838 723.666C725.451 739.491 694.957 755.28 659.462 760.692C617.677 767.071 566.907 779.346 537.311 757.171C507.5 734.835 530.731 691.758 523.168 658.576C516.324 628.548 478.299 601.515 495.248 572.616C512.377 543.409 565.252 546.568 599.088 529.124C630.293 513.037 648.968 478.525 684.637 474.978C720.841 471.377 749.566 493.831 776.705 511.459C803.193 528.665 826.028 548.68 838.208 574.73C851.545 603.263 864.782 635.794 848.641 665.339Z" stroke="#A0A3BD"/>
<path opacity="0.3" fill-rule="evenodd" clip-rule="evenodd" d="M892.817 673.85C872.943 710.234 820.645 725.249 778.723 746.395C739.717 766.069 701.822 785.709 657.713 792.457C605.789 800.392 542.7 815.67 505.934 788.103C468.904 760.34 497.789 706.774 488.407 665.519C479.917 628.185 432.681 594.582 453.75 558.647C475.047 522.329 540.747 526.242 582.797 504.545C621.574 484.537 644.799 441.621 689.119 437.201C734.109 432.712 769.791 460.627 803.507 482.537C836.412 503.923 864.778 528.805 879.898 561.191C896.455 596.665 912.887 637.109 892.817 673.85Z" stroke="#A0A3BD"/>
<path opacity="0.3" fill-rule="evenodd" clip-rule="evenodd" d="M933.83 681.752C910.34 724.744 848.561 742.496 799.036 767.496C752.953 790.761 708.178 813.966 656.079 821.948C594.739 831.336 520.213 849.396 476.791 816.825C433.056 784.025 467.193 720.717 456.12 671.965C446.101 627.847 390.313 588.144 415.215 545.674C440.376 502.751 517.988 507.367 567.666 481.719C613.477 458.072 640.922 407.349 693.278 402.12C746.42 396.813 788.563 429.792 828.382 455.68C867.245 480.948 900.745 510.347 918.599 548.618C938.148 590.538 957.547 638.331 933.83 681.752Z" stroke="#A0A3BD"/>
<path opacity="0.3" fill-rule="evenodd" clip-rule="evenodd" d="M976.41 689.958C949.171 739.825 877.54 760.412 820.119 789.415C766.688 816.393 714.774 843.313 654.37 852.568C583.257 863.464 496.85 884.425 446.517 846.659C395.818 808.618 435.405 735.197 422.58 678.66C410.974 627.497 346.304 581.46 375.182 532.204C404.368 482.424 494.34 487.768 551.939 458.02C605.056 430.587 636.888 371.763 697.584 365.692C759.195 359.533 808.046 397.775 854.201 427.793C899.252 457.095 938.085 491.183 958.773 535.565C981.433 584.175 1003.91 639.598 976.41 689.958Z" stroke="#A0A3BD"/>
<path opacity="0.3" fill-rule="evenodd" clip-rule="evenodd" d="M1028.46 699.983C996.638 758.25 912.971 782.316 845.895 816.192C783.483 847.722 722.845 879.181 652.292 890.002C569.232 902.741 468.305 927.232 409.522 883.11C350.315 838.673 396.565 752.895 381.597 686.842C368.05 627.069 292.527 573.289 326.264 515.739C360.361 457.578 465.447 463.814 532.727 429.051C594.772 396.995 631.958 328.268 702.855 321.17C774.817 313.964 831.868 358.644 885.771 393.707C938.384 427.934 983.734 467.758 1007.89 519.608C1034.35 576.398 1060.59 641.148 1028.46 699.983Z" stroke="#A0A3BD"/>
<path opacity="0.3" fill-rule="evenodd" clip-rule="evenodd" d="M1085.25 710.922C1048.43 778.344 951.629 806.204 874.024 845.415C801.814 881.9 731.659 918.313 650.034 930.839C553.938 945.582 437.172 973.932 369.174 922.884C300.683 871.469 354.204 772.201 336.895 695.769C321.232 626.604 233.866 564.376 272.906 497.779C312.362 430.474 433.933 437.679 511.776 397.45C583.56 360.351 626.592 280.819 708.615 272.6C791.869 264.258 857.864 315.949 920.219 356.522C981.082 396.124 1033.54 442.204 1061.47 502.202C1092.08 567.914 1122.44 642.837 1085.25 710.922Z" stroke="#A0A3BD"/>
<path opacity="0.3" fill-rule="evenodd" clip-rule="evenodd" d="M1140.46 721.556C1098.77 797.89 989.203 829.431 901.366 873.82C819.634 915.13 740.224 956.354 647.832 970.539C539.065 987.238 406.898 1019.33 329.941 961.553C252.425 903.349 313.013 790.972 293.43 704.447C275.709 626.149 176.832 555.71 221.025 480.317C265.69 404.123 403.292 412.272 491.402 366.726C572.655 324.725 621.369 234.688 714.208 225.379C808.44 215.93 883.131 274.443 953.703 320.368C1022.59 365.196 1081.96 417.358 1113.57 485.275C1148.2 559.666 1182.55 644.478 1140.46 721.556Z" stroke="#A0A3BD"/>
<path opacity="0.3" fill-rule="evenodd" clip-rule="evenodd" d="M1190.93 731.285C1144.79 815.758 1023.56 850.666 926.356 899.796C835.912 945.513 748.041 991.14 645.811 1006.84C525.458 1025.32 379.213 1060.84 294.062 996.906C208.294 932.497 275.344 808.135 253.682 712.382C234.08 625.734 124.674 547.788 173.583 464.352C223.011 380.03 375.268 389.043 472.766 338.636C562.676 292.151 616.585 192.511 719.313 182.205C823.583 171.744 906.225 236.495 984.31 287.317C1060.53 336.923 1126.22 394.645 1161.2 469.803C1199.51 552.125 1237.51 645.986 1190.93 731.285Z" stroke="#A0A3BD"/>
<path opacity="0.3" fill-rule="evenodd" clip-rule="evenodd" d="M1244.56 741.614C1193.7 834.739 1060.06 873.223 952.921 927.391C853.226 977.796 756.367 1028.09 643.675 1045.4C511.017 1065.78 349.809 1104.95 255.953 1034.46C161.418 963.469 235.333 826.366 211.463 720.814C189.861 625.295 69.2718 539.374 123.188 447.391C177.677 354.433 345.508 364.363 452.975 308.792C552.086 257.542 611.516 147.698 724.75 136.333C839.684 124.798 930.774 196.176 1016.84 252.197C1100.85 306.881 1173.26 370.508 1211.81 453.364C1254.03 544.113 1295.92 647.582 1244.56 741.614Z" stroke="#A0A3BD"/>
<path opacity="0.3" fill-rule="evenodd" clip-rule="evenodd" d="M1302.92 752.858C1246.93 855.397 1099.79 897.78 981.828 957.424C872.062 1012.92 765.416 1068.31 641.351 1087.37C495.292 1109.82 317.807 1152.95 214.48 1075.34C110.402 997.173 191.791 846.21 165.515 729.987C141.739 624.813 8.97714 530.205 68.3436 428.929C128.34 326.574 313.114 337.503 431.441 276.31C540.557 219.88 605.996 98.9303 730.665 86.4134C857.205 73.7085 957.488 152.297 1052.24 213.979C1144.73 274.188 1224.44 344.246 1266.89 435.473C1313.36 535.393 1359.47 649.322 1302.92 752.858Z" stroke="#A0A3BD"/>
</g>
</g>
<defs>
<clipPath id="clip0_3044_46032">
<rect width="1440" height="1170" fill="white"/>
</clipPath>
</defs>
</svg>
