<svg width="1628" height="750" viewBox="0 0 1628 750" fill="none" xmlns="http://www.w3.org/2000/svg">
<mask id="mask0_2980_39743" style="mask-type:alpha" maskUnits="userSpaceOnUse" x="0" y="0" width="1628" height="750">
<rect width="1628" height="750" fill="#563AFF"/>
</mask>
<g mask="url(#mask0_2980_39743)">
<g opacity="0.6">
<path opacity="0.3" fill-rule="evenodd" clip-rule="evenodd" d="M841.166 678.655C832.456 694.588 809.432 701.133 790.988 710.37C773.826 718.967 757.152 727.547 737.728 730.47C714.86 733.911 687.082 740.559 670.848 728.449C654.495 716.252 667.155 692.792 662.963 674.704C659.174 658.333 638.319 643.568 647.558 627.832C656.894 611.927 685.847 613.692 704.347 604.213C721.408 595.47 731.585 576.673 751.109 574.772C770.925 572.839 786.683 585.101 801.563 594.73C816.089 604.13 828.619 615.058 835.324 629.266C842.67 644.825 849.962 662.566 841.166 678.655Z" stroke="white"/>
<path opacity="0.3" fill-rule="evenodd" clip-rule="evenodd" d="M902.002 690.387C887.93 716.128 850.847 726.723 821.125 741.667C793.47 755.572 766.601 769.448 735.316 774.194C698.487 779.782 653.742 790.556 627.632 771.024C601.334 751.35 621.776 713.453 615.081 684.246C609.022 657.816 575.478 634.003 590.393 608.579C605.469 582.886 652.083 585.699 681.895 570.365C709.389 556.226 725.824 525.863 757.264 522.762C789.176 519.615 814.518 539.392 838.455 554.921C861.82 570.079 881.968 587.707 892.724 610.636C904.509 635.759 916.205 664.395 902.002 690.387Z" stroke="white"/>
<path opacity="0.3" fill-rule="evenodd" clip-rule="evenodd" d="M960.934 701.753C941.68 736.992 890.965 751.515 850.317 771.982C812.496 791.035 775.751 810.044 732.976 816.552C682.621 824.221 621.439 838.99 585.763 812.268C549.829 785.351 577.811 733.468 568.684 693.493C560.426 657.318 514.591 624.741 535.007 589.934C555.64 554.757 619.365 558.58 660.136 537.579C697.737 518.211 720.232 476.643 763.217 472.382C806.848 468.058 841.474 495.116 874.187 516.36C906.115 537.096 933.642 561.215 948.329 592.6C964.412 626.976 980.376 666.168 960.934 701.753Z" stroke="white"/>
<path opacity="0.3" fill-rule="evenodd" clip-rule="evenodd" d="M1014.17 712.021C990.229 755.842 927.207 773.912 876.692 799.37C829.689 823.057 784.026 846.702 730.871 854.816C668.296 864.357 592.269 882.739 547.951 849.519C503.314 816.063 538.107 751.545 526.786 701.845C516.541 656.869 459.603 616.374 484.983 573.092C510.635 529.351 589.816 534.087 640.486 507.965C687.211 483.876 715.186 432.187 768.598 426.878C822.816 421.486 865.829 455.124 906.469 481.53C946.133 507.303 980.326 537.286 998.559 576.305C1018.53 619.043 1038.34 667.769 1014.17 712.021Z" stroke="white"/>
<path opacity="0.3" fill-rule="evenodd" clip-rule="evenodd" d="M1063.6 721.553C1035.3 773.335 960.856 794.698 901.178 824.796C845.649 852.807 791.696 880.744 728.911 890.341C654.99 901.629 565.18 923.359 512.838 884.108C460.12 844.582 501.239 768.331 487.877 709.599C475.788 656.451 408.541 608.605 438.536 557.453C468.845 505.755 562.381 511.343 622.242 480.464C677.444 451.994 710.502 390.901 773.597 384.62C837.641 378.245 888.441 417.987 936.437 449.186C983.283 479.638 1023.67 515.064 1045.2 561.172C1068.77 611.677 1092.16 669.256 1063.6 721.553Z" stroke="white"/>
<path opacity="0.3" fill-rule="evenodd" clip-rule="evenodd" d="M1114.93 731.453C1082.12 791.515 995.796 816.29 926.605 851.208C862.221 883.688 799.666 916.099 726.872 927.226C641.174 940.327 537.047 965.548 476.374 920.037C415.262 874.194 462.945 785.763 447.469 717.653C433.464 656.018 355.51 600.537 390.297 541.212C425.453 481.257 533.886 487.725 603.291 451.909C667.296 418.882 705.638 348.033 778.784 340.739C853.034 333.341 911.92 379.426 967.554 415.602C1021.86 450.916 1068.67 491.992 1093.62 545.462C1120.94 604.027 1148.06 670.799 1114.93 731.453Z" stroke="white"/>
<path opacity="0.3" fill-rule="evenodd" clip-rule="evenodd" d="M1177.66 743.548C1139.33 813.727 1038.51 842.689 957.684 883.474C882.478 921.433 809.411 959.309 724.387 972.32C624.291 987.637 502.666 1017.1 431.808 963.933C360.438 910.384 416.148 807.07 398.086 727.495C381.739 655.487 290.703 590.676 331.343 521.362C372.414 451.312 499.062 458.859 580.133 417.007C654.896 378.413 699.688 295.636 785.128 287.11C871.851 278.454 940.622 332.296 1005.6 374.552C1069.01 415.801 1123.68 463.79 1152.81 526.257C1184.72 594.677 1216.37 672.685 1177.66 743.548Z" stroke="white"/>
<path opacity="0.3" fill-rule="evenodd" clip-rule="evenodd" d="M1246.1 756.745C1201.75 837.951 1085.1 871.478 991.589 918.686C904.577 962.612 820.041 1006.45 721.674 1021.51C605.869 1039.24 465.156 1073.35 383.19 1011.83C300.63 949.874 365.097 830.312 344.211 738.234C325.31 654.911 219.999 579.92 267.026 499.709C314.553 418.646 461.068 427.367 554.868 378.933C641.366 334.268 693.199 238.477 792.047 228.604C892.378 218.583 971.931 280.874 1047.09 329.77C1120.46 377.497 1183.7 433.024 1217.38 505.309C1254.29 584.478 1290.89 674.741 1246.1 756.745Z" stroke="white"/>
<path opacity="0.3" fill-rule="evenodd" clip-rule="evenodd" d="M1312.64 769.575C1262.42 861.514 1130.39 899.471 1024.55 952.913C926.067 1002.65 830.379 1052.28 719.037 1069.34C587.96 1089.41 428.69 1128.03 335.925 1058.4C242.485 988.261 315.465 852.909 291.834 748.674C270.451 654.347 151.264 569.461 204.497 478.656C258.3 386.886 424.135 396.75 530.306 341.915C628.214 291.348 686.892 182.905 798.774 171.722C912.335 160.373 1002.37 230.884 1087.44 286.23C1170.47 340.255 1242.04 403.111 1280.16 484.936C1321.92 574.562 1363.35 676.74 1312.64 769.575Z" stroke="white"/>
<path opacity="0.3" fill-rule="evenodd" clip-rule="evenodd" d="M1373.48 781.312C1317.91 883.055 1171.81 925.064 1054.69 984.213C945.705 1039.25 839.822 1094.19 716.624 1113.06C571.585 1135.29 395.348 1178.02 292.706 1100.98C189.32 1023.36 270.083 873.572 243.945 758.218C220.291 653.833 88.4125 559.9 147.327 459.408C206.866 357.849 390.364 368.759 507.846 308.071C616.187 252.106 681.122 132.095 804.921 119.716C930.579 107.151 1030.2 185.179 1124.32 246.427C1216.19 306.21 1295.38 375.766 1337.57 466.316C1383.76 565.496 1429.59 678.575 1373.48 781.312Z" stroke="white"/>
<path opacity="0.3" fill-rule="evenodd" clip-rule="evenodd" d="M1438.12 793.774C1376.86 905.937 1215.82 952.25 1086.71 1017.46C966.579 1078.15 849.866 1138.7 714.06 1159.51C554.193 1184.02 359.924 1231.15 246.789 1146.2C132.835 1060.65 221.867 895.521 193.064 768.362C166.997 653.29 21.6382 549.746 86.5844 438.96C152.22 326.999 354.487 339.019 483.983 272.114C603.41 210.412 674.994 78.1111 811.456 64.4596C949.966 50.6041 1059.77 136.619 1163.51 204.133C1264.77 270.036 1352.06 346.706 1398.55 446.531C1449.46 555.863 1499.98 680.519 1438.12 793.774Z" stroke="white"/>
<path opacity="0.3" fill-rule="evenodd" clip-rule="evenodd" d="M1508.46 807.338C1441.01 930.84 1263.7 981.845 1121.56 1053.65C989.291 1120.47 860.785 1187.15 711.274 1210.08C535.257 1237.06 321.374 1288.96 196.821 1195.43C71.3643 1101.23 169.399 919.41 137.692 779.396C109.002 652.692 -51.0298 538.681 20.4815 416.701C92.7519 293.423 315.437 306.652 458.019 232.978C589.503 165.04 668.325 19.3632 818.567 4.32799C971.063 -10.933 1091.95 83.771 1206.16 158.108C1317.65 230.668 1413.74 315.089 1464.92 424.998C1520.97 545.38 1576.57 682.637 1508.46 807.338Z" stroke="white"/>
</g>
</g>
</svg>
