<svg width="1532" height="678" viewBox="0 0 1532 678" fill="none" xmlns="http://www.w3.org/2000/svg">
<mask id="mask0_2962_41677" style="mask-type:alpha" maskUnits="userSpaceOnUse" x="0" y="0" width="1532" height="678">
<rect width="1532" height="678" fill="#563AFF"/>
</mask>
<g mask="url(#mask0_2962_41677)">
<g opacity="0.6">
<path opacity="0.3" fill-rule="evenodd" clip-rule="evenodd" d="M900.949 843.566C886.877 869.306 849.794 879.902 820.073 894.845C792.417 908.75 765.548 922.626 734.264 927.372C697.434 932.961 652.689 943.734 626.579 924.202C600.281 904.528 620.723 866.631 614.028 837.424C607.969 810.994 574.426 787.181 589.341 761.758C604.416 736.064 651.031 738.877 680.843 723.543C708.336 709.404 724.771 679.041 756.211 675.94C788.123 672.793 813.465 692.57 837.402 708.099C860.767 723.257 880.915 740.885 891.671 763.814C903.456 788.937 915.153 817.573 900.949 843.566Z" stroke="white"/>
<path opacity="0.3" fill-rule="evenodd" clip-rule="evenodd" d="M959.881 854.931C940.628 890.17 889.912 904.694 849.265 925.161C811.444 944.213 774.698 963.222 731.924 969.73C681.568 977.399 620.386 992.169 584.711 965.446C548.776 938.529 576.758 886.646 567.632 846.671C559.374 810.497 513.538 777.919 533.954 743.112C554.587 707.935 618.312 711.758 659.083 690.757C696.685 671.389 719.18 629.821 762.164 625.561C805.795 621.236 840.422 648.295 873.134 669.538C905.062 690.274 932.589 714.393 947.277 745.778C963.36 780.154 979.323 819.346 959.881 854.931Z" stroke="white"/>
<path opacity="0.3" fill-rule="evenodd" clip-rule="evenodd" d="M1013.12 865.199C989.176 909.02 926.154 927.091 875.639 952.548C828.637 976.235 782.974 999.881 729.818 1007.99C667.244 1017.54 591.216 1035.92 546.899 1002.7C502.261 969.241 537.054 904.724 525.733 855.023C515.488 810.047 458.55 769.552 483.93 726.271C509.583 682.529 588.763 687.265 639.433 661.143C686.159 637.055 714.133 585.365 767.545 580.056C821.763 574.664 864.776 608.303 905.416 634.708C945.08 660.481 979.273 690.464 997.507 729.483C1017.47 772.222 1037.29 820.947 1013.12 865.199Z" stroke="white"/>
<path opacity="0.3" fill-rule="evenodd" clip-rule="evenodd" d="M1062.54 874.732C1034.25 926.513 959.803 947.876 900.125 977.974C844.596 1005.98 790.643 1033.92 727.858 1043.52C653.937 1054.81 564.127 1076.54 511.785 1037.29C459.067 997.76 500.186 921.509 486.825 862.777C474.735 809.629 407.488 761.783 437.483 710.631C467.792 658.934 561.328 664.521 621.189 633.642C676.392 605.172 709.45 544.08 772.545 537.798C836.588 531.423 887.388 571.166 935.385 602.364C982.23 632.816 1022.61 668.242 1044.14 714.35C1067.72 764.855 1091.11 822.434 1062.54 874.732Z" stroke="white"/>
<path opacity="0.3" fill-rule="evenodd" clip-rule="evenodd" d="M1113.87 884.632C1081.06 944.694 994.744 969.468 925.552 1004.39C861.168 1036.87 798.613 1069.28 725.819 1080.4C640.121 1093.51 535.994 1118.73 475.321 1073.22C414.209 1027.37 461.892 938.941 446.416 870.831C432.411 809.196 354.458 753.715 389.244 694.391C424.4 634.435 532.833 640.903 602.238 605.088C666.243 572.06 704.585 501.211 777.732 493.918C851.981 486.519 910.867 532.604 966.501 568.78C1020.81 604.094 1067.62 645.17 1092.57 698.64C1119.89 757.205 1147 823.977 1113.87 884.632Z" stroke="white"/>
<path opacity="0.3" fill-rule="evenodd" clip-rule="evenodd" d="M1176.61 896.726C1138.28 966.906 1037.46 995.867 956.631 1036.65C881.426 1074.61 808.358 1112.49 723.335 1125.5C623.238 1140.82 501.613 1170.28 430.755 1117.11C359.385 1063.56 415.095 960.248 397.033 880.674C380.686 808.665 289.651 743.854 330.29 674.54C371.362 604.49 498.01 612.038 579.08 570.186C653.843 531.592 698.636 448.814 784.075 440.288C870.798 431.632 939.569 485.474 1004.54 527.73C1067.96 568.979 1122.63 616.968 1151.76 679.436C1183.66 747.856 1215.32 825.864 1176.61 896.726Z" stroke="white"/>
<path opacity="0.3" fill-rule="evenodd" clip-rule="evenodd" d="M1245.05 909.923C1200.69 991.129 1084.05 1024.66 990.536 1071.86C903.524 1115.79 818.988 1159.63 720.621 1174.69C604.816 1192.42 464.104 1226.53 382.137 1165.01C299.578 1103.05 364.044 983.49 343.158 891.412C324.258 808.089 218.946 733.098 265.973 652.887C313.5 571.824 460.015 580.546 553.816 532.111C640.314 487.446 692.146 391.655 790.994 381.782C891.325 371.761 970.878 434.053 1046.04 482.949C1119.4 530.676 1182.64 586.203 1216.33 658.487C1253.23 737.656 1289.84 827.919 1245.05 909.923Z" stroke="white"/>
<path opacity="0.3" fill-rule="evenodd" clip-rule="evenodd" d="M1311.59 922.753C1261.37 1014.69 1129.34 1052.65 1023.5 1106.09C925.014 1155.83 829.326 1205.46 717.984 1222.51C586.908 1242.59 427.637 1281.2 334.872 1211.58C241.432 1141.44 314.412 1006.09 290.781 901.852C269.398 807.526 150.211 722.639 203.445 631.834C257.247 540.065 423.082 549.929 529.253 495.094C627.161 444.526 685.839 336.083 797.721 324.901C911.282 313.551 1001.32 384.063 1086.38 439.409C1169.42 493.433 1240.99 556.289 1279.11 638.114C1320.87 727.74 1362.3 829.918 1311.59 922.753Z" stroke="white"/>
<path opacity="0.3" fill-rule="evenodd" clip-rule="evenodd" d="M1372.43 934.49C1316.86 1036.23 1170.76 1078.24 1053.64 1137.39C944.652 1192.43 838.769 1247.36 715.571 1266.24C570.533 1288.47 394.296 1331.2 291.654 1254.15C188.267 1176.54 269.03 1026.75 242.892 911.396C219.238 807.011 87.3597 713.078 146.274 612.586C205.813 511.027 389.311 521.937 506.794 461.249C615.134 405.284 680.069 285.273 803.868 272.894C929.527 260.329 1029.15 338.357 1123.27 399.605C1215.14 459.389 1294.33 528.944 1336.51 619.494C1382.71 718.674 1428.54 831.753 1372.43 934.49Z" stroke="white"/>
<path opacity="0.3" fill-rule="evenodd" clip-rule="evenodd" d="M1437.06 946.952C1375.81 1059.12 1214.76 1105.43 1085.66 1170.64C965.526 1231.33 848.813 1291.88 713.007 1312.69C553.14 1337.2 358.872 1384.33 245.736 1299.38C131.783 1213.83 220.814 1048.7 192.011 921.54C165.945 806.468 20.5855 702.925 85.5316 592.138C151.167 480.178 353.434 492.198 482.93 425.292C602.357 363.59 673.942 231.289 810.403 217.638C948.913 203.782 1058.72 289.798 1162.46 357.311C1263.72 423.214 1351.01 499.885 1397.49 599.709C1448.41 709.041 1498.92 833.697 1437.06 946.952Z" stroke="white"/>
<path opacity="0.3" fill-rule="evenodd" clip-rule="evenodd" d="M1507.41 960.517C1439.95 1084.02 1262.65 1135.02 1120.5 1206.83C988.238 1273.65 859.732 1340.33 710.221 1363.25C534.204 1390.24 320.321 1442.13 195.769 1348.61C70.3116 1254.41 168.346 1072.59 136.64 932.574C107.949 805.871 -52.0825 691.859 19.4287 569.879C91.6992 446.601 314.384 459.83 456.967 386.157C588.45 318.218 667.272 172.541 817.514 157.506C970.011 142.245 1090.89 236.949 1205.11 311.286C1316.6 383.846 1412.69 468.268 1463.87 578.176C1519.91 698.558 1575.52 835.815 1507.41 960.517Z" stroke="white"/>
</g>
</g>
</svg>
