<svg width="60" height="60" viewBox="0 0 60 60" fill="none" xmlns="http://www.w3.org/2000/svg">
<rect width="60" height="60" rx="14.5732" fill="#1DE4FF"/>
<path d="M41.2359 29.521C37.1021 33.6548 30.0099 33.2635 30.0099 33.2635C30.0099 33.2635 29.6186 26.1714 33.7525 22.0376C35.8726 19.9174 38.7736 18.9875 41.0951 18.5848C43.2005 18.2197 45.0537 20.073 44.6887 22.1784C44.2859 24.4998 43.356 27.4009 41.2359 29.521Z" fill="white"/>
<path d="M27.468 17.5162C32.0603 22.1084 31.6264 29.9897 31.6264 29.9897C31.6264 29.9897 23.7468 30.4252 19.1529 25.8313C16.7971 23.4754 15.764 20.2519 15.3171 17.6734C14.911 15.3339 16.9706 13.2743 19.3101 13.6803C21.8886 14.1256 25.1105 15.1587 27.468 17.5162Z" fill="white"/>
<path opacity="0.35" d="M46.1279 42.8448C44.8116 40.0895 41.9973 38.1855 38.7394 38.1855C37.3806 38.1855 36.1183 38.5489 34.9903 39.135C33.2418 37.5339 30.9203 36.5483 28.3631 36.5483C25.3638 36.5483 22.6822 37.8957 20.8813 40.0158C20.3934 39.8996 19.8925 39.8227 19.3702 39.8227C17.2108 39.8227 15.2953 40.8672 14.1018 42.4798C12.9133 44.0874 14.1068 46.3713 16.1057 46.3713H18.5402H25.9188H30.5536H38.186H43.9079C45.717 46.3713 46.9088 44.4771 46.1279 42.8448Z" fill="white"/>
<path d="M31.6376 28.3623H28.3633V36.5481C29.5126 36.5481 30.6127 36.756 31.6376 37.1195V28.3623Z" fill="white"/>
</svg>
