<svg width="72" height="72" viewBox="0 0 72 72" fill="none" xmlns="http://www.w3.org/2000/svg">
<rect width="72" height="72" rx="18" fill="#1DE4FF"/>
<g clip-path="url(#clip0_2949_27122)">
<path opacity="0.55" d="M53.891 47.9271V24.0725C53.891 20.7786 51.2213 18.1089 47.9274 18.1089H22.085V47.9271C22.085 51.221 24.7547 53.8907 28.0486 53.8907H47.9274C51.2213 53.8907 53.891 51.221 53.891 47.9271Z" fill="white"/>
<path d="M16.1211 26.0604V24.0725C16.1211 20.7786 18.7908 18.1089 22.0847 18.1089H47.9272C44.6332 18.1089 41.9635 20.7786 41.9635 24.0725V26.0604C41.9635 28.257 40.1844 30.0362 37.9878 30.0362H20.0969C17.9002 30.0362 16.1211 28.257 16.1211 26.0604Z" fill="white"/>
<path d="M45.9398 45.9395H39.9762C38.8789 45.9395 37.9883 46.83 37.9883 47.9273V58.2961C37.9883 59.6002 39.4971 60.3257 40.5149 59.5107L42.958 57.5566L45.4011 59.5107C46.4189 60.3257 47.9277 59.6002 47.9277 58.2961V47.9273C47.9277 46.83 47.0371 45.9395 45.9398 45.9395Z" fill="white"/>
</g>
<defs>
<clipPath id="clip0_2949_27122">
<rect width="47.7091" height="47.7091" fill="white" transform="translate(12.1455 12.1455)"/>
</clipPath>
</defs>
</svg>
