<svg width="216" height="216" viewBox="0 0 216 216" fill="none" xmlns="http://www.w3.org/2000/svg">
<circle opacity="0.1" cx="108" cy="108" r="108" fill="#FFCD42"/>
<path d="M173.095 134.477H43.0234V90.3278C43.0234 87.9797 44.2283 85.7925 46.2136 84.5397L102.576 48.9412C105.927 46.8259 110.192 46.8259 113.543 48.9412L169.904 84.5397C171.89 85.7959 173.095 87.9797 173.095 90.3278V134.477Z" fill="#FFBB00"/>
<path d="M155.92 141.179H60.0781V45.4468C60.0781 43.5573 61.6116 42.0238 63.5011 42.0238H152.497C154.387 42.0238 155.92 43.5573 155.92 45.4468V141.179Z" fill="white"/>
<circle cx="108.066" cy="82.5385" r="19.1912" fill="#2FF2B8"/>
<path d="M100.969 83.3963L105.235 87.6624L115.9 76.9971" stroke="white" stroke-width="3.14873" stroke-linecap="round" stroke-linejoin="round"/>
<path d="M173.088 91.8546V164.612C173.088 167.909 170.37 170.582 167.015 170.582H58.625L75.0653 148.925L173.088 91.8546Z" fill="#FFDE82"/>
<path d="M43.0234 91.8547V164.612C43.0234 167.909 45.7412 170.582 49.0957 170.582H167.026C168.943 170.582 170.63 169.692 171.743 168.33L43.0234 91.8547Z" fill="#FFCD42"/>
</svg>
