<svg width="84" height="84" viewBox="0 0 84 84" fill="none" xmlns="http://www.w3.org/2000/svg">
<rect width="84" height="84" rx="24" fill="#2FF2B8"/>
<path opacity="0.35" d="M36.5555 31.1113H20.2222V63.778H36.5555V31.1113Z" fill="white"/>
<path opacity="0.45" d="M63.7778 66.5H39.2778V22.9444C39.2778 19.9364 41.7142 17.5 44.7223 17.5H61.0556C64.0637 17.5 66.5001 19.9364 66.5001 22.9444V63.7778C66.5001 65.2804 65.2805 66.5 63.7778 66.5Z" fill="white"/>
<path d="M61.0555 28.3888H55.6111V22.9443H61.0555V28.3888Z" fill="white"/>
<path d="M50.1666 28.3888H44.7222V22.9443H50.1666V28.3888Z" fill="white"/>
<path d="M61.0555 39.2775H55.6111V33.833H61.0555V39.2775Z" fill="white"/>
<path d="M50.1666 39.2775H44.7222V33.833H50.1666V39.2775Z" fill="white"/>
<path d="M61.0555 50.1671H55.6111V44.7227H61.0555V50.1671Z" fill="white"/>
<path d="M50.1666 50.1671H44.7222V44.7227H50.1666V50.1671Z" fill="white"/>
<path d="M61.0555 61.0558H55.6111V55.6113H61.0555V61.0558Z" fill="white"/>
<path d="M50.1666 61.0558H44.7222V55.6113H50.1666V61.0558Z" fill="white"/>
<path d="M33.8333 25.667H22.9444C19.9364 25.667 17.5 28.1034 17.5 31.1114V63.7781C17.5 65.2808 18.7196 66.5003 20.2222 66.5003H39.2778V31.1114C39.2778 28.1034 36.8414 25.667 33.8333 25.667ZM33.8333 61.0559H22.9444V55.6114H33.8333V61.0559ZM33.8333 50.167H22.9444V44.7225H33.8333V50.167ZM33.8333 39.2781H22.9444V33.8337H33.8333V39.2781Z" fill="white"/>
</svg>
