<svg width="544" height="392" viewBox="0 0 544 392" fill="none" xmlns="http://www.w3.org/2000/svg">
<mask id="mask0_2980_39477" style="mask-type:alpha" maskUnits="userSpaceOnUse" x="0" y="0" width="544" height="392">
<rect width="544" height="392" fill="#563AFF"/>
</mask>
<g mask="url(#mask0_2980_39477)">
<g opacity="0.6">
<path opacity="0.3" fill-rule="evenodd" clip-rule="evenodd" d="M649.638 642.415C624.581 657.671 587.168 648.306 553.957 646.387C523.054 644.601 492.847 643.183 463.381 631.651C428.691 618.076 384.554 605.034 371.708 575.064C358.771 544.876 395.422 522.277 404.227 493.636C412.196 467.718 395.052 430.324 420.681 415.763C446.583 401.05 485.547 426.793 519.032 428.419C549.911 429.921 579.325 411.844 608.104 424.879C637.314 438.109 649.372 467.908 662.338 493.325C674.994 518.134 683.628 543.475 681.479 568.71C679.123 596.359 674.935 627.007 649.638 642.415Z" stroke="white"/>
<path fill-rule="evenodd" clip-rule="evenodd" d="M484.57 777.126C417.132 837.225 337.985 818.991 263.451 824.279C194.094 829.206 126.076 835.125 66.5333 806.815C-3.56173 773.484 -95.5825 745.282 -104.807 649.181C-114.094 552.373 -15.2533 463.528 24.0636 364.23C59.6434 274.372 45.5904 154.852 113.871 96.9001C182.878 38.3334 254.573 111.005 329.93 104.639C399.422 98.7687 478.709 27.6661 535.671 61.2665C593.488 95.3718 601.027 191.184 613.58 271.955C625.833 350.799 628.548 432.846 606.708 518.367C582.785 612.039 552.663 716.44 484.57 777.126Z" stroke="white" stroke-dasharray="10 10"/>
</g>
<path d="M94.4851 153.543L75.0847 189.132L293.985 2.96942L94.4851 153.543Z" fill="#A0A3BD"/>
<path d="M185.662 213.979L1.92939 94.0277L293.984 2.96938L185.662 213.979Z" fill="white"/>
<path d="M94.4831 153.543L75.0827 189.132L59.6052 131.679L269.096 19.5965L94.4831 153.543Z" fill="#DCDDEB"/>
</g>
</svg>
