<svg width="216" height="210" viewBox="0 0 216 210" fill="none" xmlns="http://www.w3.org/2000/svg">
<g clip-path="url(#clip0_2922_23942)">
<rect width="216" height="210" fill="white"/>
<rect x="0.0625" y="-0.25293" width="215.875" height="210.505" fill="white"/>
<path d="M181.476 108.836C180.972 118.485 178.573 127.94 174.415 136.662C170.256 145.383 164.421 153.2 157.242 159.667C150.062 166.133 141.68 171.122 132.572 174.349C123.465 177.576 113.811 178.978 104.162 178.474C94.5131 177.969 85.0579 175.57 76.3362 171.412C67.6146 167.253 59.7974 161.418 53.3309 154.239C46.8644 147.06 41.8754 138.677 38.6485 129.569C35.4217 120.462 34.0203 110.808 34.5243 101.159C35.0284 91.5102 37.428 82.0549 41.5862 73.3333C45.7444 64.6117 51.5797 56.7944 58.759 50.328C65.9383 43.8615 74.321 38.8724 83.4284 35.6456C92.5358 32.4188 102.19 31.0174 111.839 31.5214C121.488 32.0255 130.943 34.4251 139.665 38.5833C148.386 42.7415 156.203 48.5768 162.67 55.7561C169.136 62.9354 174.125 71.3181 177.352 80.4255C180.579 89.5329 181.98 99.1867 181.476 108.836L181.476 108.836Z" stroke="#EFF0F7" stroke-width="16.8112"/>
<path d="M181.476 108.836C180.599 125.629 173.996 141.616 162.765 154.133C151.535 166.65 136.356 174.942 119.755 177.629C103.155 180.315 86.1348 177.234 71.5296 168.899C56.9245 160.563 45.6155 147.475 39.4859 131.816" stroke="#FF4267" stroke-width="16.8112" stroke-linecap="round"/>
<path d="M130.935 35.0871C142.206 38.7845 152.415 45.1519 160.693 53.6467C168.972 62.1415 175.074 72.5118 178.479 83.8739C181.885 95.236 182.492 107.253 180.251 118.901C178.01 130.548 172.985 141.482 165.607 150.769" stroke="#7D42FB" stroke-width="16.8112" stroke-linecap="round"/>
<path d="M66.1686 44.4701C75.8039 37.8109 86.8897 33.5483 98.5043 32.0366C110.119 30.5249 121.926 31.8079 132.945 35.7789" stroke="#2FF2B8" stroke-width="16.8112" stroke-linecap="round"/>
<path d="M70.6906 102.821C70.6906 99.9314 68.5537 98.7658 65.3484 97.9888V93.4721C66.4897 93.7635 67.6067 94.3706 68.6023 95.2205L70.2535 93.0108C68.918 91.8452 67.3153 91.0196 65.3484 90.7768V89.2227H63.1387V90.7282C60.079 91.0196 57.9664 93.0108 57.9664 95.7062C57.9664 98.6444 60.0548 99.6886 63.1387 100.466V105.201C61.5846 104.909 60.249 104.132 59.0592 103.064L57.2865 105.225C58.8406 106.682 60.8318 107.605 63.1387 107.848V109.45H65.3484V107.872C68.7723 107.58 70.6906 105.565 70.6906 102.821ZM61.0261 95.4391C61.0261 94.4435 61.8517 93.5693 63.1387 93.3507V97.4302C61.706 96.9689 61.0261 96.4589 61.0261 95.4391ZM65.3484 105.274V101.048C66.9268 101.51 67.6553 102.044 67.6553 103.112C67.6553 104.132 66.854 105.031 65.3484 105.274ZM73.2327 107.653H85.4956V104.885H77.9436L81.4403 102.068C84.3057 99.8585 85.3256 98.0859 85.3256 95.8761C85.3256 92.7922 82.8002 90.6796 79.4977 90.6796C76.8023 90.6796 74.7868 91.8695 73.2085 93.9335L75.1754 95.7547C76.3895 94.2978 77.6522 93.3993 79.4006 93.3993C80.9061 93.3993 82.2417 94.3706 82.2417 95.949C82.2417 97.3088 81.4889 98.5715 79.3763 100.271L73.2327 105.176V107.653ZM95.9548 107.653H98.9902V104.035H101.297V101.437H98.9902V90.971H95.3478L87.4558 101.68L87.7472 104.035H95.9548V107.653ZM90.6855 101.437L95.9548 94.2735V101.437H90.6855ZM109.333 107.945C113.145 107.945 115.744 105.711 115.744 102.263C115.744 98.9115 113.194 97.0174 110.231 97.0174C108.799 97.0174 107.706 97.4545 106.856 98.0373L107.002 93.7393H114.821V90.971H104.161L103.918 99.8342L105.982 100.708C106.929 99.9799 108.07 99.5429 109.382 99.5429C111.373 99.5429 112.708 100.684 112.708 102.384C112.708 104.011 111.397 105.322 109.382 105.322C107.706 105.322 106.152 104.472 104.889 103.21L103.092 105.371C104.574 106.925 106.613 107.945 109.333 107.945ZM120.413 111.101C122.065 109.353 122.744 108.09 122.744 106.779C122.744 105.249 121.943 104.132 120.705 104.132C119.661 104.132 118.811 105.006 118.811 106.026C118.811 107.071 119.661 107.945 120.68 107.945C120.462 108.722 119.976 109.499 119.272 110.227L120.413 111.101ZM129.331 107.653H132.366V90.971H129.938L125.251 94.1521L126.466 96.289L129.331 94.4677V107.653ZM139.196 107.653H142.231V90.971H139.803L135.116 94.1521L136.331 96.289L139.196 94.4677V107.653ZM153.019 107.945C157.293 107.945 160.328 104.375 160.328 99.3C160.328 94.2492 157.293 90.6796 153.019 90.6796C148.721 90.6796 145.71 94.2492 145.71 99.3C145.71 104.375 148.721 107.945 153.019 107.945ZM153.019 105.176C150.542 105.176 148.794 102.748 148.794 99.3C148.794 95.8519 150.542 93.4479 153.019 93.4479C155.496 93.4479 157.22 95.8519 157.22 99.3C157.22 102.748 155.496 105.176 153.019 105.176Z" fill="#211F54"/>
<path d="M72.0713 127.606H73.5752V120.712H76.21V119.341H69.4244V120.712H72.0713V127.606ZM80.3494 127.751C82.1781 127.751 83.67 126.283 83.67 124.49C83.67 122.698 82.1781 121.242 80.3494 121.242C78.5086 121.242 77.0047 122.698 77.0047 124.49C77.0047 126.283 78.5086 127.751 80.3494 127.751ZM80.3494 126.5C79.3027 126.5 78.4484 125.597 78.4484 124.49C78.4484 123.383 79.3027 122.493 80.3494 122.493C81.3841 122.493 82.2383 123.383 82.2383 124.49C82.2383 125.597 81.3841 126.5 80.3494 126.5ZM87.9406 126.271C87.8082 126.403 87.5796 126.5 87.327 126.5C86.9781 126.5 86.7014 126.199 86.7014 125.778V122.601H88.109V121.386H86.7014V119.678H85.2817V121.386H84.3793V122.601H85.2817V125.958C85.2817 127.005 86.0035 127.751 87.0262 127.751C87.5075 127.751 88.0128 127.558 88.3617 127.258L87.9406 126.271ZM92.0547 121.242C91.2727 121.242 90.4546 121.458 89.5763 121.892L90.0816 122.914C90.611 122.65 91.1764 122.445 91.766 122.445C92.8969 122.445 93.2819 123.143 93.2819 123.865V124.021C92.7165 123.817 92.1149 123.696 91.5494 123.696C90.1418 123.696 89.0228 124.538 89.0228 125.766C89.0228 126.969 90.0094 127.751 91.3329 127.751C92.0547 127.751 92.8247 127.438 93.2819 126.873V127.606H94.7137V123.865C94.7137 122.289 93.703 121.242 92.0547 121.242ZM91.6577 126.68C90.9599 126.68 90.4305 126.307 90.4305 125.718C90.4305 125.128 91.0321 124.719 91.766 124.719C92.3074 124.719 92.8247 124.803 93.2819 124.948V125.657C93.1255 126.319 92.3675 126.68 91.6577 126.68ZM96.4141 127.606H97.8819V119.197H96.4141V127.606ZM104.473 122.565V121.386H103.005V127.606H104.473V124.466C104.473 123.287 105.364 122.493 106.699 122.493V121.242C105.688 121.242 104.87 121.759 104.473 122.565ZM110.801 126.572C109.839 126.572 109.153 125.898 108.997 124.923H113.821C113.821 122.662 112.69 121.242 110.765 121.242C108.985 121.242 107.577 122.601 107.577 124.478C107.577 126.391 109.057 127.751 110.85 127.751C111.752 127.751 112.835 127.366 113.376 126.788L112.534 125.922C112.137 126.307 111.427 126.572 110.801 126.572ZM110.777 122.421C111.716 122.421 112.269 123.071 112.402 123.949H109.009C109.201 123.023 109.887 122.421 110.777 122.421ZM117.032 127.606H118.403L121.038 121.386H119.486L117.718 125.91L115.913 121.386H114.349L117.032 127.606ZM124.865 126.572C123.903 126.572 123.217 125.898 123.061 124.923H127.885C127.885 122.662 126.754 121.242 124.829 121.242C123.049 121.242 121.641 122.601 121.641 124.478C121.641 126.391 123.121 127.751 124.914 127.751C125.816 127.751 126.899 127.366 127.44 126.788L126.598 125.922C126.201 126.307 125.491 126.572 124.865 126.572ZM124.841 122.421C125.78 122.421 126.333 123.071 126.466 123.949H123.073C123.265 123.023 123.951 122.421 124.841 122.421ZM132.588 121.242C131.757 121.242 131.036 121.639 130.663 122.228V121.386H129.195V127.606H130.663V123.841C130.663 123.083 131.336 122.493 132.179 122.493C132.949 122.493 133.478 123.083 133.478 123.937V127.606H134.91V123.648C134.91 122.228 133.959 121.242 132.588 121.242ZM140.723 121.386V125.152C140.723 125.91 140.05 126.5 139.207 126.5C138.437 126.5 137.908 125.91 137.908 125.056V121.386H136.476V125.345C136.476 126.764 137.427 127.751 138.798 127.751C139.628 127.751 140.35 127.354 140.723 126.764V127.606H142.191V121.386H140.723ZM146.79 126.572C145.827 126.572 145.141 125.898 144.985 124.923H149.81C149.81 122.662 148.679 121.242 146.754 121.242C144.973 121.242 143.565 122.601 143.565 124.478C143.565 126.391 145.045 127.751 146.838 127.751C147.74 127.751 148.823 127.366 149.364 126.788L148.522 125.922C148.125 126.307 147.415 126.572 146.79 126.572ZM146.766 122.421C147.704 122.421 148.257 123.071 148.39 123.949H144.997C145.19 123.023 145.875 122.421 146.766 122.421Z" fill="#6E7191"/>
</g>
<defs>
<clipPath id="clip0_2922_23942">
<rect width="216" height="210" fill="white"/>
</clipPath>
</defs>
</svg>
