<svg width="78" height="78" viewBox="0 0 78 78" fill="none" xmlns="http://www.w3.org/2000/svg">
<rect width="78" height="78" rx="17.3521" fill="#2FF2B8"/>
<g clip-path="url(#clip0_2976_37457)">
<path opacity="0.5" d="M48.9768 51.1061H51.6096V59.1761C51.6096 61.4055 53.4153 63.2112 55.6447 63.2112C57.874 63.2112 59.6797 61.4055 59.6797 59.1761V51.1061H62.3125C63.5573 51.1061 64.1828 49.4719 63.3072 48.5096L57.0831 41.6702C56.2923 40.8007 54.997 40.8007 54.2062 41.6702L47.9822 48.5096C47.1066 49.4719 47.734 51.1061 48.9768 51.1061Z" fill="white"/>
<path fill-rule="evenodd" clip-rule="evenodd" d="M20.4043 24.8554C20.4043 22.5968 22.2352 20.7659 24.4938 20.7659H53.0285C55.2871 20.7659 57.118 22.5968 57.118 24.8554V27.7424C57.118 30.001 55.2871 31.8319 53.0285 31.8319H24.4938C22.2352 31.8319 20.4043 30.001 20.4043 27.7424V24.8554ZM20.4043 37.247C20.4043 34.9885 22.2352 33.1575 24.4938 33.1575H53.0285C55.2871 33.1575 57.118 34.9885 57.118 37.247V40.1341C57.118 40.6069 57.0378 41.0611 56.8901 41.4836C56.094 40.806 54.9354 40.8682 54.2059 41.6703L51.8824 44.2236H24.4938C22.2352 44.2236 20.4043 42.3926 20.4043 40.1341V37.247ZM50.6759 45.5493H24.4938C22.2352 45.5493 20.4043 47.3802 20.4043 49.6388V52.5258C20.4043 54.7844 22.2352 56.6153 24.4938 56.6153H51.6094V51.1062H48.9765C47.7338 51.1062 47.1063 49.472 47.9819 48.5096L50.6759 45.5493Z" fill="white"/>
</g>
<defs>
<clipPath id="clip0_2976_37457">
<rect width="48.4202" height="48.4202" fill="white" transform="translate(15.2969 14.7908)"/>
</clipPath>
</defs>
</svg>
