<svg width="388" height="110" viewBox="0 0 388 110" fill="none" xmlns="http://www.w3.org/2000/svg">
<g clip-path="url(#clip0_2976_38779)">
<rect width="388" height="110" fill="white"/>
<path d="M-20.7266 -5.87842H408.573V115.875H-20.7266V-5.87842Z" fill="#2FF2B8" fill-opacity="0.1"/>
<mask id="mask0_2976_38779" style="mask-type:alpha" maskUnits="userSpaceOnUse" x="-67" y="-19" width="522" height="148">
<path d="M-34.0898 -18.2878H422.243C439.64 -18.2878 453.743 -4.18481 453.743 13.2122V128.288H-65.5898V13.2122C-65.5898 -4.1848 -51.4868 -18.2878 -34.0898 -18.2878Z" fill="#7D42FB" stroke="#2FF2B8"/>
</mask>
<g mask="url(#mask0_2976_38779)">
<path opacity="0.3" fill-rule="evenodd" clip-rule="evenodd" d="M238.538 292.761C222.743 287.275 213.696 267.998 202.775 253.092C192.613 239.223 182.529 225.78 177.282 209.167C171.108 189.61 161.337 166.186 170.333 150.349C179.392 134.398 202.625 142.331 218.705 136.238C233.257 130.724 244.083 110.486 259.767 116.46C275.617 122.499 277.808 148.081 288.958 163.004C299.241 176.765 317.859 183.152 322.181 199.986C326.569 217.074 317.371 232.514 310.479 246.836C303.751 260.813 295.355 273.248 283.177 281.023C269.837 289.537 254.488 298.301 238.538 292.761Z" stroke="#2FF2B8"/>
<path opacity="0.3" fill-rule="evenodd" clip-rule="evenodd" d="M237.706 309.058C219.041 302.573 208.348 279.803 195.439 262.194C183.425 245.81 171.51 229.927 165.308 210.305C158.009 187.203 146.461 159.533 157.091 140.827C167.795 121.988 195.254 131.363 214.256 124.168C231.452 117.658 244.246 93.7548 262.781 100.816C281.513 107.95 284.104 138.17 297.284 155.798C309.436 172.055 331.441 179.603 336.549 199.488C341.734 219.673 330.866 237.909 322.722 254.823C314.772 271.331 304.851 286.018 290.459 295.201C274.694 305.256 256.556 315.605 237.706 309.058Z" stroke="#2FF2B8"/>
<path opacity="0.3" fill-rule="evenodd" clip-rule="evenodd" d="M236.842 325.981C215.194 318.462 202.794 292.06 187.819 271.646C173.888 252.649 160.068 234.234 152.877 211.485C144.41 184.702 131.012 152.623 143.338 130.94C155.755 109.099 187.599 119.971 209.637 111.633C229.58 104.088 244.416 76.3785 265.912 84.5671C287.637 92.8428 290.643 127.875 305.929 148.313C320.024 167.162 345.544 175.916 351.47 198.969C357.484 222.37 344.881 243.509 335.436 263.116C326.216 282.253 314.712 299.279 298.021 309.921C279.74 321.578 258.704 333.574 236.842 325.981Z" stroke="#2FF2B8"/>
<path opacity="0.3" fill-rule="evenodd" clip-rule="evenodd" d="M235.789 346.665C210.494 337.881 196.003 307.045 178.511 283.198C162.232 261.009 146.084 239.501 137.679 212.93C127.785 181.648 112.133 144.178 126.535 118.854C141.039 93.3478 178.243 106.049 203.991 96.3144C227.291 87.5045 244.624 55.1433 269.74 64.7093C295.122 74.3772 298.636 115.294 316.496 139.167C332.966 161.182 362.782 171.409 369.706 198.336C376.735 225.667 362.009 250.356 350.977 273.254C340.207 295.605 326.766 315.488 307.265 327.916C285.907 341.528 261.331 355.536 235.789 346.665Z" stroke="#2FF2B8"/>
<path opacity="0.3" fill-rule="evenodd" clip-rule="evenodd" d="M234.638 369.229C205.368 359.063 188.596 323.389 168.352 295.799C149.515 270.128 130.825 245.244 121.099 214.504C109.651 178.313 91.5357 134.964 108.199 105.67C124.982 76.1633 168.036 90.8607 197.831 79.6008C224.793 69.4115 244.849 31.9746 273.913 43.0443C303.286 54.2314 307.355 101.566 328.023 129.187C347.082 154.657 381.585 166.491 389.599 197.644C397.733 229.263 380.696 257.823 367.929 284.313C355.467 310.168 339.913 333.17 317.348 347.543C292.633 363.29 264.195 379.493 234.638 369.229Z" stroke="#2FF2B8"/>
<path opacity="0.3" fill-rule="evenodd" clip-rule="evenodd" d="M233.52 391.167C200.382 379.658 181.395 339.279 158.478 308.052C137.152 278.996 115.993 250.83 104.982 216.036C92.019 175.074 71.5139 126.007 90.3738 92.8529C109.374 59.4573 158.114 76.0955 191.843 63.3531C222.366 51.8225 245.07 9.45243 277.972 21.9824C311.225 34.6468 315.832 88.2229 339.23 119.486C360.808 148.315 399.868 161.712 408.941 196.972C418.15 232.76 398.864 265.085 384.412 295.065C370.305 324.328 352.698 350.361 327.154 366.63C299.174 384.45 266.981 402.787 233.52 391.167Z" stroke="#2FF2B8"/>
<path opacity="0.3" fill-rule="evenodd" clip-rule="evenodd" d="M232.497 411.225C195.825 398.491 174.813 353.81 149.45 319.255C125.849 287.102 102.432 255.936 90.247 217.436C75.8998 172.111 53.2069 117.818 74.0778 81.1341C95.1042 44.1829 149.042 62.5957 186.37 48.4982C220.148 35.7411 245.272 -11.1412 281.684 2.72624C318.484 16.7406 323.584 76.0227 349.478 110.616C373.358 142.517 416.585 157.342 426.626 196.357C436.818 235.958 415.476 271.723 399.482 304.896C383.87 337.275 364.387 366.08 336.118 384.082C305.155 403.796 269.527 424.084 232.497 411.225Z" stroke="#2FF2B8"/>
<path opacity="0.3" fill-rule="evenodd" clip-rule="evenodd" d="M231.409 432.534C190.982 418.496 167.818 369.245 139.855 331.156C113.836 295.715 88.0236 261.361 74.5891 218.922C58.7716 168.964 33.7512 109.116 56.763 68.6806C79.9388 27.9527 139.402 48.2501 180.551 32.7133C217.787 18.6527 245.482 -33.0222 285.625 -17.7354C326.193 -2.28615 331.816 63.0595 360.363 101.189C386.689 136.355 434.343 152.698 445.413 195.703C456.65 239.353 433.122 278.776 415.491 315.34C398.281 351.027 376.804 382.778 345.64 402.618C311.507 424.348 272.231 446.711 231.409 432.534Z" stroke="#2FF2B8"/>
<path opacity="0.3" fill-rule="evenodd" clip-rule="evenodd" d="M230.228 455.726C185.714 440.269 160.205 386.045 129.416 344.109C100.768 305.088 72.3441 267.264 57.5493 220.542C40.1336 165.537 12.5844 99.6479 37.9193 55.1313C63.4383 10.2914 128.913 32.6415 174.222 15.5366C215.223 0.0583229 245.719 -56.8334 289.917 -40.001C334.587 -22.9901 340.779 48.9516 372.213 90.9345C401.199 129.649 453.671 147.645 465.861 194.993C478.234 243.051 452.329 286.452 432.916 326.707C413.967 365.999 390.318 400.952 356.005 422.795C318.422 446.717 275.175 471.336 230.228 455.726Z" stroke="#2FF2B8"/>
</g>
</g>
<defs>
<clipPath id="clip0_2976_38779">
<rect width="388" height="110" fill="white"/>
</clipPath>
</defs>
</svg>
