<svg width="12" height="12" viewBox="0 0 12 12" fill="none" xmlns="http://www.w3.org/2000/svg">
<g id="data" clip-path="url(#clip0_775_4375)">
<g id="Icon">
<path d="M10.6 11C10.74 11 10.81 11 10.8635 10.9728C10.9105 10.9488 10.9488 10.9105 10.9728 10.8635C11 10.81 11 10.74 11 10.6V5.4C11 5.25999 11 5.18998 10.9728 5.1365C10.9488 5.08946 10.9105 5.05122 10.8635 5.02725C10.81 5 10.74 5 10.6 5L9.4 5C9.25999 5 9.18998 5 9.1365 5.02725C9.08946 5.05122 9.05122 5.08946 9.02725 5.1365C9 5.18998 9 5.25999 9 5.4V6.6C9 6.74001 9 6.81002 8.97275 6.8635C8.94878 6.91054 8.91054 6.94878 8.8635 6.97275C8.81002 7 8.74001 7 8.6 7H7.4C7.25999 7 7.18998 7 7.1365 7.02725C7.08946 7.05122 7.05122 7.08946 7.02725 7.1365C7 7.18998 7 7.25999 7 7.4V8.6C7 8.74001 7 8.81002 6.97275 8.8635C6.94878 8.91054 6.91054 8.94878 6.8635 8.97275C6.81002 9 6.74001 9 6.6 9H5.4C5.25999 9 5.18998 9 5.1365 9.02725C5.08946 9.05122 5.05122 9.08946 5.02725 9.1365C5 9.18998 5 9.25999 5 9.4V10.6C5 10.74 5 10.81 5.02725 10.8635C5.05122 10.9105 5.08946 10.9488 5.1365 10.9728C5.18998 11 5.25999 11 5.4 11L10.6 11Z" stroke="#EB5857" stroke-width="0.7" stroke-linecap="round" stroke-linejoin="round"/>
<path d="M5 3.4C5 3.25999 5 3.18998 5.02725 3.1365C5.05122 3.08946 5.08946 3.05122 5.1365 3.02725C5.18998 3 5.25999 3 5.4 3H6.6C6.74001 3 6.81002 3 6.8635 3.02725C6.91054 3.05122 6.94878 3.08946 6.97275 3.1365C7 3.18998 7 3.25999 7 3.4V4.6C7 4.74001 7 4.81002 6.97275 4.8635C6.94878 4.91054 6.91054 4.94878 6.8635 4.97275C6.81002 5 6.74001 5 6.6 5H5.4C5.25999 5 5.18998 5 5.1365 4.97275C5.08946 4.94878 5.05122 4.91054 5.02725 4.8635C5 4.81002 5 4.74001 5 4.6V3.4Z" stroke="#EB5857" stroke-width="0.7" stroke-linecap="round" stroke-linejoin="round"/>
<path d="M1.5 6.4C1.5 6.25999 1.5 6.18998 1.52725 6.1365C1.55122 6.08946 1.58946 6.05122 1.6365 6.02725C1.68998 6 1.75999 6 1.9 6H3.1C3.24001 6 3.31002 6 3.3635 6.02725C3.41054 6.05122 3.44878 6.08946 3.47275 6.1365C3.5 6.18998 3.5 6.25999 3.5 6.4V7.6C3.5 7.74001 3.5 7.81002 3.47275 7.8635C3.44878 7.91054 3.41054 7.94878 3.3635 7.97275C3.31002 8 3.24001 8 3.1 8H1.9C1.75999 8 1.68998 8 1.6365 7.97275C1.58946 7.94878 1.55122 7.91054 1.52725 7.8635C1.5 7.81002 1.5 7.74001 1.5 7.6V6.4Z" stroke="#EB5857" stroke-width="0.7" stroke-linecap="round" stroke-linejoin="round"/>
<path d="M1 1.4C1 1.25999 1 1.18998 1.02725 1.1365C1.05122 1.08946 1.08946 1.05122 1.1365 1.02725C1.18998 1 1.25999 1 1.4 1H2.6C2.74001 1 2.81002 1 2.8635 1.02725C2.91054 1.05122 2.94878 1.08946 2.97275 1.1365C3 1.18998 3 1.25999 3 1.4V2.6C3 2.74001 3 2.81002 2.97275 2.8635C2.94878 2.91054 2.91054 2.94878 2.8635 2.97275C2.81002 3 2.74001 3 2.6 3H1.4C1.25999 3 1.18998 3 1.1365 2.97275C1.08946 2.94878 1.05122 2.91054 1.02725 2.8635C1 2.81002 1 2.74001 1 2.6V1.4Z" stroke="#EB5857" stroke-width="0.7" stroke-linecap="round" stroke-linejoin="round"/>
</g>
</g>
<defs>
<clipPath id="clip0_775_4375">
<rect width="12" height="12" fill="white"/>
</clipPath>
</defs>
</svg>
