<svg width="1630" height="560" viewBox="0 0 1630 560" fill="none" xmlns="http://www.w3.org/2000/svg">
<g clip-path="url(#clip0_2992_43258)">
<mask id="mask0_2992_43258" style="mask-type:alpha" maskUnits="userSpaceOnUse" x="0" y="-148" width="1630" height="708">
<rect y="-148" width="1630" height="708" fill="#563AFF"/>
</mask>
<g mask="url(#mask0_2992_43258)">
<g opacity="0.6">
<path opacity="0.3" fill-rule="evenodd" clip-rule="evenodd" d="M902.545 695.566C888.473 721.306 851.39 731.902 821.668 746.845C794.013 760.75 767.144 774.626 735.859 779.372C699.03 784.961 654.284 795.734 628.175 776.202C601.877 756.528 622.319 718.631 615.624 689.424C609.565 662.994 576.021 639.181 590.936 613.758C606.012 588.064 652.626 590.877 682.438 575.543C709.932 561.404 726.367 531.041 757.807 527.94C789.719 524.793 815.061 544.57 838.998 560.099C862.363 575.257 882.511 592.885 893.267 615.814C905.052 640.937 916.748 669.573 902.545 695.566Z" stroke="white"/>
<path opacity="0.3" fill-rule="evenodd" clip-rule="evenodd" d="M961.473 706.931C942.219 742.17 891.504 756.694 850.857 777.161C813.035 796.213 776.29 815.222 733.515 821.73C683.16 829.399 621.978 844.169 586.303 817.446C550.368 790.529 578.35 738.646 569.223 698.671C560.965 662.497 515.13 629.919 535.546 595.112C556.179 559.935 619.904 563.758 660.675 542.757C698.276 523.389 720.771 481.821 763.756 477.561C807.387 473.236 842.014 500.295 874.726 521.538C906.654 542.274 934.181 566.393 948.868 597.778C964.951 632.154 980.915 671.346 961.473 706.931Z" stroke="white"/>
<path opacity="0.3" fill-rule="evenodd" clip-rule="evenodd" d="M1014.71 717.199C990.772 761.02 927.75 779.091 877.235 804.548C830.232 828.235 784.569 851.881 731.414 859.995C668.839 869.535 592.812 887.918 548.494 854.697C503.857 821.241 538.65 756.724 527.328 707.023C517.084 662.047 460.146 621.552 485.526 578.271C511.178 534.529 590.359 539.265 641.029 513.143C687.754 489.055 715.729 437.365 769.141 432.056C823.359 426.664 866.372 460.303 907.012 486.708C946.676 512.481 980.869 542.464 999.102 581.483C1019.07 624.222 1038.88 672.947 1014.71 717.199Z" stroke="white"/>
<path opacity="0.3" fill-rule="evenodd" clip-rule="evenodd" d="M1064.14 726.732C1035.84 778.513 961.395 799.876 901.717 829.974C846.188 857.985 792.235 885.922 729.45 895.52C655.529 906.807 565.719 928.537 513.377 889.286C460.659 849.76 501.778 773.509 488.416 714.777C476.327 661.629 409.08 613.783 439.075 562.631C469.384 510.934 562.92 516.521 622.781 485.642C677.983 457.172 711.041 396.08 774.136 389.798C838.18 383.423 888.98 423.166 936.977 454.364C983.822 484.816 1024.21 520.242 1045.73 566.35C1069.31 616.855 1092.7 674.434 1064.14 726.732Z" stroke="white"/>
<path opacity="0.3" fill-rule="evenodd" clip-rule="evenodd" d="M1115.46 736.632C1082.65 796.694 996.331 821.468 927.14 856.386C862.756 888.866 800.201 921.277 727.407 932.405C641.709 945.505 537.582 970.726 476.909 925.215C415.797 879.372 463.48 790.941 448.004 722.831C433.999 661.196 356.046 605.715 390.832 546.391C425.988 486.435 534.421 492.903 603.826 457.088C667.831 424.06 706.173 353.211 779.319 345.918C853.569 338.519 912.455 384.604 968.089 420.78C1022.39 456.094 1069.2 497.17 1094.15 550.64C1121.48 609.205 1148.59 675.977 1115.46 736.632Z" stroke="white"/>
<path opacity="0.3" fill-rule="evenodd" clip-rule="evenodd" d="M1178.2 748.726C1139.87 818.906 1039.05 847.867 958.223 888.652C883.018 926.611 809.95 964.487 724.926 977.498C624.83 992.815 503.205 1022.28 432.347 969.112C360.977 915.563 416.687 812.248 398.625 732.674C382.278 660.665 291.242 595.854 331.882 526.54C372.953 456.49 499.601 464.038 580.672 422.186C655.435 383.592 700.227 300.814 785.667 292.288C872.39 283.632 941.161 337.474 1006.13 379.73C1069.55 420.979 1124.22 468.968 1153.35 531.436C1185.26 599.856 1216.91 677.864 1178.2 748.726Z" stroke="white"/>
<path opacity="0.3" fill-rule="evenodd" clip-rule="evenodd" d="M1246.64 761.923C1202.29 843.129 1085.64 876.656 992.128 923.865C905.116 967.79 820.58 1011.63 722.213 1026.69C606.408 1044.42 465.695 1078.53 383.729 1017.01C301.169 955.052 365.636 835.49 344.75 743.412C325.85 660.089 220.538 585.098 267.565 504.887C315.092 423.824 461.607 432.546 555.407 384.111C641.905 339.446 693.738 243.655 792.586 233.782C892.917 223.761 972.47 286.053 1047.63 334.949C1121 382.676 1184.24 438.203 1217.92 510.487C1254.82 589.656 1291.43 679.919 1246.64 761.923Z" stroke="white"/>
<path opacity="0.3" fill-rule="evenodd" clip-rule="evenodd" d="M1313.18 774.753C1262.96 866.692 1130.93 904.649 1025.09 958.092C926.606 1007.83 830.918 1057.46 719.576 1074.51C588.5 1094.59 429.229 1133.2 336.464 1063.58C243.024 993.439 316.004 858.088 292.373 753.852C270.99 659.526 151.803 574.639 205.036 483.834C258.839 392.065 424.674 401.929 530.845 347.094C628.753 296.526 687.431 188.083 799.313 176.901C912.874 165.551 1002.91 236.063 1087.98 291.409C1171.01 345.433 1242.58 408.289 1280.7 490.114C1322.46 579.74 1363.89 681.918 1313.18 774.753Z" stroke="white"/>
<path opacity="0.3" fill-rule="evenodd" clip-rule="evenodd" d="M1374.02 786.49C1318.45 888.233 1172.35 930.242 1055.23 989.392C946.244 1044.43 840.361 1099.36 717.163 1118.24C572.125 1140.47 395.887 1183.2 293.246 1106.15C189.859 1028.54 270.622 878.75 244.484 763.396C220.83 659.011 88.9515 565.078 147.866 464.586C207.405 363.027 390.903 373.937 508.385 313.249C616.726 257.284 681.661 137.273 805.46 124.894C931.119 112.329 1030.74 190.357 1124.86 251.605C1216.73 311.389 1295.92 380.944 1338.11 471.494C1384.3 570.674 1430.13 683.753 1374.02 786.49Z" stroke="white"/>
<path opacity="0.3" fill-rule="evenodd" clip-rule="evenodd" d="M1438.65 798.952C1377.39 911.115 1216.35 957.428 1087.25 1022.64C967.114 1083.33 850.401 1143.88 714.595 1164.69C554.728 1189.2 360.46 1236.33 247.324 1151.38C133.371 1065.83 222.402 900.699 193.599 773.54C167.532 658.468 22.1734 554.925 87.1195 444.138C152.755 332.178 355.022 344.198 484.518 277.292C603.945 215.59 675.529 83.2893 811.991 69.6378C950.501 55.7823 1060.3 141.798 1164.05 209.311C1265.31 275.214 1352.59 351.885 1399.08 451.709C1450 561.041 1500.51 685.697 1438.65 798.952Z" stroke="white"/>
<path opacity="0.3" fill-rule="evenodd" clip-rule="evenodd" d="M1509 812.517C1441.55 936.018 1264.24 987.023 1122.1 1058.83C989.83 1125.65 861.324 1192.33 711.813 1215.25C535.796 1242.24 321.913 1294.13 197.361 1200.61C71.9034 1106.41 169.938 924.588 138.231 784.574C109.541 657.871 -50.4907 543.859 21.0205 421.879C93.291 298.601 315.976 311.83 458.558 238.157C590.042 170.218 668.864 24.5414 819.106 9.50621C971.602 -5.75477 1092.49 88.9492 1206.7 163.286C1318.19 235.846 1414.28 320.268 1465.46 430.176C1521.51 550.558 1577.11 687.815 1509 812.517Z" stroke="white"/>
</g>
</g>
</g>
<defs>
<clipPath id="clip0_2992_43258">
<rect width="1630" height="560" fill="white"/>
</clipPath>
</defs>
</svg>
