<svg width="54" height="54" viewBox="0 0 54 54" fill="none" xmlns="http://www.w3.org/2000/svg">
<rect width="54" height="54" rx="16" fill="#2FF2B8"/>
<g opacity="0.5">
<path d="M12.6813 16.9239C10.9239 18.6813 10.9239 21.5305 12.6813 23.2879L15.481 26.0876C16.0664 26.673 17.0152 26.6735 17.6012 26.0888L26.0956 17.6125C26.6824 17.0269 26.6829 16.0763 26.0967 15.4901L23.2879 12.6813C21.5305 10.9239 18.6813 10.9239 16.9239 12.6813L12.6813 16.9239Z" fill="white"/>
<path d="M28.2067 38.8133C27.6213 38.2279 27.6208 37.2791 28.2056 36.6931L36.6818 28.1988C37.2674 27.6119 38.218 27.6114 38.8042 28.1976L41.3191 30.7125C43.0765 32.4699 43.0765 35.3191 41.3191 37.0765L37.0765 41.3191C35.3191 43.0765 32.4699 43.0765 30.7125 41.3191L28.2067 38.8133Z" fill="white"/>
</g>
<path d="M34.3012 13.6287C35.4728 12.4571 37.3723 12.4571 38.5439 13.6287L40.6652 15.75C41.8368 16.9216 41.8368 18.8211 40.6652 19.9926L39.6044 21.0534C39.0186 21.6392 38.0689 21.6392 37.4831 21.0534L33.2405 16.8108C32.6547 16.225 32.6547 15.2752 33.2405 14.6894L34.3012 13.6287Z" fill="white"/>
<path d="M31.1194 18.9321C30.5336 18.3463 29.5838 18.3463 28.9981 18.9321L14.951 32.9792C14.7726 33.1575 14.6421 33.378 14.5716 33.6202L12.8158 39.6453C12.4836 40.7852 13.5445 41.8408 14.6827 41.503L20.6783 39.7233C20.9177 39.6522 21.1356 39.5225 21.3122 39.3459L35.362 25.2961C35.9478 24.7103 35.9478 23.7605 35.362 23.1748L31.1194 18.9321Z" fill="white"/>
</svg>
