<svg width="54" height="54" viewBox="0 0 54 54" fill="none" xmlns="http://www.w3.org/2000/svg">
<rect width="54" height="54" rx="16" fill="#7D42FB"/>
<path opacity="0.5" d="M18.6028 26.9996C19.8677 26.9996 20.8931 25.9742 20.8931 24.7093C20.8931 23.4443 19.8677 22.4189 18.6028 22.4189C17.3379 22.4189 16.3125 23.4443 16.3125 24.7093C16.3125 25.9742 17.3379 26.9996 18.6028 26.9996Z" fill="white"/>
<path opacity="0.5" d="M23.1809 20.8926C24.4458 20.8926 25.4712 19.8672 25.4712 18.6023C25.4712 17.3374 24.4458 16.312 23.1809 16.312C21.916 16.312 20.8906 17.3374 20.8906 18.6023C20.8906 19.8672 21.916 20.8926 23.1809 20.8926Z" fill="white"/>
<path opacity="0.5" d="M30.8176 20.8926C32.0825 20.8926 33.108 19.8672 33.108 18.6023C33.108 17.3374 32.0825 16.312 30.8176 16.312C29.5527 16.312 28.5273 17.3374 28.5273 18.6023C28.5273 19.8672 29.5527 20.8926 30.8176 20.8926Z" fill="white"/>
<path opacity="0.5" d="M35.3958 28.5264C36.6607 28.5264 37.6861 27.501 37.6861 26.2361C37.6861 24.9712 36.6607 23.9458 35.3958 23.9458C34.1309 23.9458 33.1055 24.9712 33.1055 26.2361C33.1055 27.501 34.1309 28.5264 35.3958 28.5264Z" fill="white"/>
<path fill-rule="evenodd" clip-rule="evenodd" d="M26.9992 11.7314C18.5663 11.7314 11.7305 18.5672 11.7305 27.0001C11.7305 28.6873 13.097 30.0539 14.7842 30.0539H20.8917C22.5789 30.0539 23.9454 31.4204 23.9454 33.1076V39.2151C23.9454 40.9023 25.312 42.2688 26.9992 42.2688C35.4321 42.2688 42.2679 35.4331 42.2679 27.0001C42.2679 18.5672 35.4321 11.7314 26.9992 11.7314ZM30.0529 37.6882C28.3657 37.6882 26.9992 36.3217 26.9992 34.6345C26.9992 32.9473 28.3657 31.5808 30.0529 31.5808C31.7401 31.5808 33.1067 32.9473 33.1067 34.6345C33.1067 36.3217 31.7401 37.6882 30.0529 37.6882ZM18.6028 26.9996C19.8677 26.9996 20.8931 25.9742 20.8931 24.7093C20.8931 23.4444 19.8677 22.4189 18.6028 22.4189C17.3379 22.4189 16.3125 23.4444 16.3125 24.7093C16.3125 25.9742 17.3379 26.9996 18.6028 26.9996ZM25.4712 18.6023C25.4712 19.8672 24.4458 20.8926 23.1809 20.8926C21.916 20.8926 20.8906 19.8672 20.8906 18.6023C20.8906 17.3374 21.916 16.312 23.1809 16.312C24.4458 16.312 25.4712 17.3374 25.4712 18.6023ZM30.8176 20.8926C32.0826 20.8926 33.108 19.8672 33.108 18.6023C33.108 17.3374 32.0826 16.312 30.8176 16.312C29.5527 16.312 28.5273 17.3374 28.5273 18.6023C28.5273 19.8672 29.5527 20.8926 30.8176 20.8926ZM37.6861 26.2366C37.6861 27.5015 36.6607 28.5269 35.3958 28.5269C34.1309 28.5269 33.1055 27.5015 33.1055 26.2366C33.1055 24.9717 34.1309 23.9463 35.3958 23.9463C36.6607 23.9463 37.6861 24.9717 37.6861 26.2366Z" fill="white"/>
</svg>
