<svg width="689" height="423" viewBox="0 0 689 423" fill="none" xmlns="http://www.w3.org/2000/svg">
<g filter="url(#filter0_d_2926_24380)">
<rect x="446.866" y="9.81006" width="229.249" height="116.79" rx="25" fill="white"/>
<rect x="447.366" y="10.3101" width="228.249" height="115.79" rx="24.5" stroke="#EFF0F7"/>
</g>
<path d="M536.315 67.4292C540.225 67.4292 542.89 65.1382 542.89 61.602C542.89 58.1655 540.275 56.2231 537.237 56.2231C535.768 56.2231 534.647 56.6714 533.775 57.269L533.925 52.8613H541.943V50.0224H531.011L530.762 59.1118L532.879 60.0083C533.85 59.2612 535.021 58.813 536.365 58.813C538.407 58.813 539.777 59.9834 539.777 61.7265C539.777 63.395 538.432 64.7397 536.365 64.7397C534.647 64.7397 533.053 63.8682 531.758 62.5732L529.916 64.7895C531.435 66.3833 533.526 67.4292 536.315 67.4292ZM552.833 67.4292C557.216 67.4292 560.329 63.7685 560.329 58.5639C560.329 53.3842 557.216 49.7236 552.833 49.7236C548.426 49.7236 545.338 53.3842 545.338 58.5639C545.338 63.7685 548.426 67.4292 552.833 67.4292ZM552.833 64.5903C550.293 64.5903 548.5 62.1001 548.5 58.5639C548.5 55.0278 550.293 52.5625 552.833 52.5625C555.373 52.5625 557.141 55.0278 557.141 58.5639C557.141 62.1001 555.373 64.5903 552.833 64.5903ZM565.261 70.6665C566.954 68.8735 567.652 67.5786 567.652 66.2339C567.652 64.665 566.83 63.5195 565.56 63.5195C564.489 63.5195 563.617 64.416 563.617 65.4619C563.617 66.5327 564.489 67.4292 565.535 67.4292C565.311 68.2261 564.813 69.023 564.091 69.77L565.261 70.6665ZM578.665 56.1982C576.921 56.1982 575.303 56.9204 574.232 58.1157C574.456 54.7788 576.149 52.4628 578.565 52.4628C580.059 52.4628 581.13 53.0854 582.176 54.0068L583.695 51.6411C582.325 50.4707 580.707 49.7236 578.565 49.7236C574.132 49.7236 571.019 53.5835 571.019 58.8628C571.019 63.7934 573.161 67.4292 578.042 67.4292C581.728 67.4292 584.417 64.9888 584.417 61.602C584.417 58.1904 581.802 56.1982 578.665 56.1982ZM577.893 64.7895C575.826 64.7895 574.755 63.3701 574.381 61.0791C574.879 59.6596 576.174 58.7383 577.843 58.7383C579.71 58.7383 581.254 59.8589 581.254 61.7265C581.254 63.2954 579.984 64.7895 577.893 64.7895ZM593.425 67.4292C597.111 67.4292 600.099 65.6362 600.099 62.5732C600.099 60.5561 598.63 59.062 596.613 58.29C598.331 57.5927 599.651 56.3227 599.651 54.3305C599.651 51.4418 596.737 49.7236 593.425 49.7236C590.213 49.7236 587.225 51.392 587.225 54.3305C587.225 56.2729 588.495 57.5429 590.263 58.29C588.27 59.0122 586.776 60.5063 586.776 62.5732C586.776 65.6113 589.715 67.4292 593.425 67.4292ZM593.425 57.1694C592.006 57.0947 590.288 56.248 590.288 54.729C590.288 53.3842 591.632 52.3632 593.425 52.3632C595.218 52.3632 596.588 53.3842 596.588 54.729C596.588 56.2231 594.894 57.0947 593.425 57.1694ZM593.425 64.7646C591.408 64.7646 589.889 63.7685 589.889 62.2744C589.889 60.6806 591.856 59.7344 593.425 59.6596C595.019 59.7344 596.961 60.6806 596.961 62.2744C596.961 63.7685 595.417 64.7646 593.425 64.7646ZM610.153 67.4292C614.535 67.4292 617.648 63.7685 617.648 58.5639C617.648 53.3842 614.535 49.7236 610.153 49.7236C605.745 49.7236 602.657 53.3842 602.657 58.5639C602.657 63.7685 605.745 67.4292 610.153 67.4292ZM610.153 64.5903C607.613 64.5903 605.82 62.1001 605.82 58.5639C605.82 55.0278 607.613 52.5625 610.153 52.5625C612.693 52.5625 614.461 55.0278 614.461 58.5639C614.461 62.1001 612.693 64.5903 610.153 64.5903Z" fill="#211F54"/>
<path opacity="0.8" d="M530.231 86.2808H531.652V78.9475L537.198 86.2808H538.634V76.611H537.198V83.9443L531.652 76.611H530.231V86.2808ZM544.359 85.2955C543.065 85.2955 542.164 84.3665 541.995 83.0857H547.808C547.808 80.4958 546.513 78.8349 544.289 78.8349C542.276 78.8349 540.629 80.4395 540.629 82.6212C540.629 84.8592 542.375 86.4497 544.388 86.4497C545.415 86.4497 546.696 86.0133 547.329 85.3236L546.513 84.4651C546.063 84.9436 545.148 85.2955 544.359 85.2955ZM544.317 79.9891C545.584 79.9891 546.316 80.8899 546.457 82.0582H542.009C542.22 80.8055 543.149 79.9891 544.317 79.9891ZM550.974 86.2808H552.255L554.014 80.8759L555.745 86.2808H557.026L559.489 79.0038H558.068L556.393 84.4228L554.591 79.0038H553.409L551.607 84.4228L549.946 79.0038H548.525L550.974 86.2808ZM567.09 86.4497C568.694 86.4497 569.849 85.577 569.849 84.1976C569.849 82.7479 568.582 82.3538 567.385 82.0019C566.147 81.6218 565.654 81.4529 565.654 80.8899C565.654 80.2847 566.245 79.961 566.977 79.961C567.639 79.961 568.371 80.2143 569.089 80.6647L569.666 79.6795C568.892 79.1587 567.92 78.8349 566.977 78.8349C565.443 78.8349 564.331 79.7076 564.331 81.0448C564.331 82.2271 565.176 82.7056 566.837 83.1701C567.766 83.4235 568.526 83.6487 568.526 84.3384C568.526 84.9295 567.977 85.3236 567.104 85.3236C566.302 85.3236 565.429 84.9999 564.627 84.4087L563.993 85.3659C564.866 86.0696 566.02 86.4497 567.09 86.4497ZM576.426 79.0038V83.522C576.426 84.4791 575.54 85.2392 574.428 85.2392C573.442 85.2392 572.753 84.4932 572.753 83.3953V79.0038H571.387V83.6346C571.387 85.3096 572.499 86.4497 574.104 86.4497C575.103 86.4497 575.99 85.957 576.426 85.2392V86.2808H577.82V79.0038H576.426ZM584.131 78.8349C582.991 78.8349 582.076 79.3839 581.513 80.2988V76.4421H580.119V86.2808H581.513V84.9858C582.076 85.9007 582.991 86.4497 584.131 86.4497C586.045 86.4497 587.467 84.8732 587.467 82.6353C587.467 80.4114 586.045 78.8349 584.131 78.8349ZM583.793 85.2392C582.47 85.2392 581.541 84.1554 581.541 82.6353C581.541 81.1151 582.47 80.0454 583.793 80.0454C585.116 80.0454 586.059 81.1151 586.059 82.6353C586.059 84.1554 585.116 85.2392 583.793 85.2392ZM591.625 86.4497C593.23 86.4497 594.384 85.577 594.384 84.1976C594.384 82.7479 593.117 82.3538 591.921 82.0019C590.682 81.6218 590.19 81.4529 590.19 80.8899C590.19 80.2847 590.781 79.961 591.513 79.961C592.174 79.961 592.906 80.2143 593.624 80.6647L594.201 79.6795C593.427 79.1587 592.456 78.8349 591.513 78.8349C589.979 78.8349 588.867 79.7076 588.867 81.0448C588.867 82.2271 589.711 82.7056 591.372 83.1701C592.301 83.4235 593.061 83.6487 593.061 84.3384C593.061 84.9295 592.512 85.3236 591.639 85.3236C590.837 85.3236 589.965 84.9999 589.162 84.4087L588.529 85.3659C589.402 86.0696 590.556 86.4497 591.625 86.4497ZM599.315 86.4497C600.399 86.4497 601.342 85.9993 602.046 85.2814L601.103 84.4228C600.638 84.9295 599.991 85.2392 599.315 85.2392C597.992 85.2392 596.88 84.0569 596.88 82.6353C596.88 81.2277 597.992 80.0454 599.315 80.0454C599.977 80.0454 600.61 80.341 601.06 80.8336L602.004 79.961C601.3 79.2713 600.371 78.8349 599.315 78.8349C597.246 78.8349 595.473 80.5662 595.473 82.6353C595.473 84.7043 597.232 86.4497 599.315 86.4497ZM604.894 80.4254V79.0038H603.5V86.2808H604.894V82.4101C604.894 81.0025 605.992 80.0454 607.596 80.0454V78.8349C606.329 78.8349 605.344 79.4543 604.894 80.4254ZM609.936 77.7934C610.4 77.7934 610.766 77.3993 610.766 76.9489C610.766 76.5125 610.4 76.1184 609.936 76.1184C609.471 76.1184 609.091 76.5125 609.091 76.9489C609.091 77.3993 609.471 77.7934 609.936 77.7934ZM609.232 86.2808H610.626V79.0038H609.232V86.2808ZM616.914 78.8349C615.774 78.8349 614.859 79.3839 614.296 80.2988V76.4421H612.902V86.2808H614.296V84.9858C614.859 85.9007 615.774 86.4497 616.914 86.4497C618.828 86.4497 620.249 84.8732 620.249 82.6353C620.249 80.4114 618.828 78.8349 616.914 78.8349ZM616.576 85.2392C615.253 85.2392 614.324 84.1554 614.324 82.6353C614.324 81.1151 615.253 80.0454 616.576 80.0454C617.899 80.0454 618.842 81.1151 618.842 82.6353C618.842 84.1554 617.899 85.2392 616.576 85.2392ZM625.182 85.2955C623.887 85.2955 622.987 84.3665 622.818 83.0857H628.631C628.631 80.4958 627.336 78.8349 625.112 78.8349C623.099 78.8349 621.452 80.4395 621.452 82.6212C621.452 84.8592 623.198 86.4497 625.21 86.4497C626.238 86.4497 627.519 86.0133 628.152 85.3236L627.336 84.4651C626.885 84.9436 625.971 85.2955 625.182 85.2955ZM625.14 79.9891C626.407 79.9891 627.139 80.8899 627.28 82.0582H622.832C623.043 80.8055 623.972 79.9891 625.14 79.9891ZM631.656 80.4254V79.0038H630.263V86.2808H631.656V82.4101C631.656 81.0025 632.754 80.0454 634.359 80.0454V78.8349C633.092 78.8349 632.106 79.4543 631.656 80.4254ZM638.387 86.4497C639.992 86.4497 641.146 85.577 641.146 84.1976C641.146 82.7479 639.879 82.3538 638.683 82.0019C637.444 81.6218 636.952 81.4529 636.952 80.8899C636.952 80.2847 637.543 79.961 638.275 79.961C638.936 79.961 639.668 80.2143 640.386 80.6647L640.963 79.6795C640.189 79.1587 639.218 78.8349 638.275 78.8349C636.74 78.8349 635.628 79.7076 635.628 81.0448C635.628 82.2271 636.473 82.7056 638.134 83.1701C639.063 83.4235 639.823 83.6487 639.823 84.3384C639.823 84.9295 639.274 85.3236 638.401 85.3236C637.599 85.3236 636.726 84.9999 635.924 84.4087L635.291 85.3659C636.163 86.0696 637.318 86.4497 638.387 86.4497Z" fill="#6E7191"/>
<path d="M482.393 72.1982C474.201 72.1982 467.205 73.4636 467.205 78.5212C467.205 83.5828 474.157 84.8917 482.393 84.8917C490.584 84.8917 497.581 83.6263 497.581 78.5687C497.581 73.5072 490.629 72.1982 482.393 72.1982" fill="#FF4267"/>
<path opacity="0.4" d="M482.393 67.3781C487.972 67.3781 492.442 62.9998 492.442 57.5362C492.442 52.0727 487.972 47.6943 482.393 47.6943C476.816 47.6943 472.343 52.0727 472.343 57.5362C472.343 62.9998 476.816 67.3781 482.393 67.3781" fill="#FF4267"/>
<path opacity="0.4" d="M496.495 57.7149C496.495 60.4971 495.642 63.0933 494.146 65.2498C493.99 65.4716 494.127 65.7706 494.398 65.8181C494.774 65.8795 495.161 65.9171 495.555 65.925C499.478 66.026 502.998 63.5527 503.971 59.8278C505.413 54.3009 501.182 49.3384 495.794 49.3384C495.209 49.3384 494.649 49.3978 494.103 49.5067C494.028 49.5225 493.947 49.5582 493.907 49.6216C493.854 49.7027 493.893 49.8077 493.945 49.877C495.565 52.1008 496.495 54.8079 496.495 57.7149" fill="#FF4267"/>
<path d="M508.08 72.8419C507.362 71.3428 505.629 70.3151 502.992 69.8101C501.748 69.5131 498.38 69.0913 495.247 69.1507C495.201 69.1566 495.175 69.1883 495.17 69.2081C495.164 69.2398 495.179 69.2873 495.239 69.321C496.687 70.022 502.282 73.0716 501.579 79.5035C501.548 79.7847 501.777 80.0223 502.062 79.9827C503.439 79.7906 506.982 79.0441 508.08 76.7232C508.688 75.4954 508.688 74.0696 508.08 72.8419" fill="#FF4267"/>
<g filter="url(#filter1_d_2926_24380)">
<rect x="446.866" y="150.011" width="229.249" height="116.79" rx="25" fill="white"/>
<rect x="447.366" y="150.511" width="228.249" height="115.79" rx="24.5" stroke="#EFF0F7"/>
</g>
<path fill-rule="evenodd" clip-rule="evenodd" d="M502.131 195.868C505.92 198.793 509.146 203.078 511.463 208.437C511.636 208.844 511.636 209.319 511.463 209.707C506.829 220.425 498.58 226.838 489.399 226.838H489.377C480.218 226.838 471.968 220.425 467.334 209.707C467.161 209.319 467.161 208.844 467.334 208.437C471.968 197.717 480.218 191.327 489.377 191.327H489.399C493.989 191.327 498.341 192.92 502.131 195.868ZM480.737 209.082C480.737 213.817 484.613 217.67 489.399 217.67C494.162 217.67 498.038 213.817 498.038 209.082C498.038 204.326 494.162 200.474 489.399 200.474C484.613 200.474 480.737 204.326 480.737 209.082Z" fill="#7D42FB"/>
<path opacity="0.6" d="M494.794 209.076C494.794 212.024 492.369 214.435 489.403 214.435C486.414 214.435 483.989 212.024 483.989 209.076C483.989 208.71 484.033 208.368 484.098 208.023H484.206C486.609 208.023 488.558 206.129 488.645 203.76C488.883 203.719 489.143 203.695 489.403 203.695C492.369 203.695 494.794 206.106 494.794 209.076" fill="#7D42FB"/>
<path d="M536.714 207.796C540.4 207.796 543.388 206.003 543.388 202.94C543.388 200.923 541.919 199.429 539.902 198.657C541.62 197.959 542.94 196.689 542.94 194.697C542.94 191.809 540.026 190.09 536.714 190.09C533.502 190.09 530.513 191.759 530.513 194.697C530.513 196.64 531.783 197.91 533.552 198.657C531.559 199.379 530.065 200.873 530.065 202.94C530.065 205.978 533.004 207.796 536.714 207.796ZM536.714 197.536C535.295 197.461 533.576 196.615 533.576 195.096C533.576 193.751 534.921 192.73 536.714 192.73C538.507 192.73 539.877 193.751 539.877 195.096C539.877 196.59 538.183 197.461 536.714 197.536ZM536.714 205.131C534.697 205.131 533.178 204.135 533.178 202.641C533.178 201.047 535.145 200.101 536.714 200.026C538.308 200.101 540.25 201.047 540.25 202.641C540.25 204.135 538.706 205.131 536.714 205.131ZM552.172 207.796C556.081 207.796 558.746 205.505 558.746 201.969C558.746 198.532 556.131 196.59 553.093 196.59C551.624 196.59 550.503 197.038 549.631 197.636L549.781 193.228H557.799V190.389H546.867L546.618 199.478L548.735 200.375C549.706 199.628 550.877 199.18 552.221 199.18C554.263 199.18 555.633 200.35 555.633 202.093C555.633 203.762 554.288 205.106 552.221 205.106C550.503 205.106 548.909 204.235 547.614 202.94L545.772 205.156C547.291 206.75 549.382 207.796 552.172 207.796ZM568.689 207.796C573.072 207.796 576.185 204.135 576.185 198.931C576.185 193.751 573.072 190.09 568.689 190.09C564.282 190.09 561.194 193.751 561.194 198.931C561.194 204.135 564.282 207.796 568.689 207.796ZM568.689 204.957C566.149 204.957 564.356 202.467 564.356 198.931C564.356 195.394 566.149 192.929 568.689 192.929C571.229 192.929 572.998 195.394 572.998 198.931C572.998 202.467 571.229 204.957 568.689 204.957ZM581.117 211.033C582.81 209.24 583.508 207.945 583.508 206.601C583.508 205.032 582.686 203.886 581.416 203.886C580.345 203.886 579.474 204.783 579.474 205.829C579.474 206.899 580.345 207.796 581.391 207.796C581.167 208.593 580.669 209.39 579.947 210.137L581.117 211.033ZM586.477 207.497H599.053V204.658H591.308L594.894 201.77C597.833 199.503 598.879 197.686 598.879 195.419C598.879 192.257 596.289 190.09 592.902 190.09C590.138 190.09 588.071 191.311 586.452 193.427L588.469 195.295C589.714 193.801 591.009 192.879 592.802 192.879C594.346 192.879 595.716 193.875 595.716 195.494C595.716 196.889 594.944 198.184 592.777 199.927L586.477 204.957V207.497ZM609.779 207.497H612.892V203.787H615.258V201.122H612.892V190.389H609.156L601.063 201.371L601.362 203.787H609.779V207.497ZM604.375 201.122L609.779 193.776V201.122H604.375ZM625.416 207.497H628.529V203.787H630.894V201.122H628.529V190.389H624.793L616.7 201.371L616.999 203.787H625.416V207.497ZM620.012 201.122L625.416 193.776V201.122H620.012Z" fill="#211F54"/>
<path opacity="0.8" d="M534.144 227.837C536.565 227.837 538.296 226.077 538.296 223.6V217.998H536.86V223.572C536.86 225.303 535.734 226.542 534.144 226.542C532.539 226.542 531.413 225.303 531.413 223.572V217.998H529.992V223.6C529.992 226.077 531.709 227.837 534.144 227.837ZM544.331 220.222C543.332 220.222 542.431 220.729 542.009 221.461V220.391H540.615V227.668H542.009V223.15C542.009 222.193 542.91 221.433 544.022 221.433C545.007 221.433 545.697 222.179 545.697 223.276V227.668H547.048V223.037C547.048 221.362 545.936 220.222 544.331 220.222ZM549.883 219.181C550.347 219.181 550.713 218.786 550.713 218.336C550.713 217.9 550.347 217.506 549.883 217.506C549.418 217.506 549.038 217.9 549.038 218.336C549.038 218.786 549.418 219.181 549.883 219.181ZM549.179 227.668H550.572V220.391H549.179V227.668ZM558.296 220.391V221.7C557.747 220.785 556.818 220.222 555.678 220.222C553.75 220.222 552.328 221.799 552.328 224.022C552.328 226.26 553.75 227.837 555.678 227.837C556.818 227.837 557.747 227.274 558.296 226.359V230.089H559.675V220.391H558.296ZM556.002 226.626C554.679 226.626 553.736 225.543 553.736 224.022C553.736 222.502 554.679 221.433 556.002 221.433C557.325 221.433 558.254 222.502 558.254 224.022C558.254 225.543 557.325 226.626 556.002 226.626ZM566.86 220.391V224.909C566.86 225.866 565.973 226.626 564.861 226.626C563.876 226.626 563.186 225.88 563.186 224.783V220.391H561.821V225.022C561.821 226.697 562.933 227.837 564.537 227.837C565.537 227.837 566.424 227.344 566.86 226.626V227.668H568.253V220.391H566.86ZM573.72 226.683C572.425 226.683 571.524 225.754 571.355 224.473H577.168C577.168 221.883 575.873 220.222 573.649 220.222C571.637 220.222 569.99 221.827 569.99 224.008C569.99 226.246 571.735 227.837 573.748 227.837C574.775 227.837 576.056 227.401 576.69 226.711L575.873 225.852C575.423 226.331 574.508 226.683 573.72 226.683ZM573.678 221.376C574.944 221.376 575.676 222.277 575.817 223.445H571.369C571.58 222.193 572.509 221.376 573.678 221.376ZM584.788 227.668H586.097L589.165 220.391H587.659L585.435 226.049L583.169 220.391H581.677L584.788 227.668ZM591.16 219.181C591.624 219.181 591.99 218.786 591.99 218.336C591.99 217.9 591.624 217.506 591.16 217.506C590.695 217.506 590.315 217.9 590.315 218.336C590.315 218.786 590.695 219.181 591.16 219.181ZM590.456 227.668H591.85V220.391H590.456V227.668ZM596.519 227.837C598.124 227.837 599.278 226.964 599.278 225.585C599.278 224.135 598.011 223.741 596.815 223.389C595.576 223.009 595.083 222.84 595.083 222.277C595.083 221.672 595.675 221.348 596.406 221.348C597.068 221.348 597.8 221.602 598.518 222.052L599.095 221.067C598.321 220.546 597.349 220.222 596.406 220.222C594.872 220.222 593.76 221.095 593.76 222.432C593.76 223.614 594.605 224.093 596.266 224.557C597.195 224.811 597.955 225.036 597.955 225.726C597.955 226.317 597.406 226.711 596.533 226.711C595.731 226.711 594.858 226.387 594.056 225.796L593.422 226.753C594.295 227.457 595.449 227.837 596.519 227.837ZM601.675 219.181C602.14 219.181 602.506 218.786 602.506 218.336C602.506 217.9 602.14 217.506 601.675 217.506C601.211 217.506 600.831 217.9 600.831 218.336C600.831 218.786 601.211 219.181 601.675 219.181ZM600.971 227.668H602.365V220.391H600.971V227.668ZM607.752 226.359C607.611 226.514 607.33 226.626 607.02 226.626C606.612 226.626 606.26 226.26 606.26 225.754V221.573H607.977V220.391H606.26V218.392H604.895V220.391H603.811V221.573H604.895V225.852C604.895 227.021 605.683 227.837 606.809 227.837C607.33 227.837 607.879 227.64 608.273 227.316L607.752 226.359ZM612.12 227.837C613.725 227.837 614.879 226.964 614.879 225.585C614.879 224.135 613.612 223.741 612.416 223.389C611.177 223.009 610.684 222.84 610.684 222.277C610.684 221.672 611.276 221.348 612.007 221.348C612.669 221.348 613.401 221.602 614.119 222.052L614.696 221.067C613.922 220.546 612.95 220.222 612.007 220.222C610.473 220.222 609.361 221.095 609.361 222.432C609.361 223.614 610.206 224.093 611.867 224.557C612.796 224.811 613.556 225.036 613.556 225.726C613.556 226.317 613.007 226.711 612.134 226.711C611.332 226.711 610.459 226.387 609.657 225.796L609.023 226.753C609.896 227.457 611.05 227.837 612.12 227.837Z" fill="#6E7191"/>
<g filter="url(#filter2_d_2926_24380)">
<rect x="446.866" y="290.213" width="229.249" height="116.79" rx="25" fill="white"/>
<rect x="447.366" y="290.713" width="228.249" height="115.79" rx="24.5" stroke="#EFF0F7"/>
</g>
<path d="M536.315 347.832C540.225 347.832 542.889 345.541 542.889 342.005C542.889 338.568 540.275 336.626 537.237 336.626C535.767 336.626 534.647 337.074 533.775 337.672L533.925 333.264H541.943V330.425H531.011L530.762 339.515L532.879 340.411C533.85 339.664 535.02 339.216 536.365 339.216C538.407 339.216 539.777 340.386 539.777 342.129C539.777 343.798 538.432 345.143 536.365 345.143C534.647 345.143 533.053 344.271 531.758 342.976L529.915 345.192C531.434 346.786 533.526 347.832 536.315 347.832ZM560.827 334.36C558.81 334.36 557.266 335.58 556.917 337.423C556.245 335.555 554.601 334.36 552.559 334.36C550.941 334.36 549.621 335.157 548.973 336.402V334.659H545.935V347.533H548.973V339.639C548.973 338.07 550.144 336.95 551.787 336.95C553.256 336.95 554.302 338.145 554.302 339.838V347.533H557.241V339.639C557.241 338.07 558.411 336.95 560.08 336.95C561.549 336.95 562.57 338.145 562.57 339.838V347.533H565.533V339.34C565.533 336.427 563.516 334.36 560.827 334.36ZM574.877 347.533H587.452V344.694H579.708L583.294 341.806C586.232 339.54 587.278 337.722 587.278 335.456C587.278 332.293 584.688 330.126 581.301 330.126C578.537 330.126 576.47 331.347 574.852 333.463L576.869 335.331C578.114 333.837 579.409 332.915 581.202 332.915C582.746 332.915 584.115 333.912 584.115 335.53C584.115 336.925 583.343 338.22 581.177 339.963L574.877 344.993V347.533ZM596.261 347.832C600.171 347.832 602.835 345.541 602.835 342.005C602.835 338.568 600.22 336.626 597.182 336.626C595.713 336.626 594.592 337.074 593.721 337.672L593.87 333.264H601.889V330.425H590.957L590.708 339.515L592.824 340.411C593.796 339.664 594.966 339.216 596.311 339.216C598.353 339.216 599.722 340.386 599.722 342.129C599.722 343.798 598.378 345.143 596.311 345.143C594.592 345.143 592.999 344.271 591.704 342.976L589.861 345.192C591.38 346.786 593.472 347.832 596.261 347.832ZM610.338 347.832C613.327 347.832 615.394 346.238 615.394 343.748C615.394 341.083 613.053 340.361 610.861 339.764C608.919 339.166 608.122 338.942 608.122 338.095C608.122 337.199 609.019 336.676 610.139 336.676C611.335 336.676 612.679 337.174 613.875 337.946L615.07 335.904C613.65 334.982 611.907 334.36 610.139 334.36C607.275 334.36 605.283 336.003 605.283 338.394C605.283 340.735 607.051 341.507 609.865 342.254C611.384 342.652 612.58 343.001 612.58 344.022C612.58 344.918 611.758 345.491 610.388 345.491C608.994 345.491 607.375 344.918 605.98 343.922L604.686 345.915C606.254 347.135 608.371 347.832 610.338 347.832Z" fill="#211F54"/>
<path opacity="0.8" d="M533.369 366.838C535.649 366.838 536.888 365.6 536.888 363.967C536.888 362.236 535.551 361.588 533.622 361.138C532.032 360.758 531.202 360.448 531.202 359.547C531.202 358.773 531.962 358.098 533.045 358.098C534.031 358.098 535.002 358.534 535.818 359.28L536.635 358.21C535.706 357.38 534.594 356.845 533.116 356.845C531.159 356.845 529.752 358.055 529.752 359.674C529.752 361.419 531.061 362.011 533.031 362.475C534.65 362.841 535.452 363.193 535.452 364.108C535.452 364.882 534.763 365.586 533.425 365.586C532.116 365.586 531.103 365.051 530.244 364.234L529.4 365.29C530.413 366.275 531.75 366.838 533.369 366.838ZM541.899 365.698C540.604 365.698 539.703 364.769 539.534 363.489H545.347C545.347 360.899 544.052 359.238 541.828 359.238C539.816 359.238 538.169 360.842 538.169 363.024C538.169 365.262 539.914 366.852 541.927 366.852C542.954 366.852 544.235 366.416 544.869 365.726L544.052 364.868C543.602 365.346 542.687 365.698 541.899 365.698ZM541.857 360.392C543.123 360.392 543.855 361.293 543.996 362.461H539.548C539.759 361.208 540.688 360.392 541.857 360.392ZM549.372 366.852C550.976 366.852 552.131 365.98 552.131 364.6C552.131 363.151 550.864 362.757 549.667 362.405C548.429 362.025 547.936 361.856 547.936 361.293C547.936 360.688 548.527 360.364 549.259 360.364C549.921 360.364 550.653 360.617 551.371 361.068L551.948 360.082C551.173 359.562 550.202 359.238 549.259 359.238C547.725 359.238 546.613 360.11 546.613 361.448C546.613 362.63 547.458 363.108 549.118 363.573C550.047 363.826 550.808 364.052 550.808 364.741C550.808 365.332 550.259 365.726 549.386 365.726C548.584 365.726 547.711 365.403 546.909 364.812L546.275 365.769C547.148 366.472 548.302 366.852 549.372 366.852ZM556.217 366.852C557.822 366.852 558.976 365.98 558.976 364.6C558.976 363.151 557.709 362.757 556.513 362.405C555.274 362.025 554.781 361.856 554.781 361.293C554.781 360.688 555.373 360.364 556.104 360.364C556.766 360.364 557.498 360.617 558.216 361.068L558.793 360.082C558.019 359.562 557.047 359.238 556.104 359.238C554.57 359.238 553.458 360.11 553.458 361.448C553.458 362.63 554.303 363.108 555.964 363.573C556.893 363.826 557.653 364.052 557.653 364.741C557.653 365.332 557.104 365.726 556.231 365.726C555.429 365.726 554.556 365.403 553.754 364.812L553.12 365.769C553.993 366.472 555.147 366.852 556.217 366.852ZM561.373 358.196C561.838 358.196 562.204 357.802 562.204 357.352C562.204 356.915 561.838 356.521 561.373 356.521C560.909 356.521 560.529 356.915 560.529 357.352C560.529 357.802 560.909 358.196 561.373 358.196ZM560.669 366.684H562.063V359.407H560.669V366.684ZM567.577 366.852C569.674 366.852 571.405 365.135 571.405 363.038C571.405 360.941 569.674 359.238 567.577 359.238C565.48 359.238 563.748 360.941 563.748 363.038C563.748 365.135 565.48 366.852 567.577 366.852ZM567.577 365.642C566.24 365.642 565.142 364.474 565.142 363.038C565.142 361.602 566.24 360.448 567.577 360.448C568.914 360.448 570.012 361.602 570.012 363.038C570.012 364.474 568.914 365.642 567.577 365.642ZM576.811 359.238C575.812 359.238 574.911 359.744 574.489 360.476V359.407H573.095V366.684H574.489V362.165C574.489 361.208 575.39 360.448 576.502 360.448C577.487 360.448 578.176 361.194 578.176 362.292V366.684H579.528V362.053C579.528 360.378 578.416 359.238 576.811 359.238ZM588.632 365.375C588.491 365.529 588.21 365.642 587.9 365.642C587.492 365.642 587.14 365.276 587.14 364.769V360.589H588.857V359.407H587.14V357.408H585.774V359.407H584.691V360.589H585.774V364.868C585.774 366.036 586.563 366.852 587.689 366.852C588.21 366.852 588.758 366.655 589.153 366.332L588.632 365.375ZM591.311 358.196C591.775 358.196 592.141 357.802 592.141 357.352C592.141 356.915 591.775 356.521 591.311 356.521C590.846 356.521 590.466 356.915 590.466 357.352C590.466 357.802 590.846 358.196 591.311 358.196ZM590.607 366.684H592V359.407H590.607V366.684ZM602.427 359.238C601.286 359.238 600.4 359.942 600.174 360.969C599.809 359.913 598.894 359.238 597.739 359.238C596.796 359.238 596.036 359.702 595.67 360.448V359.407H594.277V366.684H595.67V362.137C595.67 361.138 596.402 360.448 597.458 360.448C598.359 360.448 598.992 361.194 598.992 362.264V366.684H600.357V362.137C600.357 361.138 601.103 360.448 602.145 360.448C603.046 360.448 603.693 361.194 603.693 362.264V366.684H605.045V362.053C605.045 360.406 603.947 359.238 602.427 359.238ZM610.337 365.698C609.042 365.698 608.141 364.769 607.972 363.489H613.785C613.785 360.899 612.491 359.238 610.267 359.238C608.254 359.238 606.607 360.842 606.607 363.024C606.607 365.262 608.352 366.852 610.365 366.852C611.393 366.852 612.674 366.416 613.307 365.726L612.491 364.868C612.04 365.346 611.125 365.698 610.337 365.698ZM610.295 360.392C611.562 360.392 612.294 361.293 612.434 362.461H607.986C608.198 361.208 609.127 360.392 610.295 360.392Z" fill="#6E7191"/>
<path d="M500.839 327.532H482.922C475.916 327.532 471.204 332.451 471.204 339.766V356.65C471.204 363.945 475.916 368.864 482.922 368.864H500.839C507.845 368.864 512.536 363.945 512.536 356.65V339.766C512.536 332.451 507.845 327.532 500.839 327.532" fill="#FFCD42"/>
<path d="M499.255 356.082C498.984 356.082 498.711 356.011 498.461 355.865L490.348 351.025C489.881 350.744 489.594 350.237 489.594 349.692V339.262C489.594 338.406 490.288 337.712 491.144 337.712C491.999 337.712 492.694 338.406 492.694 339.262V348.811L500.051 353.199C500.784 353.639 501.026 354.59 500.588 355.325C500.297 355.811 499.782 356.082 499.255 356.082" fill="white"/>
<g filter="url(#filter3_d_2926_24380)">
<rect x="12.115" y="9.81006" width="409.751" height="397.192" rx="25" fill="white"/>
<rect x="12.615" y="10.3101" width="408.751" height="396.192" rx="24.5" stroke="#EFF0F7"/>
</g>
<rect x="165.317" y="340.176" width="103.347" height="34.9926" rx="17.4963" fill="#563AFF"/>
<path d="M191.552 358.14H193.424V359.5C192.956 359.838 192.336 360.034 191.77 360.034C190.388 360.034 189.213 358.837 189.213 357.4C189.213 355.975 190.388 354.778 191.77 354.778C192.499 354.778 193.315 355.104 193.783 355.648L194.752 354.745C194.023 353.995 192.869 353.538 191.77 353.538C189.637 353.538 187.831 355.3 187.831 357.4C187.831 359.5 189.637 361.274 191.77 361.274C192.869 361.274 194.023 360.806 194.752 360.055V357.03H191.552V358.14ZM198.799 360.208C197.928 360.208 197.308 359.598 197.167 358.717H201.53C201.53 356.671 200.507 355.387 198.766 355.387C197.156 355.387 195.883 356.617 195.883 358.314C195.883 360.045 197.221 361.274 198.842 361.274C199.659 361.274 200.638 360.926 201.128 360.404L200.366 359.62C200.007 359.968 199.365 360.208 198.799 360.208ZM198.777 356.454C199.626 356.454 200.126 357.041 200.246 357.836H197.178C197.352 356.998 197.972 356.454 198.777 356.454ZM205.348 359.936C205.228 360.055 205.021 360.142 204.793 360.142C204.477 360.142 204.227 359.87 204.227 359.49V356.617H205.5V355.518H204.227V353.973H202.943V355.518H202.127V356.617H202.943V359.653C202.943 360.599 203.596 361.274 204.521 361.274C204.956 361.274 205.413 361.1 205.729 360.828L205.348 359.936ZM211.739 361.274C213.045 361.274 213.948 360.578 213.948 359.49C213.948 358.325 212.925 358.01 211.968 357.749C211.119 357.487 210.771 357.39 210.771 357.02C210.771 356.628 211.163 356.399 211.652 356.399C212.175 356.399 212.762 356.617 213.284 356.954L213.807 356.062C213.187 355.659 212.425 355.387 211.652 355.387C210.401 355.387 209.53 356.106 209.53 357.15C209.53 358.173 210.303 358.51 211.533 358.837C212.196 359.011 212.719 359.163 212.719 359.609C212.719 360.001 212.36 360.251 211.761 360.251C211.152 360.251 210.444 360.001 209.835 359.566L209.269 360.436C209.955 360.969 210.88 361.274 211.739 361.274ZM217.802 359.936C217.682 360.055 217.475 360.142 217.247 360.142C216.931 360.142 216.681 359.87 216.681 359.49V356.617H217.954V355.518H216.681V353.973H215.397V355.518H214.581V356.617H215.397V359.653C215.397 360.599 216.05 361.274 216.975 361.274C217.41 361.274 217.867 361.1 218.183 360.828L217.802 359.936ZM221.523 355.387C220.815 355.387 220.075 355.583 219.281 355.975L219.738 356.9C220.217 356.66 220.728 356.475 221.261 356.475C222.284 356.475 222.633 357.107 222.633 357.759V357.901C222.121 357.716 221.577 357.607 221.066 357.607C219.793 357.607 218.781 358.369 218.781 359.479C218.781 360.567 219.673 361.274 220.87 361.274C221.523 361.274 222.219 360.991 222.633 360.48V361.144H223.927V357.759C223.927 356.334 223.013 355.387 221.523 355.387ZM221.164 360.306C220.532 360.306 220.054 359.968 220.054 359.435C220.054 358.902 220.598 358.532 221.261 358.532C221.751 358.532 222.219 358.608 222.633 358.739V359.381C222.491 359.979 221.806 360.306 221.164 360.306ZM226.793 356.584V355.518H225.465V361.144H226.793V358.304C226.793 357.237 227.598 356.519 228.806 356.519V355.387C227.892 355.387 227.152 355.855 226.793 356.584ZM232.647 359.936C232.527 360.055 232.32 360.142 232.092 360.142C231.776 360.142 231.526 359.87 231.526 359.49V356.617H232.799V355.518H231.526V353.973H230.242V355.518H229.426V356.617H230.242V359.653C230.242 360.599 230.895 361.274 231.82 361.274C232.255 361.274 232.712 361.1 233.028 360.828L232.647 359.936ZM236.618 360.208C235.747 360.208 235.127 359.598 234.986 358.717H239.349C239.349 356.671 238.326 355.387 236.585 355.387C234.975 355.387 233.702 356.617 233.702 358.314C233.702 360.045 235.04 361.274 236.661 361.274C237.477 361.274 238.457 360.926 238.946 360.404L238.185 359.62C237.826 359.968 237.184 360.208 236.618 360.208ZM236.596 356.454C237.445 356.454 237.945 357.041 238.065 357.836H234.997C235.171 356.998 235.791 356.454 236.596 356.454ZM244.69 353.538V356.399C244.255 355.768 243.569 355.387 242.742 355.387C241.241 355.387 240.153 356.606 240.153 358.325C240.153 360.055 241.241 361.274 242.742 361.274C243.569 361.274 244.255 360.893 244.69 360.251V361.144H246.018V353.538H244.69ZM243.09 360.142C242.144 360.142 241.469 359.381 241.469 358.325C241.469 357.27 242.144 356.519 243.09 356.519C244.026 356.519 244.679 357.27 244.679 358.325C244.679 359.381 244.026 360.142 243.09 360.142Z" fill="white"/>
<rect x="12.115" y="51.104" width="409.038" height="175.479" fill="#F7F7FC"/>
<g filter="url(#filter4_d_2926_24380)">
<rect x="38.3464" y="163.992" width="171.423" height="157.324" rx="21" fill="white"/>
</g>
<path d="M176.133 245.375C175.776 252.213 174.075 258.914 171.128 265.096C168.181 271.277 164.045 276.817 158.957 281.4C153.869 285.983 147.928 289.519 141.473 291.806C135.018 294.093 128.176 295.086 121.338 294.729C114.499 294.372 107.798 292.671 101.616 289.724C95.435 286.777 89.8947 282.641 85.3117 277.553C80.7287 272.465 77.1928 266.524 74.9058 260.069C72.6189 253.615 71.6256 246.773 71.9829 239.934C72.3401 233.095 74.0408 226.394 76.9879 220.213C79.9349 214.031 84.0706 208.491 89.1588 203.908C94.247 199.325 100.188 195.789 106.643 193.502C113.098 191.215 119.94 190.222 126.778 190.579C133.617 190.937 140.318 192.637 146.499 195.584C152.681 198.531 158.221 202.667 162.804 207.755C167.387 212.843 170.923 218.785 173.21 225.239C175.497 231.694 176.49 238.536 176.133 245.375L176.133 245.375Z" stroke="#EFF0F7" stroke-width="14"/>
<path d="M176.133 245.375C175.511 257.277 170.831 268.607 162.872 277.478C154.912 286.349 144.154 292.226 132.389 294.13C120.624 296.035 108.561 293.851 98.2098 287.943C87.8586 282.035 79.8436 272.76 75.4993 261.661" stroke="#2FF2B8" stroke-width="14" stroke-linecap="round"/>
<path d="M140.312 193.106C148.3 195.727 155.536 200.24 161.403 206.26C167.27 212.281 171.595 219.631 174.009 227.683C176.422 235.736 176.853 244.253 175.264 252.508C173.676 260.763 170.115 268.512 164.885 275.094" stroke="#1DE4FF" stroke-width="14" stroke-linecap="round"/>
<path d="M74.7867 259.729C71.4096 249.984 70.998 239.457 73.604 229.478C76.21 219.499 81.7166 210.517 89.4274 203.668C97.1381 196.819 106.707 192.41 116.923 190.999C127.14 189.588 137.545 191.238 146.824 195.74" stroke="#FFCD42" stroke-width="14" stroke-linecap="round"/>
<g filter="url(#filter5_d_2926_24380)">
<rect x="224.212" y="163.992" width="171.423" height="157.324" rx="21" fill="white"/>
</g>
<path d="M251.998 250.143L239.819 268.476V295.132H377.309V205.373C371.52 192.224 353.985 189.634 344.641 200.547L317.257 232.531C309.464 241.633 296.68 244.653 285.637 240.001C273.444 234.863 259.319 239.121 251.998 250.143Z" fill="url(#paint0_linear_2926_24380)" fill-opacity="0.5"/>
<path d="M239.818 268.476L252.123 249.953C259.373 239.039 273.355 234.817 285.434 239.894V239.894C296.111 244.381 308.458 241.642 316.235 233.06L347.702 198.338C356.884 188.206 373.62 192.072 377.428 205.204V205.204" stroke="#7D42FB" stroke-width="3" stroke-linecap="round"/>
<path d="M104.144 109.178H107.4V104.272H110.942C114.242 104.272 116.64 102.16 116.64 99.1682C116.64 96.1762 114.242 94.0642 110.942 94.0642H104.144V109.178ZM107.4 101.302V97.0342H110.612C112.218 97.0342 113.318 97.8702 113.318 99.1682C113.318 100.466 112.218 101.302 110.612 101.302H107.4ZM124.479 109.442C127.889 109.442 130.683 106.758 130.683 103.48C130.683 100.202 127.889 97.5402 124.479 97.5402C121.069 97.5402 118.275 100.202 118.275 103.48C118.275 106.758 121.069 109.442 124.479 109.442ZM124.479 106.736C122.763 106.736 121.355 105.262 121.355 103.48C121.355 101.698 122.763 100.246 124.479 100.246C126.195 100.246 127.581 101.698 127.581 103.48C127.581 105.262 126.195 106.736 124.479 106.736ZM135.607 109.178H138.489L140.623 102.028L142.757 109.178H145.639L149.489 97.8042H146.343L144.209 104.888L141.943 97.8042H139.281L137.037 104.888L134.881 97.8042H131.735L135.607 109.178ZM156.572 106.956C155.01 106.956 153.954 105.878 153.668 104.338H162.226C162.226 100.114 160.07 97.5402 156.506 97.5402C153.184 97.5402 150.61 100.026 150.61 103.458C150.61 106.956 153.294 109.442 156.682 109.442C158.354 109.442 160.312 108.738 161.324 107.682L159.52 105.834C158.794 106.494 157.628 106.956 156.572 106.956ZM156.55 100.026C157.98 100.026 158.882 101.016 159.146 102.424H153.69C154.042 100.972 155.12 100.026 156.55 100.026ZM167.611 99.9382V97.8042H164.399V109.178H167.611V103.744C167.611 101.61 169.129 100.246 171.505 100.246V97.5402C169.767 97.5402 168.359 98.4642 167.611 99.9382ZM177.504 97.1882C177.504 96.4402 177.988 95.9122 178.582 95.9122C179.022 95.9122 179.462 96.0662 179.682 96.2862L180.452 94.3282C179.792 93.7342 178.758 93.3382 177.834 93.3382C175.832 93.3382 174.424 94.7682 174.424 96.8142V97.8042H172.862V100.4H174.424V109.178H177.504V100.4H179.968V97.8042H177.504V97.1882ZM189.344 97.8042V104.536C189.344 105.768 188.31 106.736 186.968 106.736C185.692 106.736 184.79 105.768 184.79 104.36V97.8042H181.71V105.042C181.71 107.638 183.448 109.442 185.934 109.442C187.386 109.442 188.64 108.804 189.344 107.792V109.178H192.556V97.8042H189.344ZM195.637 109.178H198.849V93.8002H195.637V109.178ZM212.722 97.5402C211.138 97.5402 209.576 97.9802 207.97 98.7942L209.048 100.928C209.95 100.466 210.94 100.114 211.996 100.114C213.866 100.114 214.636 101.17 214.636 102.38V102.622C213.668 102.226 212.634 102.028 211.71 102.028C209.092 102.028 207.002 103.568 207.002 105.812C207.002 107.99 208.85 109.442 211.27 109.442C212.524 109.442 213.822 108.936 214.636 108.034V109.178H217.738V102.38C217.738 99.4102 215.692 97.5402 212.722 97.5402ZM211.996 107.22C210.896 107.22 210.06 106.648 210.06 105.724C210.06 104.8 211.006 104.118 212.172 104.118C213.052 104.118 213.91 104.272 214.636 104.558V105.592C214.394 106.648 213.228 107.22 211.996 107.22ZM227.203 97.5402C225.729 97.5402 224.475 98.1782 223.771 99.1902V97.8042H220.559V109.178H223.771V102.446C223.771 101.214 224.805 100.246 226.147 100.246C227.423 100.246 228.325 101.214 228.325 102.622V109.178H231.405V101.94C231.405 99.3442 229.667 97.5402 227.203 97.5402ZM239.062 97.5402C237.478 97.5402 235.916 97.9802 234.31 98.7942L235.388 100.928C236.29 100.466 237.28 100.114 238.336 100.114C240.206 100.114 240.976 101.17 240.976 102.38V102.622C240.008 102.226 238.974 102.028 238.05 102.028C235.432 102.028 233.342 103.568 233.342 105.812C233.342 107.99 235.19 109.442 237.61 109.442C238.864 109.442 240.162 108.936 240.976 108.034V109.178H244.078V102.38C244.078 99.4102 242.032 97.5402 239.062 97.5402ZM238.336 107.22C237.236 107.22 236.4 106.648 236.4 105.724C236.4 104.8 237.346 104.118 238.512 104.118C239.392 104.118 240.25 104.272 240.976 104.558V105.592C240.734 106.648 239.568 107.22 238.336 107.22ZM246.899 109.178H250.111V93.8002H246.899V109.178ZM255.591 113.138C257.373 113.138 258.825 111.972 259.683 109.75L264.347 97.8042H261.069L258.231 105.79L255.239 97.8042H251.917L256.647 109.288L256.251 110.124C256.009 110.542 255.525 110.74 254.909 110.74C254.535 110.74 253.963 110.542 253.413 110.234L252.731 112.434C253.501 112.852 254.645 113.138 255.591 113.138ZM271.935 106.362C271.715 106.582 271.275 106.736 270.835 106.736C270.241 106.736 269.779 106.208 269.779 105.46V100.4H272.243V97.8042H269.779V94.6802H266.677V97.8042H265.115V100.4H266.677V105.966C266.677 108.012 268.085 109.442 270.109 109.442C271.011 109.442 272.045 109.046 272.705 108.452L271.935 106.362ZM276.413 96.2422C277.359 96.2422 278.129 95.4502 278.129 94.4822C278.129 93.5802 277.359 92.7662 276.413 92.7662C275.423 92.7662 274.653 93.5802 274.653 94.4822C274.653 95.4502 275.423 96.2422 276.413 96.2422ZM274.785 109.178H277.997V97.8042H274.785V109.178ZM286.448 109.442C288.362 109.442 289.902 108.672 291.024 107.44L288.89 105.636C288.296 106.296 287.372 106.736 286.492 106.736C284.798 106.736 283.39 105.24 283.39 103.458C283.39 101.72 284.798 100.246 286.47 100.246C287.35 100.246 288.252 100.664 288.824 101.302L290.958 99.4762C289.858 98.2882 288.318 97.5402 286.492 97.5402C283.126 97.5402 280.266 100.246 280.266 103.48C280.266 106.714 283.104 109.442 286.448 109.442ZM297.162 109.442C299.956 109.442 301.804 108.012 301.804 105.768C301.804 103.282 299.604 102.622 297.646 102.116C296.106 101.698 295.468 101.522 295.468 100.906C295.468 100.268 296.128 99.8502 297.008 99.8502C298.042 99.8502 299.274 100.356 300.308 101.016L301.474 98.9482C300.22 98.1122 298.614 97.5402 297.008 97.5402C294.302 97.5402 292.564 99.0802 292.564 101.236C292.564 103.48 294.368 104.118 296.7 104.69C297.954 104.998 298.878 105.306 298.878 106.032C298.878 106.692 298.306 107.088 297.228 107.088C295.996 107.088 294.5 106.538 293.334 105.702L292.036 107.726C293.4 108.826 295.336 109.442 297.162 109.442ZM315.849 106.362C315.629 106.582 315.189 106.736 314.749 106.736C314.155 106.736 313.693 106.208 313.693 105.46V100.4H316.157V97.8042H313.693V94.6802H310.591V97.8042H309.029V100.4H310.591V105.966C310.591 108.012 311.999 109.442 314.023 109.442C314.925 109.442 315.959 109.046 316.619 108.452L315.849 106.362ZM324.111 109.442C327.521 109.442 330.315 106.758 330.315 103.48C330.315 100.202 327.521 97.5402 324.111 97.5402C320.701 97.5402 317.907 100.202 317.907 103.48C317.907 106.758 320.701 109.442 324.111 109.442ZM324.111 106.736C322.395 106.736 320.987 105.262 320.987 103.48C320.987 101.698 322.395 100.246 324.111 100.246C325.827 100.246 327.213 101.698 327.213 103.48C327.213 105.262 325.827 106.736 324.111 106.736ZM95.2994 125.54C93.8254 125.54 92.5714 126.178 91.8674 127.19V121.8H88.6554V137.178H91.8674V130.446C91.8674 129.214 92.9014 128.246 94.2434 128.246C95.5194 128.246 96.4214 129.214 96.4214 130.622V137.178H99.5014V129.94C99.5014 127.344 97.7634 125.54 95.2994 125.54ZM107.576 134.956C106.014 134.956 104.958 133.878 104.672 132.338H113.23C113.23 128.114 111.074 125.54 107.51 125.54C104.188 125.54 101.614 128.026 101.614 131.458C101.614 134.956 104.298 137.442 107.686 137.442C109.358 137.442 111.316 136.738 112.328 135.682L110.524 133.834C109.798 134.494 108.632 134.956 107.576 134.956ZM107.554 128.026C108.984 128.026 109.886 129.016 110.15 130.424H104.694C105.046 128.972 106.124 128.026 107.554 128.026ZM115.403 137.178H118.615V121.8H115.403V137.178ZM128.738 125.54C127.132 125.54 125.812 126.244 124.91 127.432V125.804H121.698V140.962H124.91V135.55C125.812 136.738 127.132 137.442 128.738 137.442C131.774 137.442 133.974 134.978 133.974 131.48C133.974 128.004 131.774 125.54 128.738 125.54ZM127.814 134.736C126.12 134.736 124.91 133.394 124.91 131.48C124.91 129.588 126.12 128.246 127.814 128.246C129.596 128.246 130.85 129.588 130.85 131.48C130.85 133.394 129.596 134.736 127.814 134.736ZM144.721 141.138C146.503 141.138 147.955 139.972 148.813 137.75L153.477 125.804H150.199L147.361 133.79L144.369 125.804H141.047L145.777 137.288L145.381 138.124C145.139 138.542 144.655 138.74 144.039 138.74C143.665 138.74 143.093 138.542 142.543 138.234L141.861 140.434C142.631 140.852 143.775 141.138 144.721 141.138ZM160.69 137.442C164.1 137.442 166.894 134.758 166.894 131.48C166.894 128.202 164.1 125.54 160.69 125.54C157.28 125.54 154.486 128.202 154.486 131.48C154.486 134.758 157.28 137.442 160.69 137.442ZM160.69 134.736C158.974 134.736 157.566 133.262 157.566 131.48C157.566 129.698 158.974 128.246 160.69 128.246C162.406 128.246 163.792 129.698 163.792 131.48C163.792 133.262 162.406 134.736 160.69 134.736ZM176.571 125.804V132.536C176.571 133.768 175.537 134.736 174.195 134.736C172.919 134.736 172.017 133.768 172.017 132.36V125.804H168.937V133.042C168.937 135.638 170.675 137.442 173.161 137.442C174.613 137.442 175.867 136.804 176.571 135.792V137.178H179.783V125.804H176.571ZM193.017 137.442C195.811 137.442 197.659 136.012 197.659 133.768C197.659 131.282 195.459 130.622 193.501 130.116C191.961 129.698 191.323 129.522 191.323 128.906C191.323 128.268 191.983 127.85 192.863 127.85C193.897 127.85 195.129 128.356 196.163 129.016L197.329 126.948C196.075 126.112 194.469 125.54 192.863 125.54C190.157 125.54 188.419 127.08 188.419 129.236C188.419 131.48 190.223 132.118 192.555 132.69C193.809 132.998 194.733 133.306 194.733 134.032C194.733 134.692 194.161 135.088 193.083 135.088C191.851 135.088 190.355 134.538 189.189 133.702L187.891 135.726C189.255 136.826 191.191 137.442 193.017 137.442ZM205.291 137.442C207.205 137.442 208.745 136.672 209.867 135.44L207.733 133.636C207.139 134.296 206.215 134.736 205.335 134.736C203.641 134.736 202.233 133.24 202.233 131.458C202.233 129.72 203.641 128.246 205.313 128.246C206.193 128.246 207.095 128.664 207.667 129.302L209.801 127.476C208.701 126.288 207.161 125.54 205.335 125.54C201.969 125.54 199.109 128.246 199.109 131.48C199.109 134.714 201.947 137.442 205.291 137.442ZM216.643 125.54C215.059 125.54 213.497 125.98 211.891 126.794L212.969 128.928C213.871 128.466 214.861 128.114 215.917 128.114C217.787 128.114 218.557 129.17 218.557 130.38V130.622C217.589 130.226 216.555 130.028 215.631 130.028C213.013 130.028 210.923 131.568 210.923 133.812C210.923 135.99 212.771 137.442 215.191 137.442C216.445 137.442 217.743 136.936 218.557 136.034V137.178H221.659V130.38C221.659 127.41 219.613 125.54 216.643 125.54ZM215.917 135.22C214.817 135.22 213.981 134.648 213.981 133.724C213.981 132.8 214.927 132.118 216.093 132.118C216.973 132.118 217.831 132.272 218.557 132.558V133.592C218.315 134.648 217.149 135.22 215.917 135.22ZM224.48 137.178H227.692V121.8H224.48V137.178ZM235.989 134.956C234.427 134.956 233.371 133.878 233.085 132.338H241.643C241.643 128.114 239.487 125.54 235.923 125.54C232.601 125.54 230.027 128.026 230.027 131.458C230.027 134.956 232.711 137.442 236.099 137.442C237.771 137.442 239.729 136.738 240.741 135.682L238.937 133.834C238.211 134.494 237.045 134.956 235.989 134.956ZM235.967 128.026C237.397 128.026 238.299 129.016 238.563 130.424H233.107C233.459 128.972 234.537 128.026 235.967 128.026ZM252.208 141.138C253.99 141.138 255.442 139.972 256.3 137.75L260.964 125.804H257.686L254.848 133.79L251.856 125.804H248.534L253.264 137.288L252.868 138.124C252.626 138.542 252.142 138.74 251.526 138.74C251.152 138.74 250.58 138.542 250.03 138.234L249.348 140.434C250.118 140.852 251.262 141.138 252.208 141.138ZM268.177 137.442C271.587 137.442 274.381 134.758 274.381 131.48C274.381 128.202 271.587 125.54 268.177 125.54C264.767 125.54 261.973 128.202 261.973 131.48C261.973 134.758 264.767 137.442 268.177 137.442ZM268.177 134.736C266.461 134.736 265.053 133.262 265.053 131.48C265.053 129.698 266.461 128.246 268.177 128.246C269.893 128.246 271.279 129.698 271.279 131.48C271.279 133.262 269.893 134.736 268.177 134.736ZM284.058 125.804V132.536C284.058 133.768 283.024 134.736 281.682 134.736C280.406 134.736 279.504 133.768 279.504 132.36V125.804H276.424V133.042C276.424 135.638 278.162 137.442 280.648 137.442C282.1 137.442 283.354 136.804 284.058 135.792V137.178H287.27V125.804H284.058ZM293.563 127.938V125.804H290.351V137.178H293.563V131.744C293.563 129.61 295.081 128.246 297.457 128.246V125.54C295.719 125.54 294.311 126.464 293.563 127.938ZM310.594 125.54C309.01 125.54 307.448 125.98 305.842 126.794L306.92 128.928C307.822 128.466 308.812 128.114 309.868 128.114C311.738 128.114 312.508 129.17 312.508 130.38V130.622C311.54 130.226 310.506 130.028 309.582 130.028C306.964 130.028 304.874 131.568 304.874 133.812C304.874 135.99 306.722 137.442 309.142 137.442C310.396 137.442 311.694 136.936 312.508 136.034V137.178H315.61V130.38C315.61 127.41 313.564 125.54 310.594 125.54ZM309.868 135.22C308.768 135.22 307.932 134.648 307.932 133.724C307.932 132.8 308.878 132.118 310.044 132.118C310.924 132.118 311.782 132.272 312.508 132.558V133.592C312.266 134.648 311.1 135.22 309.868 135.22ZM325.471 125.54C323.865 125.54 322.545 126.244 321.643 127.432V125.804H318.431V140.962H321.643V135.55C322.545 136.738 323.865 137.442 325.471 137.442C328.507 137.442 330.707 134.978 330.707 131.48C330.707 128.004 328.507 125.54 325.471 125.54ZM324.547 134.736C322.853 134.736 321.643 133.394 321.643 131.48C321.643 129.588 322.853 128.246 324.547 128.246C326.329 128.246 327.583 129.588 327.583 131.48C327.583 133.394 326.329 134.736 324.547 134.736ZM340.102 125.54C338.496 125.54 337.176 126.244 336.274 127.432V125.804H333.062V140.962H336.274V135.55C337.176 136.738 338.496 137.442 340.102 137.442C343.138 137.442 345.338 134.978 345.338 131.48C345.338 128.004 343.138 125.54 340.102 125.54ZM339.178 134.736C337.484 134.736 336.274 133.394 336.274 131.48C336.274 129.588 337.484 128.246 339.178 128.246C340.96 128.246 342.214 129.588 342.214 131.48C342.214 133.394 340.96 134.736 339.178 134.736Z" fill="#211F54"/>
<line opacity="0.2" x1="12.115" y1="50.604" x2="421.866" y2="50.604" stroke="#A0A3BD"/>
<circle cx="39.5139" cy="29.8101" r="5.48145" fill="#FF4267"/>
<circle cx="72.2336" cy="29.8101" r="5.48145" fill="#2FF2B8"/>
<circle cx="55.8738" cy="29.8101" r="5.48145" fill="#FFCD42"/>
<defs>
<filter id="filter0_d_2926_24380" x="434.866" y="0.810059" width="253.249" height="140.79" filterUnits="userSpaceOnUse" color-interpolation-filters="sRGB">
<feFlood flood-opacity="0" result="BackgroundImageFix"/>
<feColorMatrix in="SourceAlpha" type="matrix" values="0 0 0 0 0 0 0 0 0 0 0 0 0 0 0 0 0 0 127 0" result="hardAlpha"/>
<feOffset dy="3"/>
<feGaussianBlur stdDeviation="6"/>
<feComposite in2="hardAlpha" operator="out"/>
<feColorMatrix type="matrix" values="0 0 0 0 0.127552 0 0 0 0 0.123438 0 0 0 0 0.329167 0 0 0 0.04 0"/>
<feBlend mode="normal" in2="BackgroundImageFix" result="effect1_dropShadow_2926_24380"/>
<feBlend mode="normal" in="SourceGraphic" in2="effect1_dropShadow_2926_24380" result="shape"/>
</filter>
<filter id="filter1_d_2926_24380" x="434.866" y="141.011" width="253.249" height="140.79" filterUnits="userSpaceOnUse" color-interpolation-filters="sRGB">
<feFlood flood-opacity="0" result="BackgroundImageFix"/>
<feColorMatrix in="SourceAlpha" type="matrix" values="0 0 0 0 0 0 0 0 0 0 0 0 0 0 0 0 0 0 127 0" result="hardAlpha"/>
<feOffset dy="3"/>
<feGaussianBlur stdDeviation="6"/>
<feComposite in2="hardAlpha" operator="out"/>
<feColorMatrix type="matrix" values="0 0 0 0 0.127552 0 0 0 0 0.123438 0 0 0 0 0.329167 0 0 0 0.04 0"/>
<feBlend mode="normal" in2="BackgroundImageFix" result="effect1_dropShadow_2926_24380"/>
<feBlend mode="normal" in="SourceGraphic" in2="effect1_dropShadow_2926_24380" result="shape"/>
</filter>
<filter id="filter2_d_2926_24380" x="434.866" y="281.213" width="253.249" height="140.79" filterUnits="userSpaceOnUse" color-interpolation-filters="sRGB">
<feFlood flood-opacity="0" result="BackgroundImageFix"/>
<feColorMatrix in="SourceAlpha" type="matrix" values="0 0 0 0 0 0 0 0 0 0 0 0 0 0 0 0 0 0 127 0" result="hardAlpha"/>
<feOffset dy="3"/>
<feGaussianBlur stdDeviation="6"/>
<feComposite in2="hardAlpha" operator="out"/>
<feColorMatrix type="matrix" values="0 0 0 0 0.127552 0 0 0 0 0.123438 0 0 0 0 0.329167 0 0 0 0.04 0"/>
<feBlend mode="normal" in2="BackgroundImageFix" result="effect1_dropShadow_2926_24380"/>
<feBlend mode="normal" in="SourceGraphic" in2="effect1_dropShadow_2926_24380" result="shape"/>
</filter>
<filter id="filter3_d_2926_24380" x="0.11499" y="0.810059" width="433.751" height="421.192" filterUnits="userSpaceOnUse" color-interpolation-filters="sRGB">
<feFlood flood-opacity="0" result="BackgroundImageFix"/>
<feColorMatrix in="SourceAlpha" type="matrix" values="0 0 0 0 0 0 0 0 0 0 0 0 0 0 0 0 0 0 127 0" result="hardAlpha"/>
<feOffset dy="3"/>
<feGaussianBlur stdDeviation="6"/>
<feComposite in2="hardAlpha" operator="out"/>
<feColorMatrix type="matrix" values="0 0 0 0 0.127552 0 0 0 0 0.123438 0 0 0 0 0.329167 0 0 0 0.04 0"/>
<feBlend mode="normal" in2="BackgroundImageFix" result="effect1_dropShadow_2926_24380"/>
<feBlend mode="normal" in="SourceGraphic" in2="effect1_dropShadow_2926_24380" result="shape"/>
</filter>
<filter id="filter4_d_2926_24380" x="26.3464" y="154.992" width="195.423" height="181.325" filterUnits="userSpaceOnUse" color-interpolation-filters="sRGB">
<feFlood flood-opacity="0" result="BackgroundImageFix"/>
<feColorMatrix in="SourceAlpha" type="matrix" values="0 0 0 0 0 0 0 0 0 0 0 0 0 0 0 0 0 0 127 0" result="hardAlpha"/>
<feOffset dy="3"/>
<feGaussianBlur stdDeviation="6"/>
<feComposite in2="hardAlpha" operator="out"/>
<feColorMatrix type="matrix" values="0 0 0 0 0.127552 0 0 0 0 0.123438 0 0 0 0 0.329167 0 0 0 0.05 0"/>
<feBlend mode="normal" in2="BackgroundImageFix" result="effect1_dropShadow_2926_24380"/>
<feBlend mode="normal" in="SourceGraphic" in2="effect1_dropShadow_2926_24380" result="shape"/>
</filter>
<filter id="filter5_d_2926_24380" x="212.212" y="154.992" width="195.423" height="181.325" filterUnits="userSpaceOnUse" color-interpolation-filters="sRGB">
<feFlood flood-opacity="0" result="BackgroundImageFix"/>
<feColorMatrix in="SourceAlpha" type="matrix" values="0 0 0 0 0 0 0 0 0 0 0 0 0 0 0 0 0 0 127 0" result="hardAlpha"/>
<feOffset dy="3"/>
<feGaussianBlur stdDeviation="6"/>
<feComposite in2="hardAlpha" operator="out"/>
<feColorMatrix type="matrix" values="0 0 0 0 0.127552 0 0 0 0 0.123438 0 0 0 0 0.329167 0 0 0 0.05 0"/>
<feBlend mode="normal" in2="BackgroundImageFix" result="effect1_dropShadow_2926_24380"/>
<feBlend mode="normal" in="SourceGraphic" in2="effect1_dropShadow_2926_24380" result="shape"/>
</filter>
<linearGradient id="paint0_linear_2926_24380" x1="308.564" y1="175.153" x2="308.564" y2="295.132" gradientUnits="userSpaceOnUse">
<stop stop-color="#7D42FB"/>
<stop offset="1" stop-color="#7D42FB" stop-opacity="0"/>
</linearGradient>
</defs>
</svg>
