<svg width="54" height="54" viewBox="0 0 54 54" fill="none" xmlns="http://www.w3.org/2000/svg">
<rect width="54" height="54" rx="16" fill="#FF4267"/>
<path fill-rule="evenodd" clip-rule="evenodd" d="M42.7114 21.8648C42.7313 22.6108 42.385 23.3418 41.7872 23.848C40.8913 24.6073 40.3219 25.733 40.3219 27.0001C40.3219 27.2999 40.3585 27.5896 40.4184 27.8693C40.4817 28.1458 40.5716 28.4122 40.6849 28.6653H40.6832C40.938 29.2398 41.3126 29.7493 41.7872 30.1523C42.5848 30.8283 42.9345 31.9007 42.5648 32.8798C41.9204 34.5882 41.0046 36.1634 39.8656 37.5505C39.2279 38.3281 38.1538 38.6279 37.2147 38.2665C36.0907 37.8303 34.7902 37.8852 33.6613 38.5363C32.529 39.1907 31.8296 40.2947 31.6464 41.4919C31.4966 42.471 30.7206 43.2537 29.7432 43.4202C28.8507 43.5717 27.9348 43.6516 27.0007 43.6516C26.0665 43.6516 25.1507 43.5717 24.2582 43.4202C23.2807 43.2537 22.5048 42.471 22.3549 41.4919C22.1717 40.2947 21.4724 39.1907 20.3401 38.5363C19.2111 37.8852 17.9106 37.8303 16.7866 38.2665C15.8475 38.6279 14.7735 38.3281 14.1357 37.5505C12.9968 36.1634 12.0809 34.5882 11.4365 32.8798C11.0668 31.9007 11.4165 30.8283 12.2141 30.1523C12.6887 29.7493 13.0634 29.2398 13.3181 28.6653H13.3165C13.4297 28.4122 13.5196 28.1458 13.5829 27.8693C13.6428 27.5896 13.6795 27.2999 13.6795 27.0001C13.6795 25.733 13.11 24.6073 12.2141 23.848C11.6163 23.3418 11.27 22.6108 11.29 21.8648C11.2966 21.6167 11.3433 21.3653 11.4365 21.1205C11.9993 19.6285 12.7786 18.2481 13.7228 16.9959C13.7735 16.9292 13.8232 16.8619 13.8728 16.7946C13.9582 16.6788 14.0434 16.5631 14.1341 16.4514C14.1341 16.4497 14.1357 16.4497 14.1357 16.4497C14.7735 15.6721 15.8475 15.3724 16.7866 15.7337C17.9106 16.17 19.2111 16.115 20.3401 15.464C21.4724 14.8096 22.1717 13.7056 22.3549 12.5083C22.4298 12.0188 22.6613 11.5775 22.996 11.2395C23.3307 10.8998 23.7686 10.6633 24.2582 10.5801C25.1507 10.4286 26.0665 10.3486 27.0007 10.3486C27.9348 10.3486 28.8507 10.4286 29.7432 10.5801C30.2327 10.6633 30.6707 10.9015 31.0054 11.2395C31.34 11.5775 31.5715 12.0188 31.6464 12.5083C31.8296 13.7056 32.529 14.8096 33.6613 15.464C34.7902 16.115 36.0907 16.17 37.2147 15.7337C38.1538 15.3724 39.2279 15.6721 39.8656 16.4497C39.8656 16.4514 39.8673 16.4514 39.8673 16.4514C39.9862 16.5967 40.0972 16.748 40.2086 16.8998C40.2517 16.9585 40.2949 17.0173 40.3385 17.0758C41.256 18.3064 42.0137 19.6618 42.5648 21.1205C42.6581 21.3653 42.7047 21.615 42.7114 21.8648ZM22.8406 33.6606C22.1079 33.6606 21.3819 33.3409 20.889 32.7248L17.5587 28.5619C16.8294 27.6494 16.8294 26.3523 17.5587 25.4398L20.889 21.2769C21.7516 20.2012 23.3251 20.0264 24.3992 20.8889C25.4765 21.7515 25.6513 23.3217 24.7888 24.3991L22.7074 27L24.7888 29.601C25.6513 30.6784 25.4765 32.2503 24.3992 33.1111C23.9396 33.4825 23.3884 33.6606 22.8406 33.6606ZM31.1642 33.6609C30.6163 33.6609 30.0652 33.4827 29.6056 33.113C28.5282 32.2505 28.3534 30.6803 29.216 29.6029L31.2974 27.0003L29.216 24.3993C28.3534 23.322 28.5282 21.7501 29.6056 20.8892C30.683 20.0283 32.2549 20.2031 33.1157 21.2772L36.446 25.44C37.1754 26.3525 37.1754 27.6497 36.446 28.5622L33.1157 32.7251C32.6229 33.3412 31.8968 33.6609 31.1642 33.6609Z" fill="white"/>
<g opacity="0.35">
<path d="M20.889 32.7248C21.3819 33.3409 22.1079 33.6606 22.8406 33.6606C23.3884 33.6606 23.9396 33.4825 24.3992 33.1111C25.4765 32.2503 25.6513 30.6784 24.7888 29.601L22.7074 27L24.7888 24.3991C25.6513 23.3217 25.4765 21.7515 24.3992 20.8889C23.3251 20.0264 21.7516 20.2012 20.889 21.2769L17.5587 25.4398C16.8294 26.3523 16.8294 27.6494 17.5587 28.5619L20.889 32.7248Z" fill="white"/>
<path d="M29.6056 33.113C30.0652 33.4827 30.6163 33.6609 31.1642 33.6609C31.8968 33.6609 32.6229 33.3412 33.1157 32.7251L36.446 28.5622C37.1754 27.6497 37.1754 26.3525 36.446 25.44L33.1157 21.2772C32.2549 20.2031 30.683 20.0283 29.6056 20.8892C28.5282 21.7501 28.3534 23.322 29.216 24.3993L31.2974 27.0003L29.216 29.6029C28.3534 30.6803 28.5282 32.2505 29.6056 33.113Z" fill="white"/>
</g>
</svg>
