<svg width="68" height="68" viewBox="0 0 68 68" fill="none" xmlns="http://www.w3.org/2000/svg">
<rect width="68" height="68" rx="16" fill="#5A69EA"/>
<path fill-rule="evenodd" clip-rule="evenodd" d="M41.1835 45.4881C42.2002 46.7758 43.4201 48.233 43.4201 48.233C50.9091 47.9958 53.7895 43.0821 53.7895 43.0821C53.7895 32.1705 48.9098 23.326 48.9098 23.326C44.0301 19.6662 39.3875 19.7679 39.3875 19.7679L38.9131 20.3101C44.6739 22.0722 47.351 24.6137 47.351 24.6137C43.8267 22.6821 40.3703 21.7333 37.151 21.3606C34.7111 21.0895 32.3729 21.1572 30.3058 21.4283C30.1283 21.4283 29.9766 21.4541 29.8057 21.4833C29.7808 21.4875 29.7556 21.4918 29.7297 21.4961C28.5437 21.5978 25.6633 22.0383 22.0374 23.631C20.7836 24.2071 20.038 24.6137 20.038 24.6137C20.038 24.6137 22.8507 21.9366 28.9503 20.1745L28.6115 19.7679C28.6115 19.7679 23.9689 19.6662 19.0892 23.326C19.0892 23.326 14.2095 32.1705 14.2095 43.0821C14.2095 43.0821 17.056 47.9958 24.545 48.233C24.545 48.233 25.7988 46.7081 26.8154 45.4203C22.5118 44.1326 20.8852 41.4217 20.8852 41.4217C20.8852 41.4217 21.2241 41.6589 21.8341 41.9978C21.8679 42.0316 21.9018 42.0655 21.9696 42.0994C22.0204 42.1333 22.0713 42.1587 22.1221 42.1841C22.1729 42.2095 22.2238 42.235 22.2746 42.2689C23.1218 42.7433 23.9689 43.116 24.7483 43.421C26.1377 43.9632 27.7982 44.5054 29.7297 44.8782C32.2713 45.3526 35.2533 45.522 38.5065 44.912C40.0992 44.6409 41.7257 44.1665 43.4201 43.4549C44.6061 43.0144 45.9277 42.3705 47.3171 41.4556C47.3171 41.4556 45.6228 44.2343 41.1835 45.4881ZM27.6633 32.4077C25.7318 32.4077 24.2068 34.1021 24.2068 36.1692C24.2068 38.2363 25.7657 39.9307 27.6633 39.9307C29.5949 39.9307 31.1198 38.2363 31.1198 36.1692C31.1537 34.1021 29.5949 32.4077 27.6633 32.4077ZM40.0321 32.4077C38.1005 32.4077 36.5756 34.1021 36.5756 36.1692C36.5756 38.2363 38.1344 39.9307 40.0321 39.9307C41.9637 39.9307 43.4886 38.2363 43.4886 36.1692C43.4886 34.1021 41.9637 32.4077 40.0321 32.4077Z" fill="white"/>
</svg>
