<svg width="202" height="40" viewBox="0 0 202 40" fill="none" xmlns="http://www.w3.org/2000/svg">
<g clip-path="url(#clip0_2944_28028)">
<path d="M42.7693 3.7315C39.5011 2.20236 36.0065 1.09105 32.353 0.458252C31.9043 1.26947 31.3801 2.36058 31.0187 3.22855C27.1349 2.64448 23.2869 2.64448 19.4745 3.22855C19.1132 2.36058 18.5771 1.26947 18.1244 0.458252C14.4669 1.09105 10.9683 2.20645 7.70004 3.7396C1.10791 13.7012 -0.679106 23.4153 0.214405 32.9915C4.58665 36.2566 8.82388 38.24 12.9896 39.538C14.0181 38.1224 14.9355 36.6176 15.7257 35.0317C14.2207 34.4598 12.7791 33.7541 11.4171 32.9348C11.7784 32.6671 12.1319 32.3872 12.4734 32.0992C20.781 35.9849 29.8075 35.9849 38.0159 32.0992C38.3614 32.3872 38.7148 32.6671 39.0722 32.9348C37.7061 33.7581 36.2606 34.4638 34.7556 35.0358C35.5458 36.6176 36.4592 38.1265 37.4917 39.542C41.6614 38.2441 45.9026 36.2607 50.2748 32.9915C51.3232 21.8903 48.4838 12.2653 42.7693 3.7315ZM16.8575 27.1022C14.3636 27.1022 12.3185 24.7741 12.3185 21.9389C12.3185 19.1038 14.32 16.7716 16.8575 16.7716C19.3951 16.7716 21.4402 19.0997 21.3966 21.9389C21.4005 24.7741 19.3951 27.1022 16.8575 27.1022ZM33.6317 27.1022C31.1378 27.1022 29.0927 24.7741 29.0927 21.9389C29.0927 19.1038 31.0941 16.7716 33.6317 16.7716C36.1693 16.7716 38.2144 19.0997 38.1708 21.9389C38.1708 24.7741 36.1693 27.1022 33.6317 27.1022Z" fill="#5865F2"/>
<path d="M67.8496 10.4286H78.6906C81.304 10.4286 83.5118 10.8463 85.323 11.6778C87.1294 12.5093 88.4839 13.6693 89.3816 15.1538C90.2785 16.6383 90.7312 18.3378 90.7312 20.2522C90.7312 22.1261 90.2626 23.8256 89.3255 25.3465C88.3884 26.8716 86.9626 28.0763 85.0448 28.9645C83.127 29.8528 80.7517 30.2989 77.9126 30.2989H67.8496V10.4286ZM77.8012 25.2492C79.5605 25.2492 80.915 24.799 81.8597 23.9026C82.8052 23.0022 83.2779 21.7773 83.2779 20.2238C83.2779 18.7839 82.8564 17.6361 82.0148 16.7762C81.1732 15.9163 79.8983 15.4824 78.1943 15.4824H74.803V25.2492H77.8012Z" fill="#5865F2"/>
<path d="M106.959 30.275C105.458 29.8775 104.103 29.3015 102.9 28.543V23.83C103.81 24.5478 105.029 25.1401 106.557 25.6065C108.086 26.0689 109.564 26.3001 110.993 26.3001C111.66 26.3001 112.165 26.2108 112.506 26.0323C112.848 25.8539 113.019 25.639 113.019 25.3915C113.019 25.1076 112.928 24.8724 112.741 24.6817C112.554 24.4911 112.193 24.3329 111.657 24.199L108.321 23.4324C106.411 22.9782 105.056 22.3495 104.251 21.5424C103.444 20.7392 103.043 19.6847 103.043 18.3787C103.043 17.2795 103.392 16.3264 104.1 15.5111C104.802 14.6958 105.803 14.0671 107.101 13.625C108.401 13.1789 109.917 12.9558 111.66 12.9558C113.217 12.9558 114.643 13.1261 115.942 13.4669C117.24 13.8076 118.312 14.2415 119.166 14.7729V19.2305C118.292 18.6991 117.291 18.2814 116.148 17.9649C115.008 17.6527 113.837 17.4985 112.629 17.4985C110.886 17.4985 110.017 17.8027 110.017 18.4071C110.017 18.691 110.152 18.9019 110.422 19.0439C110.691 19.1858 111.188 19.3318 111.907 19.486L114.686 19.997C116.502 20.3175 117.855 20.8813 118.745 21.6843C119.635 22.4874 120.079 23.6759 120.079 25.2496C120.079 26.9733 119.345 28.3402 117.871 29.3543C116.398 30.3683 114.309 30.8752 111.601 30.8752C110.008 30.8712 108.46 30.6724 106.959 30.275Z" fill="#5865F2"/>
<path d="M126.642 29.6785C125.05 28.8835 123.846 27.8046 123.044 26.4418C122.242 25.0789 121.837 23.5458 121.837 21.8422C121.837 20.1388 122.254 18.6137 123.088 17.2711C123.922 15.9286 125.145 14.874 126.757 14.1075C128.369 13.3409 130.295 12.9596 132.539 12.9596C135.318 12.9596 137.626 13.5558 139.461 14.7483V19.9441C138.814 19.4898 138.059 19.1207 137.197 18.8368C136.335 18.5529 135.414 18.4108 134.429 18.4108C132.706 18.4108 131.36 18.7313 130.387 19.3762C129.413 20.0211 128.925 20.8607 128.925 21.9031C128.925 22.9252 129.398 23.7608 130.343 24.4178C131.288 25.0708 132.658 25.3994 134.457 25.3994C135.382 25.3994 136.296 25.2615 137.197 24.9897C138.095 24.7139 138.869 24.3773 139.516 23.9797V29.0051C137.479 30.2544 135.116 30.879 132.428 30.879C130.164 30.8709 128.234 30.4734 126.642 29.6785Z" fill="#5865F2"/>
<path d="M146.392 29.6786C144.788 28.8837 143.565 27.7967 142.723 26.4136C141.881 25.0305 141.456 23.4892 141.456 21.7856C141.456 20.0822 141.877 18.5611 142.723 17.2267C143.568 15.8923 144.784 14.8458 146.38 14.0873C147.972 13.3289 149.875 12.9517 152.079 12.9517C154.283 12.9517 156.185 13.3289 157.777 14.0873C159.37 14.8458 160.585 15.8842 161.419 17.2105C162.253 18.5368 162.67 20.0578 162.67 21.7816C162.67 23.4851 162.253 25.0264 161.419 26.4095C160.585 27.7926 159.366 28.8796 157.761 29.6746C156.157 30.4696 154.263 30.8671 152.075 30.8671C149.887 30.8671 147.992 30.4736 146.392 29.6786ZM154.839 24.6411C155.514 23.9516 155.855 23.039 155.855 21.9033C155.855 20.7676 155.518 19.8631 154.839 19.1938C154.164 18.5206 153.242 18.1839 152.075 18.1839C150.887 18.1839 149.958 18.5206 149.279 19.1938C148.604 19.8672 148.266 20.7676 148.266 21.9033C148.266 23.039 148.604 23.9516 149.279 24.6411C149.954 25.3306 150.887 25.6794 152.075 25.6794C153.242 25.6754 154.164 25.3306 154.839 24.6411Z" fill="#5865F2"/>
<path d="M179.375 14.006V20.1387C178.669 19.6641 177.755 19.4288 176.624 19.4288C175.142 19.4288 173.998 19.8872 173.204 20.8038C172.406 21.7205 172.009 23.1482 172.009 25.0789V30.303H165.198V13.6937H171.87V18.9746C172.239 17.0439 172.839 15.6203 173.665 14.6995C174.487 13.7829 175.551 13.3246 176.846 13.3246C177.826 13.3246 178.669 13.5517 179.375 14.006Z" fill="#5865F2"/>
<path d="M202.001 9.86084V30.3031H195.19V26.5838C194.614 27.9831 193.74 29.0499 192.565 29.7799C191.389 30.506 189.936 30.871 188.212 30.871C186.672 30.871 185.33 30.4897 184.182 29.7231C183.034 28.9566 182.149 27.9061 181.525 26.5716C180.906 25.2372 180.592 23.7284 180.592 22.0411C180.572 20.3011 180.902 18.7395 181.581 17.3564C182.256 15.9733 183.213 14.8944 184.444 14.1197C185.675 13.345 187.081 12.9556 188.657 12.9556C191.902 12.9556 194.078 14.3955 195.19 17.2712V9.86084H202.001ZM194.174 24.5274C194.868 23.8379 195.214 22.9415 195.214 21.8464C195.214 20.7878 194.876 19.9238 194.201 19.2627C193.526 18.6016 192.6 18.269 191.437 18.269C190.289 18.269 189.372 18.6056 188.685 19.2789C187.998 19.9522 187.657 20.8242 187.657 21.9032C187.657 22.9821 187.998 23.8622 188.685 24.5436C189.372 25.225 190.278 25.5657 191.409 25.5657C192.557 25.5617 193.478 25.2169 194.174 24.5274Z" fill="#5865F2"/>
<path d="M96.4658 15.4622C98.3407 15.4622 99.8613 14.0675 99.8613 12.3471C99.8613 10.6268 98.3407 9.23218 96.4658 9.23218C94.5902 9.23218 93.0703 10.6268 93.0703 12.3471C93.0703 14.0675 94.5902 15.4622 96.4658 15.4622Z" fill="#5865F2"/>
<path d="M93.0703 17.6079C95.1508 18.5245 97.7324 18.5651 99.8606 17.6079V30.3924H93.0703V17.6079Z" fill="#5865F2"/>
</g>
<defs>
<clipPath id="clip0_2944_28028">
<rect width="202" height="40" fill="white"/>
</clipPath>
</defs>
</svg>
