<svg width="36" height="36" viewBox="0 0 36 36" fill="none" xmlns="http://www.w3.org/2000/svg">
<rect width="36" height="36" rx="6.37765" fill="#7D42FB"/>
<path opacity="0.35" d="M10.7188 26.3212H25.2801C27.0035 26.3212 28.4004 24.9243 28.4004 23.2009V12.8C28.4004 11.0765 27.0035 9.67969 25.2801 9.67969H10.7188C8.99539 9.67969 7.59855 11.0765 7.59855 12.8V23.2009C7.59855 24.9243 8.99539 26.3212 10.7188 26.3212Z" fill="white"/>
<path d="M20.14 17.756L28.4004 12.8C28.4004 11.0765 27.0035 9.67969 25.2801 9.67969H10.7188C8.99539 9.67969 7.59855 11.0765 7.59855 12.8L15.859 17.756C17.1768 18.5465 18.8222 18.5465 20.14 17.756Z" fill="white"/>
</svg>
