<svg width="62" height="62" viewBox="0 0 62 62" fill="none" xmlns="http://www.w3.org/2000/svg">
<rect width="62" height="62" rx="14" fill="#1DE4FF"/>
<path opacity="0.7" d="M49.2836 38.1382C49.2836 43.2393 45.1882 47.3713 40.0871 47.3896H40.0688H21.9499C16.8671 47.3896 12.7168 43.2758 12.7168 38.1748V38.1565C12.7168 38.1565 12.7278 30.0642 12.7424 25.9944C12.7442 25.2301 13.6218 24.8023 14.2197 25.2776C18.5638 28.7241 26.3325 35.0081 26.4294 35.0904C27.7275 36.1307 29.373 36.7176 31.0551 36.7176C32.7371 36.7176 34.3827 36.1307 35.6808 35.0702C35.7777 35.0063 43.3726 28.9106 47.7826 25.4075C48.3823 24.9303 49.2635 25.3581 49.2654 26.1205C49.2836 30.1593 49.2836 38.1382 49.2836 38.1382" fill="white"/>
<path d="M48.3258 19.3695C46.7424 16.3856 43.6269 14.4805 40.197 14.4805H21.9501C18.5201 14.4805 15.4046 16.3856 13.8213 19.3695C13.4666 20.0368 13.6348 20.8687 14.2254 21.3404L27.8008 32.1989C28.7515 32.9668 29.9034 33.349 31.0552 33.349C31.0626 33.349 31.068 33.349 31.0735 33.349C31.079 33.349 31.0863 33.349 31.0918 33.349C32.2437 33.349 33.3955 32.9668 34.3463 32.1989L47.9217 21.3404C48.5123 20.8687 48.6805 20.0368 48.3258 19.3695" fill="white"/>
</svg>
