<svg width="54" height="54" viewBox="0 0 54 54" fill="none" xmlns="http://www.w3.org/2000/svg">
<rect width="54" height="54" rx="16" fill="#7D42FB"/>
<path d="M18 22.5C18 20.0147 20.0147 18 22.5 18H31.5C33.9853 18 36 20.0147 36 22.5V31.5C36 33.9853 33.9853 36 31.5 36H22.5C20.0147 36 18 33.9853 18 31.5V22.5Z" fill="white"/>
<path opacity="0.5" fill-rule="evenodd" clip-rule="evenodd" d="M11.25 33C11.25 32.1716 11.9216 31.5 12.75 31.5H14.25C15.0784 31.5 15.75 32.1716 15.75 33C15.75 33.8284 15.0784 34.5 14.25 34.5H12.75C11.9216 34.5 11.25 33.8284 11.25 33Z" fill="white"/>
<path opacity="0.5" fill-rule="evenodd" clip-rule="evenodd" d="M38.25 33C38.25 32.1716 38.9216 31.5 39.75 31.5H41.25C42.0784 31.5 42.75 32.1716 42.75 33C42.75 33.8284 42.0784 34.5 41.25 34.5H39.75C38.9216 34.5 38.25 33.8284 38.25 33Z" fill="white"/>
<path opacity="0.5" fill-rule="evenodd" clip-rule="evenodd" d="M11.25 27C11.25 26.1716 11.9216 25.5 12.75 25.5H14.25C15.0784 25.5 15.75 26.1716 15.75 27C15.75 27.8284 15.0784 28.5 14.25 28.5H12.75C11.9216 28.5 11.25 27.8284 11.25 27Z" fill="white"/>
<path opacity="0.5" fill-rule="evenodd" clip-rule="evenodd" d="M38.25 27C38.25 26.1716 38.9216 25.5 39.75 25.5H41.25C42.0784 25.5 42.75 26.1716 42.75 27C42.75 27.8284 42.0784 28.5 41.25 28.5H39.75C38.9216 28.5 38.25 27.8284 38.25 27Z" fill="white"/>
<path opacity="0.5" fill-rule="evenodd" clip-rule="evenodd" d="M11.25 21C11.25 20.1716 11.9216 19.5 12.75 19.5H14.25C15.0784 19.5 15.75 20.1716 15.75 21C15.75 21.8284 15.0784 22.5 14.25 22.5H12.75C11.9216 22.5 11.25 21.8284 11.25 21Z" fill="white"/>
<path opacity="0.5" fill-rule="evenodd" clip-rule="evenodd" d="M38.25 21C38.25 20.1716 38.9216 19.5 39.75 19.5H41.25C42.0784 19.5 42.75 20.1716 42.75 21C42.75 21.8284 42.0784 22.5 41.25 22.5H39.75C38.9216 22.5 38.25 21.8284 38.25 21Z" fill="white"/>
<path opacity="0.5" fill-rule="evenodd" clip-rule="evenodd" d="M33 11.25C33.8284 11.25 34.5 11.9216 34.5 12.75V14.25C34.5 15.0784 33.8284 15.75 33 15.75C32.1716 15.75 31.5 15.0784 31.5 14.25V12.75C31.5 11.9216 32.1716 11.25 33 11.25Z" fill="white"/>
<path opacity="0.5" fill-rule="evenodd" clip-rule="evenodd" d="M33 38.25C33.8284 38.25 34.5 38.9216 34.5 39.75V41.25C34.5 42.0784 33.8284 42.75 33 42.75C32.1716 42.75 31.5 42.0784 31.5 41.25V39.75C31.5 38.9216 32.1716 38.25 33 38.25Z" fill="white"/>
<path opacity="0.5" fill-rule="evenodd" clip-rule="evenodd" d="M27 11.25C27.8284 11.25 28.5 11.9216 28.5 12.75V14.25C28.5 15.0784 27.8284 15.75 27 15.75C26.1716 15.75 25.5 15.0784 25.5 14.25V12.75C25.5 11.9216 26.1716 11.25 27 11.25Z" fill="white"/>
<path opacity="0.5" fill-rule="evenodd" clip-rule="evenodd" d="M27 38.25C27.8284 38.25 28.5 38.9216 28.5 39.75V41.25C28.5 42.0784 27.8284 42.75 27 42.75C26.1716 42.75 25.5 42.0784 25.5 41.25V39.75C25.5 38.9216 26.1716 38.25 27 38.25Z" fill="white"/>
<path opacity="0.5" fill-rule="evenodd" clip-rule="evenodd" d="M21 11.25C21.8284 11.25 22.5 11.9216 22.5 12.75V14.25C22.5 15.0784 21.8284 15.75 21 15.75C20.1716 15.75 19.5 15.0784 19.5 14.25V12.75C19.5 11.9216 20.1716 11.25 21 11.25Z" fill="white"/>
<path opacity="0.5" fill-rule="evenodd" clip-rule="evenodd" d="M21 38.25C21.8284 38.25 22.5 38.9216 22.5 39.75V41.25C22.5 42.0784 21.8284 42.75 21 42.75C20.1716 42.75 19.5 42.0784 19.5 41.25V39.75C19.5 38.9216 20.1716 38.25 21 38.25Z" fill="white"/>
</svg>
