<svg width="688" height="422" viewBox="0 0 688 422" fill="none" xmlns="http://www.w3.org/2000/svg">
<g filter="url(#filter0_d_2926_24378)">
<rect x="12" y="9.39258" width="409.751" height="397.192" rx="25" fill="white"/>
<rect x="12.5" y="9.89258" width="408.751" height="396.192" rx="24.5" stroke="#EFF0F7"/>
</g>
<line opacity="0.2" x1="86.793" y1="60.2305" x2="86.793" y2="406.5" stroke="#A0A3BD"/>
<line opacity="0.2" x1="12" y1="59.7305" x2="421.751" y2="59.7304" stroke="#A0A3BD"/>
<path d="M55.2282 98.0156H56.9782V88.3976H55.5782L52.8762 90.2316L53.5762 91.4636L55.2282 90.4136V98.0156ZM50.4615 122.016H57.5315V120.42H53.1775L55.1935 118.796C56.8455 117.522 57.4335 116.5 57.4335 115.226C57.4335 113.448 55.9775 112.23 54.0735 112.23C52.5195 112.23 51.3575 112.916 50.4475 114.106L51.5815 115.156C52.2815 114.316 53.0095 113.798 54.0175 113.798C54.8855 113.798 55.6555 114.358 55.6555 115.268C55.6555 116.052 55.2215 116.78 54.0035 117.76L50.4615 120.588V122.016ZM53.9231 146.184C56.0791 146.184 57.5071 145.008 57.5071 143.356C57.5071 142.054 56.4991 141.312 55.4771 141.074C56.4991 140.766 57.2971 140.01 57.2971 138.848C57.2971 137.322 55.9391 136.23 53.8811 136.23C52.2431 136.23 51.1231 136.958 50.3531 137.924L51.3891 138.988C52.0471 138.26 52.7751 137.798 53.7411 137.798C54.7771 137.798 55.5191 138.344 55.5191 139.128C55.5191 139.968 54.7771 140.43 53.6431 140.416H52.5651V141.928L53.6431 141.914C55.0151 141.914 55.7151 142.362 55.7151 143.216C55.7151 144.056 55.0151 144.63 53.8531 144.63C52.8171 144.63 51.8931 144.168 51.2351 143.412L50.1711 144.56C50.9551 145.498 52.2291 146.184 53.9231 146.184ZM54.7706 170.016H56.5206V167.93H57.8506V166.432H56.5206V160.398H54.4206L49.8706 166.572L50.0386 167.93H54.7706V170.016ZM51.7326 166.432L54.7706 162.302V166.432H51.7326ZM53.9114 194.184C56.1094 194.184 57.6074 192.896 57.6074 190.908C57.6074 188.976 56.1374 187.884 54.4294 187.884C53.6034 187.884 52.9734 188.136 52.4834 188.472L52.5674 185.994H57.0754V184.398H50.9294L50.7894 189.508L51.9794 190.012C52.5254 189.592 53.1834 189.34 53.9394 189.34C55.0874 189.34 55.8574 189.998 55.8574 190.978C55.8574 191.916 55.1014 192.672 53.9394 192.672C52.9734 192.672 52.0774 192.182 51.3494 191.454L50.3134 192.7C51.1674 193.596 52.3434 194.184 53.9114 194.184ZM54.4093 211.87C53.4293 211.87 52.5193 212.276 51.9173 212.948C52.0433 211.072 52.9953 209.77 54.3533 209.77C55.1933 209.77 55.7953 210.12 56.3833 210.638L57.2373 209.308C56.4673 208.65 55.5573 208.23 54.3533 208.23C51.8613 208.23 50.1113 210.4 50.1113 213.368C50.1113 216.14 51.3153 218.184 54.0593 218.184C56.1313 218.184 57.6433 216.812 57.6433 214.908C57.6433 212.99 56.1733 211.87 54.4093 211.87ZM53.9753 216.7C52.8133 216.7 52.2113 215.902 52.0013 214.614C52.2813 213.816 53.0093 213.298 53.9473 213.298C54.9973 213.298 55.8653 213.928 55.8653 214.978C55.8653 215.86 55.1513 216.7 53.9753 216.7ZM51.8891 242.016H53.8771L57.8391 233.714V232.398H50.8951V233.994H55.8091L51.8891 242.016ZM53.7936 266.184C55.8656 266.184 57.5456 265.176 57.5456 263.454C57.5456 262.32 56.7196 261.48 55.5856 261.046C56.5516 260.654 57.2936 259.94 57.2936 258.82C57.2936 257.196 55.6556 256.23 53.7936 256.23C51.9876 256.23 50.3076 257.168 50.3076 258.82C50.3076 259.912 51.0216 260.626 52.0156 261.046C50.8956 261.452 50.0556 262.292 50.0556 263.454C50.0556 265.162 51.7076 266.184 53.7936 266.184ZM53.7936 260.416C52.9956 260.374 52.0296 259.898 52.0296 259.044C52.0296 258.288 52.7856 257.714 53.7936 257.714C54.8016 257.714 55.5716 258.288 55.5716 259.044C55.5716 259.884 54.6196 260.374 53.7936 260.416ZM53.7936 264.686C52.6596 264.686 51.8056 264.126 51.8056 263.286C51.8056 262.39 52.9116 261.858 53.7936 261.816C54.6896 261.858 55.7816 262.39 55.7816 263.286C55.7816 264.126 54.9136 264.686 53.7936 264.686ZM53.5553 280.23C51.4833 280.23 49.9713 281.602 49.9713 283.506C49.9713 285.424 51.4413 286.544 53.2053 286.544C54.1853 286.544 55.0953 286.138 55.6973 285.466C55.5713 287.342 54.6193 288.644 53.2613 288.644C52.4213 288.644 51.8193 288.294 51.2313 287.776L50.3773 289.106C51.1473 289.764 52.0573 290.184 53.2613 290.184C55.7533 290.184 57.5033 288.014 57.5033 285.046C57.5033 282.274 56.2993 280.23 53.5553 280.23ZM53.6673 285.116C52.6173 285.116 51.7493 284.486 51.7493 283.436C51.7493 282.554 52.4633 281.714 53.6393 281.714C54.8013 281.714 55.4033 282.512 55.6133 283.8C55.3333 284.598 54.6053 285.116 53.6673 285.116ZM45.3434 314.016H47.0934V304.398H45.6934L42.9914 306.232L43.6914 307.464L45.3434 306.414V314.016ZM53.3129 314.184C55.7769 314.184 57.5269 312.126 57.5269 309.2C57.5269 306.288 55.7769 304.23 53.3129 304.23C50.8349 304.23 49.0989 306.288 49.0989 309.2C49.0989 312.126 50.8349 314.184 53.3129 314.184ZM53.3129 312.588C51.8849 312.588 50.8769 311.188 50.8769 309.2C50.8769 307.212 51.8849 305.826 53.3129 305.826C54.7409 305.826 55.7349 307.212 55.7349 309.2C55.7349 311.188 54.7409 312.588 53.3129 312.588ZM49.5407 338.016H51.2907V328.398H49.8907L47.1887 330.232L47.8887 331.464L49.5407 330.414V338.016ZM55.2282 338.016H56.9782V328.398H55.5782L52.8762 330.232L53.5762 331.464L55.2282 330.414V338.016ZM46.902 362.016H48.652V352.398H47.252L44.55 354.232L45.25 355.464L46.902 354.414V362.016ZM50.4615 362.016H57.5315V360.42H53.1775L55.1935 358.796C56.8455 357.522 57.4335 356.5 57.4335 355.226C57.4335 353.448 55.9775 352.23 54.0735 352.23C52.5195 352.23 51.3575 352.916 50.4475 354.106L51.5815 355.156C52.2815 354.316 53.0095 353.798 54.0175 353.798C54.8855 353.798 55.6555 354.358 55.6555 355.268C55.6555 356.052 55.2215 356.78 54.0035 357.76L50.4615 360.588V362.016Z" fill="#6E7191"/>
<path d="M114.753 104.25C115.887 104.25 116.853 103.774 117.553 103.032L116.405 102.038C115.999 102.5 115.383 102.794 114.753 102.794C113.563 102.794 112.569 101.73 112.569 100.456C112.569 99.196 113.563 98.132 114.753 98.132C115.369 98.132 115.971 98.426 116.363 98.86L117.511 97.852C116.825 97.138 115.873 96.676 114.767 96.676C112.653 96.676 110.875 98.398 110.875 100.456C110.875 102.514 112.653 104.25 114.753 104.25ZM118.913 104.082H120.621V94.296H118.913V104.082ZM125.653 96.676C124.743 96.676 123.791 96.928 122.769 97.432L123.357 98.622C123.973 98.314 124.631 98.076 125.317 98.076C126.633 98.076 127.081 98.888 127.081 99.728V99.91C126.423 99.672 125.723 99.532 125.065 99.532C123.427 99.532 122.125 100.512 122.125 101.94C122.125 103.34 123.273 104.25 124.813 104.25C125.653 104.25 126.549 103.886 127.081 103.228V104.082H128.747V99.728C128.747 97.894 127.571 96.676 125.653 96.676ZM125.191 103.004C124.379 103.004 123.763 102.57 123.763 101.884C123.763 101.198 124.463 100.722 125.317 100.722C125.947 100.722 126.549 100.82 127.081 100.988V101.814C126.899 102.584 126.017 103.004 125.191 103.004ZM133.232 104.25C134.912 104.25 136.074 103.354 136.074 101.954C136.074 100.456 134.758 100.05 133.526 99.714C132.434 99.378 131.986 99.252 131.986 98.776C131.986 98.272 132.49 97.978 133.12 97.978C133.792 97.978 134.548 98.258 135.22 98.692L135.892 97.544C135.094 97.026 134.114 96.676 133.12 96.676C131.51 96.676 130.39 97.6 130.39 98.944C130.39 100.26 131.384 100.694 132.966 101.114C133.82 101.338 134.492 101.534 134.492 102.108C134.492 102.612 134.03 102.934 133.26 102.934C132.476 102.934 131.566 102.612 130.782 102.052L130.054 103.172C130.936 103.858 132.126 104.25 133.232 104.25ZM140.15 104.25C141.83 104.25 142.992 103.354 142.992 101.954C142.992 100.456 141.676 100.05 140.444 99.714C139.352 99.378 138.904 99.252 138.904 98.776C138.904 98.272 139.408 97.978 140.038 97.978C140.71 97.978 141.466 98.258 142.138 98.692L142.81 97.544C142.012 97.026 141.032 96.676 140.038 96.676C138.428 96.676 137.308 97.6 137.308 98.944C137.308 100.26 138.302 100.694 139.884 101.114C140.738 101.338 141.41 101.534 141.41 102.108C141.41 102.612 140.948 102.934 140.178 102.934C139.394 102.934 138.484 102.612 137.7 102.052L136.972 103.172C137.854 103.858 139.044 104.25 140.15 104.25ZM251.377 193.656C251.377 191.78 249.823 190.464 247.779 190.464H243.593V200.082H245.329V196.848H246.869L249.137 200.082H251.125L248.773 196.736C250.313 196.386 251.377 195.21 251.377 193.656ZM245.329 192.074H247.569C248.759 192.074 249.585 192.676 249.585 193.656C249.585 194.636 248.759 195.238 247.569 195.238H245.329V192.074ZM256.35 198.878C255.23 198.878 254.432 198.094 254.25 196.96H259.864C259.864 194.328 258.548 192.676 256.308 192.676C254.236 192.676 252.598 194.258 252.598 196.442C252.598 198.668 254.32 200.25 256.406 200.25C257.456 200.25 258.716 199.802 259.346 199.13L258.366 198.122C257.904 198.57 257.078 198.878 256.35 198.878ZM256.322 194.048C257.414 194.048 258.058 194.804 258.212 195.826H254.264C254.488 194.748 255.286 194.048 256.322 194.048ZM269.76 192.676C268.626 192.676 267.758 193.362 267.562 194.398C267.184 193.348 266.26 192.676 265.112 192.676C264.202 192.676 263.46 193.124 263.096 193.824V192.844H261.388V200.082H263.096V195.644C263.096 194.762 263.754 194.132 264.678 194.132C265.504 194.132 266.092 194.804 266.092 195.756V200.082H267.744V195.644C267.744 194.762 268.402 194.132 269.34 194.132C270.166 194.132 270.74 194.804 270.74 195.756V200.082H272.406V195.476C272.406 193.838 271.272 192.676 269.76 192.676ZM277.26 192.676C276.35 192.676 275.398 192.928 274.376 193.432L274.964 194.622C275.58 194.314 276.238 194.076 276.924 194.076C278.24 194.076 278.688 194.888 278.688 195.728V195.91C278.03 195.672 277.33 195.532 276.672 195.532C275.034 195.532 273.732 196.512 273.732 197.94C273.732 199.34 274.88 200.25 276.42 200.25C277.26 200.25 278.156 199.886 278.688 199.228V200.082H280.354V195.728C280.354 193.894 279.178 192.676 277.26 192.676ZM276.798 199.004C275.986 199.004 275.37 198.57 275.37 197.884C275.37 197.198 276.07 196.722 276.924 196.722C277.554 196.722 278.156 196.82 278.688 196.988V197.814C278.506 198.584 277.624 199.004 276.798 199.004ZM284.041 194.216V192.844H282.333V200.082H284.041V196.428C284.041 195.056 285.077 194.132 286.631 194.132V192.676C285.455 192.676 284.503 193.278 284.041 194.216ZM288.185 200.082H289.893V198.262L290.915 197.198L292.945 200.082H294.947L292.063 196.078L295.031 192.844H293.015L289.893 196.26V190.296H288.185V200.082ZM299.163 192.676C298.253 192.676 297.301 192.928 296.279 193.432L296.867 194.622C297.483 194.314 298.141 194.076 298.827 194.076C300.143 194.076 300.591 194.888 300.591 195.728V195.91C299.933 195.672 299.233 195.532 298.575 195.532C296.937 195.532 295.635 196.512 295.635 197.94C295.635 199.34 296.783 200.25 298.323 200.25C299.163 200.25 300.059 199.886 300.591 199.228V200.082H302.257V195.728C302.257 193.894 301.081 192.676 299.163 192.676ZM298.701 199.004C297.889 199.004 297.273 198.57 297.273 197.884C297.273 197.198 297.973 196.722 298.827 196.722C299.457 196.722 300.059 196.82 300.591 196.988V197.814C300.409 198.584 299.527 199.004 298.701 199.004ZM308.505 192.676C307.399 192.676 306.503 193.194 305.943 194.062V190.296H304.235V200.082H305.943V198.85C306.503 199.732 307.399 200.25 308.505 200.25C310.423 200.25 311.837 198.682 311.837 196.456C311.837 194.244 310.423 192.676 308.505 192.676ZM308.043 198.794C306.853 198.794 305.999 197.814 305.999 196.456C305.999 195.098 306.853 194.132 308.043 194.132C309.275 194.132 310.143 195.098 310.143 196.456C310.143 197.814 309.275 198.794 308.043 198.794ZM313.464 200.082H315.172V190.296H313.464V200.082ZM320.526 198.878C319.406 198.878 318.608 198.094 318.426 196.96H324.04C324.04 194.328 322.724 192.676 320.484 192.676C318.412 192.676 316.774 194.258 316.774 196.442C316.774 198.668 318.496 200.25 320.582 200.25C321.632 200.25 322.892 199.802 323.522 199.13L322.542 198.122C322.08 198.57 321.254 198.878 320.526 198.878ZM320.498 194.048C321.59 194.048 322.234 194.804 322.388 195.826H318.44C318.664 194.748 319.462 194.048 320.498 194.048ZM175.361 216.676C174.395 216.676 173.555 217.138 173.121 217.824V214.296H171.413V224.082H173.121V219.7C173.121 218.818 173.905 218.132 174.885 218.132C175.781 218.132 176.397 218.818 176.397 219.812V224.082H178.063V219.476C178.063 217.824 176.957 216.676 175.361 216.676ZM182.938 216.676C182.028 216.676 181.076 216.928 180.054 217.432L180.642 218.622C181.258 218.314 181.916 218.076 182.602 218.076C183.918 218.076 184.366 218.888 184.366 219.728V219.91C183.708 219.672 183.008 219.532 182.35 219.532C180.712 219.532 179.41 220.512 179.41 221.94C179.41 223.34 180.558 224.25 182.098 224.25C182.938 224.25 183.834 223.886 184.366 223.228V224.082H186.032V219.728C186.032 217.894 184.856 216.676 182.938 216.676ZM182.476 223.004C181.664 223.004 181.048 222.57 181.048 221.884C181.048 221.198 181.748 220.722 182.602 220.722C183.232 220.722 183.834 220.82 184.366 220.988V221.814C184.184 222.584 183.302 223.004 182.476 223.004ZM191.959 216.676C190.993 216.676 190.153 217.138 189.719 217.824V216.844H188.011V224.082H189.719V219.7C189.719 218.818 190.503 218.132 191.483 218.132C192.379 218.132 192.995 218.818 192.995 219.812V224.082H194.661V219.476C194.661 217.824 193.555 216.676 191.959 216.676ZM201.986 214.296V217.978C201.426 217.166 200.544 216.676 199.48 216.676C197.548 216.676 196.148 218.244 196.148 220.456C196.148 222.682 197.548 224.25 199.48 224.25C200.544 224.25 201.426 223.76 201.986 222.934V224.082H203.694V214.296H201.986ZM199.928 222.794C198.71 222.794 197.842 221.814 197.842 220.456C197.842 219.098 198.71 218.132 199.928 218.132C201.132 218.132 201.972 219.098 201.972 220.456C201.972 221.814 201.132 222.794 199.928 222.794ZM205.825 224.082H207.533V214.296H205.825V224.082ZM212.887 222.878C211.767 222.878 210.969 222.094 210.787 220.96H216.401C216.401 218.328 215.085 216.676 212.845 216.676C210.773 216.676 209.135 218.258 209.135 220.442C209.135 222.668 210.857 224.25 212.943 224.25C213.993 224.25 215.253 223.802 215.883 223.13L214.903 222.122C214.441 222.57 213.615 222.878 212.887 222.878ZM212.859 218.048C213.951 218.048 214.595 218.804 214.749 219.826H210.801C211.025 218.748 211.823 218.048 212.859 218.048ZM222.601 224.25C224.015 224.25 225.317 223.648 226.241 222.682L225.009 221.534C224.393 222.22 223.539 222.654 222.601 222.654C220.837 222.654 219.339 221.114 219.339 219.266C219.339 217.432 220.837 215.892 222.601 215.892C223.539 215.892 224.393 216.326 224.995 217.012L226.241 215.85C225.317 214.898 224.015 214.296 222.601 214.296C219.871 214.296 217.561 216.564 217.561 219.266C217.561 221.968 219.871 224.25 222.601 224.25ZM231.73 216.676C230.764 216.676 229.924 217.138 229.49 217.824V214.296H227.782V224.082H229.49V219.7C229.49 218.818 230.274 218.132 231.254 218.132C232.15 218.132 232.766 218.818 232.766 219.812V224.082H234.432V219.476C234.432 217.824 233.326 216.676 231.73 216.676ZM239.307 216.676C238.397 216.676 237.445 216.928 236.423 217.432L237.011 218.622C237.627 218.314 238.285 218.076 238.971 218.076C240.287 218.076 240.735 218.888 240.735 219.728V219.91C240.077 219.672 239.377 219.532 238.719 219.532C237.081 219.532 235.779 220.512 235.779 221.94C235.779 223.34 236.927 224.25 238.467 224.25C239.307 224.25 240.203 223.886 240.735 223.228V224.082H242.401V219.728C242.401 217.894 241.225 216.676 239.307 216.676ZM238.845 223.004C238.033 223.004 237.417 222.57 237.417 221.884C237.417 221.198 238.117 220.722 238.971 220.722C239.601 220.722 240.203 220.82 240.735 220.988V221.814C240.553 222.584 239.671 223.004 238.845 223.004ZM248.328 216.676C247.362 216.676 246.522 217.138 246.088 217.824V216.844H244.38V224.082H246.088V219.7C246.088 218.818 246.872 218.132 247.852 218.132C248.748 218.132 249.364 218.818 249.364 219.812V224.082H251.03V219.476C251.03 217.824 249.924 216.676 248.328 216.676ZM258.187 216.844V217.908C257.669 217.152 256.745 216.676 255.709 216.676C253.847 216.676 252.461 218.09 252.461 220.106C252.461 222.122 253.847 223.55 255.709 223.55C256.731 223.55 257.613 223.102 258.187 222.332V223.256C258.187 224.348 257.291 225.034 255.863 225.034C255.009 225.034 254.155 224.74 253.651 224.278L253.021 225.524C253.721 226.084 254.883 226.49 256.129 226.49C258.341 226.49 259.909 225.174 259.909 223.312V216.844H258.187ZM256.199 222.094C255.051 222.094 254.225 221.268 254.225 220.106C254.225 218.958 255.051 218.132 256.199 218.132C257.361 218.132 258.187 218.958 258.187 220.106C258.187 221.268 257.361 222.094 256.199 222.094ZM265.237 222.878C264.117 222.878 263.319 222.094 263.137 220.96H268.751C268.751 218.328 267.435 216.676 265.195 216.676C263.123 216.676 261.485 218.258 261.485 220.442C261.485 222.668 263.207 224.25 265.293 224.25C266.343 224.25 267.603 223.802 268.233 223.13L267.253 222.122C266.791 222.57 265.965 222.878 265.237 222.878ZM265.209 218.048C266.301 218.048 266.945 218.804 267.099 219.826H263.151C263.375 218.748 264.173 218.048 265.209 218.048ZM166.263 344.25C167.943 344.25 169.105 343.354 169.105 341.954C169.105 340.456 167.789 340.05 166.557 339.714C165.465 339.378 165.017 339.252 165.017 338.776C165.017 338.272 165.521 337.978 166.151 337.978C166.823 337.978 167.579 338.258 168.251 338.692L168.923 337.544C168.125 337.026 167.145 336.676 166.151 336.676C164.541 336.676 163.421 337.6 163.421 338.944C163.421 340.26 164.415 340.694 165.997 341.114C166.851 341.338 167.523 341.534 167.523 342.108C167.523 342.612 167.061 342.934 166.291 342.934C165.507 342.934 164.597 342.612 163.813 342.052L163.085 343.172C163.967 343.858 165.157 344.25 166.263 344.25ZM173.895 342.878C172.775 342.878 171.977 342.094 171.795 340.96H177.409C177.409 338.328 176.093 336.676 173.853 336.676C171.781 336.676 170.143 338.258 170.143 340.442C170.143 342.668 171.865 344.25 173.951 344.25C175.001 344.25 176.261 343.802 176.891 343.13L175.911 342.122C175.449 342.57 174.623 342.878 173.895 342.878ZM173.867 338.048C174.959 338.048 175.603 338.804 175.757 339.826H171.809C172.033 338.748 172.831 338.048 173.867 338.048ZM182.321 342.528C182.167 342.682 181.901 342.794 181.607 342.794C181.201 342.794 180.879 342.444 180.879 341.954V338.258H182.517V336.844H180.879V334.856H179.227V336.844H178.177V338.258H179.227V342.164C179.227 343.382 180.067 344.25 181.257 344.25C181.817 344.25 182.405 344.026 182.811 343.676L182.321 342.528ZM187.808 344.236C190.118 344.236 191.42 343.018 191.42 341.296C191.42 339.546 190.076 338.902 188.074 338.454C186.548 338.104 185.848 337.824 185.848 337.04C185.848 336.368 186.492 335.794 187.472 335.794C188.424 335.794 189.39 336.2 190.216 336.914L191.168 335.64C190.216 334.814 189.054 334.296 187.528 334.296C185.512 334.296 184.084 335.514 184.084 337.194C184.084 339 185.456 339.574 187.444 340.036C188.984 340.4 189.67 340.666 189.67 341.464C189.67 342.15 189.054 342.738 187.878 342.738C186.618 342.738 185.596 342.234 184.714 341.436L183.692 342.682C184.756 343.676 186.17 344.236 187.808 344.236ZM196.526 342.528C196.372 342.682 196.106 342.794 195.812 342.794C195.406 342.794 195.084 342.444 195.084 341.954V338.258H196.722V336.844H195.084V334.856H193.432V336.844H192.382V338.258H193.432V342.164C193.432 343.382 194.272 344.25 195.462 344.25C196.022 344.25 196.61 344.026 197.016 343.676L196.526 342.528ZM201.313 336.676C200.403 336.676 199.451 336.928 198.429 337.432L199.017 338.622C199.633 338.314 200.291 338.076 200.977 338.076C202.293 338.076 202.741 338.888 202.741 339.728V339.91C202.083 339.672 201.383 339.532 200.725 339.532C199.087 339.532 197.785 340.512 197.785 341.94C197.785 343.34 198.933 344.25 200.473 344.25C201.313 344.25 202.209 343.886 202.741 343.228V344.082H204.407V339.728C204.407 337.894 203.231 336.676 201.313 336.676ZM200.851 343.004C200.039 343.004 199.423 342.57 199.423 341.884C199.423 341.198 200.123 340.722 200.977 340.722C201.607 340.722 202.209 340.82 202.741 340.988V341.814C202.559 342.584 201.677 343.004 200.851 343.004ZM209.774 342.528C209.62 342.682 209.354 342.794 209.06 342.794C208.654 342.794 208.332 342.444 208.332 341.954V338.258H209.97V336.844H208.332V334.856H206.68V336.844H205.63V338.258H206.68V342.164C206.68 343.382 207.52 344.25 208.71 344.25C209.27 344.25 209.858 344.026 210.264 343.676L209.774 342.528ZM214.883 342.878C213.763 342.878 212.965 342.094 212.783 340.96H218.397C218.397 338.328 217.081 336.676 214.841 336.676C212.769 336.676 211.131 338.258 211.131 340.442C211.131 342.668 212.853 344.25 214.939 344.25C215.989 344.25 217.249 343.802 217.879 343.13L216.899 342.122C216.437 342.57 215.611 342.878 214.883 342.878ZM214.855 338.048C215.947 338.048 216.591 338.804 216.745 339.826H212.797C213.021 338.748 213.819 338.048 214.855 338.048ZM295.496 342.528C295.342 342.682 295.076 342.794 294.782 342.794C294.376 342.794 294.054 342.444 294.054 341.954V338.258H295.692V336.844H294.054V334.856H292.402V336.844H291.352V338.258H292.402V342.164C292.402 343.382 293.242 344.25 294.432 344.25C294.992 344.25 295.58 344.026 295.986 343.676L295.496 342.528ZM300.284 336.676C299.374 336.676 298.422 336.928 297.4 337.432L297.988 338.622C298.604 338.314 299.262 338.076 299.948 338.076C301.264 338.076 301.712 338.888 301.712 339.728V339.91C301.054 339.672 300.354 339.532 299.696 339.532C298.058 339.532 296.756 340.512 296.756 341.94C296.756 343.34 297.904 344.25 299.444 344.25C300.284 344.25 301.18 343.886 301.712 343.228V344.082H303.378V339.728C303.378 337.894 302.202 336.676 300.284 336.676ZM299.822 343.004C299.01 343.004 298.394 342.57 298.394 341.884C298.394 341.198 299.094 340.722 299.948 340.722C300.578 340.722 301.18 340.82 301.712 340.988V341.814C301.53 342.584 300.648 343.004 299.822 343.004ZM307.064 338.216V336.844H305.356V344.082H307.064V340.428C307.064 339.056 308.1 338.132 309.654 338.132V336.676C308.478 336.676 307.526 337.278 307.064 338.216ZM316.388 336.844V337.908C315.87 337.152 314.946 336.676 313.91 336.676C312.048 336.676 310.662 338.09 310.662 340.106C310.662 342.122 312.048 343.55 313.91 343.55C314.932 343.55 315.814 343.102 316.388 342.332V343.256C316.388 344.348 315.492 345.034 314.064 345.034C313.21 345.034 312.356 344.74 311.852 344.278L311.222 345.524C311.922 346.084 313.084 346.49 314.33 346.49C316.542 346.49 318.11 345.174 318.11 343.312V336.844H316.388ZM314.4 342.094C313.252 342.094 312.426 341.268 312.426 340.106C312.426 338.958 313.252 338.132 314.4 338.132C315.562 338.132 316.388 338.958 316.388 340.106C316.388 341.268 315.562 342.094 314.4 342.094ZM323.438 342.878C322.318 342.878 321.52 342.094 321.338 340.96H326.952C326.952 338.328 325.636 336.676 323.396 336.676C321.324 336.676 319.686 338.258 319.686 340.442C319.686 342.668 321.408 344.25 323.494 344.25C324.544 344.25 325.804 343.802 326.434 343.13L325.454 342.122C324.992 342.57 324.166 342.878 323.438 342.878ZM323.41 338.048C324.502 338.048 325.146 338.804 325.3 339.826H321.352C321.576 338.748 322.374 338.048 323.41 338.048ZM331.864 342.528C331.71 342.682 331.444 342.794 331.15 342.794C330.744 342.794 330.422 342.444 330.422 341.954V338.258H332.06V336.844H330.422V334.856H328.77V336.844H327.72V338.258H328.77V342.164C328.77 343.382 329.61 344.25 330.8 344.25C331.36 344.25 331.948 344.026 332.354 343.676L331.864 342.528Z" fill="#2FF2B8"/>
<path d="M151.524 128.25C152.112 128.25 152.602 127.746 152.602 127.13C152.602 126.556 152.112 126.052 151.524 126.052C150.894 126.052 150.404 126.556 150.404 127.13C150.404 127.746 150.894 128.25 151.524 128.25ZM242.813 130.406L242.953 129.328C241.413 129.104 241.077 128.838 241.077 127.802L241.091 125.954C241.091 125.1 240.727 124.61 240.013 124.358C240.727 124.12 241.091 123.616 241.091 122.776L241.077 120.914C241.077 119.906 241.385 119.626 242.953 119.402L242.813 118.324C240.503 118.534 239.705 119.248 239.705 120.802L239.719 122.566C239.719 123.448 239.355 123.826 238.361 123.826V124.904C239.327 124.904 239.719 125.268 239.719 126.15L239.705 127.928C239.705 129.468 240.489 130.196 242.813 130.406ZM200.692 154.462L201.56 153.524C200.09 152.012 199.348 150.486 199.348 148.372C199.348 146.244 200.09 144.718 201.56 143.206L200.692 142.282C198.746 143.766 197.626 145.894 197.626 148.372C197.626 150.836 198.746 152.978 200.692 154.462ZM207.195 144.676C206.131 144.676 205.263 145.152 204.689 145.964V144.844H202.981V154.49H204.689V150.962C205.263 151.774 206.131 152.25 207.195 152.25C209.113 152.25 210.513 150.682 210.513 148.456C210.513 146.244 209.113 144.676 207.195 144.676ZM206.733 150.794C205.529 150.794 204.689 149.814 204.689 148.456C204.689 147.098 205.529 146.132 206.733 146.132C207.951 146.132 208.819 147.098 208.819 148.456C208.819 149.814 207.951 150.794 206.733 150.794ZM213.863 146.216V144.844H212.155V152.082H213.863V148.428C213.863 147.056 214.899 146.132 216.453 146.132V144.676C215.277 144.676 214.325 145.278 213.863 146.216ZM221.339 152.25C223.467 152.25 225.203 150.542 225.203 148.456C225.203 146.37 223.467 144.676 221.339 144.676C219.197 144.676 217.447 146.37 217.447 148.456C217.447 150.542 219.197 152.25 221.339 152.25ZM221.339 150.794C220.121 150.794 219.127 149.744 219.127 148.456C219.127 147.168 220.121 146.132 221.339 146.132C222.543 146.132 223.537 147.168 223.537 148.456C223.537 149.744 222.543 150.794 221.339 150.794ZM230.998 144.676C229.934 144.676 229.066 145.152 228.492 145.964V144.844H226.784V154.49H228.492V150.962C229.066 151.774 229.934 152.25 230.998 152.25C232.916 152.25 234.316 150.682 234.316 148.456C234.316 146.244 232.916 144.676 230.998 144.676ZM230.536 150.794C229.332 150.794 228.492 149.814 228.492 148.456C228.492 147.098 229.332 146.132 230.536 146.132C231.754 146.132 232.622 147.098 232.622 148.456C232.622 149.814 231.754 150.794 230.536 150.794ZM238.464 152.25C240.144 152.25 241.306 151.354 241.306 149.954C241.306 148.456 239.99 148.05 238.758 147.714C237.666 147.378 237.218 147.252 237.218 146.776C237.218 146.272 237.722 145.978 238.352 145.978C239.024 145.978 239.78 146.258 240.452 146.692L241.124 145.544C240.326 145.026 239.346 144.676 238.352 144.676C236.742 144.676 235.622 145.6 235.622 146.944C235.622 148.26 236.616 148.694 238.198 149.114C239.052 149.338 239.724 149.534 239.724 150.108C239.724 150.612 239.262 150.934 238.492 150.934C237.708 150.934 236.798 150.612 236.014 150.052L235.286 151.172C236.168 151.858 237.358 152.25 238.464 152.25ZM243.058 154.462C245.004 152.978 246.124 150.836 246.124 148.372C246.124 145.894 245.004 143.766 243.058 142.282L242.176 143.206C243.646 144.718 244.388 146.244 244.388 148.372C244.388 150.486 243.646 152.012 242.176 153.524L243.058 154.462ZM255.377 154.406L255.517 153.328C253.977 153.104 253.641 152.838 253.641 151.802L253.655 149.954C253.655 149.1 253.291 148.61 252.577 148.358C253.291 148.12 253.655 147.616 253.655 146.776L253.641 144.914C253.641 143.906 253.949 143.626 255.517 143.402L255.377 142.324C253.067 142.534 252.269 143.248 252.269 144.802L252.283 146.566C252.283 147.448 251.919 147.826 250.925 147.826V148.904C251.891 148.904 252.283 149.268 252.283 150.15L252.269 151.928C252.269 153.468 253.053 154.196 255.377 154.406ZM183.548 178.462L184.416 177.524C182.946 176.012 182.204 174.486 182.204 172.372C182.204 170.244 182.946 168.718 184.416 167.206L183.548 166.282C181.602 167.766 180.482 169.894 180.482 172.372C180.482 174.836 181.602 176.978 183.548 178.462ZM190.051 168.676C188.987 168.676 188.119 169.152 187.545 169.964V168.844H185.837V178.49H187.545V174.962C188.119 175.774 188.987 176.25 190.051 176.25C191.969 176.25 193.369 174.682 193.369 172.456C193.369 170.244 191.969 168.676 190.051 168.676ZM189.589 174.794C188.385 174.794 187.545 173.814 187.545 172.456C187.545 171.098 188.385 170.132 189.589 170.132C190.807 170.132 191.675 171.098 191.675 172.456C191.675 173.814 190.807 174.794 189.589 174.794ZM196.719 170.216V168.844H195.011V176.082H196.719V172.428C196.719 171.056 197.755 170.132 199.309 170.132V168.676C198.133 168.676 197.181 169.278 196.719 170.216ZM204.194 176.25C206.322 176.25 208.058 174.542 208.058 172.456C208.058 170.37 206.322 168.676 204.194 168.676C202.052 168.676 200.302 170.37 200.302 172.456C200.302 174.542 202.052 176.25 204.194 176.25ZM204.194 174.794C202.976 174.794 201.982 173.744 201.982 172.456C201.982 171.168 202.976 170.132 204.194 170.132C205.398 170.132 206.392 171.168 206.392 172.456C206.392 173.744 205.398 174.794 204.194 174.794ZM213.854 168.676C212.79 168.676 211.922 169.152 211.348 169.964V168.844H209.64V178.49H211.348V174.962C211.922 175.774 212.79 176.25 213.854 176.25C215.772 176.25 217.172 174.682 217.172 172.456C217.172 170.244 215.772 168.676 213.854 168.676ZM213.392 174.794C212.188 174.794 211.348 173.814 211.348 172.456C211.348 171.098 212.188 170.132 213.392 170.132C214.61 170.132 215.478 171.098 215.478 172.456C215.478 173.814 214.61 174.794 213.392 174.794ZM221.32 176.25C223 176.25 224.162 175.354 224.162 173.954C224.162 172.456 222.846 172.05 221.614 171.714C220.522 171.378 220.074 171.252 220.074 170.776C220.074 170.272 220.578 169.978 221.208 169.978C221.88 169.978 222.636 170.258 223.308 170.692L223.98 169.544C223.182 169.026 222.202 168.676 221.208 168.676C219.598 168.676 218.478 169.6 218.478 170.944C218.478 172.26 219.472 172.694 221.054 173.114C221.908 173.338 222.58 173.534 222.58 174.108C222.58 174.612 222.118 174.934 221.348 174.934C220.564 174.934 219.654 174.612 218.87 174.052L218.142 175.172C219.024 175.858 220.214 176.25 221.32 176.25ZM225.913 178.462C227.859 176.978 228.979 174.836 228.979 172.372C228.979 169.894 227.859 167.766 225.913 166.282L225.031 167.206C226.501 168.718 227.243 170.244 227.243 172.372C227.243 174.486 226.501 176.012 225.031 177.524L225.913 178.462ZM231.871 170.944C232.459 170.944 232.949 170.44 232.949 169.824C232.949 169.25 232.459 168.746 231.871 168.746C231.227 168.746 230.737 169.25 230.737 169.824C230.737 170.44 231.227 170.944 231.871 170.944ZM231.647 178.07C232.599 177.062 232.991 176.334 232.991 175.578C232.991 174.696 232.529 174.052 231.829 174.052C231.213 174.052 230.723 174.556 230.723 175.144C230.723 175.746 231.213 176.25 231.801 176.25C231.675 176.698 231.409 177.146 230.989 177.566L231.647 178.07ZM168.026 200.25C168.614 200.25 169.104 199.746 169.104 199.13C169.104 198.556 168.614 198.052 168.026 198.052C167.396 198.052 166.906 198.556 166.906 199.13C166.906 199.746 167.396 200.25 168.026 200.25ZM197.935 194.524H204.585V193.068H197.935V194.524ZM197.935 197.688H204.585V196.232H197.935V197.688ZM215.023 192.676C214.057 192.676 213.217 193.138 212.783 193.824V192.844H211.075V200.082H212.783V195.7C212.783 194.818 213.567 194.132 214.547 194.132C215.443 194.132 216.059 194.818 216.059 195.812V200.082H217.725V195.476C217.725 193.824 216.619 192.676 215.023 192.676ZM222.922 198.878C221.802 198.878 221.004 198.094 220.822 196.96H226.436C226.436 194.328 225.12 192.676 222.88 192.676C220.808 192.676 219.17 194.258 219.17 196.442C219.17 198.668 220.892 200.25 222.978 200.25C224.028 200.25 225.288 199.802 225.918 199.13L224.938 198.122C224.476 198.57 223.65 198.878 222.922 198.878ZM222.894 194.048C223.986 194.048 224.63 194.804 224.784 195.826H220.836C221.06 194.748 221.858 194.048 222.894 194.048ZM229.57 200.082H231.124L232.664 195.126L234.204 200.082H235.758L238.208 192.844H236.5L234.988 197.786L233.378 192.844H231.95L230.34 197.786L228.828 192.844H227.12L229.57 200.082ZM328.224 202.462L329.092 201.524C327.622 200.012 326.88 198.486 326.88 196.372C326.88 194.244 327.622 192.718 329.092 191.206L328.224 190.282C326.278 191.766 325.158 193.894 325.158 196.372C325.158 198.836 326.278 200.978 328.224 202.462ZM330.695 202.462C332.641 200.978 333.761 198.836 333.761 196.372C333.761 193.894 332.641 191.766 330.695 190.282L329.813 191.206C331.283 192.718 332.025 194.244 332.025 196.372C332.025 198.486 331.283 200.012 329.813 201.524L330.695 202.462ZM336.652 194.944C337.24 194.944 337.73 194.44 337.73 193.824C337.73 193.25 337.24 192.746 336.652 192.746C336.008 192.746 335.518 193.25 335.518 193.824C335.518 194.44 336.008 194.944 336.652 194.944ZM336.428 202.07C337.38 201.062 337.772 200.334 337.772 199.578C337.772 198.696 337.31 198.052 336.61 198.052C335.994 198.052 335.504 198.556 335.504 199.144C335.504 199.746 335.994 200.25 336.582 200.25C336.456 200.698 336.19 201.146 335.77 201.566L336.428 202.07ZM168.026 224.25C168.614 224.25 169.104 223.746 169.104 223.13C169.104 222.556 168.614 222.052 168.026 222.052C167.396 222.052 166.906 222.556 166.906 223.13C166.906 223.746 167.396 224.25 168.026 224.25ZM274.635 218.524H281.285V217.068H274.635V218.524ZM274.635 221.688H281.285V220.232H274.635V221.688ZM168.026 248.25C168.614 248.25 169.104 247.746 169.104 247.13C169.104 246.556 168.614 246.052 168.026 246.052C167.396 246.052 166.906 246.556 166.906 247.13C166.906 247.746 167.396 248.25 168.026 248.25ZM271.576 248.25C272.164 248.25 272.654 247.746 272.654 247.13C272.654 246.556 272.164 246.052 271.576 246.052C270.946 246.052 270.456 246.556 270.456 247.13C270.456 247.746 270.946 248.25 271.576 248.25ZM308.509 250.462L309.377 249.524C307.907 248.012 307.165 246.486 307.165 244.372C307.165 242.244 307.907 240.718 309.377 239.206L308.509 238.282C306.563 239.766 305.443 241.894 305.443 244.372C305.443 246.836 306.563 248.978 308.509 250.462ZM335.644 250.462C337.59 248.978 338.71 246.836 338.71 244.372C338.71 241.894 337.59 239.766 335.644 238.282L334.762 239.206C336.232 240.718 336.974 242.244 336.974 244.372C336.974 246.486 336.232 248.012 334.762 249.524L335.644 250.462ZM341.601 242.944C342.189 242.944 342.679 242.44 342.679 241.824C342.679 241.25 342.189 240.746 341.601 240.746C340.957 240.746 340.467 241.25 340.467 241.824C340.467 242.44 340.957 242.944 341.601 242.944ZM341.377 250.07C342.329 249.062 342.721 248.334 342.721 247.578C342.721 246.696 342.259 246.052 341.559 246.052C340.943 246.052 340.453 246.556 340.453 247.144C340.453 247.746 340.943 248.25 341.531 248.25C341.405 248.698 341.139 249.146 340.719 249.566L341.377 250.07ZM122.401 274.406C124.725 274.196 125.509 273.468 125.509 271.928L125.495 270.15C125.495 269.268 125.887 268.904 126.853 268.904V267.826C125.859 267.826 125.495 267.448 125.495 266.566L125.509 264.802C125.509 263.248 124.711 262.534 122.401 262.324L122.261 263.402C123.829 263.626 124.137 263.906 124.137 264.914L124.123 266.776C124.123 267.616 124.487 268.12 125.201 268.358C124.487 268.61 124.123 269.1 124.123 269.954L124.137 271.802C124.137 272.838 123.801 273.104 122.261 273.328L122.401 274.406ZM220.612 322.462L221.48 321.524C220.01 320.012 219.268 318.486 219.268 316.372C219.268 314.244 220.01 312.718 221.48 311.206L220.612 310.282C218.666 311.766 217.546 313.894 217.546 316.372C217.546 318.836 218.666 320.978 220.612 322.462ZM231.341 322.462C233.287 320.978 234.407 318.836 234.407 316.372C234.407 313.894 233.287 311.766 231.341 310.282L230.459 311.206C231.929 312.718 232.671 314.244 232.671 316.372C232.671 318.486 231.929 320.012 230.459 321.524L231.341 322.462ZM243.661 322.406L243.801 321.328C242.261 321.104 241.925 320.838 241.925 319.802L241.939 317.954C241.939 317.1 241.575 316.61 240.861 316.358C241.575 316.12 241.939 315.616 241.939 314.776L241.925 312.914C241.925 311.906 242.233 311.626 243.801 311.402L243.661 310.324C241.351 310.534 240.553 311.248 240.553 312.802L240.567 314.566C240.567 315.448 240.203 315.826 239.209 315.826V316.904C240.175 316.904 240.567 317.268 240.567 318.15L240.553 319.928C240.553 321.468 241.337 322.196 243.661 322.406ZM160.369 344.25C160.957 344.25 161.447 343.746 161.447 343.13C161.447 342.556 160.957 342.052 160.369 342.052C159.739 342.052 159.249 342.556 159.249 343.13C159.249 343.746 159.739 344.25 160.369 344.25ZM222.581 346.462L223.449 345.524C221.979 344.012 221.237 342.486 221.237 340.372C221.237 338.244 221.979 336.718 223.449 335.206L222.581 334.282C220.635 335.766 219.515 337.894 219.515 340.372C219.515 342.836 220.635 344.978 222.581 346.462ZM228.594 346.406L228.734 345.328C227.194 345.104 226.858 344.838 226.858 343.802L226.872 341.954C226.872 341.1 226.508 340.61 225.794 340.358C226.508 340.12 226.872 339.616 226.872 338.776L226.858 336.914C226.858 335.906 227.166 335.626 228.734 335.402L228.594 334.324C226.284 334.534 225.486 335.248 225.486 336.802L225.5 338.566C225.5 339.448 225.136 339.826 224.142 339.826V340.904C225.108 340.904 225.5 341.268 225.5 342.15L225.486 343.928C225.486 345.468 226.27 346.196 228.594 346.406ZM236.242 344.082H237.838L240.904 336.844H239.098L237.04 342.108L234.94 336.844H233.12L236.242 344.082ZM245.036 336.676C244.126 336.676 243.174 336.928 242.152 337.432L242.74 338.622C243.356 338.314 244.014 338.076 244.7 338.076C246.016 338.076 246.464 338.888 246.464 339.728V339.91C245.806 339.672 245.106 339.532 244.448 339.532C242.81 339.532 241.508 340.512 241.508 341.94C241.508 343.34 242.656 344.25 244.196 344.25C245.036 344.25 245.932 343.886 246.464 343.228V344.082H248.13V339.728C248.13 337.894 246.954 336.676 245.036 336.676ZM244.574 343.004C243.762 343.004 243.146 342.57 243.146 341.884C243.146 341.198 243.846 340.722 244.7 340.722C245.33 340.722 245.932 340.82 246.464 340.988V341.814C246.282 342.584 245.4 343.004 244.574 343.004ZM250.108 344.082H251.816V334.296H250.108V344.082ZM258.738 336.844V341.226C258.738 342.108 257.954 342.794 256.974 342.794C256.078 342.794 255.462 342.108 255.462 341.114V336.844H253.796V341.45C253.796 343.102 254.902 344.25 256.498 344.25C257.464 344.25 258.304 343.788 258.738 343.102V344.082H260.446V336.844H258.738ZM265.797 342.878C264.677 342.878 263.879 342.094 263.697 340.96H269.311C269.311 338.328 267.995 336.676 265.755 336.676C263.683 336.676 262.045 338.258 262.045 340.442C262.045 342.668 263.767 344.25 265.853 344.25C266.903 344.25 268.163 343.802 268.793 343.13L267.813 342.122C267.351 342.57 266.525 342.878 265.797 342.878ZM265.769 338.048C266.861 338.048 267.505 338.804 267.659 339.826H263.711C263.935 338.748 264.733 338.048 265.769 338.048ZM272.039 338.944C272.627 338.944 273.117 338.44 273.117 337.824C273.117 337.25 272.627 336.746 272.039 336.746C271.395 336.746 270.905 337.25 270.905 337.824C270.905 338.44 271.395 338.944 272.039 338.944ZM272.039 344.25C272.627 344.25 273.117 343.746 273.117 343.13C273.117 342.556 272.627 342.052 272.039 342.052C271.395 342.052 270.905 342.556 270.905 343.13C270.905 343.746 271.395 344.25 272.039 344.25ZM288.721 344.25C289.309 344.25 289.799 343.746 289.799 343.13C289.799 342.556 289.309 342.052 288.721 342.052C288.091 342.052 287.601 342.556 287.601 343.13C287.601 343.746 288.091 344.25 288.721 344.25ZM335.055 344.25C335.643 344.25 336.133 343.746 336.133 343.13C336.133 342.556 335.643 342.052 335.055 342.052C334.425 342.052 333.935 342.556 333.935 343.13C333.935 343.746 334.425 344.25 335.055 344.25ZM378.557 346.406C380.881 346.196 381.665 345.468 381.665 343.928L381.651 342.15C381.651 341.268 382.043 340.904 383.009 340.904V339.826C382.015 339.826 381.651 339.448 381.651 338.566L381.665 336.802C381.665 335.248 380.867 334.534 378.557 334.324L378.417 335.402C379.985 335.626 380.293 335.906 380.293 336.914L380.279 338.776C380.279 339.616 380.643 340.12 381.357 340.358C380.643 340.61 380.279 341.1 380.279 341.954L380.293 343.802C380.293 344.838 379.957 345.104 378.417 345.328L378.557 346.406ZM384.589 346.462C386.535 344.978 387.655 342.836 387.655 340.372C387.655 337.894 386.535 335.766 384.589 334.282L383.707 335.206C385.177 336.718 385.919 338.244 385.919 340.372C385.919 342.486 385.177 344.012 383.707 345.524L384.589 346.462ZM390.546 338.944C391.134 338.944 391.624 338.44 391.624 337.824C391.624 337.25 391.134 336.746 390.546 336.746C389.902 336.746 389.412 337.25 389.412 337.824C389.412 338.44 389.902 338.944 390.546 338.944ZM390.322 346.07C391.274 345.062 391.666 344.334 391.666 343.578C391.666 342.696 391.204 342.052 390.504 342.052C389.888 342.052 389.398 342.556 389.398 343.144C389.398 343.746 389.888 344.25 390.476 344.25C390.35 344.698 390.084 345.146 389.664 345.566L390.322 346.07ZM118.573 370.406C120.897 370.196 121.681 369.468 121.681 367.928L121.667 366.15C121.667 365.268 122.059 364.904 123.025 364.904V363.826C122.031 363.826 121.667 363.448 121.667 362.566L121.681 360.802C121.681 359.248 120.883 358.534 118.573 358.324L118.433 359.402C120.001 359.626 120.309 359.906 120.309 360.914L120.295 362.776C120.295 363.616 120.659 364.12 121.373 364.358C120.659 364.61 120.295 365.1 120.295 365.954L120.309 367.802C120.309 368.838 119.973 369.104 118.433 369.328L118.573 370.406Z" fill="#6E7191"/>
<path d="M148.656 104.082H150.392V97.656L153.57 103.522L156.734 97.656V104.082H158.484V94.464H156.734L153.57 100.33L150.392 94.464H148.656V104.082ZM163.756 96.676C162.846 96.676 161.894 96.928 160.872 97.432L161.46 98.622C162.076 98.314 162.734 98.076 163.42 98.076C164.736 98.076 165.184 98.888 165.184 99.728V99.91C164.526 99.672 163.826 99.532 163.168 99.532C161.53 99.532 160.228 100.512 160.228 101.94C160.228 103.34 161.376 104.25 162.916 104.25C163.756 104.25 164.652 103.886 165.184 103.228V104.082H166.85V99.728C166.85 97.894 165.674 96.676 163.756 96.676ZM163.294 103.004C162.482 103.004 161.866 102.57 161.866 101.884C161.866 101.198 162.566 100.722 163.42 100.722C164.05 100.722 164.652 100.82 165.184 100.988V101.814C165.002 102.584 164.12 103.004 163.294 103.004ZM170.537 98.216V96.844H168.829V104.082H170.537V100.428C170.537 99.056 171.573 98.132 173.127 98.132V96.676C171.951 96.676 170.999 97.278 170.537 98.216ZM174.681 104.082H176.389V102.262L177.411 101.198L179.441 104.082H181.443L178.559 100.078L181.527 96.844H179.511L176.389 100.26V94.296H174.681V104.082ZM188.109 94.296V97.978C187.549 97.166 186.667 96.676 185.603 96.676C183.671 96.676 182.271 98.244 182.271 100.456C182.271 102.682 183.671 104.25 185.603 104.25C186.667 104.25 187.549 103.76 188.109 102.934V104.082H189.817V94.296H188.109ZM186.051 102.794C184.833 102.794 183.965 101.814 183.965 100.456C183.965 99.098 184.833 98.132 186.051 98.132C187.255 98.132 188.095 99.098 188.095 100.456C188.095 101.814 187.255 102.794 186.051 102.794ZM195.28 104.25C197.408 104.25 199.144 102.542 199.144 100.456C199.144 98.37 197.408 96.676 195.28 96.676C193.138 96.676 191.388 98.37 191.388 100.456C191.388 102.542 193.138 104.25 195.28 104.25ZM195.28 102.794C194.062 102.794 193.068 101.744 193.068 100.456C193.068 99.168 194.062 98.132 195.28 98.132C196.484 98.132 197.478 99.168 197.478 100.456C197.478 101.744 196.484 102.794 195.28 102.794ZM202.336 104.082H203.89L205.43 99.126L206.97 104.082H208.524L210.974 96.844H209.266L207.754 101.786L206.144 96.844H204.716L203.106 101.786L201.594 96.844H199.886L202.336 104.082ZM216.213 96.676C215.247 96.676 214.407 97.138 213.973 97.824V96.844H212.265V104.082H213.973V99.7C213.973 98.818 214.757 98.132 215.737 98.132C216.633 98.132 217.249 98.818 217.249 99.812V104.082H218.915V99.476C218.915 97.824 217.809 96.676 216.213 96.676ZM228.396 96.06V94.464H221.158V104.082H228.396V102.486H222.908V99.98H227.864V98.384H222.908V96.06H228.396ZM235.591 94.296V97.978C235.031 97.166 234.149 96.676 233.085 96.676C231.153 96.676 229.753 98.244 229.753 100.456C229.753 102.682 231.153 104.25 233.085 104.25C234.149 104.25 235.031 103.76 235.591 102.934V104.082H237.299V94.296H235.591ZM233.533 102.794C232.315 102.794 231.447 101.814 231.447 100.456C231.447 99.098 232.315 98.132 233.533 98.132C234.737 98.132 235.577 99.098 235.577 100.456C235.577 101.814 234.737 102.794 233.533 102.794ZM240.285 95.752C240.817 95.752 241.251 95.29 241.251 94.772C241.251 94.254 240.817 93.806 240.285 93.806C239.739 93.806 239.305 94.254 239.305 94.772C239.305 95.29 239.739 95.752 240.285 95.752ZM239.431 104.082H241.139V96.844H239.431V104.082ZM246.66 102.528C246.506 102.682 246.24 102.794 245.946 102.794C245.54 102.794 245.218 102.444 245.218 101.954V98.258H246.856V96.844H245.218V94.856H243.566V96.844H242.516V98.258H243.566V102.164C243.566 103.382 244.406 104.25 245.596 104.25C246.156 104.25 246.744 104.026 247.15 103.676L246.66 102.528ZM251.882 104.25C254.01 104.25 255.746 102.542 255.746 100.456C255.746 98.37 254.01 96.676 251.882 96.676C249.74 96.676 247.99 98.37 247.99 100.456C247.99 102.542 249.74 104.25 251.882 104.25ZM251.882 102.794C250.664 102.794 249.67 101.744 249.67 100.456C249.67 99.168 250.664 98.132 251.882 98.132C253.086 98.132 254.08 99.168 254.08 100.456C254.08 101.744 253.086 102.794 251.882 102.794ZM259.035 98.216V96.844H257.327V104.082H259.035V100.428C259.035 99.056 260.071 98.132 261.625 98.132V96.676C260.449 96.676 259.497 97.278 259.035 98.216ZM119.485 121.656C119.485 119.78 117.931 118.464 115.887 118.464H111.701V128.082H113.437V124.848H114.977L117.245 128.082H119.233L116.881 124.736C118.421 124.386 119.485 123.21 119.485 121.656ZM113.437 120.074H115.677C116.867 120.074 117.693 120.676 117.693 121.656C117.693 122.636 116.867 123.238 115.677 123.238H113.437V120.074ZM124.457 126.878C123.337 126.878 122.539 126.094 122.357 124.96H127.971C127.971 122.328 126.655 120.676 124.415 120.676C122.343 120.676 120.705 122.258 120.705 124.442C120.705 126.668 122.427 128.25 124.513 128.25C125.563 128.25 126.823 127.802 127.453 127.13L126.473 126.122C126.011 126.57 125.185 126.878 124.457 126.878ZM124.429 122.048C125.521 122.048 126.165 122.804 126.319 123.826H122.371C122.595 122.748 123.393 122.048 124.429 122.048ZM132.393 120.676C131.483 120.676 130.531 120.928 129.509 121.432L130.097 122.622C130.713 122.314 131.371 122.076 132.057 122.076C133.373 122.076 133.821 122.888 133.821 123.728V123.91C133.163 123.672 132.463 123.532 131.805 123.532C130.167 123.532 128.865 124.512 128.865 125.94C128.865 127.34 130.013 128.25 131.553 128.25C132.393 128.25 133.289 127.886 133.821 127.228V128.082H135.487V123.728C135.487 121.894 134.311 120.676 132.393 120.676ZM131.931 127.004C131.119 127.004 130.503 126.57 130.503 125.884C130.503 125.198 131.203 124.722 132.057 124.722C132.687 124.722 133.289 124.82 133.821 124.988V125.814C133.639 126.584 132.757 127.004 131.931 127.004ZM140.784 128.25C141.918 128.25 142.884 127.774 143.584 127.032L142.436 126.038C142.03 126.5 141.414 126.794 140.784 126.794C139.594 126.794 138.6 125.73 138.6 124.456C138.6 123.196 139.594 122.132 140.784 122.132C141.4 122.132 142.002 122.426 142.394 122.86L143.542 121.852C142.856 121.138 141.904 120.676 140.798 120.676C138.684 120.676 136.906 122.398 136.906 124.456C136.906 126.514 138.684 128.25 140.784 128.25ZM148.332 126.528C148.178 126.682 147.912 126.794 147.618 126.794C147.212 126.794 146.89 126.444 146.89 125.954V122.258H148.528V120.844H146.89V118.856H145.238V120.844H144.188V122.258H145.238V126.164C145.238 127.382 146.078 128.25 147.268 128.25C147.828 128.25 148.416 128.026 148.822 127.676L148.332 126.528ZM179.785 192.676C178.651 192.676 177.783 193.362 177.587 194.398C177.209 193.348 176.285 192.676 175.137 192.676C174.227 192.676 173.485 193.124 173.121 193.824V192.844H171.413V200.082H173.121V195.644C173.121 194.762 173.779 194.132 174.703 194.132C175.529 194.132 176.117 194.804 176.117 195.756V200.082H177.769V195.644C177.769 194.762 178.427 194.132 179.365 194.132C180.191 194.132 180.765 194.804 180.765 195.756V200.082H182.431V195.476C182.431 193.838 181.297 192.676 179.785 192.676ZM189.736 190.296V193.978C189.176 193.166 188.294 192.676 187.23 192.676C185.298 192.676 183.898 194.244 183.898 196.456C183.898 198.682 185.298 200.25 187.23 200.25C188.294 200.25 189.176 199.76 189.736 198.934V200.082H191.444V190.296H189.736ZM187.678 198.794C186.46 198.794 185.592 197.814 185.592 196.456C185.592 195.098 186.46 194.132 187.678 194.132C188.882 194.132 189.722 195.098 189.722 196.456C189.722 197.814 188.882 198.794 187.678 198.794ZM279.234 240.676C278.128 240.676 277.232 241.194 276.672 242.062V238.296H274.964V248.082H276.672V246.85C277.232 247.732 278.128 248.25 279.234 248.25C281.152 248.25 282.566 246.682 282.566 244.456C282.566 242.244 281.152 240.676 279.234 240.676ZM278.772 246.794C277.582 246.794 276.728 245.814 276.728 244.456C276.728 243.098 277.582 242.132 278.772 242.132C280.004 242.132 280.872 243.098 280.872 244.456C280.872 245.814 280.004 246.794 278.772 246.794ZM285.046 239.752C285.578 239.752 286.012 239.29 286.012 238.772C286.012 238.254 285.578 237.806 285.046 237.806C284.5 237.806 284.066 238.254 284.066 238.772C284.066 239.29 284.5 239.752 285.046 239.752ZM284.192 248.082H285.9V240.844H284.192V248.082ZM291.982 240.676C291.016 240.676 290.176 241.138 289.742 241.824V240.844H288.034V248.082H289.742V243.7C289.742 242.818 290.526 242.132 291.506 242.132C292.402 242.132 293.018 242.818 293.018 243.812V248.082H294.684V243.476C294.684 241.824 293.578 240.676 291.982 240.676ZM302.009 238.296V241.978C301.449 241.166 300.567 240.676 299.503 240.676C297.571 240.676 296.171 242.244 296.171 244.456C296.171 246.682 297.571 248.25 299.503 248.25C300.567 248.25 301.449 247.76 302.009 246.934V248.082H303.717V238.296H302.009ZM299.951 246.794C298.733 246.794 297.865 245.814 297.865 244.456C297.865 243.098 298.733 242.132 299.951 242.132C301.155 242.132 301.995 243.098 301.995 244.456C301.995 245.814 301.155 246.794 299.951 246.794ZM123.039 312.676C122.073 312.676 121.233 313.138 120.799 313.824V310.296H119.091V320.082H120.799V315.7C120.799 314.818 121.583 314.132 122.563 314.132C123.459 314.132 124.075 314.818 124.075 315.812V320.082H125.741V315.476C125.741 313.824 124.635 312.676 123.039 312.676ZM130.616 312.676C129.706 312.676 128.754 312.928 127.732 313.432L128.32 314.622C128.936 314.314 129.594 314.076 130.28 314.076C131.596 314.076 132.044 314.888 132.044 315.728V315.91C131.386 315.672 130.686 315.532 130.028 315.532C128.39 315.532 127.088 316.512 127.088 317.94C127.088 319.34 128.236 320.25 129.776 320.25C130.616 320.25 131.512 319.886 132.044 319.228V320.082H133.71V315.728C133.71 313.894 132.534 312.676 130.616 312.676ZM130.154 319.004C129.342 319.004 128.726 318.57 128.726 317.884C128.726 317.198 129.426 316.722 130.28 316.722C130.91 316.722 131.512 316.82 132.044 316.988V317.814C131.862 318.584 130.98 319.004 130.154 319.004ZM139.637 312.676C138.671 312.676 137.831 313.138 137.397 313.824V312.844H135.689V320.082H137.397V315.7C137.397 314.818 138.181 314.132 139.161 314.132C140.057 314.132 140.673 314.818 140.673 315.812V320.082H142.339V315.476C142.339 313.824 141.233 312.676 139.637 312.676ZM149.663 310.296V313.978C149.103 313.166 148.221 312.676 147.157 312.676C145.225 312.676 143.825 314.244 143.825 316.456C143.825 318.682 145.225 320.25 147.157 320.25C148.221 320.25 149.103 319.76 149.663 318.934V320.082H151.371V310.296H149.663ZM147.605 318.794C146.387 318.794 145.519 317.814 145.519 316.456C145.519 315.098 146.387 314.132 147.605 314.132C148.809 314.132 149.649 315.098 149.649 316.456C149.649 317.814 148.809 318.794 147.605 318.794ZM153.503 320.082H155.211V310.296H153.503V320.082ZM160.565 318.878C159.445 318.878 158.647 318.094 158.465 316.96H164.079C164.079 314.328 162.763 312.676 160.523 312.676C158.451 312.676 156.813 314.258 156.813 316.442C156.813 318.668 158.535 320.25 160.621 320.25C161.671 320.25 162.931 319.802 163.561 319.13L162.581 318.122C162.119 318.57 161.293 318.878 160.565 318.878ZM160.537 314.048C161.629 314.048 162.273 314.804 162.427 315.826H158.479C158.703 314.748 159.501 314.048 160.537 314.048ZM170.279 320.25C171.693 320.25 172.995 319.648 173.919 318.682L172.687 317.534C172.071 318.22 171.217 318.654 170.279 318.654C168.515 318.654 167.017 317.114 167.017 315.266C167.017 313.432 168.515 311.892 170.279 311.892C171.217 311.892 172.071 312.326 172.673 313.012L173.919 311.85C172.995 310.898 171.693 310.296 170.279 310.296C167.549 310.296 165.239 312.564 165.239 315.266C165.239 317.968 167.549 320.25 170.279 320.25ZM179.408 312.676C178.442 312.676 177.602 313.138 177.168 313.824V310.296H175.46V320.082H177.168V315.7C177.168 314.818 177.952 314.132 178.932 314.132C179.828 314.132 180.444 314.818 180.444 315.812V320.082H182.11V315.476C182.11 313.824 181.004 312.676 179.408 312.676ZM186.985 312.676C186.075 312.676 185.123 312.928 184.101 313.432L184.689 314.622C185.305 314.314 185.963 314.076 186.649 314.076C187.965 314.076 188.413 314.888 188.413 315.728V315.91C187.755 315.672 187.055 315.532 186.397 315.532C184.759 315.532 183.457 316.512 183.457 317.94C183.457 319.34 184.605 320.25 186.145 320.25C186.985 320.25 187.881 319.886 188.413 319.228V320.082H190.079V315.728C190.079 313.894 188.903 312.676 186.985 312.676ZM186.523 319.004C185.711 319.004 185.095 318.57 185.095 317.884C185.095 317.198 185.795 316.722 186.649 316.722C187.279 316.722 187.881 316.82 188.413 316.988V317.814C188.231 318.584 187.349 319.004 186.523 319.004ZM196.006 312.676C195.04 312.676 194.2 313.138 193.766 313.824V312.844H192.058V320.082H193.766V315.7C193.766 314.818 194.55 314.132 195.53 314.132C196.426 314.132 197.042 314.818 197.042 315.812V320.082H198.708V315.476C198.708 313.824 197.602 312.676 196.006 312.676ZM205.865 312.844V313.908C205.347 313.152 204.423 312.676 203.387 312.676C201.525 312.676 200.139 314.09 200.139 316.106C200.139 318.122 201.525 319.55 203.387 319.55C204.409 319.55 205.291 319.102 205.865 318.332V319.256C205.865 320.348 204.969 321.034 203.541 321.034C202.687 321.034 201.833 320.74 201.329 320.278L200.699 321.524C201.399 322.084 202.561 322.49 203.807 322.49C206.019 322.49 207.587 321.174 207.587 319.312V312.844H205.865ZM203.877 318.094C202.729 318.094 201.903 317.268 201.903 316.106C201.903 314.958 202.729 314.132 203.877 314.132C205.039 314.132 205.865 314.958 205.865 316.106C205.865 317.268 205.039 318.094 203.877 318.094ZM212.914 318.878C211.794 318.878 210.996 318.094 210.814 316.96H216.428C216.428 314.328 215.112 312.676 212.872 312.676C210.8 312.676 209.162 314.258 209.162 316.442C209.162 318.668 210.884 320.25 212.97 320.25C214.02 320.25 215.28 319.802 215.91 319.13L214.93 318.122C214.468 318.57 213.642 318.878 212.914 318.878ZM212.886 314.048C213.978 314.048 214.622 314.804 214.776 315.826H210.828C211.052 314.748 211.85 314.048 212.886 314.048ZM282.381 342.878C281.261 342.878 280.463 342.094 280.281 340.96H285.895C285.895 338.328 284.579 336.676 282.339 336.676C280.267 336.676 278.629 338.258 278.629 340.442C278.629 342.668 280.351 344.25 282.437 344.25C283.487 344.25 284.747 343.802 285.377 343.13L284.397 342.122C283.935 342.57 283.109 342.878 282.381 342.878ZM282.353 338.048C283.445 338.048 284.089 338.804 284.243 339.826H280.295C280.519 338.748 281.317 338.048 282.353 338.048Z" fill="#FF4267"/>
<path d="M270.227 102.878C269.107 102.878 268.309 102.094 268.127 100.96H273.741C273.741 98.328 272.425 96.676 270.185 96.676C268.113 96.676 266.475 98.258 266.475 100.442C266.475 102.668 268.197 104.25 270.283 104.25C271.333 104.25 272.593 103.802 273.223 103.13L272.243 102.122C271.781 102.57 270.955 102.878 270.227 102.878ZM270.199 98.048C271.291 98.048 271.935 98.804 272.089 99.826H268.141C268.365 98.748 269.163 98.048 270.199 98.048ZM281.663 104.082L278.947 100.372L281.537 96.844H279.675L278.023 99.098L276.371 96.844H274.495L277.085 100.386L274.369 104.082H276.231L278.009 101.66L279.773 104.082H281.663ZM286.282 102.528C286.128 102.682 285.862 102.794 285.568 102.794C285.162 102.794 284.84 102.444 284.84 101.954V98.258H286.478V96.844H284.84V94.856H283.188V96.844H282.138V98.258H283.188V102.164C283.188 103.382 284.028 104.25 285.218 104.25C285.778 104.25 286.366 104.026 286.772 103.676L286.282 102.528ZM291.391 102.878C290.271 102.878 289.473 102.094 289.291 100.96H294.905C294.905 98.328 293.589 96.676 291.349 96.676C289.277 96.676 287.639 98.258 287.639 100.442C287.639 102.668 289.361 104.25 291.447 104.25C292.497 104.25 293.757 103.802 294.387 103.13L293.407 102.122C292.945 102.57 292.119 102.878 291.391 102.878ZM291.363 98.048C292.455 98.048 293.099 98.804 293.253 99.826H289.305C289.529 98.748 290.327 98.048 291.363 98.048ZM300.377 96.676C299.411 96.676 298.571 97.138 298.137 97.824V96.844H296.429V104.082H298.137V99.7C298.137 98.818 298.921 98.132 299.901 98.132C300.797 98.132 301.413 98.818 301.413 99.812V104.082H303.079V99.476C303.079 97.824 301.973 96.676 300.377 96.676ZM310.404 94.296V97.978C309.844 97.166 308.962 96.676 307.898 96.676C305.966 96.676 304.566 98.244 304.566 100.456C304.566 102.682 305.966 104.25 307.898 104.25C308.962 104.25 309.844 103.76 310.404 102.934V104.082H312.112V94.296H310.404ZM308.346 102.794C307.128 102.794 306.26 101.814 306.26 100.456C306.26 99.098 307.128 98.132 308.346 98.132C309.55 98.132 310.39 99.098 310.39 100.456C310.39 101.814 309.55 102.794 308.346 102.794ZM316.749 104.25C318.429 104.25 319.591 103.354 319.591 101.954C319.591 100.456 318.275 100.05 317.043 99.714C315.951 99.378 315.503 99.252 315.503 98.776C315.503 98.272 316.007 97.978 316.637 97.978C317.309 97.978 318.065 98.258 318.737 98.692L319.409 97.544C318.611 97.026 317.631 96.676 316.637 96.676C315.027 96.676 313.907 97.6 313.907 98.944C313.907 100.26 314.901 100.694 316.483 101.114C317.337 101.338 318.009 101.534 318.009 102.108C318.009 102.612 317.547 102.934 316.777 102.934C315.993 102.934 315.083 102.612 314.299 102.052L313.571 103.172C314.453 103.858 315.643 104.25 316.749 104.25ZM122.409 152.25C123.543 152.25 124.509 151.774 125.209 151.032L124.061 150.038C123.655 150.5 123.039 150.794 122.409 150.794C121.219 150.794 120.225 149.73 120.225 148.456C120.225 147.196 121.219 146.132 122.409 146.132C123.025 146.132 123.627 146.426 124.019 146.86L125.167 145.852C124.481 145.138 123.529 144.676 122.423 144.676C120.309 144.676 118.531 146.398 118.531 148.456C118.531 150.514 120.309 152.25 122.409 152.25ZM129.901 152.25C132.029 152.25 133.765 150.542 133.765 148.456C133.765 146.37 132.029 144.676 129.901 144.676C127.759 144.676 126.009 146.37 126.009 148.456C126.009 150.542 127.759 152.25 129.901 152.25ZM129.901 150.794C128.683 150.794 127.689 149.744 127.689 148.456C127.689 147.168 128.683 146.132 129.901 146.132C131.105 146.132 132.099 147.168 132.099 148.456C132.099 149.744 131.105 150.794 129.901 150.794ZM139.295 144.676C138.329 144.676 137.489 145.138 137.055 145.824V144.844H135.347V152.082H137.055V147.7C137.055 146.818 137.839 146.132 138.819 146.132C139.715 146.132 140.331 146.818 140.331 147.812V152.082H141.997V147.476C141.997 145.824 140.891 144.676 139.295 144.676ZM146.48 152.25C148.16 152.25 149.322 151.354 149.322 149.954C149.322 148.456 148.006 148.05 146.774 147.714C145.682 147.378 145.234 147.252 145.234 146.776C145.234 146.272 145.738 145.978 146.368 145.978C147.04 145.978 147.796 146.258 148.468 146.692L149.14 145.544C148.342 145.026 147.362 144.676 146.368 144.676C144.758 144.676 143.638 145.6 143.638 146.944C143.638 148.26 144.632 148.694 146.214 149.114C147.068 149.338 147.74 149.534 147.74 150.108C147.74 150.612 147.278 150.934 146.508 150.934C145.724 150.934 144.814 150.612 144.03 150.052L143.302 151.172C144.184 151.858 145.374 152.25 146.48 152.25ZM154.28 150.528C154.126 150.682 153.86 150.794 153.566 150.794C153.16 150.794 152.838 150.444 152.838 149.954V146.258H154.476V144.844H152.838V142.856H151.186V144.844H150.136V146.258H151.186V150.164C151.186 151.382 152.026 152.25 153.216 152.25C153.776 152.25 154.364 152.026 154.77 151.676L154.28 150.528ZM157.877 146.216V144.844H156.169V152.082H157.877V148.428C157.877 147.056 158.913 146.132 160.467 146.132V144.676C159.291 144.676 158.339 145.278 157.877 146.216ZM166.809 144.844V149.226C166.809 150.108 166.025 150.794 165.045 150.794C164.149 150.794 163.533 150.108 163.533 149.114V144.844H161.867V149.45C161.867 151.102 162.973 152.25 164.569 152.25C165.535 152.25 166.375 151.788 166.809 151.102V152.082H168.517V144.844H166.809ZM173.965 152.25C175.099 152.25 176.065 151.774 176.765 151.032L175.617 150.038C175.211 150.5 174.595 150.794 173.965 150.794C172.775 150.794 171.781 149.73 171.781 148.456C171.781 147.196 172.775 146.132 173.965 146.132C174.581 146.132 175.183 146.426 175.575 146.86L176.723 145.852C176.037 145.138 175.085 144.676 173.979 144.676C171.865 144.676 170.087 146.398 170.087 148.456C170.087 150.514 171.865 152.25 173.965 152.25ZM181.514 150.528C181.36 150.682 181.094 150.794 180.8 150.794C180.394 150.794 180.072 150.444 180.072 149.954V146.258H181.71V144.844H180.072V142.856H178.42V144.844H177.37V146.258H178.42V150.164C178.42 151.382 179.26 152.25 180.45 152.25C181.01 152.25 181.598 152.026 182.004 151.676L181.514 150.528ZM186.735 152.25C188.863 152.25 190.599 150.542 190.599 148.456C190.599 146.37 188.863 144.676 186.735 144.676C184.593 144.676 182.843 146.37 182.843 148.456C182.843 150.542 184.593 152.25 186.735 152.25ZM186.735 150.794C185.517 150.794 184.523 149.744 184.523 148.456C184.523 147.168 185.517 146.132 186.735 146.132C187.939 146.132 188.933 147.168 188.933 148.456C188.933 149.744 187.939 150.794 186.735 150.794ZM193.889 146.216V144.844H192.181V152.082H193.889V148.428C193.889 147.056 194.925 146.132 196.479 146.132V144.676C195.303 144.676 194.351 145.278 193.889 146.216ZM144.566 176.25C146.246 176.25 147.408 175.354 147.408 173.954C147.408 172.456 146.092 172.05 144.86 171.714C143.768 171.378 143.32 171.252 143.32 170.776C143.32 170.272 143.824 169.978 144.454 169.978C145.126 169.978 145.882 170.258 146.554 170.692L147.226 169.544C146.428 169.026 145.448 168.676 144.454 168.676C142.844 168.676 141.724 169.6 141.724 170.944C141.724 172.26 142.718 172.694 144.3 173.114C145.154 173.338 145.826 173.534 145.826 174.108C145.826 174.612 145.364 174.934 144.594 174.934C143.81 174.934 142.9 174.612 142.116 174.052L141.388 175.172C142.27 175.858 143.46 176.25 144.566 176.25ZM153.766 168.844V173.226C153.766 174.108 152.982 174.794 152.002 174.794C151.106 174.794 150.49 174.108 150.49 173.114V168.844H148.824V173.45C148.824 175.102 149.93 176.25 151.526 176.25C152.492 176.25 153.332 175.788 153.766 175.102V176.082H155.474V168.844H153.766ZM161.819 168.676C160.755 168.676 159.887 169.152 159.313 169.964V168.844H157.605V178.49H159.313V174.962C159.887 175.774 160.755 176.25 161.819 176.25C163.737 176.25 165.137 174.682 165.137 172.456C165.137 170.244 163.737 168.676 161.819 168.676ZM161.357 174.794C160.153 174.794 159.313 173.814 159.313 172.456C159.313 171.098 160.153 170.132 161.357 170.132C162.575 170.132 163.443 171.098 163.443 172.456C163.443 173.814 162.575 174.794 161.357 174.794ZM169.998 174.878C168.878 174.878 168.08 174.094 167.898 172.96H173.512C173.512 170.328 172.196 168.676 169.956 168.676C167.884 168.676 166.246 170.258 166.246 172.442C166.246 174.668 167.968 176.25 170.054 176.25C171.104 176.25 172.364 175.802 172.994 175.13L172.014 174.122C171.552 174.57 170.726 174.878 169.998 174.878ZM169.97 170.048C171.062 170.048 171.706 170.804 171.86 171.826H167.912C168.136 170.748 168.934 170.048 169.97 170.048ZM176.744 170.216V168.844H175.036V176.082H176.744V172.428C176.744 171.056 177.78 170.132 179.334 170.132V168.676C178.158 168.676 177.206 169.278 176.744 170.216Z" fill="#CB39FF"/>
<path d="M159.587 128.25C161.001 128.25 162.303 127.648 163.227 126.682L161.995 125.534C161.379 126.22 160.525 126.654 159.587 126.654C157.823 126.654 156.325 125.114 156.325 123.266C156.325 121.432 157.823 119.892 159.587 119.892C160.525 119.892 161.379 120.326 161.981 121.012L163.227 119.85C162.303 118.898 161.001 118.296 159.587 118.296C156.857 118.296 154.547 120.564 154.547 123.266C154.547 125.968 156.857 128.25 159.587 128.25ZM168.101 128.25C170.229 128.25 171.965 126.542 171.965 124.456C171.965 122.37 170.229 120.676 168.101 120.676C165.959 120.676 164.209 122.37 164.209 124.456C164.209 126.542 165.959 128.25 168.101 128.25ZM168.101 126.794C166.883 126.794 165.889 125.744 165.889 124.456C165.889 123.168 166.883 122.132 168.101 122.132C169.305 122.132 170.299 123.168 170.299 124.456C170.299 125.744 169.305 126.794 168.101 126.794ZM181.918 120.676C180.784 120.676 179.916 121.362 179.72 122.398C179.342 121.348 178.418 120.676 177.27 120.676C176.36 120.676 175.618 121.124 175.254 121.824V120.844H173.546V128.082H175.254V123.644C175.254 122.762 175.912 122.132 176.836 122.132C177.662 122.132 178.25 122.804 178.25 123.756V128.082H179.902V123.644C179.902 122.762 180.56 122.132 181.498 122.132C182.324 122.132 182.898 122.804 182.898 123.756V128.082H184.564V123.476C184.564 121.838 183.43 120.676 181.918 120.676ZM190.735 120.676C189.671 120.676 188.803 121.152 188.229 121.964V120.844H186.521V130.49H188.229V126.962C188.803 127.774 189.671 128.25 190.735 128.25C192.653 128.25 194.053 126.682 194.053 124.456C194.053 122.244 192.653 120.676 190.735 120.676ZM190.273 126.794C189.069 126.794 188.229 125.814 188.229 124.456C188.229 123.098 189.069 122.132 190.273 122.132C191.491 122.132 192.359 123.098 192.359 124.456C192.359 125.814 191.491 126.794 190.273 126.794ZM199.026 128.25C201.154 128.25 202.89 126.542 202.89 124.456C202.89 122.37 201.154 120.676 199.026 120.676C196.884 120.676 195.134 122.37 195.134 124.456C195.134 126.542 196.884 128.25 199.026 128.25ZM199.026 126.794C197.808 126.794 196.814 125.744 196.814 124.456C196.814 123.168 197.808 122.132 199.026 122.132C200.23 122.132 201.224 123.168 201.224 124.456C201.224 125.744 200.23 126.794 199.026 126.794ZM208.42 120.676C207.454 120.676 206.614 121.138 206.18 121.824V120.844H204.472V128.082H206.18V123.7C206.18 122.818 206.964 122.132 207.944 122.132C208.84 122.132 209.456 122.818 209.456 123.812V128.082H211.122V123.476C211.122 121.824 210.016 120.676 208.42 120.676ZM216.319 126.878C215.199 126.878 214.401 126.094 214.219 124.96H219.833C219.833 122.328 218.517 120.676 216.277 120.676C214.205 120.676 212.567 122.258 212.567 124.442C212.567 126.668 214.289 128.25 216.375 128.25C217.425 128.25 218.685 127.802 219.315 127.13L218.335 126.122C217.873 126.57 217.047 126.878 216.319 126.878ZM216.291 122.048C217.383 122.048 218.027 122.804 218.181 123.826H214.233C214.457 122.748 215.255 122.048 216.291 122.048ZM225.304 120.676C224.338 120.676 223.498 121.138 223.064 121.824V120.844H221.356V128.082H223.064V123.7C223.064 122.818 223.848 122.132 224.828 122.132C225.724 122.132 226.34 122.818 226.34 123.812V128.082H228.006V123.476C228.006 121.824 226.9 120.676 225.304 120.676ZM233.371 126.528C233.217 126.682 232.951 126.794 232.657 126.794C232.251 126.794 231.929 126.444 231.929 125.954V122.258H233.567V120.844H231.929V118.856H230.277V120.844H229.227V122.258H230.277V126.164C230.277 127.382 231.117 128.25 232.307 128.25C232.867 128.25 233.455 128.026 233.861 127.676L233.371 126.528ZM145.448 198.528C145.294 198.682 145.028 198.794 144.734 198.794C144.328 198.794 144.006 198.444 144.006 197.954V194.258H145.644V192.844H144.006V190.856H142.354V192.844H141.304V194.258H142.354V198.164C142.354 199.382 143.194 200.25 144.384 200.25C144.944 200.25 145.532 200.026 145.938 199.676L145.448 198.528ZM151.285 192.676C150.319 192.676 149.479 193.138 149.045 193.824V190.296H147.337V200.082H149.045V195.7C149.045 194.818 149.829 194.132 150.809 194.132C151.705 194.132 152.321 194.818 152.321 195.812V200.082H153.987V195.476C153.987 193.824 152.881 192.676 151.285 192.676ZM156.818 191.752C157.35 191.752 157.784 191.29 157.784 190.772C157.784 190.254 157.35 189.806 156.818 189.806C156.272 189.806 155.838 190.254 155.838 190.772C155.838 191.29 156.272 191.752 156.818 191.752ZM155.964 200.082H157.672V192.844H155.964V200.082ZM162.312 200.25C163.992 200.25 165.154 199.354 165.154 197.954C165.154 196.456 163.838 196.05 162.606 195.714C161.514 195.378 161.066 195.252 161.066 194.776C161.066 194.272 161.57 193.978 162.2 193.978C162.872 193.978 163.628 194.258 164.3 194.692L164.972 193.544C164.174 193.026 163.194 192.676 162.2 192.676C160.59 192.676 159.47 193.6 159.47 194.944C159.47 196.26 160.464 196.694 162.046 197.114C162.9 197.338 163.572 197.534 163.572 198.108C163.572 198.612 163.11 198.934 162.34 198.934C161.556 198.934 160.646 198.612 159.862 198.052L159.134 199.172C160.016 199.858 161.206 200.25 162.312 200.25ZM145.448 222.528C145.294 222.682 145.028 222.794 144.734 222.794C144.328 222.794 144.006 222.444 144.006 221.954V218.258H145.644V216.844H144.006V214.856H142.354V216.844H141.304V218.258H142.354V222.164C142.354 223.382 143.194 224.25 144.384 224.25C144.944 224.25 145.532 224.026 145.938 223.676L145.448 222.528ZM151.285 216.676C150.319 216.676 149.479 217.138 149.045 217.824V214.296H147.337V224.082H149.045V219.7C149.045 218.818 149.829 218.132 150.809 218.132C151.705 218.132 152.321 218.818 152.321 219.812V224.082H153.987V219.476C153.987 217.824 152.881 216.676 151.285 216.676ZM156.818 215.752C157.35 215.752 157.784 215.29 157.784 214.772C157.784 214.254 157.35 213.806 156.818 213.806C156.272 213.806 155.838 214.254 155.838 214.772C155.838 215.29 156.272 215.752 156.818 215.752ZM155.964 224.082H157.672V216.844H155.964V224.082ZM162.312 224.25C163.992 224.25 165.154 223.354 165.154 221.954C165.154 220.456 163.838 220.05 162.606 219.714C161.514 219.378 161.066 219.252 161.066 218.776C161.066 218.272 161.57 217.978 162.2 217.978C162.872 217.978 163.628 218.258 164.3 218.692L164.972 217.544C164.174 217.026 163.194 216.676 162.2 216.676C160.59 216.676 159.47 217.6 159.47 218.944C159.47 220.26 160.464 220.694 162.046 221.114C162.9 221.338 163.572 221.534 163.572 222.108C163.572 222.612 163.11 222.934 162.34 222.934C161.556 222.934 160.646 222.612 159.862 222.052L159.134 223.172C160.016 223.858 161.206 224.25 162.312 224.25ZM145.448 246.528C145.294 246.682 145.028 246.794 144.734 246.794C144.328 246.794 144.006 246.444 144.006 245.954V242.258H145.644V240.844H144.006V238.856H142.354V240.844H141.304V242.258H142.354V246.164C142.354 247.382 143.194 248.25 144.384 248.25C144.944 248.25 145.532 248.026 145.938 247.676L145.448 246.528ZM151.285 240.676C150.319 240.676 149.479 241.138 149.045 241.824V238.296H147.337V248.082H149.045V243.7C149.045 242.818 149.829 242.132 150.809 242.132C151.705 242.132 152.321 242.818 152.321 243.812V248.082H153.987V243.476C153.987 241.824 152.881 240.676 151.285 240.676ZM156.818 239.752C157.35 239.752 157.784 239.29 157.784 238.772C157.784 238.254 157.35 237.806 156.818 237.806C156.272 237.806 155.838 238.254 155.838 238.772C155.838 239.29 156.272 239.752 156.818 239.752ZM155.964 248.082H157.672V240.844H155.964V248.082ZM162.312 248.25C163.992 248.25 165.154 247.354 165.154 245.954C165.154 244.456 163.838 244.05 162.606 243.714C161.514 243.378 161.066 243.252 161.066 242.776C161.066 242.272 161.57 241.978 162.2 241.978C162.872 241.978 163.628 242.258 164.3 242.692L164.972 241.544C164.174 241.026 163.194 240.676 162.2 240.676C160.59 240.676 159.47 241.6 159.47 242.944C159.47 244.26 160.464 244.694 162.046 245.114C162.9 245.338 163.572 245.534 163.572 246.108C163.572 246.612 163.11 246.934 162.34 246.934C161.556 246.934 160.646 246.612 159.862 246.052L159.134 247.172C160.016 247.858 161.206 248.25 162.312 248.25ZM314.186 246.528C314.032 246.682 313.766 246.794 313.472 246.794C313.066 246.794 312.744 246.444 312.744 245.954V242.258H314.382V240.844H312.744V238.856H311.092V240.844H310.042V242.258H311.092V246.164C311.092 247.382 311.932 248.25 313.122 248.25C313.682 248.25 314.27 248.026 314.676 247.676L314.186 246.528ZM320.023 240.676C319.057 240.676 318.217 241.138 317.783 241.824V238.296H316.075V248.082H317.783V243.7C317.783 242.818 318.567 242.132 319.547 242.132C320.443 242.132 321.059 242.818 321.059 243.812V248.082H322.725V243.476C322.725 241.824 321.619 240.676 320.023 240.676ZM325.556 239.752C326.088 239.752 326.522 239.29 326.522 238.772C326.522 238.254 326.088 237.806 325.556 237.806C325.01 237.806 324.576 238.254 324.576 238.772C324.576 239.29 325.01 239.752 325.556 239.752ZM324.702 248.082H326.41V240.844H324.702V248.082ZM331.05 248.25C332.73 248.25 333.892 247.354 333.892 245.954C333.892 244.456 332.576 244.05 331.344 243.714C330.252 243.378 329.804 243.252 329.804 242.776C329.804 242.272 330.308 241.978 330.938 241.978C331.61 241.978 332.366 242.258 333.038 242.692L333.71 241.544C332.912 241.026 331.932 240.676 330.938 240.676C329.328 240.676 328.208 241.6 328.208 242.944C328.208 244.26 329.202 244.694 330.784 245.114C331.638 245.338 332.31 245.534 332.31 246.108C332.31 246.612 331.848 246.934 331.078 246.934C330.294 246.934 329.384 246.612 328.6 246.052L327.872 247.172C328.754 247.858 329.944 248.25 331.05 248.25ZM226.121 318.878C225.001 318.878 224.203 318.094 224.021 316.96H229.635C229.635 314.328 228.319 312.676 226.079 312.676C224.007 312.676 222.369 314.258 222.369 316.442C222.369 318.668 224.091 320.25 226.177 320.25C227.227 320.25 228.487 319.802 229.117 319.13L228.137 318.122C227.675 318.57 226.849 318.878 226.121 318.878ZM226.093 314.048C227.185 314.048 227.829 314.804 227.983 315.826H224.035C224.259 314.748 225.057 314.048 226.093 314.048ZM137.791 342.528C137.637 342.682 137.371 342.794 137.077 342.794C136.671 342.794 136.349 342.444 136.349 341.954V338.258H137.987V336.844H136.349V334.856H134.697V336.844H133.647V338.258H134.697V342.164C134.697 343.382 135.537 344.25 136.727 344.25C137.287 344.25 137.875 344.026 138.281 343.676L137.791 342.528ZM143.629 336.676C142.663 336.676 141.823 337.138 141.389 337.824V334.296H139.681V344.082H141.389V339.7C141.389 338.818 142.173 338.132 143.153 338.132C144.049 338.132 144.665 338.818 144.665 339.812V344.082H146.331V339.476C146.331 337.824 145.225 336.676 143.629 336.676ZM149.162 335.752C149.694 335.752 150.128 335.29 150.128 334.772C150.128 334.254 149.694 333.806 149.162 333.806C148.616 333.806 148.182 334.254 148.182 334.772C148.182 335.29 148.616 335.752 149.162 335.752ZM148.308 344.082H150.016V336.844H148.308V344.082ZM154.655 344.25C156.335 344.25 157.497 343.354 157.497 341.954C157.497 340.456 156.181 340.05 154.949 339.714C153.857 339.378 153.409 339.252 153.409 338.776C153.409 338.272 153.913 337.978 154.543 337.978C155.215 337.978 155.971 338.258 156.643 338.692L157.315 337.544C156.517 337.026 155.537 336.676 154.543 336.676C152.933 336.676 151.813 337.6 151.813 338.944C151.813 340.26 152.807 340.694 154.389 341.114C155.243 341.338 155.915 341.534 155.915 342.108C155.915 342.612 155.453 342.934 154.683 342.934C153.899 342.934 152.989 342.612 152.205 342.052L151.477 343.172C152.359 343.858 153.549 344.25 154.655 344.25ZM340.654 344.082H342.25L345.316 336.844H343.51L341.452 342.108L339.352 336.844H337.532L340.654 344.082ZM349.448 336.676C348.538 336.676 347.586 336.928 346.564 337.432L347.152 338.622C347.768 338.314 348.426 338.076 349.112 338.076C350.428 338.076 350.876 338.888 350.876 339.728V339.91C350.218 339.672 349.518 339.532 348.86 339.532C347.222 339.532 345.92 340.512 345.92 341.94C345.92 343.34 347.068 344.25 348.608 344.25C349.448 344.25 350.344 343.886 350.876 343.228V344.082H352.542V339.728C352.542 337.894 351.366 336.676 349.448 336.676ZM348.986 343.004C348.174 343.004 347.558 342.57 347.558 341.884C347.558 341.198 348.258 340.722 349.112 340.722C349.742 340.722 350.344 340.82 350.876 340.988V341.814C350.694 342.584 349.812 343.004 348.986 343.004ZM354.521 344.082H356.229V334.296H354.521V344.082ZM363.15 336.844V341.226C363.15 342.108 362.366 342.794 361.386 342.794C360.49 342.794 359.874 342.108 359.874 341.114V336.844H358.208V341.45C358.208 343.102 359.314 344.25 360.91 344.25C361.876 344.25 362.716 343.788 363.15 343.102V344.082H364.858V336.844H363.15ZM370.209 342.878C369.089 342.878 368.291 342.094 368.109 340.96H373.723C373.723 338.328 372.407 336.676 370.167 336.676C368.095 336.676 366.457 338.258 366.457 340.442C366.457 342.668 368.179 344.25 370.265 344.25C371.315 344.25 372.575 343.802 373.205 343.13L372.225 342.122C371.763 342.57 370.937 342.878 370.209 342.878ZM370.181 338.048C371.273 338.048 371.917 338.804 372.071 339.826H368.123C368.347 338.748 369.145 338.048 370.181 338.048Z" fill="#1DE4FF"/>
<path d="M175.361 240.676C174.395 240.676 173.555 241.138 173.121 241.824V238.296H171.413V248.082H173.121V243.7C173.121 242.818 173.905 242.132 174.885 242.132C175.781 242.132 176.397 242.818 176.397 243.812V248.082H178.063V243.476C178.063 241.824 176.957 240.676 175.361 240.676ZM182.938 240.676C182.028 240.676 181.076 240.928 180.054 241.432L180.642 242.622C181.258 242.314 181.916 242.076 182.602 242.076C183.918 242.076 184.366 242.888 184.366 243.728V243.91C183.708 243.672 183.008 243.532 182.35 243.532C180.712 243.532 179.41 244.512 179.41 245.94C179.41 247.34 180.558 248.25 182.098 248.25C182.938 248.25 183.834 247.886 184.366 247.228V248.082H186.032V243.728C186.032 241.894 184.856 240.676 182.938 240.676ZM182.476 247.004C181.664 247.004 181.048 246.57 181.048 245.884C181.048 245.198 181.748 244.722 182.602 244.722C183.232 244.722 183.834 244.82 184.366 244.988V245.814C184.184 246.584 183.302 247.004 182.476 247.004ZM191.959 240.676C190.993 240.676 190.153 241.138 189.719 241.824V240.844H188.011V248.082H189.719V243.7C189.719 242.818 190.503 242.132 191.483 242.132C192.379 242.132 192.995 242.818 192.995 243.812V248.082H194.661V243.476C194.661 241.824 193.555 240.676 191.959 240.676ZM201.986 238.296V241.978C201.426 241.166 200.544 240.676 199.48 240.676C197.548 240.676 196.148 242.244 196.148 244.456C196.148 246.682 197.548 248.25 199.48 248.25C200.544 248.25 201.426 247.76 201.986 246.934V248.082H203.694V238.296H201.986ZM199.928 246.794C198.71 246.794 197.842 245.814 197.842 244.456C197.842 243.098 198.71 242.132 199.928 242.132C201.132 242.132 201.972 243.098 201.972 244.456C201.972 245.814 201.132 246.794 199.928 246.794ZM205.825 248.082H207.533V238.296H205.825V248.082ZM212.887 246.878C211.767 246.878 210.969 246.094 210.787 244.96H216.401C216.401 242.328 215.085 240.676 212.845 240.676C210.773 240.676 209.135 242.258 209.135 244.442C209.135 246.668 210.857 248.25 212.943 248.25C213.993 248.25 215.253 247.802 215.883 247.13L214.903 246.122C214.441 246.57 213.615 246.878 212.887 246.878ZM212.859 242.048C213.951 242.048 214.595 242.804 214.749 243.826H210.801C211.025 242.748 211.823 242.048 212.859 242.048ZM222.601 248.25C224.015 248.25 225.317 247.648 226.241 246.682L225.009 245.534C224.393 246.22 223.539 246.654 222.601 246.654C220.837 246.654 219.339 245.114 219.339 243.266C219.339 241.432 220.837 239.892 222.601 239.892C223.539 239.892 224.393 240.326 224.995 241.012L226.241 239.85C225.317 238.898 224.015 238.296 222.601 238.296C219.871 238.296 217.561 240.564 217.561 243.266C217.561 245.968 219.871 248.25 222.601 248.25ZM231.73 240.676C230.764 240.676 229.924 241.138 229.49 241.824V238.296H227.782V248.082H229.49V243.7C229.49 242.818 230.274 242.132 231.254 242.132C232.15 242.132 232.766 242.818 232.766 243.812V248.082H234.432V243.476C234.432 241.824 233.326 240.676 231.73 240.676ZM239.307 240.676C238.397 240.676 237.445 240.928 236.423 241.432L237.011 242.622C237.627 242.314 238.285 242.076 238.971 242.076C240.287 242.076 240.735 242.888 240.735 243.728V243.91C240.077 243.672 239.377 243.532 238.719 243.532C237.081 243.532 235.779 244.512 235.779 245.94C235.779 247.34 236.927 248.25 238.467 248.25C239.307 248.25 240.203 247.886 240.735 247.228V248.082H242.401V243.728C242.401 241.894 241.225 240.676 239.307 240.676ZM238.845 247.004C238.033 247.004 237.417 246.57 237.417 245.884C237.417 245.198 238.117 244.722 238.971 244.722C239.601 244.722 240.203 244.82 240.735 244.988V245.814C240.553 246.584 239.671 247.004 238.845 247.004ZM248.328 240.676C247.362 240.676 246.522 241.138 246.088 241.824V240.844H244.38V248.082H246.088V243.7C246.088 242.818 246.872 242.132 247.852 242.132C248.748 242.132 249.364 242.818 249.364 243.812V248.082H251.03V243.476C251.03 241.824 249.924 240.676 248.328 240.676ZM258.187 240.844V241.908C257.669 241.152 256.745 240.676 255.709 240.676C253.847 240.676 252.461 242.09 252.461 244.106C252.461 246.122 253.847 247.55 255.709 247.55C256.731 247.55 257.613 247.102 258.187 246.332V247.256C258.187 248.348 257.291 249.034 255.863 249.034C255.009 249.034 254.155 248.74 253.651 248.278L253.021 249.524C253.721 250.084 254.883 250.49 256.129 250.49C258.341 250.49 259.909 249.174 259.909 247.312V240.844H258.187ZM256.199 246.094C255.051 246.094 254.225 245.268 254.225 244.106C254.225 242.958 255.051 242.132 256.199 242.132C257.361 242.132 258.187 242.958 258.187 244.106C258.187 245.268 257.361 246.094 256.199 246.094ZM265.237 246.878C264.117 246.878 263.319 246.094 263.137 244.96H268.751C268.751 242.328 267.435 240.676 265.195 240.676C263.123 240.676 261.485 242.258 261.485 244.442C261.485 246.668 263.207 248.25 265.293 248.25C266.343 248.25 267.603 247.802 268.233 247.13L267.253 246.122C266.791 246.57 265.965 246.878 265.237 246.878ZM265.209 242.048C266.301 242.048 266.945 242.804 267.099 243.826H263.151C263.375 242.748 264.173 242.048 265.209 242.048Z" fill="#2FF2B8"/>
<circle cx="40.0113" cy="32.3517" r="6.09386" fill="#FF4267"/>
<circle cx="76.3868" cy="32.3517" r="6.09386" fill="#2FF2B8"/>
<circle cx="58.1988" cy="32.3517" r="6.09386" fill="#FFCD42"/>
<g filter="url(#filter1_d_2926_24378)">
<rect x="446.751" y="11.1592" width="229.249" height="185.071" rx="25" fill="white"/>
<rect x="447.251" y="11.6592" width="228.249" height="184.071" rx="24.5" stroke="#EFF0F7"/>
</g>
<path d="M536.083 153.915C538.393 153.915 539.695 152.697 539.695 150.975C539.695 149.225 538.351 148.581 536.349 148.133C534.823 147.783 534.123 147.503 534.123 146.719C534.123 146.047 534.767 145.473 535.747 145.473C536.699 145.473 537.665 145.879 538.491 146.593L539.443 145.319C538.491 144.493 537.329 143.975 535.803 143.975C533.787 143.975 532.359 145.193 532.359 146.873C532.359 148.679 533.731 149.253 535.719 149.715C537.259 150.079 537.945 150.345 537.945 151.143C537.945 151.829 537.329 152.417 536.153 152.417C534.893 152.417 533.871 151.913 532.989 151.115L531.967 152.361C533.031 153.355 534.445 153.915 536.083 153.915ZM542.266 145.431C542.798 145.431 543.232 144.969 543.232 144.451C543.232 143.933 542.798 143.485 542.266 143.485C541.72 143.485 541.286 143.933 541.286 144.451C541.286 144.969 541.72 145.431 542.266 145.431ZM541.412 153.761H543.12V146.523H541.412V153.761ZM548.642 152.207C548.488 152.361 548.222 152.473 547.928 152.473C547.522 152.473 547.2 152.123 547.2 151.633V147.937H548.838V146.523H547.2V144.535H545.548V146.523H544.498V147.937H545.548V151.843C545.548 153.061 546.388 153.929 547.578 153.929C548.138 153.929 548.726 153.705 549.132 153.355L548.642 152.207ZM553.752 152.557C552.632 152.557 551.834 151.773 551.652 150.639H557.266C557.266 148.007 555.95 146.355 553.71 146.355C551.638 146.355 550 147.937 550 150.121C550 152.347 551.722 153.929 553.808 153.929C554.858 153.929 556.118 153.481 556.748 152.809L555.768 151.801C555.306 152.249 554.48 152.557 553.752 152.557ZM553.724 147.727C554.816 147.727 555.46 148.483 555.614 149.505H551.666C551.89 148.427 552.688 147.727 553.724 147.727ZM562.617 153.761H564.325V143.975H562.617V153.761ZM569.791 153.929C571.919 153.929 573.655 152.221 573.655 150.135C573.655 148.049 571.919 146.355 569.791 146.355C567.649 146.355 565.899 148.049 565.899 150.135C565.899 152.221 567.649 153.929 569.791 153.929ZM569.791 152.473C568.573 152.473 567.579 151.423 567.579 150.135C567.579 148.847 568.573 147.811 569.791 147.811C570.995 147.811 571.989 148.847 571.989 150.135C571.989 151.423 570.995 152.473 569.791 152.473ZM578.135 146.355C577.225 146.355 576.273 146.607 575.251 147.111L575.839 148.301C576.455 147.993 577.113 147.755 577.799 147.755C579.115 147.755 579.563 148.567 579.563 149.407V149.589C578.905 149.351 578.205 149.211 577.547 149.211C575.909 149.211 574.607 150.191 574.607 151.619C574.607 153.019 575.755 153.929 577.295 153.929C578.135 153.929 579.031 153.565 579.563 152.907V153.761H581.229V149.407C581.229 147.573 580.053 146.355 578.135 146.355ZM577.673 152.683C576.861 152.683 576.245 152.249 576.245 151.563C576.245 150.877 576.945 150.401 577.799 150.401C578.429 150.401 579.031 150.499 579.563 150.667V151.493C579.381 152.263 578.499 152.683 577.673 152.683ZM588.555 143.975V147.657C587.995 146.845 587.113 146.355 586.049 146.355C584.117 146.355 582.717 147.923 582.717 150.135C582.717 152.361 584.117 153.929 586.049 153.929C587.113 153.929 587.995 153.439 588.555 152.613V153.761H590.263V143.975H588.555ZM586.497 152.473C585.279 152.473 584.411 151.493 584.411 150.135C584.411 148.777 585.279 147.811 586.497 147.811C587.701 147.811 588.541 148.777 588.541 150.135C588.541 151.493 587.701 152.473 586.497 152.473Z" fill="#6E7191"/>
<path d="M535.999 129.965H540.374V105.92H536.874L530.119 110.505L531.869 113.585L535.999 110.96V129.965ZM549.483 130.385C550.953 130.385 552.178 129.125 552.178 127.585C552.178 126.15 550.953 124.89 549.483 124.89C547.908 124.89 546.683 126.15 546.683 127.585C546.683 129.125 547.908 130.385 549.483 130.385ZM556.622 129.965H574.297V125.975H563.412L568.452 121.915C572.582 118.73 574.052 116.175 574.052 112.99C574.052 108.545 570.412 105.5 565.652 105.5C561.767 105.5 558.862 107.215 556.587 110.19L559.422 112.815C561.172 110.715 562.992 109.42 565.512 109.42C567.682 109.42 569.607 110.82 569.607 113.095C569.607 115.055 568.522 116.875 565.477 119.325L556.622 126.395V129.965ZM585.032 130.385C589.232 130.385 592.137 128.145 592.137 124.645C592.137 120.9 588.847 119.885 585.767 119.045C583.037 118.205 581.917 117.89 581.917 116.7C581.917 115.44 583.177 114.705 584.752 114.705C586.432 114.705 588.322 115.405 590.002 116.49L591.682 113.62C589.687 112.325 587.237 111.45 584.752 111.45C580.727 111.45 577.927 113.76 577.927 117.12C577.927 120.41 580.412 121.495 584.367 122.545C586.502 123.105 588.182 123.595 588.182 125.03C588.182 126.29 587.027 127.095 585.102 127.095C583.142 127.095 580.867 126.29 578.907 124.89L577.087 127.69C579.292 129.405 582.267 130.385 585.032 130.385Z" fill="#211F54"/>
<path d="M489.773 131.329C489.773 112.339 497.317 94.1263 510.745 80.6981C524.173 67.27 542.385 59.7261 561.376 59.7261C580.366 59.7261 598.579 67.27 612.007 80.6981C625.435 94.1263 632.979 112.339 632.979 131.329" stroke="#EFF0F7" stroke-width="21.2022" stroke-linecap="round"/>
<path d="M489.773 131.207C489.791 120.678 492.131 110.282 496.626 100.76C501.121 91.2387 507.661 82.8256 515.78 76.1205C523.898 69.4155 533.396 64.5835 543.595 61.9688C553.795 59.3542 564.446 59.0212 574.789 60.9936" stroke="#2FF2B8" stroke-width="21.2022" stroke-linecap="round"/>
<g filter="url(#filter2_d_2926_24378)">
<rect x="446.751" y="221.585" width="229.249" height="185" rx="25" fill="white"/>
<rect x="447.251" y="222.085" width="228.249" height="184" rx="24.5" stroke="#EFF0F7"/>
</g>
<circle cx="499.803" cy="380.008" r="3.77934" fill="#7D42FB"/>
<path d="M513.649 383.943C514.904 383.943 516.06 383.409 516.88 382.551L515.787 381.532C515.24 382.141 514.482 382.526 513.649 382.526C512.083 382.526 510.753 381.159 510.753 379.519C510.753 377.891 512.083 376.524 513.649 376.524C514.482 376.524 515.24 376.909 515.774 377.518L516.88 376.486C516.06 375.641 514.904 375.107 513.649 375.107C511.225 375.107 509.175 377.12 509.175 379.519C509.175 381.917 511.225 383.943 513.649 383.943ZM521.753 377.22C520.896 377.22 520.15 377.63 519.765 378.239V375.107H518.249V383.794H519.765V379.904C519.765 379.121 520.461 378.512 521.331 378.512C522.126 378.512 522.673 379.121 522.673 380.003V383.794H524.152V379.705C524.152 378.239 523.17 377.22 521.753 377.22ZM527.423 378.587V377.369H525.907V383.794H527.423V380.55C527.423 379.332 528.343 378.512 529.722 378.512V377.22C528.678 377.22 527.833 377.754 527.423 378.587ZM534.059 383.943C535.948 383.943 537.489 382.427 537.489 380.575C537.489 378.723 535.948 377.22 534.059 377.22C532.158 377.22 530.604 378.723 530.604 380.575C530.604 382.427 532.158 383.943 534.059 383.943ZM534.059 382.651C532.978 382.651 532.096 381.718 532.096 380.575C532.096 379.432 532.978 378.512 534.059 378.512C535.128 378.512 536.01 379.432 536.01 380.575C536.01 381.718 535.128 382.651 534.059 382.651ZM546.325 377.22C545.318 377.22 544.548 377.829 544.374 378.748C544.038 377.816 543.218 377.22 542.199 377.22C541.391 377.22 540.732 377.617 540.409 378.239V377.369H538.893V383.794H540.409V379.854C540.409 379.071 540.993 378.512 541.814 378.512C542.547 378.512 543.069 379.109 543.069 379.954V383.794H544.535V379.854C544.535 379.071 545.119 378.512 545.952 378.512C546.685 378.512 547.195 379.109 547.195 379.954V383.794H548.674V379.705C548.674 378.251 547.667 377.22 546.325 377.22ZM553.269 382.725C552.275 382.725 551.567 382.029 551.405 381.023H556.389C556.389 378.686 555.22 377.22 553.232 377.22C551.393 377.22 549.939 378.624 549.939 380.563C549.939 382.539 551.467 383.943 553.319 383.943C554.251 383.943 555.37 383.545 555.929 382.949L555.059 382.054C554.649 382.452 553.915 382.725 553.269 382.725ZM553.244 378.437C554.214 378.437 554.785 379.109 554.922 380.016H551.417C551.616 379.059 552.325 378.437 553.244 378.437Z" fill="#6E7191"/>
<circle cx="582.075" cy="379.523" r="3.72839" fill="#FF4267"/>
<path d="M594.913 383.931C596.963 383.931 598.119 382.849 598.119 381.321C598.119 379.767 596.926 379.196 595.149 378.798C593.794 378.487 593.173 378.239 593.173 377.543C593.173 376.946 593.744 376.437 594.614 376.437C595.459 376.437 596.317 376.797 597.05 377.431L597.895 376.3C597.05 375.567 596.019 375.107 594.664 375.107C592.874 375.107 591.607 376.188 591.607 377.679C591.607 379.283 592.825 379.792 594.59 380.202C595.957 380.525 596.566 380.762 596.566 381.47C596.566 382.079 596.019 382.601 594.975 382.601C593.856 382.601 592.949 382.153 592.166 381.445L591.259 382.551C592.203 383.434 593.459 383.931 594.913 383.931ZM602.217 377.22C601.409 377.22 600.564 377.443 599.656 377.891L600.178 378.947C600.725 378.674 601.309 378.462 601.918 378.462C603.086 378.462 603.484 379.183 603.484 379.929V380.09C602.9 379.879 602.279 379.755 601.695 379.755C600.24 379.755 599.085 380.625 599.085 381.892C599.085 383.135 600.104 383.943 601.471 383.943C602.217 383.943 603.012 383.62 603.484 383.036V383.794H604.963V379.929C604.963 378.301 603.919 377.22 602.217 377.22ZM601.806 382.837C601.086 382.837 600.539 382.452 600.539 381.843C600.539 381.234 601.16 380.811 601.918 380.811C602.478 380.811 603.012 380.898 603.484 381.047V381.781C603.323 382.464 602.54 382.837 601.806 382.837ZM608.484 376.834C608.484 376.399 608.758 376.089 609.118 376.089C609.379 376.089 609.615 376.188 609.752 376.325L610.187 375.355C609.827 375.045 609.305 374.846 608.82 374.846C607.751 374.846 607.005 375.616 607.005 376.698V377.369H606.073V378.624H607.005V383.794H608.484V378.624H609.938V377.369H608.484V376.834ZM613.649 377.22C612.841 377.22 611.996 377.443 611.089 377.891L611.611 378.947C612.158 378.674 612.742 378.462 613.351 378.462C614.519 378.462 614.917 379.183 614.917 379.929V380.09C614.333 379.879 613.711 379.755 613.127 379.755C611.673 379.755 610.517 380.625 610.517 381.892C610.517 383.135 611.537 383.943 612.904 383.943C613.649 383.943 614.445 383.62 614.917 383.036V383.794H616.396V379.929C616.396 378.301 615.352 377.22 613.649 377.22ZM613.239 382.837C612.518 382.837 611.971 382.452 611.971 381.843C611.971 381.234 612.593 380.811 613.351 380.811C613.91 380.811 614.445 380.898 614.917 381.047V381.781C614.755 382.464 613.972 382.837 613.239 382.837ZM619.669 378.587V377.369H618.152V383.794H619.669V380.55C619.669 379.332 620.588 378.512 621.968 378.512V377.22C620.924 377.22 620.079 377.754 619.669 378.587ZM624.105 376.399C624.577 376.399 624.963 375.989 624.963 375.529C624.963 375.07 624.577 374.672 624.105 374.672C623.62 374.672 623.235 375.07 623.235 375.529C623.235 375.989 623.62 376.399 624.105 376.399ZM623.347 383.794H624.863V377.369H623.347V383.794Z" fill="#6E7191"/>
<path d="M511.064 253.755H516.132C517.966 253.755 519.282 252.691 519.282 251.151C519.282 250.087 518.638 249.191 517.518 248.687C518.372 248.239 518.862 247.525 518.862 246.545C518.862 245.145 517.658 244.137 515.936 244.137H511.064V253.755ZM513.122 248.015V245.901H515.432C516.202 245.901 516.748 246.349 516.748 246.951C516.748 247.567 516.202 248.015 515.432 248.015H513.122ZM513.122 251.991V249.639H515.74C516.58 249.639 517.168 250.129 517.168 250.815C517.168 251.501 516.58 251.991 515.74 251.991H513.122ZM522.974 247.875V246.517H520.93V253.755H522.974V250.297C522.974 248.939 523.94 248.071 525.452 248.071V246.349C524.346 246.349 523.45 246.937 522.974 247.875ZM530.389 253.923C532.559 253.923 534.337 252.215 534.337 250.129C534.337 248.043 532.559 246.349 530.389 246.349C528.219 246.349 526.441 248.043 526.441 250.129C526.441 252.215 528.219 253.923 530.389 253.923ZM530.389 252.201C529.297 252.201 528.401 251.263 528.401 250.129C528.401 248.995 529.297 248.071 530.389 248.071C531.481 248.071 532.363 248.995 532.363 250.129C532.363 251.263 531.481 252.201 530.389 252.201ZM537.471 253.755H539.305L540.663 249.205L542.021 253.755H543.855L546.305 246.517H544.303L542.945 251.025L541.503 246.517H539.809L538.381 251.025L537.009 246.517H535.007L537.471 253.755ZM550.14 253.923C551.918 253.923 553.094 253.013 553.094 251.585C553.094 250.003 551.694 249.583 550.448 249.261C549.468 248.995 549.062 248.883 549.062 248.491C549.062 248.085 549.482 247.819 550.042 247.819C550.7 247.819 551.484 248.141 552.142 248.561L552.884 247.245C552.086 246.713 551.064 246.349 550.042 246.349C548.32 246.349 547.214 247.329 547.214 248.701C547.214 250.129 548.362 250.535 549.846 250.899C550.644 251.095 551.232 251.291 551.232 251.753C551.232 252.173 550.868 252.425 550.182 252.425C549.398 252.425 548.446 252.075 547.704 251.543L546.878 252.831C547.746 253.531 548.978 253.923 550.14 253.923ZM557.853 252.341C556.859 252.341 556.187 251.655 556.005 250.675H561.451C561.451 247.987 560.079 246.349 557.811 246.349C555.697 246.349 554.059 247.931 554.059 250.115C554.059 252.341 555.767 253.923 557.923 253.923C558.987 253.923 560.233 253.475 560.877 252.803L559.729 251.627C559.267 252.047 558.525 252.341 557.853 252.341ZM557.839 247.931C558.749 247.931 559.323 248.561 559.491 249.457H556.019C556.243 248.533 556.929 247.931 557.839 247.931ZM564.878 247.875V246.517H562.834V253.755H564.878V250.297C564.878 248.939 565.844 248.071 567.356 248.071V246.349C566.25 246.349 565.354 246.937 564.878 247.875ZM577.382 246.517V250.801C577.382 251.585 576.724 252.201 575.87 252.201C575.058 252.201 574.484 251.585 574.484 250.689V246.517H572.524V251.123C572.524 252.775 573.63 253.923 575.212 253.923C576.136 253.923 576.934 253.517 577.382 252.873V253.755H579.426V246.517H577.382ZM584.033 253.923C585.811 253.923 586.987 253.013 586.987 251.585C586.987 250.003 585.587 249.583 584.341 249.261C583.361 248.995 582.955 248.883 582.955 248.491C582.955 248.085 583.375 247.819 583.935 247.819C584.593 247.819 585.377 248.141 586.035 248.561L586.777 247.245C585.979 246.713 584.957 246.349 583.935 246.349C582.213 246.349 581.107 247.329 581.107 248.701C581.107 250.129 582.255 250.535 583.739 250.899C584.537 251.095 585.125 251.291 585.125 251.753C585.125 252.173 584.761 252.425 584.075 252.425C583.291 252.425 582.339 252.075 581.597 251.543L580.771 252.831C581.639 253.531 582.871 253.923 584.033 253.923ZM591.48 246.349C590.472 246.349 589.478 246.629 588.456 247.147L589.142 248.505C589.716 248.211 590.346 247.987 591.018 247.987C592.208 247.987 592.698 248.659 592.698 249.429V249.583C592.082 249.331 591.424 249.205 590.836 249.205C589.17 249.205 587.84 250.185 587.84 251.613C587.84 252.999 589.016 253.923 590.556 253.923C591.354 253.923 592.18 253.601 592.698 253.027V253.755H594.672V249.429C594.672 247.539 593.37 246.349 591.48 246.349ZM591.018 252.509C590.318 252.509 589.786 252.145 589.786 251.557C589.786 250.969 590.388 250.535 591.13 250.535C591.69 250.535 592.236 250.633 592.698 250.815V251.473C592.544 252.145 591.802 252.509 591.018 252.509ZM601.577 246.517V247.497C601.087 246.811 600.149 246.349 599.183 246.349C597.349 246.349 595.963 247.763 595.963 249.779C595.963 251.795 597.349 253.223 599.183 253.223C600.149 253.223 601.003 252.803 601.577 252.089V252.901C601.577 253.839 600.737 254.441 599.421 254.441C598.581 254.441 597.727 254.175 597.251 253.755L596.537 255.197C597.265 255.757 598.455 256.163 599.729 256.163C602.011 256.163 603.621 254.847 603.621 252.985V246.517H601.577ZM599.827 251.501C598.805 251.501 598.077 250.787 598.077 249.779C598.077 248.771 598.805 248.071 599.827 248.071C600.849 248.071 601.577 248.771 601.577 249.779C601.577 250.787 600.849 251.501 599.827 251.501ZM608.904 252.341C607.91 252.341 607.238 251.655 607.056 250.675H612.502C612.502 247.987 611.13 246.349 608.862 246.349C606.748 246.349 605.11 247.931 605.11 250.115C605.11 252.341 606.818 253.923 608.974 253.923C610.038 253.923 611.284 253.475 611.928 252.803L610.78 251.627C610.318 252.047 609.576 252.341 608.904 252.341ZM608.89 247.931C609.8 247.931 610.374 248.561 610.542 249.457H607.07C607.294 248.533 607.98 247.931 608.89 247.931Z" fill="#211F54"/>
<line x1="464.259" y1="360.27" x2="658.493" y2="360.27" stroke="#EFF0F7"/>
<path d="M519.243 274.462C519.243 271.148 521.929 268.462 525.243 268.462H547.876C551.189 268.462 553.876 271.148 553.876 274.462V360.583H519.243V274.462Z" fill="#7D42FB"/>
<path d="M568.876 330.75C568.876 327.436 571.562 324.75 574.876 324.75H597.508C600.822 324.75 603.508 327.436 603.508 330.75V360.584H568.876V330.75Z" fill="#FF4267"/>
<defs>
<filter id="filter0_d_2926_24378" x="0" y="0.392578" width="433.751" height="421.192" filterUnits="userSpaceOnUse" color-interpolation-filters="sRGB">
<feFlood flood-opacity="0" result="BackgroundImageFix"/>
<feColorMatrix in="SourceAlpha" type="matrix" values="0 0 0 0 0 0 0 0 0 0 0 0 0 0 0 0 0 0 127 0" result="hardAlpha"/>
<feOffset dy="3"/>
<feGaussianBlur stdDeviation="6"/>
<feComposite in2="hardAlpha" operator="out"/>
<feColorMatrix type="matrix" values="0 0 0 0 0.127552 0 0 0 0 0.123438 0 0 0 0 0.329167 0 0 0 0.04 0"/>
<feBlend mode="normal" in2="BackgroundImageFix" result="effect1_dropShadow_2926_24378"/>
<feBlend mode="normal" in="SourceGraphic" in2="effect1_dropShadow_2926_24378" result="shape"/>
</filter>
<filter id="filter1_d_2926_24378" x="434.751" y="2.15918" width="253.249" height="209.071" filterUnits="userSpaceOnUse" color-interpolation-filters="sRGB">
<feFlood flood-opacity="0" result="BackgroundImageFix"/>
<feColorMatrix in="SourceAlpha" type="matrix" values="0 0 0 0 0 0 0 0 0 0 0 0 0 0 0 0 0 0 127 0" result="hardAlpha"/>
<feOffset dy="3"/>
<feGaussianBlur stdDeviation="6"/>
<feComposite in2="hardAlpha" operator="out"/>
<feColorMatrix type="matrix" values="0 0 0 0 0.127552 0 0 0 0 0.123438 0 0 0 0 0.329167 0 0 0 0.04 0"/>
<feBlend mode="normal" in2="BackgroundImageFix" result="effect1_dropShadow_2926_24378"/>
<feBlend mode="normal" in="SourceGraphic" in2="effect1_dropShadow_2926_24378" result="shape"/>
</filter>
<filter id="filter2_d_2926_24378" x="434.751" y="212.585" width="253.249" height="209" filterUnits="userSpaceOnUse" color-interpolation-filters="sRGB">
<feFlood flood-opacity="0" result="BackgroundImageFix"/>
<feColorMatrix in="SourceAlpha" type="matrix" values="0 0 0 0 0 0 0 0 0 0 0 0 0 0 0 0 0 0 127 0" result="hardAlpha"/>
<feOffset dy="3"/>
<feGaussianBlur stdDeviation="6"/>
<feComposite in2="hardAlpha" operator="out"/>
<feColorMatrix type="matrix" values="0 0 0 0 0.127552 0 0 0 0 0.123438 0 0 0 0 0.329167 0 0 0 0.04 0"/>
<feBlend mode="normal" in2="BackgroundImageFix" result="effect1_dropShadow_2926_24378"/>
<feBlend mode="normal" in="SourceGraphic" in2="effect1_dropShadow_2926_24378" result="shape"/>
</filter>
</defs>
</svg>
