<svg width="72" height="72" viewBox="0 0 72 72" fill="none" xmlns="http://www.w3.org/2000/svg">
<rect width="72" height="72" rx="16" fill="#2FF2B8"/>
<mask id="mask0_2984_40692" style="mask-type:alpha" maskUnits="userSpaceOnUse" x="13" y="10" width="46" height="52">
<path d="M33.9962 10.541C35.2338 9.82646 36.7586 9.82646 37.9962 10.541L56.6584 21.3156C57.896 22.0302 58.6584 23.3507 58.6584 24.7797V46.329C58.6584 47.7581 57.896 49.0786 56.6584 49.7931L37.9962 60.5678C36.7586 61.2823 35.2338 61.2823 33.9962 60.5677L15.334 49.7931C14.0964 49.0786 13.334 47.7581 13.334 46.329L13.334 24.7797C13.334 23.3507 14.0964 22.0302 15.334 21.3156L33.9962 10.541Z" fill="#C4C4C4"/>
</mask>
<g mask="url(#mask0_2984_40692)">
<path d="M35.9998 35.6104L35.9998 9.45767L58.6487 22.534L35.9998 35.6104Z" fill="white"/>
<path opacity="0.6" d="M35.9998 61.7072L35.9998 35.5545L58.6487 48.6308L35.9998 61.7072Z" fill="white"/>
<path opacity="0.6" d="M36.0002 35.6104L36.0002 9.45767L13.3513 22.534L36.0002 35.6104Z" fill="white"/>
<path d="M36.0002 61.7072L36.0002 35.5545L13.3513 48.6308L36.0002 61.7072Z" fill="white"/>
<path opacity="0.8" d="M36 35.5545L58.6489 22.4781L58.6489 48.6309L36 35.5545Z" fill="white"/>
<path opacity="0.8" d="M35.9961 35.5545L13.3472 22.4781L13.3472 48.6309L35.9961 35.5545Z" fill="white"/>
</g>
</svg>
