<svg width="160" height="32" viewBox="0 0 160 32" fill="none" xmlns="http://www.w3.org/2000/svg">
<path d="M10.136 31.1673H4.10704V15.9773H0V11.0317H4.10688V7.51256C4.10688 3.34239 5.92336 0.351562 11.936 0.351562C13.2077 0.351562 15.2042 0.610622 15.2042 0.610622V5.20286H13.1072C10.9706 5.20286 10.1363 5.85973 10.1363 7.67573V11.0317H15.1242L14.68 15.9773H10.1362L10.136 31.1673ZM23.9696 10.6365C23.8818 10.6365 23.7914 10.6397 23.7019 10.642C18.1115 10.642 15.5538 14.892 15.5538 20.9251C15.5538 28.5252 18.8715 31.5669 23.7456 31.5669C26.5342 31.5669 28.3664 30.3806 29.48 28.1668V31.1694H35.2144V11.0338H29.48V14.1304C28.5707 12.1381 26.6874 10.6601 23.9696 10.6365ZM25.4277 15.3945C27.7757 15.3945 29.185 17.0497 29.185 19.8653L29.1904 22.7409C29.1904 24.6386 28.0264 26.8587 25.4277 26.8587C21.4325 26.8587 21.5392 22.4987 21.5392 21.0466C21.5392 16.1618 23.6678 15.3945 25.4277 15.3945ZM37.5302 21.1027C37.5302 18.6558 37.4144 10.6496 47.735 10.6496C51.8779 10.6496 53.6078 11.9809 53.6078 11.9809L52.2174 16.3395C52.2174 16.3395 50.4898 15.378 48.2386 15.378C45.3552 15.378 43.5154 17.0674 43.5154 20.0397L43.5186 22.1711C43.5186 25.0272 45.2938 26.9338 48.2445 26.9338C50.2954 26.9338 52.1856 25.9632 52.1856 25.9632L53.5725 30.2307C53.5725 30.2307 51.9907 31.5705 47.764 31.5705C37.9371 31.5705 37.5304 24.3873 37.5304 21.1027H37.5302ZM87.2307 10.642C92.8213 10.642 95.4194 14.892 95.4194 20.9251C95.4194 28.5252 92.1014 31.5669 87.2274 31.5669C84.4387 31.5669 82.3773 30.3808 81.2637 28.1668V31.1694L75.6014 31.1672V0.963796L81.6133 0.433873V13.8576C82.481 11.5091 85.3325 10.642 87.2309 10.642H87.2307ZM85.5453 15.3945C83.1973 15.3945 81.6133 17.0497 81.6133 19.8653L81.6077 22.7409C81.6042 24.6386 82.7046 26.8587 85.5453 26.8587C89.5405 26.8587 89.4338 22.4987 89.4338 21.0466C89.4338 16.1618 87.3053 15.3945 85.5453 15.3945ZM64.0389 10.6586C57.6981 10.6586 54.3506 14.1527 54.3506 20.362V21.5157C54.3506 29.5748 59.0515 31.6497 64.656 31.6497C70.1035 31.6497 72.5693 30.1097 72.5693 30.1097L71.4443 26.0088C71.4443 26.0088 68.5438 27.2561 65.3768 27.2561C62.0936 27.2561 60.6816 26.4103 60.3197 23.2214H73.0499V19.9314C73.0499 13.1959 69.293 10.6585 64.0387 10.6585L64.0389 10.6586ZM64.1917 14.7651C66.3866 14.7651 67.8088 16.1254 67.7307 19.2802H60.3307C60.459 15.9598 61.9928 14.7653 64.1917 14.7653V14.7651ZM107.407 10.631C100.895 10.631 97.4672 14.3396 97.4672 20.9858C97.4672 30.1046 103.376 31.5724 107.418 31.5724C113.334 31.5724 117.27 28.3533 117.27 21.0685C117.27 13.4865 112.844 10.631 107.407 10.631V10.631ZM107.325 15.411C110.188 15.411 111.323 17.5767 111.323 20.042V22.1615C111.323 25.148 109.735 26.8754 107.314 26.8754C105.05 26.8754 103.458 25.2596 103.458 22.1615V20.042C103.458 16.738 105.352 15.411 107.325 15.411V15.411ZM129.246 10.631C122.735 10.631 119.307 14.3396 119.307 20.9858C119.307 30.1046 125.216 31.5724 129.257 31.5724C135.173 31.5724 139.109 28.3533 139.109 21.0685C139.109 13.4865 134.684 10.631 129.246 10.631V10.631ZM129.164 15.411C132.028 15.411 133.162 17.5767 133.162 20.042V22.1615C133.162 25.148 131.575 26.8754 129.154 26.8754C126.889 26.8754 125.298 25.2596 125.298 22.1615V20.042C125.298 16.738 127.192 15.411 129.164 15.411V15.411ZM141.381 31.1673V0.963796L147.411 0.433873V20.6782L153.392 11.0317H159.76L153.52 21.0226L160 31.1673H153.615L147.411 21.3169V31.1673H141.381Z" fill="#0084FF"/>
</svg>
