<svg width="172" height="34" viewBox="0 0 172 34" fill="none" xmlns="http://www.w3.org/2000/svg">
<g clip-path="url(#clip0_2944_28022)">
<path d="M10.8963 33.3043H4.4151V16.9749H0V11.6583H4.41493V7.87525C4.41493 3.39228 6.36766 0.177124 12.8313 0.177124C14.1984 0.177124 16.3446 0.455615 16.3446 0.455615V5.39231H14.0903C11.7934 5.39231 10.8966 6.09844 10.8966 8.05066V11.6583H16.2586L15.7811 16.9749H10.8964L10.8963 33.3043ZM25.7675 11.2335C25.6731 11.2335 25.5759 11.237 25.4797 11.2394C19.47 11.2394 16.7204 15.8082 16.7204 22.2938C16.7204 30.4639 20.287 33.7339 25.5267 33.7339C28.5245 33.7339 30.4941 32.4586 31.6912 30.0787V33.3066H37.8557V11.6606H31.6912V14.9895C30.7137 12.8478 28.6891 11.2589 25.7675 11.2335ZM27.3349 16.3484C29.8591 16.3484 31.374 18.1278 31.374 21.1545L31.3799 24.2459C31.3799 26.2859 30.1286 28.6725 27.3349 28.6725C23.0401 28.6725 23.1548 23.9855 23.1548 22.4244C23.1548 17.1732 25.4431 16.3484 27.3349 16.3484ZM40.3453 22.4847C40.3453 19.8544 40.2208 11.2476 51.3155 11.2476C55.7691 11.2476 57.6288 12.6788 57.6288 12.6788L56.1341 17.3643C56.1341 17.3643 54.2769 16.3306 51.8568 16.3306C48.7572 16.3306 46.7793 18.1467 46.7793 21.3421L46.7828 23.6333C46.7828 26.7036 48.6911 28.7532 51.8632 28.7532C54.0679 28.7532 56.0999 27.7098 56.0999 27.7098L57.5908 32.2974C57.5908 32.2974 55.8904 33.7377 51.3467 33.7377C40.7827 33.7377 40.3455 26.0157 40.3455 22.4847H40.3453ZM93.7737 11.2394C99.7836 11.2394 102.577 15.8082 102.577 22.2938C102.577 30.4639 99.0097 33.7339 93.7701 33.7339C90.7723 33.7339 88.5562 32.4588 87.3591 30.0787V33.3066L81.2721 33.3041V0.83528L87.7349 0.265608V14.6962C88.6676 12.1715 91.733 11.2394 93.7738 11.2394H93.7737ZM91.9618 16.3484C89.4377 16.3484 87.7349 18.1278 87.7349 21.1545L87.7289 24.2459C87.7251 26.2859 88.9081 28.6725 91.9618 28.6725C96.2567 28.6725 96.142 23.9855 96.142 22.4244C96.142 17.1732 93.8538 16.3484 91.9618 16.3484ZM68.8423 11.2573C62.0259 11.2573 58.4273 15.0134 58.4273 21.6885V22.9287C58.4273 31.5923 63.4808 33.8229 69.5057 33.8229C75.3618 33.8229 78.0125 32.1674 78.0125 32.1674L76.8032 27.7588C76.8032 27.7588 73.6851 29.0997 70.2805 29.0997C66.7511 29.0997 65.2332 28.1905 64.8441 24.7624H78.5292V21.2256C78.5292 13.9848 74.4904 11.2571 68.8421 11.2571L68.8423 11.2573ZM69.0065 15.6718C71.366 15.6718 72.895 17.1341 72.811 20.5255H64.856C64.9939 16.9561 66.6427 15.672 69.0065 15.672V15.6718ZM115.463 11.2276C108.463 11.2276 104.778 15.2144 104.778 22.359C104.778 32.1618 111.13 33.7398 115.475 33.7398C121.835 33.7398 126.066 30.2792 126.066 22.448C126.066 14.2972 121.308 11.2276 115.463 11.2276V11.2276ZM115.375 16.3661C118.453 16.3661 119.673 18.6943 119.673 21.3445V23.623C119.673 26.8335 117.966 28.6904 115.363 28.6904C112.929 28.6904 111.218 26.9534 111.218 23.623V21.3445C111.218 17.7926 113.254 16.3661 115.375 16.3661V16.3661ZM138.941 11.2276C131.941 11.2276 128.256 15.2144 128.256 22.359C128.256 32.1618 134.608 33.7398 138.953 33.7398C145.312 33.7398 149.544 30.2792 149.544 22.448C149.544 14.2972 144.786 11.2276 138.941 11.2276V11.2276ZM138.853 16.3661C141.931 16.3661 143.15 18.6943 143.15 21.3445V23.623C143.15 26.8335 141.444 28.6904 138.841 28.6904C136.407 28.6904 134.696 26.9534 134.696 23.623V21.3445C134.696 17.7926 136.732 16.3661 138.853 16.3661V16.3661ZM151.986 33.3043V0.83528L158.467 0.265608V22.0284L164.898 11.6583H171.743L165.035 22.3987L172.001 33.3043H165.137L158.467 22.7151V33.3043H151.986Z" fill="#0084FF"/>
</g>
<defs>
<clipPath id="clip0_2944_28022">
<rect width="172" height="34" fill="white"/>
</clipPath>
</defs>
</svg>
