<svg width="1336" height="448" viewBox="0 0 1336 448" fill="none" xmlns="http://www.w3.org/2000/svg">
<mask id="mask0_2976_37313" style="mask-type:alpha" maskUnits="userSpaceOnUse" x="0" y="0" width="1336" height="448">
<rect width="1336" height="448" fill="#563AFF"/>
</mask>
<g mask="url(#mask0_2976_37313)">
<g opacity="0.6">
<path opacity="0.3" fill-rule="evenodd" clip-rule="evenodd" d="M765.707 677.928C742.895 696.372 704.571 692.051 671.398 694.552C640.531 696.88 610.403 699.481 579.668 691.958C543.485 683.103 498.007 676.029 481.301 648.027C464.475 619.822 497.806 592.562 502.735 563.006C507.196 536.26 485.245 501.469 508.717 483.639C532.439 465.621 574.472 485.97 607.877 483.141C638.683 480.535 665.44 458.717 695.693 467.82C726.4 477.06 742.303 504.997 758.525 528.47C774.358 551.382 786.277 575.354 787.493 600.651C788.825 628.369 788.737 659.301 765.707 677.928Z" stroke="white"/>
<path opacity="0.3" fill-rule="evenodd" clip-rule="evenodd" d="M815.874 710.876C784.654 736.13 732.229 730.25 686.85 733.699C644.624 736.916 603.408 740.503 561.378 730.235C511.895 718.154 449.698 708.516 426.884 670.223C403.904 631.652 449.533 594.33 456.314 553.892C462.451 517.297 432.472 469.722 464.602 445.31C497.074 420.639 554.544 448.436 600.24 444.54C642.384 440.948 679.011 411.075 720.381 423.502C762.372 436.115 784.088 474.319 806.248 506.418C827.876 537.748 844.147 570.532 845.779 605.144C847.562 643.055 847.401 685.373 815.874 710.876Z" stroke="white"/>
<path opacity="0.3" fill-rule="evenodd" clip-rule="evenodd" d="M861.189 740.639C822.368 772.045 757.213 764.759 700.809 769.066C648.329 773.073 597.102 777.552 544.861 764.816C483.367 749.813 406.067 737.864 377.736 690.272C349.199 642.34 405.935 595.93 414.39 545.662C422.041 500.173 384.81 441.05 424.757 410.691C465.132 380.011 536.545 414.538 593.344 409.675C645.723 405.191 691.271 368.046 742.68 383.473C794.868 399.13 821.834 446.612 849.36 486.502C876.223 525.436 896.425 566.179 898.429 609.201C900.618 656.323 900.391 708.924 861.189 740.639Z" stroke="white"/>
<path opacity="0.3" fill-rule="evenodd" clip-rule="evenodd" d="M903.266 768.273C857.388 805.381 780.414 796.79 713.771 801.9C651.759 806.658 591.233 811.949 529.523 796.919C456.872 779.211 365.553 765.11 332.098 708.887C298.4 652.265 365.454 597.413 375.46 538.018C384.517 484.27 340.552 414.424 387.764 378.545C435.473 342.281 519.837 383.061 586.946 377.299C648.83 371.991 702.659 328.087 763.393 346.302C825.04 364.791 856.882 420.882 889.386 468.005C921.108 513.999 944.962 562.133 947.315 612.965C949.883 668.641 949.594 730.791 903.266 768.273Z" stroke="white"/>
<path opacity="0.3" fill-rule="evenodd" clip-rule="evenodd" d="M946.959 796.97C893.752 840.016 804.501 830.059 727.227 836.003C655.325 841.523 585.141 847.675 513.594 830.249C429.362 809.734 323.476 793.41 284.7 728.226C245.645 662.568 323.406 598.952 335.028 530.08C345.546 467.755 294.587 386.773 349.341 345.161C404.677 303.106 502.48 350.372 580.294 343.68C652.053 337.509 714.483 286.595 784.897 307.701C856.37 329.13 893.275 394.164 930.945 448.798C967.714 502.128 995.36 557.933 998.071 616.875C1001.04 681.433 1000.69 753.498 946.959 796.97Z" stroke="white"/>
<path opacity="0.3" fill-rule="evenodd" clip-rule="evenodd" d="M1000.37 832.041C938.204 882.34 833.947 870.732 743.681 877.672C659.687 884.138 577.702 891.341 494.129 871C395.739 847.053 272.055 827.993 226.779 751.848C181.173 675.159 272.023 600.837 285.619 520.379C297.92 447.57 238.417 352.98 302.386 304.359C367.035 255.223 481.271 310.422 572.17 302.59C655.996 295.368 728.932 235.88 811.183 260.526C894.67 285.542 937.761 361.512 981.752 425.323C1024.69 487.612 1056.97 552.8 1060.12 621.654C1063.57 697.068 1063.14 781.253 1000.37 832.041Z" stroke="white"/>
<path opacity="0.3" fill-rule="evenodd" clip-rule="evenodd" d="M1058.63 870.302C986.693 928.503 866.067 915.093 761.624 923.141C664.442 930.629 569.581 938.981 472.889 915.455C359.057 887.754 215.955 865.721 163.585 777.629C110.834 688.903 215.967 602.891 231.712 509.796C245.96 425.552 177.132 316.114 251.157 259.849C325.968 202.987 458.127 266.836 563.304 257.763C660.293 249.396 744.693 180.554 839.855 209.061C936.445 237.995 986.289 325.884 1037.17 399.714C1086.84 471.779 1124.17 547.202 1127.8 626.866C1131.78 714.125 1131.27 811.528 1058.63 870.302Z" stroke="white"/>
<path opacity="0.3" fill-rule="evenodd" clip-rule="evenodd" d="M1115.27 907.5C1033.83 973.394 897.291 958.223 779.074 967.341C669.069 975.832 561.692 985.293 452.242 958.672C323.394 927.331 161.417 902.395 102.149 802.694C42.452 702.26 161.469 604.889 179.305 499.507C195.447 404.144 117.557 280.272 201.354 216.575C286.045 152.202 435.634 224.463 554.686 214.182C664.473 204.701 760.02 126.767 867.732 159.025C977.062 191.768 1033.47 291.249 1091.06 374.814C1147.26 456.384 1189.51 541.755 1193.61 631.934C1198.1 730.708 1197.5 840.963 1115.27 907.5Z" stroke="white"/>
<path opacity="0.3" fill-rule="evenodd" clip-rule="evenodd" d="M1167.05 941.515C1076.93 1014.44 925.846 997.657 795.022 1007.76C673.291 1017.16 554.468 1027.64 433.363 998.184C290.786 963.515 111.551 935.932 45.9748 825.608C-20.0722 714.472 111.638 606.717 131.388 490.1C149.26 384.571 63.0788 247.501 155.817 177.009C249.54 105.769 415.063 185.722 546.803 174.335C668.292 163.835 774.029 77.5872 893.217 113.276C1014.2 149.501 1076.6 259.581 1140.32 352.053C1202.51 442.313 1249.25 536.78 1253.78 636.571C1258.73 745.869 1258.06 867.881 1167.05 941.515Z" stroke="white"/>
<path opacity="0.3" fill-rule="evenodd" clip-rule="evenodd" d="M1222.08 977.649C1122.73 1058.04 956.185 1039.55 811.973 1050.7C677.784 1061.07 546.808 1072.62 413.306 1040.16C256.148 1001.96 58.5687 971.569 -13.703 849.946C-86.5003 727.45 58.698 608.655 80.4792 480.107C100.188 363.777 5.20099 212.688 107.437 134.974C210.756 56.4363 393.213 144.563 538.429 132.001C672.353 120.417 788.919 25.3362 920.3 64.6697C1053.65 104.594 1122.44 225.937 1192.66 327.866C1261.2 427.359 1312.72 531.489 1317.7 641.494C1323.16 761.978 1322.4 896.477 1222.08 977.649Z" stroke="white"/>
<path opacity="0.3" fill-rule="evenodd" clip-rule="evenodd" d="M1281.96 1016.97C1172.57 1105.49 989.197 1085.15 830.417 1097.43C682.673 1108.85 538.458 1121.58 391.478 1085.86C218.443 1043.79 0.912474 1010.34 -78.6517 876.444C-158.794 741.572 1.08534 610.768 25.0764 469.228C46.7878 341.143 -57.7811 174.788 54.787 89.2232C168.551 2.74674 369.427 99.7646 529.321 85.9276C676.768 73.1673 805.119 -31.5261 949.769 11.7746C1096.59 55.7249 1172.31 189.321 1249.62 301.546C1325.08 411.088 1381.79 525.737 1387.27 646.854C1393.26 779.508 1392.42 927.599 1281.96 1016.97Z" stroke="white"/>
</g>
</g>
</svg>
