<svg width="12" height="12" viewBox="0 0 12 12" fill="none" xmlns="http://www.w3.org/2000/svg">
<g id="file-heart-02">
<path id="Icon" d="M10 5V3.4C10 2.55992 10 2.13988 9.83651 1.81901C9.6927 1.53677 9.46323 1.3073 9.18099 1.16349C8.86012 1 8.44008 1 7.6 1H4.4C3.55992 1 3.13988 1 2.81901 1.16349C2.53677 1.3073 2.3073 1.53677 2.16349 1.81901C2 2.13988 2 2.55992 2 3.4V8.6C2 9.44008 2 9.86012 2.16349 10.181C2.3073 10.4632 2.53677 10.6927 2.81901 10.8365C3.13988 11 3.55992 11 4.4 11H6M6.25 5.5H4M4.5 7.5H4M8 3.5H4M8.49863 7.4153C8.09876 6.9608 7.43195 6.83854 6.93094 7.25472C6.42993 7.67091 6.35939 8.36675 6.75284 8.85897C7.14629 9.35119 8.49863 10.5 8.49863 10.5C8.49863 10.5 9.85097 9.35119 10.2444 8.85897C10.6379 8.36675 10.5759 7.66653 10.0663 7.25472C9.5567 6.84292 8.8985 6.9608 8.49863 7.4153Z" stroke="#EB5857" stroke-width="0.7" stroke-linecap="round" stroke-linejoin="round"/>
</g>
</svg>
