<svg width="114" height="18" viewBox="0 0 114 18" fill="none" xmlns="http://www.w3.org/2000/svg">
<g clip-path="url(#clip0_2941_28665)">
<path d="M8.37264 15.2912C8.72096 15.081 9.15707 15.081 9.50538 15.2912L13.0879 17.4535C13.918 17.9546 14.942 17.2103 14.7217 16.2661L13.7709 12.1912C13.6784 11.795 13.813 11.3802 14.1206 11.1137L17.2873 8.3705C18.0201 7.73566 17.6283 6.5319 16.6622 6.44997L12.4953 6.09656C12.0902 6.06221 11.7374 5.80647 11.5788 5.43217L9.94814 1.58495C9.57046 0.693869 8.30757 0.693868 7.92988 1.58495L6.29922 5.43217C6.14058 5.80647 5.78779 6.06221 5.38272 6.09656L1.21578 6.44997C0.249678 6.5319 -0.142072 7.73567 0.590758 8.3705L3.75745 11.1137C4.06498 11.3802 4.19963 11.795 4.10717 12.1912L3.15636 16.2661C2.93605 17.2103 3.96003 17.9546 4.79009 17.4535L8.37264 15.2912Z" fill="#FFCD42"/>
</g>
<g clip-path="url(#clip1_2941_28665)">
<path d="M32.4032 15.2912C32.7515 15.081 33.1876 15.081 33.5359 15.2912L37.1184 17.4535C37.9485 17.9546 38.9725 17.2103 38.7522 16.2661L37.8014 12.1912C37.7089 11.795 37.8436 11.3802 38.1511 11.1137L41.3178 8.3705C42.0506 7.73566 41.6589 6.5319 40.6928 6.44997L36.5258 6.09656C36.1208 6.06221 35.768 5.80647 35.6093 5.43217L33.9787 1.58495C33.601 0.693869 32.3381 0.693868 31.9604 1.58495L30.3297 5.43217C30.1711 5.80647 29.8183 6.06221 29.4132 6.09656L25.2463 6.44997C24.2802 6.5319 23.8884 7.73567 24.6213 8.3705L27.788 11.1137C28.0955 11.3802 28.2301 11.795 28.1377 12.1912L27.1869 16.2661C26.9666 17.2103 27.9905 17.9546 28.8206 17.4535L32.4032 15.2912Z" fill="#FFCD42"/>
</g>
<g clip-path="url(#clip2_2941_28665)">
<path d="M56.4339 15.2912C56.7822 15.081 57.2183 15.081 57.5667 15.2912L61.1492 17.4535C61.9793 17.9546 63.0033 17.2103 62.7829 16.2661L61.8321 12.1912C61.7397 11.795 61.8743 11.3802 62.1819 11.1137L65.3485 8.3705C66.0814 7.73566 65.6896 6.5319 64.7235 6.44997L60.5566 6.09656C60.1515 6.06221 59.7987 5.80647 59.6401 5.43217L58.0094 1.58495C57.6317 0.693869 56.3688 0.693868 55.9912 1.58495L54.3605 5.43217C54.2019 5.80647 53.8491 6.06221 53.444 6.09656L49.2771 6.44997C48.311 6.5319 47.9192 7.73567 48.652 8.3705L51.8187 11.1137C52.1263 11.3802 52.2609 11.795 52.1685 12.1912L51.2176 16.2661C50.9973 17.2103 52.0213 17.9546 52.8514 17.4535L56.4339 15.2912Z" fill="#FFCD42"/>
</g>
<g clip-path="url(#clip3_2941_28665)">
<path d="M80.4644 15.2912C80.8128 15.081 81.2489 15.081 81.5972 15.2912L85.1797 17.4535C86.0098 17.9546 87.0338 17.2103 86.8135 16.2661L85.8626 12.1912C85.7702 11.795 85.9048 11.3802 86.2124 11.1137L89.3791 8.3705C90.1119 7.73566 89.7201 6.5319 88.754 6.44997L84.5871 6.09656C84.182 6.06221 83.8292 5.80647 83.6706 5.43217L82.0399 1.58495C81.6623 0.693869 80.3994 0.693868 80.0217 1.58495L78.391 5.43217C78.2324 5.80647 77.8796 6.06221 77.4745 6.09656L73.3076 6.44997C72.3415 6.5319 71.9497 7.73567 72.6826 8.3705L75.8492 11.1137C76.1568 11.3802 76.2914 11.795 76.199 12.1912L75.2482 16.2661C75.0278 17.2103 76.0518 17.9546 76.8819 17.4535L80.4644 15.2912Z" fill="#FFCD42"/>
</g>
<g clip-path="url(#clip4_2941_28665)">
<path d="M104.495 15.2912C104.843 15.081 105.279 15.081 105.628 15.2912L109.21 17.4535C110.04 17.9546 111.064 17.2103 110.844 16.2661L109.893 12.1912C109.801 11.795 109.935 11.3802 110.243 11.1137L113.41 8.3705C114.142 7.73566 113.751 6.5319 112.785 6.44997L108.618 6.09656C108.213 6.06221 107.86 5.80647 107.701 5.43217L106.07 1.58495C105.693 0.693869 104.43 0.693868 104.052 1.58495L102.422 5.43217C102.263 5.80647 101.91 6.06221 101.505 6.09656L97.3381 6.44997C96.372 6.5319 95.9802 7.73567 96.7131 8.3705L99.8798 11.1137C100.187 11.3802 100.322 11.795 100.229 12.1912L99.2787 16.2661C99.0584 17.2103 100.082 17.9546 100.912 17.4535L104.495 15.2912Z" fill="#FFCD42"/>
</g>
<defs>
<clipPath id="clip0_2941_28665">
<rect width="17.8106" height="17.8106" fill="white" transform="translate(0.0336914 0.0947266)"/>
</clipPath>
<clipPath id="clip1_2941_28665">
<rect width="17.8106" height="17.8106" fill="white" transform="translate(24.0642 0.0947266)"/>
</clipPath>
<clipPath id="clip2_2941_28665">
<rect width="17.8106" height="17.8106" fill="white" transform="translate(48.095 0.0947266)"/>
</clipPath>
<clipPath id="clip3_2941_28665">
<rect width="17.8106" height="17.8106" fill="white" transform="translate(72.1255 0.0947266)"/>
</clipPath>
<clipPath id="clip4_2941_28665">
<rect width="17.8106" height="17.8106" fill="white" transform="translate(96.156 0.0947266)"/>
</clipPath>
</defs>
</svg>
