<svg width="60" height="60" viewBox="0 0 60 60" fill="none" xmlns="http://www.w3.org/2000/svg">
<rect width="60" height="60" rx="14.5732" fill="#FF4267"/>
<path fill-rule="evenodd" clip-rule="evenodd" d="M30.0021 10.5522C40.7429 10.5522 49.4495 19.2589 49.4495 29.9997C49.4495 33.401 48.5705 36.5962 47.0361 39.3792C44.9871 43.3662 39.3816 47.0337 39.3816 47.0337C36.5987 48.5681 33.4035 49.4471 30.0021 49.4471C19.2613 49.4471 10.5547 40.7405 10.5547 29.9997C10.5547 19.2589 19.2613 10.5522 30.0021 10.5522ZM26.5272 36.2289C25.7668 36.9893 24.5358 36.9893 23.7773 36.2289C23.0169 35.4705 23.0169 34.2375 23.7773 33.4791L26.0468 30.5444C26.7275 29.6635 27.1417 28.6055 27.2429 27.497L28.0616 18.3315C28.0616 17.258 28.9328 16.3867 30.0063 16.3867C31.0798 16.3867 31.9511 17.258 31.9511 18.3315L32.692 27.8315C32.8379 29.6985 32.0775 31.5227 30.6481 32.7342L26.5272 36.2289Z" fill="white"/>
<path opacity="0.35" d="M23.7773 36.2289C24.5358 36.9893 25.7668 36.9893 26.5272 36.2289L30.6481 32.7342C32.0775 31.5227 32.8379 29.6985 32.692 27.8315L31.9511 18.3315C31.9511 17.258 31.0798 16.3867 30.0063 16.3867C28.9328 16.3867 28.0616 17.258 28.0616 18.3315L27.2429 27.497C27.1417 28.6055 26.7275 29.6635 26.0468 30.5444L23.7773 33.4791C23.0169 34.2375 23.0169 35.4705 23.7773 36.2289Z" fill="white"/>
</svg>
