<svg width="274" height="120" viewBox="0 0 274 120" fill="none" xmlns="http://www.w3.org/2000/svg">
<g clip-path="url(#clip0_3004_43894)">
<g filter="url(#filter0_d_3004_43894)">
<circle cx="197.257" cy="21.575" r="12.532" fill="#FFCD42"/>
<circle cx="197.257" cy="21.575" r="12.532" stroke="white" stroke-width="3"/>
</g>
<g opacity="0.6">
<path opacity="0.3" fill-rule="evenodd" clip-rule="evenodd" d="M568.976 -71.5173C555.111 -46.1417 518.591 -35.6834 489.321 -20.9451C462.086 -7.22538 435.626 6.46312 404.824 11.1495C368.562 16.6719 324.505 27.3074 298.815 8.06449C272.939 -11.3184 293.089 -48.6795 286.517 -77.4653C280.57 -103.515 247.564 -126.974 262.266 -152.038C277.124 -177.369 323.012 -174.616 352.371 -189.739C379.448 -203.686 395.647 -233.619 426.6 -236.687C458.019 -239.801 482.953 -220.316 506.509 -205.019C529.501 -190.087 549.323 -172.719 559.899 -150.119C571.481 -125.364 582.976 -97.1423 568.976 -71.5173Z" stroke="white"/>
<path opacity="0.3" fill-rule="evenodd" clip-rule="evenodd" d="M607.307 -64.1225C590.068 -32.5668 544.686 -19.5544 508.31 -1.22235C474.464 15.8345 441.582 32.8617 403.305 38.7046C358.245 45.5747 303.498 58.8119 271.585 34.8901C239.441 10.798 264.495 -35.6609 256.343 -71.4502C248.966 -103.837 207.965 -132.998 226.241 -164.165C244.713 -195.663 301.731 -192.253 338.218 -211.063C371.866 -228.409 392.01 -265.631 430.472 -269.454C469.515 -273.337 500.488 -249.114 529.753 -230.099C558.315 -211.54 582.937 -189.949 596.067 -161.852C610.445 -131.076 624.715 -95.9884 607.307 -64.1225Z" stroke="white"/>
<path opacity="0.3" fill-rule="evenodd" clip-rule="evenodd" d="M642.901 -57.2597C622.526 -19.9721 568.917 -4.5884 525.943 17.0855C485.956 37.2558 447.105 57.3736 401.893 64.2845C348.663 72.4126 283.991 88.0604 246.299 59.7957C208.337 31.3329 237.947 -23.5755 228.325 -65.8679C219.619 -104.14 171.195 -138.594 192.794 -175.429C214.62 -212.656 281.975 -208.632 325.081 -230.868C364.832 -251.37 388.637 -295.362 434.072 -299.885C480.19 -304.476 516.771 -275.858 551.333 -253.392C585.066 -231.463 614.147 -205.953 629.65 -172.75C646.625 -136.382 663.473 -94.9193 642.901 -57.2597Z" stroke="white"/>
<path opacity="0.3" fill-rule="evenodd" clip-rule="evenodd" d="M679.865 -50.1287C656.238 -6.87788 594.079 10.962 544.255 36.1066C497.891 59.4954 452.846 82.8345 400.427 90.8476C338.716 100.281 263.734 118.443 220.043 85.6704C176.036 52.6588 210.373 -11.0202 199.229 -60.0663C189.144 -104.45 133.009 -144.402 158.059 -187.121C183.375 -230.295 261.457 -225.638 311.436 -251.428C357.526 -275.212 385.136 -326.23 437.809 -331.482C491.276 -336.809 533.68 -303.624 573.742 -277.573C612.847 -252.144 646.555 -222.565 664.521 -184.061C684.198 -141.888 703.722 -93.8059 679.865 -50.1287Z" stroke="white"/>
<path opacity="0.3" fill-rule="evenodd" clip-rule="evenodd" d="M725.041 -41.4212C697.439 9.11499 624.836 29.97 566.633 59.3394C512.478 86.674 459.862 113.948 398.636 123.317C326.557 134.347 238.975 155.567 187.95 117.278C136.557 78.7177 176.673 4.32081 163.667 -52.9807C151.895 -104.834 86.3405 -151.504 115.605 -201.417C145.181 -251.86 236.38 -246.425 294.759 -276.563C348.596 -304.355 380.851 -363.962 442.376 -370.102C504.825 -376.335 554.347 -337.564 601.134 -307.135C646.803 -277.432 686.169 -242.875 707.145 -197.892C730.12 -148.623 752.914 -92.4493 725.041 -41.4212Z" stroke="white"/>
<path opacity="0.3" fill-rule="evenodd" clip-rule="evenodd" d="M774.325 -31.9172C742.383 26.5588 658.386 50.7018 591.048 84.6967C528.391 116.327 467.516 147.896 396.683 158.742C313.291 171.507 211.964 196.07 152.94 151.772C93.4891 107.155 139.911 21.0584 124.871 -45.2474C111.261 -105.248 35.4261 -159.249 69.2907 -217.009C103.515 -275.383 209.02 -269.102 276.566 -303.98C338.853 -336.143 376.178 -405.123 447.358 -412.232C519.607 -419.448 576.892 -374.592 631.016 -339.382C683.846 -305.014 729.385 -265.029 753.64 -212.977C780.216 -155.967 806.578 -90.9683 774.325 -31.9172Z" stroke="white"/>
<path opacity="0.3" fill-rule="evenodd" clip-rule="evenodd" d="M822.239 -22.6784C786.076 43.527 691.002 70.8598 614.785 109.344C543.865 145.158 474.96 180.897 394.783 193.18C300.395 207.637 185.704 235.443 118.904 185.306C51.6178 134.797 104.17 37.3307 87.1538 -37.7295C71.756 -105.654 -14.0704 -166.781 24.2629 -232.169C63.0062 -298.253 182.424 -291.149 258.878 -330.636C329.381 -367.05 371.635 -445.14 452.201 -453.192C533.977 -461.365 598.812 -410.59 660.067 -370.735C719.859 -331.832 771.397 -286.569 798.851 -227.647C828.921 -163.107 858.752 -89.5288 822.239 -22.6784Z" stroke="white"/>
<path opacity="0.3" fill-rule="evenodd" clip-rule="evenodd" d="M866.048 -14.228C826.033 59.0372 720.829 89.2877 636.487 131.881C558.008 171.516 481.762 211.073 393.047 224.664C288.605 240.67 161.697 271.444 87.7841 215.963C13.3355 160.07 71.4931 52.2083 52.6707 -30.8578C35.6378 -106.025 -59.328 -173.667 -16.9037 -246.031C25.9704 -319.164 158.107 -311.307 242.706 -355.009C320.722 -395.31 367.482 -481.729 456.63 -490.643C547.117 -499.692 618.852 -443.504 686.63 -399.399C752.788 -356.349 809.811 -306.262 840.188 -241.057C873.452 -169.637 906.456 -88.2089 866.048 -14.228Z" stroke="white"/>
<path opacity="0.3" fill-rule="evenodd" clip-rule="evenodd" d="M912.593 -5.25347C868.481 75.5153 752.515 108.865 659.546 155.826C573.039 199.525 488.994 243.128 391.2 258.116C276.08 275.765 136.187 309.701 54.7183 248.532C-27.3397 186.925 36.772 68.0142 16.031 -23.553C-2.73976 -106.416 -107.413 -180.978 -60.6451 -260.755C-13.381 -341.378 132.272 -332.722 225.522 -380.901C311.521 -425.333 363.069 -520.602 461.335 -530.433C561.076 -540.41 640.145 -478.471 714.852 -429.854C787.768 -382.397 850.624 -327.187 884.099 -255.304C920.765 -176.573 957.139 -86.8086 912.593 -5.25347Z" stroke="white"/>
</g>
</g>
<defs>
<filter id="filter0_d_3004_43894" x="173.989" y="1.66528" width="46.5368" height="46.5372" filterUnits="userSpaceOnUse" color-interpolation-filters="sRGB">
<feFlood flood-opacity="0" result="BackgroundImageFix"/>
<feColorMatrix in="SourceAlpha" type="matrix" values="0 0 0 0 0 0 0 0 0 0 0 0 0 0 0 0 0 0 127 0" result="hardAlpha"/>
<feOffset dy="3.35868"/>
<feGaussianBlur stdDeviation="4.61819"/>
<feComposite in2="hardAlpha" operator="out"/>
<feColorMatrix type="matrix" values="0 0 0 0 0 0 0 0 0 0 0 0 0 0 0 0 0 0 0.1 0"/>
<feBlend mode="normal" in2="BackgroundImageFix" result="effect1_dropShadow_3004_43894"/>
<feBlend mode="normal" in="SourceGraphic" in2="effect1_dropShadow_3004_43894" result="shape"/>
</filter>
<clipPath id="clip0_3004_43894">
<rect width="274" height="120" fill="white"/>
</clipPath>
</defs>
</svg>
