<svg width="148" height="120" viewBox="0 0 148 120" fill="none" xmlns="http://www.w3.org/2000/svg">
<g clip-path="url(#clip0_3004_43846)">
<g opacity="0.6">
<path opacity="0.3" fill-rule="evenodd" clip-rule="evenodd" d="M-24.9048 421.651C-52.5067 472.187 -125.11 493.042 -183.312 522.412C-237.468 549.746 -290.084 577.02 -351.309 586.39C-423.389 597.42 -510.971 618.639 -561.996 580.351C-613.389 541.79 -573.273 467.393 -586.279 410.092C-598.05 358.238 -663.605 311.568 -634.341 261.655C-604.765 211.212 -513.566 216.647 -455.187 186.509C-401.35 158.718 -369.095 99.1098 -307.57 92.9701C-245.12 86.7371 -195.599 125.508 -148.811 155.937C-103.143 185.64 -63.7769 220.197 -42.8008 265.18C-19.8258 314.449 2.96831 370.623 -24.9048 421.651Z" stroke="white"/>
<path opacity="0.3" fill-rule="evenodd" clip-rule="evenodd" d="M24.3792 431.155C-7.56232 489.631 -91.5591 513.774 -158.897 547.769C-221.554 579.4 -282.429 610.969 -353.263 621.814C-436.654 634.579 -537.981 659.142 -597.005 614.844C-656.456 570.227 -610.034 484.131 -625.074 417.825C-638.684 357.824 -714.519 303.823 -680.655 246.063C-646.431 187.69 -540.925 193.97 -473.38 159.092C-411.092 126.929 -373.768 57.9497 -302.587 50.8405C-230.339 43.6244 -173.053 88.4804 -118.929 123.69C-66.0998 158.059 -20.5608 198.044 3.69402 250.095C30.2707 307.105 56.6329 372.104 24.3792 431.155Z" stroke="white"/>
<path opacity="0.3" fill-rule="evenodd" clip-rule="evenodd" d="M72.2934 440.394C36.1302 506.599 -58.944 533.932 -135.161 572.416C-206.08 608.23 -274.985 643.97 -355.163 656.252C-449.551 670.71 -564.242 698.515 -631.042 648.378C-698.328 597.869 -645.775 500.403 -662.792 425.343C-678.19 357.418 -764.016 296.292 -725.683 230.903C-686.939 164.82 -567.521 171.923 -491.068 132.436C-420.564 96.0223 -378.31 17.9324 -297.744 9.88008C-215.969 1.70722 -151.134 52.4827 -89.8784 92.3373C-30.0865 131.241 21.4509 176.503 48.9053 235.425C78.9751 299.965 108.807 373.543 72.2934 440.394Z" stroke="white"/>
<path opacity="0.3" fill-rule="evenodd" clip-rule="evenodd" d="M116.103 448.844C76.0876 522.109 -29.1166 552.36 -113.458 594.954C-191.937 634.588 -268.183 674.145 -356.898 687.736C-461.341 703.742 -588.249 734.516 -662.161 679.035C-736.61 623.142 -678.452 515.281 -697.275 432.214C-714.308 357.047 -809.274 289.405 -766.849 217.041C-723.975 143.909 -591.839 151.765 -507.239 108.063C-429.223 67.7627 -382.464 -18.6568 -293.316 -27.571C-202.829 -36.6193 -131.093 19.5687 -63.3157 63.6737C2.84207 106.723 59.8652 156.81 90.2427 222.015C123.507 293.435 156.51 374.863 116.103 448.844Z" stroke="white"/>
<path opacity="0.3" fill-rule="evenodd" clip-rule="evenodd" d="M162.647 457.819C118.535 538.588 2.56922 571.937 -90.4 618.898C-176.907 662.597 -260.951 706.2 -358.746 721.188C-473.866 738.837 -613.759 772.773 -695.227 711.604C-777.286 649.997 -713.174 531.086 -733.915 439.519C-752.686 356.656 -857.359 282.094 -810.591 202.317C-763.327 121.694 -617.674 130.35 -524.424 82.1715C-438.425 37.7396 -386.877 -57.5302 -288.611 -67.3607C-188.87 -77.338 -109.801 -15.3984 -35.0942 33.2182C37.822 80.6748 100.678 135.885 134.153 207.769C170.819 286.499 207.194 376.264 162.647 457.819Z" stroke="white"/>
<path opacity="0.3" fill-rule="evenodd" clip-rule="evenodd" d="M213.301 467.587C164.73 556.52 37.0531 593.249 -65.3064 644.958C-160.552 693.072 -253.089 741.088 -360.752 757.598C-487.502 777.031 -641.519 814.399 -731.209 747.055C-821.551 679.222 -750.956 548.29 -773.788 447.465C-794.448 356.226 -909.687 274.127 -858.191 186.289C-806.149 97.5162 -645.794 107.042 -543.12 53.9901C-448.439 5.06752 -391.679 -99.8342 -283.49 -110.661C-173.677 -121.651 -86.6289 -53.4541 -4.3815 0.0757149C75.899 52.3263 145.094 113.118 181.948 192.263C222.308 278.95 262.35 377.789 213.301 467.587Z" stroke="white"/>
</g>
<g filter="url(#filter0_d_3004_43846)">
<circle cx="36.5113" cy="85.7401" r="12.4041" fill="#FF4267"/>
<circle cx="36.5113" cy="85.7401" r="12.4041" stroke="white" stroke-width="3"/>
</g>
</g>
<defs>
<filter id="filter0_d_3004_43846" x="13.3708" y="65.9582" width="46.281" height="46.2813" filterUnits="userSpaceOnUse" color-interpolation-filters="sRGB">
<feFlood flood-opacity="0" result="BackgroundImageFix"/>
<feColorMatrix in="SourceAlpha" type="matrix" values="0 0 0 0 0 0 0 0 0 0 0 0 0 0 0 0 0 0 127 0" result="hardAlpha"/>
<feOffset dy="3.35868"/>
<feGaussianBlur stdDeviation="4.61819"/>
<feComposite in2="hardAlpha" operator="out"/>
<feColorMatrix type="matrix" values="0 0 0 0 0 0 0 0 0 0 0 0 0 0 0 0 0 0 0.1 0"/>
<feBlend mode="normal" in2="BackgroundImageFix" result="effect1_dropShadow_3004_43846"/>
<feBlend mode="normal" in="SourceGraphic" in2="effect1_dropShadow_3004_43846" result="shape"/>
</filter>
<clipPath id="clip0_3004_43846">
<rect width="148" height="120" fill="white"/>
</clipPath>
</defs>
</svg>
