<svg width="216" height="216" viewBox="0 0 216 216" fill="none" xmlns="http://www.w3.org/2000/svg">
<circle opacity="0.1" cx="108" cy="108" r="108" fill="#FFCD42"/>
<path d="M97.9689 125.445L76.742 168.965C76.318 169.835 75.7131 170.58 74.9367 171.172L72.0994 173.361C71.1578 174.081 69.8919 174.191 68.8256 173.673L61.09 169.9C60.0236 169.38 59.3315 168.313 59.319 167.128L59.2972 163.546C59.2878 162.57 59.4998 161.635 59.9239 160.765L62.016 156.478C63.9148 156.708 65.9789 155.461 66.8675 153.64C67.7561 151.819 67.4662 149.422 66.1161 148.069L68.8505 142.462C70.7493 142.693 72.8134 141.446 73.702 139.625C74.5906 137.804 74.3007 135.407 72.9506 134.053L81.1508 117.238L97.9689 125.445Z" fill="#FFBF42"/>
<path d="M112.805 73.7024C97.3186 66.1477 78.6671 72.5706 71.1124 88.0574C63.5576 103.544 69.9806 122.196 85.4673 129.75C100.954 137.305 119.606 130.882 127.16 115.395C134.715 99.9087 128.292 81.2572 112.805 73.7024Z" fill="#EDBE00"/>
<path d="M112.802 73.7024C110.401 72.5488 107.938 71.7069 105.443 71.208C104.477 70.9898 103.51 70.8339 102.544 70.7403C95.2569 69.9359 87.9516 71.7412 81.9246 75.7135L78.4232 74.7064L76.9858 79.7574C74.6474 82.1146 72.6519 84.8895 71.1148 88.0418C63.5694 103.538 69.9923 122.183 85.4573 129.76C90.9136 132.41 96.7754 133.345 102.388 132.722C103.385 132.628 104.383 132.472 105.381 132.285C114.516 130.415 122.748 124.459 127.144 115.386C134.721 99.893 128.298 81.2478 112.802 73.7024Z" fill="#FFBF42"/>
<circle cx="117.068" cy="89.2209" r="7.9038" fill="#FFFAED"/>
<path d="M126.551 123.589V172.011C126.551 172.977 126.333 173.913 125.897 174.786L124.306 177.997C123.776 179.057 122.685 179.712 121.5 179.712H112.895C111.71 179.712 110.619 179.057 110.089 177.997L108.499 174.786C108.062 173.913 107.844 172.977 107.844 172.011V167.24C109.652 166.617 110.962 164.59 110.962 162.564C110.962 160.537 109.652 158.51 107.844 157.887V151.651C109.652 151.027 110.962 149.001 110.962 146.974C110.962 144.947 109.652 142.921 107.844 142.297V123.589H126.551Z" fill="#FFCD42"/>
<g opacity="0.07" filter="url(#filter0_f_2992_42691)">
<path d="M112.803 73.7022C110.402 72.5486 107.939 71.7068 105.445 71.2079C93.1912 75.9471 84.4609 87.8577 84.4609 101.764C84.4609 115.638 93.16 127.549 105.382 132.288C114.518 130.417 122.749 124.462 127.145 115.389C134.722 99.8929 128.299 81.2476 112.803 73.7022ZM117.199 97.0867C112.897 97.0867 109.404 93.5947 109.404 89.2919C109.404 84.9892 112.897 81.4971 117.199 81.4971C121.502 81.4971 124.994 84.9892 124.994 89.2919C124.994 93.5947 121.502 97.0867 117.199 97.0867Z" fill="black"/>
</g>
<path d="M117.195 70.5847C99.9653 70.5847 86.0156 84.5344 86.0156 101.764C86.0156 118.994 99.9653 132.943 117.195 132.943C134.425 132.943 148.374 118.994 148.374 101.764C148.374 84.5344 134.425 70.5847 117.195 70.5847ZM117.195 98.6461C112.032 98.6461 107.841 94.4556 107.841 89.2923C107.841 84.129 112.032 79.9385 117.195 79.9385C122.358 79.9385 126.549 84.129 126.549 89.2923C126.549 94.4556 122.358 98.6461 117.195 98.6461Z" fill="#FFCD42"/>
<path d="M103.167 36.2872C86.8293 36.2872 73.5469 49.5696 73.5469 65.9076C73.5469 70.9274 74.7473 75.6667 76.961 79.7824C78.4576 78.2234 80.1475 76.8671 81.9248 75.7135C80.5217 72.7203 79.7827 69.3997 79.7827 65.9076C79.7827 52.9993 90.259 42.5231 103.167 42.5231C116.076 42.5231 126.552 52.9993 126.552 65.9076C126.552 67.9342 126.302 69.9297 125.772 71.8005C124.993 74.8872 123.59 77.7245 121.688 80.1565C121.501 80.3748 121.345 80.593 121.158 80.8113C117.853 84.8334 113.176 87.7331 107.875 88.8244C107.844 88.9803 107.844 89.1362 107.844 89.2921C107.844 91.3499 108.53 93.283 109.653 94.8108C115.982 93.4077 121.501 89.978 125.585 85.2388L125.616 85.2076C128.36 82.0585 130.449 78.2858 131.603 74.1389C132.382 71.5199 132.788 68.7761 132.788 65.9076C132.788 49.5696 119.505 36.2872 103.167 36.2872Z" fill="#4A4566"/>
<path opacity="0.07" d="M109.403 89.2921C109.403 89.0115 109.434 88.6997 109.434 88.4191C108.935 88.575 108.405 88.7309 107.875 88.8244C107.844 88.9803 107.844 89.1362 107.844 89.2921C107.844 89.6039 107.875 89.9157 107.906 90.2275C108.062 91.9423 108.686 93.5013 109.652 94.8108C110.213 94.6861 110.775 94.5614 111.305 94.3743C110.12 93.0336 109.403 91.2252 109.403 89.2921Z" fill="black"/>
<path opacity="0.05" d="M110.962 89.292C110.962 88.7931 111.024 88.3254 111.118 87.8577C110.588 88.1071 109.995 88.2942 109.434 88.4189C108.935 88.5748 108.405 88.7307 107.875 88.8243C107.844 88.9802 107.844 89.1361 107.844 89.292C107.844 89.6038 107.875 89.9155 107.906 90.2273C108.062 91.9422 108.686 93.5012 109.652 94.8107C110.213 94.686 110.775 94.5613 111.305 94.3742C111.866 94.2183 112.427 94.0624 112.957 93.8441C111.741 92.6905 110.962 91.0692 110.962 89.292Z" fill="black"/>
<defs>
<filter id="filter0_f_2992_42691" x="81.4609" y="68.2079" width="51.8672" height="67.0803" filterUnits="userSpaceOnUse" color-interpolation-filters="sRGB">
<feFlood flood-opacity="0" result="BackgroundImageFix"/>
<feBlend mode="normal" in="SourceGraphic" in2="BackgroundImageFix" result="shape"/>
<feGaussianBlur stdDeviation="1.5" result="effect1_foregroundBlur_2992_42691"/>
</filter>
</defs>
</svg>
