<svg width="64" height="64" viewBox="0 0 64 64" fill="none" xmlns="http://www.w3.org/2000/svg">
<path d="M55.446 4.77295H8.55497C6.47059 4.77295 4.77344 6.4701 4.77344 8.55448V13.2269C4.77344 16.7256 6.34958 19.9732 9.09648 22.1377L23.5344 33.5126H40.4651L54.9029 22.1377C57.6514 19.9732 59.2275 16.7241 59.2275 13.2269V8.55448C59.2275 6.4701 57.5304 4.77295 55.446 4.77295Z" fill="#1DE4FF"/>
<path opacity="0.5" d="M24.4385 56.958V38.0503H39.5646V49.3949C39.5646 50.127 39.2107 50.8152 38.6147 51.2418L28.0264 58.8049C27.6346 59.0847 27.1718 59.2269 26.7074 59.2269C26.3519 59.2269 25.9965 59.1437 25.6682 58.9758C24.9134 58.587 24.4385 57.808 24.4385 56.958Z" fill="#1DE4FF"/>
</svg>
