<svg width="388" height="110" viewBox="0 0 388 110" fill="none" xmlns="http://www.w3.org/2000/svg">
<g clip-path="url(#clip0_2976_38437)">
<rect width="388" height="110" fill="white"/>
<path opacity="0.1" d="M-20.5898 -5.95239H408.976V115.952H-20.5898V-5.95239Z" fill="#2FF2B8"/>
<mask id="mask0_2976_38437" style="mask-type:alpha" maskUnits="userSpaceOnUse" x="-39" y="-11" width="466" height="132">
<path d="M-6.74609 -10.454H394.362C411.759 -10.454 425.862 3.64905 425.862 21.046V120.038H-38.2461V21.046C-38.2461 3.64904 -24.1431 -10.454 -6.74609 -10.454Z" fill="#7D42FB" stroke="#2FF2B8"/>
</mask>
<g mask="url(#mask0_2976_38437)">
<path opacity="0.3" fill-rule="evenodd" clip-rule="evenodd" d="M392.745 220.534C382.437 236.529 357.904 241.722 337.946 250.051C319.375 257.803 301.315 265.566 280.815 267.242C256.679 269.211 227.174 274.177 211.149 260.399C195.008 246.524 210.011 222.958 207.018 203.797C204.31 186.458 183.663 169.586 194.506 153.83C205.463 137.907 235.556 141.797 255.591 133.221C274.066 125.315 286.123 106.436 306.649 105.832C327.483 105.22 342.999 119.121 357.802 130.215C372.25 141.044 384.498 153.326 390.415 168.616C396.892 185.363 403.153 204.379 392.745 220.534Z" stroke="#2FF2B8"/>
<path opacity="0.3" fill-rule="evenodd" clip-rule="evenodd" d="M409.108 224.863C397.154 243.416 368.709 249.439 345.568 259.102C324.036 268.091 303.096 277.098 279.328 279.041C251.346 281.328 217.137 287.095 198.562 271.12C179.851 255.029 197.249 227.698 193.784 205.478C190.649 185.37 166.715 165.806 179.29 147.533C191.999 129.067 226.885 133.573 250.115 123.626C271.537 114.453 285.521 92.5591 309.317 91.8556C333.471 91.1432 351.457 107.262 368.615 120.127C385.363 132.684 399.561 146.924 406.416 164.655C413.924 184.075 421.178 206.126 409.108 224.863Z" stroke="#2FF2B8"/>
<path opacity="0.3" fill-rule="evenodd" clip-rule="evenodd" d="M429.103 230.152C415.138 251.832 381.912 258.874 354.881 270.161C329.729 280.667 305.269 291.193 277.508 293.467C244.824 296.143 204.867 302.882 183.173 284.219C161.323 265.423 181.649 233.492 177.608 207.532C173.949 184.041 145.999 161.187 160.691 139.838C175.538 118.262 216.284 123.523 243.419 111.898C268.442 101.179 284.779 75.599 312.574 74.775C340.786 73.9381 361.791 92.7697 381.829 107.796C401.388 122.464 417.968 139.1 425.971 159.814C434.737 182.501 443.205 208.262 429.103 230.152Z" stroke="#2FF2B8"/>
<path opacity="0.3" fill-rule="evenodd" clip-rule="evenodd" d="M450.916 235.925C434.755 261.01 396.315 269.164 365.04 282.229C335.939 294.387 307.64 306.572 275.522 309.205C237.709 312.303 191.481 320.105 166.386 298.513C141.11 276.766 164.632 239.813 159.959 209.774C155.731 182.592 123.398 156.15 140.399 131.444C157.581 106.475 204.718 112.559 236.114 99.1056C265.065 86.6994 283.97 57.0976 316.127 56.1415C348.767 55.1711 373.064 76.958 396.244 94.3446C418.87 111.316 438.049 130.565 447.302 154.533C457.441 180.785 467.234 210.593 450.916 235.925Z" stroke="#2FF2B8"/>
<path opacity="0.3" fill-rule="evenodd" clip-rule="evenodd" d="M472.123 241.535C453.827 269.936 410.317 279.168 374.918 293.959C341.98 307.725 309.947 321.521 273.592 324.504C230.793 328.015 178.467 336.847 150.067 312.409C121.46 287.79 148.088 245.958 142.803 211.953C138.02 181.182 101.428 151.25 120.673 123.281C140.123 95.0153 193.477 101.898 229.013 86.6668C261.784 72.6206 283.185 39.1091 319.582 38.0245C356.526 36.9237 384.024 61.5854 410.259 81.2653C435.867 100.475 457.572 122.265 468.045 149.397C479.516 179.115 490.597 212.857 472.123 241.535Z" stroke="#2FF2B8"/>
<path opacity="0.3" fill-rule="evenodd" clip-rule="evenodd" d="M491.514 246.667C471.268 278.096 423.122 288.314 383.95 304.686C347.5 319.921 312.055 335.19 271.828 338.491C224.47 342.38 166.57 352.156 135.146 325.113C103.494 297.87 132.962 251.576 127.117 213.945C121.828 179.893 81.3393 146.772 102.637 115.819C124.162 84.5375 183.198 92.1521 222.521 75.2943C258.783 59.7484 282.467 22.6622 322.741 21.4603C363.621 20.2401 394.046 47.5303 423.074 69.3087C451.407 90.566 475.423 114.678 487.011 144.702C499.699 177.589 511.958 214.93 491.514 246.667Z" stroke="#2FF2B8"/>
<path opacity="0.3" fill-rule="evenodd" clip-rule="evenodd" d="M512.115 252.117C489.797 286.766 436.726 298.031 393.546 316.082C353.367 332.879 314.297 349.71 269.953 353.352C217.752 357.642 153.928 368.424 119.292 338.609C84.4055 308.582 116.89 257.545 110.451 216.063C104.623 178.524 59.9956 142.015 83.4745 107.891C107.203 73.406 172.278 81.7976 215.622 63.2124C255.595 46.0724 281.704 5.18819 326.098 3.86124C371.158 2.51466 404.694 32.5981 436.689 56.6041C467.917 80.0371 494.389 106.615 507.158 139.715C521.143 175.967 534.653 217.132 512.115 252.117Z" stroke="#2FF2B8"/>
<path opacity="0.3" fill-rule="evenodd" clip-rule="evenodd" d="M534.534 258.05C509.96 296.201 451.529 308.608 403.987 328.485C359.75 346.979 316.731 365.514 267.912 369.528C210.438 374.251 140.17 386.125 102.039 353.3C63.6307 320.238 99.4004 264.042 92.3125 218.366C85.899 177.033 36.7674 136.834 62.6195 99.2622C88.7462 61.291 160.391 70.5282 208.115 50.0626C252.124 31.19 280.872 -13.8277 329.75 -15.2903C379.36 -16.7749 416.28 16.3472 451.504 42.779C485.886 68.579 515.027 97.8434 529.085 134.287C544.479 174.203 559.35 219.528 534.534 258.05Z" stroke="#2FF2B8"/>
</g>
</g>
<defs>
<clipPath id="clip0_2976_38437">
<rect width="388" height="110" fill="white"/>
</clipPath>
</defs>
</svg>
