<svg width="72" height="72" viewBox="0 0 72 72" fill="none" xmlns="http://www.w3.org/2000/svg">
<rect width="72" height="72" rx="18" fill="#1DE4FF"/>
<path d="M50.4297 19.2427H21.5701C20.2872 19.2427 19.2427 20.2872 19.2427 21.5701V24.4458C19.2427 26.5991 20.2127 28.5978 21.9033 29.93L30.7893 36.9308H41.2095L50.0955 29.93C51.787 28.5978 52.7571 26.5982 52.7571 24.4458V21.5701C52.7571 20.2872 51.7125 19.2427 50.4297 19.2427Z" fill="white"/>
<path opacity="0.8" d="M31.3452 51.3606V39.7236H40.6548V46.7058C40.6548 47.1564 40.4369 47.58 40.0701 47.8425L33.5534 52.4973C33.3123 52.6695 33.0274 52.757 32.7416 52.757C32.5229 52.757 32.3041 52.7058 32.1021 52.6025C31.6375 52.3632 31.3452 51.8838 31.3452 51.3606Z" fill="white"/>
</svg>
