<svg width="78" height="78" viewBox="0 0 78 78" fill="none" xmlns="http://www.w3.org/2000/svg">
<rect width="78" height="78" rx="17.3521" fill="#2FF2B8"/>
<path d="M53.6155 22.025H24.3811C23.0815 22.025 22.0234 23.0831 22.0234 24.3826V27.2957C22.0234 29.477 23.0061 31.5017 24.7187 32.8512L33.72 39.9429H44.2755L53.2769 32.8512C54.9904 31.5017 55.9731 29.476 55.9731 27.2957V24.3826C55.9731 23.0831 54.915 22.025 53.6155 22.025Z" fill="white"/>
<path opacity="0.8" d="M34.2832 54.56V42.772H43.7137V49.8448C43.7137 50.3012 43.493 50.7303 43.1214 50.9963L36.5201 55.7115C36.2759 55.886 35.9873 55.9746 35.6978 55.9746C35.4762 55.9746 35.2545 55.9227 35.0499 55.8181C34.5793 55.5757 34.2832 55.09 34.2832 54.56Z" fill="white"/>
</svg>
