<svg width="112" height="38" viewBox="0 0 112 38" fill="none" xmlns="http://www.w3.org/2000/svg">
<g clip-path="url(#clip0_2926_24535)">
<path d="M14.1711 0.689453H15.1582C18.585 0.764747 21.9561 2.15768 24.3772 4.62356C23.4833 5.54591 22.5707 6.43061 21.6953 7.35296C20.3357 6.11061 18.6968 5.15062 16.9089 4.81179C14.2642 4.24709 11.4146 4.75532 9.19834 6.28003C6.77716 7.88002 5.13821 10.5906 4.78434 13.4894C4.39323 16.3506 5.19408 19.3623 7.0379 21.5835C8.80722 23.7482 11.5078 25.1035 14.3014 25.1976C16.9089 25.3482 19.628 24.5388 21.5277 22.6941C23.0177 21.3953 23.7068 19.4188 23.9303 17.4988C20.8386 17.4988 17.747 17.5176 14.6553 17.4988V13.6212H27.6738C28.3443 17.7812 27.3758 22.4682 24.2469 25.4423C22.1609 27.5506 19.2742 28.7929 16.3315 29.0376C13.482 29.32 10.5393 28.7741 8.00637 27.3811C4.97059 25.7435 2.54941 22.9764 1.35745 19.72C0.239983 16.7271 0.221359 13.3388 1.26433 10.3271C2.21417 7.57885 4.03937 5.15062 6.38605 3.4565C8.6396 1.78121 11.3774 0.858864 14.1711 0.689453Z" fill="#4285F4"/>
<path d="M88.8566 1.66797H92.8422V28.5478C91.5199 28.5478 90.1789 28.5667 88.8566 28.529C88.8752 19.5879 88.8566 10.6279 88.8566 1.66797V1.66797Z" fill="#34A853"/>
<path d="M36.537 10.9863C38.9954 10.5157 41.6587 11.0428 43.6888 12.5298C45.5326 13.8475 46.8177 15.918 47.2088 18.1768C47.7117 20.7933 47.0784 23.6544 45.4022 25.725C43.5956 28.0403 40.6344 29.2826 37.7476 29.0944C35.1029 28.9438 32.5327 27.6073 30.9683 25.4238C29.1989 23.0144 28.7706 19.7015 29.7391 16.878C30.7075 13.8475 33.4453 11.5322 36.537 10.9863V10.9863ZM37.0957 14.5627C36.09 14.8263 35.1588 15.4098 34.4883 16.238C32.6817 18.4215 32.7935 21.9791 34.7863 24.0121C35.9224 25.1791 37.6358 25.725 39.2189 25.405C40.6902 25.1415 41.9753 24.1438 42.683 22.8262C43.9123 20.5862 43.5584 17.4992 41.6773 15.7486C40.4667 14.6192 38.6974 14.1486 37.0957 14.5627Z" fill="#EA4335"/>
<path d="M56.2797 10.9857C59.0919 10.4399 62.165 11.2305 64.2695 13.2257C67.6964 16.3316 68.0689 22.1481 65.1449 25.7246C63.3756 27.9834 60.5074 29.2257 57.6765 29.094C54.9759 29.0187 52.3127 27.6634 50.7109 25.4234C48.9044 22.9575 48.5133 19.5693 49.5376 16.6893C50.5619 13.7528 53.2439 11.5128 56.2797 10.9857V10.9857ZM56.8384 14.5622C55.8327 14.8257 54.9014 15.4093 54.231 16.2187C52.443 18.3646 52.5175 21.8657 54.4358 23.9175C55.5719 25.141 57.3413 25.7434 58.9802 25.4046C60.4329 25.1222 61.7366 24.1434 62.4444 22.8257C63.6549 20.5669 63.3011 17.4799 61.4014 15.7293C60.1908 14.5999 58.4215 14.1481 56.8384 14.5622Z" fill="#FBBC05"/>
<path d="M73.0247 12.0771C75.1665 10.7218 78.0161 10.3454 80.3255 11.5124C81.0519 11.8324 81.6478 12.3783 82.2252 12.9242C82.2438 12.4159 82.2252 11.8889 82.2438 11.3618C83.4917 11.3806 84.7395 11.3618 86.006 11.3806V27.9829C85.9873 30.4864 85.3541 33.1405 83.5662 34.9664C81.6106 36.9805 78.612 37.6017 75.9115 37.1876C73.0247 36.7546 70.5104 34.6276 69.3929 31.9358C70.5104 31.39 71.6837 30.957 72.8385 30.4488C73.4903 31.9923 74.8127 33.31 76.4702 33.6111C78.1278 33.9123 80.0461 33.4982 81.1264 32.1053C82.2811 30.6747 82.2811 28.717 82.2252 26.9665C81.3685 27.8135 80.3814 28.5665 79.1894 28.8488C76.6006 29.5829 73.7511 28.6794 71.7582 26.91C69.7468 25.1406 68.5548 22.4112 68.6666 19.7006C68.7225 16.6324 70.4359 13.6771 73.0247 12.0771V12.0771ZM76.88 14.4865C75.7439 14.6747 74.6823 15.3147 73.9559 16.1994C72.2052 18.3077 72.2052 21.6771 73.9746 23.7476C74.9803 24.9712 76.6006 25.6488 78.1651 25.4794C79.6364 25.3288 80.996 24.3876 81.7223 23.0888C82.9516 20.8865 82.7467 17.8936 81.0891 15.9736C80.0648 14.7877 78.4258 14.2042 76.88 14.4865V14.4865Z" fill="#4285F4"/>
<path d="M97.6248 13.0381C99.8597 10.9299 103.305 10.2146 106.173 11.3252C108.893 12.3605 110.625 14.9769 111.5 17.6687C107.459 19.3628 103.436 21.0381 99.3941 22.7322C99.9529 23.8051 100.81 24.784 101.964 25.1793C103.585 25.7628 105.522 25.5557 106.881 24.464C107.421 24.0498 107.85 23.504 108.259 22.9769C109.284 23.6734 110.308 24.351 111.332 25.0475C109.88 27.2498 107.44 28.7934 104.814 29.0381C101.908 29.3957 98.8168 28.2663 96.9357 25.9698C93.844 22.3557 94.142 16.2946 97.6248 13.0381V13.0381ZM99.6176 16.5205C98.9844 17.4428 98.7237 18.5722 98.7423 19.6828C101.443 18.5534 104.143 17.424 106.844 16.2758C106.397 15.2216 105.317 14.5816 104.218 14.4122C102.449 14.0922 100.605 15.0522 99.6176 16.5205V16.5205Z" fill="#EA4335"/>
</g>
<defs>
<clipPath id="clip0_2926_24535">
<rect width="112" height="38" fill="white"/>
</clipPath>
</defs>
</svg>
