<svg width="154" height="50" viewBox="0 0 154 50" fill="none" xmlns="http://www.w3.org/2000/svg">
<g clip-path="url(#clip0_2944_28021)">
<path d="M19.8875 0H21.2352C25.9142 0.102804 30.5169 2.00468 33.8227 5.37151C32.6021 6.63085 31.356 7.8388 30.1609 9.09815C28.3045 7.40188 26.0668 6.09113 23.6256 5.62852C20.0146 4.85749 16.1239 5.55141 13.0979 7.63319C9.79207 9.81778 7.5543 13.5187 7.07114 17.4767C6.53713 21.3832 7.63058 25.4954 10.1481 28.5281C12.5639 31.4837 16.2511 33.3342 20.0655 33.4627C23.6256 33.6683 27.3382 32.5632 29.932 30.0445C31.9663 28.2711 32.9072 25.5725 33.2124 22.951C28.9911 22.951 24.7699 22.9767 20.5486 22.951V17.6566H38.3236C39.2391 23.3365 37.9168 29.736 33.6447 33.7968C30.7966 36.6753 26.8551 38.3716 22.8373 38.7057C18.9466 39.0912 14.9288 38.3459 11.4704 36.444C7.32543 34.208 4.01963 30.43 2.39216 25.9837C0.866411 21.8972 0.840981 17.2711 2.26502 13.1589C3.56191 9.40656 6.05397 6.09113 9.25805 3.77804C12.335 1.49066 16.0731 0.231309 19.8875 0Z" fill="#4285F4"/>
<path d="M121.86 1.33643H127.302V38.0374C125.497 38.0374 123.666 38.0631 121.86 38.0117C121.886 25.8037 121.86 13.5701 121.86 1.33643V1.33643Z" fill="#34A853"/>
<path d="M50.4256 14.0587C53.7823 13.4162 57.4187 14.1358 60.1905 16.1661C62.7079 17.9652 64.4626 20.7923 64.9966 23.8764C65.6832 27.4488 64.8186 31.3553 62.5299 34.1824C60.0633 37.3436 56.0201 39.0398 52.0785 38.7828C48.4676 38.5772 44.9583 36.7525 42.8223 33.7712C40.4065 30.4815 39.8216 25.9581 41.1439 22.103C42.4663 17.9652 46.2044 14.804 50.4256 14.0587V14.0587ZM51.1885 18.9418C49.8153 19.3016 48.5439 20.0984 47.6284 21.2292C45.1618 24.2105 45.3143 29.0679 48.0353 31.8436C49.5865 33.4371 51.9259 34.1824 54.0874 33.7455C56.0963 33.3857 57.851 32.0235 58.8173 30.2245C60.4956 27.1661 60.0124 22.9511 57.4441 20.561C55.7912 19.0189 53.3754 18.3764 51.1885 18.9418Z" fill="#EA4335"/>
<path d="M77.3805 14.0584C81.2203 13.313 85.4162 14.3925 88.2897 17.1168C92.9686 21.3575 93.4772 29.2991 89.4848 34.1823C87.0691 37.2664 83.153 38.9627 79.2877 38.7828C75.6005 38.68 71.9641 36.8295 69.7772 33.7711C67.3105 30.4042 66.7765 25.778 68.1751 21.8458C69.5737 17.8364 73.2355 14.778 77.3805 14.0584V14.0584ZM78.1434 18.9416C76.7702 19.3014 75.4988 20.0981 74.5833 21.2033C72.1421 24.1332 72.2438 28.9136 74.863 31.715C76.4142 33.3855 78.83 34.208 81.0678 33.7454C83.0512 33.3598 84.8313 32.0234 85.7976 30.2243C87.4505 27.1402 86.9673 22.9252 84.3736 20.535C82.7207 18.993 80.3049 18.3761 78.1434 18.9416Z" fill="#FBBC05"/>
<path d="M100.244 15.5491C103.169 13.6986 107.06 13.1846 110.213 14.7781C111.205 15.215 112.018 15.9603 112.807 16.7056C112.832 16.0117 112.807 15.2921 112.832 14.5725C114.536 14.5982 116.239 14.5725 117.969 14.5982V37.2664C117.943 40.6846 117.079 44.3084 114.637 46.8014C111.967 49.5514 107.873 50.3996 104.186 49.8341C100.244 49.243 96.8115 46.3388 95.2858 42.6636C96.8115 41.9183 98.4136 41.3271 99.9902 40.6332C100.88 42.7407 102.686 44.5397 104.949 44.951C107.212 45.3622 109.831 44.7968 111.306 42.8949C112.883 40.9416 112.883 38.2687 112.807 35.8785C111.637 37.0351 110.289 38.0631 108.662 38.4486C105.127 39.451 101.236 38.2173 98.5153 35.8014C95.7689 33.3855 94.1415 29.6589 94.294 25.958C94.3703 21.7687 96.7098 17.7337 100.244 15.5491V15.5491ZM105.508 18.8388C103.957 19.0958 102.508 19.9697 101.516 21.1776C99.1256 24.0561 99.1256 28.6566 101.541 31.4837C102.915 33.1542 105.127 34.0795 107.263 33.8482C109.272 33.6425 111.128 32.3575 112.12 30.5841C113.798 27.5771 113.519 23.4907 111.255 20.8692C109.857 19.25 107.619 18.4533 105.508 18.8388V18.8388Z" fill="#4285F4"/>
<path d="M133.832 16.86C136.884 13.9815 141.588 13.0049 145.504 14.5212C149.217 15.9348 151.582 19.5072 152.777 23.1825C147.259 25.4955 141.766 27.7829 136.248 30.096C137.011 31.561 138.181 32.8974 139.757 33.4371C141.97 34.2339 144.614 33.9512 146.47 32.4605C147.208 31.8951 147.793 31.1497 148.352 30.4301C149.751 31.3811 151.149 32.3063 152.548 33.2572C150.565 36.2642 147.233 38.3717 143.648 38.7058C139.681 39.1941 135.46 37.6521 132.891 34.5166C128.67 29.582 129.077 21.3063 133.832 16.86V16.86ZM136.553 21.6147C135.688 22.874 135.332 24.4161 135.358 25.9325C139.045 24.3904 142.732 22.8483 146.42 21.2806C145.809 19.8413 144.334 18.9675 142.834 18.7362C140.418 18.2993 137.901 19.61 136.553 21.6147V21.6147Z" fill="#EA4335"/>
</g>
<defs>
<clipPath id="clip0_2944_28021">
<rect width="154" height="50" fill="white"/>
</clipPath>
</defs>
</svg>
