<svg width="112" height="36" viewBox="0 0 112 36" fill="none" xmlns="http://www.w3.org/2000/svg">
<path d="M13.7941 0H14.7901C18.2478 0.0740186 21.6492 1.44336 24.0922 3.86747C23.1902 4.7742 22.2694 5.64392 21.3861 6.55065C20.0143 5.32934 18.3606 4.3856 16.5565 4.05252C13.888 3.49738 11.0128 3.997 8.77654 5.49588C6.33354 7.06878 4.67982 9.73345 4.32277 12.5832C3.92813 15.3959 4.7362 18.3566 6.59663 20.5402C8.3819 22.6682 11.1068 24.0005 13.9256 24.0931C16.5565 24.2411 19.3002 23.4454 21.217 21.6319C22.7204 20.3551 23.4157 18.4121 23.6412 16.5247C20.5217 16.5247 17.4022 16.5432 14.2827 16.5247V12.7127H27.4185C28.095 16.8022 27.1178 21.4099 23.9607 24.3336C21.856 26.4061 18.9432 27.6274 15.974 27.868C13.0988 28.1456 10.1296 27.6089 7.57383 26.2396C4.51069 24.6297 2.0677 21.9095 0.864991 18.7082C-0.262545 15.766 -0.281337 12.4351 0.77103 9.47438C1.72944 6.7727 3.57108 4.3856 5.9389 2.72018C8.21277 1.07327 10.9752 0.166542 13.7941 0Z" fill="#A0A3BD"/>
<path d="M89.1515 0.96228H93.1731V27.3869C91.8388 27.3869 90.4858 27.4054 89.1515 27.3684C89.1703 18.5787 89.1515 9.77048 89.1515 0.96228V0.96228Z" fill="#A0A3BD"/>
<path d="M36.3632 10.1219C38.8438 9.6593 41.5311 10.1774 43.5794 11.6393C45.4399 12.9346 46.7365 14.9701 47.1312 17.1906C47.6386 19.7628 46.9996 22.5754 45.3083 24.6109C43.4855 26.887 40.4975 28.1083 37.5847 27.9233C34.9162 27.7752 32.3229 26.4614 30.7443 24.3149C28.959 21.9463 28.5268 18.6895 29.504 15.9138C30.4812 12.9346 33.2437 10.6585 36.3632 10.1219V10.1219ZM36.927 13.6378C35.9122 13.8968 34.9726 14.4705 34.2961 15.2847C32.4732 17.4312 32.586 20.9285 34.5967 22.927C35.7431 24.0743 37.4719 24.6109 39.0693 24.2964C40.5539 24.0373 41.8506 23.0566 42.5647 21.7612C43.8049 19.5592 43.4479 16.5245 41.5499 14.8036C40.3284 13.6933 38.5431 13.2307 36.927 13.6378Z" fill="#A0A3BD"/>
<path d="M56.2814 10.1221C59.119 9.58542 62.2197 10.3626 64.3433 12.3241C67.801 15.3774 68.1769 21.0953 65.2265 24.6112C63.4412 26.8318 60.5472 28.0531 57.6908 27.9236C54.9659 27.8495 52.2786 26.5172 50.6625 24.3151C48.8396 21.891 48.445 18.5602 49.4786 15.729C50.5121 12.8422 53.2182 10.6402 56.2814 10.1221V10.1221ZM56.8451 13.6379C55.8304 13.897 54.8907 14.4707 54.2142 15.2664C52.4102 17.3759 52.4853 20.8178 54.4209 22.8348C55.5673 24.0376 57.3525 24.6297 59.0062 24.2966C60.472 24.0191 61.7875 23.0568 62.5016 21.7615C63.7231 19.5409 63.3661 16.5062 61.4492 14.7852C60.2277 13.675 58.4425 13.2308 56.8451 13.6379Z" fill="#A0A3BD"/>
<path d="M73.1777 11.1954C75.3388 9.86308 78.214 9.49298 80.5443 10.6403C81.2772 10.9548 81.8785 11.4915 82.4611 12.0281C82.4799 11.5285 82.4611 11.0104 82.4799 10.4922C83.739 10.5107 84.9981 10.4922 86.2759 10.5107V26.8318C86.2572 29.2929 85.6182 31.9021 83.8142 33.697C81.841 35.677 78.8154 36.2877 76.0905 35.8806C73.1777 35.455 70.6407 33.3639 69.5132 30.7178C70.6407 30.1811 71.8247 29.7555 72.9898 29.2559C73.6475 30.7733 74.9818 32.0686 76.6543 32.3647C78.3268 32.6608 80.2624 32.2537 81.3524 30.8843C82.5175 29.478 82.5175 27.5535 82.4611 25.8326C81.5967 26.6653 80.6007 27.4055 79.398 27.683C76.7858 28.4047 73.9106 27.5165 71.8998 25.777C69.8703 24.0376 68.6676 21.3544 68.7803 18.6898C68.8367 15.6735 70.5656 12.7683 73.1777 11.1954V11.1954ZM77.0677 13.564C75.9214 13.749 74.8502 14.3782 74.1173 15.2479C72.3508 17.3204 72.3508 20.6328 74.1361 22.6683C75.1509 23.8711 76.7858 24.5372 78.3644 24.3707C79.849 24.2227 81.2208 23.2974 81.9537 22.0206C83.194 19.8556 82.9873 16.9133 81.3148 15.0259C80.2812 13.8601 78.6275 13.2864 77.0677 13.564V13.564Z" fill="#A0A3BD"/>
<path d="M97.9997 12.139C100.255 10.0665 103.731 9.36328 106.625 10.4551C109.369 11.4728 111.117 14.045 112 16.6911C107.922 18.3565 103.863 20.0035 99.785 21.6689C100.349 22.7236 101.213 23.6859 102.378 24.0745C104.013 24.6481 105.968 24.4446 107.34 23.3713C107.884 22.9642 108.317 22.4276 108.73 21.9094C109.764 22.5941 110.797 23.2603 111.831 23.9449C110.365 26.11 107.903 27.6274 105.254 27.8679C102.322 28.2195 99.2025 27.1092 97.3044 24.8517C94.1849 21.2988 94.4856 15.3403 97.9997 12.139V12.139ZM100.011 15.5623C99.3716 16.4691 99.1085 17.5793 99.1273 18.6711C101.852 17.5608 104.577 16.4506 107.302 15.3218C106.851 14.2855 105.761 13.6564 104.652 13.4898C102.867 13.1752 101.007 14.119 100.011 15.5623V15.5623Z" fill="#A0A3BD"/>
</svg>
