<svg width="30" height="30" viewBox="0 0 30 30" fill="none" xmlns="http://www.w3.org/2000/svg">
<path d="M29.414 15.2807C29.414 14.0516 29.3151 13.1547 29.101 12.2245H15.1797V17.772H23.3512C23.1865 19.1506 22.2969 21.2268 20.3198 22.6219L20.2921 22.8077L24.6938 26.2454L24.9987 26.2761C27.7994 23.6684 29.414 19.8316 29.414 15.2807" fill="#4C8BF3"/>
<path d="M15.1795 29.897C19.1828 29.897 22.5437 28.5682 24.9985 26.2761L20.3196 22.622C19.0676 23.5023 17.3871 24.1168 15.1795 24.1168C11.2585 24.1168 7.93056 21.5092 6.74425 17.905L6.57037 17.9199L1.99345 21.4909L1.93359 21.6586C4.37186 26.5418 9.38026 29.897 15.1795 29.897Z" fill="#34A853"/>
<path d="M6.74377 17.905C6.43076 16.9748 6.2496 15.9782 6.2496 14.9485C6.2496 13.9186 6.43076 12.9221 6.72731 11.992L6.71901 11.7939L2.08474 8.16549L1.93312 8.2382C0.928192 10.2646 0.351562 12.5401 0.351562 14.9485C0.351562 17.3568 0.928192 19.6322 1.93312 21.6586L6.74377 17.905" fill="#FFD584"/>
<path d="M15.1795 5.78004C17.9637 5.78004 19.8418 6.99252 20.9127 8.00576L25.0973 3.8866C22.5273 1.47824 19.1828 0 15.1795 0C9.38025 0 4.37186 3.35508 1.93359 8.23821L6.72778 11.992C7.93056 8.38775 11.2585 5.78004 15.1795 5.78004" fill="#EA4335"/>
</svg>
