<svg width="60" height="60" viewBox="0 0 60 60" fill="none" xmlns="http://www.w3.org/2000/svg">
<rect width="60" height="60" rx="14.5732" fill="#FFCD42"/>
<path opacity="0.35" d="M21.2448 31.3571V33.1086C21.2448 34.0754 20.4602 34.8599 19.4935 34.8599C18.5268 34.8599 17.7422 34.0754 17.7422 33.1086V31.3571H15.9896C15.0229 31.3571 14.2383 30.5725 14.2383 29.6058C14.2383 28.6391 15.0229 27.8545 15.9896 27.8545H17.7422V26.1034C17.7422 25.1366 18.5268 24.3521 19.4935 24.3521C20.4602 24.3521 21.2448 25.1366 21.2448 26.1034V27.8545H22.9949C23.9616 27.8545 24.7462 28.6391 24.7462 29.6058C24.7462 30.5725 23.9616 31.3571 22.9949 31.3571H21.2448Z" fill="white"/>
<path fill-rule="evenodd" clip-rule="evenodd" d="M19.491 17.7402H40.5067C45.3421 17.7402 49.2633 21.6614 49.2633 26.4968V37.0047C49.2633 41.8401 45.3421 45.7613 40.5067 45.7613C36.4032 45.7613 34.7034 43.9584 33.2953 42.4649C32.2996 41.4088 31.4497 40.5073 29.9988 40.5073C28.548 40.5073 27.6981 41.4088 26.7024 42.4649C25.2943 43.9584 23.5945 45.7613 19.491 45.7613C14.6556 45.7613 10.7344 41.8401 10.7344 37.0047V26.4968C10.7344 21.6614 14.6556 17.7402 19.491 17.7402ZM40.5091 27.8552C41.4764 27.8552 42.2604 27.0711 42.2604 26.1039C42.2604 25.1366 41.4764 24.3525 40.5091 24.3525C39.5419 24.3525 38.7578 25.1366 38.7578 26.1039C38.7578 27.0711 39.5419 27.8552 40.5091 27.8552ZM21.2448 31.3581V33.1096C21.2448 34.0763 20.4602 34.8609 19.4935 34.8609C18.5268 34.8609 17.7422 34.0763 17.7422 33.1096V31.3581H15.9896C15.0229 31.3581 14.2383 30.5735 14.2383 29.6068C14.2383 28.6401 15.0229 27.8555 15.9896 27.8555H17.7422V26.1043C17.7422 25.1376 18.5268 24.353 19.4935 24.353C20.4602 24.353 21.2448 25.1376 21.2448 26.1043V27.8555H22.9949C23.9616 27.8555 24.7462 28.6401 24.7462 29.6068C24.7462 30.5735 23.9616 31.3581 22.9949 31.3581H21.2448ZM40.5091 34.8601C41.4764 34.8601 42.2604 34.076 42.2604 33.1087C42.2604 32.1415 41.4764 31.3574 40.5091 31.3574C39.5419 31.3574 38.7578 32.1415 38.7578 33.1087C38.7578 34.076 39.5419 34.8601 40.5091 34.8601ZM44.0091 31.3576C44.9764 31.3576 45.7604 30.5735 45.7604 29.6063C45.7604 28.6391 44.9764 27.855 44.0091 27.855C43.0419 27.855 42.2578 28.6391 42.2578 29.6063C42.2578 30.5735 43.0419 31.3576 44.0091 31.3576ZM37.0052 31.3576C37.9724 31.3576 38.7565 30.5735 38.7565 29.6063C38.7565 28.6391 37.9724 27.855 37.0052 27.855C36.038 27.855 35.2539 28.6391 35.2539 29.6063C35.2539 30.5735 36.038 31.3576 37.0052 31.3576Z" fill="white"/>
<g opacity="0.35">
<path d="M40.5091 27.8552C41.4764 27.8552 42.2604 27.0711 42.2604 26.1039C42.2604 25.1366 41.4764 24.3525 40.5091 24.3525C39.5419 24.3525 38.7578 25.1366 38.7578 26.1039C38.7578 27.0711 39.5419 27.8552 40.5091 27.8552Z" fill="white"/>
<path d="M42.2604 33.1087C42.2604 34.076 41.4764 34.8601 40.5091 34.8601C39.5419 34.8601 38.7578 34.076 38.7578 33.1087C38.7578 32.1415 39.5419 31.3574 40.5091 31.3574C41.4764 31.3574 42.2604 32.1415 42.2604 33.1087Z" fill="white"/>
<path d="M44.0091 31.3576C44.9764 31.3576 45.7604 30.5735 45.7604 29.6063C45.7604 28.6391 44.9764 27.855 44.0091 27.855C43.0419 27.855 42.2578 28.6391 42.2578 29.6063C42.2578 30.5735 43.0419 31.3576 44.0091 31.3576Z" fill="white"/>
<path d="M38.7565 29.6063C38.7565 30.5735 37.9724 31.3576 37.0052 31.3576C36.038 31.3576 35.2539 30.5735 35.2539 29.6063C35.2539 28.6391 36.038 27.855 37.0052 27.855C37.9724 27.855 38.7565 28.6391 38.7565 29.6063Z" fill="white"/>
</g>
<path opacity="0.35" d="M19.4922 17.7401C19.4922 16.7734 20.2768 15.9888 21.2435 15.9888H24.7461C25.7129 15.9888 26.4975 16.7734 26.4975 17.7401H19.4922Z" fill="white"/>
<path opacity="0.35" d="M33.5039 17.7401C33.5039 16.7734 34.2885 15.9888 35.2552 15.9888H38.7579C39.7246 15.9888 40.5092 16.7734 40.5092 17.7401H33.5039Z" fill="white"/>
</svg>
