<svg width="1636" height="600" viewBox="0 0 1636 600" fill="none" xmlns="http://www.w3.org/2000/svg">
<g clip-path="url(#clip0_2988_43292)">
<mask id="mask0_2988_43292" style="mask-type:alpha" maskUnits="userSpaceOnUse" x="-54" y="-146" width="1744" height="747">
<rect x="-54" y="-145.425" width="1744" height="745.757" fill="#563AFF"/>
</mask>
<g mask="url(#mask0_2988_43292)">
<g opacity="0.6">
<path opacity="0.3" fill-rule="evenodd" clip-rule="evenodd" d="M845.126 685.09C836.427 701.001 813.414 707.524 794.981 716.74C777.829 725.318 761.164 733.878 741.748 736.788C718.888 740.212 691.122 746.837 674.886 734.732C658.531 722.54 671.175 699.114 666.974 681.045C663.177 664.691 642.319 649.931 651.547 634.219C660.872 618.338 689.817 620.117 708.306 610.659C725.357 601.936 735.52 583.166 755.038 581.278C774.847 579.359 790.607 591.615 805.488 601.242C820.015 610.639 832.547 621.56 839.258 635.755C846.611 651.301 853.91 669.025 845.126 685.09Z" stroke="white"/>
<path opacity="0.3" fill-rule="evenodd" clip-rule="evenodd" d="M905.956 696.844C891.903 722.546 854.837 733.109 825.133 748.018C797.493 761.892 770.64 775.736 739.368 780.46C702.552 786.021 657.826 796.757 631.713 777.234C605.412 757.568 625.827 719.726 619.117 690.55C613.046 664.147 579.499 640.344 594.395 614.958C609.452 589.303 656.054 592.138 685.849 576.838C713.326 562.731 729.739 532.413 761.168 529.333C793.069 526.207 818.415 545.976 842.353 561.5C865.72 576.653 885.871 594.272 896.637 617.18C908.432 642.28 920.141 670.889 905.956 696.844Z" stroke="white"/>
<path opacity="0.3" fill-rule="evenodd" clip-rule="evenodd" d="M964.878 708.229C945.65 743.416 894.958 757.895 854.334 778.315C816.535 797.325 779.811 816.291 737.053 822.768C686.716 830.4 625.561 845.118 589.881 818.407C553.942 791.501 581.887 739.694 572.741 699.761C564.465 663.624 518.626 631.059 539.016 596.304C559.623 561.18 623.331 565.034 664.078 544.08C701.658 524.755 724.123 483.248 767.093 479.016C810.708 474.721 845.339 501.767 878.054 523.004C909.984 543.734 937.516 567.84 952.217 599.196C968.314 633.541 984.295 672.696 964.878 708.229Z" stroke="white"/>
<path opacity="0.3" fill-rule="evenodd" clip-rule="evenodd" d="M1018.11 718.515C994.199 762.272 931.205 780.286 880.72 805.686C833.745 829.319 788.109 852.912 734.973 860.987C672.423 870.481 596.429 888.8 552.106 855.594C507.463 822.152 542.209 757.729 530.864 708.081C520.597 663.151 463.653 622.672 489.002 579.455C514.622 535.778 593.782 540.553 644.422 514.49C691.12 490.455 719.058 438.841 772.45 433.569C826.65 428.213 869.668 461.836 910.311 488.233C949.977 513.998 984.177 543.965 1002.43 582.948C1022.41 625.648 1042.25 674.328 1018.11 718.515Z" stroke="white"/>
<path opacity="0.3" fill-rule="evenodd" clip-rule="evenodd" d="M1067.53 728.064C1039.27 779.769 964.857 801.066 905.214 831.097C849.717 859.044 795.796 886.919 733.035 896.47C659.142 907.703 569.371 929.358 517.023 890.123C464.298 850.614 505.363 774.475 491.972 715.805C479.857 662.712 412.603 614.884 442.561 563.808C472.832 512.188 566.344 517.821 626.169 487.011C681.339 458.605 714.353 397.602 777.426 391.363C841.447 385.031 892.254 424.755 940.254 455.944C987.102 486.386 1027.49 521.794 1049.04 567.86C1072.64 618.319 1096.06 675.844 1067.53 728.064Z" stroke="white"/>
<path opacity="0.3" fill-rule="evenodd" clip-rule="evenodd" d="M1118.85 737.982C1086.08 797.956 999.802 822.653 930.651 857.492C866.304 889.898 803.785 922.237 731.02 933.311C645.355 946.349 541.273 971.482 480.592 925.991C419.473 880.167 467.092 791.866 451.583 723.827C437.548 662.256 359.587 606.797 394.33 547.561C429.442 487.694 537.846 494.215 607.21 458.48C671.178 425.526 709.469 354.781 782.59 347.537C856.813 340.189 915.707 386.252 971.345 422.417C1025.65 457.72 1072.47 498.774 1097.44 552.196C1124.79 610.708 1151.94 677.416 1118.85 737.982Z" stroke="white"/>
<path opacity="0.3" fill-rule="evenodd" clip-rule="evenodd" d="M1181.58 750.098C1143.3 820.174 1042.52 849.045 961.742 889.738C886.581 927.611 813.556 965.402 728.565 978.351C628.507 993.595 506.934 1022.96 436.068 969.812C364.69 916.286 420.325 813.122 402.224 733.631C385.842 661.698 294.798 596.912 335.386 527.701C376.407 457.756 503.021 465.365 584.044 423.606C658.763 385.099 703.496 302.443 788.906 293.975C875.598 285.377 944.378 339.194 1009.36 381.437C1072.78 422.673 1127.46 470.636 1156.61 533.047C1188.55 601.405 1220.23 679.339 1181.58 750.098Z" stroke="white"/>
<path opacity="0.3" fill-rule="evenodd" clip-rule="evenodd" d="M1250.01 763.318C1205.71 844.404 1089.12 877.828 995.661 924.929C908.7 968.755 824.213 1012.5 725.885 1027.49C610.124 1045.13 469.473 1079.12 387.496 1017.63C304.927 955.697 369.307 836.31 348.376 744.328C329.435 661.091 224.113 586.13 271.082 506.038C318.549 425.096 465.025 433.889 558.771 385.563C645.218 340.998 696.982 245.348 795.795 235.541C896.09 225.588 975.654 287.851 1050.82 336.731C1124.19 384.443 1187.44 439.941 1221.15 512.159C1258.09 591.256 1294.74 681.435 1250.01 763.318Z" stroke="white"/>
<path opacity="0.3" fill-rule="evenodd" clip-rule="evenodd" d="M1316.54 776.17C1266.39 867.974 1134.42 905.814 1028.64 959.135C930.209 1008.76 834.577 1058.28 723.278 1075.25C592.252 1095.23 433.05 1133.71 340.274 1064.12C246.823 994.007 319.706 858.854 296.024 754.727C274.595 660.499 155.396 575.645 208.563 484.976C262.299 393.343 428.09 403.288 534.198 348.576C632.049 298.121 690.649 189.838 802.491 178.73C916.012 167.457 1006.06 237.936 1091.13 293.265C1174.17 347.273 1245.75 410.095 1283.91 491.846C1325.71 581.39 1367.18 683.472 1316.54 776.17Z" stroke="white"/>
<path opacity="0.3" fill-rule="evenodd" clip-rule="evenodd" d="M1377.37 787.928C1321.87 889.522 1175.84 931.4 1058.78 990.416C949.864 1045.33 844.043 1100.14 720.893 1118.92C575.91 1141.04 399.749 1183.63 297.095 1106.62C193.696 1029.03 274.352 879.468 248.157 764.234C224.452 659.958 92.5606 566.061 151.401 465.72C210.866 364.312 394.315 375.311 511.729 314.759C620.006 258.919 684.854 139.085 808.61 126.789C934.224 114.308 1033.86 192.3 1127.99 253.529C1219.86 313.294 1299.07 382.812 1341.29 473.279C1387.52 572.369 1433.41 685.342 1377.37 787.928Z" stroke="white"/>
<path opacity="0.3" fill-rule="evenodd" clip-rule="evenodd" d="M1441.99 800.412C1380.82 912.41 1219.85 958.58 1090.82 1023.65C970.755 1084.19 854.111 1144.61 718.357 1165.32C558.551 1189.72 364.367 1236.68 251.218 1151.77C137.251 1066.25 226.164 901.365 197.299 774.338C171.176 659.387 25.8025 555.883 90.6675 445.262C156.221 333.469 358.434 345.587 487.854 278.832C607.211 217.268 678.701 85.161 815.114 71.6012C953.575 57.8388 1063.39 143.815 1167.14 211.307C1268.41 277.189 1355.71 353.819 1402.24 453.552C1453.21 562.785 1503.77 687.323 1441.99 800.412Z" stroke="white"/>
<path opacity="0.3" fill-rule="evenodd" clip-rule="evenodd" d="M1512.33 814C1444.97 937.32 1267.74 988.167 1125.68 1059.81C993.491 1126.48 865.06 1193.01 715.606 1215.83C539.657 1242.68 325.867 1294.4 201.3 1200.92C75.8275 1106.76 173.731 925.198 141.956 785.33C113.203 658.758 -46.8436 544.791 24.5784 422.993C96.7585 299.899 319.384 313.236 461.883 239.728C593.289 171.942 672.007 26.4788 822.196 11.5445C974.638 -3.61398 1095.54 91.0466 1209.76 165.36C1321.25 237.897 1417.36 322.273 1468.59 432.082C1524.69 552.355 1580.35 689.482 1512.33 814Z" stroke="white"/>
</g>
</g>
</g>
<defs>
<clipPath id="clip0_2988_43292">
<rect width="1636" height="600" fill="white"/>
</clipPath>
</defs>
</svg>
