<svg width="415" height="312" viewBox="0 0 415 312" fill="none" xmlns="http://www.w3.org/2000/svg">
<path opacity="0.15" d="M356.653 171.693C298.87 218.99 202.906 197.075 202.906 197.075C202.906 197.075 200.636 98.4795 258.423 51.1831C316.21 3.89126 412.165 25.8049 412.165 25.8049C412.165 25.8049 414.435 124.396 356.653 171.693Z" fill="white"/>
<g opacity="0.3">
<path d="M413.304 24.8756C413.815 25.5016 413.722 26.427 413.096 26.9429L151.698 240.891C151.073 241.407 150.149 241.314 149.635 240.683C149.125 240.057 149.218 239.131 149.843 238.615L411.241 24.6671C411.867 24.1512 412.79 24.2445 413.304 24.8756Z" fill="white"/>
<path d="M407.693 72.336C408.499 72.4175 409.086 73.1379 409.005 73.9458C408.924 74.7537 408.205 75.3422 407.398 75.2607L359.316 70.4033C358.51 70.3219 357.923 69.6014 358.004 68.7935C358.085 67.9856 358.804 67.3972 359.611 67.4786L407.693 72.336Z" fill="white"/>
<path d="M396.591 112.129C397.398 112.211 397.985 112.931 397.904 113.739C397.822 114.547 397.103 115.135 396.297 115.054L314.818 106.823C314.011 106.741 313.424 106.021 313.505 105.213C313.587 104.405 314.306 103.816 315.112 103.898L396.591 112.129Z" fill="white"/>
<path d="M375.384 150.896C376.191 150.978 376.778 151.698 376.697 152.502C376.616 153.31 375.897 153.898 375.09 153.817L270.322 143.233C269.516 143.151 268.929 142.431 269.01 141.623C269.092 140.815 269.81 140.231 270.616 140.312L375.384 150.896Z" fill="white"/>
<path d="M328.779 187.098C329.585 187.179 330.172 187.9 330.091 188.708C330.01 189.515 329.291 190.104 328.484 190.022L225.829 179.652C225.023 179.57 224.436 178.85 224.517 178.042C224.598 177.234 225.317 176.646 226.124 176.727L328.779 187.098Z" fill="white"/>
<path d="M365.775 20.9081L360.924 69.0884C360.843 69.8964 360.124 70.4849 359.318 70.4034C358.511 70.322 357.924 69.6015 358.005 68.7935L362.856 20.6133C362.937 19.8053 363.656 19.2168 364.462 19.2982C365.269 19.3797 365.856 20.1002 365.775 20.9081Z" fill="white"/>
<path d="M324.646 23.8619L316.427 105.507C316.345 106.315 315.626 106.904 314.82 106.822C314.014 106.741 313.426 106.021 313.508 105.213L321.727 23.567C321.808 22.759 322.527 22.1705 323.333 22.252C324.14 22.3334 324.727 23.0539 324.646 23.8619Z" fill="white"/>
<path d="M283.654 34.1889C284.458 34.2884 285.031 35.021 284.931 35.8272L271.936 141.955C271.837 142.761 271.105 143.334 270.301 143.235C269.496 143.135 268.928 142.403 269.023 141.596L282.019 35.4691C282.118 34.663 282.849 34.0893 283.654 34.1889Z" fill="white"/>
<path d="M237.802 75.4722L227.447 178.337C227.365 179.145 226.646 179.734 225.84 179.652C225.034 179.571 224.446 178.85 224.528 178.042L234.883 75.1773C234.964 74.3693 235.683 73.7808 236.49 73.8623C237.296 73.9438 237.883 74.6642 237.802 75.4722Z" fill="white"/>
</g>
<path opacity="0.15" d="M48.9871 150.224C92.2296 193.559 172.294 183.592 172.294 183.592C172.294 183.592 182.24 103.368 138.994 60.033C95.7479 16.702 15.6905 26.6682 15.6905 26.6682C15.6905 26.6682 5.74451 106.889 48.9871 150.224Z" fill="white"/>
<g opacity="0.3">
<path d="M14.839 25.8163C14.3714 26.2849 14.3714 27.0472 14.839 27.5195L210.462 223.546C210.93 224.019 211.691 224.019 212.162 223.546C212.63 223.078 212.63 222.316 212.162 221.843L16.5387 25.8163C16.0711 25.344 15.3103 25.344 14.839 25.8163Z" fill="white"/>
<path d="M15.5227 64.9865C14.8584 64.9865 14.3203 65.5257 14.3203 66.1913C14.3203 66.8569 14.8584 67.396 15.5227 67.396H55.1358C55.8001 67.396 56.3382 66.8569 56.3382 66.1913C56.3382 65.5257 55.8001 64.9865 55.1358 64.9865H15.5227Z" fill="white"/>
<path d="M21.3079 98.3549C20.6436 98.3549 20.1055 98.8941 20.1055 99.5597C20.1055 100.225 20.6436 100.764 21.3079 100.764H88.4355C89.0998 100.764 89.638 100.225 89.638 99.5597C89.638 98.8941 89.0998 98.3549 88.4355 98.3549H21.3079Z" fill="white"/>
<path d="M35.4173 131.72C34.753 131.72 34.2148 132.259 34.2148 132.921C34.2148 133.586 34.753 134.125 35.4173 134.125H121.732C122.396 134.125 122.934 133.586 122.934 132.921C122.934 132.255 122.396 131.72 121.732 131.72H35.4173Z" fill="white"/>
<path d="M70.4563 165.084C69.792 165.084 69.2539 165.623 69.2539 166.289C69.2539 166.955 69.792 167.494 70.4563 167.494H155.03C155.694 167.494 156.233 166.955 156.233 166.289C156.233 165.623 155.694 165.084 155.03 165.084H70.4563Z" fill="white"/>
<path d="M53.9336 26.4973V66.1914C53.9336 66.857 54.4717 67.3962 55.136 67.3962C55.8003 67.3962 56.3384 66.857 56.3384 66.1914V26.4973C56.3384 25.8316 55.8003 25.2924 55.136 25.2924C54.4717 25.2924 53.9336 25.8316 53.9336 26.4973Z" fill="white"/>
<path d="M87.2383 32.2948V99.5598C87.2383 100.225 87.7764 100.765 88.4407 100.765C89.105 100.765 89.6431 100.225 89.6431 99.5598V32.2948C89.6431 31.6292 89.105 31.09 88.4407 31.09C87.7764 31.09 87.2383 31.6292 87.2383 32.2948Z" fill="white"/>
<path d="M119.821 44.0943C119.157 44.1092 118.63 44.6596 118.645 45.3252L120.53 132.95C120.545 133.616 121.094 134.144 121.759 134.129C122.423 134.114 122.946 133.564 122.935 132.898L121.05 45.2732C121.035 44.6075 120.486 44.0794 119.821 44.0943Z" fill="white"/>
<path d="M153.828 81.5425V166.289C153.828 166.955 154.366 167.494 155.031 167.494C155.695 167.494 156.233 166.955 156.233 166.289V81.5425C156.233 80.8768 155.695 80.3376 155.031 80.3376C154.366 80.3376 153.828 80.8768 153.828 81.5425Z" fill="white"/>
</g>
<path d="M175.102 301.03L7.38004 263.639L2.96484 265.798C2.96484 265.798 156.345 300.949 173.334 305.217C174.38 304.855 175.189 303.357 175.719 301.205L175.102 301.03Z" fill="#2FF2B8"/>
<path d="M178.508 272.987L0 236.532V240.333L5.07533 241.425C5.11893 241.462 5.15632 241.512 5.18123 241.549L5.26219 241.462C5.26219 241.462 156.706 273.542 173.669 277.28C176.696 281.873 177.375 294.597 175.718 301.199C175.189 303.358 174.379 304.849 173.333 305.211C156.345 300.937 2.96424 265.792 2.96424 265.792V270.017L178.57 312C182.045 302.097 182.606 291.801 178.508 272.987Z" fill="#2FF2B8"/>
<path opacity="0.5" d="M178.508 272.987L0 236.532V240.333L5.07533 241.425C5.11893 241.462 5.15632 241.512 5.18123 241.549L5.26219 241.462C5.26219 241.462 156.706 273.542 173.669 277.28C176.696 281.873 177.375 294.597 175.718 301.199C175.189 303.358 174.379 304.849 173.333 305.211C156.345 300.937 2.96424 265.792 2.96424 265.792V270.017L178.57 312C182.045 302.097 182.606 291.801 178.508 272.987Z" fill="white"/>
<path d="M340.669 209.818L178.508 272.987C182.599 291.801 182.045 302.091 178.57 312L344.461 244.158C350.813 222.124 340.669 209.818 340.669 209.818Z" fill="#2FF2B8"/>
<path d="M0 236.538L178.508 272.987L340.669 209.818L157.69 190.605L0 236.538Z" fill="#2FF2B8"/>
<path opacity="0.3" d="M0 236.538L178.508 272.987L340.669 209.818L157.69 190.605L0 236.538Z" fill="white"/>
<path d="M5.26065 241.468L5.17969 241.555C12.4035 249.006 7.3779 263.639 7.3779 263.639L175.1 301.03L175.717 301.199C177.379 294.596 176.694 281.873 173.668 277.28C156.704 273.549 5.26065 241.468 5.26065 241.468Z" fill="white"/>
<path d="M9.05776 254.142C9.08267 253.343 9.08265 252.519 9.03906 251.696C43.2959 260.819 141.39 283.969 141.39 283.969C141.39 283.969 32.3295 259.44 9.05776 254.142Z" fill="white"/>
<path d="M224.537 246.491L224.661 246.51C225.664 240.12 227.109 226.76 223.578 217.593L56.9453 204.608C59.9282 216.164 57.3252 231.709 57.3252 231.709L224.537 246.491Z" fill="white"/>
<path d="M224 250.167C224 250.167 224.299 248.775 224.66 246.516L224.536 246.498L57.3242 231.721L50.8477 235.203L224 250.167Z" fill="#FF4267"/>
<path d="M227.625 213.606L51.3342 200.134L51.5023 204.152L56.9388 204.62L223.571 217.606C227.108 226.773 225.664 240.133 224.655 246.523C224.294 248.788 223.995 250.173 223.995 250.173L50.8359 235.203V239.621L227.7 254.997C227.7 254.959 227.725 254.934 227.725 254.891C231.081 239.44 232.545 229.787 227.625 213.606Z" fill="#FF4267"/>
<path opacity="0.5" d="M227.625 213.606L51.3342 200.134L51.5023 204.152L56.9388 204.62L223.571 217.606C227.108 226.773 225.664 240.133 224.655 246.523C224.294 248.788 223.995 250.173 223.995 250.173L50.8359 235.203V239.621L227.7 254.997C227.7 254.959 227.725 254.934 227.725 254.891C231.081 239.44 232.545 229.787 227.625 213.606Z" fill="white"/>
<path d="M301.363 162.244L227.625 213.6C232.545 229.787 231.075 239.44 227.731 254.878L302.005 192.777C305.648 187.341 306.14 169.676 301.363 162.244Z" fill="#FF4267"/>
<path d="M166.635 152.74L50.9297 200.109L51.3345 200.127L227.625 213.606L301.364 162.244L166.635 152.74Z" fill="#FF4267"/>
<path opacity="0.3" d="M166.635 152.74L50.9297 200.109L51.3345 200.127L227.625 213.606L301.364 162.244L166.635 152.74Z" fill="white"/>
<path d="M241.59 187.355L241.609 187.373C249.985 172.772 240.631 144.685 236.689 140.76L36.2109 137.964C45.8198 150.669 41.4046 173.052 40.5826 176.828C40.5577 176.89 40.5577 176.977 40.5328 177.04C39.7232 181.377 38.5524 184.278 38.5524 184.278L241.59 187.355Z" fill="white"/>
<path d="M42.2882 162.152C42.3131 161.059 42.3069 159.936 42.2695 158.8C51.5546 159.075 207.482 163.618 207.482 163.618C207.482 163.618 55.1851 162.152 42.2882 162.152Z" fill="white"/>
<path d="M32.332 187.317L32.357 188.104H32.3818L238.845 191.03C239.928 189.945 240.85 188.721 241.616 187.38L241.597 187.361L38.5594 184.285C35.3772 186.269 32.332 187.317 32.332 187.317Z" fill="#7D42FB"/>
<path d="M236.689 140.76C240.631 144.685 249.991 172.772 241.609 187.374C240.843 188.721 239.921 189.938 238.837 191.024L32.3747 188.097H32.3498L32.5366 193.501C32.5366 193.501 170.386 194.912 241.453 196.041C244.199 192.777 246.211 189.296 247.593 185.689C255.901 164.547 243.67 139.668 238.918 134.563L31.2164 132.173L30.793 137.64L36.2045 137.964L236.689 140.76Z" fill="#7D42FB"/>
<path opacity="0.5" d="M236.689 140.76C240.631 144.685 249.991 172.772 241.609 187.373C240.843 188.721 239.921 189.938 238.837 191.024L32.3747 188.097H32.3498L32.5366 193.501C32.5366 193.501 170.386 194.912 241.453 196.041C244.199 192.777 246.211 189.295 247.593 185.689C255.901 164.547 243.67 139.668 238.918 134.563L31.2164 132.173L30.793 137.64L36.2045 137.964L236.689 140.76Z" fill="white"/>
<path d="M247.598 185.695H247.623L263.329 154.769C278.498 124.38 259.237 99.7811 259.237 99.7811L238.93 134.564C243.675 139.674 255.905 164.554 247.598 185.695Z" fill="#7D42FB"/>
<path d="M31.2227 132.173L238.925 134.57L259.232 99.7811L91.6595 95.9808L31.2227 132.173Z" fill="#9C6FFC"/>
</svg>
