<svg width="1444" height="302" viewBox="0 0 1444 302" fill="none" xmlns="http://www.w3.org/2000/svg">
<g clip-path="url(#clip0_2988_43253)">
<g opacity="0.4">
<path opacity="0.15" d="M747.654 88.6814C687.499 60.6235 609.527 100.508 609.527 100.508C609.527 100.508 629.094 185.877 689.255 213.933C749.413 241.984 827.377 202.108 827.377 202.108C827.377 202.108 807.811 116.744 747.654 88.6814Z" fill="white"/>
<path opacity="0.3" fill-rule="evenodd" clip-rule="evenodd" d="M553.666 74.4553C553.256 75.3349 553.633 76.3707 554.512 76.7807L632.158 112.988L663.3 198.578C663.631 199.487 664.635 199.955 665.544 199.624C666.453 199.293 666.921 198.289 666.59 197.38L636.645 115.08L678.488 134.592L712.62 222.455C712.971 223.356 713.985 223.804 714.886 223.453C715.788 223.101 716.235 222.087 715.884 221.186L683.076 136.732L724.794 156.185L749.465 223.991C749.796 224.9 750.8 225.369 751.709 225.038C752.617 224.707 753.086 223.703 752.755 222.794L729.281 158.278L771.117 177.786L785.576 217.526C785.907 218.435 786.911 218.903 787.815 218.574C788.719 218.245 789.192 217.239 788.861 216.33L775.597 179.876L826.642 203.679C827.521 204.089 828.557 203.712 828.967 202.832C829.379 201.958 829 200.917 828.121 200.507L777.1 176.714L813.512 163.457C814.42 163.126 814.888 162.122 814.558 161.213C814.227 160.305 813.223 159.837 812.315 160.167L772.614 174.622L730.767 155.108L795.246 131.632C796.154 131.301 796.622 130.297 796.292 129.388C795.961 128.48 794.957 128.012 794.049 128.342L726.281 153.016L684.449 133.508L768.503 102.905C769.411 102.575 769.88 101.571 769.549 100.662C769.218 99.7532 768.214 99.2851 767.306 99.6159L679.963 131.416L638.116 111.902L720.405 81.9418C721.313 81.611 721.781 80.6069 721.451 79.6982C721.12 78.7895 720.116 78.3214 719.208 78.6522L633.63 109.81L555.99 73.6036C555.114 73.2037 554.073 73.5827 553.666 74.4553Z" fill="white"/>
</g>
<g opacity="0.4">
<path opacity="0.15" d="M1342.31 259.49C1384.47 289.02 1442.28 279.203 1442.28 279.203C1442.28 279.203 1431.73 221.516 1389.57 191.99C1347.41 162.465 1289.61 172.282 1289.61 172.282C1289.61 172.282 1300.16 229.97 1342.31 259.49Z" fill="white"/>
<g opacity="0.3">
<path d="M1289.16 173.451L1426.57 269.676C1427.25 270.153 1428.18 269.988 1428.66 269.308C1429.13 268.629 1428.96 267.7 1428.29 267.223L1290.88 170.993C1290.2 170.522 1289.27 170.686 1288.8 171.361C1288.32 172.041 1288.48 172.974 1289.16 173.451Z" fill="white"/>
<path d="M1303.66 212.373L1337.09 206.475C1337.9 206.332 1338.45 205.555 1338.3 204.741C1338.16 203.926 1337.38 203.382 1336.57 203.526L1303.14 209.424C1302.32 209.567 1301.78 210.344 1301.92 211.158C1302.07 211.973 1302.84 212.516 1303.66 212.373Z" fill="white"/>
<path d="M1325.67 245.253L1379.03 235.84C1379.84 235.697 1380.38 234.92 1380.24 234.106C1380.1 233.291 1379.32 232.747 1378.51 232.891L1325.15 242.304C1324.33 242.447 1323.79 243.224 1323.93 244.038C1324.08 244.853 1324.85 245.396 1325.67 245.253Z" fill="white"/>
<path d="M1369.16 274.353L1420.96 265.215C1421.78 265.071 1422.32 264.295 1422.18 263.481C1422.03 262.666 1421.26 262.122 1420.44 262.266L1368.64 271.404C1367.82 271.548 1367.28 272.324 1367.42 273.139C1367.57 273.953 1368.34 274.497 1369.16 274.353Z" fill="white"/>
<path d="M1337.09 206.476C1337.91 206.332 1338.45 205.556 1338.31 204.741L1332.45 171.468C1332.3 170.653 1331.53 170.109 1330.71 170.253C1329.9 170.397 1329.35 171.173 1329.5 171.988L1335.36 205.261C1335.51 206.075 1336.28 206.62 1337.09 206.476Z" fill="white"/>
<path d="M1366.6 180.788L1377.29 234.663C1377.46 235.474 1378.24 236.002 1379.06 235.84C1379.87 235.678 1380.39 234.89 1380.23 234.079L1369.54 180.204C1369.37 179.392 1368.59 178.864 1367.77 179.026C1366.96 179.188 1366.44 179.976 1366.6 180.788Z" fill="white"/>
<path d="M1419.23 264.006C1419.37 264.821 1420.15 265.364 1420.96 265.221C1421.78 265.077 1422.32 264.3 1422.18 263.486L1413.24 212.787C1413.1 211.972 1412.32 211.429 1411.51 211.572C1410.69 211.716 1410.15 212.493 1410.29 213.307L1419.23 264.006Z" fill="white"/>
</g>
</g>
<g opacity="0.4">
<path opacity="0.15" d="M125.362 143.504C157.961 96.9391 232.832 93.1208 232.832 93.1208C232.832 93.1208 254.852 164.796 222.247 211.357C189.647 257.917 114.781 261.735 114.781 261.735C114.781 261.735 92.7671 190.068 125.362 143.504Z" fill="white"/>
<g opacity="0.3">
<path d="M261.05 50.2475L113.576 260.88C113.103 261.556 113.267 262.49 113.943 262.967C114.618 263.44 115.552 263.275 116.029 262.599L263.503 51.9612C263.976 51.286 263.811 50.3521 263.136 49.8748C262.456 49.4029 261.527 49.5669 261.05 50.2475Z" fill="white"/>
<path d="M108.038 224.188C107.223 224.332 106.679 225.108 106.823 225.924C106.966 226.739 107.743 227.283 108.558 227.139L144.807 220.745C145.622 220.601 146.166 219.824 146.022 219.009C145.879 218.193 145.102 217.65 144.287 217.793L108.038 224.188Z" fill="white"/>
<path d="M107.964 192.776C107.149 192.919 106.605 193.696 106.748 194.512C106.892 195.327 107.669 195.871 108.484 195.727L169.909 184.892C170.725 184.748 171.269 183.971 171.125 183.156C170.981 182.341 170.204 181.797 169.389 181.94L107.964 192.776Z" fill="white"/>
<path d="M115.503 160.025C114.688 160.169 114.144 160.946 114.287 161.761C114.431 162.576 115.208 163.12 116.023 162.976L195.007 149.044C195.822 148.9 196.366 148.123 196.222 147.308C196.079 146.493 195.302 145.949 194.487 146.093L115.503 160.025Z" fill="white"/>
<path d="M142.194 123.887C141.379 124.03 140.835 124.807 140.979 125.623C141.123 126.438 141.899 126.982 142.715 126.838L220.104 113.187C220.919 113.043 221.463 112.266 221.32 111.451C221.176 110.636 220.399 110.092 219.584 110.236L142.194 123.887Z" fill="white"/>
<path d="M143.073 219.53L149.463 255.789C149.607 256.604 150.383 257.144 151.199 257C152.014 256.856 152.558 256.079 152.415 255.268L146.025 219.009C145.881 218.194 145.104 217.649 144.289 217.793C143.473 217.937 142.929 218.714 143.073 219.53Z" fill="white"/>
<path d="M168.174 183.677L179.004 245.12C179.148 245.936 179.925 246.48 180.74 246.336C181.556 246.192 182.1 245.415 181.956 244.599L171.126 183.156C170.983 182.34 170.206 181.796 169.39 181.94C168.575 182.084 168.03 182.861 168.174 183.677Z" fill="white"/>
<path d="M193.267 147.797L205.647 228.142C205.773 228.961 206.539 229.521 207.357 229.395C208.176 229.27 208.736 228.504 208.611 227.685L196.23 147.34C196.105 146.522 195.339 145.962 194.52 146.087C193.702 146.213 193.141 146.979 193.267 147.797Z" fill="white"/>
<path d="M218.37 111.972L232.014 189.384C232.158 190.199 232.935 190.743 233.75 190.599C234.566 190.455 235.11 189.678 234.966 188.863L221.322 111.451C221.178 110.636 220.401 110.092 219.585 110.236C218.77 110.379 218.226 111.157 218.37 111.972Z" fill="white"/>
</g>
</g>
</g>
<defs>
<clipPath id="clip0_2988_43253">
<rect width="1444" height="302" fill="white"/>
</clipPath>
</defs>
</svg>
