<svg width="1616" height="774" viewBox="0 0 1616 774" fill="none" xmlns="http://www.w3.org/2000/svg">
<g clip-path="url(#clip0_2988_43272)">
<mask id="mask0_2988_43272" style="mask-type:alpha" maskUnits="userSpaceOnUse" x="-114" y="-135" width="1844" height="909">
<rect x="-113.168" y="-135" width="1842.34" height="909" fill="#563AFF"/>
</mask>
<g mask="url(#mask0_2988_43272)">
<g opacity="0.6">
<path opacity="0.3" fill-rule="evenodd" clip-rule="evenodd" d="M851.115 696.833C842.405 712.767 819.381 719.311 800.937 728.548C783.775 737.145 767.101 745.725 747.678 748.648C724.809 752.089 697.031 758.738 680.797 746.628C664.444 734.43 677.104 710.97 672.912 692.882C669.123 676.511 648.268 661.746 657.507 646.01C666.843 630.105 695.796 631.87 714.297 622.391C731.357 613.649 741.534 594.851 761.058 592.95C780.874 591.017 796.632 603.279 811.513 612.909C826.038 622.308 838.568 633.236 845.273 647.444C852.619 663.003 859.911 680.744 851.115 696.833Z" stroke="white"/>
<path opacity="0.3" fill-rule="evenodd" clip-rule="evenodd" d="M911.951 708.566C897.879 734.306 860.796 744.902 831.075 759.845C803.419 773.75 776.55 787.626 745.266 792.372C708.436 797.961 663.691 808.734 637.581 789.202C611.283 769.528 631.725 731.631 625.03 702.424C618.971 675.994 585.428 652.181 600.343 626.758C615.418 601.064 662.033 603.877 691.845 588.543C719.338 574.404 735.773 544.041 767.213 540.94C799.125 537.793 824.467 557.57 848.404 573.099C871.769 588.257 891.917 605.885 902.673 628.814C914.458 653.937 926.155 682.573 911.951 708.566Z" stroke="white"/>
<path opacity="0.3" fill-rule="evenodd" clip-rule="evenodd" d="M970.883 719.931C951.63 755.17 900.914 769.694 860.267 790.161C822.445 809.213 785.7 828.222 742.926 834.73C692.57 842.399 631.388 857.169 595.713 830.446C559.778 803.529 587.76 751.646 578.634 711.671C570.376 675.497 524.54 642.919 544.956 608.112C565.589 572.935 629.314 576.758 670.085 555.757C707.687 536.389 730.182 494.821 773.166 490.561C816.797 486.236 851.424 513.295 884.136 534.538C916.064 555.274 943.591 579.393 958.279 610.778C974.362 645.154 990.325 684.346 970.883 719.931Z" stroke="white"/>
<path opacity="0.3" fill-rule="evenodd" clip-rule="evenodd" d="M1024.12 730.199C1000.18 774.02 937.156 792.091 886.641 817.548C839.638 841.235 793.976 864.881 740.82 872.995C678.246 882.535 602.218 900.918 557.901 867.697C513.263 834.241 548.056 769.724 536.735 720.023C526.49 675.047 469.552 634.552 494.932 591.271C520.585 547.529 599.765 552.265 650.435 526.143C697.161 502.055 725.135 450.365 778.547 445.056C832.765 439.664 875.778 473.303 916.418 499.708C956.082 525.481 990.275 555.464 1008.51 594.483C1028.47 637.222 1048.29 685.947 1024.12 730.199Z" stroke="white"/>
<path opacity="0.3" fill-rule="evenodd" clip-rule="evenodd" d="M1073.55 739.732C1045.25 791.513 970.805 812.876 911.127 842.974C855.598 870.985 801.645 898.922 738.86 908.52C664.939 919.807 575.129 941.537 522.787 902.286C470.069 862.76 511.188 786.509 497.827 727.777C485.737 674.629 418.49 626.783 448.485 575.631C478.794 523.934 572.33 529.521 632.191 498.642C687.393 470.172 720.451 409.08 783.547 402.798C847.59 396.423 898.39 436.166 946.387 467.364C993.232 497.816 1033.62 533.242 1055.15 579.35C1078.72 629.855 1102.11 687.434 1073.55 739.732Z" stroke="white"/>
<path opacity="0.3" fill-rule="evenodd" clip-rule="evenodd" d="M1124.88 749.632C1092.07 809.694 1005.75 834.468 936.554 869.386C872.17 901.866 809.615 934.277 736.821 945.405C651.123 958.505 546.996 983.726 486.323 938.215C425.211 892.372 472.894 803.941 457.418 735.831C443.413 674.196 365.46 618.715 400.246 559.391C435.402 499.435 543.835 505.903 613.24 470.088C677.245 437.06 715.587 366.211 788.734 358.918C862.983 351.519 921.869 397.604 977.503 433.78C1031.81 469.094 1078.62 510.17 1103.57 563.64C1130.89 622.205 1158.01 688.977 1124.88 749.632Z" stroke="white"/>
<path opacity="0.3" fill-rule="evenodd" clip-rule="evenodd" d="M1187.61 761.726C1149.28 831.906 1048.46 860.867 967.633 901.652C892.428 939.611 819.36 977.487 734.337 990.498C634.24 1005.82 512.615 1035.28 441.757 982.112C370.387 928.563 426.097 825.248 408.035 745.674C391.688 673.665 300.653 608.854 341.292 539.54C382.363 469.49 509.012 477.038 590.082 435.186C664.845 396.592 709.638 313.814 795.077 305.288C881.8 296.632 950.571 350.474 1015.54 392.73C1078.96 433.979 1133.63 481.968 1162.76 544.436C1194.67 612.856 1226.32 690.864 1187.61 761.726Z" stroke="white"/>
<path opacity="0.3" fill-rule="evenodd" clip-rule="evenodd" d="M1256.05 774.923C1211.7 856.129 1095.05 889.656 1001.54 936.865C914.526 980.79 829.99 1024.63 731.623 1039.69C615.818 1057.42 475.106 1091.53 393.139 1030.01C310.58 968.052 375.046 848.49 354.16 756.412C335.26 673.089 229.948 598.098 276.975 517.887C324.502 436.824 471.017 445.546 564.817 397.111C651.316 352.446 703.148 256.655 801.996 246.782C902.327 236.761 981.88 299.053 1057.04 347.949C1130.41 395.676 1193.65 451.203 1227.33 523.487C1264.23 602.656 1300.84 692.919 1256.05 774.923Z" stroke="white"/>
<path opacity="0.3" fill-rule="evenodd" clip-rule="evenodd" d="M1322.59 787.753C1272.37 879.692 1140.34 917.649 1034.5 971.092C936.016 1020.83 840.328 1070.46 728.986 1087.51C597.91 1107.59 438.639 1146.2 345.874 1076.58C252.434 1006.44 325.414 871.088 301.783 766.852C280.4 672.526 161.213 587.639 214.447 496.834C268.249 405.065 434.084 414.929 540.255 360.094C638.163 309.526 696.841 201.083 808.723 189.901C922.284 178.551 1012.32 249.063 1097.39 304.409C1180.42 358.433 1251.99 421.289 1290.11 503.114C1331.87 592.74 1373.3 694.918 1322.59 787.753Z" stroke="white"/>
<path opacity="0.3" fill-rule="evenodd" clip-rule="evenodd" d="M1383.43 799.49C1327.86 901.233 1181.76 943.242 1064.64 1002.39C955.654 1057.43 849.771 1112.36 726.573 1131.24C581.535 1153.47 405.297 1196.2 302.656 1119.15C199.269 1041.54 280.032 891.75 253.894 776.396C230.24 672.011 98.3617 578.078 157.276 477.586C216.815 376.027 400.313 386.937 517.796 326.249C626.136 270.284 691.071 150.273 814.87 137.894C940.529 125.329 1040.15 203.357 1134.27 264.605C1226.14 324.389 1305.33 393.944 1347.52 484.494C1393.71 583.674 1439.54 696.753 1383.43 799.49Z" stroke="white"/>
<path opacity="0.3" fill-rule="evenodd" clip-rule="evenodd" d="M1448.07 811.952C1386.81 924.115 1225.77 970.428 1096.66 1035.64C976.528 1096.33 859.815 1156.88 724.009 1177.69C564.142 1202.2 369.874 1249.33 256.738 1164.38C142.785 1078.83 231.816 913.699 203.013 786.54C176.946 671.468 31.5875 567.925 96.5336 457.138C162.169 345.178 364.436 357.198 493.932 290.292C613.359 228.59 684.944 96.2893 821.405 82.6378C959.915 68.7823 1069.72 154.798 1173.46 222.311C1274.72 288.214 1362.01 364.885 1408.5 464.709C1459.41 574.041 1509.93 698.697 1448.07 811.952Z" stroke="white"/>
<path opacity="0.3" fill-rule="evenodd" clip-rule="evenodd" d="M1518.41 825.517C1450.96 949.018 1273.65 1000.02 1131.51 1071.83C999.24 1138.65 870.734 1205.33 721.223 1228.25C545.206 1255.24 331.323 1307.13 206.771 1213.61C81.3136 1119.41 179.348 937.588 147.642 797.574C118.951 670.871 -41.0806 556.859 30.4307 434.879C102.701 311.601 325.386 324.83 467.969 251.157C599.452 183.218 678.274 37.5414 828.516 22.5062C981.013 7.24523 1101.9 101.949 1216.11 176.286C1327.6 248.846 1423.69 333.268 1474.87 443.176C1530.92 563.558 1586.52 700.815 1518.41 825.517Z" stroke="white"/>
</g>
</g>
</g>
<defs>
<clipPath id="clip0_2988_43272">
<rect width="1616" height="774" fill="white"/>
</clipPath>
</defs>
</svg>
