<svg width="468" height="332" viewBox="0 0 468 332" fill="none" xmlns="http://www.w3.org/2000/svg">
<path opacity="0.15" d="M127.324 254.145C184.631 227.315 209.693 159.501 209.693 159.501C209.693 159.501 141.851 135.189 84.5493 162.021C27.2532 188.855 2.19293 256.664 2.19293 256.664C2.19293 256.664 70.0283 280.979 127.324 254.145Z" fill="white"/>
<g opacity="0.3">
<path d="M275.558 126.241L1.59025 254.512C0.671488 254.947 0.275478 256.04 0.701175 256.966C1.13221 257.894 2.22049 258.292 3.14459 257.859L277.118 129.59C278.037 129.156 278.433 128.063 278.007 127.137C277.571 126.206 276.477 125.807 275.558 126.241Z" fill="white"/>
<path d="M64.2616 225.773L49.9988 265.133C49.6513 266.092 50.1434 267.151 51.0985 267.501C52.0537 267.85 53.1089 267.356 53.4564 266.397L67.7192 227.037C68.0667 226.078 67.5745 225.019 66.6194 224.669C65.6643 224.32 64.6091 224.814 64.2616 225.773Z" fill="white"/>
<path d="M121.258 199.08L98.4924 261.902C98.1449 262.861 98.637 263.921 99.5922 264.27C100.547 264.619 101.602 264.125 101.95 263.166L124.715 200.344C125.063 199.385 124.571 198.325 123.616 197.976C122.66 197.627 121.605 198.121 121.258 199.08Z" fill="white"/>
<path d="M178.262 172.383L156.16 233.372C155.813 234.331 156.305 235.391 157.26 235.74C158.215 236.089 159.27 235.595 159.618 234.636L181.719 173.647C182.067 172.688 181.575 171.628 180.619 171.279C179.657 170.933 178.609 171.424 178.262 172.383Z" fill="white"/>
<path d="M25.2754 211.514C24.9279 212.473 25.42 213.533 26.3749 213.882L65.3665 228.136C66.3214 228.485 67.3764 227.991 67.7238 227.032C68.0713 226.073 67.5793 225.014 66.6243 224.665L27.6347 210.405C26.6706 210.065 25.6209 210.561 25.2754 211.514Z" fill="white"/>
<path d="M123.572 197.961L59.6983 176.164C58.7356 175.836 57.6908 176.352 57.3667 177.314C57.0405 178.28 57.5543 179.33 58.517 179.657L122.391 201.455C123.353 201.782 124.393 201.264 124.724 200.3C125.048 199.338 124.534 198.289 123.572 197.961Z" fill="white"/>
<path d="M121.201 149.566C120.246 149.217 119.191 149.711 118.844 150.669C118.496 151.628 118.988 152.688 119.943 153.037L179.351 174.755C180.306 175.104 181.361 174.61 181.708 173.651C182.056 172.692 181.564 171.632 180.609 171.283L121.201 149.566Z" fill="white"/>
</g>
<path opacity="0.15" d="M166.739 46.0003C194.673 86.0645 175.804 147.733 175.804 147.733C175.804 147.733 111.647 144.448 83.7174 104.38C55.7872 64.317 74.6555 2.65231 74.6555 2.65231C74.6555 2.65231 138.804 5.9401 166.739 46.0003Z" fill="white"/>
<g opacity="0.3">
<path d="M201.958 183.141L75.5865 1.91372C75.1814 1.33274 74.3813 1.19099 73.7989 1.59702C73.2205 2.00374 73.0795 2.8072 73.4839 3.39209L199.859 184.62C200.264 185.201 201.065 185.343 201.647 184.937C202.226 184.526 202.366 183.726 201.958 183.141Z" fill="white"/>
<path d="M106.765 8.22116C106.889 7.51953 106.422 6.85091 105.723 6.72715C105.025 6.60338 104.359 7.07148 104.236 7.77311L98.7594 38.9703C98.6363 39.6719 99.1025 40.3405 99.8013 40.4643C100.5 40.5881 101.166 40.12 101.289 39.4183L106.765 8.22116Z" fill="white"/>
<path d="M132.078 17.4035C132.201 16.7019 131.735 16.0333 131.036 15.9095C130.337 15.7858 129.671 16.2539 129.548 16.9555L120.268 69.8211C120.145 70.5227 120.611 71.1913 121.31 71.3151C122.008 71.4388 122.674 70.9707 122.797 70.2691L132.078 17.4035Z" fill="white"/>
<path d="M156.23 33.1393C156.353 32.4377 155.887 31.7691 155.188 31.6453C154.49 31.5215 153.824 31.9897 153.701 32.6913L141.767 100.668C141.644 101.369 142.11 102.038 142.809 102.162C143.508 102.285 144.174 101.817 144.297 101.116L156.23 33.1393Z" fill="white"/>
<path d="M177.496 65.3587C177.619 64.657 177.153 63.9884 176.454 63.8647C175.755 63.7409 175.089 64.209 174.966 64.9107L163.274 131.515C163.151 132.217 163.617 132.885 164.316 133.009C165.015 133.133 165.68 132.665 165.804 131.963L177.496 65.3587Z" fill="white"/>
<path d="M100.251 37.9241L69.1897 32.4224C68.4911 32.2987 67.8294 32.7673 67.7063 33.4688C67.5832 34.1702 68.0493 34.8387 68.744 34.9617L99.8054 40.4634C100.504 40.5871 101.17 40.1192 101.293 39.4177C101.416 38.7163 100.95 38.0478 100.251 37.9241Z" fill="white"/>
<path d="M121.755 68.7751L69.1195 59.4525C68.4209 59.3288 67.7553 59.7968 67.6322 60.4982C67.509 61.1997 67.9752 61.8681 68.6738 61.9918L121.309 71.3144C122.008 71.4381 122.674 70.9701 122.797 70.2687C122.92 69.5672 122.454 68.8988 121.755 68.7751Z" fill="white"/>
<path d="M143.283 99.6264L74.9764 85.9966C74.2806 85.8572 73.6053 86.3114 73.4665 87.01C73.3278 87.7087 73.7802 88.3868 74.476 88.5262L142.783 102.156C143.478 102.295 144.154 101.841 144.292 101.143C144.431 100.444 143.979 99.7658 143.283 99.6264Z" fill="white"/>
<path d="M164.763 130.469L98.4484 118.724C97.7498 118.6 97.0842 119.068 96.961 119.77C96.8379 120.471 97.3041 121.14 98.0026 121.263L164.317 133.009C165.016 133.132 165.681 132.664 165.804 131.963C165.928 131.261 165.461 130.593 164.763 130.469Z" fill="white"/>
</g>
<path d="M124.652 275.605L301.528 286.812C301.227 290.137 300.307 293.475 298.505 296.569L121.457 283.288C123.119 281.453 124.18 278.757 124.652 275.605Z" fill="white"/>
<path d="M299.023 270.169C299.873 272.588 300.659 275.336 301.145 278.25L124.672 266.311L124.665 266.292C124.237 263.108 123.406 259.93 122.23 257.093L298.767 270.265L299.023 270.169Z" fill="white"/>
<path d="M124.668 266.311L301.14 278.25C301.607 281.003 301.792 283.918 301.524 286.812L124.648 275.605C125.121 272.736 125.109 269.52 124.668 266.311Z" fill="white"/>
<path d="M299.021 270.169L298.772 270.265L122.235 257.093C119.896 251.368 116.112 246.939 111.262 246.464L294.669 260.784C294.662 260.784 297.027 264.603 299.021 270.169Z" fill="white"/>
<path d="M303.578 301.107C274.301 299.4 116.228 288.051 116.228 288.051L114.081 282.749L121.456 283.288L298.504 296.569C300.312 293.475 301.226 290.144 301.527 286.812C301.795 283.917 301.61 281.003 301.143 278.25C300.657 275.336 299.871 272.588 299.021 270.168C297.027 264.603 294.663 260.778 294.663 260.778L111.256 246.457C111.204 246.451 111.153 246.457 111.102 246.451L104.916 245.976L103.203 239.384L298.063 254.943C307.745 267.986 312.008 289.637 303.578 301.107Z" fill="#FFCD42"/>
<path opacity="0.5" d="M303.578 301.107C274.301 299.4 116.228 288.051 116.228 288.051L114.081 282.749L121.456 283.288L298.504 296.569C300.312 293.475 301.226 290.144 301.527 286.812C301.795 283.917 301.61 281.003 301.143 278.25C300.657 275.336 299.871 272.588 299.021 270.168C297.027 264.603 294.663 260.778 294.663 260.778L111.256 246.457C111.204 246.451 111.153 246.457 111.102 246.451L104.916 245.976L103.203 239.384L298.063 254.943C307.745 267.986 312.008 289.637 303.578 301.107Z" fill="white"/>
<path d="M409.706 103.793C420.085 111.656 423.529 128.082 420.768 138.866C388.341 184.15 334.689 258.891 303.578 301.107C312.008 289.637 307.745 267.986 298.062 254.943L409.706 103.793Z" fill="#FFCD42"/>
<path d="M409.707 103.793L298.064 254.943L103.211 239.39L253.187 98.2859L409.707 103.793Z" fill="#FFCD42"/>
<path opacity="0.3" d="M409.707 103.793L298.064 254.943L103.211 239.39L253.187 98.2859L409.707 103.793Z" fill="white"/>
<path d="M316.759 203.237C316.759 203.237 325.362 219.283 313.13 238.93C313.13 238.93 140.657 206.607 99.6641 193.215C99.6641 193.215 105.929 168.914 102.507 160.212C128.87 164.01 283.924 194.132 316.759 203.237Z" fill="white"/>
<path d="M315.627 245.969C315.627 245.969 137.486 217.687 91.8291 196.346L91.8047 190.341L99.6649 193.209C140.658 206.6 313.131 238.924 313.131 238.924C325.363 219.277 316.76 203.231 316.76 203.231C283.925 194.126 128.871 164.004 102.508 160.206L95.3665 158.47L96.0971 151.077L96.1397 151.07C98.9282 151.529 278.007 179.67 320.772 197.654C327.713 206.179 328.833 233.39 315.627 245.969Z" fill="#93F2FF"/>
<path d="M462.888 126.109C462.888 126.109 472.447 141.256 465.415 160.952L315.621 245.969C328.827 233.39 327.707 206.179 320.772 197.667L462.888 126.109Z" fill="#1DE4FF"/>
<path d="M462.889 126.109L320.773 197.666C278.008 179.676 98.9291 151.535 96.1406 151.083L270.416 81.109C270.422 81.109 433.725 113.849 462.889 126.109Z" fill="#1DE4FF"/>
<path d="M421.381 99.1114C427.628 103.844 435.001 110.687 435.001 110.687C429.771 112.032 420.87 114.833 409.563 118.588C362.981 134.058 275.643 165.893 236.914 180.226C239.331 179.101 377.782 114.698 421.381 99.1114Z" fill="#FF813A"/>
<path opacity="0.5" d="M421.381 99.1115C427.628 103.844 435.001 110.687 435.001 110.687C429.771 112.032 420.87 114.833 409.563 118.588C362.981 134.059 275.643 165.893 236.914 180.227C239.331 179.101 377.782 114.699 421.381 99.1115Z" fill="white"/>
<path d="M421.379 99.1113C377.78 114.698 239.329 179.101 236.912 180.22C275.647 165.887 362.979 134.052 409.562 118.581C423.437 128.873 435.535 140.803 435.535 140.803C427.906 142.644 416.216 145.934 401.975 150.067C351.253 164.768 268.006 190.09 219.238 198.565C214.568 190.811 216.315 182.734 217.521 177.585C244.157 160.793 355.356 107.226 419.127 84.6372C425.952 89.6882 432.351 95.8337 432.351 95.8337C430.189 96.1639 426.42 97.3135 421.379 99.1113Z" fill="white"/>
<path d="M401.976 150.067C410.951 157.723 418.457 163.747 426.841 171.867C411.383 176.019 284.975 198.394 219.238 198.565C268.007 190.09 351.254 164.768 401.976 150.067Z" fill="#FF813A"/>
<path d="M219.219 201.195L219.243 198.565C284.98 198.394 411.382 176.019 426.846 171.867L426.018 176.252C387.168 187.143 251.615 205.695 219.219 201.195Z" fill="#FF813A"/>
<path opacity="0.5" d="M219.219 201.195L219.243 198.565C284.98 198.394 411.382 176.019 426.846 171.867L426.018 176.252C387.168 187.143 251.615 205.695 219.219 201.195Z" fill="white"/>
<path d="M212.706 177.126C224.931 160.475 407.243 79.5191 431.536 75.8501L429.971 80.95C426.543 82.069 422.915 83.292 419.122 84.6434C355.352 107.226 244.153 160.793 217.516 177.591C216.316 182.74 214.569 190.818 219.233 198.571L219.208 201.201C217.82 201.011 216.609 200.779 215.622 200.498C210.453 191.863 211.36 182.838 212.706 177.126Z" fill="#FF813A"/>
<path opacity="0.5" d="M212.706 177.126C224.931 160.475 407.243 79.5191 431.536 75.8501L429.971 80.95C426.543 82.069 422.915 83.292 419.122 84.6434C355.352 107.226 244.153 160.793 217.516 177.591C216.316 182.74 214.569 190.818 219.233 198.571L219.208 201.201C217.82 201.011 216.609 200.779 215.622 200.498C210.453 191.863 211.36 182.838 212.706 177.126Z" fill="white"/>
<path d="M141.446 79.8309L212.705 177.126C211.359 182.838 210.452 191.869 215.627 200.498L142.907 99.6006C141.172 94.14 140.587 84.0319 141.446 79.8309Z" fill="#FF813A"/>
<path d="M300.671 0L431.542 75.8501C407.249 79.519 224.938 160.469 212.712 177.126L141.453 79.8309C173.296 43.453 300.671 0 300.671 0Z" fill="#FF813A"/>
<path opacity="0.3" d="M300.671 0L431.542 75.8501C407.249 79.519 224.938 160.469 212.712 177.126L141.453 79.8309C173.296 43.453 300.671 0 300.671 0Z" fill="white"/>
</svg>
