<svg width="338" height="234" viewBox="0 0 338 234" fill="none" xmlns="http://www.w3.org/2000/svg">
<rect width="338" height="234" fill="white"/>
<path d="M302.539 121.024C302.009 131.157 299.489 141.086 295.123 150.244C290.756 159.403 284.629 167.612 277.09 174.402C269.551 181.192 260.748 186.431 251.184 189.82C241.621 193.208 231.483 194.68 221.351 194.151C211.218 193.621 201.289 191.102 192.131 186.735C182.972 182.369 174.763 176.241 167.973 168.702C161.183 161.163 155.944 152.36 152.555 142.797C149.167 133.233 147.695 123.095 148.224 112.963C148.754 102.831 151.273 92.9017 155.64 83.7431C160.006 74.5845 166.134 66.3756 173.673 59.5852C181.212 52.7948 190.015 47.5557 199.578 44.1672C209.142 40.7787 219.28 39.3071 229.412 39.8364C239.544 40.3657 249.473 42.8856 258.632 47.2521C267.791 51.6186 275.999 57.7463 282.79 65.2853C289.58 72.8243 294.819 81.6269 298.208 91.1906C301.596 100.754 303.068 110.892 302.539 121.024L302.539 121.024Z" stroke="#EFF0F7" stroke-width="11.3372"/>
<path d="M302.539 121.024C301.617 138.659 294.683 155.446 282.89 168.591C271.097 181.735 255.157 190.442 237.725 193.264C220.293 196.085 202.42 192.849 187.084 184.096C171.747 175.343 159.871 161.6 153.434 145.156" stroke="#FF4267" stroke-width="11.3372" stroke-linecap="round"/>
<path d="M249.465 43.5808C261.3 47.4634 272.021 54.1498 280.714 63.0702C289.408 71.9906 295.815 82.8805 299.391 94.8118C302.967 106.743 303.606 119.362 301.252 131.593C298.898 143.825 293.622 155.306 285.874 165.058" stroke="#7D42FB" stroke-width="11.3372" stroke-linecap="round"/>
<path d="M181.454 53.4339C191.572 46.4411 203.213 41.9649 215.41 40.3774C227.606 38.79 240.005 40.1373 251.576 44.3072" stroke="#2FF2B8" stroke-width="11.3372" stroke-linecap="round"/>
<path d="M187.027 115.572C187.027 112.649 184.865 111.47 181.622 110.684V106.115C182.777 106.409 183.907 107.024 184.914 107.883L186.584 105.648C185.233 104.469 183.612 103.634 181.622 103.388V101.816H179.387V103.339C176.292 103.634 174.155 105.648 174.155 108.375C174.155 111.347 176.268 112.403 179.387 113.189V117.979C177.815 117.684 176.464 116.898 175.26 115.817L173.467 118.004C175.039 119.477 177.054 120.411 179.387 120.657V122.278H181.622V120.681C185.086 120.386 187.027 118.348 187.027 115.572ZM177.25 108.104C177.25 107.097 178.085 106.213 179.387 105.992V110.119C177.938 109.652 177.25 109.136 177.25 108.104ZM181.622 118.053V113.779C183.219 114.245 183.956 114.786 183.956 115.867C183.956 116.898 183.145 117.807 181.622 118.053ZM189.598 120.46H202.003V117.66H194.363L197.901 114.81C200.799 112.575 201.831 110.782 201.831 108.547C201.831 105.427 199.276 103.29 195.936 103.29C193.209 103.29 191.17 104.493 189.574 106.581L191.563 108.424C192.791 106.95 194.069 106.041 195.837 106.041C197.36 106.041 198.711 107.024 198.711 108.62C198.711 109.996 197.95 111.273 195.813 112.993L189.598 117.955V120.46ZM212.583 120.46H215.654V116.8H217.987V114.172H215.654V103.585H211.969L203.986 114.417L204.281 116.8H212.583V120.46ZM207.253 114.172L212.583 106.925V114.172H207.253ZM226.116 120.755C229.973 120.755 232.601 118.495 232.601 115.007C232.601 111.617 230.022 109.701 227.025 109.701C225.576 109.701 224.47 110.143 223.611 110.733L223.758 106.385H231.668V103.585H220.884L220.638 112.55L222.726 113.435C223.684 112.698 224.839 112.256 226.165 112.256C228.18 112.256 229.531 113.41 229.531 115.13C229.531 116.775 228.204 118.102 226.165 118.102C224.47 118.102 222.898 117.242 221.621 115.965L219.803 118.151C221.302 119.723 223.365 120.755 226.116 120.755ZM237.325 123.948C238.995 122.18 239.683 120.902 239.683 119.576C239.683 118.028 238.872 116.898 237.62 116.898C236.563 116.898 235.704 117.783 235.704 118.814C235.704 119.871 236.563 120.755 237.595 120.755C237.374 121.541 236.883 122.327 236.17 123.064L237.325 123.948ZM246.346 120.46H249.416V103.585H246.96L242.219 106.802L243.447 108.964L246.346 107.122V120.46ZM256.325 120.46H259.395V103.585H256.939L252.198 106.802L253.426 108.964L256.325 107.122V120.46ZM270.308 120.755C274.631 120.755 277.702 117.144 277.702 112.01C277.702 106.901 274.631 103.29 270.308 103.29C265.96 103.29 262.914 106.901 262.914 112.01C262.914 117.144 265.96 120.755 270.308 120.755ZM270.308 117.955C267.802 117.955 266.034 115.498 266.034 112.01C266.034 108.522 267.802 106.09 270.308 106.09C272.814 106.09 274.558 108.522 274.558 112.01C274.558 115.498 272.814 117.955 270.308 117.955Z" fill="#211F54"/>
<path d="M191.162 138.748H192.579V132.252H195.062V130.959H188.668V132.252H191.162V138.748ZM198.962 138.884C200.686 138.884 202.091 137.501 202.091 135.811C202.091 134.122 200.686 132.75 198.962 132.75C197.228 132.75 195.811 134.122 195.811 135.811C195.811 137.501 197.228 138.884 198.962 138.884ZM198.962 137.705C197.976 137.705 197.171 136.855 197.171 135.811C197.171 134.768 197.976 133.93 198.962 133.93C199.937 133.93 200.742 134.768 200.742 135.811C200.742 136.855 199.937 137.705 198.962 137.705ZM206.116 137.489C205.991 137.614 205.776 137.705 205.537 137.705C205.209 137.705 204.948 137.421 204.948 137.025V134.032H206.274V132.886H204.948V131.277H203.61V132.886H202.76V134.032H203.61V137.195C203.61 138.181 204.29 138.884 205.254 138.884C205.707 138.884 206.184 138.702 206.512 138.419L206.116 137.489ZM209.992 132.75C209.256 132.75 208.485 132.955 207.657 133.363L208.133 134.326C208.632 134.077 209.165 133.884 209.72 133.884C210.786 133.884 211.149 134.542 211.149 135.222V135.369C210.616 135.177 210.049 135.063 209.516 135.063C208.19 135.063 207.135 135.857 207.135 137.013C207.135 138.147 208.065 138.884 209.312 138.884C209.992 138.884 210.718 138.589 211.149 138.056V138.748H212.498V135.222C212.498 133.737 211.546 132.75 209.992 132.75ZM209.618 137.875C208.961 137.875 208.462 137.523 208.462 136.968C208.462 136.412 209.029 136.027 209.72 136.027C210.231 136.027 210.718 136.106 211.149 136.242V136.911C211.001 137.535 210.287 137.875 209.618 137.875ZM214.1 138.748H215.483V130.823H214.1V138.748ZM221.695 133.998V132.886H220.311V138.748H221.695V135.789C221.695 134.678 222.534 133.93 223.792 133.93V132.75C222.84 132.75 222.069 133.238 221.695 133.998ZM227.658 137.773C226.751 137.773 226.104 137.138 225.957 136.22H230.503C230.503 134.088 229.438 132.75 227.624 132.75C225.946 132.75 224.619 134.032 224.619 135.8C224.619 137.603 226.014 138.884 227.703 138.884C228.553 138.884 229.574 138.521 230.084 137.977L229.29 137.161C228.916 137.523 228.247 137.773 227.658 137.773ZM227.635 133.861C228.519 133.861 229.041 134.474 229.165 135.301H225.968C226.15 134.428 226.796 133.861 227.635 133.861ZM233.528 138.748H234.821L237.304 132.886H235.841L234.175 137.149L232.474 132.886H231L233.528 138.748ZM240.91 137.773C240.003 137.773 239.357 137.138 239.21 136.22H243.756C243.756 134.088 242.69 132.75 240.876 132.75C239.198 132.75 237.872 134.032 237.872 135.8C237.872 137.603 239.266 138.884 240.956 138.884C241.806 138.884 242.826 138.521 243.336 137.977L242.543 137.161C242.169 137.523 241.5 137.773 240.91 137.773ZM240.887 133.861C241.772 133.861 242.293 134.474 242.418 135.301H239.221C239.402 134.428 240.049 133.861 240.887 133.861ZM248.187 132.75C247.405 132.75 246.724 133.125 246.373 133.68V132.886H244.99V138.748H246.373V135.199C246.373 134.485 247.008 133.93 247.801 133.93C248.527 133.93 249.026 134.485 249.026 135.29V138.748H250.375V135.018C250.375 133.68 249.479 132.75 248.187 132.75ZM255.853 132.886V136.435C255.853 137.149 255.218 137.705 254.425 137.705C253.699 137.705 253.2 137.149 253.2 136.344V132.886H251.851V136.616C251.851 137.954 252.747 138.884 254.039 138.884C254.822 138.884 255.502 138.51 255.853 137.954V138.748H257.236V132.886H255.853ZM261.57 137.773C260.663 137.773 260.016 137.138 259.869 136.22H264.415C264.415 134.088 263.35 132.75 261.536 132.75C259.858 132.75 258.531 134.032 258.531 135.8C258.531 137.603 259.926 138.884 261.615 138.884C262.465 138.884 263.486 138.521 263.996 137.977L263.202 137.161C262.828 137.523 262.159 137.773 261.57 137.773ZM261.547 133.861C262.431 133.861 262.953 134.474 263.077 135.301H259.88C260.062 134.428 260.708 133.861 261.547 133.861Z" fill="#6E7191"/>
<circle cx="35.253" cy="79.2943" r="6.56771" fill="#FF4267"/>
<path d="M53.1542 82.7504C55.0248 82.7504 56.0792 81.7641 56.0792 80.3696C56.0792 78.9525 54.9908 78.4309 53.3696 78.0681C52.1339 77.7847 51.567 77.558 51.567 76.9231C51.567 76.3789 52.0885 75.9141 52.8821 75.9141C53.653 75.9141 54.4353 76.2429 55.1042 76.8211L55.8751 75.7894C55.1042 75.1205 54.1632 74.701 52.9275 74.701C51.2949 74.701 50.1385 75.6873 50.1385 77.0478C50.1385 78.5103 51.2495 78.9751 52.8594 79.3493C54.1065 79.644 54.662 79.8594 54.662 80.5056C54.662 81.0612 54.1632 81.5373 53.2109 81.5373C52.1905 81.5373 51.3629 81.1292 50.6487 80.483L49.8211 81.492C50.6827 82.2969 51.8277 82.7504 53.1542 82.7504ZM61.3476 76.7644V80.3129C61.3476 81.0272 60.7127 81.5827 59.9191 81.5827C59.1935 81.5827 58.6946 81.0272 58.6946 80.2222V76.7644H57.3455V80.4943C57.3455 81.8321 58.2412 82.7618 59.5336 82.7618C60.3159 82.7618 60.9961 82.3876 61.3476 81.8321V82.6257H62.7307V76.7644H61.3476ZM67.9142 76.6283C67.0186 76.6283 66.293 77.0478 65.8395 77.7507V74.701H64.4563V82.6257H65.8395V81.628C66.293 82.3423 67.0186 82.7618 67.9142 82.7618C69.4674 82.7618 70.6125 81.492 70.6125 79.6894C70.6125 77.8981 69.4674 76.6283 67.9142 76.6283ZM67.5401 81.5827C66.5764 81.5827 65.8848 80.7891 65.8848 79.6894C65.8848 78.5897 66.5764 77.8074 67.5401 77.8074C68.5377 77.8074 69.2406 78.5897 69.2406 79.6894C69.2406 80.7891 68.5377 81.5827 67.5401 81.5827ZM73.959 82.7618C75.3194 82.7618 76.2604 82.0362 76.2604 80.9025C76.2604 79.6894 75.1947 79.3606 74.1971 79.0885C73.3127 78.8164 72.95 78.7144 72.95 78.3289C72.95 77.9208 73.3581 77.6827 73.8683 77.6827C74.4125 77.6827 75.0247 77.9094 75.5689 78.2609L76.113 77.3312C75.4668 76.9118 74.6732 76.6283 73.8683 76.6283C72.5645 76.6283 71.6575 77.3766 71.6575 78.465C71.6575 79.5306 72.4625 79.8821 73.7436 80.2222C74.4351 80.4036 74.9793 80.5623 74.9793 81.0272C74.9793 81.4353 74.6052 81.6961 73.9816 81.6961C73.3468 81.6961 72.6098 81.4353 71.975 80.9818L71.3854 81.8888C72.0997 82.4443 73.0633 82.7618 73.959 82.7618ZM80.2187 82.7618C81.137 82.7618 81.9193 82.3763 82.4861 81.7754L81.5565 80.9705C81.2277 81.3446 80.7289 81.5827 80.2187 81.5827C79.255 81.5827 78.4501 80.7211 78.4501 79.6894C78.4501 78.669 79.255 77.8074 80.2187 77.8074C80.7175 77.8074 81.205 78.0455 81.5225 78.3969L82.4521 77.5806C81.8966 77.0024 81.1257 76.6283 80.23 76.6283C78.5181 76.6283 77.0783 78.0228 77.0783 79.6894C77.0783 81.3559 78.5181 82.7618 80.2187 82.7618ZM84.971 77.8754V76.7644H83.5879V82.6257H84.971V79.6667C84.971 78.5556 85.81 77.8074 87.0684 77.8074V76.6283C86.1161 76.6283 85.3452 77.1158 84.971 77.8754ZM89.0181 75.8801C89.4489 75.8801 89.8003 75.5059 89.8003 75.0865C89.8003 74.667 89.4489 74.3042 89.0181 74.3042C88.5759 74.3042 88.2245 74.667 88.2245 75.0865C88.2245 75.5059 88.5759 75.8801 89.0181 75.8801ZM88.3265 82.6257H89.7096V76.7644H88.3265V82.6257ZM94.8501 76.6283C93.9885 76.6283 93.2856 77.0138 92.8207 77.6713V76.7644H91.4376V84.5757H92.8207V81.7187C93.2856 82.3763 93.9885 82.7618 94.8501 82.7618C96.4033 82.7618 97.537 81.492 97.537 79.6894C97.537 77.8981 96.4033 76.6283 94.8501 76.6283ZM94.476 81.5827C93.501 81.5827 92.8207 80.7891 92.8207 79.6894C92.8207 78.5897 93.501 77.8074 94.476 77.8074C95.4623 77.8074 96.1652 78.5897 96.1652 79.6894C96.1652 80.7891 95.4623 81.5827 94.476 81.5827ZM101.61 81.3673C101.485 81.492 101.27 81.5827 101.032 81.5827C100.703 81.5827 100.442 81.2993 100.442 80.9025V77.9094H101.769V76.7644H100.442V75.1545H99.1047V76.7644H98.2544V77.9094H99.1047V81.0725C99.1047 82.0588 99.7849 82.7618 100.749 82.7618C101.202 82.7618 101.678 82.5804 102.007 82.2969L101.61 81.3673ZM103.832 75.8801C104.263 75.8801 104.614 75.5059 104.614 75.0865C104.614 74.667 104.263 74.3042 103.832 74.3042C103.39 74.3042 103.038 74.667 103.038 75.0865C103.038 75.5059 103.39 75.8801 103.832 75.8801ZM103.14 82.6257H104.523V76.7644H103.14V82.6257ZM108.95 82.7618C110.673 82.7618 112.079 81.3786 112.079 79.6894C112.079 78.0001 110.673 76.6283 108.95 76.6283C107.215 76.6283 105.798 78.0001 105.798 79.6894C105.798 81.3786 107.215 82.7618 108.95 82.7618ZM108.95 81.5827C107.963 81.5827 107.158 80.7324 107.158 79.6894C107.158 78.6463 107.963 77.8074 108.95 77.8074C109.925 77.8074 110.729 78.6463 110.729 79.6894C110.729 80.7324 109.925 81.5827 108.95 81.5827ZM116.556 76.6283C115.774 76.6283 115.094 77.0024 114.742 77.558V76.7644H113.359V82.6257H114.742V79.0772C114.742 78.3629 115.377 77.8074 116.171 77.8074C116.896 77.8074 117.395 78.3629 117.395 79.1679V82.6257H118.744V78.8958C118.744 77.558 117.849 76.6283 116.556 76.6283ZM122.375 82.7618C123.735 82.7618 124.676 82.0362 124.676 80.9025C124.676 79.6894 123.61 79.3606 122.613 79.0885C121.728 78.8164 121.366 78.7144 121.366 78.3289C121.366 77.9208 121.774 77.6827 122.284 77.6827C122.828 77.6827 123.44 77.9094 123.985 78.2609L124.529 77.3312C123.882 76.9118 123.089 76.6283 122.284 76.6283C120.98 76.6283 120.073 77.3766 120.073 78.465C120.073 79.5306 120.878 79.8821 122.159 80.2222C122.851 80.4036 123.395 80.5623 123.395 81.0272C123.395 81.4353 123.021 81.6961 122.397 81.6961C121.762 81.6961 121.026 81.4353 120.391 80.9818L119.801 81.8888C120.515 82.4443 121.479 82.7618 122.375 82.7618Z" fill="#6E7191"/>
<circle cx="35.253" cy="116.994" r="6.56771" fill="#7D42FB"/>
<path d="M50.4559 120.325H51.8618V117.706H53.8458C55.501 117.706 56.7594 116.641 56.7594 115.121C56.7594 113.602 55.501 112.536 53.8458 112.536H50.4559V120.325ZM51.8618 116.402V113.84H53.6757C54.6394 113.84 55.3083 114.328 55.3083 115.121C55.3083 115.915 54.6394 116.402 53.6757 116.402H51.8618ZM59.4734 115.575V114.464H58.0902V120.325H59.4734V117.366C59.4734 116.255 60.3123 115.507 61.5708 115.507V114.328C60.6184 114.328 59.8475 114.815 59.4734 115.575ZM65.5271 120.461C67.2503 120.461 68.6562 119.078 68.6562 117.389C68.6562 115.7 67.2503 114.328 65.5271 114.328C63.7925 114.328 62.3753 115.7 62.3753 117.389C62.3753 119.078 63.7925 120.461 65.5271 120.461ZM65.5271 119.282C64.5408 119.282 63.7358 118.432 63.7358 117.389C63.7358 116.346 64.5408 115.507 65.5271 115.507C66.5021 115.507 67.307 116.346 67.307 117.389C67.307 118.432 66.5021 119.282 65.5271 119.282ZM74.2676 112.4V115.382C73.8141 114.725 73.0998 114.328 72.2382 114.328C70.6737 114.328 69.5399 115.597 69.5399 117.389C69.5399 119.191 70.6737 120.461 72.2382 120.461C73.0998 120.461 73.8141 120.064 74.2676 119.395V120.325H75.6507V112.4H74.2676ZM72.601 119.282C71.6146 119.282 70.9117 118.488 70.9117 117.389C70.9117 116.289 71.6146 115.507 72.601 115.507C73.576 115.507 74.2562 116.289 74.2562 117.389C74.2562 118.488 73.576 119.282 72.601 119.282ZM81.2541 114.464V118.012C81.2541 118.727 80.6192 119.282 79.8256 119.282C79.1 119.282 78.6012 118.727 78.6012 117.922V114.464H77.2521V118.194C77.2521 119.531 78.1477 120.461 79.4402 120.461C80.2224 120.461 80.9027 120.087 81.2541 119.531V120.325H82.6373V114.464H81.2541ZM87.0498 120.461C87.9681 120.461 88.7504 120.076 89.3173 119.475L88.3876 118.67C88.0588 119.044 87.56 119.282 87.0498 119.282C86.0862 119.282 85.2812 118.42 85.2812 117.389C85.2812 116.368 86.0862 115.507 87.0498 115.507C87.5487 115.507 88.0362 115.745 88.3536 116.096L89.2833 115.28C88.7277 114.702 87.9568 114.328 87.0612 114.328C85.3492 114.328 83.9094 115.722 83.9094 117.389C83.9094 119.055 85.3492 120.461 87.0498 120.461ZM93.1626 119.067C93.0379 119.191 92.8225 119.282 92.5844 119.282C92.2556 119.282 91.9949 118.999 91.9949 118.602V115.609H93.3213V114.464H91.9949V112.854H90.6571V114.464H89.8068V115.609H90.6571V118.772C90.6571 119.758 91.3373 120.461 92.301 120.461C92.7545 120.461 93.2306 120.28 93.5594 119.996L93.1626 119.067ZM96.722 120.461C98.0824 120.461 99.0234 119.736 99.0234 118.602C99.0234 117.389 97.9577 117.06 96.9601 116.788C96.0758 116.516 95.713 116.414 95.713 116.028C95.713 115.62 96.1211 115.382 96.6313 115.382C97.1755 115.382 97.7877 115.609 98.3319 115.96L98.876 115.031C98.2298 114.611 97.4362 114.328 96.6313 114.328C95.3275 114.328 94.4205 115.076 94.4205 116.164C94.4205 117.23 95.2255 117.581 96.5066 117.922C97.1981 118.103 97.7423 118.262 97.7423 118.727C97.7423 119.135 97.3682 119.395 96.7447 119.395C96.1098 119.395 95.3728 119.135 94.738 118.681L94.1484 119.588C94.8627 120.144 95.8263 120.461 96.722 120.461Z" fill="#6E7191"/>
<circle cx="35.253" cy="154.693" r="6.56771" fill="#2FF2B8"/>
<path d="M54.0272 158.16C56.2493 158.16 58.1199 156.312 58.1199 154.124C58.1199 151.936 56.2493 150.1 54.0272 150.1C51.8164 150.1 49.9458 151.936 49.9458 154.124C49.9458 156.312 51.8164 158.16 54.0272 158.16ZM54.0272 156.868C52.5987 156.868 51.3856 155.621 51.3856 154.124C51.3856 152.639 52.5987 151.392 54.0272 151.392C55.467 151.392 56.6687 152.639 56.6687 154.124C56.6687 155.621 55.467 156.868 54.0272 156.868ZM62.2953 156.766C62.1706 156.891 61.9552 156.981 61.7171 156.981C61.3883 156.981 61.1275 156.698 61.1275 156.301V153.308H62.454V152.163H61.1275V150.553H59.7897V152.163H58.9395V153.308H59.7897V156.471C59.7897 157.457 60.47 158.16 61.4336 158.16C61.8871 158.16 62.3633 157.979 62.6921 157.695L62.2953 156.766ZM67.0224 152.027C66.2401 152.027 65.5599 152.401 65.2084 152.957V150.1H63.8253V158.024H65.2084V154.476C65.2084 153.761 65.8433 153.206 66.6369 153.206C67.3625 153.206 67.8613 153.761 67.8613 154.566V158.024H69.2104V154.294C69.2104 152.957 68.3148 152.027 67.0224 152.027ZM73.4189 157.049C72.512 157.049 71.8657 156.414 71.7184 155.496H76.2646C76.2646 153.365 75.1989 152.027 73.3849 152.027C71.707 152.027 70.3806 153.308 70.3806 155.077C70.3806 156.879 71.775 158.16 73.4643 158.16C74.3146 158.16 75.3349 157.798 75.8451 157.253L75.0515 156.437C74.6774 156.8 74.0085 157.049 73.4189 157.049ZM73.3963 153.138C74.2806 153.138 74.8021 153.75 74.9268 154.578H71.7297C71.9111 153.705 72.5573 153.138 73.3963 153.138ZM78.8817 153.274V152.163H77.4986V158.024H78.8817V155.065C78.8817 153.954 79.7207 153.206 80.9791 153.206V152.027C80.0268 152.027 79.2558 152.514 78.8817 153.274Z" fill="#6E7191"/>
</svg>
