<svg width="288" height="248" viewBox="0 0 288 248" fill="none" xmlns="http://www.w3.org/2000/svg">
<g clip-path="url(#clip0_2907_28897)">
<rect width="288" height="248" fill="white"/>
<rect x="0.0976562" y="0.166809" width="287.805" height="247.666" fill="white"/>
<path d="M25.2875 47.1024H27.3466V41.1478L30.296 46.5459L33.2594 41.1478V47.1024H35.3045V37.5445H33.2594L30.296 42.9425L27.3466 37.5445H25.2875V47.1024ZM40.9187 47.2693C43.0751 47.2693 44.842 45.572 44.842 43.499C44.842 41.4261 43.0751 39.7426 40.9187 39.7426C38.7622 39.7426 36.9953 41.4261 36.9953 43.499C36.9953 45.572 38.7622 47.2693 40.9187 47.2693ZM40.9187 45.5581C39.8335 45.5581 38.9431 44.6259 38.9431 43.499C38.9431 42.3721 39.8335 41.4539 40.9187 41.4539C42.0038 41.4539 42.8803 42.3721 42.8803 43.499C42.8803 44.6259 42.0038 45.5581 40.9187 45.5581ZM50.4746 39.7426C49.5425 39.7426 48.7494 40.1461 48.3042 40.7861V39.9096H46.273V47.1024H48.3042V42.8451C48.3042 42.066 48.9581 41.4539 49.8068 41.4539C50.6137 41.4539 51.1841 42.066 51.1841 42.9564V47.1024H53.1319V42.5251C53.1319 40.8835 52.0328 39.7426 50.4746 39.7426ZM58.6001 45.3216C58.461 45.4607 58.1828 45.5581 57.9045 45.5581C57.5289 45.5581 57.2367 45.2242 57.2367 44.7511V41.5513H58.7949V39.9096H57.2367V37.934H55.2751V39.9096H54.2873V41.5513H55.2751V45.0711C55.2751 46.365 56.1655 47.2693 57.4454 47.2693C58.0158 47.2693 58.6697 47.0189 59.0871 46.6432L58.6001 45.3216ZM64.6045 39.7426C63.6723 39.7426 62.8793 40.1461 62.4341 40.7861V37.3775H60.4029V47.1024H62.4341V42.8451C62.4341 42.066 63.088 41.4539 63.9367 41.4539C64.7436 41.4539 65.314 42.066 65.314 42.9564V47.1024H67.2618V42.5251C67.2618 40.8835 66.1627 39.7426 64.6045 39.7426ZM69.071 47.1024H71.1023V37.3775H69.071V47.1024ZM74.5683 49.6066C75.6952 49.6066 76.6135 48.8692 77.1561 47.4641L80.1055 39.9096H78.0325L76.2378 44.9598L74.3457 39.9096H72.2449L75.2361 47.1719L74.9857 47.7006C74.8327 47.9649 74.5266 48.0901 74.137 48.0901C73.9005 48.0901 73.5388 47.9649 73.191 47.7702L72.7597 49.1614C73.2466 49.4257 73.9701 49.6066 74.5683 49.6066ZM87.6646 47.2693C89.4314 47.2693 90.6001 46.365 90.6001 44.9459C90.6001 43.3738 89.2088 42.9564 87.9706 42.6364C86.9968 42.3721 86.5933 42.2608 86.5933 41.8713C86.5933 41.4678 87.0107 41.2035 87.5672 41.2035C88.2211 41.2035 89.0002 41.5234 89.654 41.9408L90.3914 40.633C89.5984 40.1044 88.5828 39.7426 87.5672 39.7426C85.8559 39.7426 84.7568 40.7165 84.7568 42.0799C84.7568 43.499 85.8977 43.9025 87.3724 44.2642C88.1654 44.459 88.7497 44.6538 88.7497 45.1129C88.7497 45.5302 88.388 45.7807 87.7063 45.7807C86.9272 45.7807 85.9811 45.4329 85.2438 44.9042L84.4229 46.1841C85.2855 46.8798 86.5098 47.2693 87.6646 47.2693ZM95.065 39.7426C94.0633 39.7426 93.0755 40.0209 92.0599 40.5357L92.7416 41.8852C93.3121 41.593 93.9381 41.3704 94.6059 41.3704C95.7885 41.3704 96.2754 42.0382 96.2754 42.8034V42.9564C95.6633 42.706 95.0094 42.5808 94.4251 42.5808C92.7695 42.5808 91.4478 43.5547 91.4478 44.9737C91.4478 46.3511 92.6164 47.2693 94.1468 47.2693C94.9398 47.2693 95.7607 46.9493 96.2754 46.3789V47.1024H98.2371V42.8034C98.2371 40.9252 96.9432 39.7426 95.065 39.7426ZM94.6059 45.8641C93.9103 45.8641 93.3816 45.5024 93.3816 44.9181C93.3816 44.3338 93.9799 43.9025 94.7172 43.9025C95.2737 43.9025 95.8163 43.9999 96.2754 44.1807V44.8346C96.1224 45.5024 95.385 45.8641 94.6059 45.8641ZM100.021 47.1024H102.052V37.3775H100.021V47.1024ZM107.299 45.6972C106.311 45.6972 105.643 45.0155 105.463 44.0416H110.875C110.875 41.3704 109.511 39.7426 107.257 39.7426C105.156 39.7426 103.529 41.3148 103.529 43.4851C103.529 45.6972 105.226 47.2693 107.369 47.2693C108.426 47.2693 109.664 46.8241 110.304 46.1563L109.163 44.9877C108.704 45.405 107.967 45.6972 107.299 45.6972ZM107.285 41.3148C108.189 41.3148 108.76 41.9408 108.927 42.8312H105.476C105.699 41.913 106.381 41.3148 107.285 41.3148ZM114.878 47.2693C116.645 47.2693 117.814 46.365 117.814 44.9459C117.814 43.3738 116.422 42.9564 115.184 42.6364C114.21 42.3721 113.807 42.2608 113.807 41.8713C113.807 41.4678 114.224 41.2035 114.781 41.2035C115.435 41.2035 116.214 41.5234 116.868 41.9408L117.605 40.633C116.812 40.1044 115.796 39.7426 114.781 39.7426C113.07 39.7426 111.97 40.7165 111.97 42.0799C111.97 43.499 113.111 43.9025 114.586 44.2642C115.379 44.459 115.963 44.6538 115.963 45.1129C115.963 45.5302 115.602 45.7807 114.92 45.7807C114.141 45.7807 113.195 45.4329 112.457 44.9042L111.637 46.1841C112.499 46.8798 113.723 47.2693 114.878 47.2693Z" fill="#211F54"/>
<line x1="17.2085" y1="189.261" x2="268.232" y2="189.261" stroke="#EFF0F7"/>
<path d="M44.5303 115.35C44.5303 113.743 45.8331 112.44 47.4403 112.44V112.44C49.0474 112.44 50.3503 113.743 50.3503 115.35V189.761H44.5303V115.35Z" fill="#7D42FB"/>
<path d="M60.3501 138.905C60.3501 137.298 61.6529 135.995 63.2601 135.995V135.995C64.8672 135.995 66.1701 137.298 66.1701 138.905V189.761H60.3501V138.905Z" fill="#FF4267"/>
<path d="M76.1704 127.709C76.1704 126.102 77.4733 124.799 79.0804 124.799V124.799C80.6876 124.799 81.9904 126.102 81.9904 127.709V189.761H76.1704V127.709Z" fill="#2FF2B8"/>
<path d="M123.99 81.6703C123.99 80.0632 125.293 78.7603 126.9 78.7603V78.7603C128.507 78.7603 129.81 80.0632 129.81 81.6703V189.761H123.99V81.6703Z" fill="#7D42FB"/>
<path d="M139.81 92.6759C139.81 91.0688 141.113 89.7659 142.72 89.7659V89.7659C144.327 89.7659 145.63 91.0688 145.63 92.6759V189.761H139.81V92.6759Z" fill="#FF4267"/>
<path d="M155.63 59.7323C155.63 58.1252 156.933 56.8223 158.54 56.8223V56.8223C160.148 56.8223 161.45 58.1252 161.45 59.7323V189.761H155.63V59.7323Z" fill="#2FF2B8"/>
<path d="M203.45 110.406C203.45 108.799 204.753 107.496 206.36 107.496V107.496C207.967 107.496 209.27 108.799 209.27 110.406V189.761H203.45V110.406Z" fill="#7D42FB"/>
<path d="M219.27 79.1986C219.27 77.5915 220.572 76.2886 222.18 76.2886V76.2886C223.787 76.2886 225.09 77.5915 225.09 79.1986V189.761H219.27V79.1986Z" fill="#FF4267"/>
<path d="M235.089 48.2868C235.089 46.6796 236.392 45.3768 237.999 45.3768V45.3768C239.607 45.3768 240.909 46.6796 240.909 48.2868V189.761H235.089V48.2868Z" fill="#2FF2B8"/>
<path d="M37.3961 214.876C39.0161 214.876 40.1561 213.7 40.1561 212.044V206.488H38.6681V211.948C38.6681 212.872 38.0801 213.52 37.2761 213.52C36.6521 213.52 36.0161 213.1 35.7281 212.524L34.7201 213.508C35.2481 214.312 36.3761 214.876 37.3961 214.876ZM44.5547 208.384C43.7747 208.384 42.9587 208.6 42.0827 209.032L42.5867 210.052C43.1147 209.788 43.6787 209.584 44.2667 209.584C45.3947 209.584 45.7787 210.28 45.7787 211V211.156C45.2147 210.952 44.6147 210.832 44.0507 210.832C42.6467 210.832 41.5307 211.672 41.5307 212.896C41.5307 214.096 42.5147 214.876 43.8347 214.876C44.5547 214.876 45.3227 214.564 45.7787 214V214.732H47.2067V211C47.2067 209.428 46.1987 208.384 44.5547 208.384ZM44.1587 213.808C43.4627 213.808 42.9347 213.436 42.9347 212.848C42.9347 212.26 43.5347 211.852 44.2667 211.852C44.8067 211.852 45.3227 211.936 45.7787 212.08V212.788C45.6227 213.448 44.8667 213.808 44.1587 213.808ZM52.2867 208.384C51.4587 208.384 50.7387 208.78 50.3667 209.368V208.528H48.9027V214.732H50.3667V210.976C50.3667 210.22 51.0387 209.632 51.8787 209.632C52.6467 209.632 53.1747 210.22 53.1747 211.072V214.732H54.6027V210.784C54.6027 209.368 53.6547 208.384 52.2867 208.384ZM59.1225 214.732H65.1825V213.364H61.4505L63.1785 211.972C64.5945 210.88 65.0985 210.004 65.0985 208.912C65.0985 207.388 63.8505 206.344 62.2185 206.344C60.8865 206.344 59.8905 206.932 59.1105 207.952L60.0825 208.852C60.6825 208.132 61.3065 207.688 62.1705 207.688C62.9145 207.688 63.5745 208.168 63.5745 208.948C63.5745 209.62 63.2025 210.244 62.1585 211.084L59.1225 213.508V214.732ZM70.0392 214.876C72.1512 214.876 73.6512 213.112 73.6512 210.604C73.6512 208.108 72.1512 206.344 70.0392 206.344C67.9152 206.344 66.4272 208.108 66.4272 210.604C66.4272 213.112 67.9152 214.876 70.0392 214.876ZM70.0392 213.508C68.8152 213.508 67.9512 212.308 67.9512 210.604C67.9512 208.9 68.8152 207.712 70.0392 207.712C71.2632 207.712 72.1152 208.9 72.1152 210.604C72.1152 212.308 71.2632 213.508 70.0392 213.508ZM74.7319 214.732H80.7919V213.364H77.0599L78.7879 211.972C80.2039 210.88 80.7079 210.004 80.7079 208.912C80.7079 207.388 79.4599 206.344 77.8279 206.344C76.4959 206.344 75.4999 206.932 74.7199 207.952L75.6919 208.852C76.2919 208.132 76.9159 207.688 77.7799 207.688C78.5239 207.688 79.1839 208.168 79.1839 208.948C79.1839 209.62 78.8119 210.244 77.7679 211.084L74.7319 213.508V214.732ZM84.9646 214.876C86.8126 214.876 88.0366 213.868 88.0366 212.452C88.0366 211.336 87.1726 210.7 86.2966 210.496C87.1726 210.232 87.8566 209.584 87.8566 208.588C87.8566 207.28 86.6926 206.344 84.9286 206.344C83.5246 206.344 82.5646 206.968 81.9046 207.796L82.7926 208.708C83.3566 208.084 83.9806 207.688 84.8086 207.688C85.6966 207.688 86.3326 208.156 86.3326 208.828C86.3326 209.548 85.6966 209.944 84.7246 209.932H83.8006V211.228L84.7246 211.216C85.9006 211.216 86.5006 211.6 86.5006 212.332C86.5006 213.052 85.9006 213.544 84.9046 213.544C84.0166 213.544 83.2246 213.148 82.6606 212.5L81.7486 213.484C82.4206 214.288 83.5126 214.876 84.9646 214.876Z" fill="#4A4566"/>
<path d="M125 207.856V206.488H118.796V214.732H120.296V211.312H124.544V209.944H120.296V207.856H125ZM129.145 213.7C128.185 213.7 127.501 213.028 127.345 212.056H132.157C132.157 209.8 131.029 208.384 129.109 208.384C127.333 208.384 125.929 209.74 125.929 211.612C125.929 213.52 127.405 214.876 129.193 214.876C130.093 214.876 131.173 214.492 131.713 213.916L130.873 213.052C130.477 213.436 129.769 213.7 129.145 213.7ZM129.121 209.56C130.057 209.56 130.609 210.208 130.741 211.084H127.357C127.549 210.16 128.233 209.56 129.121 209.56ZM137.123 208.384C136.175 208.384 135.407 208.828 134.927 209.572V206.344H133.463V214.732H134.927V213.676C135.407 214.432 136.175 214.876 137.123 214.876C138.767 214.876 139.979 213.532 139.979 211.624C139.979 209.728 138.767 208.384 137.123 208.384ZM136.727 213.628C135.707 213.628 134.975 212.788 134.975 211.624C134.975 210.46 135.707 209.632 136.727 209.632C137.783 209.632 138.527 210.46 138.527 211.624C138.527 212.788 137.783 213.628 136.727 213.628ZM144.198 214.732H150.258V213.364H146.526L148.254 211.972C149.67 210.88 150.174 210.004 150.174 208.912C150.174 207.388 148.926 206.344 147.294 206.344C145.962 206.344 144.966 206.932 144.186 207.952L145.158 208.852C145.758 208.132 146.382 207.688 147.246 207.688C147.99 207.688 148.65 208.168 148.65 208.948C148.65 209.62 148.278 210.244 147.234 211.084L144.198 213.508V214.732ZM155.115 214.876C157.227 214.876 158.727 213.112 158.727 210.604C158.727 208.108 157.227 206.344 155.115 206.344C152.991 206.344 151.503 208.108 151.503 210.604C151.503 213.112 152.991 214.876 155.115 214.876ZM155.115 213.508C153.891 213.508 153.027 212.308 153.027 210.604C153.027 208.9 153.891 207.712 155.115 207.712C156.339 207.712 157.191 208.9 157.191 210.604C157.191 212.308 156.339 213.508 155.115 213.508ZM159.808 214.732H165.868V213.364H162.136L163.864 211.972C165.28 210.88 165.784 210.004 165.784 208.912C165.784 207.388 164.536 206.344 162.904 206.344C161.572 206.344 160.576 206.932 159.796 207.952L160.768 208.852C161.368 208.132 161.992 207.688 162.856 207.688C163.6 207.688 164.26 208.168 164.26 208.948C164.26 209.62 163.888 210.244 162.844 211.084L159.808 213.508V214.732ZM170.04 214.876C171.888 214.876 173.112 213.868 173.112 212.452C173.112 211.336 172.248 210.7 171.372 210.496C172.248 210.232 172.932 209.584 172.932 208.588C172.932 207.28 171.768 206.344 170.004 206.344C168.6 206.344 167.64 206.968 166.98 207.796L167.868 208.708C168.432 208.084 169.056 207.688 169.884 207.688C170.772 207.688 171.408 208.156 171.408 208.828C171.408 209.548 170.772 209.944 169.8 209.932H168.876V211.228L169.8 211.216C170.976 211.216 171.576 211.6 171.576 212.332C171.576 213.052 170.976 213.544 169.98 213.544C169.092 213.544 168.3 213.148 167.736 212.5L166.824 213.484C167.496 214.288 168.588 214.876 170.04 214.876Z" fill="#4A4566"/>
<path d="M196.611 214.732H198.099V209.224L200.823 214.252L203.535 209.224V214.732H205.035V206.488H203.535L200.823 211.516L198.099 206.488H196.611V214.732ZM209.554 208.384C208.774 208.384 207.958 208.6 207.082 209.032L207.586 210.052C208.114 209.788 208.678 209.584 209.266 209.584C210.394 209.584 210.778 210.28 210.778 211V211.156C210.214 210.952 209.614 210.832 209.05 210.832C207.646 210.832 206.53 211.672 206.53 212.896C206.53 214.096 207.514 214.876 208.834 214.876C209.554 214.876 210.322 214.564 210.778 214V214.732H212.206V211C212.206 209.428 211.198 208.384 209.554 208.384ZM209.158 213.808C208.462 213.808 207.934 213.436 207.934 212.848C207.934 212.26 208.534 211.852 209.266 211.852C209.806 211.852 210.322 211.936 210.778 212.08V212.788C210.622 213.448 209.866 213.808 209.158 213.808ZM215.366 209.704V208.528H213.902V214.732H215.366V211.6C215.366 210.424 216.254 209.632 217.586 209.632V208.384C216.578 208.384 215.762 208.9 215.366 209.704ZM221.743 214.732H227.803V213.364H224.071L225.799 211.972C227.215 210.88 227.719 210.004 227.719 208.912C227.719 207.388 226.471 206.344 224.839 206.344C223.507 206.344 222.511 206.932 221.731 207.952L222.703 208.852C223.303 208.132 223.927 207.688 224.791 207.688C225.535 207.688 226.195 208.168 226.195 208.948C226.195 209.62 225.823 210.244 224.779 211.084L221.743 213.508V214.732ZM232.66 214.876C234.772 214.876 236.272 213.112 236.272 210.604C236.272 208.108 234.772 206.344 232.66 206.344C230.536 206.344 229.048 208.108 229.048 210.604C229.048 213.112 230.536 214.876 232.66 214.876ZM232.66 213.508C231.436 213.508 230.572 212.308 230.572 210.604C230.572 208.9 231.436 207.712 232.66 207.712C233.884 207.712 234.736 208.9 234.736 210.604C234.736 212.308 233.884 213.508 232.66 213.508ZM237.352 214.732H243.412V213.364H239.68L241.408 211.972C242.824 210.88 243.328 210.004 243.328 208.912C243.328 207.388 242.08 206.344 240.448 206.344C239.116 206.344 238.12 206.932 237.34 207.952L238.312 208.852C238.912 208.132 239.536 207.688 240.4 207.688C241.144 207.688 241.804 208.168 241.804 208.948C241.804 209.62 241.432 210.244 240.388 211.084L237.352 213.508V214.732ZM247.585 214.876C249.433 214.876 250.657 213.868 250.657 212.452C250.657 211.336 249.793 210.7 248.917 210.496C249.793 210.232 250.477 209.584 250.477 208.588C250.477 207.28 249.313 206.344 247.549 206.344C246.145 206.344 245.185 206.968 244.525 207.796L245.413 208.708C245.977 208.084 246.601 207.688 247.429 207.688C248.317 207.688 248.953 208.156 248.953 208.828C248.953 209.548 248.317 209.944 247.345 209.932H246.421V211.228L247.345 211.216C248.521 211.216 249.121 211.6 249.121 212.332C249.121 213.052 248.521 213.544 247.525 213.544C246.637 213.544 245.845 213.148 245.281 212.5L244.369 213.484C245.041 214.288 246.133 214.876 247.585 214.876Z" fill="#4A4566"/>
</g>
<defs>
<clipPath id="clip0_2907_28897">
<rect width="288" height="248" fill="white"/>
</clipPath>
</defs>
</svg>
