<svg width="356" height="248" viewBox="0 0 356 248" fill="none" xmlns="http://www.w3.org/2000/svg">
<g clip-path="url(#clip0_2907_28898)">
<rect width="356" height="248" fill="white"/>
<rect x="-0.349365" y="0.166809" width="356.699" height="247.666" fill="white"/>
<path d="M319.876 128.266C319.316 138.991 316.649 149.5 312.027 159.194C307.405 168.888 300.919 177.577 292.939 184.765C284.96 191.952 275.642 197.497 265.52 201.084C255.397 204.67 244.667 206.228 233.942 205.668C223.217 205.108 212.708 202.44 203.014 197.819C193.32 193.197 184.631 186.711 177.444 178.731C170.256 170.751 164.711 161.434 161.124 151.311C157.538 141.189 155.98 130.459 156.54 119.734C157.101 109.009 159.768 98.4996 164.39 88.8056C169.011 79.1116 175.497 70.4228 183.477 63.2354C191.457 56.048 200.774 50.5027 210.897 46.9161C221.019 43.3295 231.75 41.7719 242.474 42.3321C253.199 42.8924 263.709 45.5595 273.403 50.1813C283.097 54.8031 291.785 61.289 298.973 69.2687C306.16 77.2484 311.705 86.5657 315.292 96.6885C318.879 106.811 320.436 117.541 319.876 128.266L319.876 128.266Z" stroke="#EFF0F7" stroke-width="12"/>
<path d="M319.876 128.266C318.901 146.932 311.561 164.701 299.079 178.613C286.596 192.526 269.725 201.743 251.274 204.729C232.822 207.715 213.905 204.29 197.671 195.025C181.438 185.76 168.868 171.214 162.055 153.808" stroke="#FF4267" stroke-width="12" stroke-linecap="round"/>
<path d="M263.7 46.2953C276.227 50.4049 287.575 57.4823 296.776 66.9241C305.977 76.366 312.76 87.8925 316.545 100.521C320.33 113.15 321.005 126.507 318.514 139.453C316.023 152.4 310.438 164.552 302.237 174.874" stroke="#7D42FB" stroke-width="12" stroke-linecap="round"/>
<path d="M191.713 56.7244C202.422 49.3229 214.744 44.585 227.653 42.9048C240.563 41.2245 253.687 42.6506 265.934 47.0642" stroke="#2FF2B8" stroke-width="12" stroke-linecap="round"/>
<path d="M198.512 122.326C198.512 119.232 196.224 117.984 192.792 117.152V112.316C194.014 112.628 195.21 113.278 196.276 114.188L198.044 111.822C196.614 110.574 194.898 109.69 192.792 109.43V107.766H190.426V109.378C187.15 109.69 184.888 111.822 184.888 114.708C184.888 117.854 187.124 118.972 190.426 119.804V124.874C188.762 124.562 187.332 123.73 186.058 122.586L184.16 124.9C185.824 126.46 187.956 127.448 190.426 127.708V129.424H192.792V127.734C196.458 127.422 198.512 125.264 198.512 122.326ZM188.164 114.422C188.164 113.356 189.048 112.42 190.426 112.186V116.554C188.892 116.06 188.164 115.514 188.164 114.422ZM192.792 124.952V120.428C194.482 120.922 195.262 121.494 195.262 122.638C195.262 123.73 194.404 124.692 192.792 124.952ZM201.234 127.5H214.364V124.536H206.278L210.022 121.52C213.09 119.154 214.182 117.256 214.182 114.89C214.182 111.588 211.478 109.326 207.942 109.326C205.056 109.326 202.898 110.6 201.208 112.81L203.314 114.76C204.614 113.2 205.966 112.238 207.838 112.238C209.45 112.238 210.88 113.278 210.88 114.968C210.88 116.424 210.074 117.776 207.812 119.596L201.234 124.848V127.5ZM225.563 127.5H228.813V123.626H231.283V120.844H228.813V109.638H224.913L216.463 121.104L216.775 123.626H225.563V127.5ZM219.921 120.844L225.563 113.174V120.844H219.921ZM239.887 127.812C243.969 127.812 246.751 125.42 246.751 121.728C246.751 118.14 244.021 116.112 240.849 116.112C239.315 116.112 238.145 116.58 237.235 117.204L237.391 112.602H245.763V109.638H234.349L234.089 119.128L236.299 120.064C237.313 119.284 238.535 118.816 239.939 118.816C242.071 118.816 243.501 120.038 243.501 121.858C243.501 123.6 242.097 125.004 239.939 125.004C238.145 125.004 236.481 124.094 235.129 122.742L233.205 125.056C234.791 126.72 236.975 127.812 239.887 127.812ZM251.751 131.192C253.519 129.32 254.247 127.968 254.247 126.564C254.247 124.926 253.389 123.73 252.063 123.73C250.945 123.73 250.035 124.666 250.035 125.758C250.035 126.876 250.945 127.812 252.037 127.812C251.803 128.644 251.283 129.476 250.529 130.256L251.751 131.192ZM261.299 127.5H264.549V109.638H261.949L256.931 113.044L258.231 115.332L261.299 113.382V127.5ZM271.862 127.5H275.112V109.638H272.512L267.494 113.044L268.794 115.332L271.862 113.382V127.5ZM286.662 127.812C291.238 127.812 294.488 123.99 294.488 118.556C294.488 113.148 291.238 109.326 286.662 109.326C282.06 109.326 278.836 113.148 278.836 118.556C278.836 123.99 282.06 127.812 286.662 127.812ZM286.662 124.848C284.01 124.848 282.138 122.248 282.138 118.556C282.138 114.864 284.01 112.29 286.662 112.29C289.314 112.29 291.16 114.864 291.16 118.556C291.16 122.248 289.314 124.848 286.662 124.848Z" fill="#211F54"/>
<path d="M201.737 147.5H203.237V140.624H205.865V139.256H199.097V140.624H201.737V147.5ZM209.994 147.644C211.818 147.644 213.306 146.18 213.306 144.392C213.306 142.604 211.818 141.152 209.994 141.152C208.158 141.152 206.658 142.604 206.658 144.392C206.658 146.18 208.158 147.644 209.994 147.644ZM209.994 146.396C208.95 146.396 208.098 145.496 208.098 144.392C208.098 143.288 208.95 142.4 209.994 142.4C211.026 142.4 211.878 143.288 211.878 144.392C211.878 145.496 211.026 146.396 209.994 146.396ZM217.565 146.168C217.433 146.3 217.205 146.396 216.953 146.396C216.605 146.396 216.329 146.096 216.329 145.676V142.508H217.733V141.296H216.329V139.592H214.913V141.296H214.013V142.508H214.913V145.856C214.913 146.9 215.633 147.644 216.653 147.644C217.133 147.644 217.637 147.452 217.985 147.152L217.565 146.168ZM221.669 141.152C220.889 141.152 220.073 141.368 219.197 141.8L219.701 142.82C220.229 142.556 220.793 142.352 221.381 142.352C222.509 142.352 222.893 143.048 222.893 143.768V143.924C222.329 143.72 221.729 143.6 221.165 143.6C219.761 143.6 218.645 144.44 218.645 145.664C218.645 146.864 219.629 147.644 220.949 147.644C221.669 147.644 222.437 147.332 222.893 146.768V147.5H224.321V143.768C224.321 142.196 223.313 141.152 221.669 141.152ZM221.273 146.576C220.577 146.576 220.049 146.204 220.049 145.616C220.049 145.028 220.649 144.62 221.381 144.62C221.921 144.62 222.437 144.704 222.893 144.848V145.556C222.737 146.216 221.981 146.576 221.273 146.576ZM226.017 147.5H227.481V139.112H226.017V147.5ZM234.055 142.472V141.296H232.591V147.5H234.055V144.368C234.055 143.192 234.943 142.4 236.275 142.4V141.152C235.267 141.152 234.451 141.668 234.055 142.472ZM240.366 146.468C239.406 146.468 238.722 145.796 238.566 144.824H243.378C243.378 142.568 242.25 141.152 240.33 141.152C238.554 141.152 237.15 142.508 237.15 144.38C237.15 146.288 238.626 147.644 240.414 147.644C241.314 147.644 242.394 147.26 242.934 146.684L242.094 145.82C241.698 146.204 240.99 146.468 240.366 146.468ZM240.342 142.328C241.278 142.328 241.83 142.976 241.962 143.852H238.578C238.77 142.928 239.454 142.328 240.342 142.328ZM246.581 147.5H247.949L250.577 141.296H249.029L247.265 145.808L245.465 141.296H243.905L246.581 147.5ZM254.394 146.468C253.434 146.468 252.75 145.796 252.594 144.824H257.406C257.406 142.568 256.278 141.152 254.358 141.152C252.582 141.152 251.178 142.508 251.178 144.38C251.178 146.288 252.654 147.644 254.442 147.644C255.342 147.644 256.422 147.26 256.962 146.684L256.122 145.82C255.726 146.204 255.018 146.468 254.394 146.468ZM254.37 142.328C255.306 142.328 255.858 142.976 255.99 143.852H252.606C252.798 142.928 253.482 142.328 254.37 142.328ZM262.096 141.152C261.268 141.152 260.548 141.548 260.176 142.136V141.296H258.712V147.5H260.176V143.744C260.176 142.988 260.848 142.4 261.688 142.4C262.456 142.4 262.984 142.988 262.984 143.84V147.5H264.412V143.552C264.412 142.136 263.464 141.152 262.096 141.152ZM270.21 141.296V145.052C270.21 145.808 269.538 146.396 268.698 146.396C267.93 146.396 267.402 145.808 267.402 144.956V141.296H265.974V145.244C265.974 146.66 266.922 147.644 268.29 147.644C269.118 147.644 269.838 147.248 270.21 146.66V147.5H271.674V141.296H270.21ZM276.261 146.468C275.301 146.468 274.617 145.796 274.461 144.824H279.273C279.273 142.568 278.145 141.152 276.225 141.152C274.449 141.152 273.045 142.508 273.045 144.38C273.045 146.288 274.521 147.644 276.309 147.644C277.209 147.644 278.289 147.26 278.829 146.684L277.989 145.82C277.593 146.204 276.885 146.468 276.261 146.468ZM276.237 142.328C277.173 142.328 277.725 142.976 277.857 143.852H274.473C274.665 142.928 275.349 142.328 276.237 142.328Z" fill="#6E7191"/>
<circle cx="36.9646" cy="84.0967" r="6.95166" fill="#FF4267"/>
<path d="M55.9123 88.2287C57.8923 88.2287 59.0083 87.1847 59.0083 85.7087C59.0083 84.2087 57.8563 83.6567 56.1403 83.2727C54.8323 82.9727 54.2323 82.7327 54.2323 82.0607C54.2323 81.4847 54.7843 80.9927 55.6243 80.9927C56.4403 80.9927 57.2683 81.3407 57.9763 81.9527L58.7923 80.8607C57.9763 80.1527 56.9803 79.7087 55.6723 79.7087C53.9443 79.7087 52.7203 80.7527 52.7203 82.1927C52.7203 83.7407 53.8963 84.2327 55.6003 84.6287C56.9203 84.9407 57.5083 85.1687 57.5083 85.8527C57.5083 86.4407 56.9803 86.9447 55.9723 86.9447C54.8923 86.9447 54.0163 86.5127 53.2603 85.8287L52.3843 86.8967C53.2963 87.7487 54.5083 88.2287 55.9123 88.2287ZM64.5846 81.8927V85.6487C64.5846 86.4047 63.9126 86.9927 63.0726 86.9927C62.3046 86.9927 61.7766 86.4047 61.7766 85.5527V81.8927H60.3486V85.8407C60.3486 87.2567 61.2966 88.2407 62.6646 88.2407C63.4926 88.2407 64.2126 87.8447 64.5846 87.2567V88.0967H66.0486V81.8927H64.5846ZM71.5351 81.7487C70.5871 81.7487 69.8191 82.1927 69.3391 82.9367V79.7087H67.8751V88.0967H69.3391V87.0407C69.8191 87.7967 70.5871 88.2407 71.5351 88.2407C73.1791 88.2407 74.3911 86.8967 74.3911 84.9887C74.3911 83.0927 73.1791 81.7487 71.5351 81.7487ZM71.1391 86.9927C70.1191 86.9927 69.3871 86.1527 69.3871 84.9887C69.3871 83.8247 70.1191 82.9967 71.1391 82.9967C72.1951 82.9967 72.9391 83.8247 72.9391 84.9887C72.9391 86.1527 72.1951 86.9927 71.1391 86.9927ZM77.9333 88.2407C79.3733 88.2407 80.3693 87.4727 80.3693 86.2727C80.3693 84.9887 79.2413 84.6407 78.1853 84.3527C77.2493 84.0647 76.8653 83.9567 76.8653 83.5487C76.8653 83.1167 77.2973 82.8647 77.8373 82.8647C78.4133 82.8647 79.0613 83.1047 79.6373 83.4767L80.2133 82.4927C79.5293 82.0487 78.6893 81.7487 77.8373 81.7487C76.4573 81.7487 75.4973 82.5407 75.4973 83.6927C75.4973 84.8207 76.3493 85.1927 77.7053 85.5527C78.4373 85.7447 79.0133 85.9127 79.0133 86.4047C79.0133 86.8367 78.6173 87.1127 77.9573 87.1127C77.2853 87.1127 76.5053 86.8367 75.8333 86.3567L75.2093 87.3167C75.9653 87.9047 76.9853 88.2407 77.9333 88.2407ZM84.559 88.2407C85.531 88.2407 86.359 87.8327 86.959 87.1967L85.975 86.3447C85.627 86.7407 85.099 86.9927 84.559 86.9927C83.539 86.9927 82.687 86.0807 82.687 84.9887C82.687 83.9087 83.539 82.9967 84.559 82.9967C85.087 82.9967 85.603 83.2487 85.939 83.6207L86.923 82.7567C86.335 82.1447 85.519 81.7487 84.571 81.7487C82.759 81.7487 81.235 83.2247 81.235 84.9887C81.235 86.7527 82.759 88.2407 84.559 88.2407ZM89.5891 83.0687V81.8927H88.1251V88.0967H89.5891V84.9647C89.5891 83.7887 90.4771 82.9967 91.8091 82.9967V81.7487C90.8011 81.7487 89.9851 82.2647 89.5891 83.0687ZM93.8728 80.9567C94.3288 80.9567 94.7008 80.5607 94.7008 80.1167C94.7008 79.6727 94.3288 79.2887 93.8728 79.2887C93.4048 79.2887 93.0328 79.6727 93.0328 80.1167C93.0328 80.5607 93.4048 80.9567 93.8728 80.9567ZM93.1408 88.0967H94.6048V81.8927H93.1408V88.0967ZM100.046 81.7487C99.1337 81.7487 98.3897 82.1567 97.8977 82.8527V81.8927H96.4337V90.1607H97.8977V87.1367C98.3897 87.8327 99.1337 88.2407 100.046 88.2407C101.69 88.2407 102.89 86.8967 102.89 84.9887C102.89 83.0927 101.69 81.7487 100.046 81.7487ZM99.6497 86.9927C98.6177 86.9927 97.8977 86.1527 97.8977 84.9887C97.8977 83.8247 98.6177 82.9967 99.6497 82.9967C100.694 82.9967 101.438 83.8247 101.438 84.9887C101.438 86.1527 100.694 86.9927 99.6497 86.9927ZM107.201 86.7647C107.069 86.8967 106.841 86.9927 106.589 86.9927C106.241 86.9927 105.965 86.6927 105.965 86.2727V83.1047H107.369V81.8927H105.965V80.1887H104.549V81.8927H103.649V83.1047H104.549V86.4527C104.549 87.4967 105.269 88.2407 106.289 88.2407C106.769 88.2407 107.273 88.0487 107.621 87.7487L107.201 86.7647ZM109.552 80.9567C110.008 80.9567 110.38 80.5607 110.38 80.1167C110.38 79.6727 110.008 79.2887 109.552 79.2887C109.084 79.2887 108.712 79.6727 108.712 80.1167C108.712 80.5607 109.084 80.9567 109.552 80.9567ZM108.82 88.0967H110.284V81.8927H108.82V88.0967ZM114.969 88.2407C116.793 88.2407 118.281 86.7767 118.281 84.9887C118.281 83.2007 116.793 81.7487 114.969 81.7487C113.133 81.7487 111.633 83.2007 111.633 84.9887C111.633 86.7767 113.133 88.2407 114.969 88.2407ZM114.969 86.9927C113.925 86.9927 113.073 86.0927 113.073 84.9887C113.073 83.8847 113.925 82.9967 114.969 82.9967C116.001 82.9967 116.853 83.8847 116.853 84.9887C116.853 86.0927 116.001 86.9927 114.969 86.9927ZM123.021 81.7487C122.193 81.7487 121.473 82.1447 121.101 82.7327V81.8927H119.637V88.0967H121.101V84.3407C121.101 83.5847 121.773 82.9967 122.613 82.9967C123.381 82.9967 123.909 83.5847 123.909 84.4367V88.0967H125.337V84.1487C125.337 82.7327 124.389 81.7487 123.021 81.7487ZM129.179 88.2407C130.619 88.2407 131.615 87.4727 131.615 86.2727C131.615 84.9887 130.487 84.6407 129.431 84.3527C128.495 84.0647 128.111 83.9567 128.111 83.5487C128.111 83.1167 128.543 82.8647 129.083 82.8647C129.659 82.8647 130.307 83.1047 130.883 83.4767L131.459 82.4927C130.775 82.0487 129.935 81.7487 129.083 81.7487C127.703 81.7487 126.743 82.5407 126.743 83.6927C126.743 84.8207 127.595 85.1927 128.951 85.5527C129.683 85.7447 130.259 85.9127 130.259 86.4047C130.259 86.8367 129.863 87.1127 129.203 87.1127C128.531 87.1127 127.751 86.8367 127.079 86.3567L126.455 87.3167C127.211 87.9047 128.231 88.2407 129.179 88.2407Z" fill="#6E7191"/>
<circle cx="36.9646" cy="124" r="6.95166" fill="#7D42FB"/>
<path d="M53.0563 128H54.5443V125.228H56.6443C58.3963 125.228 59.7283 124.1 59.7283 122.492C59.7283 120.884 58.3963 119.756 56.6443 119.756H53.0563V128ZM54.5443 123.848V121.136H56.4643C57.4843 121.136 58.1923 121.652 58.1923 122.492C58.1923 123.332 57.4843 123.848 56.4643 123.848H54.5443ZM62.6009 122.972V121.796H61.1369V128H62.6009V124.868C62.6009 123.692 63.4889 122.9 64.8209 122.9V121.652C63.8129 121.652 62.9969 122.168 62.6009 122.972ZM69.0085 128.144C70.8325 128.144 72.3205 126.68 72.3205 124.892C72.3205 123.104 70.8325 121.652 69.0085 121.652C67.1725 121.652 65.6725 123.104 65.6725 124.892C65.6725 126.68 67.1725 128.144 69.0085 128.144ZM69.0085 126.896C67.9645 126.896 67.1125 125.996 67.1125 124.892C67.1125 123.788 67.9645 122.9 69.0085 122.9C70.0405 122.9 70.8925 123.788 70.8925 124.892C70.8925 125.996 70.0405 126.896 69.0085 126.896ZM78.2599 119.612V122.768C77.7799 122.072 77.0239 121.652 76.1119 121.652C74.4559 121.652 73.2559 122.996 73.2559 124.892C73.2559 126.8 74.4559 128.144 76.1119 128.144C77.0239 128.144 77.7799 127.724 78.2599 127.016V128H79.7239V119.612H78.2599ZM76.4959 126.896C75.4519 126.896 74.7079 126.056 74.7079 124.892C74.7079 123.728 75.4519 122.9 76.4959 122.9C77.5279 122.9 78.2479 123.728 78.2479 124.892C78.2479 126.056 77.5279 126.896 76.4959 126.896ZM85.6549 121.796V125.552C85.6549 126.308 84.9829 126.896 84.1429 126.896C83.3749 126.896 82.8469 126.308 82.8469 125.456V121.796H81.4189V125.744C81.4189 127.16 82.3669 128.144 83.7349 128.144C84.5629 128.144 85.2829 127.748 85.6549 127.16V128H87.1189V121.796H85.6549ZM91.7894 128.144C92.7614 128.144 93.5894 127.736 94.1894 127.1L93.2054 126.248C92.8574 126.644 92.3294 126.896 91.7894 126.896C90.7694 126.896 89.9174 125.984 89.9174 124.892C89.9174 123.812 90.7694 122.9 91.7894 122.9C92.3174 122.9 92.8334 123.152 93.1694 123.524L94.1534 122.66C93.5654 122.048 92.7494 121.652 91.8014 121.652C89.9894 121.652 88.4654 123.128 88.4654 124.892C88.4654 126.656 89.9894 128.144 91.7894 128.144ZM98.2596 126.668C98.1276 126.8 97.8996 126.896 97.6476 126.896C97.2996 126.896 97.0236 126.596 97.0236 126.176V123.008H98.4276V121.796H97.0236V120.092H95.6076V121.796H94.7076V123.008H95.6076V126.356C95.6076 127.4 96.3276 128.144 97.3476 128.144C97.8276 128.144 98.3316 127.952 98.6796 127.652L98.2596 126.668ZM102.027 128.144C103.467 128.144 104.463 127.376 104.463 126.176C104.463 124.892 103.335 124.544 102.279 124.256C101.343 123.968 100.959 123.86 100.959 123.452C100.959 123.02 101.391 122.768 101.931 122.768C102.507 122.768 103.155 123.008 103.731 123.38L104.307 122.396C103.623 121.952 102.783 121.652 101.931 121.652C100.551 121.652 99.591 122.444 99.591 123.596C99.591 124.724 100.443 125.096 101.799 125.456C102.531 125.648 103.107 125.816 103.107 126.308C103.107 126.74 102.711 127.016 102.051 127.016C101.379 127.016 100.599 126.74 99.927 126.26L99.303 127.22C100.059 127.808 101.079 128.144 102.027 128.144Z" fill="#6E7191"/>
<circle cx="36.9646" cy="163.903" r="6.95166" fill="#2FF2B8"/>
<path d="M56.8363 168.047C59.1883 168.047 61.1683 166.091 61.1683 163.775C61.1683 161.459 59.1883 159.515 56.8363 159.515C54.4963 159.515 52.5163 161.459 52.5163 163.775C52.5163 166.091 54.4963 168.047 56.8363 168.047ZM56.8363 166.679C55.3243 166.679 54.0403 165.359 54.0403 163.775C54.0403 162.203 55.3243 160.883 56.8363 160.883C58.3603 160.883 59.6323 162.203 59.6323 163.775C59.6323 165.359 58.3603 166.679 56.8363 166.679ZM65.5877 166.571C65.4557 166.703 65.2277 166.799 64.9757 166.799C64.6277 166.799 64.3517 166.499 64.3517 166.079V162.911H65.7557V161.699H64.3517V159.995H62.9357V161.699H62.0357V162.911H62.9357V166.259C62.9357 167.303 63.6557 168.047 64.6757 168.047C65.1557 168.047 65.6597 167.855 66.0077 167.555L65.5877 166.571ZM70.5912 161.555C69.7632 161.555 69.0432 161.951 68.6712 162.539V159.515H67.2072V167.903H68.6712V164.147C68.6712 163.391 69.3432 162.803 70.1832 162.803C70.9512 162.803 71.4792 163.391 71.4792 164.243V167.903H72.9072V163.955C72.9072 162.539 71.9592 161.555 70.5912 161.555ZM77.3617 166.871C76.4017 166.871 75.7177 166.199 75.5617 165.227H80.3737C80.3737 162.971 79.2457 161.555 77.3257 161.555C75.5497 161.555 74.1457 162.911 74.1457 164.783C74.1457 166.691 75.6217 168.047 77.4097 168.047C78.3097 168.047 79.3897 167.663 79.9297 167.087L79.0897 166.223C78.6937 166.607 77.9857 166.871 77.3617 166.871ZM77.3377 162.731C78.2737 162.731 78.8257 163.379 78.9577 164.255H75.5737C75.7657 163.331 76.4497 162.731 77.3377 162.731ZM83.1438 162.875V161.699H81.6798V167.903H83.1438V164.771C83.1438 163.595 84.0318 162.803 85.3638 162.803V161.555C84.3558 161.555 83.5398 162.071 83.1438 162.875Z" fill="#6E7191"/>
</g>
<defs>
<clipPath id="clip0_2907_28898">
<rect width="356" height="248" fill="white"/>
</clipPath>
</defs>
</svg>
