<svg width="12" height="12" viewBox="0 0 12 12" fill="none" xmlns="http://www.w3.org/2000/svg">
<path id="image 1211 (Traced)" fill-rule="evenodd" clip-rule="evenodd" d="M5.16528 0.00374904C5.16321 0.00710422 5.12812 0.010266 5.0873 0.010757C5.0465 0.0112554 5.00882 0.0130483 5.00359 0.0147445C4.99835 0.0164407 4.97565 0.0199075 4.95315 0.0224592C4.80807 0.0388706 4.64633 0.0669024 4.55886 0.0908052C4.53635 0.0969502 4.50455 0.105312 4.48818 0.109389C4.47182 0.113458 4.45173 0.119447 4.44355 0.122705C4.4229 0.130911 4.2231 0.19713 4.20826 0.200686C4.20161 0.202278 4.18087 0.21055 4.16217 0.219068C4.14349 0.227579 4.12658 0.23455 4.1246 0.23455C4.11776 0.23455 4.00414 0.287742 3.91907 0.330779C3.81535 0.383249 3.77114 0.407829 3.67261 0.467828C3.6414 0.486836 3.61169 0.507406 3.6066 0.513536C3.60152 0.519673 3.59443 0.524688 3.59087 0.524688C3.58352 0.524688 3.41607 0.648249 3.37535 0.68372C3.36068 0.696494 3.3339 0.718529 3.31583 0.732679C3.26506 0.77245 3.02719 1.01286 2.97763 1.07449C2.89001 1.18346 2.79957 1.30415 2.77376 1.34654C2.76373 1.36302 2.75279 1.37985 2.74944 1.38394C2.7096 1.43263 2.50558 1.81897 2.50558 1.84574C2.50558 1.84793 2.49869 1.86544 2.49029 1.88465C2.46614 1.93984 2.46326 1.94713 2.44999 1.98654C2.4431 2.00699 2.43472 2.03043 2.43135 2.03861C2.42799 2.04679 2.42129 2.06403 2.41646 2.07692C2.40978 2.09473 2.40202 2.10132 2.38409 2.10436C2.28506 2.12117 2.02529 2.19784 1.95022 2.2324C1.93732 2.23834 1.92305 2.2432 1.91849 2.2432C1.91394 2.2432 1.9044 2.24639 1.8973 2.25031C1.87547 2.26232 1.78324 2.30271 1.77762 2.30271C1.77192 2.30271 1.61063 2.38399 1.54961 2.41761C1.46772 2.46273 1.23332 2.61503 1.21112 2.63754C1.20907 2.63961 1.17392 2.66777 1.133 2.70011C0.991385 2.81204 0.732857 3.08239 0.6024 3.25496C0.569465 3.29852 0.463751 3.46104 0.422358 3.53175C0.374671 3.61319 0.281269 3.79958 0.247904 3.87987C0.236856 3.90647 0.223086 3.93878 0.217305 3.95167C0.211525 3.96456 0.206793 3.97884 0.206793 3.98339C0.206793 3.98794 0.203446 3.99831 0.199354 4.00644C0.181893 4.04112 0.178523 4.04997 0.162536 4.10305C0.153296 4.13374 0.140768 4.17391 0.134698 4.19233C0.10279 4.28908 0.0650647 4.456 0.0397112 4.61265C0.0279792 4.68516 0.0190667 4.77204 0.0156818 4.847C0.0135541 4.89405 0.00903839 4.93598 0.00563857 4.94016C-0.00211331 4.94973 -0.00176366 5.18283 0.00601798 5.19293C0.0091723 5.19702 0.0135318 5.23552 0.0157116 5.27848C0.0191783 5.3469 0.0280461 5.43339 0.0389746 5.50538C0.0539576 5.60415 0.0685315 5.68115 0.0805015 5.72485C0.0844221 5.73917 0.094629 5.77934 0.103184 5.81412C0.111732 5.8489 0.123137 5.89409 0.128523 5.91455C0.13931 5.95552 0.188351 6.09931 0.199562 6.12286C0.20346 6.13104 0.215177 6.16073 0.225593 6.18884C0.277133 6.32792 0.39359 6.55246 0.49618 6.71057C0.530252 6.76308 0.625402 6.89569 0.648948 6.92347C0.661491 6.93828 0.680127 6.96162 0.690356 6.97535C0.700585 6.98907 0.72486 7.01801 0.744292 7.03964C0.764929 7.06261 0.779629 7.08614 0.779629 7.09619C0.779629 7.10566 0.771037 7.1416 0.760532 7.17609C0.635966 7.58493 0.6033 8.02523 0.664809 8.46628C0.67108 8.51129 0.679115 8.55983 0.682664 8.57415C0.688333 8.59705 0.699856 8.65836 0.701076 8.6721C0.701314 8.67483 0.70403 8.67957 0.707095 8.68264C0.710167 8.68571 0.712674 8.69639 0.712674 8.70638C0.712674 8.74314 0.7848 8.98094 0.837285 9.11723C0.839643 9.12336 0.842009 9.13006 0.842537 9.13211C0.843065 9.13415 0.850884 9.15215 0.859915 9.17211C0.868947 9.19207 0.876342 9.20971 0.876342 9.21131C0.876342 9.22879 1.02224 9.51408 1.06704 9.58419C1.08081 9.60576 1.09209 9.6248 1.09209 9.62653C1.09209 9.6293 1.11074 9.65717 1.1995 9.78692C1.34291 9.9966 1.63517 10.301 1.81722 10.4303C1.82874 10.4385 1.84902 10.4544 1.86226 10.4656C1.87551 10.4769 1.88968 10.4861 1.89376 10.4861C1.89783 10.4861 1.90508 10.4908 1.90987 10.4966C1.91466 10.5024 1.94604 10.5254 1.9796 10.5477C2.07259 10.6097 2.1049 10.6293 2.1894 10.6747C2.20577 10.6835 2.22083 10.6927 2.22288 10.6951C2.22664 10.6996 2.41685 10.7942 2.42374 10.795C2.42579 10.7952 2.44379 10.8028 2.46374 10.8119C2.4837 10.8209 2.50285 10.8283 2.5063 10.8283C2.50974 10.8283 2.52441 10.8349 2.53888 10.8431C2.55336 10.8512 2.56601 10.8577 2.567 10.8575C2.56905 10.857 2.57486 10.8588 2.63205 10.8775C2.65455 10.8849 2.67631 10.8932 2.6804 10.8959C2.68449 10.8987 2.69945 10.9035 2.71363 10.9065C2.72782 10.9095 2.74456 10.9147 2.75083 10.9179C2.77056 10.9282 2.98735 10.9866 3.0375 10.9952C3.04568 10.9966 3.07413 11.0016 3.10073 11.0064C3.18556 11.0218 3.28813 11.0366 3.36855 11.0453C3.46892 11.0561 3.85682 11.0564 3.94883 11.0457C4.05899 11.0329 4.17988 11.0156 4.21664 11.0075C4.29381 10.9904 4.29258 10.9898 4.39891 11.0971C4.51739 11.2168 4.65048 11.336 4.72593 11.39C4.73736 11.3982 4.7555 11.4118 4.76624 11.4203C4.81761 11.4609 5.05163 11.6094 5.06423 11.6094C5.06792 11.6094 5.07205 11.612 5.07342 11.6151C5.07478 11.6182 5.09431 11.6302 5.11682 11.6419C5.21206 11.6911 5.2716 11.7205 5.30652 11.7357C5.32698 11.7446 5.35427 11.7566 5.36716 11.7625C5.38005 11.7683 5.39396 11.7731 5.39808 11.7731C5.40218 11.7731 5.41842 11.7795 5.43414 11.7873C5.44988 11.7951 5.48451 11.8087 5.51111 11.8175C5.5377 11.8263 5.56616 11.8364 5.57434 11.8399C5.58252 11.8435 5.60931 11.852 5.63386 11.8588C5.65841 11.8657 5.68519 11.874 5.69337 11.8774C5.70972 11.884 5.74955 11.8944 5.82356 11.9114C5.9525 11.9409 6.03672 11.9568 6.11742 11.9667C6.15015 11.9708 6.18698 11.9758 6.19925 11.9778C6.21153 11.9799 6.25003 11.9834 6.28481 11.9856C6.31958 11.9878 6.36478 11.9915 6.38524 11.9937C6.44746 12.0004 6.66744 12.0025 6.67538 11.9964C6.67947 11.9933 6.72634 11.9888 6.77953 11.9865C6.83272 11.9841 6.88461 11.9805 6.89484 11.9783C6.90507 11.9762 6.94022 11.971 6.97295 11.9668C7.08053 11.953 7.21902 11.9271 7.28913 11.9077C7.30345 11.9037 7.33023 11.8966 7.34864 11.8919C7.36706 11.8873 7.38882 11.8808 7.397 11.8775C7.41765 11.8693 7.61744 11.8031 7.63229 11.7995C7.63894 11.7979 7.65968 11.7897 7.67837 11.7811C7.69706 11.7726 7.71397 11.7657 7.71594 11.7657C7.72279 11.7657 7.83641 11.7125 7.92148 11.6694C8.0252 11.617 8.06941 11.5924 8.16793 11.5324C8.19915 11.5134 8.22885 11.4928 8.23394 11.4867C8.23903 11.4805 8.24611 11.4755 8.24968 11.4755C8.25703 11.4755 8.42447 11.352 8.4652 11.3165C8.47987 11.3037 8.50665 11.2816 8.52471 11.2674C8.56833 11.2331 8.79506 11.0064 8.83693 10.9553C8.85512 10.9331 8.88026 10.903 8.89281 10.8884C8.92288 10.8533 8.98247 10.7747 9.01431 10.728C9.02832 10.7075 9.04195 10.689 9.04456 10.6869C9.04719 10.6849 9.05743 10.6698 9.06731 10.6535C9.07719 10.6371 9.08796 10.6204 9.09123 10.6163C9.13243 10.5648 9.33497 10.1811 9.33497 10.1545C9.33497 10.1523 9.34185 10.1348 9.35026 10.1156C9.37441 10.0604 9.37729 10.0531 9.39056 10.0137C9.39745 9.99322 9.40583 9.96979 9.40919 9.9616C9.41256 9.95342 9.41926 9.93618 9.42409 9.92329C9.43077 9.90548 9.43853 9.8989 9.45646 9.89585C9.49528 9.88926 9.57404 9.87051 9.61767 9.85748C9.6594 9.84502 9.68027 9.83899 9.73298 9.82419C9.74935 9.81959 9.76943 9.813 9.77762 9.80953C9.7858 9.80607 9.80923 9.79754 9.82969 9.79058C9.85015 9.78362 9.87744 9.77323 9.89033 9.76748C9.90322 9.76173 9.9175 9.75702 9.92205 9.75702C9.92661 9.75702 9.93614 9.75382 9.94325 9.74991C9.96508 9.73789 10.0573 9.6975 10.0629 9.6975C10.0686 9.6975 10.2299 9.61623 10.2909 9.58261C10.3728 9.53749 10.6072 9.38519 10.6294 9.36268C10.6315 9.3606 10.6666 9.33244 10.7075 9.3001C10.8492 9.18817 11.1077 8.91783 11.2381 8.74526C11.2688 8.70475 11.3757 8.54107 11.4118 8.47945C11.4616 8.39442 11.559 8.20321 11.5813 8.14638C11.591 8.12183 11.605 8.08835 11.6124 8.07199C11.6646 7.95738 11.7368 7.71829 11.7753 7.53263C11.783 7.49545 11.7899 7.45605 11.8013 7.38417C11.8126 7.31303 11.8216 7.22308 11.8249 7.1495C11.8269 7.10449 11.8314 7.0642 11.8349 7.05996C11.8427 7.05052 11.8422 6.81765 11.8344 6.80728C11.8313 6.80319 11.827 6.76469 11.8248 6.72173C11.8214 6.65331 11.8125 6.56683 11.8016 6.49483C11.7866 6.39606 11.772 6.31906 11.76 6.27537C11.7561 6.26104 11.7464 6.22255 11.7384 6.18981C11.7131 6.08623 11.707 6.06372 11.7006 6.04846C11.6972 6.04028 11.6836 6.00011 11.6705 5.95919C11.6574 5.91827 11.6443 5.88145 11.6414 5.87736C11.6385 5.87326 11.6284 5.84816 11.6188 5.82156C11.5942 5.753 11.52 5.59396 11.464 5.48968C11.4007 5.3719 11.2566 5.15349 11.1916 5.07674C11.1791 5.06194 11.1604 5.03859 11.1502 5.02486C11.14 5.01114 11.1157 4.98221 11.0963 4.96057C11.0756 4.9376 11.0609 4.91407 11.0609 4.90403C11.0609 4.89456 11.0695 4.85861 11.08 4.82413C11.0905 4.78965 11.1057 4.73466 11.1137 4.70193C11.1217 4.66919 11.1312 4.63069 11.1349 4.61637C11.1385 4.60205 11.1437 4.57527 11.1465 4.55686C11.1492 4.53845 11.1543 4.51166 11.1578 4.49734C11.1613 4.48302 11.1693 4.43448 11.1756 4.38947C11.2171 4.09106 11.2172 3.83101 11.1757 3.53394C11.1695 3.48893 11.1614 3.44039 11.1579 3.42606C11.1522 3.40316 11.1407 3.34185 11.1395 3.32811C11.1392 3.32539 11.1365 3.32064 11.1335 3.31758C11.1304 3.3145 11.1279 3.30382 11.1279 3.29383C11.1279 3.25708 11.0557 3.01928 11.0033 2.88299C11.0009 2.87685 10.9985 2.87015 10.998 2.86811C10.9975 2.86606 10.9897 2.84806 10.9806 2.82811C10.9716 2.80815 10.9642 2.79058 10.9642 2.78907C10.9642 2.7715 10.8183 2.48595 10.7736 2.41615C10.7598 2.39452 10.7485 2.37541 10.7485 2.37368C10.7485 2.37091 10.7298 2.34305 10.6411 2.21329C10.4976 2.00361 10.2054 1.69922 10.0233 1.56993C10.0118 1.56174 9.99153 1.54585 9.97829 1.53459C9.96504 1.52334 9.95087 1.51413 9.94679 1.51413C9.94272 1.51413 9.93547 1.50941 9.93067 1.50363C9.92588 1.49786 9.89451 1.47484 9.86095 1.45248C9.76795 1.39051 9.73565 1.37096 9.65115 1.32554C9.63478 1.31675 9.61971 1.30764 9.61767 1.30532C9.61365 1.30075 9.42299 1.2056 9.41682 1.20508C9.41477 1.20491 9.39676 1.19738 9.3768 1.18834C9.35684 1.17931 9.3377 1.17192 9.33425 1.17192C9.3308 1.17192 9.31614 1.16527 9.30166 1.15714C9.28719 1.149 9.27373 1.14222 9.27176 1.14206C9.26102 1.14116 9.1682 1.10975 9.16014 1.10429C9.15605 1.10151 9.1411 1.09676 9.12691 1.09371C9.11272 1.09068 9.09599 1.08568 9.08971 1.08261C9.06653 1.07127 8.84703 1.01206 8.79933 1.00428C8.7891 1.00261 8.76232 0.997917 8.73982 0.99384C8.67427 0.981967 8.5023 0.957246 8.44968 0.952127C8.36622 0.944018 7.96569 0.945633 7.89172 0.954389C7.77801 0.967839 7.65998 0.984742 7.6239 0.992739C7.55031 1.00905 7.54249 1.00635 7.48195 0.943624C7.40945 0.868508 7.28747 0.751917 7.24077 0.713113C7.13162 0.622397 7.10546 0.60112 7.09102 0.591278C6.89691 0.459079 6.78957 0.390778 6.7759 0.390778C6.77244 0.390778 6.76849 0.388234 6.76713 0.385131C6.76576 0.382029 6.74624 0.36997 6.72373 0.358342C6.62849 0.30913 6.56895 0.279685 6.53403 0.264516C6.51357 0.255626 6.48628 0.243574 6.47339 0.237734C6.4605 0.231887 6.44835 0.22711 6.4464 0.22711C6.44445 0.22711 6.42989 0.221456 6.41404 0.214545C6.3982 0.207634 6.38356 0.201482 6.38152 0.200879C6.37947 0.200276 6.37278 0.197933 6.36664 0.195671C6.3605 0.193402 6.33874 0.185903 6.31828 0.179C6.29782 0.172088 6.27439 0.16366 6.26621 0.160252C6.22791 0.144332 6.06669 0.0991448 5.98723 0.0820564C5.95654 0.0754577 5.91804 0.0668875 5.90168 0.063019C5.86089 0.0533626 5.79414 0.0423374 5.72313 0.0335291C5.6904 0.0294671 5.65357 0.0244604 5.6413 0.0223997C5.62902 0.0203464 5.59052 0.016835 5.55574 0.0146032C5.52096 0.0123713 5.47577 0.00877065 5.45531 0.0065909C5.38952 -0.000409604 5.16919 -0.00257448 5.16528 0.00374904ZM5.46275 0.785797C5.47093 0.785655 5.51445 0.790647 5.55946 0.796904C5.60447 0.80316 5.65134 0.809536 5.66361 0.811083C5.71832 0.817965 5.9056 0.860838 5.93887 0.874103C5.94706 0.877361 5.98221 0.88913 6.01699 0.90026C6.05177 0.911382 6.09194 0.925509 6.10626 0.931647C6.12058 0.937792 6.13899 0.945595 6.14718 0.948988C6.24638 0.99018 6.35552 1.04313 6.40212 1.07267C6.42368 1.08634 6.44325 1.09752 6.44561 1.09752C6.45297 1.09752 6.57587 1.1803 6.63818 1.22722C6.71723 1.28677 6.72373 1.2926 6.72373 1.304C6.72373 1.30935 6.71787 1.31587 6.71071 1.31848C6.70356 1.32109 6.68096 1.33375 6.6605 1.3466C6.64004 1.35945 6.61778 1.37204 6.61103 1.37458C6.60428 1.3771 6.57168 1.39615 6.53858 1.4169C6.50547 1.43764 6.47662 1.45462 6.47446 1.45462C6.47229 1.45462 6.44848 1.46801 6.42154 1.48437C6.3946 1.50074 6.37117 1.51413 6.36947 1.51413C6.36778 1.51413 6.34217 1.5288 6.31258 1.54674C6.25673 1.58059 6.13467 1.65148 6.0765 1.68385C6.05809 1.6941 6.03131 1.70973 6.01699 1.71858C6.00267 1.72743 5.98593 1.73699 5.97979 1.73981C5.97365 1.74264 5.95189 1.75515 5.93143 1.76762C5.91097 1.7801 5.88503 1.79417 5.87378 1.79891C5.86252 1.80365 5.85332 1.81015 5.85332 1.81334C5.85332 1.81654 5.85003 1.81915 5.84601 1.81915C5.84199 1.81915 5.81772 1.83197 5.79208 1.84766C5.76643 1.86334 5.73038 1.88459 5.71197 1.8949C5.63336 1.93889 5.37284 2.08918 5.36604 2.09447C5.36194 2.09766 5.34018 2.11021 5.31768 2.12236C5.26027 2.15338 5.23454 2.1682 5.15492 2.2161C5.11655 2.23919 5.08406 2.25807 5.08271 2.25807C5.08137 2.25807 5.06255 2.26859 5.04089 2.28146C4.94504 2.33837 4.72848 2.46318 4.71881 2.46709C4.71471 2.46874 4.68626 2.48484 4.65557 2.50287C4.62488 2.52089 4.5596 2.55918 4.5105 2.58795C4.4614 2.61672 4.39684 2.65471 4.36703 2.67235C4.33722 2.69 4.31133 2.70444 4.30949 2.70444C4.30764 2.70444 4.28852 2.71498 4.26697 2.72787C4.17491 2.78293 4.10102 2.89058 4.0835 2.99519C4.07769 3.02987 4.0753 3.53824 4.0753 4.73787C4.0753 5.66942 4.07351 6.43159 4.07133 6.43159C4.06368 6.43159 3.98937 6.39213 3.95143 6.36791C3.91358 6.34375 3.82741 6.29402 3.74796 6.25046C3.72546 6.23812 3.68963 6.21692 3.66834 6.20334C3.64706 6.18976 3.62787 6.17865 3.6257 6.17865C3.62353 6.17865 3.59987 6.16526 3.57313 6.1489C3.5464 6.13253 3.52305 6.11914 3.52127 6.11914C3.51947 6.11914 3.47921 6.0957 3.43179 6.06706C3.38436 6.03842 3.34397 6.01499 3.34203 6.01499C3.34009 6.01499 3.32601 6.00715 3.31075 5.99757C3.29549 5.98799 3.26793 5.97177 3.24952 5.96152C3.15545 5.90916 3.06579 5.85595 3.05397 5.84545C3.04127 5.83417 3.04081 5.7658 3.04362 4.31554C3.04572 3.23113 3.04897 2.78362 3.05499 2.74908C3.05962 2.72248 3.06652 2.68231 3.07034 2.6598C3.07415 2.6373 3.07938 2.60717 3.08197 2.59285C3.08955 2.55082 3.11637 2.44311 3.12827 2.40686C3.13432 2.38845 3.14046 2.36836 3.14191 2.36223C3.16753 2.25406 3.27667 2.01226 3.36489 1.86821C3.46656 1.70222 3.56192 1.58107 3.69949 1.44312C3.91321 1.22884 4.1075 1.09588 4.40263 0.961977C4.46171 0.935173 4.59934 0.885291 4.65557 0.870301C4.66171 0.868672 4.68012 0.86362 4.69649 0.85909C4.74714 0.845074 4.87375 0.817042 4.91102 0.811596C4.92396 0.809707 4.95966 0.804373 4.99035 0.799746C5.09223 0.784383 5.20099 0.778759 5.32512 0.782434C5.39263 0.784428 5.45457 0.785945 5.46275 0.785797ZM8.4162 1.73202C8.52635 1.74711 8.65332 1.76942 8.6989 1.78169C8.79241 1.80686 8.85769 1.82576 8.87745 1.83339C8.88563 1.83656 8.91074 1.84503 8.93324 1.85222C8.95575 1.85942 8.98588 1.87032 9.0002 1.87646C9.01452 1.8826 9.03293 1.89044 9.04111 1.89389C9.0493 1.89734 9.07273 1.90751 9.09319 1.91649C9.11365 1.92547 9.13112 1.93253 9.13202 1.93221C9.13636 1.93061 9.29565 2.01695 9.34613 2.04825C9.55443 2.17741 9.76523 2.35748 9.89681 2.51863C9.92339 2.5512 10.0303 2.69328 10.0395 2.70841C10.0445 2.71645 10.0714 2.75986 10.0995 2.80487C10.1482 2.88321 10.2425 3.06714 10.2539 3.10617C10.2568 3.1164 10.2618 3.12812 10.2649 3.13221C10.2713 3.14067 10.3307 3.3121 10.3409 3.35167C10.3778 3.49386 10.3962 3.58699 10.4145 3.72364C10.4254 3.80527 10.4254 4.13271 10.4145 4.21464C10.3984 4.33521 10.3948 4.3523 10.3859 4.35051C10.381 4.34954 10.3551 4.33531 10.3283 4.31889C10.3015 4.30247 10.2762 4.28904 10.2722 4.28904C10.2682 4.28904 10.2649 4.28643 10.2649 4.28323C10.2649 4.28004 10.2557 4.27355 10.2444 4.26882C10.2229 4.25977 10.1662 4.22801 10.1067 4.19166C10.0872 4.17975 10.0696 4.17001 10.0676 4.17001C10.0655 4.17001 10.0341 4.15159 9.99773 4.12909C9.96135 4.10659 9.9297 4.08817 9.92739 4.08817C9.9251 4.08817 9.89285 4.06976 9.85573 4.04726C9.81862 4.02475 9.78679 4.00634 9.785 4.00634C9.7832 4.00634 9.75737 3.9918 9.7276 3.97405C9.57925 3.88555 9.54389 3.86499 9.53996 3.86499C9.5376 3.86499 9.50896 3.84825 9.47632 3.82779C9.44368 3.80734 9.41479 3.7906 9.41213 3.7906C9.40947 3.7906 9.39018 3.78002 9.36927 3.7671C9.34836 3.75418 9.31284 3.73352 9.29033 3.7212C9.26783 3.70887 9.22351 3.68262 9.19184 3.66286C9.16017 3.6431 9.13262 3.62693 9.1306 3.62693C9.12858 3.62693 9.10505 3.61354 9.07831 3.59717C9.05157 3.5808 9.0282 3.56741 9.02637 3.56741C9.02454 3.56741 8.99267 3.549 8.95556 3.5265C8.91844 3.50399 8.88693 3.48558 8.88552 3.48558C8.88411 3.48558 8.84154 3.46162 8.79093 3.43234C8.74031 3.40305 8.68718 3.37258 8.67286 3.36461C8.65854 3.35664 8.62004 3.33431 8.58731 3.31499C8.4761 3.24934 8.41627 3.21478 8.3844 3.19776C8.36691 3.18843 8.33511 3.16966 8.31373 3.15605C8.29235 3.14244 8.26901 3.1291 8.26186 3.12642C8.2547 3.12373 8.23036 3.1097 8.20777 3.09525C8.18518 3.0808 8.16476 3.06897 8.16241 3.06897C8.16005 3.06897 8.12804 3.05056 8.09128 3.02806C8.05452 3.00555 8.02296 2.98714 8.02117 2.98714C8.01937 2.98714 8.00541 2.97933 7.99014 2.96979C7.93997 2.93842 7.88095 2.90796 7.85824 2.9017C7.84597 2.89832 7.82923 2.89365 7.82105 2.89132C7.80137 2.88572 7.6699 2.88563 7.64622 2.8912C7.60379 2.90118 7.52998 2.93702 7.43048 2.99595C7.34723 3.04526 7.15097 3.15938 7.10314 3.18631C7.08473 3.19667 7.02949 3.22867 6.98039 3.25742C6.93129 3.28617 6.88108 3.31502 6.8688 3.32153C6.85653 3.32804 6.82596 3.34586 6.80087 3.36112C6.77579 3.37638 6.75369 3.38887 6.75177 3.38887C6.74986 3.38887 6.71774 3.40728 6.68041 3.42978C6.64308 3.45229 6.6091 3.4707 6.6049 3.4707C6.6007 3.4707 6.59723 3.47321 6.5972 3.47628C6.59717 3.47935 6.58964 3.48542 6.58046 3.48977C6.57129 3.49412 6.51859 3.52397 6.46335 3.55611C6.31279 3.64369 6.13387 3.74596 6.1312 3.74596C6.1299 3.74596 6.10786 3.75879 6.08222 3.77447C6.0447 3.7974 5.81181 3.93259 5.70825 3.99156C5.69597 3.99854 5.66821 4.01477 5.64655 4.02762C5.62488 4.04046 5.6056 4.05098 5.60369 4.05098C5.60178 4.05098 5.57314 4.06795 5.54004 4.08869C5.50695 4.10943 5.47435 4.12867 5.46759 4.13146C5.45427 4.13696 5.38548 4.17685 5.27101 4.24546C5.23103 4.26943 5.19665 4.28904 5.19462 4.28904C5.19258 4.28904 5.1776 4.29744 5.16133 4.30771C5.14506 4.31799 5.11417 4.33603 5.09267 4.34781C5.07117 4.35959 5.01508 4.39166 4.96803 4.41908C4.92097 4.4465 4.86406 4.4792 4.84156 4.49175C4.81905 4.5043 4.78892 4.52182 4.7746 4.53068C4.76028 4.53954 4.74354 4.54903 4.7374 4.55178C4.73127 4.55452 4.71977 4.56097 4.71186 4.56611C4.67118 4.59252 4.62967 4.61637 4.62436 4.61637C4.61647 4.61637 4.6168 3.44007 4.62468 3.42763C4.62984 3.41951 4.67444 3.39209 4.80856 3.31458C4.82109 3.30733 4.87611 3.27548 4.93083 3.2438C4.98555 3.21211 5.04224 3.17957 5.05682 3.17147C5.07141 3.16336 5.10219 3.14535 5.12523 3.13145C5.14827 3.11754 5.16893 3.10617 5.17114 3.10617C5.17335 3.10617 5.20136 3.09002 5.2334 3.07028C5.26543 3.05054 5.29666 3.0321 5.3028 3.0293C5.30894 3.0265 5.324 3.01804 5.33628 3.01051C5.36169 2.99491 5.64629 2.8309 5.69709 2.80257C5.7155 2.79231 5.74306 2.77607 5.75832 2.76649C5.77358 2.75691 5.78775 2.74908 5.78981 2.74908C5.79186 2.74908 5.81452 2.73625 5.84017 2.72057C5.86582 2.70489 5.90186 2.68355 5.92027 2.67316C5.93869 2.66276 6.00397 2.62479 6.06534 2.58877C6.12672 2.55276 6.18698 2.51795 6.19925 2.51142C6.21153 2.5049 6.2421 2.48707 6.26718 2.47181C6.29227 2.45654 6.3148 2.44406 6.31725 2.44406C6.3197 2.44406 6.33935 2.43288 6.36092 2.41922C6.38248 2.40555 6.41853 2.38418 6.44103 2.37173C6.4899 2.34468 6.59984 2.28109 6.65678 2.24694C6.67928 2.23343 6.70941 2.21587 6.72373 2.2079C6.73805 2.19993 6.78157 2.17504 6.82044 2.15258C6.85932 2.13014 6.90953 2.10147 6.93204 2.08888C6.95454 2.07629 7.00978 2.04469 7.05479 2.01864C7.09979 1.9926 7.14834 1.96578 7.16266 1.95905C7.26482 1.91103 7.32253 1.88585 7.37096 1.86817C7.40165 1.85696 7.43847 1.84346 7.4528 1.83816C7.53088 1.80924 7.6578 1.77659 7.77513 1.75526C7.80092 1.75056 7.8912 1.73714 7.9438 1.73018C7.99428 1.72349 8.36448 1.72494 8.4162 1.73202ZM2.26008 4.38614C2.26008 5.68514 2.26123 5.82746 2.27217 5.87589C2.30232 6.00938 2.36952 6.08547 2.53905 6.17806C2.5636 6.19146 2.6021 6.21339 2.62461 6.22677C2.64711 6.24015 2.699 6.27036 2.73992 6.29389C2.78084 6.31742 2.84151 6.353 2.87475 6.37297C2.90799 6.39294 2.93744 6.40928 2.9402 6.40928C2.94296 6.40928 2.96313 6.42073 2.98503 6.43474C3.02258 6.45876 3.10174 6.5046 3.18081 6.5481C3.21687 6.56794 3.2409 6.582 3.37448 6.66135C3.41661 6.68637 3.45253 6.70685 3.45432 6.70685C3.4561 6.70685 3.47854 6.71963 3.50419 6.73523C3.52984 6.75084 3.55584 6.76588 3.56198 6.76867C3.56811 6.77144 3.57816 6.77698 3.58429 6.78099C3.6109 6.79834 3.69646 6.8482 3.6996 6.8482C3.70151 6.8482 3.72494 6.86159 3.75168 6.87796C3.77842 6.89433 3.80197 6.90772 3.80402 6.90772C3.80606 6.90772 3.83473 6.92446 3.86771 6.94491C3.9007 6.96537 3.92935 6.98211 3.93139 6.98211C3.93567 6.98211 4.0495 7.04843 4.1442 7.10609C4.18005 7.12792 4.21149 7.14578 4.21407 7.14578C4.21664 7.14578 4.23996 7.15917 4.26587 7.17554C4.29179 7.1919 4.31485 7.20529 4.31712 7.20529C4.31939 7.20529 4.35147 7.22371 4.38841 7.24621C4.42534 7.26872 4.45699 7.28713 4.45872 7.28713C4.46046 7.28713 4.48376 7.30052 4.5105 7.31689C4.53724 7.33325 4.56042 7.34664 4.56201 7.34664C4.56441 7.34664 4.65473 7.39931 4.71137 7.43373C4.71955 7.43871 4.73127 7.4452 4.7374 7.44816C4.74354 7.45112 4.76954 7.46632 4.79519 7.48193C4.82084 7.49754 4.84337 7.51031 4.84528 7.51031C4.84718 7.51031 4.87062 7.5237 4.89735 7.54007C4.92409 7.55643 4.94764 7.56983 4.94969 7.56983C4.95173 7.56983 4.9804 7.58656 5.01338 7.60702C5.04637 7.62748 5.07518 7.64422 5.07741 7.64422C5.07963 7.64422 5.10627 7.65929 5.1366 7.6777C5.16692 7.69611 5.19311 7.71118 5.1948 7.71118C5.19648 7.71118 5.23341 7.73273 5.27684 7.75907C5.32029 7.78541 5.3598 7.80843 5.36465 7.81022C5.37057 7.8124 5.37102 7.81604 5.36604 7.82127C5.35963 7.828 5.14157 7.95624 5.05358 8.00502C5.03721 8.01409 5.0061 8.03204 4.98444 8.04489C4.96277 8.05775 4.9436 8.06827 4.9418 8.06827C4.94002 8.06827 4.92015 8.08004 4.89766 8.09442C4.87518 8.10881 4.84917 8.12391 4.83987 8.12799C4.83057 8.13207 4.81291 8.14164 4.80064 8.14926C4.75744 8.17607 4.53431 8.30633 4.53157 8.30633C4.53005 8.30633 4.51549 8.31474 4.49922 8.325C4.48295 8.33528 4.45206 8.35327 4.43056 8.36501C4.40906 8.37674 4.38058 8.39261 4.36726 8.40027L4.34306 8.4142L4.30031 8.39127C4.2768 8.37865 4.21906 8.34571 4.17201 8.31806C4.12495 8.29041 4.06804 8.25749 4.04554 8.2449C4.02303 8.23231 3.98286 8.2087 3.95626 8.19242C3.92967 8.17614 3.89117 8.15372 3.87071 8.14259C3.81752 8.11366 3.79294 8.09963 3.68845 8.0386C3.6373 8.00872 3.58059 7.97615 3.56242 7.96621C3.54425 7.95628 3.50497 7.93333 3.47513 7.91522C3.4453 7.8971 3.41911 7.88228 3.41695 7.88228C3.41479 7.88228 3.38595 7.86531 3.35285 7.84457C3.31976 7.82383 3.28716 7.80458 3.2804 7.80179C3.26774 7.79657 3.19712 7.75579 3.10239 7.699C3.07262 7.68114 3.04679 7.66654 3.04499 7.66654C3.0432 7.66654 3.01138 7.64813 2.97426 7.62562C2.93715 7.60312 2.90534 7.5847 2.90359 7.5847C2.90183 7.5847 2.87003 7.56629 2.83291 7.54379C2.7958 7.52128 2.76381 7.50287 2.76183 7.50287C2.75984 7.50287 2.74574 7.49503 2.73047 7.48545C2.71521 7.47586 2.68431 7.45775 2.6618 7.4452C2.6393 7.43265 2.58239 7.39995 2.53533 7.37253C2.48828 7.34512 2.43304 7.31338 2.41258 7.30201C2.39213 7.29063 2.33689 7.25873 2.28983 7.23112C2.24278 7.2035 2.1775 7.1659 2.14476 7.14756C2.11203 7.12923 2.07686 7.10877 2.06662 7.1021C2.02968 7.07807 2.01804 7.07124 2.00262 7.06452C1.994 7.06076 1.96822 7.0457 1.94532 7.03105C1.92243 7.01641 1.90176 7.00443 1.8994 7.00443C1.8913 7.00443 1.7447 6.90682 1.68436 6.86125C1.37408 6.62691 1.11349 6.29653 0.972824 5.95919C0.911664 5.81251 0.890633 5.75024 0.854708 5.60954C0.771617 5.28407 0.76507 4.9241 0.835968 4.57918C0.84953 4.51319 0.881839 4.39426 0.890596 4.37807C0.893995 4.37179 0.899292 4.35517 0.90238 4.34111C0.905467 4.32706 0.910734 4.31043 0.914089 4.30416C0.917445 4.29789 0.926714 4.27435 0.934682 4.25184C0.984548 4.111 1.10926 3.88248 1.21686 3.7348C1.321 3.59185 1.46944 3.43243 1.59091 3.33306C1.77896 3.17922 1.96136 3.06925 2.18196 2.9767C2.19424 2.97155 2.21265 2.96365 2.22288 2.95914C2.23311 2.95464 2.24567 2.95072 2.25078 2.95045C2.25819 2.95005 2.26008 3.24187 2.26008 4.38614ZM7.54579 3.61108C7.56625 3.62267 7.62148 3.65472 7.66854 3.68229C7.71559 3.70986 7.7725 3.74272 7.79501 3.75531C7.81751 3.7679 7.85769 3.79151 7.88428 3.80779C7.91088 3.82407 7.94938 3.8465 7.96984 3.85762C8.02303 3.88656 8.04761 3.90058 8.1521 3.96161C8.20325 3.99149 8.25996 4.02406 8.27812 4.034C8.2963 4.04393 8.33557 4.06688 8.36541 4.085C8.39525 4.10311 8.42144 4.11793 8.4236 4.11793C8.42575 4.11793 8.4546 4.1349 8.48769 4.15564C8.52078 4.17638 8.55339 4.19563 8.56015 4.19842C8.57281 4.20364 8.64343 4.24442 8.73816 4.30122C8.76793 4.31907 8.79376 4.33367 8.79555 4.33367C8.79734 4.33367 8.82917 4.35209 8.86629 4.37459C8.9034 4.3971 8.93521 4.41551 8.93696 4.41551C8.93872 4.41551 8.97052 4.43392 9.00764 4.45643C9.04475 4.47893 9.07673 4.49734 9.07872 4.49734C9.08071 4.49734 9.09481 4.50518 9.11008 4.51477C9.12533 4.52435 9.15624 4.54246 9.17874 4.55501C9.20125 4.56756 9.25816 4.60026 9.30521 4.62768C9.35227 4.6551 9.4075 4.68683 9.42796 4.69821C9.44842 4.70958 9.50366 4.74148 9.55071 4.7691C9.59777 4.79671 9.66144 4.83346 9.6922 4.85074C9.72297 4.86803 9.76716 4.89435 9.79042 4.90923C9.81367 4.9241 9.83537 4.93645 9.83863 4.93667C9.8419 4.93689 9.87637 4.9569 9.91525 4.98114C9.95412 5.00538 9.99596 5.03038 10.0082 5.03669C10.0205 5.04299 10.0596 5.06902 10.0951 5.09451C10.3536 5.28022 10.5715 5.51186 10.7265 5.76576C10.7599 5.8205 10.8491 5.99337 10.8666 6.03748C10.8723 6.05171 10.881 6.07339 10.8861 6.08566C10.9318 6.19721 10.9529 6.2616 10.9858 6.39068C11.0188 6.51994 11.0207 6.5305 11.0414 6.70313C11.0611 6.86711 11.0537 7.12588 11.0238 7.31689C11.0088 7.41281 10.9648 7.59474 10.95 7.62215C10.9466 7.62842 10.9413 7.64505 10.9382 7.6591C10.9351 7.67315 10.9298 7.68978 10.9265 7.69605C10.9231 7.70232 10.9138 7.72587 10.9059 7.74837C10.8727 7.84192 10.7999 7.98824 10.7248 8.11215C10.6734 8.19679 10.5804 8.32908 10.5463 8.36584C10.5368 8.37607 10.52 8.39616 10.509 8.41048C10.4704 8.46074 10.3199 8.60965 10.2496 8.66716C10.0816 8.80459 9.88895 8.92448 9.7181 8.99791C9.69764 9.00669 9.67421 9.0169 9.66602 9.02059C9.63457 9.03475 9.59325 9.05027 9.587 9.05027C9.58328 9.05027 9.58047 8.43338 9.58047 7.61407C9.58047 6.31508 9.57932 6.17275 9.56838 6.12432C9.53823 5.99084 9.47102 5.91475 9.30149 5.82216C9.27694 5.80875 9.23844 5.78683 9.21594 5.77344C9.19344 5.76006 9.14155 5.72985 9.10063 5.70632C9.05971 5.68279 8.99904 5.64721 8.9658 5.62724C8.93256 5.60728 8.9031 5.59094 8.90034 5.59094C8.89758 5.59094 8.87742 5.57948 8.85551 5.56547C8.81797 5.54145 8.7388 5.49562 8.65974 5.45211C8.62368 5.43227 8.59965 5.41822 8.46607 5.33887C8.42394 5.31384 8.38801 5.29336 8.38623 5.29336C8.38444 5.29336 8.362 5.28059 8.33636 5.26498C8.31071 5.24937 8.28471 5.23433 8.27857 5.23155C8.27243 5.22877 8.26239 5.22323 8.25625 5.21923C8.22965 5.20188 8.14409 5.15201 8.14094 5.15201C8.13904 5.15201 8.1156 5.13862 8.08887 5.12225C8.06213 5.10589 8.0386 5.0925 8.03658 5.0925C8.03457 5.0925 8.00314 5.07408 7.96676 5.05158C7.93038 5.02908 7.89871 5.01066 7.89637 5.01066C7.89226 5.01066 7.87244 4.99909 7.70719 4.90028C7.66502 4.87506 7.62855 4.85443 7.62616 4.85443C7.62375 4.85443 7.60059 4.84104 7.57468 4.82468C7.54876 4.80831 7.52595 4.79492 7.52398 4.79492C7.52201 4.79492 7.50268 4.7844 7.48102 4.77154C7.43067 4.74165 7.3081 4.67054 7.27425 4.65159C7.24803 4.63691 7.15681 4.58343 7.12918 4.56654C7.121 4.56154 7.10928 4.55504 7.10314 4.55211C7.09701 4.54918 7.08027 4.53954 7.06595 4.53068C7.05162 4.52182 7.02149 4.5043 6.99899 4.49175C6.97649 4.4792 6.91957 4.4465 6.87252 4.41908C6.82547 4.39166 6.76938 4.35959 6.74788 4.34781C6.72638 4.33603 6.69548 4.31799 6.67921 4.30771C6.66294 4.29744 6.64807 4.28904 6.64616 4.28904C6.64425 4.28904 6.60714 4.26749 6.5637 4.24114C6.52026 4.2148 6.48075 4.19178 6.47589 4.19C6.46998 4.18782 6.46953 4.18417 6.47451 4.17894C6.48092 4.17222 6.69898 4.04398 6.78697 3.9952C6.80333 3.98612 6.83445 3.96818 6.85611 3.95532C6.87777 3.94247 6.89695 3.93195 6.89874 3.93195C6.90053 3.93195 6.92039 3.92018 6.94288 3.90579C6.96537 3.8914 6.99138 3.8763 7.00068 3.87222C7.00998 3.86815 7.02763 3.85857 7.03991 3.85095C7.07943 3.82642 7.30613 3.69388 7.30856 3.69388C7.30986 3.69388 7.33574 3.67882 7.36606 3.66041C7.39639 3.64199 7.42347 3.62693 7.42624 3.62693C7.429 3.62693 7.44359 3.61856 7.45864 3.60833C7.49302 3.58496 7.5001 3.58519 7.54579 3.61108ZM5.93515 4.50478C5.93515 4.50887 5.9384 4.51222 5.94238 4.51222C5.94635 4.51222 5.97565 4.5277 6.00747 4.54662C6.0393 4.56554 6.08208 4.5902 6.10254 4.60142C6.18606 4.64723 6.21503 4.66374 6.23273 4.67561C6.24296 4.68246 6.2915 4.71089 6.3406 4.73879C6.47411 4.81464 6.47388 4.81451 6.58788 4.88148C6.64614 4.91571 6.69525 4.94371 6.69702 4.94371C6.69879 4.94371 6.72734 4.96052 6.76046 4.98106C6.79359 5.00161 6.83821 5.02794 6.85963 5.03957C6.93211 5.07895 7.01105 5.12447 7.15362 5.20911C7.18343 5.22681 7.21105 5.24128 7.21499 5.24128C7.21956 5.24128 7.22215 5.51708 7.22211 5.99825L7.22205 6.75521L7.20538 6.76312C7.1962 6.76747 7.1435 6.79739 7.08826 6.8296C7.03303 6.86181 6.97413 6.89554 6.95738 6.90456C6.94063 6.91356 6.91276 6.92988 6.89544 6.94081C6.87813 6.95174 6.85828 6.963 6.85133 6.96582C6.84438 6.96865 6.81033 6.98796 6.77564 7.00874C6.74095 7.02953 6.67575 7.06771 6.63074 7.09359C6.58573 7.11947 6.52547 7.1546 6.49683 7.17165C6.46819 7.1887 6.40123 7.22726 6.34804 7.25733C6.29485 7.2874 6.24296 7.31764 6.23273 7.32454C6.21505 7.33646 6.18653 7.35272 6.10254 7.39879C6.08208 7.41001 6.0393 7.43467 6.00747 7.45359C5.97565 7.47251 5.94635 7.48799 5.94238 7.48799C5.9384 7.48799 5.93515 7.49134 5.93515 7.49543C5.93515 7.49952 5.92846 7.50287 5.92027 7.50287C5.91209 7.50287 5.90539 7.49952 5.90539 7.49543C5.90539 7.49134 5.90214 7.48799 5.89817 7.48799C5.8942 7.48799 5.8649 7.47251 5.83308 7.45359C5.80124 7.43467 5.75847 7.41001 5.73801 7.39879C5.65449 7.35298 5.62552 7.33647 5.60782 7.32461C5.59759 7.31776 5.54905 7.28932 5.49995 7.26142C5.36644 7.18557 5.36667 7.1857 5.25267 7.11874C5.19441 7.08451 5.14523 7.05651 5.14339 7.05651C5.14154 7.05651 5.10782 7.03642 5.06846 7.01187C5.0291 6.98732 4.99502 6.96723 4.99273 6.96723C4.99044 6.96723 4.96805 6.95475 4.94296 6.93948C4.91788 6.92423 4.88731 6.90647 4.87503 6.90004C4.86276 6.8936 4.80752 6.86195 4.75228 6.82969C4.69705 6.79743 4.64434 6.76747 4.63517 6.76312L4.61849 6.75521L4.61843 5.99825C4.6184 5.51692 4.62099 5.24128 4.62555 5.24128C4.6295 5.24128 4.66309 5.22287 4.70021 5.20037C4.73732 5.17786 4.76919 5.15945 4.77102 5.15945C4.77285 5.15945 4.79532 5.14663 4.82096 5.13094C4.86847 5.10189 4.91138 5.07739 4.98092 5.03958C5.00234 5.02794 5.04696 5.00161 5.08009 4.98106C5.11321 4.96052 5.14209 4.94371 5.14427 4.94371C5.14645 4.94371 5.17715 4.92658 5.21249 4.90565C5.31615 4.84426 5.40459 4.79291 5.49995 4.73876C5.54905 4.71088 5.59759 4.68246 5.60782 4.67561C5.62552 4.66374 5.65449 4.64723 5.73801 4.60142C5.75847 4.5902 5.80124 4.56554 5.83308 4.54662C5.8649 4.5277 5.8942 4.51222 5.89817 4.51222C5.90214 4.51222 5.90539 4.50887 5.90539 4.50478C5.90539 4.50069 5.91209 4.49734 5.92027 4.49734C5.92846 4.49734 5.93515 4.50069 5.93515 4.50478ZM7.81161 5.58809C7.83273 5.59879 7.87531 5.62323 7.90621 5.6424C7.93711 5.66155 7.99755 5.69685 8.04051 5.72083C8.08347 5.74482 8.13946 5.77729 8.16493 5.793C8.19041 5.80871 8.21295 5.82156 8.21502 5.82156C8.2171 5.82156 8.24068 5.83495 8.26741 5.85132C8.29415 5.86768 8.3175 5.88108 8.31928 5.88108C8.32107 5.88108 8.36134 5.90451 8.40876 5.93315C8.45619 5.96179 8.49658 5.98523 8.49852 5.98523C8.50046 5.98523 8.51454 5.99306 8.5298 6.00264C8.54506 6.01223 8.57262 6.02844 8.59103 6.0387C8.68502 6.09101 8.77475 6.14426 8.78655 6.15474C8.7992 6.16597 8.79971 6.23589 8.79761 7.67721C8.79554 9.09625 8.79458 9.19332 8.78181 9.27717C8.76983 9.35582 8.7653 9.38039 8.76152 9.38698C8.76096 9.38796 8.75601 9.41053 8.75052 9.43712C8.72789 9.54679 8.70358 9.63564 8.68028 9.69378C8.677 9.70197 8.66674 9.73042 8.65748 9.75702C8.63546 9.82027 8.62096 9.8534 8.56633 9.96532C8.37023 10.3671 8.03622 10.7179 7.64127 10.9368C7.53958 10.9932 7.42944 11.0451 7.3598 11.0695C7.33934 11.0767 7.31758 11.0851 7.31145 11.0881C7.30531 11.0912 7.2802 11.0997 7.25565 11.1069C7.2311 11.1142 7.19762 11.1245 7.18126 11.1297C7.13276 11.1452 7.0942 11.1556 7.05665 11.1633C7.03721 11.1673 7.00595 11.1738 6.98718 11.1778C6.96841 11.1819 6.94247 11.1868 6.92953 11.1887C6.91658 11.1906 6.88424 11.1956 6.85764 11.1997C6.68665 11.2261 6.42667 11.2265 6.25505 11.2005C6.22436 11.1959 6.18921 11.1908 6.17693 11.1892C6.16466 11.1876 6.13788 11.1827 6.11742 11.1784C6.09696 11.1741 6.06181 11.167 6.0393 11.1628C6.0168 11.1585 5.99002 11.1521 5.97979 11.1485C5.96956 11.1449 5.9411 11.1362 5.91655 11.1292C5.85449 11.1114 5.76535 11.0817 5.73429 11.0685C5.71997 11.0624 5.70155 11.0546 5.69337 11.0512C5.59417 11.01 5.48502 10.9571 5.43843 10.9275C5.41686 10.9139 5.3973 10.9027 5.39494 10.9027C5.38757 10.9027 5.26467 10.8199 5.20237 10.773C5.12332 10.7134 5.11682 10.7076 5.11682 10.6962C5.11682 10.6909 5.12268 10.6843 5.12983 10.6817C5.13699 10.6791 5.15959 10.6665 5.18005 10.6536C5.20051 10.6408 5.22277 10.6282 5.22952 10.6256C5.23626 10.6231 5.26887 10.6041 5.30197 10.5833C5.33507 10.5626 5.36392 10.5456 5.36609 10.5456C5.36825 10.5456 5.39207 10.5322 5.419 10.5158C5.44595 10.4995 5.46938 10.4861 5.47107 10.4861C5.47277 10.4861 5.49838 10.4714 5.52797 10.4535C5.57536 10.4248 5.63386 10.3906 5.76777 10.3135C5.78822 10.3018 5.81333 10.2881 5.82356 10.2832C5.83379 10.2784 5.84383 10.2724 5.84588 10.2699C5.84793 10.2675 5.85462 10.2632 5.86076 10.2604C5.8669 10.2576 5.88866 10.2451 5.90911 10.2326C5.92957 10.2201 5.95551 10.206 5.96677 10.2013C5.97803 10.1966 5.98723 10.1901 5.98723 10.1869C5.98723 10.1837 5.99052 10.1811 5.99453 10.1811C5.99856 10.1811 6.02283 10.1682 6.04847 10.1526C6.07412 10.1369 6.11017 10.1156 6.12858 10.1053C6.20719 10.0613 6.4677 9.91103 6.47451 9.90574C6.4786 9.90256 6.50036 9.89 6.52287 9.87785C6.57434 9.85004 6.60094 9.83479 6.67538 9.79038C6.70811 9.77085 6.74515 9.74907 6.75769 9.74197C6.77022 9.73488 6.82546 9.70301 6.88044 9.67117C6.93541 9.63932 7.0122 9.59528 7.05107 9.57329C7.13213 9.52744 7.12647 9.5307 7.22961 9.47057C7.40401 9.36892 7.50904 9.30806 7.53415 9.29414C7.59985 9.25768 7.61532 9.24629 7.65561 9.20465C7.70645 9.1521 7.74518 9.07588 7.75705 9.00503C7.76286 8.97034 7.76525 8.46198 7.76525 7.26234C7.76525 6.3308 7.76704 5.56862 7.76922 5.56862C7.7714 5.56862 7.79047 5.57738 7.81161 5.58809ZM7.22206 7.97341C7.22199 8.29768 7.2192 8.5673 7.21586 8.57258C7.21034 8.58127 7.11979 8.63632 7.01387 8.69538C6.99137 8.70793 6.95554 8.72931 6.93425 8.74288C6.91297 8.75647 6.89377 8.76757 6.89161 8.76757C6.88944 8.76757 6.86578 8.78096 6.83904 8.79733C6.81231 8.8137 6.78893 8.82709 6.7871 8.82709C6.78527 8.82709 6.75896 8.84215 6.72863 8.86057C6.6983 8.87898 6.67167 8.89404 6.66945 8.89404C6.66721 8.89404 6.63918 8.91019 6.60715 8.92993C6.57511 8.94967 6.54388 8.96811 6.53775 8.97091C6.53161 8.97371 6.51654 8.98214 6.50427 8.98963C6.47398 9.00814 6.28914 9.11512 6.24761 9.13819C6.2292 9.14842 6.20164 9.16462 6.18638 9.17421C6.17112 9.18379 6.15695 9.19162 6.15489 9.19162C6.15284 9.19162 6.12928 9.20501 6.10254 9.22138C6.0758 9.23775 6.05237 9.25114 6.05046 9.25114C6.04856 9.25114 6.02603 9.26396 6.00038 9.27964C5.97473 9.29533 5.93869 9.31666 5.92027 9.32706C5.90186 9.33745 5.83658 9.37542 5.7752 9.41144C5.71383 9.44746 5.65357 9.48226 5.6413 9.48879C5.62902 9.49531 5.59845 9.51315 5.57337 9.5284C5.54828 9.54367 5.52575 9.55615 5.5233 9.55615C5.52084 9.55615 5.5012 9.56733 5.47963 9.58099C5.45807 9.59466 5.42202 9.61601 5.39951 9.62843C5.34491 9.65859 5.17963 9.75484 5.14486 9.77674C5.1296 9.78635 5.11543 9.79421 5.11337 9.79421C5.11132 9.79421 5.08776 9.80761 5.06102 9.82397C5.03428 9.84034 5.01072 9.85373 5.00867 9.85373C5.00661 9.85373 4.99244 9.86157 4.97718 9.87115C4.96192 9.88074 4.93102 9.89885 4.90851 9.9114C4.88601 9.92395 4.8306 9.95544 4.78538 9.98139C4.52519 10.1307 4.27018 10.2173 3.95255 10.2642C3.83257 10.2819 3.4487 10.2769 3.33507 10.2561C3.31461 10.2524 3.27612 10.2456 3.24952 10.2411C3.16967 10.2275 3.01249 10.1868 2.9631 10.167C2.95492 10.1638 2.92981 10.1552 2.90731 10.148C2.8848 10.1408 2.85467 10.1299 2.84035 10.1238C2.82603 10.1176 2.80762 10.1098 2.79943 10.1063C2.79125 10.1029 2.76782 10.0927 2.74736 10.0837C2.7269 10.0747 2.70849 10.0672 2.70644 10.0669C2.70231 10.0664 2.63635 10.0321 2.57064 9.99624C2.46621 9.93932 2.32599 9.84343 2.21562 9.75344C2.14055 9.69224 1.99044 9.54047 1.93273 9.46743C1.91841 9.44932 1.89666 9.4218 1.88438 9.40629C1.83264 9.34089 1.8057 9.30174 1.74942 9.21022C1.69007 9.11371 1.58309 8.90452 1.58309 8.88501C1.58309 8.87934 1.58012 8.87152 1.5765 8.86763C1.56966 8.86031 1.51145 8.6943 1.49967 8.64854C1.49098 8.61478 1.4787 8.56696 1.47389 8.54811C1.46156 8.49981 1.43804 8.36639 1.42603 8.27657C1.41511 8.19495 1.41513 7.8675 1.42606 7.78557C1.44214 7.665 1.44574 7.64791 1.45468 7.6497C1.45953 7.65068 1.48543 7.6649 1.51226 7.68132C1.53908 7.69774 1.56432 7.71118 1.56834 7.71118C1.57236 7.71118 1.57565 7.71379 1.57565 7.71699C1.57565 7.72018 1.58486 7.72666 1.59611 7.7314C1.61763 7.74044 1.67432 7.7722 1.73385 7.80856C1.75335 7.82046 1.77096 7.83021 1.77299 7.83021C1.77501 7.83021 1.80644 7.84862 1.84282 7.87112C1.8792 7.89363 1.91071 7.91204 1.91285 7.91204C1.91682 7.91204 1.99223 7.95578 2.12042 8.03243C2.16023 8.05623 2.19462 8.07571 2.19686 8.07571C2.19909 8.07571 2.22213 8.0891 2.24805 8.10546C2.27396 8.12183 2.29735 8.13522 2.30002 8.13522C2.30269 8.13522 2.33158 8.15196 2.36423 8.17242C2.39687 8.19288 2.42576 8.20962 2.42841 8.20962C2.43108 8.20962 2.45037 8.22019 2.47127 8.23311C2.49219 8.24603 2.52771 8.26669 2.55021 8.27901C2.57272 8.29134 2.61704 8.31759 2.6487 8.33735C2.68037 8.35712 2.70806 8.37328 2.71023 8.37328C2.7124 8.37328 2.72666 8.38112 2.74193 8.3907C2.75719 8.40028 2.78474 8.41652 2.80315 8.42678C2.82157 8.43705 2.90526 8.48495 2.98914 8.53322C3.07302 8.5815 3.15336 8.62755 3.16769 8.63555C3.18201 8.64354 3.22051 8.6659 3.25324 8.68522C3.36445 8.75087 3.42428 8.78544 3.45614 8.80245C3.47363 8.81178 3.50544 8.83056 3.52682 8.84416C3.5482 8.85778 3.57154 8.87111 3.57869 8.87379C3.58585 8.87649 3.61018 8.89051 3.63278 8.90497C3.65537 8.91941 3.67578 8.93124 3.67814 8.93124C3.68049 8.93124 3.7125 8.94965 3.74927 8.97216C3.78603 8.99466 3.81759 9.01307 3.81938 9.01307C3.82118 9.01307 3.83514 9.02088 3.8504 9.03042C3.90057 9.06179 3.9596 9.09225 3.9823 9.09852C3.99458 9.10189 4.01132 9.10657 4.0195 9.10889C4.03918 9.1145 4.17065 9.11459 4.19433 9.10901C4.22955 9.10073 4.28039 9.07801 4.3394 9.04417C4.55848 8.91856 4.685 8.84491 4.70135 8.83347C4.71221 8.82587 4.72281 8.81965 4.72489 8.81965C4.72697 8.81965 4.77834 8.79061 4.83905 8.75511C4.89976 8.71961 4.95947 8.68523 4.97175 8.67871C4.98402 8.67219 5.01459 8.65435 5.03968 8.63909C5.06476 8.62383 5.08686 8.61135 5.08878 8.61135C5.09069 8.61135 5.1228 8.59293 5.16014 8.57043C5.19747 8.54792 5.23144 8.52951 5.23565 8.52951C5.23985 8.52951 5.24332 8.527 5.24335 8.52393C5.24337 8.52087 5.25091 8.51479 5.26008 8.51045C5.26926 8.50609 5.32196 8.47624 5.3772 8.44411C5.52775 8.35652 5.70668 8.25425 5.70935 8.25425C5.71065 8.25425 5.73269 8.24143 5.75833 8.22575C5.79585 8.20281 6.02873 8.06762 6.1323 8.00866C6.14457 8.00167 6.17234 7.98544 6.194 7.9726C6.21566 7.95975 6.23495 7.94924 6.23686 7.94924C6.23877 7.94924 6.2674 7.93227 6.3005 7.91153C6.33359 7.89079 6.3662 7.87154 6.37296 7.86875C6.38628 7.86325 6.45507 7.82336 6.56953 7.75476C6.60952 7.73079 6.6439 7.71118 6.64593 7.71118C6.64797 7.71118 6.66294 7.70277 6.67921 7.6925C6.69548 7.68223 6.72638 7.66419 6.74788 7.6524C6.76938 7.64062 6.82547 7.60855 6.87252 7.58113C6.91957 7.55371 6.97649 7.52102 6.99899 7.50847C7.04397 7.48339 7.08461 7.4596 7.10715 7.44517C7.11517 7.44003 7.12676 7.43352 7.1329 7.43072C7.13904 7.4279 7.15895 7.41621 7.17714 7.40472C7.19532 7.39324 7.2129 7.38384 7.21619 7.38384C7.21948 7.38384 7.22212 7.64915 7.22206 7.97341Z" fill="#EB5857"/>
</svg>
