<svg width="54" height="54" viewBox="0 0 54 54" fill="none" xmlns="http://www.w3.org/2000/svg">
<rect width="54" height="54" rx="16" fill="#FF4267"/>
<path opacity="0.7" fill-rule="evenodd" clip-rule="evenodd" d="M22.6431 14.2096C22.6431 13.5698 22.1146 13.0515 21.4636 13.0515H21.4621L18.9374 13.053C15.5417 13.0561 12.7783 15.7689 12.7783 19.1003V21.9818C12.7783 22.6201 13.3068 23.1399 13.9577 23.1399C14.6086 23.1399 15.1387 22.6201 15.1387 21.9818V19.1003C15.1387 17.044 16.8435 15.3707 18.9389 15.3677L21.4636 15.3662C22.1161 15.3662 22.6431 14.8479 22.6431 14.2096ZM35.0497 13.0522H32.5807C31.9298 13.0522 31.4013 13.5705 31.4013 14.2103C31.4013 14.8486 31.9298 15.3654 32.5807 15.3654H35.0497C37.1528 15.3654 38.8639 17.0432 38.8639 19.1056V21.9825C38.8639 22.6208 39.3924 23.1406 40.0433 23.1406C40.6958 23.1406 41.2227 22.6208 41.2227 21.9825V19.1056C41.2227 15.7666 38.4547 13.0522 35.0497 13.0522ZM22.7202 18.8521H31.2816C32.2193 18.8521 33.1198 19.2214 33.7754 19.8794C34.4356 20.5436 34.8014 21.4357 34.7998 22.3643V24.2944C34.7921 24.5209 34.6076 24.7048 34.3767 24.7108H19.6221C19.3927 24.7032 19.2083 24.5193 19.2036 24.2944V22.3643C19.1866 20.4417 20.7612 18.8718 22.7202 18.8521Z" fill="white"/>
<path d="M42.869 27.0638H11.1326C10.4816 27.0638 9.9516 27.5821 9.9516 28.2219C9.9516 28.8602 10.4816 29.377 11.1326 29.377H12.777V34.8999C12.777 38.2312 15.5419 40.9441 18.9377 40.9471L21.4624 40.9486V40.9486C22.1149 40.9486 22.6418 40.4304 22.6434 39.7905C22.6434 39.1522 22.1149 38.634 21.4639 38.634L18.9408 38.6325C16.8438 38.6294 15.1374 36.9561 15.1374 34.8999V29.377H19.2027V30.9135C19.1872 32.836 20.7603 34.4075 22.7193 34.4257H31.2807C33.2413 34.4075 34.8144 32.836 34.7989 30.9135V29.377H38.8641V34.8938C38.8641 36.9577 37.1531 38.634 35.0499 38.634H32.581C31.9285 38.634 31.4 39.1522 31.4 39.7905C31.4 40.4304 31.9285 40.9486 32.581 40.9486H35.0499C38.4534 40.9486 41.223 38.2343 41.223 34.8938V29.377H42.869C43.5199 29.377 44.0484 28.8602 44.0484 28.2219C44.0484 27.5821 43.5199 27.0638 42.869 27.0638" fill="white"/>
</svg>
