<svg width="84" height="84" viewBox="0 0 84 84" fill="none" xmlns="http://www.w3.org/2000/svg">
<rect width="84" height="84" rx="24" fill="#7D42FB"/>
<path d="M35.5672 48.9336C25.9475 48.9336 17.7312 50.4196 17.7312 56.359C17.7312 62.303 25.8952 63.8401 35.5672 63.8401C45.1868 63.8401 53.4031 62.3541 53.4031 56.4148C53.4031 50.4708 45.2391 48.9336 35.5672 48.9336" fill="white"/>
<path opacity="0.6" d="M35.5671 43.2728C42.1188 43.2728 47.3691 38.1311 47.3691 31.715C47.3691 25.2989 42.1188 20.1572 35.5671 20.1572C29.0179 20.1572 23.7651 25.2989 23.7651 31.715C23.7651 38.1311 29.0179 43.2728 35.5671 43.2728" fill="white"/>
<path opacity="0.6" d="M52.1286 31.9258C52.1286 35.1931 51.1265 38.2419 49.3692 40.7744C49.1864 41.0348 49.3479 41.386 49.6661 41.4418C50.1078 41.5139 50.5613 41.5581 51.0244 41.5674C55.6312 41.686 59.7654 38.7814 60.9076 34.4071C62.6008 27.9166 57.633 22.0889 51.3046 22.0889C50.6183 22.0889 49.9605 22.1586 49.3194 22.2865C49.2315 22.3051 49.1365 22.347 49.089 22.4214C49.0273 22.5168 49.0724 22.64 49.1342 22.7214C51.0362 25.333 52.1286 28.5119 52.1286 31.9258" fill="white"/>
<path d="M65.733 49.692C64.89 47.9316 62.855 46.7246 59.7584 46.1316C58.298 45.7828 54.3419 45.2875 50.6635 45.3572C50.6089 45.3642 50.578 45.4014 50.5733 45.4247C50.5662 45.4619 50.5828 45.5177 50.654 45.5572C52.3543 46.3805 58.9249 49.9617 58.0985 57.515C58.0629 57.8452 58.3313 58.1243 58.6661 58.0778C60.2832 57.8522 64.4436 56.9755 65.733 54.25C66.4478 52.8082 66.4478 51.1338 65.733 49.692" fill="white"/>
</svg>
