<svg width="68" height="68" viewBox="0 0 68 68" fill="none" xmlns="http://www.w3.org/2000/svg">
<rect width="68" height="68" rx="16" fill="url(#paint0_radial_2926_23722)"/>
<path fill-rule="evenodd" clip-rule="evenodd" d="M16.8926 33.9993C16.8926 27.1654 16.8926 23.7485 18.521 21.2874C19.2482 20.1884 20.1894 19.2472 21.2884 18.52C23.7495 16.8916 27.1664 16.8916 34.0002 16.8916C40.8341 16.8916 44.251 16.8916 46.7121 18.52C47.8111 19.2472 48.7523 20.1884 49.4794 21.2874C51.1079 23.7485 51.1079 27.1654 51.1079 33.9993C51.1079 40.8331 51.1079 44.25 49.4794 46.7111C48.7523 47.8101 47.8111 48.7513 46.7121 49.4785C44.251 51.1069 40.8341 51.1069 34.0002 51.1069C27.1664 51.1069 23.7495 51.1069 21.2884 49.4785C20.1894 48.7513 19.2482 47.8101 18.521 46.7111C16.8926 44.25 16.8926 40.8331 16.8926 33.9993ZM42.8597 34.0004C42.8597 38.8919 38.8943 42.8572 34.0028 42.8572C29.1113 42.8572 25.146 38.8919 25.146 34.0004C25.146 29.1089 29.1113 25.1436 34.0028 25.1436C38.8943 25.1436 42.8597 29.1089 42.8597 34.0004ZM34.0028 39.8607C37.2394 39.8607 39.8632 37.237 39.8632 34.0004C39.8632 30.7638 37.2394 28.1401 34.0028 28.1401C30.7663 28.1401 28.1425 30.7638 28.1425 34.0004C28.1425 37.237 30.7663 39.8607 34.0028 39.8607ZM43.21 26.7794C44.3594 26.7794 45.2911 25.8476 45.2911 24.6983C45.2911 23.5489 44.3594 22.6172 43.21 22.6172C42.0606 22.6172 41.1289 23.5489 41.1289 24.6983C41.1289 25.8476 42.0606 26.7794 43.21 26.7794Z" fill="white"/>
<defs>
<radialGradient id="paint0_radial_2926_23722" cx="0" cy="0" r="1" gradientUnits="userSpaceOnUse" gradientTransform="translate(18.0626 73.2374) rotate(-90) scale(67.393 62.6808)">
<stop stop-color="#FFDD55"/>
<stop offset="0.1" stop-color="#FFDD55"/>
<stop offset="0.5" stop-color="#FF543E"/>
<stop offset="1" stop-color="#C837AB"/>
</radialGradient>
</defs>
</svg>
