<svg width="388" height="110" viewBox="0 0 388 110" fill="none" xmlns="http://www.w3.org/2000/svg">
<g clip-path="url(#clip0_2976_38777)">
<rect width="388" height="110" fill="white"/>
<path d="M-21.0508 -5.65332H408.551V115.959H-21.0508V-5.65332Z" fill="#F2F1FF"/>
<mask id="mask0_2976_38777" style="mask-type:alpha" maskUnits="userSpaceOnUse" x="-27" y="-8" width="442" height="126">
<path d="M5.93164 -7.02075H382.566C399.963 -7.02075 414.066 7.08228 414.066 24.4792V116.718H-25.5684V24.4793C-25.5684 7.08229 -11.4653 -7.02075 5.93164 -7.02075Z" fill="#7D42FB" stroke="#7D42FB"/>
</mask>
<g mask="url(#mask0_2976_38777)">
<path opacity="0.3" fill-rule="evenodd" clip-rule="evenodd" d="M181.778 408.363C157.878 388.743 154.54 349.58 145.143 316.781C136.4 286.262 127.52 256.53 129.073 224.418C130.903 186.613 128.971 139.808 154.751 118.165C180.716 96.3647 215.962 124.986 247.789 124.748C276.59 124.532 308.375 96.4451 331.769 116.84C355.411 137.451 342.799 183.131 352.582 216.106C361.604 246.514 389.83 269.503 386.529 301.409C383.179 333.794 357.304 354.621 336.148 374.987C315.498 394.865 292.942 411.007 266.808 416.654C238.185 422.845 205.913 428.175 181.778 408.363Z" stroke="#7D42FB"/>
<path opacity="0.3" fill-rule="evenodd" clip-rule="evenodd" d="M173.117 428.496C146.058 406.282 142.277 361.955 131.638 324.83C121.736 290.285 111.682 256.631 113.437 220.282C115.504 177.491 113.316 124.513 142.493 100.019C171.886 75.3466 211.786 107.748 247.815 107.482C280.418 107.242 316.396 75.4556 342.88 98.5425C369.646 121.876 355.372 173.579 366.45 210.904C376.665 245.324 408.619 271.349 404.886 307.463C401.097 344.119 371.808 367.69 347.862 390.738C324.488 413.236 298.956 431.502 269.373 437.894C236.97 444.895 200.44 450.924 173.117 428.496Z" stroke="#7D42FB"/>
<path opacity="0.3" fill-rule="evenodd" clip-rule="evenodd" d="M165.196 446.903C135.25 422.322 131.064 373.271 119.288 332.189C108.329 293.961 97.1999 256.721 99.1416 216.501C101.425 169.15 98.9998 110.528 131.287 83.4268C163.813 56.1294 207.968 91.9861 247.839 91.6961C283.918 91.4336 323.73 56.2628 353.039 81.8133C382.66 107.635 366.868 164.845 379.129 206.148C390.437 244.236 425.799 273.036 421.671 312.997C417.48 353.558 385.069 379.637 358.571 405.139C332.706 430.031 304.453 450.242 271.716 457.314C235.86 465.056 195.434 471.723 165.196 446.903Z" stroke="#7D42FB"/>
<path opacity="0.3" fill-rule="evenodd" clip-rule="evenodd" d="M156.786 466.459C123.774 439.362 119.157 385.293 106.171 340.006C94.0868 297.868 81.8197 256.818 83.9572 212.482C86.4706 160.29 83.7916 95.6686 119.387 65.7977C155.237 35.7102 203.916 75.2385 247.867 74.9223C287.64 74.6356 331.523 35.8702 363.836 64.037C396.49 92.5027 379.085 155.565 392.604 201.092C405.071 243.078 444.055 274.828 439.507 318.877C434.889 363.587 399.162 392.331 369.953 420.439C341.441 447.874 310.298 470.151 274.21 477.942C234.684 486.475 190.12 493.822 156.786 466.459Z" stroke="#7D42FB"/>
<path opacity="0.3" fill-rule="evenodd" clip-rule="evenodd" d="M147.629 487.742C111.279 457.906 106.191 398.376 91.8918 348.515C78.5863 302.12 65.076 256.922 67.4247 208.11C70.1917 150.645 67.2396 79.4993 106.428 46.6142C145.901 13.4902 199.501 57.0153 247.894 56.6697C291.686 56.3574 340.005 13.6803 375.582 44.694C411.538 76.0372 392.377 145.466 407.264 195.594C420.993 241.819 463.918 276.779 458.912 325.276C453.83 374.502 414.494 406.146 382.334 437.091C350.943 467.296 316.653 491.819 276.919 500.395C233.4 509.785 184.331 517.871 147.629 487.742Z" stroke="#7D42FB"/>
</g>
</g>
<defs>
<clipPath id="clip0_2976_38777">
<rect width="388" height="110" fill="white"/>
</clipPath>
</defs>
</svg>
