<svg width="72" height="72" viewBox="0 0 72 72" fill="none" xmlns="http://www.w3.org/2000/svg">
<rect width="72" height="72" rx="18" fill="#FF813A"/>
<path opacity="0.56" d="M29.8727 32.524C30.6398 32.0805 31.5223 32.0443 32.2872 32.3385C32.9253 32.5851 33.6539 32.3815 34.0884 31.852C34.8622 30.9084 35.4845 29.8404 35.9212 28.6795C36.1724 28.0143 35.9348 27.2856 35.3917 26.8263C34.7853 26.3126 34.3984 25.5455 34.3984 24.6857C34.3984 23.8258 34.7853 23.0587 35.394 22.545C35.9348 22.0857 36.1724 21.3571 35.9235 20.6918C35.4845 19.531 34.8622 18.4607 34.0906 17.5193C33.6562 16.9921 32.9275 16.7884 32.2894 17.0328C31.5223 17.327 30.6398 17.2885 29.8727 16.8473C29.1034 16.4038 28.6282 15.6525 28.5037 14.8379C28.4019 14.1726 27.8747 13.6409 27.2094 13.53C26.6052 13.4259 25.983 13.3716 25.3471 13.3716C24.7112 13.3716 24.089 13.4259 23.4848 13.53C22.8195 13.6409 22.2923 14.1726 22.1905 14.8379C22.066 15.6525 21.5908 16.4038 20.8215 16.8473C20.0544 17.2885 19.1719 17.327 18.407 17.0328C17.7689 16.7862 17.038 16.9898 16.6058 17.5171C15.832 18.4607 15.2097 19.531 14.7707 20.6918C14.5218 21.3548 14.7594 22.0857 15.3002 22.545C15.9089 23.0587 16.2958 23.8258 16.2958 24.6857C16.2958 25.5455 15.9089 26.3126 15.3002 26.8263C14.7594 27.2856 14.5218 28.0165 14.7707 28.6795C15.2097 29.8404 15.832 30.9107 16.6036 31.852C17.038 32.3792 17.7667 32.5829 18.4048 32.3385C19.1696 32.0443 20.0544 32.0805 20.8192 32.524C21.5886 32.9676 22.0638 33.7188 22.1882 34.5312C22.29 35.1964 22.8173 35.7282 23.4803 35.8413C24.089 35.9454 24.7112 35.9997 25.3471 35.9997C25.983 35.9997 26.6052 35.9454 27.2094 35.8413C27.8724 35.7282 28.3996 35.1964 28.5015 34.5312C28.6282 33.7188 29.1034 32.9676 29.8727 32.524Z" fill="white"/>
<path d="M25.3469 20.1602C22.8465 20.1602 20.8213 22.1854 20.8213 24.6858C20.8213 27.1862 22.8465 29.2114 25.3469 29.2114C27.8473 29.2114 29.8726 27.1862 29.8726 24.6858C29.8726 22.1854 27.8473 20.1602 25.3469 20.1602Z" fill="#FF813A"/>
<path d="M49.3329 54.1092C50.3286 53.5344 51.4781 53.4846 52.4737 53.8693C53.3019 54.1884 54.2523 53.9236 54.8157 53.238C55.8204 52.0138 56.6305 50.6222 57.1985 49.1129C57.5243 48.2485 57.2166 47.3004 56.5106 46.7053C55.7186 46.0355 55.2162 45.0398 55.2162 43.922C55.2162 42.8019 55.7186 41.8085 56.5106 41.1387C57.2143 40.5413 57.5243 39.5932 57.1985 38.7311C56.6282 37.2218 55.8204 35.8302 54.8157 34.606C54.2523 33.9181 53.3042 33.6556 52.4737 33.9747C51.4781 34.3593 50.3308 34.3095 49.3329 33.7348C48.3328 33.1578 47.715 32.1825 47.5521 31.1235C47.4186 30.2591 46.7352 29.5667 45.8708 29.4196C45.0834 29.2816 44.2755 29.2114 43.4496 29.2114C42.6237 29.2114 41.8159 29.2816 41.0284 29.4151C40.1663 29.5622 39.4806 30.2523 39.3471 31.119C39.1842 32.1757 38.5665 33.151 37.5663 33.7303C36.5706 34.305 35.4211 34.3548 34.4255 33.9701C33.5973 33.6511 32.6469 33.9158 32.0835 34.6015C31.0788 35.8256 30.2687 37.2173 29.7007 38.7266C29.3749 39.591 29.6826 40.5391 30.3886 41.1342C31.1806 41.8063 31.683 42.7996 31.683 43.9197C31.683 45.0398 31.1806 46.0332 30.3886 46.703C29.6849 47.3004 29.3749 48.2485 29.7007 49.1106C30.271 50.6199 31.0788 52.0116 32.0835 53.2357C32.6469 53.9236 33.595 54.1861 34.4255 53.8671C35.4211 53.4824 36.5684 53.5322 37.5663 54.1069C38.5665 54.6839 39.1842 55.6592 39.3471 56.7182C39.4806 57.5826 40.164 58.275 41.0284 58.4221C41.8159 58.5579 42.6237 58.628 43.4496 58.628C44.2755 58.628 45.0834 58.5579 45.8708 58.4244C46.733 58.2773 47.4186 57.5871 47.5521 56.7205C47.715 55.6637 48.3328 54.6862 49.3329 54.1092Z" fill="white"/>
<path d="M43.4495 38.2627C40.3246 38.2627 37.7925 40.7948 37.7925 43.9197C37.7925 47.0447 40.3246 49.5768 43.4495 49.5768C46.5745 49.5768 49.1066 47.0447 49.1066 43.9197C49.1066 40.7948 46.5745 38.2627 43.4495 38.2627Z" fill="#FF813A"/>
</svg>
