<svg width="250" height="200" viewBox="0 0 250 200" fill="none" xmlns="http://www.w3.org/2000/svg">
<rect width="250" height="200" fill="white"/>
<path d="M198.018 100.831C197.518 110.32 195.137 119.621 191.01 128.202C186.883 136.783 181.09 144.479 173.958 150.847C166.826 157.215 158.495 162.132 149.439 165.312C140.384 168.493 130.784 169.875 121.187 169.378C111.591 168.881 102.189 166.515 93.5189 162.417C84.8489 158.319 77.0819 152.57 70.6596 145.502C64.2374 138.433 59.2854 130.183 56.0834 121.224C52.8814 112.265 51.4913 102.771 51.9914 93.2815C52.4914 83.7923 54.8719 74.4919 58.9988 65.9107C63.1258 57.3294 68.9193 49.634 76.0513 43.2657C83.1835 36.8972 91.5144 31.981 100.57 28.8004C109.625 25.6197 119.225 24.2379 128.822 24.7349C138.418 25.2318 147.82 27.5977 156.49 31.6956C165.16 35.7934 172.927 41.5422 179.35 48.6108C185.772 55.6792 190.724 63.9291 193.926 72.8882C197.128 81.8473 198.518 91.342 198.018 100.831L198.018 100.831Z" stroke="#EFF0F7" stroke-width="13.7956"/>
<path d="M198.018 100.831C197.148 117.345 190.597 133.074 179.444 145.397C168.29 157.722 153.205 165.896 136.695 168.545C120.184 171.194 103.259 168.155 88.7412 159.941C74.2245 151.727 62.9969 138.839 56.9144 123.434" stroke="#FF4267" stroke-width="13.7956" stroke-linecap="round"/>
<path d="M147.812 28.2499C159.018 31.8944 169.164 38.1691 177.387 46.5338C185.609 54.8982 191.665 65.1045 195.044 76.2805C198.423 87.4563 199.026 99.2747 196.802 110.73C194.578 122.186 189.593 132.943 182.266 142.085" stroke="#7D42FB" stroke-width="13.7956" stroke-linecap="round"/>
<path d="M83.4133 37.4958C92.9885 30.9354 104.01 26.7332 115.561 25.2428C127.112 23.7524 138.854 25.0176 149.81 28.9317" stroke="#2FF2B8" stroke-width="13.7956" stroke-linecap="round"/>
<path d="M85.733 94.871C85.733 92.1576 83.7264 91.0631 80.7165 90.3334V86.0922C81.7883 86.3658 82.8372 86.9358 83.7721 87.7339L85.3226 85.6589C84.0685 84.5644 82.5635 83.7891 80.7165 83.5611V82.1018H78.6415V83.5155C75.7685 83.7891 73.7847 85.6589 73.7847 88.19C73.7847 90.949 75.7457 91.9295 78.6415 92.6592V97.1057C77.1822 96.832 75.9281 96.1024 74.8108 95.0991L73.1462 97.1285C74.6055 98.4966 76.4753 99.3631 78.6415 99.5911V101.096H80.7165V99.6139C83.9317 99.3403 85.733 97.4477 85.733 94.871ZM76.6577 87.9391C76.6577 87.0043 77.433 86.1834 78.6415 85.9782V89.8089C77.2962 89.3757 76.6577 88.8968 76.6577 87.9391ZM80.7165 97.1741V93.2065C82.1987 93.6397 82.8828 94.1414 82.8828 95.1447C82.8828 96.1024 82.1303 96.946 80.7165 97.1741ZM91.5861 99.4087H94.4364V83.7435H92.1562L87.7553 86.7306L88.8954 88.7372L91.5861 87.0271V99.4087ZM103.358 83.4699C99.983 83.4699 97.5204 85.7045 97.5204 88.8056C97.5204 91.9295 99.9146 93.7537 102.788 93.7537C104.384 93.7537 105.866 93.0925 106.847 91.998C106.641 95.0535 105.091 97.1741 102.879 97.1741C101.511 97.1741 100.53 96.604 99.5726 95.7603L98.1817 97.9265C99.4358 98.9983 100.918 99.6823 102.879 99.6823C106.938 99.6823 109.788 96.148 109.788 91.3139C109.788 86.799 107.827 83.4699 103.358 83.4699ZM103.54 91.4279C101.83 91.4279 100.416 90.4018 100.416 88.6916C100.416 87.2551 101.579 85.8869 103.495 85.8869C105.387 85.8869 106.368 87.1867 106.71 89.2845C106.254 90.5842 105.068 91.4279 103.54 91.4279ZM119.063 99.6823C123.076 99.6823 125.926 96.3304 125.926 91.5647C125.926 86.8218 123.076 83.4699 119.063 83.4699C115.027 83.4699 112.199 86.8218 112.199 91.5647C112.199 96.3304 115.027 99.6823 119.063 99.6823ZM119.063 97.0829C116.737 97.0829 115.095 94.8026 115.095 91.5647C115.095 88.3268 116.737 86.0694 119.063 86.0694C121.388 86.0694 123.007 88.3268 123.007 91.5647C123.007 94.8026 121.388 97.0829 119.063 97.0829ZM130.442 102.647C131.993 101.005 132.631 99.8191 132.631 98.5878C132.631 97.1513 131.879 96.1024 130.716 96.1024C129.735 96.1024 128.937 96.9232 128.937 97.8809C128.937 98.8614 129.735 99.6823 130.693 99.6823C130.488 100.412 130.032 101.142 129.371 101.826L130.442 102.647ZM142.715 89.3985C141.119 89.3985 139.637 90.0598 138.657 91.1543C138.862 88.0988 140.412 85.9782 142.624 85.9782C143.992 85.9782 144.973 86.5482 145.931 87.3919L147.321 85.2257C146.067 84.154 144.585 83.4699 142.624 83.4699C138.565 83.4699 135.715 87.0043 135.715 91.8383C135.715 96.3532 137.676 99.6823 142.145 99.6823C145.52 99.6823 147.983 97.4477 147.983 94.3466C147.983 91.2227 145.588 89.3985 142.715 89.3985ZM142.009 97.2653C140.116 97.2653 139.135 95.9655 138.793 93.8677C139.249 92.568 140.435 91.7243 141.963 91.7243C143.673 91.7243 145.087 92.7504 145.087 94.4606C145.087 95.8971 143.924 97.2653 142.009 97.2653ZM155.866 99.6823C159.446 99.6823 161.886 97.5845 161.886 94.3466C161.886 91.1999 159.492 89.4213 156.71 89.4213C155.365 89.4213 154.339 89.8317 153.541 90.379L153.677 86.343H161.02V83.7435H151.01L150.782 92.0664L152.72 92.8872C153.609 92.2032 154.681 91.7927 155.912 91.7927C157.782 91.7927 159.036 92.8644 159.036 94.4606C159.036 95.9884 157.805 97.2197 155.912 97.2197C154.339 97.2197 152.879 96.4216 151.694 95.2359L150.006 97.2653C151.397 98.7246 153.313 99.6823 155.866 99.6823ZM170.193 99.6823C173.568 99.6823 176.304 98.0406 176.304 95.2359C176.304 93.3889 174.959 92.0208 173.112 91.3139C174.685 90.6754 175.894 89.5125 175.894 87.6883C175.894 85.0433 173.226 83.4699 170.193 83.4699C167.252 83.4699 164.515 84.9977 164.515 87.6883C164.515 89.4669 165.678 90.6298 167.297 91.3139C165.473 91.9752 164.105 93.3433 164.105 95.2359C164.105 98.0178 166.796 99.6823 170.193 99.6823ZM170.193 90.2878C168.893 90.2194 167.32 89.4441 167.32 88.0532C167.32 86.8218 168.551 85.8869 170.193 85.8869C171.835 85.8869 173.089 86.8218 173.089 88.0532C173.089 89.4213 171.539 90.2194 170.193 90.2878ZM170.193 97.2425C168.346 97.2425 166.955 96.3304 166.955 94.9622C166.955 93.5029 168.757 92.6364 170.193 92.568C171.653 92.6364 173.431 93.5029 173.431 94.9622C173.431 96.3304 172.017 97.2425 170.193 97.2425Z" fill="#211F54"/>
<path d="M86.1341 118.381H87.7224V111.101H90.505V109.652H83.3388V111.101H86.1341V118.381ZM94.8764 118.534C96.8077 118.534 98.3833 116.984 98.3833 115.091C98.3833 113.197 96.8077 111.66 94.8764 111.66C92.9324 111.66 91.3442 113.197 91.3442 115.091C91.3442 116.984 92.9324 118.534 94.8764 118.534ZM94.8764 117.212C93.771 117.212 92.8689 116.259 92.8689 115.091C92.8689 113.922 93.771 112.981 94.8764 112.981C95.9691 112.981 96.8713 113.922 96.8713 115.091C96.8713 116.259 95.9691 117.212 94.8764 117.212ZM102.893 116.971C102.754 117.111 102.512 117.212 102.245 117.212C101.877 117.212 101.585 116.895 101.585 116.45V113.096H103.071V111.812H101.585V110.008H100.085V111.812H99.1323V113.096H100.085V116.641C100.085 117.746 100.848 118.534 101.928 118.534C102.436 118.534 102.97 118.331 103.338 118.013L102.893 116.971ZM107.238 111.66C106.412 111.66 105.548 111.889 104.621 112.346L105.154 113.426C105.713 113.146 106.311 112.93 106.933 112.93C108.128 112.93 108.534 113.667 108.534 114.43V114.595C107.937 114.379 107.302 114.252 106.704 114.252C105.218 114.252 104.036 115.141 104.036 116.437C104.036 117.708 105.078 118.534 106.476 118.534C107.238 118.534 108.051 118.203 108.534 117.606V118.381H110.046V114.43C110.046 112.765 108.979 111.66 107.238 111.66ZM106.819 117.403C106.082 117.403 105.523 117.009 105.523 116.387C105.523 115.764 106.158 115.332 106.933 115.332C107.505 115.332 108.051 115.421 108.534 115.573V116.323C108.369 117.022 107.568 117.403 106.819 117.403ZM111.842 118.381H113.392V109.5H111.842V118.381ZM120.353 113.058V111.812H118.803V118.381H120.353V115.065C120.353 113.82 121.293 112.981 122.704 112.981V111.66C121.636 111.66 120.772 112.206 120.353 113.058ZM127.036 117.289C126.019 117.289 125.295 116.577 125.13 115.548H130.225C130.225 113.159 129.031 111.66 126.998 111.66C125.117 111.66 123.631 113.096 123.631 115.078C123.631 117.098 125.194 118.534 127.087 118.534C128.04 118.534 129.183 118.127 129.755 117.517L128.866 116.603C128.446 117.009 127.697 117.289 127.036 117.289ZM127.011 112.905C128.002 112.905 128.586 113.591 128.726 114.519H125.143C125.346 113.54 126.07 112.905 127.011 112.905ZM133.616 118.381H135.064L137.847 111.812H136.208L134.34 116.59L132.434 111.812H130.782L133.616 118.381ZM141.889 117.289C140.872 117.289 140.148 116.577 139.983 115.548H145.078C145.078 113.159 143.883 111.66 141.85 111.66C139.97 111.66 138.483 113.096 138.483 115.078C138.483 117.098 140.046 118.534 141.939 118.534C142.892 118.534 144.036 118.127 144.608 117.517L143.718 116.603C143.299 117.009 142.549 117.289 141.889 117.289ZM141.863 112.905C142.854 112.905 143.439 113.591 143.578 114.519H139.995C140.199 113.54 140.923 112.905 141.863 112.905ZM150.044 111.66C149.167 111.66 148.405 112.079 148.011 112.702V111.812H146.461V118.381H148.011V114.404C148.011 113.604 148.722 112.981 149.612 112.981C150.425 112.981 150.984 113.604 150.984 114.506V118.381H152.496V114.201C152.496 112.702 151.492 111.66 150.044 111.66ZM158.636 111.812V115.789C158.636 116.59 157.924 117.212 157.035 117.212C156.222 117.212 155.662 116.59 155.662 115.688V111.812H154.15V115.993C154.15 117.492 155.154 118.534 156.603 118.534C157.479 118.534 158.242 118.115 158.636 117.492V118.381H160.186V111.812H158.636ZM165.042 117.289C164.026 117.289 163.301 116.577 163.136 115.548H168.231C168.231 113.159 167.037 111.66 165.004 111.66C163.124 111.66 161.637 113.096 161.637 115.078C161.637 117.098 163.2 118.534 165.093 118.534C166.046 118.534 167.189 118.127 167.761 117.517L166.872 116.603C166.452 117.009 165.703 117.289 165.042 117.289ZM165.017 112.905C166.008 112.905 166.592 113.591 166.732 114.519H163.149C163.352 113.54 164.076 112.905 165.017 112.905Z" fill="#6E7191"/>
</svg>
