<svg width="780" height="834" viewBox="0 0 780 834" fill="none" xmlns="http://www.w3.org/2000/svg">
<mask id="mask0_2962_42633" style="mask-type:alpha" maskUnits="userSpaceOnUse" x="0" y="0" width="780" height="834">
<rect width="780" height="834" fill="#563AFF"/>
</mask>
<g mask="url(#mask0_2962_42633)">
<g opacity="0.6">
<path opacity="0.3" fill-rule="evenodd" clip-rule="evenodd" d="M840.024 679.833C831.313 695.767 808.289 702.311 789.845 711.548C772.683 720.145 756.009 728.725 736.586 731.648C713.718 735.089 685.94 741.738 669.706 729.628C653.352 717.43 666.013 693.97 661.821 675.882C658.031 659.511 637.176 644.746 646.415 629.01C655.752 613.105 684.705 614.87 703.205 605.391C720.265 596.649 730.442 577.851 749.966 575.95C769.782 574.017 785.54 586.279 800.421 595.909C814.946 605.308 827.476 616.236 834.181 630.444C841.527 646.003 848.819 663.744 840.024 679.833Z" stroke="white"/>
<path opacity="0.3" fill-rule="evenodd" clip-rule="evenodd" d="M900.859 691.566C886.787 717.306 849.704 727.902 819.983 742.845C792.327 756.75 765.459 770.626 734.174 775.372C697.344 780.961 652.599 791.734 626.489 772.202C600.192 752.528 620.633 714.631 613.938 685.424C607.879 658.994 574.336 635.181 589.251 609.758C604.326 584.064 650.941 586.877 680.753 571.543C708.246 557.404 724.681 527.041 756.121 523.94C788.033 520.793 813.376 540.57 837.313 556.099C860.677 571.257 880.825 588.885 891.582 611.814C903.366 636.937 915.063 665.573 900.859 691.566Z" stroke="white"/>
<path opacity="0.3" fill-rule="evenodd" clip-rule="evenodd" d="M959.791 702.931C940.538 738.17 889.822 752.694 849.175 773.161C811.354 792.213 774.608 811.222 731.834 817.73C681.478 825.399 620.296 840.169 584.621 813.446C548.686 786.529 576.668 734.646 567.542 694.671C559.284 658.497 513.448 625.919 533.864 591.112C554.497 555.935 618.222 559.758 658.993 538.757C696.595 519.389 719.09 477.821 762.075 473.561C805.705 469.236 840.332 496.295 873.044 517.538C904.972 538.274 932.499 562.393 947.187 593.778C963.27 628.154 979.233 667.346 959.791 702.931Z" stroke="white"/>
<path opacity="0.3" fill-rule="evenodd" clip-rule="evenodd" d="M1013.03 713.199C989.086 757.02 926.064 775.091 875.549 800.548C828.547 824.235 782.884 847.881 729.728 855.995C667.154 865.535 591.127 883.918 546.809 850.697C502.172 817.241 536.964 752.724 525.643 703.023C515.398 658.047 458.46 617.552 483.84 574.271C509.493 530.529 588.673 535.265 639.343 509.143C686.069 485.055 714.043 433.365 767.455 428.056C821.673 422.664 864.686 456.303 905.327 482.708C944.99 508.481 979.183 538.464 997.417 577.483C1017.38 620.222 1037.2 668.947 1013.03 713.199Z" stroke="white"/>
<path opacity="0.3" fill-rule="evenodd" clip-rule="evenodd" d="M1062.45 722.732C1034.16 774.513 959.713 795.876 900.035 825.974C844.506 853.985 790.553 881.922 727.768 891.52C653.847 902.807 564.037 924.537 511.696 885.286C458.977 845.76 500.096 769.509 486.735 710.777C474.645 657.629 407.398 609.783 437.393 558.631C467.703 506.934 561.239 512.521 621.1 481.642C676.302 453.172 709.36 392.08 772.455 385.798C836.498 379.423 887.298 419.166 935.295 450.364C982.14 480.816 1022.52 516.242 1044.05 562.35C1067.63 612.855 1091.02 670.434 1062.45 722.732Z" stroke="white"/>
<path opacity="0.3" fill-rule="evenodd" clip-rule="evenodd" d="M1113.78 732.632C1080.97 792.694 994.654 817.468 925.463 852.386C861.078 884.866 798.523 917.277 725.73 928.405C640.031 941.505 535.904 966.726 475.231 921.215C414.119 875.372 461.802 786.941 446.326 718.831C432.321 657.196 354.368 601.715 389.154 542.391C424.31 482.435 532.743 488.903 602.148 453.088C666.153 420.06 704.495 349.211 777.642 341.918C851.891 334.519 910.777 380.604 966.412 416.78C1020.72 452.094 1067.53 493.17 1092.48 546.64C1119.8 605.205 1146.91 671.977 1113.78 732.632Z" stroke="white"/>
<path opacity="0.3" fill-rule="evenodd" clip-rule="evenodd" d="M1176.52 744.726C1138.19 814.906 1037.37 843.867 956.541 884.652C881.336 922.611 808.268 960.487 723.245 973.498C623.148 988.815 501.523 1018.28 430.665 965.112C359.296 911.563 415.005 808.248 396.943 728.674C380.596 656.665 289.561 591.854 330.2 522.54C371.272 452.49 497.92 460.038 578.99 418.186C653.753 379.592 698.546 296.814 783.985 288.288C870.709 279.632 939.479 333.474 1004.45 375.73C1067.87 416.979 1122.54 464.968 1151.67 527.436C1183.57 595.856 1215.23 673.864 1176.52 744.726Z" stroke="white"/>
<path opacity="0.3" fill-rule="evenodd" clip-rule="evenodd" d="M1244.96 757.923C1200.6 839.129 1083.96 872.656 990.446 919.865C903.434 963.79 818.898 1007.63 720.531 1022.69C604.726 1040.42 464.014 1074.53 382.048 1013.01C299.488 951.052 363.954 831.49 343.068 739.412C324.168 656.089 218.856 581.098 265.884 500.887C313.41 419.824 459.925 428.546 553.726 380.111C640.224 335.446 692.056 239.655 790.904 229.782C891.236 219.761 970.788 282.053 1045.95 330.949C1119.31 378.676 1182.55 434.203 1216.24 506.487C1253.14 585.656 1289.75 675.919 1244.96 757.923Z" stroke="white"/>
<path opacity="0.3" fill-rule="evenodd" clip-rule="evenodd" d="M1311.5 770.753C1261.28 862.692 1129.25 900.649 1023.41 954.092C924.924 1003.83 829.236 1053.46 717.894 1070.51C586.818 1090.59 427.547 1129.2 334.782 1059.58C241.342 989.439 314.322 854.088 290.691 749.852C269.308 655.526 150.121 570.639 203.355 479.834C257.157 388.065 422.993 397.929 529.163 343.094C627.071 292.526 685.749 184.083 797.631 172.901C911.193 161.551 1001.23 232.063 1086.29 287.409C1169.33 341.433 1240.9 404.289 1279.02 486.114C1320.78 575.74 1362.21 677.918 1311.5 770.753Z" stroke="white"/>
<path opacity="0.3" fill-rule="evenodd" clip-rule="evenodd" d="M1372.34 782.49C1316.77 884.233 1170.67 926.242 1053.55 985.392C944.562 1040.43 838.679 1095.36 715.481 1114.24C570.443 1136.47 394.206 1179.2 291.564 1102.15C188.177 1024.54 268.941 874.75 242.802 759.396C219.148 655.011 87.2699 561.078 146.184 460.586C205.723 359.027 389.221 369.937 506.704 309.249C615.044 253.284 679.979 133.273 803.779 120.894C929.437 108.329 1029.06 186.357 1123.18 247.605C1215.05 307.389 1294.24 376.944 1336.42 467.494C1382.62 566.674 1428.45 679.753 1372.34 782.49Z" stroke="white"/>
<path opacity="0.3" fill-rule="evenodd" clip-rule="evenodd" d="M1436.97 794.952C1375.72 907.115 1214.67 953.428 1085.57 1018.64C965.436 1079.33 848.724 1139.88 712.917 1160.69C553.05 1185.2 358.782 1232.33 245.646 1147.38C131.693 1061.83 220.725 896.699 191.922 769.54C165.855 654.468 20.4957 550.925 85.4418 440.138C151.077 328.178 353.344 340.198 482.84 273.292C602.267 211.59 673.852 79.2893 810.313 65.6378C948.823 51.7823 1058.63 137.798 1162.37 205.311C1263.63 271.214 1350.92 347.885 1397.4 447.709C1448.32 557.041 1498.83 681.697 1436.97 794.952Z" stroke="white"/>
<path opacity="0.3" fill-rule="evenodd" clip-rule="evenodd" d="M1507.32 808.517C1439.87 932.018 1262.56 983.023 1120.41 1054.83C988.148 1121.65 859.642 1188.33 710.131 1211.25C534.114 1238.24 320.231 1290.13 195.679 1196.61C70.2218 1102.41 168.256 920.588 136.55 780.574C107.859 653.871 -52.1724 539.859 19.3389 417.879C91.6093 294.601 314.294 307.83 456.877 234.157C588.36 166.218 667.183 20.5414 817.424 5.50621C969.921 -9.75477 1090.8 84.9492 1205.02 159.286C1316.51 231.846 1412.6 316.268 1463.78 426.176C1519.82 546.558 1575.43 683.815 1507.32 808.517Z" stroke="white"/>
</g>
</g>
</svg>
