<svg width="1540" height="762" viewBox="0 0 1540 762" fill="none" xmlns="http://www.w3.org/2000/svg">
<mask id="mask0_2969_36326" style="mask-type:alpha" maskUnits="userSpaceOnUse" x="0" y="0" width="1540" height="762">
<rect width="1540" height="762" fill="#563AFF"/>
</mask>
<g mask="url(#mask0_2969_36326)">
<g opacity="0.6">
<path opacity="0.3" fill-rule="evenodd" clip-rule="evenodd" d="M840.061 677.505C831.35 693.439 808.326 699.983 789.883 709.22C772.721 717.818 756.047 726.397 736.623 729.32C713.755 732.761 685.977 739.41 669.743 727.3C653.389 715.103 666.05 691.643 661.858 673.555C658.069 657.184 637.213 642.418 646.452 626.682C655.789 610.778 684.742 612.543 703.242 603.063C720.302 594.321 730.479 575.523 750.003 573.622C769.82 571.69 785.577 583.951 800.458 593.581C814.984 602.981 827.513 613.908 834.218 628.116C841.564 643.676 848.857 661.416 840.061 677.505Z" stroke="white"/>
<path opacity="0.3" fill-rule="evenodd" clip-rule="evenodd" d="M900.896 689.238C886.824 714.979 849.741 725.574 820.02 740.518C792.364 754.423 765.496 768.298 734.211 773.045C697.382 778.633 652.636 789.406 626.526 769.875C600.229 750.2 620.67 712.303 613.975 683.097C607.916 656.667 574.373 632.854 589.288 607.43C604.363 581.737 650.978 584.549 680.79 569.215C708.283 555.076 724.718 524.714 756.158 521.613C788.07 518.465 813.413 538.243 837.35 553.771C860.714 568.93 880.862 586.558 891.619 609.487C903.403 634.61 915.1 663.246 900.896 689.238Z" stroke="white"/>
<path opacity="0.3" fill-rule="evenodd" clip-rule="evenodd" d="M959.828 700.604C940.575 735.843 889.859 750.366 849.212 770.833C811.391 789.886 774.645 808.895 731.871 815.403C681.515 823.072 620.333 837.841 584.658 811.118C548.723 784.202 576.705 732.318 567.579 692.344C559.321 656.169 513.486 623.591 533.901 588.785C554.535 553.608 618.259 557.431 659.03 536.429C696.632 517.062 719.127 475.493 762.112 471.233C805.743 466.908 840.369 493.967 873.081 515.211C905.009 535.946 932.537 560.066 947.224 591.45C963.307 625.826 979.271 665.018 959.828 700.604Z" stroke="white"/>
<path opacity="0.3" fill-rule="evenodd" clip-rule="evenodd" d="M1013.06 710.872C989.123 754.693 926.101 772.763 875.586 798.221C828.584 821.907 782.921 845.553 729.765 853.667C667.191 863.207 591.164 881.59 546.846 848.37C502.209 814.913 537.001 750.396 525.68 700.696C515.436 655.72 458.497 615.225 483.877 571.943C509.53 528.201 588.71 532.938 639.38 506.816C686.106 482.727 714.08 431.037 767.492 425.729C821.71 420.336 864.723 453.975 905.364 480.38C945.027 506.154 979.22 536.136 997.454 575.155C1017.42 617.894 1037.24 666.619 1013.06 710.872Z" stroke="white"/>
<path opacity="0.3" fill-rule="evenodd" clip-rule="evenodd" d="M1062.49 720.404C1034.2 772.185 959.75 793.548 900.072 823.647C844.543 851.657 790.59 879.595 727.806 889.192C653.884 900.479 564.074 922.209 511.733 882.958C459.014 843.432 500.134 767.181 486.772 708.45C474.682 655.301 407.435 607.455 437.43 556.303C467.74 504.606 561.276 510.194 621.137 479.314C676.339 450.844 709.397 389.752 772.492 383.471C836.535 377.096 887.335 416.838 935.332 448.036C982.177 478.488 1022.56 513.915 1044.09 560.023C1067.66 610.527 1091.06 668.106 1062.49 720.404Z" stroke="white"/>
<path opacity="0.3" fill-rule="evenodd" clip-rule="evenodd" d="M1113.82 730.304C1081.01 790.366 994.691 815.14 925.5 850.058C861.115 882.538 798.56 914.949 725.767 926.077C640.068 939.178 535.941 964.398 475.268 918.888C414.156 873.044 461.839 784.614 446.363 716.503C432.358 654.868 354.405 599.388 389.191 540.063C424.347 480.107 532.78 486.575 602.185 450.76C666.19 417.732 704.533 346.883 777.679 339.59C851.928 332.192 910.814 378.276 966.449 414.453C1020.75 449.766 1067.56 490.843 1092.51 544.313C1119.84 602.878 1146.95 669.649 1113.82 730.304Z" stroke="white"/>
<path opacity="0.3" fill-rule="evenodd" clip-rule="evenodd" d="M1176.56 742.399C1138.23 812.578 1037.4 841.539 956.578 882.324C881.373 920.284 808.305 958.159 723.282 971.17C623.185 986.488 501.56 1015.95 430.703 962.784C359.333 909.235 415.042 805.92 396.98 726.346C380.634 654.338 289.598 589.527 330.237 520.213C371.309 450.163 497.957 457.71 579.028 415.858C653.79 377.264 698.583 294.487 784.023 285.961C870.746 277.305 939.516 331.146 1004.49 373.403C1067.91 414.652 1122.58 462.64 1151.71 525.108C1183.61 593.528 1215.27 671.536 1176.56 742.399Z" stroke="white"/>
<path opacity="0.3" fill-rule="evenodd" clip-rule="evenodd" d="M1245 755.596C1200.64 836.801 1084 870.329 990.483 917.537C903.471 961.462 818.935 1005.3 720.569 1020.36C604.763 1038.09 464.051 1072.2 382.085 1010.68C299.525 948.725 363.991 829.163 343.105 737.084C324.205 653.761 218.893 578.771 265.921 498.559C313.447 417.497 459.962 426.218 553.763 377.784C640.261 333.118 692.093 237.327 790.941 227.455C891.273 217.434 970.825 279.725 1045.99 328.621C1119.35 376.348 1182.59 431.875 1216.27 504.159C1253.18 583.328 1289.79 673.592 1245 755.596Z" stroke="white"/>
<path opacity="0.3" fill-rule="evenodd" clip-rule="evenodd" d="M1311.54 768.426C1261.32 860.365 1129.29 898.322 1023.45 951.764C924.961 1001.5 829.273 1051.13 717.931 1068.19C586.855 1088.26 427.584 1126.88 334.819 1057.25C241.379 987.111 314.359 851.76 290.728 747.524C269.345 653.198 150.159 568.311 203.392 477.507C257.195 385.737 423.03 395.601 529.2 340.766C627.108 290.198 685.786 181.755 797.668 170.573C911.23 159.223 1001.27 229.735 1086.33 285.081C1169.36 339.106 1240.93 401.961 1279.06 483.787C1320.82 573.413 1362.24 675.591 1311.54 768.426Z" stroke="white"/>
<path opacity="0.3" fill-rule="evenodd" clip-rule="evenodd" d="M1372.37 780.162C1316.8 881.906 1170.71 923.914 1053.58 983.064C944.599 1038.1 838.716 1093.04 715.518 1111.91C570.48 1134.14 394.243 1176.87 291.601 1099.83C188.214 1022.21 268.978 872.422 242.839 757.069C219.186 652.684 87.307 558.75 146.221 458.259C205.761 356.7 389.258 367.61 506.741 306.921C615.081 250.956 680.016 130.946 803.816 118.567C929.474 106.001 1029.09 184.029 1123.22 245.278C1215.09 305.061 1294.28 374.616 1336.46 465.166C1382.65 564.346 1428.49 677.426 1372.37 780.162Z" stroke="white"/>
<path opacity="0.3" fill-rule="evenodd" clip-rule="evenodd" d="M1437.01 792.625C1375.75 904.788 1214.71 951.1 1085.6 1016.31C965.473 1077 848.761 1137.55 712.955 1158.36C553.087 1182.87 358.819 1230 245.684 1145.05C131.73 1059.5 220.762 894.371 191.959 767.212C165.892 652.141 20.5328 548.597 85.4789 437.81C151.114 325.85 353.382 337.87 482.878 270.965C602.305 209.262 673.889 76.9617 810.351 63.3102C948.86 49.4547 1058.66 135.47 1162.41 202.984C1263.67 268.886 1350.95 345.557 1397.44 445.381C1448.36 554.713 1498.87 679.369 1437.01 792.625Z" stroke="white"/>
<path opacity="0.3" fill-rule="evenodd" clip-rule="evenodd" d="M1507.35 806.189C1439.9 929.691 1262.6 980.696 1120.45 1052.5C988.185 1119.32 859.679 1186 710.168 1208.93C534.151 1235.91 320.269 1287.81 195.716 1194.29C70.2589 1100.09 168.293 918.261 136.587 778.247C107.896 651.543 -52.1353 537.531 19.376 415.551C91.6464 292.274 314.331 305.502 456.914 231.829C588.397 163.89 667.22 18.2138 817.461 3.17858C969.958 -12.0824 1090.84 82.6216 1205.06 156.958C1316.54 229.518 1412.63 313.94 1463.81 423.849C1519.86 544.23 1575.47 681.487 1507.35 806.189Z" stroke="white"/>
</g>
</g>
</svg>
