<svg width="78" height="78" viewBox="0 0 78 78" fill="none" xmlns="http://www.w3.org/2000/svg">
<rect width="78" height="78" rx="17.3521" fill="#7D42FB"/>
<path opacity="0.5" d="M32.6822 35.4167C33.473 34.9595 34.3827 34.9222 35.1712 35.2255C35.829 35.4797 36.5801 35.2698 37.028 34.7239C37.8258 33.7512 38.4673 32.6501 38.9175 31.4535C39.1765 30.7676 38.9315 30.0165 38.3717 29.543C37.7465 29.0134 37.3476 28.2226 37.3476 27.3362C37.3476 26.4498 37.7465 25.659 38.374 25.1294C38.9315 24.6559 39.1765 23.9048 38.9199 23.219C38.4673 22.0223 37.8258 20.9189 37.0304 19.9485C36.5825 19.405 35.8313 19.195 35.1735 19.4469C34.3827 19.7502 33.473 19.7105 32.6822 19.2557C31.889 18.7985 31.3992 18.024 31.2709 17.1842C31.1659 16.4984 30.6224 15.9502 29.9366 15.8359C29.3137 15.7286 28.6722 15.6726 28.0167 15.6726C27.3612 15.6726 26.7197 15.7286 26.0969 15.8359C25.4111 15.9502 24.8676 16.4984 24.7626 17.1842C24.6343 18.024 24.1444 18.7985 23.3513 19.2557C22.5605 19.7105 21.6507 19.7502 20.8623 19.4469C20.2045 19.1927 19.451 19.4026 19.0054 19.9461C18.2076 20.9189 17.5661 22.0223 17.1136 23.219C16.857 23.9024 17.1019 24.6559 17.6595 25.1294C18.287 25.659 18.6859 26.4498 18.6859 27.3362C18.6859 28.2226 18.287 29.0134 17.6595 29.543C17.1019 30.0165 16.857 30.77 17.1136 31.4535C17.5661 32.6501 18.2076 33.7535 19.0031 34.7239C19.451 35.2674 20.2021 35.4774 20.8599 35.2255C21.6484 34.9222 22.5605 34.9595 23.349 35.4167C24.1421 35.874 24.632 36.6484 24.7603 37.4859C24.8652 38.1717 25.4087 38.7199 26.0922 38.8365C26.7197 38.9438 27.3612 38.9998 28.0167 38.9998C28.6722 38.9998 29.3137 38.9438 29.9366 38.8365C30.62 38.7199 31.1636 38.1717 31.2685 37.4859C31.3992 36.6484 31.889 35.874 32.6822 35.4167Z" fill="white"/>
<path d="M28.017 22.6711C25.4393 22.6711 23.3516 24.7589 23.3516 27.3366C23.3516 29.9142 25.4393 32.002 28.017 32.002C30.5947 32.002 32.6824 29.9142 32.6824 27.3366C32.6824 24.7589 30.5947 22.6711 28.017 22.6711Z" fill="#7D42FB"/>
<path d="M52.7438 57.6684C53.7702 57.0759 54.9552 57.0245 55.9816 57.4211C56.8354 57.75 57.8151 57.4771 58.396 56.7703C59.4317 55.5083 60.2668 54.0737 60.8523 52.5177C61.1882 51.6266 60.871 50.6492 60.1432 50.0357C59.3267 49.3452 58.8089 48.3188 58.8089 47.1665C58.8089 46.0118 59.3267 44.9877 60.1432 44.2972C60.8686 43.6814 61.1882 42.704 60.8523 41.8152C60.2645 40.2593 59.4317 38.8247 58.396 37.5627C57.8151 36.8535 56.8377 36.5829 55.9816 36.9118C54.9552 37.3084 53.7725 37.2571 52.7438 36.6646C51.7127 36.0697 51.0759 35.0643 50.9079 33.9726C50.7703 33.0815 50.0658 32.3677 49.1747 32.2161C48.3629 32.0738 47.5302 32.0015 46.6787 32.0015C45.8273 32.0015 44.9945 32.0738 44.1827 32.2114C43.2939 32.363 42.5871 33.0745 42.4495 33.9679C42.2815 35.0573 41.6447 36.0627 40.6136 36.6599C39.5872 37.2524 38.4022 37.3037 37.3758 36.9072C36.5221 36.5783 35.5423 36.8512 34.9615 37.558C33.9257 38.82 33.0906 40.2546 32.5051 41.8105C32.1692 42.7016 32.4864 43.6791 33.2143 44.2926C34.0307 44.9854 34.5486 46.0094 34.5486 47.1641C34.5486 48.3188 34.0307 49.3429 33.2143 50.0334C32.4888 50.6492 32.1692 51.6266 32.5051 52.5154C33.093 54.0713 33.9257 55.5059 34.9615 56.7679C35.5423 57.4771 36.5197 57.7477 37.3758 57.4188C38.4022 57.0222 39.5849 57.0735 40.6136 57.666C41.6447 58.2609 42.2815 59.2663 42.4495 60.358C42.5871 61.2491 43.2916 61.9629 44.1827 62.1145C44.9945 62.2545 45.8273 62.3268 46.6787 62.3268C47.5302 62.3268 48.3629 62.2545 49.1747 62.1169C50.0635 61.9652 50.7703 61.2538 50.9079 60.3603C51.0759 59.2709 51.7127 58.2632 52.7438 57.6684Z" fill="white"/>
<path d="M46.6775 41.3325C43.456 41.3325 40.8457 43.9428 40.8457 47.1643C40.8457 50.3858 43.456 52.9961 46.6775 52.9961C49.899 52.9961 52.5093 50.3858 52.5093 47.1643C52.5093 43.9428 49.899 41.3325 46.6775 41.3325Z" fill="#7D42FB"/>
</svg>
