<svg width="544" height="525" viewBox="0 0 544 525" fill="none" xmlns="http://www.w3.org/2000/svg">
<rect width="544" height="525" fill="white"/>
<path d="M0.978516 0.111328H543.977V524.111H0.978516V0.111328Z" fill="white"/>
<line x1="30.8047" y1="70.9678" x2="516.141" y2="70.9677" stroke="#EFF0F7" stroke-width="1.32126"/>
<circle cx="315.633" cy="35.8809" r="5.95902" fill="#FFCD42"/>
<path d="M339.521 32.6556C339.521 30.4698 337.669 28.9181 335.266 28.9181H330.444V40.3809H332.129V36.3931H334.315L337.118 40.3809H339.054L336.2 36.3097C338.136 35.976 339.521 34.5577 339.521 32.6556ZM332.129 30.4865H335.016C336.668 30.4865 337.802 31.3041 337.802 32.6556C337.802 34.0071 336.668 34.8247 335.016 34.8247H332.129V30.4865ZM345.449 39.2129C343.914 39.2129 342.846 38.1117 342.646 36.5933H349.537C349.537 33.5232 348.002 31.5544 345.366 31.5544C342.98 31.5544 341.028 33.4565 341.028 36.0427C341.028 38.6956 343.097 40.5811 345.483 40.5811C346.701 40.5811 348.219 40.0638 348.97 39.2463L348.002 38.2285C347.468 38.7958 346.384 39.2129 345.449 39.2129ZM345.399 32.9225C346.901 32.9225 347.769 33.9904 347.935 35.3753H342.663C342.913 33.8903 344.014 32.9225 345.399 32.9225ZM353.991 40.3809H355.543L359.18 31.7546H357.395L354.759 38.4621L352.072 31.7546H350.304L353.991 40.3809ZM364.465 39.2129C362.93 39.2129 361.862 38.1117 361.662 36.5933H368.553C368.553 33.5232 367.018 31.5544 364.381 31.5544C361.995 31.5544 360.043 33.4565 360.043 36.0427C360.043 38.6956 362.112 40.5811 364.498 40.5811C365.716 40.5811 367.234 40.0638 367.985 39.2463L367.018 38.2285C366.484 38.7958 365.399 39.2129 364.465 39.2129ZM364.415 32.9225C365.916 32.9225 366.784 33.9904 366.951 35.3753H361.678C361.929 33.8903 363.03 32.9225 364.415 32.9225ZM374.892 31.5544C373.707 31.5544 372.639 32.155 372.139 33.0227V31.7546H370.487V40.3809H372.139V35.0249C372.139 33.8903 373.207 32.9893 374.525 32.9893C375.693 32.9893 376.51 33.8736 376.51 35.1751V40.3809H378.112V34.8914C378.112 32.9059 376.794 31.5544 374.892 31.5544ZM386.428 31.7546V37.1105C386.428 38.2451 385.377 39.1462 384.059 39.1462C382.891 39.1462 382.073 38.2618 382.073 36.9604V31.7546H380.455V37.244C380.455 39.2296 381.773 40.5811 383.675 40.5811C384.86 40.5811 385.911 39.9971 386.428 39.1462V40.3809H388.08V31.7546H386.428ZM394.56 39.2129C393.025 39.2129 391.957 38.1117 391.757 36.5933H398.648C398.648 33.5232 397.113 31.5544 394.477 31.5544C392.091 31.5544 390.138 33.4565 390.138 36.0427C390.138 38.6956 392.207 40.5811 394.593 40.5811C395.811 40.5811 397.33 40.0638 398.081 39.2463L397.113 38.2285C396.579 38.7958 395.494 39.2129 394.56 39.2129ZM394.51 32.9225C396.012 32.9225 396.879 33.9904 397.046 35.3753H391.774C392.024 33.8903 393.125 32.9225 394.51 32.9225Z" fill="#6E7191"/>
<circle cx="425.732" cy="35.8809" r="5.95902" fill="#7D42FB"/>
<path d="M440.544 40.3809H442.229V36.3931H445.366C447.768 36.3931 449.62 34.8414 449.62 32.6556C449.62 30.4698 447.768 28.9181 445.366 28.9181H440.544V40.3809ZM442.229 34.8247V30.4865H445.115C446.767 30.4865 447.902 31.3041 447.902 32.6556C447.902 34.0071 446.767 34.8247 445.115 34.8247H442.229ZM453.333 33.4398V31.7546H451.681V40.3809H453.333V35.7924C453.333 34.1239 454.634 32.9893 456.536 32.9893V31.5544C455.034 31.5544 453.866 32.2885 453.333 33.4398ZM462.313 40.5811C464.799 40.5811 466.851 38.5455 466.851 36.0594C466.851 33.5733 464.799 31.5544 462.313 31.5544C459.827 31.5544 457.775 33.5733 457.775 36.0594C457.775 38.5455 459.827 40.5811 462.313 40.5811ZM462.313 39.1462C460.728 39.1462 459.426 37.7613 459.426 36.0594C459.426 34.3575 460.728 32.9893 462.313 32.9893C463.898 32.9893 465.2 34.3575 465.2 36.0594C465.2 37.7613 463.898 39.1462 462.313 39.1462ZM470.824 30.8035C470.824 30.2029 471.224 29.769 471.708 29.769C472.075 29.769 472.409 29.9025 472.592 30.0861L473.193 28.9848C472.726 28.6011 472.092 28.3675 471.474 28.3675C470.14 28.3675 469.205 29.3352 469.205 30.7201V31.7546H467.904V33.1561H469.205V40.3809H470.824V33.1561H472.859V31.7546H470.824V30.8035ZM475.262 30.3196C475.812 30.3196 476.246 29.8525 476.246 29.3185C476.246 28.8013 475.812 28.3341 475.262 28.3341C474.711 28.3341 474.261 28.8013 474.261 29.3185C474.261 29.8525 474.711 30.3196 475.262 30.3196ZM474.427 40.3809H476.079V31.7546H474.427V40.3809ZM482.465 38.8291C482.299 39.0127 481.965 39.1462 481.598 39.1462C481.114 39.1462 480.697 38.7123 480.697 38.1117V33.1561H482.732V31.7546H480.697V29.3853H479.078V31.7546H477.794V33.1561H479.078V38.2285C479.078 39.6133 480.013 40.5811 481.347 40.5811C481.965 40.5811 482.616 40.3475 483.083 39.9637L482.465 38.8291Z" fill="#6E7191"/>
<path d="M37.5629 41.8726C40.8727 41.8726 42.8546 40.1483 42.8546 37.5521C42.8546 35.0351 40.9123 34.163 37.9791 33.509C35.8783 33.0334 35.0459 32.7163 35.0459 31.7253C35.0459 30.9127 35.8189 30.2587 37.0476 30.2587C38.3557 30.2587 39.7232 30.7938 40.952 31.7848L42.478 29.6641C41.0709 28.475 39.3665 27.7813 37.1467 27.7813C34.1541 27.7813 32.0929 29.5056 32.0929 32.0226C32.0929 34.6585 34.1541 35.4711 37.0278 36.1251C39.1088 36.6008 39.9016 36.898 39.9016 37.8692C39.9016 38.7214 39.1484 39.3952 37.662 39.3952C35.9378 39.3952 34.4712 38.7214 33.183 37.6115L31.5182 39.6132C33.1037 41.0798 35.1847 41.8726 37.5629 41.8726ZM49.4413 31.1506C48.0143 31.1506 46.6072 31.5469 45.1604 32.2802L46.1315 34.2027C46.9441 33.7865 47.8359 33.4694 48.7872 33.4694C50.4719 33.4694 51.1655 34.4207 51.1655 35.5107V35.7287C50.2935 35.372 49.362 35.1936 48.5296 35.1936C46.1712 35.1936 44.2884 36.5809 44.2884 38.6025C44.2884 40.5645 45.9531 41.8726 48.1332 41.8726C49.2629 41.8726 50.4322 41.4168 51.1655 40.6042V41.6348H53.96V35.5107C53.96 32.8352 52.1168 31.1506 49.4413 31.1506ZM48.7872 39.8709C47.7963 39.8709 47.0432 39.3556 47.0432 38.5232C47.0432 37.6908 47.8954 37.0764 48.9458 37.0764C49.7386 37.0764 50.5115 37.2151 51.1655 37.4728V38.4043C50.9475 39.3556 49.8971 39.8709 48.7872 39.8709ZM56.5011 41.6348H59.3947V27.7813H56.5011V41.6348ZM66.8691 39.6331C65.4619 39.6331 64.5106 38.6619 64.253 37.2746H71.9625C71.9625 33.4694 70.0203 31.1506 66.8096 31.1506C63.8169 31.1506 61.4981 33.3901 61.4981 36.4818C61.4981 39.6331 63.916 41.8726 66.9681 41.8726C68.4744 41.8726 70.2383 41.2384 71.1499 40.2871L69.5248 38.6223C68.8708 39.2169 67.8204 39.6331 66.8691 39.6331ZM66.8492 33.3901C68.1375 33.3901 68.95 34.282 69.1879 35.5504H64.2728C64.5899 34.2423 65.561 33.3901 66.8492 33.3901ZM77.6659 41.8726C80.1829 41.8726 81.8477 40.5844 81.8477 38.5628C81.8477 36.3233 79.8658 35.7287 78.1019 35.2729C76.7146 34.8963 76.1398 34.7378 76.1398 34.1829C76.1398 33.6081 76.7344 33.2315 77.5271 33.2315C78.4586 33.2315 79.5685 33.6874 80.5 34.282L81.5504 32.419C80.4207 31.6659 78.9739 31.1506 77.5271 31.1506C75.0894 31.1506 73.5237 32.5379 73.5237 34.4801C73.5237 36.5017 75.1489 37.0764 77.2497 37.5917C78.3793 37.8692 79.2117 38.1466 79.2117 38.8007C79.2117 39.3952 78.6965 39.752 77.7253 39.752C76.6155 39.752 75.2678 39.2565 74.2174 38.5034L73.0481 40.3267C74.2768 41.3177 76.0209 41.8726 77.6659 41.8726ZM92.181 33.3108V31.3884H89.2875V41.6348H92.181V36.7395C92.181 34.8171 93.5486 33.5883 95.689 33.5883V31.1506C94.1233 31.1506 92.8549 31.983 92.181 33.3108ZM102.501 39.6331C101.093 39.6331 100.142 38.6619 99.8844 37.2746H107.594C107.594 33.4694 105.652 31.1506 102.441 31.1506C99.4484 31.1506 97.1296 33.3901 97.1296 36.4818C97.1296 39.6331 99.5475 41.8726 102.6 41.8726C104.106 41.8726 105.87 41.2384 106.781 40.2871L105.156 38.6223C104.502 39.2169 103.452 39.6331 102.501 39.6331ZM102.481 33.3901C103.769 33.3901 104.581 34.282 104.819 35.5504H99.9042C100.221 34.2423 101.192 33.3901 102.481 33.3901ZM115.894 31.1506C114.447 31.1506 113.258 31.7848 112.445 32.855V31.3884H109.552V45.0436H112.445V40.1682C113.258 41.2384 114.447 41.8726 115.894 41.8726C118.629 41.8726 120.61 39.6529 120.61 36.5017C120.61 33.3703 118.629 31.1506 115.894 31.1506ZM115.061 39.4349C113.535 39.4349 112.445 38.2259 112.445 36.5017C112.445 34.7972 113.535 33.5883 115.061 33.5883C116.667 33.5883 117.796 34.7972 117.796 36.5017C117.796 38.2259 116.667 39.4349 115.061 39.4349ZM127.607 41.8726C130.679 41.8726 133.196 39.4547 133.196 36.5017C133.196 33.5487 130.679 31.1506 127.607 31.1506C124.535 31.1506 122.018 33.5487 122.018 36.5017C122.018 39.4547 124.535 41.8726 127.607 41.8726ZM127.607 39.4349C126.061 39.4349 124.793 38.107 124.793 36.5017C124.793 34.8963 126.061 33.5883 127.607 33.5883C129.153 33.5883 130.402 34.8963 130.402 36.5017C130.402 38.107 129.153 39.4349 127.607 39.4349ZM138.128 33.3108V31.3884H135.235V41.6348H138.128V36.7395C138.128 34.8171 139.496 33.5883 141.636 33.5883V31.1506C140.071 31.1506 138.802 31.983 138.128 33.3108ZM148.963 39.0979C148.765 39.2961 148.369 39.4349 147.972 39.4349C147.437 39.4349 147.021 38.9592 147.021 38.2854V33.727H149.241V31.3884H147.021V28.5741H144.226V31.3884H142.819V33.727H144.226V38.7412C144.226 40.5844 145.495 41.8726 147.318 41.8726C148.131 41.8726 149.062 41.5159 149.657 40.9807L148.963 39.0979ZM155.277 41.8726C157.794 41.8726 159.459 40.5844 159.459 38.5628C159.459 36.3233 157.477 35.7287 155.713 35.2729C154.326 34.8963 153.751 34.7378 153.751 34.1829C153.751 33.6081 154.346 33.2315 155.138 33.2315C156.07 33.2315 157.18 33.6874 158.111 34.282L159.162 32.419C158.032 31.6659 156.585 31.1506 155.138 31.1506C152.701 31.1506 151.135 32.5379 151.135 34.4801C151.135 36.5017 152.76 37.0764 154.861 37.5917C155.99 37.8692 156.823 38.1466 156.823 38.8007C156.823 39.3952 156.308 39.752 155.336 39.752C154.227 39.752 152.879 39.2565 151.829 38.5034L150.659 40.3267C151.888 41.3177 153.632 41.8726 155.277 41.8726Z" fill="#211F54"/>
<path d="M62.169 362.943L29.0215 389.491V505.08L516.14 504.141V216.073L482.995 249.736C451.926 281.291 407.258 295.434 363.689 287.51C328.773 281.16 292.765 288.938 263.583 309.135L251.529 317.477C224.935 335.883 192.182 343.12 160.309 337.632C125.481 331.636 89.7528 340.85 62.169 362.943Z" fill="url(#paint0_linear_2976_38248)" fill-opacity="0.4"/>
<path d="M62.8812 259.372L29.0215 286.491V402.079L516.14 401.14V147.949L423.484 138.211C384.434 134.107 345.251 144.638 313.521 167.766L251.552 212.934C225.014 232.277 191.773 240.049 159.41 234.477C125.153 228.579 90.0121 237.642 62.8812 259.372Z" fill="url(#paint1_linear_2976_38248)" fill-opacity="0.4"/>
<path d="M30.8047 388.861L62.2192 363.366C89.751 341.021 125.591 331.655 160.534 337.671V337.671C192.264 343.134 224.87 335.93 251.344 317.607L263.758 309.015C292.828 288.895 328.7 281.146 363.483 287.472V287.472C407.147 295.413 451.9 281.105 482.859 249.307L514.705 216.597" stroke="#7D42FB" stroke-width="3.96378" stroke-linecap="round"/>
<path d="M30.8047 285.861L63.0598 259.683C90.0574 237.772 125.202 228.587 159.468 234.487V234.487C191.779 240.05 224.961 232.211 251.367 212.776L312.226 167.983C344.35 144.34 384.205 133.673 423.844 138.11L516.087 148.433" stroke="#FFCD42" stroke-width="3.96378" stroke-linecap="round"/>
<rect x="297.698" y="277.282" width="23.3566" height="23.2671" rx="11.6336" fill="#7D42FB" stroke="white" stroke-width="3.36921"/>
<g filter="url(#filter0_d_2976_38248)">
<path fill-rule="evenodd" clip-rule="evenodd" d="M233.081 139.607C225.891 139.607 220.062 145.436 220.062 152.626V231.4C220.062 238.59 225.891 244.419 233.081 244.419H299.791L306.181 254.243C308.021 257.072 312.163 257.072 314.003 254.243L320.393 244.419H387.104C394.294 244.419 400.123 238.59 400.123 231.4V152.626C400.123 145.436 394.294 139.607 387.104 139.607H233.081Z" fill="#FF0000" fill-opacity="0.01" shape-rendering="crispEdges"/>
</g>
<mask id="path-14-inside-1_2976_38248" fill="white">
<path fill-rule="evenodd" clip-rule="evenodd" d="M235.649 131.21C223.807 131.21 214.207 140.81 214.207 152.652V228.738C214.207 240.58 223.807 250.18 235.649 250.18H301.538L303.885 254.227C306.331 258.446 312.424 258.446 314.871 254.227L317.218 250.18H383.103C394.945 250.18 404.545 240.58 404.545 228.738V152.652C404.545 140.81 394.945 131.21 383.103 131.21H235.649Z"/>
</mask>
<path fill-rule="evenodd" clip-rule="evenodd" d="M235.649 131.21C223.807 131.21 214.207 140.81 214.207 152.652V228.738C214.207 240.58 223.807 250.18 235.649 250.18H301.538L303.885 254.227C306.331 258.446 312.424 258.446 314.871 254.227L317.218 250.18H383.103C394.945 250.18 404.545 240.58 404.545 228.738V152.652C404.545 140.81 394.945 131.21 383.103 131.21H235.649Z" fill="white"/>
<path d="M301.538 250.18L302.995 249.335L302.508 248.496H301.538V250.18ZM303.885 254.227L305.342 253.382L305.342 253.382L303.885 254.227ZM314.871 254.227L313.414 253.382L313.414 253.382L314.871 254.227ZM317.218 250.18V248.496H316.247L315.761 249.335L317.218 250.18ZM215.891 152.652C215.891 141.74 224.737 132.894 235.649 132.894V129.526C222.877 129.526 212.523 139.88 212.523 152.652H215.891ZM215.891 228.738V152.652H212.523V228.738H215.891ZM235.649 248.496C224.737 248.496 215.891 239.65 215.891 228.738H212.523C212.523 241.51 222.877 251.864 235.649 251.864V248.496ZM301.538 248.496H235.649V251.864H301.538V248.496ZM305.342 253.382L302.995 249.335L300.081 251.025L302.428 255.072L305.342 253.382ZM313.414 253.382C311.616 256.482 307.14 256.482 305.342 253.382L302.428 255.072C305.523 260.41 313.232 260.41 316.328 255.072L313.414 253.382ZM315.761 249.335L313.414 253.382L316.328 255.072L318.675 251.025L315.761 249.335ZM383.103 248.496H317.218V251.864H383.103V248.496ZM402.86 228.738C402.86 239.65 394.015 248.496 383.103 248.496V251.864C395.875 251.864 406.229 241.51 406.229 228.738H402.86ZM402.86 152.652V228.738H406.229V152.652H402.86ZM383.103 132.894C394.015 132.894 402.86 141.74 402.86 152.652H406.229C406.229 139.88 395.875 129.526 383.103 129.526V132.894ZM235.649 132.894H383.103V129.526H235.649V132.894Z" fill="#EFF0F7" mask="url(#path-14-inside-1_2976_38248)"/>
<circle cx="251.052" cy="175.675" r="7.57971" fill="#FF4267"/>
<circle cx="251.051" cy="175.676" r="9.1132" fill="#FFCD42"/>
<path d="M281.751 176.549C281.751 174.38 280.147 173.505 277.741 172.922V169.532C278.598 169.751 279.436 170.206 280.183 170.844L281.423 169.186C280.42 168.311 279.217 167.691 277.741 167.509V166.342H276.082V167.472C273.786 167.691 272.2 169.186 272.2 171.209C272.2 173.414 273.768 174.198 276.082 174.781V178.335C274.916 178.117 273.914 177.533 273.02 176.731L271.69 178.354C272.856 179.447 274.351 180.14 276.082 180.322V181.525H277.741V180.34C280.311 180.122 281.751 178.609 281.751 176.549ZM274.497 171.008C274.497 170.261 275.116 169.605 276.082 169.441V172.503C275.007 172.157 274.497 171.774 274.497 171.008ZM277.741 178.39V175.219C278.926 175.565 279.473 175.966 279.473 176.768C279.473 177.533 278.871 178.208 277.741 178.39ZM286.429 180.176H288.708V167.655H286.885L283.367 170.042L284.279 171.646L286.429 170.279V180.176ZM295.839 167.436C293.141 167.436 291.173 169.222 291.173 171.701C291.173 174.198 293.087 175.656 295.383 175.656C296.659 175.656 297.844 175.128 298.627 174.253C298.463 176.695 297.224 178.39 295.456 178.39C294.362 178.39 293.579 177.934 292.813 177.26L291.701 178.992C292.704 179.848 293.889 180.395 295.456 180.395C298.7 180.395 300.979 177.57 300.979 173.706C300.979 170.097 299.411 167.436 295.839 167.436ZM295.985 173.797C294.618 173.797 293.488 172.977 293.488 171.61C293.488 170.462 294.417 169.368 295.948 169.368C297.461 169.368 298.245 170.407 298.518 172.084C298.154 173.123 297.206 173.797 295.985 173.797ZM308.392 180.395C311.6 180.395 313.878 177.716 313.878 173.906C313.878 170.115 311.6 167.436 308.392 167.436C305.166 167.436 302.906 170.115 302.906 173.906C302.906 177.716 305.166 180.395 308.392 180.395ZM308.392 178.317C306.533 178.317 305.221 176.495 305.221 173.906C305.221 171.318 306.533 169.514 308.392 169.514C310.251 169.514 311.545 171.318 311.545 173.906C311.545 176.495 310.251 178.317 308.392 178.317ZM317.488 182.764C318.727 181.452 319.238 180.504 319.238 179.52C319.238 178.372 318.636 177.533 317.707 177.533C316.923 177.533 316.285 178.19 316.285 178.955C316.285 179.739 316.923 180.395 317.689 180.395C317.524 180.978 317.16 181.561 316.631 182.108L317.488 182.764ZM327.298 172.175C326.022 172.175 324.838 172.703 324.054 173.578C324.218 171.136 325.457 169.441 327.225 169.441C328.319 169.441 329.103 169.897 329.868 170.571L330.98 168.839C329.978 167.983 328.793 167.436 327.225 167.436C323.981 167.436 321.703 170.261 321.703 174.125C321.703 177.734 323.27 180.395 326.843 180.395C329.54 180.395 331.509 178.609 331.509 176.13C331.509 173.633 329.595 172.175 327.298 172.175ZM326.733 178.463C325.22 178.463 324.437 177.424 324.163 175.747C324.528 174.708 325.476 174.034 326.697 174.034C328.064 174.034 329.194 174.854 329.194 176.221C329.194 177.369 328.264 178.463 326.733 178.463ZM337.81 180.395C340.672 180.395 342.622 178.718 342.622 176.13C342.622 173.615 340.708 172.193 338.485 172.193C337.409 172.193 336.589 172.521 335.951 172.959L336.06 169.733H341.929V167.655H333.928L333.746 174.307L335.295 174.964C336.006 174.417 336.862 174.089 337.847 174.089C339.341 174.089 340.344 174.945 340.344 176.221C340.344 177.442 339.359 178.427 337.847 178.427C336.589 178.427 335.423 177.789 334.475 176.841L333.126 178.463C334.238 179.629 335.769 180.395 337.81 180.395ZM349.262 180.395C351.959 180.395 354.147 179.083 354.147 176.841C354.147 175.365 353.071 174.271 351.595 173.706C352.853 173.196 353.819 172.266 353.819 170.808C353.819 168.694 351.686 167.436 349.262 167.436C346.911 167.436 344.724 168.657 344.724 170.808C344.724 172.23 345.653 173.159 346.947 173.706C345.489 174.234 344.395 175.328 344.395 176.841C344.395 179.064 346.546 180.395 349.262 180.395ZM349.262 172.886C348.223 172.831 346.965 172.211 346.965 171.1C346.965 170.115 347.95 169.368 349.262 169.368C350.574 169.368 351.577 170.115 351.577 171.1C351.577 172.193 350.337 172.831 349.262 172.886ZM349.262 178.445C347.786 178.445 346.674 177.716 346.674 176.622C346.674 175.456 348.114 174.763 349.262 174.708C350.428 174.763 351.85 175.456 351.85 176.622C351.85 177.716 350.72 178.445 349.262 178.445Z" fill="#211F54"/>
<circle cx="251.05" cy="212.516" r="7.70269" fill="#563AFF"/>
<circle cx="251.051" cy="212.517" r="9.1132" fill="#7D42FB"/>
<path d="M281.751 213.39C281.751 211.221 280.147 210.346 277.741 209.762V206.372C278.598 206.591 279.436 207.047 280.183 207.685L281.423 206.026C280.42 205.151 279.217 204.532 277.741 204.349V203.183H276.082V204.313C273.786 204.532 272.2 206.026 272.2 208.049C272.2 210.255 273.768 211.038 276.082 211.622V215.176C274.916 214.957 273.914 214.374 273.02 213.572L271.69 215.194C272.856 216.288 274.351 216.98 276.082 217.162V218.365H277.741V217.181C280.311 216.962 281.751 215.449 281.751 213.39ZM274.497 207.849C274.497 207.101 275.116 206.445 276.082 206.281V209.343C275.007 208.997 274.497 208.614 274.497 207.849ZM277.741 215.23V212.059C278.926 212.405 279.473 212.806 279.473 213.608C279.473 214.374 278.871 215.048 277.741 215.23ZM286.429 217.017H288.708V204.495H286.885L283.367 206.883L284.279 208.487L286.429 207.12V217.017ZM297.279 217.017H299.557V214.301H301.288V212.351H299.557V204.495H296.823L290.899 212.533L291.118 214.301H297.279V217.017ZM293.324 212.351L297.279 206.974V212.351H293.324ZM307.612 217.235C310.309 217.235 312.496 215.923 312.496 213.681C312.496 212.205 311.421 211.111 309.945 210.546C311.202 210.036 312.168 209.106 312.168 207.648C312.168 205.534 310.036 204.276 307.612 204.276C305.261 204.276 303.073 205.498 303.073 207.648C303.073 209.07 304.003 209.999 305.297 210.546C303.839 211.075 302.745 212.168 302.745 213.681C302.745 215.905 304.896 217.235 307.612 217.235ZM307.612 209.726C306.573 209.671 305.315 209.052 305.315 207.94C305.315 206.956 306.299 206.208 307.612 206.208C308.924 206.208 309.926 206.956 309.926 207.94C309.926 209.033 308.687 209.671 307.612 209.726ZM307.612 215.285C306.135 215.285 305.024 214.556 305.024 213.462C305.024 212.296 306.463 211.603 307.612 211.549C308.778 211.603 310.2 212.296 310.2 213.462C310.2 214.556 309.07 215.285 307.612 215.285ZM316.082 219.605C317.321 218.292 317.832 217.345 317.832 216.36C317.832 215.212 317.23 214.374 316.301 214.374C315.517 214.374 314.879 215.03 314.879 215.795C314.879 216.579 315.517 217.235 316.282 217.235C316.118 217.819 315.754 218.402 315.225 218.949L316.082 219.605ZM324.707 217.235C327.514 217.235 329.373 215.704 329.373 213.554C329.373 211.859 328.061 210.893 326.731 210.583C328.061 210.182 329.1 209.197 329.1 207.685C329.1 205.698 327.332 204.276 324.653 204.276C322.52 204.276 321.062 205.224 320.06 206.482L321.408 207.867C322.265 206.919 323.213 206.318 324.47 206.318C325.819 206.318 326.785 207.029 326.785 208.049C326.785 209.143 325.819 209.744 324.343 209.726H322.939V211.694L324.343 211.676C326.129 211.676 327.04 212.26 327.04 213.371C327.04 214.465 326.129 215.212 324.616 215.212C323.268 215.212 322.065 214.611 321.208 213.626L319.823 215.121C320.843 216.342 322.502 217.235 324.707 217.235ZM336.928 209.015C335.652 209.015 334.467 209.544 333.683 210.419C333.847 207.976 335.087 206.281 336.855 206.281C337.948 206.281 338.732 206.737 339.498 207.411L340.609 205.68C339.607 204.823 338.422 204.276 336.855 204.276C333.61 204.276 331.332 207.101 331.332 210.965C331.332 214.574 332.9 217.235 336.472 217.235C339.169 217.235 341.138 215.449 341.138 212.97C341.138 210.473 339.224 209.015 336.928 209.015ZM336.363 215.303C334.85 215.303 334.066 214.264 333.793 212.588C334.157 211.549 335.105 210.874 336.326 210.874C337.693 210.874 338.823 211.694 338.823 213.061C338.823 214.21 337.894 215.303 336.363 215.303ZM347.731 217.235C350.429 217.235 352.616 215.923 352.616 213.681C352.616 212.205 351.54 211.111 350.064 210.546C351.322 210.036 352.288 209.106 352.288 207.648C352.288 205.534 350.155 204.276 347.731 204.276C345.38 204.276 343.193 205.498 343.193 207.648C343.193 209.07 344.122 209.999 345.416 210.546C343.958 211.075 342.865 212.168 342.865 213.681C342.865 215.905 345.015 217.235 347.731 217.235ZM347.731 209.726C346.692 209.671 345.435 209.052 345.435 207.94C345.435 206.956 346.419 206.208 347.731 206.208C349.043 206.208 350.046 206.956 350.046 207.94C350.046 209.033 348.807 209.671 347.731 209.726ZM347.731 215.285C346.255 215.285 345.143 214.556 345.143 213.462C345.143 212.296 346.583 211.603 347.731 211.549C348.898 211.603 350.319 212.296 350.319 213.462C350.319 214.556 349.189 215.285 347.731 215.285Z" fill="#211F54"/>
<defs>
<filter id="filter0_d_2976_38248" x="183.006" y="116.026" width="254.173" height="190.871" filterUnits="userSpaceOnUse" color-interpolation-filters="sRGB">
<feFlood flood-opacity="0" result="BackgroundImageFix"/>
<feColorMatrix in="SourceAlpha" type="matrix" values="0 0 0 0 0 0 0 0 0 0 0 0 0 0 0 0 0 0 127 0" result="hardAlpha"/>
<feOffset dy="13.475"/>
<feGaussianBlur stdDeviation="18.5282"/>
<feComposite in2="hardAlpha" operator="out"/>
<feColorMatrix type="matrix" values="0 0 0 0 0.127552 0 0 0 0 0.123438 0 0 0 0 0.329167 0 0 0 0.06 0"/>
<feBlend mode="normal" in2="BackgroundImageFix" result="effect1_dropShadow_2976_38248"/>
<feBlend mode="normal" in="SourceGraphic" in2="effect1_dropShadow_2976_38248" result="shape"/>
</filter>
<linearGradient id="paint0_linear_2976_38248" x1="272.473" y1="175.884" x2="272.473" y2="504.457" gradientUnits="userSpaceOnUse">
<stop stop-color="#7D42FB"/>
<stop offset="1" stop-color="#7D42FB" stop-opacity="0"/>
</linearGradient>
<linearGradient id="paint1_linear_2976_38248" x1="272.473" y1="72.8833" x2="272.473" y2="401.457" gradientUnits="userSpaceOnUse">
<stop stop-color="#FFCD42"/>
<stop offset="1" stop-color="#FFCD42" stop-opacity="0"/>
</linearGradient>
</defs>
</svg>
