<svg width="260" height="210" viewBox="0 0 260 210" fill="none" xmlns="http://www.w3.org/2000/svg">
<rect width="260" height="210" fill="white"/>
<line x1="15.3242" y1="156.321" x2="240.315" y2="156.321" stroke="#EFF0F7" stroke-width="0.896293"/>
<path d="M39.8125 90.074C39.8125 88.6336 40.9802 87.4658 42.4207 87.4658V87.4658C43.8612 87.4658 45.0289 88.6336 45.0289 90.074V156.768H39.8125V90.074Z" fill="#7D42FB"/>
<path d="M53.9922 111.186C53.9922 109.745 55.1599 108.578 56.6004 108.578V108.578C58.0409 108.578 59.2086 109.745 59.2086 111.186V156.768H53.9922V111.186Z" fill="#FF4267"/>
<path d="M68.1719 101.152C68.1719 99.7112 69.3396 98.5435 70.7801 98.5435V98.5435C72.2206 98.5435 73.3883 99.7112 73.3883 101.152V156.768H68.1719V101.152Z" fill="#2FF2B8"/>
<path d="M111.031 59.8875C111.031 58.447 112.199 57.2793 113.639 57.2793V57.2793C115.08 57.2793 116.248 58.447 116.248 59.8875V156.768H111.031V59.8875Z" fill="#7D42FB"/>
<path d="M125.211 69.7527C125.211 68.3123 126.379 67.1445 127.819 67.1445V67.1445C129.26 67.1445 130.427 68.3123 130.427 69.7527V156.769H125.211V69.7527Z" fill="#FF4267"/>
<path d="M139.391 40.2254C139.391 38.7849 140.558 37.6172 141.999 37.6172V37.6172C143.439 37.6172 144.607 38.7849 144.607 40.2254V156.769H139.391V40.2254Z" fill="#2FF2B8"/>
<path d="M182.25 85.6439C182.25 84.2034 183.418 83.0356 184.858 83.0356V83.0356C186.299 83.0356 187.466 84.2034 187.466 85.6439V156.769H182.25V85.6439Z" fill="#7D42FB"/>
<path d="M196.43 57.6727C196.43 56.2322 197.597 55.0645 199.038 55.0645V55.0645C200.478 55.0645 201.646 56.2322 201.646 57.6727V156.769H196.43V57.6727Z" fill="#FF4267"/>
<path d="M210.609 29.9666C210.609 28.5261 211.777 27.3584 213.218 27.3584V27.3584C214.658 27.3584 215.826 28.5261 215.826 29.9666V156.769H210.609V29.9666Z" fill="#2FF2B8"/>
<path d="M33.2702 179.42C34.7222 179.42 35.744 178.366 35.744 176.882V171.902H34.4103V176.796C34.4103 177.624 33.8833 178.205 33.1627 178.205C32.6034 178.205 32.0334 177.828 31.7752 177.312L30.8718 178.194C31.345 178.915 32.356 179.42 33.2702 179.42ZM39.6864 173.601C38.9873 173.601 38.2559 173.795 37.4708 174.182L37.9225 175.096C38.3958 174.86 38.9013 174.677 39.4283 174.677C40.4393 174.677 40.7835 175.301 40.7835 175.946V176.086C40.278 175.903 39.7402 175.795 39.2347 175.795C37.9763 175.795 36.976 176.548 36.976 177.645C36.976 178.721 37.858 179.42 39.0411 179.42C39.6864 179.42 40.3748 179.14 40.7835 178.635V179.291H42.0634V175.946C42.0634 174.537 41.1599 173.601 39.6864 173.601ZM39.3315 178.463C38.7077 178.463 38.2344 178.129 38.2344 177.602C38.2344 177.075 38.7722 176.71 39.4283 176.71C39.9123 176.71 40.3748 176.785 40.7835 176.914V177.549C40.6437 178.14 39.9661 178.463 39.3315 178.463ZM46.6166 173.601C45.8744 173.601 45.2291 173.956 44.8957 174.483V173.73H43.5835V179.291H44.8957V175.925C44.8957 175.247 45.498 174.72 46.2509 174.72C46.9392 174.72 47.4125 175.247 47.4125 176.011V179.291H48.6924V175.752C48.6924 174.483 47.8427 173.601 46.6166 173.601ZM52.7434 179.291H58.175V178.065H54.83L56.3788 176.817C57.648 175.838 58.0997 175.053 58.0997 174.075C58.0997 172.709 56.9811 171.773 55.5184 171.773C54.3245 171.773 53.4318 172.3 52.7327 173.214L53.6039 174.021C54.1417 173.375 54.7009 172.978 55.4753 172.978C56.1422 172.978 56.7337 173.408 56.7337 174.107C56.7337 174.709 56.4003 175.268 55.4646 176.021L52.7434 178.194V179.291ZM62.528 179.42C64.421 179.42 65.7654 177.839 65.7654 175.591C65.7654 173.354 64.421 171.773 62.528 171.773C60.6243 171.773 59.2906 173.354 59.2906 175.591C59.2906 177.839 60.6243 179.42 62.528 179.42ZM62.528 178.194C61.431 178.194 60.6566 177.118 60.6566 175.591C60.6566 174.064 61.431 172.999 62.528 172.999C63.6251 172.999 64.3887 174.064 64.3887 175.591C64.3887 177.118 63.6251 178.194 62.528 178.194ZM66.734 179.291H72.1655V178.065H68.8206L70.3694 176.817C71.6385 175.838 72.0903 175.053 72.0903 174.075C72.0903 172.709 70.9717 171.773 69.5089 171.773C68.3151 171.773 67.4224 172.3 66.7233 173.214L67.5945 174.021C68.1322 173.375 68.6915 172.978 69.4659 172.978C70.1328 172.978 70.7243 173.408 70.7243 174.107C70.7243 174.709 70.3909 175.268 69.4552 176.021L66.734 178.194V179.291ZM75.9055 179.42C77.5619 179.42 78.6589 178.517 78.6589 177.247C78.6589 176.247 77.8845 175.677 77.0994 175.494C77.8845 175.258 78.4976 174.677 78.4976 173.784C78.4976 172.612 77.4543 171.773 75.8733 171.773C74.6149 171.773 73.7544 172.332 73.1629 173.074L73.9588 173.892C74.4643 173.332 75.0236 172.978 75.7657 172.978C76.5616 172.978 77.1317 173.397 77.1317 173.999C77.1317 174.645 76.5616 175 75.6904 174.989H74.8622V176.15L75.6904 176.14C76.7445 176.14 77.2822 176.484 77.2822 177.14C77.2822 177.785 76.7445 178.226 75.8517 178.226C75.0558 178.226 74.346 177.871 73.8405 177.29L73.023 178.172C73.6254 178.893 74.6041 179.42 75.9055 179.42Z" fill="#4A4566"/>
<path d="M111.892 173.128V171.902H106.331V179.291H107.675V176.226H111.483V175H107.675V173.128H111.892ZM115.606 178.366C114.746 178.366 114.133 177.764 113.993 176.893H118.306C118.306 174.87 117.295 173.601 115.574 173.601C113.982 173.601 112.724 174.817 112.724 176.495C112.724 178.205 114.047 179.42 115.649 179.42C116.456 179.42 117.424 179.076 117.908 178.56L117.155 177.785C116.8 178.129 116.166 178.366 115.606 178.366ZM115.585 174.655C116.424 174.655 116.918 175.236 117.037 176.021H114.004C114.176 175.193 114.789 174.655 115.585 174.655ZM122.757 173.601C121.907 173.601 121.219 173.999 120.789 174.666V171.773H119.477V179.291H120.789V178.345C121.219 179.022 121.907 179.42 122.757 179.42C124.23 179.42 125.317 178.215 125.317 176.505C125.317 174.806 124.23 173.601 122.757 173.601ZM122.402 178.302C121.488 178.302 120.832 177.549 120.832 176.505C120.832 175.462 121.488 174.72 122.402 174.72C123.349 174.72 124.015 175.462 124.015 176.505C124.015 177.549 123.349 178.302 122.402 178.302ZM129.099 179.291H134.53V178.065H131.185L132.734 176.817C134.003 175.838 134.455 175.053 134.455 174.075C134.455 172.709 133.336 171.773 131.874 171.773C130.68 171.773 129.787 172.3 129.088 173.214L129.959 174.021C130.497 173.375 131.056 172.978 131.831 172.978C132.497 172.978 133.089 173.408 133.089 174.107C133.089 174.709 132.755 175.268 131.82 176.021L129.099 178.194V179.291ZM138.883 179.42C140.776 179.42 142.121 177.839 142.121 175.591C142.121 173.354 140.776 171.773 138.883 171.773C136.979 171.773 135.646 173.354 135.646 175.591C135.646 177.839 136.979 179.42 138.883 179.42ZM138.883 178.194C137.786 178.194 137.012 177.118 137.012 175.591C137.012 174.064 137.786 172.999 138.883 172.999C139.98 172.999 140.744 174.064 140.744 175.591C140.744 177.118 139.98 178.194 138.883 178.194ZM143.089 179.291H148.521V178.065H145.176L146.725 176.817C147.994 175.838 148.445 175.053 148.445 174.075C148.445 172.709 147.327 171.773 145.864 171.773C144.67 171.773 143.778 172.3 143.078 173.214L143.95 174.021C144.487 173.375 145.047 172.978 145.821 172.978C146.488 172.978 147.079 173.408 147.079 174.107C147.079 174.709 146.746 175.268 145.81 176.021L143.089 178.194V179.291ZM152.261 179.42C153.917 179.42 155.014 178.517 155.014 177.247C155.014 176.247 154.24 175.677 153.455 175.494C154.24 175.258 154.853 174.677 154.853 173.784C154.853 172.612 153.809 171.773 152.228 171.773C150.97 171.773 150.11 172.332 149.518 173.074L150.314 173.892C150.819 173.332 151.379 172.978 152.121 172.978C152.917 172.978 153.487 173.397 153.487 173.999C153.487 174.645 152.917 175 152.046 174.989H151.217V176.15L152.046 176.14C153.1 176.14 153.637 176.484 153.637 177.14C153.637 177.785 153.1 178.226 152.207 178.226C151.411 178.226 150.701 177.871 150.196 177.29L149.378 178.172C149.981 178.893 150.959 179.42 152.261 179.42Z" fill="#4A4566"/>
<path d="M176.526 179.291H177.86V174.354L180.301 178.861L182.732 174.354V179.291H184.076V171.902H182.732L180.301 176.409L177.86 171.902H176.526V179.291ZM188.127 173.601C187.428 173.601 186.697 173.795 185.912 174.182L186.363 175.096C186.837 174.86 187.342 174.677 187.869 174.677C188.88 174.677 189.224 175.301 189.224 175.946V176.086C188.719 175.903 188.181 175.795 187.675 175.795C186.417 175.795 185.417 176.548 185.417 177.645C185.417 178.721 186.299 179.42 187.482 179.42C188.127 179.42 188.816 179.14 189.224 178.635V179.291H190.504V175.946C190.504 174.537 189.601 173.601 188.127 173.601ZM187.772 178.463C187.148 178.463 186.675 178.129 186.675 177.602C186.675 177.075 187.213 176.71 187.869 176.71C188.353 176.71 188.816 176.785 189.224 176.914V177.549C189.084 178.14 188.407 178.463 187.772 178.463ZM193.336 174.784V173.73H192.024V179.291H193.336V176.484C193.336 175.43 194.132 174.72 195.326 174.72V173.601C194.423 173.601 193.691 174.064 193.336 174.784ZM199.052 179.291H204.484V178.065H201.139L202.687 176.817C203.957 175.838 204.408 175.053 204.408 174.075C204.408 172.709 203.29 171.773 201.827 171.773C200.633 171.773 199.74 172.3 199.041 173.214L199.912 174.021C200.45 173.375 201.01 172.978 201.784 172.978C202.451 172.978 203.042 173.408 203.042 174.107C203.042 174.709 202.709 175.268 201.773 176.021L199.052 178.194V179.291ZM208.837 179.42C210.73 179.42 212.074 177.839 212.074 175.591C212.074 173.354 210.73 171.773 208.837 171.773C206.933 171.773 205.599 173.354 205.599 175.591C205.599 177.839 206.933 179.42 208.837 179.42ZM208.837 178.194C207.74 178.194 206.965 177.118 206.965 175.591C206.965 174.064 207.74 172.999 208.837 172.999C209.934 172.999 210.697 174.064 210.697 175.591C210.697 177.118 209.934 178.194 208.837 178.194ZM213.043 179.291H218.474V178.065H215.129L216.678 176.817C217.947 175.838 218.399 175.053 218.399 174.075C218.399 172.709 217.28 171.773 215.818 171.773C214.624 171.773 213.731 172.3 213.032 173.214L213.903 174.021C214.441 173.375 215 172.978 215.775 172.978C216.441 172.978 217.033 173.408 217.033 174.107C217.033 174.709 216.699 175.268 215.764 176.021L213.043 178.194V179.291ZM222.214 179.42C223.87 179.42 224.968 178.517 224.968 177.247C224.968 176.247 224.193 175.677 223.408 175.494C224.193 175.258 224.806 174.677 224.806 173.784C224.806 172.612 223.763 171.773 222.182 171.773C220.923 171.773 220.063 172.332 219.471 173.074L220.267 173.892C220.773 173.332 221.332 172.978 222.074 172.978C222.87 172.978 223.44 173.397 223.44 173.999C223.44 174.645 222.87 175 221.999 174.989H221.171V176.15L221.999 176.14C223.053 176.14 223.591 176.484 223.591 177.14C223.591 177.785 223.053 178.226 222.16 178.226C221.364 178.226 220.655 177.871 220.149 177.29L219.332 178.172C219.934 178.893 220.913 179.42 222.214 179.42Z" fill="#4A4566"/>
</svg>
