<svg width="64" height="64" viewBox="0 0 64 64" fill="none" xmlns="http://www.w3.org/2000/svg">
<path opacity="0.5" d="M23.3352 27.085C24.42 26.4578 25.6679 26.4066 26.7495 26.8226C27.6519 27.1714 28.6823 26.8834 29.2967 26.1346C30.3911 24.8002 31.2711 23.2898 31.8887 21.6482C32.2439 20.7074 31.9079 19.6771 31.1399 19.0275C30.2823 18.3011 29.7351 17.2163 29.7351 16.0003C29.7351 14.7843 30.2823 13.6995 31.1431 12.9731C31.9079 12.3235 32.2439 11.2932 31.8919 10.3524C31.2711 8.71078 30.3911 7.1972 29.2999 5.86602C28.6855 5.12043 27.6551 4.83243 26.7527 5.17803C25.6679 5.59402 24.42 5.53962 23.3352 4.91563C22.2472 4.28844 21.5752 3.22605 21.3992 2.07406C21.2552 1.13327 20.5096 0.381284 19.5688 0.224485C18.7144 0.0772871 17.8344 0.000488281 16.9352 0.000488281C16.0361 0.000488281 15.1561 0.0772871 14.3017 0.224485C13.3609 0.381284 12.6153 1.13327 12.4713 2.07406C12.2953 3.22605 11.6233 4.28844 10.5353 4.91563C9.45053 5.53962 8.20255 5.59402 7.12096 5.17803C6.21857 4.82923 5.18498 5.11723 4.57379 5.86282C3.4794 7.1972 2.59941 8.71078 1.97862 10.3524C1.62663 11.29 1.96262 12.3235 2.72741 12.9731C3.5882 13.6995 4.1354 14.7843 4.1354 16.0003C4.1354 17.2163 3.5882 18.3011 2.72741 19.0275C1.96262 19.6771 1.62663 20.7106 1.97862 21.6482C2.59941 23.2898 3.4794 24.8034 4.57059 26.1346C5.18498 26.8802 6.21537 27.1682 7.11776 26.8226C8.19935 26.4066 9.45053 26.4578 10.5321 27.085C11.6201 27.7122 12.2921 28.7745 12.4681 29.9233C12.6121 30.8641 13.3577 31.6161 14.2953 31.7761C15.1561 31.9233 16.0361 32.0001 16.9352 32.0001C17.8344 32.0001 18.7144 31.9233 19.5688 31.7761C20.5064 31.6161 21.252 30.8641 21.396 29.9233C21.5752 28.7745 22.2472 27.7122 23.3352 27.085Z" fill="#FF813A"/>
<path d="M16.9361 9.60059C13.4001 9.60059 10.5361 12.4646 10.5361 16.0005C10.5361 19.5365 13.4001 22.4004 16.9361 22.4004C20.472 22.4004 23.336 19.5365 23.336 16.0005C23.336 12.4646 20.472 9.60059 16.9361 9.60059Z" fill="white"/>
<path d="M50.8549 57.6096C52.2629 56.7968 53.8885 56.7264 55.2965 57.2704C56.4676 57.7216 57.8116 57.3472 58.6084 56.3776C60.0292 54.6464 61.1748 52.6784 61.978 50.544C62.4388 49.3217 62.0036 47.9809 61.0052 47.1393C59.8852 46.1921 59.1748 44.7841 59.1748 43.2033C59.1748 41.6194 59.8852 40.2146 61.0052 39.2674C62.0004 38.4226 62.4388 37.0818 61.978 35.8626C61.1716 33.7283 60.0292 31.7603 58.6084 30.0291C57.8116 29.0563 56.4708 28.6851 55.2965 29.1363C53.8885 29.6803 52.2661 29.6099 50.8549 28.7971C49.4405 27.9811 48.5669 26.6019 48.3365 25.1044C48.1477 23.882 47.1814 22.9028 45.959 22.6948C44.8454 22.4996 43.703 22.4004 42.535 22.4004C41.367 22.4004 40.2246 22.4996 39.1111 22.6884C37.8919 22.8964 36.9223 23.8724 36.7335 25.098C36.5031 26.5923 35.6295 27.9715 34.2151 28.7907C32.8071 29.6035 31.1815 29.6739 29.7736 29.1299C28.6024 28.6787 27.2584 29.0531 26.4616 30.0227C25.0408 31.7539 23.8952 33.7219 23.092 35.8562C22.6313 37.0786 23.0664 38.4194 24.0648 39.261C25.1848 40.2114 25.8952 41.6162 25.8952 43.2001C25.8952 44.7841 25.1848 46.1889 24.0648 47.1361C23.0696 47.9809 22.6313 49.3217 23.092 50.5409C23.8984 52.6752 25.0408 54.6432 26.4616 56.3744C27.2584 57.3472 28.5992 57.7184 29.7736 57.2672C31.1815 56.7232 32.8039 56.7936 34.2151 57.6064C35.6295 58.4224 36.5031 59.8015 36.7335 61.2991C36.9223 62.5215 37.8887 63.5007 39.1111 63.7087C40.2246 63.9007 41.367 63.9999 42.535 63.9999C43.703 63.9999 44.8454 63.9007 45.959 63.7119C47.1782 63.5039 48.1477 62.5279 48.3365 61.3023C48.5669 59.8079 49.4405 58.4256 50.8549 57.6096Z" fill="#FF813A"/>
<path d="M42.5351 35.1997C38.1159 35.1997 34.5352 38.7805 34.5352 43.1996C34.5352 47.6188 38.1159 51.1995 42.5351 51.1995C46.9542 51.1995 50.535 47.6188 50.535 43.1996C50.535 38.7805 46.9542 35.1997 42.5351 35.1997Z" fill="white"/>
</svg>
