<svg width="388" height="110" viewBox="0 0 388 110" fill="none" xmlns="http://www.w3.org/2000/svg">
<g clip-path="url(#clip0_2942_28905)">
<rect width="388" height="110" fill="white"/>
<path opacity="0.1" d="M0 -0.174805H389.468V110.174H0V-0.174805Z" fill="#7D42FB"/>
<mask id="mask0_2942_28905" style="mask-type:alpha" maskUnits="userSpaceOnUse" x="0" y="-1" width="389" height="112">
<path d="M1 0.325195H388V109.674H1V0.325195Z" fill="#7D42FB" stroke="#7D42FB"/>
</mask>
<g mask="url(#mask0_2942_28905)">
<path opacity="0.3" fill-rule="evenodd" clip-rule="evenodd" d="M456.115 162.554C451.553 170.898 439.532 174.333 429.897 179.177C420.932 183.685 412.222 188.183 402.08 189.722C390.141 191.533 375.635 195.026 367.171 188.694C358.646 182.316 365.273 170.031 363.103 160.563C361.139 151.995 350.265 144.275 355.1 136.034C359.987 127.704 375.098 128.616 384.762 123.645C393.675 119.062 399.003 109.219 409.195 108.214C419.54 107.193 427.755 113.605 435.515 118.639C443.089 123.553 449.621 129.267 453.108 136.7C456.928 144.845 460.72 154.128 456.115 162.554Z" stroke="#7D42FB"/>
<path opacity="0.3" fill-rule="evenodd" clip-rule="evenodd" d="M475.22 166.239C468.979 177.662 452.538 182.37 439.361 189.005C427.1 195.182 415.188 201.344 401.322 203.454C384.998 205.94 365.164 210.728 353.599 202.065C341.95 193.339 351.021 176.52 348.063 163.561C345.386 151.834 330.527 141.273 337.145 129.99C343.834 118.586 364.492 119.826 377.709 113.018C389.898 106.739 397.191 93.2636 411.125 91.8825C425.269 90.4805 436.494 99.2523 447.099 106.139C457.449 112.861 466.373 120.68 471.134 130.854C476.348 141.998 481.523 154.703 475.22 166.239Z" stroke="#7D42FB"/>
<path opacity="0.3" fill-rule="evenodd" clip-rule="evenodd" d="M492.476 169.567C484.716 183.773 464.286 189.63 447.91 197.883C432.673 205.562 417.87 213.227 400.639 215.857C380.354 218.95 355.708 224.909 341.341 214.14C326.871 203.294 338.149 182.38 334.479 166.268C331.158 151.688 312.7 138.561 320.928 124.53C329.244 110.35 354.912 111.885 371.338 103.417C386.485 95.608 395.554 78.8516 412.869 77.1306C430.445 75.3826 444.389 86.2874 457.563 94.8473C470.421 103.202 481.506 112.922 487.417 125.571C493.889 139.426 500.313 155.221 492.476 169.567Z" stroke="#7D42FB"/>
<path opacity="0.3" fill-rule="evenodd" clip-rule="evenodd" d="M508.5 172.658C499.328 189.444 475.194 196.369 455.848 206.126C437.847 215.207 420.356 224.263 400.003 227.374C376.04 231.033 346.926 238.078 329.958 225.354C312.868 212.54 326.198 187.822 321.866 168.782C317.947 151.553 296.147 136.042 305.871 119.46C315.696 102.701 346.018 104.513 365.424 94.5024C383.319 85.2731 394.036 65.4685 414.489 63.4323C435.251 61.3656 451.719 74.2491 467.278 84.3628C482.464 94.2346 495.555 105.719 502.535 120.666C510.177 137.038 517.761 155.704 508.5 172.658Z" stroke="#7D42FB"/>
<path opacity="0.3" fill-rule="evenodd" clip-rule="evenodd" d="M525.141 175.866C514.504 195.337 486.522 203.368 464.092 214.688C443.22 225.217 422.941 235.724 399.343 239.331C371.562 243.578 337.807 251.754 318.138 237C298.327 222.139 313.785 193.472 308.768 171.392C304.228 151.412 278.957 133.426 290.234 114.195C301.631 94.7588 336.782 96.8556 359.281 85.2451C380.03 74.5383 392.46 51.5709 416.172 49.2066C440.242 46.8083 459.331 61.7477 477.366 73.4751C494.97 84.923 510.145 98.2389 518.233 115.572C527.091 134.558 535.881 156.204 525.141 175.866Z" stroke="#7D42FB"/>
<path opacity="0.3" fill-rule="evenodd" clip-rule="evenodd" d="M545.478 179.787C533.052 202.537 500.367 211.926 474.166 225.147C449.786 237.453 426.099 249.731 398.537 253.949C366.088 258.915 326.66 268.467 303.69 251.23C280.554 233.871 298.613 200.379 292.758 174.583C287.459 151.24 257.947 130.23 271.122 107.76C284.436 85.0516 325.492 87.4982 351.773 73.9309C376.009 61.4197 390.53 34.5854 418.227 31.8214C446.341 29.0154 468.635 46.4695 489.697 60.1679C510.256 73.5398 527.978 89.0965 537.421 109.347C547.764 131.527 558.026 156.815 545.478 179.787Z" stroke="#7D42FB"/>
<path opacity="0.3" fill-rule="evenodd" clip-rule="evenodd" d="M567.664 184.066C553.285 210.391 515.471 221.259 485.157 236.563C456.95 250.803 429.545 265.015 397.658 269.897C360.116 275.643 314.501 286.701 287.93 266.759C261.166 246.673 282.064 207.915 275.293 178.065C269.166 151.054 235.027 126.744 250.272 100.741C265.679 74.4627 313.176 77.2899 343.583 61.5887C371.624 47.1094 388.427 16.0563 420.471 12.8559C452.995 9.60737 478.784 29.8006 503.15 45.6515C526.933 61.1233 547.433 79.1238 558.352 102.557C570.317 128.221 582.184 157.482 567.664 184.066Z" stroke="#7D42FB"/>
<path opacity="0.3" fill-rule="evenodd" clip-rule="evenodd" d="M589.235 188.225C572.955 218.029 530.154 230.334 495.843 247.658C463.916 263.781 432.897 279.87 396.802 285.4C354.311 291.908 302.679 304.426 272.607 281.855C242.316 259.117 265.975 215.24 258.314 181.449C251.382 150.871 212.745 123.353 230.002 93.9161C247.443 64.1667 301.203 67.3643 335.621 49.5882C367.36 33.1954 386.382 -1.95909 422.651 -5.5841C459.465 -9.26336 488.652 13.5948 516.228 31.5365C543.145 49.05 566.347 69.4262 578.706 95.9519C592.243 125.006 605.672 158.13 589.235 188.225Z" stroke="#7D42FB"/>
<path opacity="0.3" fill-rule="evenodd" clip-rule="evenodd" d="M608.957 192.029C590.943 225.012 543.582 238.63 505.613 257.805C470.283 275.647 435.959 293.455 396.021 299.573C349.003 306.779 291.871 320.633 258.598 295.656C225.082 270.494 251.264 221.937 242.79 184.543C235.122 150.704 192.371 120.253 211.469 87.6759C230.77 54.753 290.256 58.2897 328.34 38.6161C363.462 20.4736 384.512 -18.4307 424.645 -22.4437C465.38 -26.5171 497.674 -1.22238 528.186 18.6328C557.969 38.013 583.64 60.5611 597.315 89.9151C612.29 122.067 627.147 158.724 608.957 192.029Z" stroke="#7D42FB"/>
<path opacity="0.3" fill-rule="evenodd" clip-rule="evenodd" d="M629.91 196.069C610.052 232.429 557.846 247.443 515.993 268.584C477.049 288.256 439.214 307.885 395.189 314.632C343.364 322.578 280.387 337.855 243.712 310.318C206.771 282.584 235.633 229.053 226.295 187.831C217.845 150.528 170.723 116.961 191.777 81.0471C213.055 44.7524 278.625 48.6489 320.604 26.96C359.319 6.95762 382.525 -35.931 426.763 -40.3564C471.664 -44.848 507.259 -16.964 540.891 4.92217C573.716 26.2862 602.013 51.1409 617.083 83.5014C633.589 118.944 649.964 159.354 629.91 196.069Z" stroke="#7D42FB"/>
<path opacity="0.3" fill-rule="evenodd" clip-rule="evenodd" d="M652.713 200.467C630.847 240.503 573.37 257.037 527.29 280.315C484.412 301.975 442.754 323.591 394.286 331.024C337.226 339.772 267.89 356.595 227.514 326.278C186.844 295.74 218.624 236.797 208.346 191.408C199.045 150.334 147.167 113.374 170.349 73.8317C193.777 33.868 265.966 38.1564 312.187 14.2734C354.811 -7.75053 380.363 -54.9752 429.068 -59.8493C478.503 -64.7965 517.691 -34.0958 554.717 -9.99774C590.858 13.5244 622.008 40.8917 638.599 76.5214C656.768 115.546 674.794 160.041 652.713 200.467Z" stroke="#7D42FB"/>
</g>
</g>
<defs>
<clipPath id="clip0_2942_28905">
<rect width="388" height="110" fill="white"/>
</clipPath>
</defs>
</svg>
