<svg width="68" height="25" viewBox="0 0 68 25" fill="none" xmlns="http://www.w3.org/2000/svg">
<path d="M6.104 14.12L5.942 10.754L11.972 4.4H15.212L9.776 10.25L8.156 11.978L6.104 14.12ZM3.494 17V4.4H6.392V17H3.494ZM12.116 17L7.634 11.51L9.542 9.44L15.518 17H12.116ZM16.4444 17V7.316H19.1264V10.052L18.7484 9.26C19.0364 8.576 19.4984 8.06 20.1344 7.712C20.7704 7.352 21.5444 7.172 22.4564 7.172V9.764C22.3364 9.752 22.2284 9.746 22.1324 9.746C22.0364 9.734 21.9344 9.728 21.8264 9.728C21.0584 9.728 20.4344 9.95 19.9544 10.394C19.4864 10.826 19.2524 11.504 19.2524 12.428V17H16.4444ZM28.2824 17.144C27.4784 17.144 26.7584 16.988 26.1224 16.676C25.4984 16.364 25.0124 15.89 24.6644 15.254C24.3164 14.606 24.1424 13.784 24.1424 12.788V7.316H26.9504V12.374C26.9504 13.178 27.1184 13.772 27.4544 14.156C27.8024 14.528 28.2884 14.714 28.9124 14.714C29.3444 14.714 29.7284 14.624 30.0644 14.444C30.4004 14.252 30.6644 13.964 30.8564 13.58C31.0484 13.184 31.1444 12.692 31.1444 12.104V7.316H33.9524V17H31.2884V14.336L31.7744 15.11C31.4504 15.782 30.9704 16.292 30.3344 16.64C29.7104 16.976 29.0264 17.144 28.2824 17.144ZM39.8118 17.144C38.9838 17.144 38.1858 17.048 37.4178 16.856C36.6618 16.652 36.0618 16.4 35.6178 16.1L36.5538 14.084C36.9978 14.36 37.5198 14.588 38.1198 14.768C38.7318 14.936 39.3318 15.02 39.9198 15.02C40.5678 15.02 41.0238 14.942 41.2878 14.786C41.5638 14.63 41.7018 14.414 41.7018 14.138C41.7018 13.91 41.5938 13.742 41.3778 13.634C41.1738 13.514 40.8978 13.424 40.5498 13.364C40.2018 13.304 39.8178 13.244 39.3978 13.184C38.9898 13.124 38.5758 13.046 38.1558 12.95C37.7358 12.842 37.3518 12.686 37.0038 12.482C36.6558 12.278 36.3738 12.002 36.1578 11.654C35.9538 11.306 35.8518 10.856 35.8518 10.304C35.8518 9.692 36.0258 9.152 36.3738 8.684C36.7338 8.216 37.2498 7.85 37.9218 7.586C38.5938 7.31 39.3978 7.172 40.3338 7.172C40.9938 7.172 41.6658 7.244 42.3498 7.388C43.0338 7.532 43.6038 7.742 44.0598 8.018L43.1238 10.016C42.6558 9.74 42.1818 9.554 41.7018 9.458C41.2338 9.35 40.7778 9.296 40.3338 9.296C39.7098 9.296 39.2538 9.38 38.9658 9.548C38.6778 9.716 38.5338 9.932 38.5338 10.196C38.5338 10.436 38.6358 10.616 38.8398 10.736C39.0558 10.856 39.3378 10.952 39.6858 11.024C40.0338 11.096 40.4118 11.162 40.8198 11.222C41.2398 11.27 41.6598 11.348 42.0798 11.456C42.4998 11.564 42.8778 11.72 43.2138 11.924C43.5618 12.116 43.8438 12.386 44.0598 12.734C44.2758 13.07 44.3838 13.514 44.3838 14.066C44.3838 14.666 44.2038 15.2 43.8438 15.668C43.4838 16.124 42.9618 16.484 42.2778 16.748C41.6058 17.012 40.7838 17.144 39.8118 17.144ZM52.0023 7.172C52.7703 7.172 53.4543 7.328 54.0543 7.64C54.6663 7.94 55.1463 8.408 55.4943 9.044C55.8423 9.668 56.0163 10.472 56.0163 11.456V17H53.2083V11.888C53.2083 11.108 53.0343 10.532 52.6863 10.16C52.3503 9.788 51.8703 9.602 51.2463 9.602C50.8023 9.602 50.4003 9.698 50.0403 9.89C49.6923 10.07 49.4163 10.352 49.2123 10.736C49.0203 11.12 48.9243 11.612 48.9243 12.212V17H46.1163V3.644H48.9243V9.998L48.2943 9.188C48.6423 8.54 49.1403 8.042 49.7883 7.694C50.4363 7.346 51.1743 7.172 52.0023 7.172Z" fill="#143197"/>
<path d="M34.1479 22.036C33.9049 22.036 33.6814 21.997 33.4774 21.919C33.2734 21.838 33.0964 21.7255 32.9464 21.5815C32.7964 21.4345 32.6794 21.2635 32.5954 21.0685C32.5114 20.8735 32.4694 20.659 32.4694 20.425C32.4694 20.191 32.5114 19.9765 32.5954 19.7815C32.6794 19.5865 32.7964 19.417 32.9464 19.273C33.0994 19.126 33.2779 19.0135 33.4819 18.9355C33.6859 18.8545 33.9109 18.814 34.1569 18.814C34.4059 18.814 34.6339 18.8545 34.8409 18.9355C35.0479 19.0165 35.2234 19.138 35.3674 19.3L35.0884 19.579C34.9594 19.453 34.8184 19.3615 34.6654 19.3045C34.5154 19.2445 34.3519 19.2145 34.1749 19.2145C33.9949 19.2145 33.8269 19.2445 33.6709 19.3045C33.5179 19.3645 33.3844 19.4485 33.2704 19.5565C33.1594 19.6645 33.0724 19.7935 33.0094 19.9435C32.9494 20.0905 32.9194 20.251 32.9194 20.425C32.9194 20.596 32.9494 20.7565 33.0094 20.9065C33.0724 21.0535 33.1594 21.1825 33.2704 21.2935C33.3844 21.4015 33.5179 21.4855 33.6709 21.5455C33.8239 21.6055 33.9904 21.6355 34.1704 21.6355C34.3384 21.6355 34.4989 21.61 34.6519 21.559C34.8079 21.505 34.9519 21.4165 35.0839 21.2935L35.3404 21.6355C35.1844 21.7675 35.0014 21.868 34.7914 21.937C34.5844 22.003 34.3699 22.036 34.1479 22.036ZM34.9084 21.577V20.407H35.3404V21.6355L34.9084 21.577ZM36.6115 20.209H38.2315V20.5915H36.6115V20.209ZM36.652 21.6085H38.488V22H36.202V18.85H38.425V19.2415H36.652V21.6085ZM39.8421 22V19.2415H38.7621V18.85H41.3676V19.2415H40.2876V22H39.8421ZM43.0663 22V18.85H43.5163V22H43.0663ZM45.0848 22V19.2415H44.0048V18.85H46.6103V19.2415H45.5303V22H45.0848ZM48.3089 22V18.85H49.6364C49.9724 18.85 50.2679 18.916 50.5229 19.048C50.7809 19.18 50.9804 19.3645 51.1214 19.6015C51.2654 19.8385 51.3374 20.113 51.3374 20.425C51.3374 20.737 51.2654 21.0115 51.1214 21.2485C50.9804 21.4855 50.7809 21.67 50.5229 21.802C50.2679 21.934 49.9724 22 49.6364 22H48.3089ZM48.7589 21.6085H49.6094C49.8704 21.6085 50.0954 21.559 50.2844 21.46C50.4764 21.361 50.6249 21.223 50.7299 21.046C50.8349 20.866 50.8874 20.659 50.8874 20.425C50.8874 20.188 50.8349 19.981 50.7299 19.804C50.6249 19.627 50.4764 19.489 50.2844 19.39C50.0954 19.291 49.8704 19.2415 49.6094 19.2415H48.7589V21.6085ZM53.4487 22.036C53.2087 22.036 52.9852 21.9955 52.7782 21.9145C52.5742 21.8335 52.3972 21.721 52.2472 21.577C52.0972 21.43 51.9802 21.259 51.8962 21.064C51.8122 20.869 51.7702 20.656 51.7702 20.425C51.7702 20.194 51.8122 19.981 51.8962 19.786C51.9802 19.591 52.0972 19.4215 52.2472 19.2775C52.3972 19.1305 52.5742 19.0165 52.7782 18.9355C52.9822 18.8545 53.2057 18.814 53.4487 18.814C53.6887 18.814 53.9092 18.8545 54.1102 18.9355C54.3142 19.0135 54.4912 19.126 54.6412 19.273C54.7942 19.417 54.9112 19.5865 54.9922 19.7815C55.0762 19.9765 55.1182 20.191 55.1182 20.425C55.1182 20.659 55.0762 20.8735 54.9922 21.0685C54.9112 21.2635 54.7942 21.4345 54.6412 21.5815C54.4912 21.7255 54.3142 21.838 54.1102 21.919C53.9092 21.997 53.6887 22.036 53.4487 22.036ZM53.4487 21.6355C53.6227 21.6355 53.7832 21.6055 53.9302 21.5455C54.0802 21.4855 54.2092 21.4015 54.3172 21.2935C54.4282 21.1825 54.5137 21.0535 54.5737 20.9065C54.6367 20.7595 54.6682 20.599 54.6682 20.425C54.6682 20.251 54.6367 20.0905 54.5737 19.9435C54.5137 19.7965 54.4282 19.669 54.3172 19.561C54.2092 19.45 54.0802 19.3645 53.9302 19.3045C53.7832 19.2445 53.6227 19.2145 53.4487 19.2145C53.2717 19.2145 53.1082 19.2445 52.9582 19.3045C52.8112 19.3645 52.6822 19.45 52.5712 19.561C52.4602 19.669 52.3732 19.7965 52.3102 19.9435C52.2502 20.0905 52.2202 20.251 52.2202 20.425C52.2202 20.599 52.2502 20.7595 52.3102 20.9065C52.3732 21.0535 52.4602 21.1825 52.5712 21.2935C52.6822 21.4015 52.8112 21.4855 52.9582 21.5455C53.1082 21.6055 53.2717 21.6355 53.4487 21.6355ZM55.806 22V18.85H56.175L58.2585 21.4375H58.065V18.85H58.515V22H58.146L56.0625 19.4125H56.256V22H55.806ZM59.8674 20.209H61.4874V20.5915H59.8674V20.209ZM59.9079 21.6085H61.7439V22H59.4579V18.85H61.6809V19.2415H59.9079V21.6085Z" fill="#5F5F5F"/>
<path d="M58.296 17L58.296 7.316L60.978 7.316L60.978 10.052L60.6 9.26C60.888 8.576 61.35 8.06 61.986 7.712C62.622 7.352 63.396 7.172 64.308 7.172L64.308 9.764C64.188 9.752 64.08 9.746 63.984 9.746C63.888 9.734 63.786 9.728 63.678 9.728C62.91 9.728 62.286 9.95 61.806 10.394C61.338 10.826 61.104 11.504 61.104 12.428L61.104 17L58.296 17Z" fill="#EB5857"/>
<path d="M66.212 7.009C66.062 7.009 65.923 6.982 65.795 6.928C65.667 6.874 65.555 6.799 65.459 6.703C65.363 6.605 65.288 6.492 65.234 6.364C65.182 6.236 65.156 6.098 65.156 5.95C65.156 5.802 65.183 5.664 65.237 5.536C65.291 5.408 65.366 5.296 65.462 5.2C65.558 5.102 65.67 5.026 65.798 4.972C65.928 4.918 66.068 4.891 66.218 4.891C66.368 4.891 66.507 4.918 66.635 4.972C66.765 5.024 66.877 5.098 66.971 5.194C67.067 5.29 67.141 5.402 67.193 5.53C67.247 5.656 67.274 5.794 67.274 5.944C67.274 6.094 67.247 6.234 67.193 6.364C67.139 6.492 67.063 6.605 66.965 6.703C66.869 6.799 66.757 6.874 66.629 6.928C66.501 6.982 66.362 7.009 66.212 7.009ZM66.599 6.556L66.296 6.088H66.458L66.761 6.556H66.599ZM66.209 6.898C66.345 6.898 66.47 6.874 66.584 6.826C66.698 6.776 66.798 6.708 66.884 6.622C66.972 6.536 67.04 6.435 67.088 6.319C67.136 6.201 67.16 6.076 67.16 5.944C67.16 5.81 67.136 5.686 67.088 5.572C67.042 5.458 66.976 5.358 66.89 5.272C66.806 5.186 66.706 5.12 66.59 5.074C66.476 5.026 66.352 5.002 66.218 5.002C66.082 5.002 65.956 5.026 65.84 5.074C65.724 5.122 65.623 5.19 65.537 5.278C65.453 5.364 65.387 5.464 65.339 5.578C65.291 5.692 65.267 5.816 65.267 5.95C65.267 6.082 65.291 6.206 65.339 6.322C65.387 6.436 65.453 6.537 65.537 6.625C65.623 6.711 65.723 6.778 65.837 6.826C65.953 6.874 66.077 6.898 66.209 6.898ZM65.801 6.556V5.344H66.269C66.419 5.344 66.536 5.381 66.62 5.455C66.706 5.527 66.749 5.624 66.749 5.746C66.749 5.874 66.706 5.974 66.62 6.046C66.536 6.118 66.419 6.154 66.269 6.154H65.957V6.556H65.801ZM65.954 6.022H66.26C66.366 6.022 66.448 5.998 66.506 5.95C66.566 5.902 66.596 5.834 66.596 5.746C66.596 5.66 66.566 5.594 66.506 5.548C66.448 5.5 66.366 5.476 66.26 5.476H65.954V6.022Z" fill="#EB5857"/>
</svg>
