<svg width="66" height="24" viewBox="0 0 66 24" fill="none" xmlns="http://www.w3.org/2000/svg">
<path d="M4.104 14.12L3.942 10.754L9.972 4.4H13.212L7.776 10.25L6.156 11.978L4.104 14.12ZM1.494 17V4.4H4.392V17H1.494ZM10.116 17L5.634 11.51L7.542 9.44L13.518 17H10.116ZM14.4444 17V7.316H17.1264V10.052L16.7484 9.26C17.0364 8.576 17.4984 8.06 18.1344 7.712C18.7704 7.352 19.5444 7.172 20.4564 7.172V9.764C20.3364 9.752 20.2284 9.746 20.1324 9.746C20.0364 9.734 19.9344 9.728 19.8264 9.728C19.0584 9.728 18.4344 9.95 17.9544 10.394C17.4864 10.826 17.2524 11.504 17.2524 12.428V17H14.4444ZM26.2824 17.144C25.4784 17.144 24.7584 16.988 24.1224 16.676C23.4984 16.364 23.0124 15.89 22.6644 15.254C22.3164 14.606 22.1424 13.784 22.1424 12.788V7.316H24.9504V12.374C24.9504 13.178 25.1184 13.772 25.4544 14.156C25.8024 14.528 26.2884 14.714 26.9124 14.714C27.3444 14.714 27.7284 14.624 28.0644 14.444C28.4004 14.252 28.6644 13.964 28.8564 13.58C29.0484 13.184 29.1444 12.692 29.1444 12.104V7.316H31.9524V17H29.2884V14.336L29.7744 15.11C29.4504 15.782 28.9704 16.292 28.3344 16.64C27.7104 16.976 27.0264 17.144 26.2824 17.144ZM37.8118 17.144C36.9838 17.144 36.1858 17.048 35.4178 16.856C34.6618 16.652 34.0618 16.4 33.6178 16.1L34.5538 14.084C34.9978 14.36 35.5198 14.588 36.1198 14.768C36.7318 14.936 37.3318 15.02 37.9198 15.02C38.5678 15.02 39.0238 14.942 39.2878 14.786C39.5638 14.63 39.7018 14.414 39.7018 14.138C39.7018 13.91 39.5938 13.742 39.3778 13.634C39.1738 13.514 38.8978 13.424 38.5498 13.364C38.2018 13.304 37.8178 13.244 37.3978 13.184C36.9898 13.124 36.5758 13.046 36.1558 12.95C35.7358 12.842 35.3518 12.686 35.0038 12.482C34.6558 12.278 34.3738 12.002 34.1578 11.654C33.9538 11.306 33.8518 10.856 33.8518 10.304C33.8518 9.692 34.0258 9.152 34.3738 8.684C34.7338 8.216 35.2498 7.85 35.9218 7.586C36.5938 7.31 37.3978 7.172 38.3338 7.172C38.9938 7.172 39.6658 7.244 40.3498 7.388C41.0338 7.532 41.6038 7.742 42.0598 8.018L41.1238 10.016C40.6558 9.74 40.1818 9.554 39.7018 9.458C39.2338 9.35 38.7778 9.296 38.3338 9.296C37.7098 9.296 37.2538 9.38 36.9658 9.548C36.6778 9.716 36.5338 9.932 36.5338 10.196C36.5338 10.436 36.6358 10.616 36.8398 10.736C37.0558 10.856 37.3378 10.952 37.6858 11.024C38.0338 11.096 38.4118 11.162 38.8198 11.222C39.2398 11.27 39.6598 11.348 40.0798 11.456C40.4998 11.564 40.8778 11.72 41.2138 11.924C41.5618 12.116 41.8438 12.386 42.0598 12.734C42.2758 13.07 42.3838 13.514 42.3838 14.066C42.3838 14.666 42.2038 15.2 41.8438 15.668C41.4838 16.124 40.9618 16.484 40.2778 16.748C39.6058 17.012 38.7838 17.144 37.8118 17.144ZM50.0023 7.172C50.7703 7.172 51.4543 7.328 52.0543 7.64C52.6663 7.94 53.1463 8.408 53.4943 9.044C53.8423 9.668 54.0163 10.472 54.0163 11.456V17H51.2083V11.888C51.2083 11.108 51.0343 10.532 50.6863 10.16C50.3503 9.788 49.8703 9.602 49.2463 9.602C48.8023 9.602 48.4003 9.698 48.0403 9.89C47.6923 10.07 47.4163 10.352 47.2123 10.736C47.0203 11.12 46.9243 11.612 46.9243 12.212V17H44.1163V3.644H46.9243V9.998L46.2943 9.188C46.6423 8.54 47.1403 8.042 47.7883 7.694C48.4363 7.346 49.1743 7.172 50.0023 7.172Z" fill="white"/>
<path d="M1.8775 21.036C1.6915 21.036 1.5175 20.997 1.3555 20.919C1.1935 20.841 1.0615 20.7285 0.9595 20.5815L1.2205 20.2755C1.3075 20.3955 1.405 20.4885 1.513 20.5545C1.624 20.6175 1.7455 20.649 1.8775 20.649C2.2375 20.649 2.4175 20.436 2.4175 20.01V18.2415H1.279V17.85H2.863V19.9875C2.863 20.3385 2.779 20.601 2.611 20.775C2.446 20.949 2.2015 21.036 1.8775 21.036ZM5.08463 21.036C4.67063 21.036 4.34513 20.9175 4.10813 20.6805C3.87113 20.4435 3.75263 20.097 3.75263 19.641V17.85H4.20263V19.623C4.20263 19.974 4.27913 20.2305 4.43213 20.3925C4.58813 20.5545 4.80713 20.6355 5.08913 20.6355C5.37413 20.6355 5.59313 20.5545 5.74613 20.3925C5.90213 20.2305 5.98013 19.974 5.98013 19.623V17.85H6.41663V19.641C6.41663 20.097 6.29813 20.4435 6.06113 20.6805C5.82713 20.9175 5.50163 21.036 5.08463 21.036ZM8.2572 21.036C8.0172 21.036 7.7877 21 7.5687 20.928C7.3497 20.853 7.1772 20.757 7.0512 20.64L7.2177 20.289C7.3377 20.394 7.4907 20.481 7.6767 20.55C7.8627 20.619 8.0562 20.6535 8.2572 20.6535C8.4402 20.6535 8.5887 20.6325 8.7027 20.5905C8.8167 20.5485 8.9007 20.4915 8.9547 20.4195C9.0087 20.3445 9.0357 20.2605 9.0357 20.1675C9.0357 20.0595 8.9997 19.9725 8.9277 19.9065C8.8587 19.8405 8.7672 19.788 8.6532 19.749C8.5422 19.707 8.4192 19.671 8.2842 19.641C8.1492 19.611 8.0127 19.5765 7.8747 19.5375C7.7397 19.4955 7.6152 19.443 7.5012 19.38C7.3902 19.317 7.3002 19.233 7.2312 19.128C7.1622 19.02 7.1277 18.882 7.1277 18.714C7.1277 18.552 7.1697 18.4035 7.2537 18.2685C7.3407 18.1305 7.4727 18.021 7.6497 17.94C7.8297 17.856 8.0577 17.814 8.3337 17.814C8.5167 17.814 8.6982 17.838 8.8782 17.886C9.0582 17.934 9.2142 18.003 9.3462 18.093L9.1977 18.453C9.0627 18.363 8.9202 18.2985 8.7702 18.2595C8.6202 18.2175 8.4747 18.1965 8.3337 18.1965C8.1567 18.1965 8.0112 18.219 7.8972 18.264C7.7832 18.309 7.6992 18.369 7.6452 18.444C7.5942 18.519 7.5687 18.603 7.5687 18.696C7.5687 18.807 7.6032 18.8955 7.6722 18.9615C7.7442 19.0275 7.8357 19.08 7.9467 19.119C8.0607 19.158 8.1852 19.194 8.3202 19.227C8.4552 19.257 8.5902 19.2915 8.7252 19.3305C8.8632 19.3695 8.9877 19.4205 9.0987 19.4835C9.2127 19.5465 9.3042 19.6305 9.3732 19.7355C9.4422 19.8405 9.4767 19.9755 9.4767 20.1405C9.4767 20.2995 9.4332 20.448 9.3462 20.586C9.2592 20.721 9.1242 20.8305 8.9412 20.9145C8.7612 20.9955 8.5332 21.036 8.2572 21.036ZM10.7157 21V18.2415H9.63568V17.85H12.2412V18.2415H11.1612V21H10.7157ZM14.6643 21L13.6113 17.85H14.0748L15.0423 20.757H14.8083L15.8118 17.85H16.2258L17.2068 20.757H16.9818L17.9628 17.85H18.3903L17.3373 21H16.8648L15.9468 18.3045H16.0683L15.1458 21H14.6643ZM20.332 21.036C20.092 21.036 19.8685 20.9955 19.6615 20.9145C19.4575 20.8335 19.2805 20.721 19.1305 20.577C18.9805 20.43 18.8635 20.259 18.7795 20.064C18.6955 19.869 18.6535 19.656 18.6535 19.425C18.6535 19.194 18.6955 18.981 18.7795 18.786C18.8635 18.591 18.9805 18.4215 19.1305 18.2775C19.2805 18.1305 19.4575 18.0165 19.6615 17.9355C19.8655 17.8545 20.089 17.814 20.332 17.814C20.572 17.814 20.7925 17.8545 20.9935 17.9355C21.1975 18.0135 21.3745 18.126 21.5245 18.273C21.6775 18.417 21.7945 18.5865 21.8755 18.7815C21.9595 18.9765 22.0015 19.191 22.0015 19.425C22.0015 19.659 21.9595 19.8735 21.8755 20.0685C21.7945 20.2635 21.6775 20.4345 21.5245 20.5815C21.3745 20.7255 21.1975 20.838 20.9935 20.919C20.7925 20.997 20.572 21.036 20.332 21.036ZM20.332 20.6355C20.506 20.6355 20.6665 20.6055 20.8135 20.5455C20.9635 20.4855 21.0925 20.4015 21.2005 20.2935C21.3115 20.1825 21.397 20.0535 21.457 19.9065C21.52 19.7595 21.5515 19.599 21.5515 19.425C21.5515 19.251 21.52 19.0905 21.457 18.9435C21.397 18.7965 21.3115 18.669 21.2005 18.561C21.0925 18.45 20.9635 18.3645 20.8135 18.3045C20.6665 18.2445 20.506 18.2145 20.332 18.2145C20.155 18.2145 19.9915 18.2445 19.8415 18.3045C19.6945 18.3645 19.5655 18.45 19.4545 18.561C19.3435 18.669 19.2565 18.7965 19.1935 18.9435C19.1335 19.0905 19.1035 19.251 19.1035 19.425C19.1035 19.599 19.1335 19.7595 19.1935 19.9065C19.2565 20.0535 19.3435 20.1825 19.4545 20.2935C19.5655 20.4015 19.6945 20.4855 19.8415 20.5455C19.9915 20.6055 20.155 20.6355 20.332 20.6355ZM22.6893 21V17.85H23.9178C24.1938 17.85 24.4293 17.8935 24.6243 17.9805C24.8193 18.0675 24.9693 18.1935 25.0743 18.3585C25.1793 18.5235 25.2318 18.72 25.2318 18.948C25.2318 19.176 25.1793 19.3725 25.0743 19.5375C24.9693 19.6995 24.8193 19.824 24.6243 19.911C24.4293 19.998 24.1938 20.0415 23.9178 20.0415H22.9368L23.1393 19.8345V21H22.6893ZM24.7953 21L23.9943 19.857H24.4758L25.2858 21H24.7953ZM23.1393 19.8795L22.9368 19.659H23.9043C24.1923 19.659 24.4098 19.5975 24.5568 19.4745C24.7068 19.3485 24.7818 19.173 24.7818 18.948C24.7818 18.723 24.7068 18.549 24.5568 18.426C24.4098 18.303 24.1923 18.2415 23.9043 18.2415H22.9368L23.1393 18.0165V19.8795ZM26.3548 20.2395L26.3323 19.6905L28.1188 17.85H28.6318L27.2503 19.308L26.9983 19.587L26.3548 20.2395ZM25.9588 21V17.85H26.4088V21H25.9588ZM28.1908 21L26.8993 19.497L27.2008 19.164L28.7173 21H28.1908ZM30.0453 21.036C29.8053 21.036 29.5758 21 29.3568 20.928C29.1378 20.853 28.9653 20.757 28.8393 20.64L29.0058 20.289C29.1258 20.394 29.2788 20.481 29.4648 20.55C29.6508 20.619 29.8443 20.6535 30.0453 20.6535C30.2283 20.6535 30.3768 20.6325 30.4908 20.5905C30.6048 20.5485 30.6888 20.4915 30.7428 20.4195C30.7968 20.3445 30.8238 20.2605 30.8238 20.1675C30.8238 20.0595 30.7878 19.9725 30.7158 19.9065C30.6468 19.8405 30.5553 19.788 30.4413 19.749C30.3303 19.707 30.2073 19.671 30.0723 19.641C29.9373 19.611 29.8008 19.5765 29.6628 19.5375C29.5278 19.4955 29.4033 19.443 29.2893 19.38C29.1783 19.317 29.0883 19.233 29.0193 19.128C28.9503 19.02 28.9158 18.882 28.9158 18.714C28.9158 18.552 28.9578 18.4035 29.0418 18.2685C29.1288 18.1305 29.2608 18.021 29.4378 17.94C29.6178 17.856 29.8458 17.814 30.1218 17.814C30.3048 17.814 30.4863 17.838 30.6663 17.886C30.8463 17.934 31.0023 18.003 31.1343 18.093L30.9858 18.453C30.8508 18.363 30.7083 18.2985 30.5583 18.2595C30.4083 18.2175 30.2628 18.1965 30.1218 18.1965C29.9448 18.1965 29.7993 18.219 29.6853 18.264C29.5713 18.309 29.4873 18.369 29.4333 18.444C29.3823 18.519 29.3568 18.603 29.3568 18.696C29.3568 18.807 29.3913 18.8955 29.4603 18.9615C29.5323 19.0275 29.6238 19.08 29.7348 19.119C29.8488 19.158 29.9733 19.194 30.1083 19.227C30.2433 19.257 30.3783 19.2915 30.5133 19.3305C30.6513 19.3695 30.7758 19.4205 30.8868 19.4835C31.0008 19.5465 31.0923 19.6305 31.1613 19.7355C31.2303 19.8405 31.2648 19.9755 31.2648 20.1405C31.2648 20.2995 31.2213 20.448 31.1343 20.586C31.0473 20.721 30.9123 20.8305 30.7293 20.9145C30.5493 20.9955 30.3213 21.036 30.0453 21.036ZM33.1307 21V17.85H34.4582C34.7942 17.85 35.0897 17.916 35.3447 18.048C35.6027 18.18 35.8022 18.3645 35.9432 18.6015C36.0872 18.8385 36.1592 19.113 36.1592 19.425C36.1592 19.737 36.0872 20.0115 35.9432 20.2485C35.8022 20.4855 35.6027 20.67 35.3447 20.802C35.0897 20.934 34.7942 21 34.4582 21H33.1307ZM33.5807 20.6085H34.4312C34.6922 20.6085 34.9172 20.559 35.1062 20.46C35.2982 20.361 35.4467 20.223 35.5517 20.046C35.6567 19.866 35.7092 19.659 35.7092 19.425C35.7092 19.188 35.6567 18.981 35.5517 18.804C35.4467 18.627 35.2982 18.489 35.1062 18.39C34.9172 18.291 34.6922 18.2415 34.4312 18.2415H33.5807V20.6085ZM36.8485 21V17.85H37.2985V21H36.8485ZM38.6465 19.3395H40.271V19.7265H38.6465V19.3395ZM38.6915 21H38.2415V17.85H40.4645V18.2415H38.6915V21ZM41.503 19.3395H43.1275V19.7265H41.503V19.3395ZM41.548 21H41.098V17.85H43.321V18.2415H41.548V21ZM44.3639 19.209H45.9839V19.5915H44.3639V19.209ZM44.4044 20.6085H46.2404V21H43.9544V17.85H46.1774V18.2415H44.4044V20.6085ZM46.9691 21V17.85H48.1976C48.4736 17.85 48.7091 17.8935 48.9041 17.9805C49.0991 18.0675 49.2491 18.1935 49.3541 18.3585C49.4591 18.5235 49.5116 18.72 49.5116 18.948C49.5116 19.176 49.4591 19.3725 49.3541 19.5375C49.2491 19.6995 49.0991 19.824 48.9041 19.911C48.7091 19.998 48.4736 20.0415 48.1976 20.0415H47.2166L47.4191 19.8345V21H46.9691ZM49.0751 21L48.2741 19.857H48.7556L49.5656 21H49.0751ZM47.4191 19.8795L47.2166 19.659H48.1841C48.4721 19.659 48.6896 19.5975 48.8366 19.4745C48.9866 19.3485 49.0616 19.173 49.0616 18.948C49.0616 18.723 48.9866 18.549 48.8366 18.426C48.6896 18.303 48.4721 18.2415 48.1841 18.2415H47.2166L47.4191 18.0165V19.8795ZM50.6481 19.209H52.2681V19.5915H50.6481V19.209ZM50.6886 20.6085H52.5246V21H50.2386V17.85H52.4616V18.2415H50.6886V20.6085ZM53.2533 21V17.85H53.6223L55.7058 20.4375H55.5123V17.85H55.9623V21H55.5933L53.5098 18.4125H53.7033V21H53.2533ZM57.5306 21V18.2415H56.4506V17.85H59.0561V18.2415H57.9761V21H57.5306Z" fill="white"/>
<path d="M56.296 17L56.296 7.316L58.978 7.316L58.978 10.052L58.6 9.26C58.888 8.576 59.35 8.06 59.986 7.712C60.622 7.352 61.396 7.172 62.308 7.172L62.308 9.764C62.188 9.752 62.08 9.746 61.984 9.746C61.888 9.734 61.786 9.728 61.678 9.728C60.91 9.728 60.286 9.95 59.806 10.394C59.338 10.826 59.104 11.504 59.104 12.428L59.104 17L56.296 17Z" fill="#EB5857"/>
<path d="M64.212 7.009C64.062 7.009 63.923 6.982 63.795 6.928C63.667 6.874 63.555 6.799 63.459 6.703C63.363 6.605 63.288 6.492 63.234 6.364C63.182 6.236 63.156 6.098 63.156 5.95C63.156 5.802 63.183 5.664 63.237 5.536C63.291 5.408 63.366 5.296 63.462 5.2C63.558 5.102 63.67 5.026 63.798 4.972C63.928 4.918 64.068 4.891 64.218 4.891C64.368 4.891 64.507 4.918 64.635 4.972C64.765 5.024 64.877 5.098 64.971 5.194C65.067 5.29 65.141 5.402 65.193 5.53C65.247 5.656 65.274 5.794 65.274 5.944C65.274 6.094 65.247 6.234 65.193 6.364C65.139 6.492 65.063 6.605 64.965 6.703C64.869 6.799 64.757 6.874 64.629 6.928C64.501 6.982 64.362 7.009 64.212 7.009ZM64.599 6.556L64.296 6.088H64.458L64.761 6.556H64.599ZM64.209 6.898C64.345 6.898 64.47 6.874 64.584 6.826C64.698 6.776 64.798 6.708 64.884 6.622C64.972 6.536 65.04 6.435 65.088 6.319C65.136 6.201 65.16 6.076 65.16 5.944C65.16 5.81 65.136 5.686 65.088 5.572C65.042 5.458 64.976 5.358 64.89 5.272C64.806 5.186 64.706 5.12 64.59 5.074C64.476 5.026 64.352 5.002 64.218 5.002C64.082 5.002 63.956 5.026 63.84 5.074C63.724 5.122 63.623 5.19 63.537 5.278C63.453 5.364 63.387 5.464 63.339 5.578C63.291 5.692 63.267 5.816 63.267 5.95C63.267 6.082 63.291 6.206 63.339 6.322C63.387 6.436 63.453 6.537 63.537 6.625C63.623 6.711 63.723 6.778 63.837 6.826C63.953 6.874 64.077 6.898 64.209 6.898ZM63.801 6.556V5.344H64.269C64.419 5.344 64.536 5.381 64.62 5.455C64.706 5.527 64.749 5.624 64.749 5.746C64.749 5.874 64.706 5.974 64.62 6.046C64.536 6.118 64.419 6.154 64.269 6.154H63.957V6.556H63.801ZM63.954 6.022H64.26C64.366 6.022 64.448 5.998 64.506 5.95C64.566 5.902 64.596 5.834 64.596 5.746C64.596 5.66 64.566 5.594 64.506 5.548C64.448 5.5 64.366 5.476 64.26 5.476H63.954V6.022Z" fill="#EB5857"/>
</svg>
