<svg width="388" height="110" viewBox="0 0 388 110" fill="none" xmlns="http://www.w3.org/2000/svg">
<rect width="388" height="110" fill="white"/>
<path opacity="0.1" d="M0 0H388V110H0V0Z" fill="#1DE4FF"/>
<mask id="mask0_2942_28896" style="mask-type:alpha" maskUnits="userSpaceOnUse" x="0" y="0" width="388" height="110">
<path d="M0 0H388V110H0V0Z" fill="#7D42FB"/>
</mask>
<g mask="url(#mask0_2942_28896)">
<path opacity="0.3" fill-rule="evenodd" clip-rule="evenodd" d="M262.638 246.119C252.002 265.528 224.019 273.534 201.589 284.818C180.717 295.314 160.439 305.787 136.841 309.383C109.06 313.616 75.3042 321.766 55.6356 307.06C35.8245 292.246 51.2822 263.669 46.2653 241.66C41.7253 221.742 16.4547 203.814 27.7315 184.643C39.1283 165.268 74.2794 167.359 96.7788 155.785C117.528 145.112 129.957 122.217 153.669 119.86C177.739 117.47 196.829 132.362 214.864 144.052C232.468 155.464 247.643 168.738 255.731 186.016C264.589 204.942 273.378 226.519 262.638 246.119Z" stroke="#A277FF"/>
<path opacity="0.3" fill-rule="evenodd" clip-rule="evenodd" d="M282.975 250.028C270.549 272.707 237.865 282.065 211.663 295.245C187.284 307.512 163.597 319.751 136.034 323.956C103.586 328.905 64.1578 338.428 41.1876 321.246C18.0512 303.941 36.1109 270.555 30.2557 244.841C24.9564 221.571 -4.55504 200.628 8.61921 178.229C21.9336 155.593 62.9897 158.032 89.2708 144.507C113.507 132.036 128.028 105.286 155.725 102.531C183.838 99.7338 206.132 117.133 227.195 130.788C247.754 144.117 265.476 159.625 274.919 179.811C285.262 201.921 295.523 227.129 282.975 250.028Z" stroke="#A277FF"/>
<path opacity="0.3" fill-rule="evenodd" clip-rule="evenodd" d="M305.162 254.293C290.783 280.535 252.969 291.369 222.655 306.624C194.448 320.819 167.043 334.986 135.155 339.853C97.6138 345.581 51.9985 356.604 25.4271 336.725C-1.33669 316.703 19.5617 278.066 12.791 248.311C6.66396 221.386 -27.4755 197.153 -12.2303 171.232C3.17657 145.037 50.6731 147.855 81.0808 132.204C109.121 117.77 125.924 86.8155 157.968 83.6252C190.493 80.3869 216.282 100.516 240.647 116.317C264.43 131.74 284.931 149.683 295.85 173.042C307.814 198.625 319.682 227.794 305.162 254.293Z" stroke="#A277FF"/>
<path opacity="0.3" fill-rule="evenodd" clip-rule="evenodd" d="M326.732 258.439C310.452 288.149 267.652 300.414 233.341 317.684C201.414 333.756 170.394 349.794 134.3 355.306C91.8084 361.794 40.1768 374.272 10.1047 351.773C-20.1861 329.107 3.47207 285.368 -4.18849 251.684C-11.1203 221.203 -49.7576 193.772 -32.5007 164.429C-15.0592 134.773 38.7004 137.961 73.1182 120.241C104.858 103.9 123.879 68.8568 160.149 65.2433C196.963 61.5756 226.15 84.3614 253.726 102.246C280.643 119.704 303.844 140.016 316.203 166.458C329.74 195.42 343.17 228.439 326.732 258.439Z" stroke="#A277FF"/>
<path opacity="0.3" fill-rule="evenodd" clip-rule="evenodd" d="M346.454 262.231C328.44 295.109 281.079 308.684 243.11 327.798C207.781 345.584 173.456 363.336 133.518 369.435C86.5006 376.617 29.369 390.428 -3.90492 365.53C-37.4202 340.448 -11.2388 292.044 -19.7123 254.768C-27.3802 221.036 -70.1319 190.682 -51.0333 158.208C-31.7322 125.389 27.753 128.915 65.838 109.303C100.959 91.2182 122.009 52.4369 162.142 48.4367C202.877 44.3762 235.171 69.5908 265.684 89.3832C295.466 108.702 321.137 131.179 334.813 160.44C349.787 192.49 364.645 229.031 346.454 262.231Z" stroke="#A277FF"/>
<path opacity="0.3" fill-rule="evenodd" clip-rule="evenodd" d="M367.407 266.258C347.549 302.504 295.343 317.47 253.491 338.544C214.547 358.154 176.712 377.721 132.687 384.447C80.8618 392.367 17.8849 407.596 -18.7908 380.146C-55.7317 352.5 -26.8698 299.138 -36.2071 258.046C-44.6573 220.861 -91.779 187.401 -70.7251 151.601C-49.4477 115.421 16.1222 119.305 58.1016 97.6847C96.8168 77.7456 120.023 34.9928 164.26 30.5813C209.161 26.1039 244.757 53.8997 278.388 75.7166C311.214 97.013 339.51 121.789 354.58 154.047C371.086 189.378 387.461 229.66 367.407 266.258Z" stroke="#A277FF"/>
<path opacity="0.3" fill-rule="evenodd" clip-rule="evenodd" d="M390.211 270.642C368.345 310.551 310.868 327.033 264.787 350.238C221.91 371.829 180.251 393.377 131.784 400.786C74.7233 409.507 5.38798 426.276 -34.9888 396.055C-75.6589 365.614 -43.8785 306.858 -54.157 261.612C-63.4578 220.668 -115.336 183.825 -92.1538 144.408C-68.7255 104.571 3.46333 108.845 49.685 85.0381C92.3086 63.0838 117.861 16.0086 166.565 11.15C216.001 6.2184 255.188 36.8219 292.215 60.8437C328.355 84.2914 359.505 111.572 376.096 147.089C394.266 185.99 412.292 230.345 390.211 270.642Z" stroke="#A277FF"/>
</g>
</svg>
