<svg width="170" height="44" viewBox="0 0 170 44" fill="none" xmlns="http://www.w3.org/2000/svg">
<g clip-path="url(#clip0_2944_28027)">
<path d="M-0.0634766 6.82413H6.58574V31.0449H18.8959V37.1812H-0.0634766V6.82413ZM21.8356 16.5982H28.2236V37.1698H21.8356V16.5982ZM25.0295 6.37097C27.0621 6.37136 28.7346 8.04398 28.7346 10.0766C28.7346 12.1094 27.0617 13.7823 25.0289 13.7823C22.9961 13.7823 21.3233 12.1094 21.3233 10.0766C21.3233 8.04379 22.9967 6.37097 25.0295 6.37097ZM54.9448 6.8195H61.3327V24.9617L68.5724 16.5889H76.4042L68.0201 26.1129L76.2278 37.1785H68.1991L61.418 27.0097H61.3341V37.1771H54.9461L54.9448 6.8195ZM31.7655 16.6003H37.8998V19.4116H37.987C39.2337 17.2756 41.564 15.9954 44.0355 16.0885C50.5133 16.0885 51.7056 20.3505 51.7056 25.8873V37.1685H45.3177V27.1669C45.3177 24.7794 45.2739 21.7105 41.9908 21.7105C38.6704 21.7105 38.158 24.3103 38.158 26.9931V37.166H31.7701L31.7655 16.6003Z" fill="#0A66C2"/>
<path d="M89.8608 24.4913C89.8614 24.4612 89.8618 24.431 89.8618 24.4009C89.8618 22.2998 88.1328 20.5709 86.0317 20.5709C86.0007 20.5709 85.9698 20.5713 85.9388 20.572C83.6316 20.4284 81.6065 22.1866 81.4248 24.4913H89.8608ZM95.2719 33.6072C93.1235 36.2124 89.9129 37.7167 86.5364 37.7003C80.1485 37.7003 75.0342 33.4362 75.0342 26.8335C75.0342 20.2307 80.1479 15.9688 86.5364 15.9688C92.507 15.9688 96.2512 20.2272 96.2512 26.8335V28.8364H81.4248C81.8047 31.1743 83.8709 32.8932 86.2389 32.8415C88.0844 32.8299 89.8031 31.8822 90.7976 30.3276L95.2719 33.6072ZM109.566 21.5707C106.372 21.5707 104.456 23.7034 104.456 26.8109C104.456 29.9184 106.371 32.0528 109.566 32.0528C112.761 32.0528 114.681 29.9236 114.681 26.8109C114.681 23.698 112.764 21.5707 109.566 21.5707ZM120.562 37.166H114.681V34.4378H114.594C113.1 36.4476 110.748 37.6473 108.243 37.677C102.106 37.677 98.0625 33.2472 98.0625 26.9831C98.0625 21.2302 101.64 15.9474 107.522 15.9474C110.166 15.9474 112.635 16.6707 114.084 18.6755H114.167V6.81736H120.561L120.562 37.166ZM163.686 37.1779H157.298V27.1742C157.298 24.7887 157.256 21.7178 153.976 21.7178C150.649 21.7178 150.14 24.3168 150.14 27.0004V37.1771H143.752V16.6055H149.884V19.4168H149.97C151.219 17.2819 153.549 16.0021 156.021 16.0939C162.495 16.0939 163.689 20.3524 163.689 25.8926L163.686 37.1779ZM136.544 13.7934C134.511 13.7934 132.837 12.1202 132.837 10.0866C132.837 8.05302 134.51 6.37963 136.544 6.37963C138.577 6.37963 140.25 8.05264 140.251 10.0859C140.251 12.1191 138.578 13.7932 136.544 13.7934ZM139.738 37.1779H133.344V16.6055H139.738V37.1779ZM166.871 0.447554H130.134C128.409 0.428078 126.974 1.83035 126.953 3.55484V40.4443C126.973 42.1697 128.408 43.5735 130.134 43.555H166.871C168.6 43.5768 170.041 42.1732 170.064 40.4443V3.55233C170.041 1.82418 168.598 0.422099 166.871 0.444853V0.447554Z" fill="#0A66C2"/>
</g>
<defs>
<clipPath id="clip0_2944_28027">
<rect width="170" height="44" fill="white"/>
</clipPath>
</defs>
</svg>
