<svg width="34" height="34" viewBox="0 0 34 34" fill="none" xmlns="http://www.w3.org/2000/svg">
<rect width="34" height="34" rx="9.42857" fill="#FF4267"/>
<path d="M16.9972 27.3028C17.1298 27.3012 17.2582 27.2556 17.3622 27.1733C17.7155 26.8907 25.8284 20.3086 25.8284 15.5279C25.8284 13.1858 24.8979 10.9395 23.2418 9.28337C21.5856 7.6272 19.3394 6.69678 16.9972 6.69678C14.655 6.69678 12.4088 7.6272 10.7526 9.28337C9.09644 10.9395 8.16602 13.1858 8.16602 15.5279C8.16602 20.3086 16.2789 26.8907 16.6322 27.1733C16.7362 27.2556 16.8645 27.3012 16.9972 27.3028ZM16.9972 11.9955C17.5794 11.9955 18.1485 12.1681 18.6326 12.4916C19.1167 12.815 19.494 13.2748 19.7168 13.8127C19.9396 14.3506 19.9979 14.9425 19.8843 15.5135C19.7708 16.0845 19.4904 16.609 19.0787 17.0207C18.667 17.4324 18.1425 17.7128 17.5715 17.8264C17.0004 17.9399 16.4086 17.8817 15.8707 17.6588C15.3328 17.436 14.873 17.0587 14.5496 16.5746C14.2261 16.0906 14.0535 15.5214 14.0535 14.9392C14.0535 14.1585 14.3636 13.4097 14.9157 12.8577C15.4677 12.3056 16.2165 11.9955 16.9972 11.9955Z" fill="white"/>
<circle opacity="0.5" cx="16.999" cy="14.9643" r="3.00482" fill="white"/>
</svg>
