<svg width="62" height="62" viewBox="0 0 62 62" fill="none" xmlns="http://www.w3.org/2000/svg">
<rect width="62" height="62" rx="14" fill="#FFCD42"/>
<path fill-rule="evenodd" clip-rule="evenodd" d="M25.0008 14.2004C28.78 12.0046 33.4252 12.0429 37.1689 14.301C40.8758 16.605 43.1288 20.7169 43.1078 25.1403C43.0215 29.5346 40.6057 33.6653 37.5859 36.8585C35.843 38.7098 33.8932 40.3469 31.7764 41.7362C31.5584 41.8622 31.3196 41.9466 31.0718 41.9852C30.8333 41.975 30.6011 41.9046 30.396 41.7801C27.1643 39.6926 24.3292 37.0279 22.0269 33.9143C20.1004 31.3152 19.006 28.1752 18.8921 24.9206C18.8896 20.4887 21.2216 16.3963 25.0008 14.2004ZM27.1844 26.754C27.8201 28.3212 29.3206 29.3435 30.9853 29.3435C32.0759 29.3513 33.1242 28.9145 33.8968 28.1303C34.6693 27.3461 35.1018 26.2798 35.0979 25.1689C35.1038 23.4732 34.1054 21.9411 32.5691 21.2881C31.0328 20.635 29.2615 20.9898 28.0823 22.1868C26.9032 23.3837 26.5486 25.1868 27.1844 26.754Z" fill="white"/>
<ellipse opacity="0.7" cx="31.0003" cy="47.2023" rx="11.0896" ry="2.21793" fill="white"/>
</svg>
