<svg width="186" height="34" viewBox="0 0 186 34" fill="none" xmlns="http://www.w3.org/2000/svg">
<g clip-path="url(#clip0_2937_25082)">
<rect width="18.7521" height="18.7521" rx="3.21333" transform="matrix(0.866025 0.5 -2.20305e-08 1 14.5795 -0.275665)" fill="#FFCD42"/>
<rect width="18.7521" height="18.7521" rx="3.21333" transform="matrix(0.866025 0.5 -2.20305e-08 1 8.8933 3.10738)" fill="#FF4267"/>
<rect width="18.7521" height="18.7521" rx="3.21333" transform="matrix(0.866025 0.5 -2.20305e-08 1 3.73239 6.14754)" fill="#7D42FB"/>
<path d="M47.3159 24.3525H51.2523V12.0598H56.0634V8.53779H42.5277V12.0598H47.3159V24.3525ZM63.919 21.6591C62.5608 21.6591 61.594 20.7383 61.2947 19.3802H69.9732C69.9732 14.8683 67.6712 12.1749 63.8959 12.1749C60.3048 12.1749 57.6115 14.7532 57.6115 18.3673C57.6115 22.0275 60.3969 24.6287 64.0801 24.6287C65.8757 24.6287 67.9014 23.869 68.9603 22.7871L66.7965 20.6002C66.0138 21.2448 64.9318 21.6591 63.919 21.6591ZM63.919 15.1445C65.139 15.1445 65.9677 15.9732 66.244 17.1933H61.3407C61.7091 15.9502 62.6529 15.1445 63.919 15.1445ZM77.8617 24.6287C79.9565 24.6287 81.6139 23.777 82.7879 22.4418L80.2097 20.324C79.6802 20.9455 78.7594 21.3829 77.9077 21.3829C76.3423 21.3829 75.0532 20.0017 75.0532 18.3673C75.0532 16.7789 76.3423 15.4207 77.8847 15.4207C78.7364 15.4207 79.6342 15.8581 80.1406 16.4336L82.7188 14.2928C81.5909 13.0037 79.9334 12.1749 77.9307 12.1749C74.3166 12.1749 71.301 15.0064 71.301 18.3903C71.301 21.7742 74.3166 24.6287 77.8617 24.6287ZM92.084 12.1749C90.5877 12.1749 89.3446 12.7965 88.608 13.7863V8.26156H84.7176V24.3525H88.608V17.4925C88.608 16.3185 89.5058 15.4207 90.7028 15.4207C91.8998 15.4207 92.7285 16.3415 92.7285 17.6537V24.3525H96.4808V16.7789C96.4808 14.0856 94.6622 12.1749 92.084 12.1749ZM105.018 24.6287C107.113 24.6287 108.77 23.777 109.944 22.4418L107.366 20.324C106.837 20.9455 105.916 21.3829 105.064 21.3829C103.499 21.3829 102.21 20.0017 102.21 18.3673C102.21 16.7789 103.499 15.4207 105.041 15.4207C105.893 15.4207 106.79 15.8581 107.297 16.4336L109.875 14.2928C108.747 13.0037 107.09 12.1749 105.087 12.1749C101.473 12.1749 98.4573 15.0064 98.4573 18.3903C98.4573 21.7742 101.473 24.6287 105.018 24.6287ZM111.874 24.3525H115.764V8.26156H111.874V24.3525ZM124.6 24.6287C128.237 24.6287 131.184 21.8203 131.184 18.3903C131.184 14.9603 128.237 12.1749 124.6 12.1749C120.94 12.1749 117.97 14.9603 117.97 18.3903C117.97 21.8203 120.94 24.6287 124.6 24.6287ZM124.6 21.3829C122.989 21.3829 121.676 20.0247 121.676 18.3903C121.676 16.7559 122.989 15.4207 124.6 15.4207C126.188 15.4207 127.477 16.7559 127.477 18.3903C127.477 20.0247 126.188 21.3829 124.6 21.3829ZM141.03 12.4512V19.3111C141.03 20.4851 140.132 21.3829 138.935 21.3829C137.738 21.3829 136.91 20.4621 136.91 19.15V12.4512H133.157V20.0247C133.157 22.7181 134.976 24.6287 137.554 24.6287C139.051 24.6287 140.294 24.0072 141.03 23.0173V24.3525H144.921V12.4512H141.03ZM156.611 8.26156V14.0396C155.668 12.8655 154.286 12.1749 152.675 12.1749C149.498 12.1749 147.219 14.7532 147.219 18.3903C147.219 22.0505 149.498 24.6287 152.675 24.6287C154.286 24.6287 155.668 23.9381 156.611 22.7641V24.3525H160.502V8.26156H156.611ZM153.872 21.3829C152.169 21.3829 150.972 20.1398 150.972 18.3903C150.972 16.6638 152.169 15.4207 153.872 15.4207C155.46 15.4207 156.588 16.6638 156.588 18.3903C156.588 20.1398 155.46 21.3829 153.872 21.3829ZM184.862 8.53779H180.304L176.898 13.2569L173.491 8.53779H168.864L174.573 16.4797L168.864 24.3525H173.422L176.828 19.6334L180.235 24.3525H184.862L179.154 16.4106L184.862 8.53779Z" fill="#211F54"/>
</g>
<defs>
<clipPath id="clip0_2937_25082">
<rect width="186" height="34" fill="white"/>
</clipPath>
</defs>
</svg>
