<svg width="186" height="34" viewBox="0 0 186 34" fill="none" xmlns="http://www.w3.org/2000/svg">
<rect opacity="0.48" width="18.2133" height="18.2133" rx="3.121" transform="matrix(0.866025 0.5 -2.20305e-08 1 15.3114 0.220722)" fill="white"/>
<rect opacity="0.66" width="18.2133" height="18.2133" rx="3.121" transform="matrix(0.866025 0.5 -2.20305e-08 1 9.7886 3.50658)" fill="white"/>
<rect width="18.2133" height="18.2133" rx="3.121" transform="matrix(0.866025 0.5 -2.20305e-08 1 4.77599 6.45936)" fill="white"/>
<path d="M47.3776 24.8363H51.2842V12.6366H56.059V9.14121H42.6257V12.6366H47.3776V24.8363ZM63.8551 22.1633C62.5072 22.1633 61.5477 21.2495 61.2507 19.9016H69.8636C69.8636 15.4238 67.579 12.7508 63.8323 12.7508C60.2683 12.7508 57.5954 15.3096 57.5954 18.8964C57.5954 22.5288 60.3597 25.1104 64.015 25.1104C65.797 25.1104 67.8074 24.3565 68.8584 23.2828L66.7109 21.1124C65.9341 21.7521 64.8603 22.1633 63.8551 22.1633ZM63.8551 15.698C65.066 15.698 65.8884 16.5204 66.1626 17.7312H61.2964C61.6619 16.4976 62.5986 15.698 63.8551 15.698ZM77.6924 25.1104C79.7713 25.1104 81.4162 24.2651 82.5814 22.9401L80.0226 20.8383C79.4972 21.4551 78.5833 21.8892 77.738 21.8892C76.1845 21.8892 74.9052 20.5184 74.9052 18.8964C74.9052 17.32 76.1845 15.9721 77.7152 15.9721C78.5605 15.9721 79.4515 16.4062 79.9541 16.9773L82.5128 14.8527C81.3934 13.5733 79.7485 12.7508 77.7609 12.7508C74.1741 12.7508 71.1813 15.5609 71.1813 18.9192C71.1813 22.2775 74.1741 25.1104 77.6924 25.1104ZM91.8071 12.7508C90.3221 12.7508 89.0885 13.3677 88.3574 14.3501V8.86706H84.4965V24.8363H88.3574V18.0282C88.3574 16.8631 89.2484 15.9721 90.4364 15.9721C91.6244 15.9721 92.4468 16.8859 92.4468 18.1881V24.8363H96.1707V17.32C96.1707 14.647 94.3659 12.7508 91.8071 12.7508ZM104.643 25.1104C106.722 25.1104 108.367 24.2651 109.532 22.9401L106.974 20.8383C106.448 21.4551 105.534 21.8892 104.689 21.8892C103.135 21.8892 101.856 20.5184 101.856 18.8964C101.856 17.32 103.135 15.9721 104.666 15.9721C105.511 15.9721 106.402 16.4062 106.905 16.9773L109.464 14.8527C108.344 13.5733 106.699 12.7508 104.712 12.7508C101.125 12.7508 98.1322 15.5609 98.1322 18.9192C98.1322 22.2775 101.125 25.1104 104.643 25.1104ZM111.447 24.8363H115.308V8.86706H111.447V24.8363ZM124.077 25.1104C127.687 25.1104 130.611 22.3232 130.611 18.9192C130.611 15.5152 127.687 12.7508 124.077 12.7508C120.445 12.7508 117.498 15.5152 117.498 18.9192C117.498 22.3232 120.445 25.1104 124.077 25.1104ZM124.077 21.8892C122.478 21.8892 121.176 20.5413 121.176 18.9192C121.176 17.2972 122.478 15.9721 124.077 15.9721C125.654 15.9721 126.933 17.2972 126.933 18.9192C126.933 20.5413 125.654 21.8892 124.077 21.8892ZM140.383 13.025V19.833C140.383 20.9982 139.492 21.8892 138.304 21.8892C137.116 21.8892 136.294 20.9753 136.294 19.6731V13.025H132.57V20.5413C132.57 23.2142 134.375 25.1104 136.933 25.1104C138.418 25.1104 139.652 24.4936 140.383 23.5112V24.8363H144.244V13.025H140.383ZM155.847 8.86706V14.6014C154.91 13.4362 153.539 12.7508 151.94 12.7508C148.787 12.7508 146.525 15.3096 146.525 18.9192C146.525 22.5517 148.787 25.1104 151.94 25.1104C153.539 25.1104 154.91 24.425 155.847 23.2599V24.8363H159.707V8.86706H155.847ZM153.128 21.8892C151.437 21.8892 150.249 20.6555 150.249 18.9192C150.249 17.2058 151.437 15.9721 153.128 15.9721C154.704 15.9721 155.824 17.2058 155.824 18.9192C155.824 20.6555 154.704 21.8892 153.128 21.8892ZM183.884 9.14121H179.36L175.979 13.8246L172.598 9.14121H168.006L173.672 17.023L168.006 24.8363H172.53L175.911 20.1529L179.292 24.8363H183.884L178.218 16.9545L183.884 9.14121Z" fill="white"/>
</svg>
