<svg width="54" height="54" viewBox="0 0 54 54" fill="none" xmlns="http://www.w3.org/2000/svg">
<rect width="54" height="54" rx="16" fill="#FF4267"/>
<path d="M24 18C21.6266 18 19.3066 18.7038 17.3332 20.0224C15.3598 21.3409 13.8217 23.2151 12.9135 25.4078C12.0052 27.6005 11.7676 30.0133 12.2306 32.3411C12.6936 34.6689 13.8365 36.8071 15.5147 38.4853C17.193 40.1635 19.3311 41.3064 21.6589 41.7694C23.9867 42.2324 26.3995 41.9948 28.5922 41.0866C30.7849 40.1783 32.6591 38.6402 33.9776 36.6668C35.2962 34.6935 36 32.3734 36 30C36 29.1716 35.3284 28.5 34.5 28.5H27C26.1716 28.5 25.5 27.8284 25.5 27V19.5C25.5 18.6716 24.8284 18 24 18Z" fill="white"/>
<path opacity="0.5" d="M30 12C29.6022 12 29.2206 12.158 28.9393 12.4393C28.658 12.7206 28.5 13.1022 28.5 13.5V24C28.5 24.3978 28.658 24.7794 28.9393 25.0607C29.2206 25.342 29.6022 25.5 30 25.5L40.5 25.5C40.8978 25.5 41.2794 25.342 41.5607 25.0607C41.842 24.7794 42 24.3978 42 24C42 20.8174 40.7357 17.7652 38.4853 15.5147C36.2348 13.2643 33.1826 12 30 12Z" fill="white"/>
</svg>
