<svg width="688" height="422" viewBox="0 0 688 422" fill="none" xmlns="http://www.w3.org/2000/svg">
<g filter="url(#filter0_d_2926_24379)">
<path d="M266.249 34.4033C266.249 20.5962 277.442 9.40332 291.249 9.40332H651C664.807 9.40332 676 20.5962 676 34.4033V381.596C676 395.403 664.807 406.596 651 406.596H291.249C277.442 406.596 266.249 395.403 266.249 381.596V34.4033Z" fill="white"/>
<path d="M291.249 9.90332H651C664.531 9.90332 675.5 20.8723 675.5 34.4033V381.596C675.5 395.127 664.531 406.096 651 406.096H291.249C277.718 406.096 266.749 395.127 266.749 381.596V34.4033C266.749 20.8723 277.718 9.90332 291.249 9.90332Z" stroke="#EFF0F7"/>
</g>
<line x1="288.757" y1="63.1133" x2="654.996" y2="63.1133" stroke="#EFF0F7"/>
<circle cx="503.482" cy="36.5072" r="4.5101" fill="#FFCD42"/>
<path d="M521.562 34.1604C521.562 32.5061 520.16 31.3317 518.341 31.3317H514.692V40.0073H515.967V36.9892H517.622L519.743 40.0073H521.208L519.049 36.926C520.514 36.6735 521.562 35.6001 521.562 34.1604ZM515.967 32.5187H518.152C519.402 32.5187 520.261 33.1375 520.261 34.1604C520.261 35.1833 519.402 35.8021 518.152 35.8021H515.967V32.5187ZM526.049 39.1233C524.887 39.1233 524.079 38.2899 523.927 37.1407H529.143C529.143 34.8171 527.981 33.327 525.986 33.327C524.18 33.327 522.702 34.7666 522.702 36.724C522.702 38.7319 524.268 40.1589 526.074 40.1589C526.996 40.1589 528.145 39.7674 528.713 39.1486L527.981 38.3783C527.577 38.8076 526.756 39.1233 526.049 39.1233ZM526.011 34.3625C527.147 34.3625 527.804 35.1707 527.93 36.2188H523.94C524.129 35.0949 524.963 34.3625 526.011 34.3625ZM532.514 40.0073H533.688L536.441 33.4785H535.09L533.094 38.5551L531.061 33.4785H529.723L532.514 40.0073ZM540.44 39.1233C539.279 39.1233 538.47 38.2899 538.319 37.1407H543.534C543.534 34.8171 542.373 33.327 540.377 33.327C538.571 33.327 537.094 34.7666 537.094 36.724C537.094 38.7319 538.66 40.1589 540.466 40.1589C541.388 40.1589 542.537 39.7674 543.105 39.1486L542.373 38.3783C541.969 38.8076 541.148 39.1233 540.44 39.1233ZM540.403 34.3625C541.539 34.3625 542.196 35.1707 542.322 36.2188H538.332C538.521 35.0949 539.354 34.3625 540.403 34.3625ZM548.332 33.327C547.436 33.327 546.628 33.7816 546.249 34.4382V33.4785H544.999V40.0073H546.249V35.9536C546.249 35.0949 547.057 34.413 548.055 34.413C548.939 34.413 549.557 35.0823 549.557 36.0673V40.0073H550.77V35.8526C550.77 34.3499 549.772 33.327 548.332 33.327ZM557.064 33.4785V37.5322C557.064 38.3909 556.268 39.0728 555.27 39.0728C554.386 39.0728 553.768 38.4035 553.768 37.4185V33.4785H552.543V37.6332C552.543 39.136 553.54 40.1589 554.98 40.1589C555.876 40.1589 556.672 39.7169 557.064 39.0728V40.0073H558.314V33.4785H557.064ZM563.218 39.1233C562.056 39.1233 561.248 38.2899 561.097 37.1407H566.312C566.312 34.8171 565.15 33.327 563.155 33.327C561.349 33.327 559.872 34.7666 559.872 36.724C559.872 38.7319 561.438 40.1589 563.244 40.1589C564.165 40.1589 565.315 39.7674 565.883 39.1486L565.15 38.3783C564.746 38.8076 563.925 39.1233 563.218 39.1233ZM563.18 34.3625C564.317 34.3625 564.974 35.1707 565.1 36.2188H561.109C561.299 35.0949 562.132 34.3625 563.18 34.3625Z" fill="#6E7191"/>
<circle cx="587.074" cy="36.5072" r="4.5101" fill="#7D42FB"/>
<path d="M598.284 40.0073H599.56V36.9892H601.934C603.752 36.9892 605.154 35.8147 605.154 34.1604C605.154 32.5061 603.752 31.3317 601.934 31.3317H598.284V40.0073ZM599.56 35.8021V32.5187H601.744C602.994 32.5187 603.853 33.1375 603.853 34.1604C603.853 35.1833 602.994 35.8021 601.744 35.8021H599.56ZM607.963 34.754V33.4785H606.713V40.0073H607.963V36.5345C607.963 35.2717 608.948 34.413 610.388 34.413V33.327C609.251 33.327 608.367 33.8826 607.963 34.754ZM614.76 40.1589C616.642 40.1589 618.195 38.6182 618.195 36.7366C618.195 34.855 616.642 33.327 614.76 33.327C612.879 33.327 611.325 34.855 611.325 36.7366C611.325 38.6182 612.879 40.1589 614.76 40.1589ZM614.76 39.0728C613.561 39.0728 612.576 38.0247 612.576 36.7366C612.576 35.4485 613.561 34.413 614.76 34.413C615.96 34.413 616.945 35.4485 616.945 36.7366C616.945 38.0247 615.96 39.0728 614.76 39.0728ZM621.202 32.7587C621.202 32.3041 621.505 31.9757 621.871 31.9757C622.149 31.9757 622.401 32.0768 622.54 32.2157L622.995 31.3822C622.641 31.0918 622.161 30.915 621.694 30.915C620.684 30.915 619.977 31.6474 619.977 32.6955V33.4785H618.992V34.5393H619.977V40.0073H621.202V34.5393H622.742V33.4785H621.202V32.7587ZM624.56 32.3925C624.977 32.3925 625.306 32.0389 625.306 31.6348C625.306 31.2433 624.977 30.8897 624.56 30.8897C624.144 30.8897 623.803 31.2433 623.803 31.6348C623.803 32.0389 624.144 32.3925 624.56 32.3925ZM623.929 40.0073H625.179V33.4785H623.929V40.0073ZM630.013 38.8329C629.886 38.9718 629.634 39.0728 629.356 39.0728C628.99 39.0728 628.674 38.7445 628.674 38.2899V34.5393H630.215V33.4785H628.674V31.6853H627.449V33.4785H626.477V34.5393H627.449V38.3783C627.449 39.4264 628.156 40.1589 629.167 40.1589C629.634 40.1589 630.126 39.9821 630.48 39.6916L630.013 38.8329Z" fill="#6E7191"/>
<path d="M293.872 40.6883C296.377 40.6883 297.877 39.3833 297.877 37.4183C297.877 35.5133 296.407 34.8533 294.187 34.3583C292.597 33.9983 291.967 33.7583 291.967 33.0083C291.967 32.3933 292.552 31.8983 293.482 31.8983C294.472 31.8983 295.507 32.3033 296.437 33.0533L297.592 31.4483C296.527 30.5483 295.237 30.0233 293.557 30.0233C291.292 30.0233 289.732 31.3283 289.732 33.2333C289.732 35.2283 291.292 35.8433 293.467 36.3383C295.042 36.6983 295.642 36.9233 295.642 37.6583C295.642 38.3033 295.072 38.8133 293.947 38.8133C292.642 38.8133 291.532 38.3033 290.557 37.4633L289.297 38.9783C290.497 40.0883 292.072 40.6883 293.872 40.6883ZM302.862 32.5733C301.782 32.5733 300.717 32.8733 299.622 33.4283L300.357 34.8833C300.972 34.5683 301.647 34.3283 302.367 34.3283C303.642 34.3283 304.167 35.0483 304.167 35.8733V36.0383C303.507 35.7683 302.802 35.6333 302.172 35.6333C300.387 35.6333 298.962 36.6833 298.962 38.2133C298.962 39.6983 300.222 40.6883 301.872 40.6883C302.727 40.6883 303.612 40.3433 304.167 39.7283V40.5083H306.282V35.8733C306.282 33.8483 304.887 32.5733 302.862 32.5733ZM302.367 39.1733C301.617 39.1733 301.047 38.7833 301.047 38.1533C301.047 37.5233 301.692 37.0583 302.487 37.0583C303.087 37.0583 303.672 37.1633 304.167 37.3583V38.0633C304.002 38.7833 303.207 39.1733 302.367 39.1733ZM308.206 40.5083H310.396V30.0233H308.206V40.5083ZM316.053 38.9933C314.988 38.9933 314.268 38.2583 314.073 37.2083H319.908C319.908 34.3283 318.438 32.5733 316.008 32.5733C313.743 32.5733 311.988 34.2683 311.988 36.6083C311.988 38.9933 313.818 40.6883 316.128 40.6883C317.268 40.6883 318.603 40.2083 319.293 39.4883L318.063 38.2283C317.568 38.6783 316.773 38.9933 316.053 38.9933ZM316.038 34.2683C317.013 34.2683 317.628 34.9433 317.808 35.9033H314.088C314.328 34.9133 315.063 34.2683 316.038 34.2683ZM324.224 40.6883C326.129 40.6883 327.389 39.7133 327.389 38.1833C327.389 36.4883 325.889 36.0383 324.554 35.6933C323.504 35.4083 323.069 35.2883 323.069 34.8683C323.069 34.4333 323.519 34.1483 324.119 34.1483C324.824 34.1483 325.664 34.4933 326.369 34.9433L327.164 33.5333C326.309 32.9633 325.214 32.5733 324.119 32.5733C322.274 32.5733 321.089 33.6233 321.089 35.0933C321.089 36.6233 322.319 37.0583 323.909 37.4483C324.764 37.6583 325.394 37.8683 325.394 38.3633C325.394 38.8133 325.004 39.0833 324.269 39.0833C323.429 39.0833 322.409 38.7083 321.614 38.1383L320.729 39.5183C321.659 40.2683 322.979 40.6883 324.224 40.6883ZM335.21 34.2083V32.7533H333.02V40.5083H335.21V36.8033C335.21 35.3483 336.245 34.4183 337.865 34.4183V32.5733C336.68 32.5733 335.72 33.2033 335.21 34.2083ZM343.02 38.9933C341.955 38.9933 341.235 38.2583 341.04 37.2083H346.875C346.875 34.3283 345.405 32.5733 342.975 32.5733C340.71 32.5733 338.955 34.2683 338.955 36.6083C338.955 38.9933 340.785 40.6883 343.095 40.6883C344.235 40.6883 345.57 40.2083 346.26 39.4883L345.03 38.2283C344.535 38.6783 343.74 38.9933 343.02 38.9933ZM343.005 34.2683C343.98 34.2683 344.595 34.9433 344.775 35.9033H341.055C341.295 34.9133 342.03 34.2683 343.005 34.2683ZM353.157 32.5733C352.062 32.5733 351.162 33.0533 350.547 33.8633V32.7533H348.357V43.0883H350.547V39.3983C351.162 40.2083 352.062 40.6883 353.157 40.6883C355.227 40.6883 356.727 39.0083 356.727 36.6233C356.727 34.2533 355.227 32.5733 353.157 32.5733ZM352.527 38.8433C351.372 38.8433 350.547 37.9283 350.547 36.6233C350.547 35.3333 351.372 34.4183 352.527 34.4183C353.742 34.4183 354.597 35.3333 354.597 36.6233C354.597 37.9283 353.742 38.8433 352.527 38.8433ZM362.022 40.6883C364.347 40.6883 366.252 38.8583 366.252 36.6233C366.252 34.3883 364.347 32.5733 362.022 32.5733C359.697 32.5733 357.792 34.3883 357.792 36.6233C357.792 38.8583 359.697 40.6883 362.022 40.6883ZM362.022 38.8433C360.852 38.8433 359.892 37.8383 359.892 36.6233C359.892 35.4083 360.852 34.4183 362.022 34.4183C363.192 34.4183 364.137 35.4083 364.137 36.6233C364.137 37.8383 363.192 38.8433 362.022 38.8433ZM369.985 34.2083V32.7533H367.795V40.5083H369.985V36.8033C369.985 35.3483 371.02 34.4183 372.64 34.4183V32.5733C371.455 32.5733 370.495 33.2033 369.985 34.2083ZM378.186 38.5883C378.036 38.7383 377.736 38.8433 377.436 38.8433C377.031 38.8433 376.716 38.4833 376.716 37.9733V34.5233H378.396V32.7533H376.716V30.6233H374.601V32.7533H373.536V34.5233H374.601V38.3183C374.601 39.7133 375.561 40.6883 376.941 40.6883C377.556 40.6883 378.261 40.4183 378.711 40.0133L378.186 38.5883ZM382.964 40.6883C384.869 40.6883 386.129 39.7133 386.129 38.1833C386.129 36.4883 384.629 36.0383 383.294 35.6933C382.244 35.4083 381.809 35.2883 381.809 34.8683C381.809 34.4333 382.259 34.1483 382.859 34.1483C383.564 34.1483 384.404 34.4933 385.109 34.9433L385.904 33.5333C385.049 32.9633 383.954 32.5733 382.859 32.5733C381.014 32.5733 379.829 33.6233 379.829 35.0933C379.829 36.6233 381.059 37.0583 382.649 37.4483C383.504 37.6583 384.134 37.8683 384.134 38.3633C384.134 38.8133 383.744 39.0833 383.009 39.0833C382.169 39.0833 381.149 38.7083 380.354 38.1383L379.469 39.5183C380.399 40.2683 381.719 40.6883 382.964 40.6883Z" fill="#211F54"/>
<path d="M312.481 284.386L287.412 304.554V392.17L654.996 391.459V173.103L629.898 198.708C606.517 222.562 572.822 233.257 539.965 227.254C513.619 222.441 486.442 228.33 464.452 243.618L455.279 249.995C435.243 263.924 410.526 269.403 386.48 265.244C360.209 260.701 333.254 267.674 312.481 284.386Z" fill="url(#paint0_linear_2926_24379)" fill-opacity="0.4"/>
<path d="M313.017 205.88L287.412 226.48V314.096L654.996 313.384V121.465L585.389 114.116C555.729 110.985 525.966 119.011 501.901 136.63L455.293 170.755C435.301 185.393 410.218 191.275 385.802 187.053C359.963 182.584 333.449 189.442 313.017 205.88Z" fill="url(#paint1_linear_2926_24379)" fill-opacity="0.4"/>
<path d="M288.757 304.077L312.519 284.705C333.252 267.803 360.291 260.715 386.649 265.274V265.274C410.587 269.414 435.192 263.96 455.139 250.093L464.582 243.528C486.489 228.298 513.563 222.431 539.809 227.225V227.225C572.738 233.241 606.496 222.421 629.793 198.385L653.913 173.5" stroke="#7D42FB" stroke-width="3" stroke-linecap="round"/>
<path d="M288.757 226.002L313.152 206.115C333.482 189.541 359.998 182.59 385.845 187.061V187.061C410.221 191.276 435.26 185.342 455.152 170.636L500.921 136.798C525.283 118.787 555.557 110.658 585.665 114.042L654.955 121.832" stroke="#FFCD42" stroke-width="3" stroke-linecap="round"/>
<rect x="490.155" y="219.5" width="17.6326" height="17.6326" rx="8.81631" fill="#7D42FB" stroke="white" stroke-width="2.55"/>
<g filter="url(#filter1_d_2926_24379)">
<path fill-rule="evenodd" clip-rule="evenodd" d="M441.426 115.141C435.985 115.141 431.573 119.553 431.573 124.994V184.735C431.573 190.177 435.985 194.589 441.426 194.589H491.737L496.546 202.016C497.938 204.165 501.083 204.165 502.474 202.016L507.283 194.589H557.595C563.037 194.589 567.448 190.177 567.448 184.735V124.994C567.448 119.553 563.037 115.141 557.595 115.141H441.426Z" fill="#FF0000" fill-opacity="0.01" shape-rendering="crispEdges"/>
</g>
<mask id="path-15-inside-1_2926_24379" fill="white">
<path fill-rule="evenodd" clip-rule="evenodd" d="M443.384 108.777C434.422 108.777 427.156 116.043 427.156 125.005V182.728C427.156 191.691 434.422 198.956 443.384 198.956H493.055L494.809 201.995C496.659 205.199 501.284 205.199 503.134 201.995L504.888 198.956H554.558C563.521 198.956 570.786 191.691 570.786 182.728V125.005C570.786 116.043 563.521 108.777 554.558 108.777H443.384Z"/>
</mask>
<path fill-rule="evenodd" clip-rule="evenodd" d="M443.384 108.777C434.422 108.777 427.156 116.043 427.156 125.005V182.728C427.156 191.691 434.422 198.956 443.384 198.956H493.055L494.809 201.995C496.659 205.199 501.284 205.199 503.134 201.995L504.888 198.956H554.558C563.521 198.956 570.786 191.691 570.786 182.728V125.005C570.786 116.043 563.521 108.777 554.558 108.777H443.384Z" fill="white"/>
<path d="M493.055 198.956L494.159 198.319L493.791 197.681H493.055V198.956ZM494.809 201.995L495.913 201.357L495.913 201.357L494.809 201.995ZM503.134 201.995L502.03 201.357L502.03 201.357L503.134 201.995ZM504.888 198.956V197.681H504.152L503.784 198.319L504.888 198.956ZM428.431 125.005C428.431 116.747 435.126 110.052 443.384 110.052V107.502C433.718 107.502 425.881 115.339 425.881 125.005H428.431ZM428.431 182.728V125.005H425.881V182.728H428.431ZM443.384 197.681C435.126 197.681 428.431 190.986 428.431 182.728H425.881C425.881 192.395 433.718 200.231 443.384 200.231V197.681ZM493.055 197.681H443.384V200.231H493.055V197.681ZM495.913 201.357L494.159 198.319L491.951 199.594L493.705 202.632L495.913 201.357ZM502.03 201.357C500.67 203.711 497.272 203.711 495.913 201.357L493.705 202.632C496.046 206.686 501.897 206.686 504.238 202.632L502.03 201.357ZM503.784 198.319L502.03 201.357L504.238 202.632L505.992 199.594L503.784 198.319ZM554.558 197.681H504.888V200.231H554.558V197.681ZM569.512 182.728C569.512 190.986 562.816 197.681 554.558 197.681V200.231C564.225 200.231 572.061 192.395 572.061 182.728H569.512ZM569.512 125.005V182.728H572.061V125.005H569.512ZM554.558 110.052C562.816 110.052 569.512 116.747 569.512 125.005H572.061C572.061 115.339 564.225 107.502 554.558 107.502V110.052ZM443.384 110.052H554.558V107.502H443.384V110.052Z" fill="#EFF0F7" mask="url(#path-15-inside-1_2926_24379)"/>
<circle cx="454.981" cy="142.248" r="5.73673" fill="#FF4267"/>
<circle cx="454.98" cy="142.249" r="6.89735" fill="#FFCD42"/>
<path d="M478.217 143.504C478.217 141.862 477.003 141.2 475.182 140.759V138.193C475.83 138.358 476.465 138.703 477.03 139.186L477.968 137.931C477.21 137.269 476.299 136.8 475.182 136.662V135.779H473.926V136.634C472.188 136.8 470.988 137.931 470.988 139.462C470.988 141.131 472.174 141.724 473.926 142.166V144.856C473.044 144.69 472.285 144.249 471.609 143.642L470.602 144.87C471.485 145.697 472.616 146.221 473.926 146.359V147.27H475.182V146.373C477.127 146.208 478.217 145.063 478.217 143.504ZM472.726 139.31C472.726 138.745 473.195 138.248 473.926 138.124V140.441C473.112 140.179 472.726 139.89 472.726 139.31ZM475.182 144.897V142.497C476.078 142.759 476.492 143.062 476.492 143.669C476.492 144.249 476.037 144.759 475.182 144.897ZM481.757 146.249H483.482V136.772H482.102L479.44 138.579L480.13 139.793L481.757 138.758V146.249ZM488.879 136.607C486.837 136.607 485.348 137.958 485.348 139.834C485.348 141.724 486.796 142.828 488.534 142.828C489.5 142.828 490.396 142.428 490.99 141.766C490.865 143.614 489.927 144.897 488.589 144.897C487.762 144.897 487.168 144.552 486.589 144.042L485.748 145.352C486.506 146.001 487.403 146.415 488.589 146.415C491.045 146.415 492.769 144.276 492.769 141.352C492.769 138.621 491.583 136.607 488.879 136.607ZM488.989 141.421C487.955 141.421 487.099 140.8 487.099 139.766C487.099 138.896 487.803 138.069 488.962 138.069C490.107 138.069 490.7 138.855 490.907 140.124C490.631 140.91 489.914 141.421 488.989 141.421ZM498.38 146.415C500.808 146.415 502.532 144.387 502.532 141.504C502.532 138.634 500.808 136.607 498.38 136.607C495.938 136.607 494.228 138.634 494.228 141.504C494.228 144.387 495.938 146.415 498.38 146.415ZM498.38 144.842C496.973 144.842 495.98 143.462 495.98 141.504C495.98 139.545 496.973 138.179 498.38 138.179C499.787 138.179 500.766 139.545 500.766 141.504C500.766 143.462 499.787 144.842 498.38 144.842ZM505.264 148.208C506.202 147.215 506.589 146.497 506.589 145.752C506.589 144.883 506.133 144.249 505.43 144.249C504.837 144.249 504.354 144.745 504.354 145.325C504.354 145.918 504.837 146.415 505.416 146.415C505.292 146.856 505.016 147.297 504.616 147.711L505.264 148.208ZM512.689 140.193C511.724 140.193 510.827 140.593 510.234 141.255C510.358 139.407 511.296 138.124 512.634 138.124C513.462 138.124 514.055 138.469 514.634 138.979L515.476 137.669C514.717 137.02 513.82 136.607 512.634 136.607C510.179 136.607 508.454 138.745 508.454 141.669C508.454 144.401 509.641 146.415 512.344 146.415C514.386 146.415 515.876 145.063 515.876 143.187C515.876 141.297 514.427 140.193 512.689 140.193ZM512.262 144.952C511.117 144.952 510.523 144.166 510.316 142.897C510.592 142.111 511.31 141.6 512.234 141.6C513.269 141.6 514.124 142.221 514.124 143.256C514.124 144.125 513.42 144.952 512.262 144.952ZM520.645 146.415C522.811 146.415 524.287 145.145 524.287 143.187C524.287 141.283 522.839 140.207 521.156 140.207C520.342 140.207 519.721 140.455 519.238 140.786L519.321 138.345H523.763V136.772H517.707L517.569 141.807L518.741 142.304C519.279 141.89 519.928 141.642 520.673 141.642C521.804 141.642 522.563 142.29 522.563 143.256C522.563 144.18 521.818 144.925 520.673 144.925C519.721 144.925 518.838 144.442 518.121 143.725L517.1 144.952C517.941 145.835 519.1 146.415 520.645 146.415ZM529.312 146.415C531.354 146.415 533.009 145.421 533.009 143.725C533.009 142.607 532.196 141.78 531.078 141.352C532.03 140.966 532.761 140.262 532.761 139.159C532.761 137.558 531.147 136.607 529.312 136.607C527.533 136.607 525.878 137.531 525.878 139.159C525.878 140.235 526.581 140.938 527.561 141.352C526.457 141.752 525.629 142.58 525.629 143.725C525.629 145.408 527.257 146.415 529.312 146.415ZM529.312 140.731C528.526 140.69 527.574 140.221 527.574 139.379C527.574 138.634 528.319 138.069 529.312 138.069C530.306 138.069 531.064 138.634 531.064 139.379C531.064 140.207 530.126 140.69 529.312 140.731ZM529.312 144.939C528.195 144.939 527.354 144.387 527.354 143.559C527.354 142.676 528.443 142.152 529.312 142.111C530.195 142.152 531.271 142.676 531.271 143.559C531.271 144.387 530.416 144.939 529.312 144.939Z" fill="#211F54"/>
<circle cx="454.98" cy="170.131" r="5.8298" fill="#563AFF"/>
<circle cx="454.98" cy="170.132" r="6.89735" fill="#7D42FB"/>
<path d="M478.217 171.387C478.217 169.745 477.003 169.083 475.182 168.642V166.076C475.83 166.241 476.465 166.586 477.03 167.069L477.968 165.814C477.21 165.151 476.299 164.682 475.182 164.545V163.662H473.926V164.517C472.188 164.682 470.988 165.814 470.988 167.345C470.988 169.014 472.174 169.607 473.926 170.049V172.739C473.044 172.573 472.285 172.132 471.609 171.525L470.602 172.752C471.485 173.58 472.616 174.104 473.926 174.242V175.153H475.182V174.256C477.127 174.09 478.217 172.945 478.217 171.387ZM472.726 167.193C472.726 166.628 473.195 166.131 473.926 166.007V168.324C473.112 168.062 472.726 167.772 472.726 167.193ZM475.182 172.78V170.38C476.078 170.642 476.492 170.945 476.492 171.552C476.492 172.132 476.037 172.642 475.182 172.78ZM481.757 174.132H483.482V164.655H482.102L479.44 166.462L480.13 167.676L481.757 166.641V174.132ZM489.969 174.132H491.693V172.076H493.004V170.6H491.693V164.655H489.624L485.141 170.738L485.306 172.076H489.969V174.132ZM486.975 170.6L489.969 166.531V170.6H486.975ZM497.789 174.297C499.831 174.297 501.486 173.304 501.486 171.607C501.486 170.49 500.672 169.662 499.555 169.235C500.507 168.848 501.238 168.145 501.238 167.041C501.238 165.441 499.624 164.489 497.789 164.489C496.01 164.489 494.355 165.414 494.355 167.041C494.355 168.117 495.058 168.821 496.037 169.235C494.934 169.635 494.106 170.462 494.106 171.607C494.106 173.29 495.734 174.297 497.789 174.297ZM497.789 168.614C497.003 168.573 496.051 168.104 496.051 167.262C496.051 166.517 496.796 165.952 497.789 165.952C498.783 165.952 499.541 166.517 499.541 167.262C499.541 168.09 498.603 168.573 497.789 168.614ZM497.789 172.821C496.672 172.821 495.831 172.27 495.831 171.442C495.831 170.559 496.92 170.035 497.789 169.993C498.672 170.035 499.748 170.559 499.748 171.442C499.748 172.27 498.893 172.821 497.789 172.821ZM504.2 176.091C505.138 175.097 505.524 174.38 505.524 173.635C505.524 172.766 505.069 172.132 504.366 172.132C503.772 172.132 503.29 172.628 503.29 173.208C503.29 173.801 503.772 174.297 504.352 174.297C504.228 174.739 503.952 175.18 503.552 175.594L504.2 176.091ZM510.728 174.297C512.853 174.297 514.26 173.139 514.26 171.511C514.26 170.228 513.267 169.497 512.259 169.262C513.267 168.959 514.053 168.214 514.053 167.069C514.053 165.565 512.715 164.489 510.687 164.489C509.073 164.489 507.969 165.207 507.211 166.158L508.231 167.207C508.88 166.49 509.597 166.034 510.549 166.034C511.57 166.034 512.301 166.572 512.301 167.345C512.301 168.173 511.57 168.628 510.452 168.614H509.39V170.104L510.452 170.09C511.804 170.09 512.494 170.531 512.494 171.373C512.494 172.201 511.804 172.766 510.659 172.766C509.638 172.766 508.728 172.311 508.08 171.566L507.031 172.697C507.804 173.621 509.059 174.297 510.728 174.297ZM519.977 168.076C519.012 168.076 518.115 168.476 517.522 169.138C517.646 167.29 518.584 166.007 519.922 166.007C520.75 166.007 521.343 166.352 521.922 166.862L522.764 165.552C522.005 164.903 521.108 164.489 519.922 164.489C517.467 164.489 515.742 166.628 515.742 169.552C515.742 172.283 516.929 174.297 519.632 174.297C521.674 174.297 523.164 172.945 523.164 171.069C523.164 169.18 521.715 168.076 519.977 168.076ZM519.55 172.835C518.405 172.835 517.811 172.049 517.605 170.78C517.88 169.993 518.598 169.483 519.522 169.483C520.557 169.483 521.412 170.104 521.412 171.138C521.412 172.007 520.708 172.835 519.55 172.835ZM528.154 174.297C530.196 174.297 531.851 173.304 531.851 171.607C531.851 170.49 531.037 169.662 529.92 169.235C530.871 168.848 531.603 168.145 531.603 167.041C531.603 165.441 529.989 164.489 528.154 164.489C526.374 164.489 524.719 165.414 524.719 167.041C524.719 168.117 525.423 168.821 526.402 169.235C525.298 169.635 524.471 170.462 524.471 171.607C524.471 173.29 526.098 174.297 528.154 174.297ZM528.154 168.614C527.368 168.573 526.416 168.104 526.416 167.262C526.416 166.517 527.161 165.952 528.154 165.952C529.147 165.952 529.906 166.517 529.906 167.262C529.906 168.09 528.968 168.573 528.154 168.614ZM528.154 172.821C527.037 172.821 526.195 172.27 526.195 171.442C526.195 170.559 527.285 170.035 528.154 169.993C529.037 170.035 530.113 170.559 530.113 171.442C530.113 172.27 529.257 172.821 528.154 172.821Z" fill="#211F54"/>
<g filter="url(#filter2_d_2926_24379)">
<rect x="12.0002" y="11.1699" width="229.249" height="185.071" rx="25" fill="white"/>
<rect x="12.5002" y="11.6699" width="228.249" height="184.071" rx="24.5" stroke="#EFF0F7"/>
</g>
<line x1="25.4805" y1="148.693" x2="223.416" y2="148.693" stroke="#EFF0F7" stroke-width="0.788515"/>
<path d="M47.0242 90.4123C47.0242 89.145 48.0515 88.1177 49.3187 88.1177V88.1177C50.586 88.1177 51.6133 89.145 51.6133 90.4123V149.087H47.0242V90.4123Z" fill="#7D42FB"/>
<path d="M59.4984 108.985C59.4984 107.718 60.5257 106.691 61.793 106.691V106.691C63.0603 106.691 64.0876 107.718 64.0876 108.985V149.086H59.4984V108.985Z" fill="#FF4267"/>
<path d="M71.9729 100.158C71.9729 98.8906 73.0002 97.8633 74.2675 97.8633V97.8633C75.5347 97.8633 76.5621 98.8906 76.5621 100.158V149.087H71.9729V100.158Z" fill="#2FF2B8"/>
<path d="M109.68 63.8556C109.68 62.5884 110.707 61.561 111.974 61.561V61.561C113.242 61.561 114.269 62.5884 114.269 63.8556V149.087H109.68V63.8556Z" fill="#7D42FB"/>
<path d="M122.154 72.5343C122.154 71.2671 123.181 70.2397 124.448 70.2397V70.2397C125.716 70.2397 126.743 71.2671 126.743 72.5343V149.087H122.154V72.5343Z" fill="#FF4267"/>
<path d="M134.628 46.5578C134.628 45.2905 135.656 44.2632 136.923 44.2632V44.2632C138.19 44.2632 139.218 45.2905 139.218 46.5578V149.087H134.628V46.5578Z" fill="#2FF2B8"/>
<path d="M172.334 86.5143C172.334 85.247 173.362 84.2197 174.629 84.2197V84.2197C175.896 84.2197 176.924 85.247 176.924 86.5143V149.087H172.334V86.5143Z" fill="#7D42FB"/>
<path d="M184.808 61.9069C184.808 60.6396 185.836 59.6123 187.103 59.6123V59.6123C188.37 59.6123 189.398 60.6396 189.398 61.9069V149.087H184.808V61.9069Z" fill="#FF4267"/>
<path d="M197.283 37.5324C197.283 36.2651 198.31 35.2378 199.577 35.2378V35.2378C200.845 35.2378 201.872 36.2651 201.872 37.5324V149.087H197.283V37.5324Z" fill="#2FF2B8"/>
<path d="M41.2145 169.217C42.4919 169.217 43.3908 168.29 43.3908 166.984V162.603H42.2175V166.908C42.2175 167.637 41.7539 168.148 41.1199 168.148C40.6279 168.148 40.1264 167.817 39.8993 167.362L39.1044 168.138C39.5208 168.772 40.4102 169.217 41.2145 169.217ZM46.8591 164.098C46.2441 164.098 45.6007 164.268 44.9099 164.609L45.3073 165.413C45.7237 165.205 46.1684 165.044 46.6321 165.044C47.5215 165.044 47.8243 165.593 47.8243 166.161V166.284C47.3796 166.123 46.9065 166.028 46.4617 166.028C45.3547 166.028 44.4747 166.691 44.4747 167.656C44.4747 168.602 45.2506 169.217 46.2914 169.217C46.8591 169.217 47.4647 168.971 47.8243 168.526V169.104H48.9503V166.161C48.9503 164.921 48.1555 164.098 46.8591 164.098ZM46.5469 168.375C45.9981 168.375 45.5817 168.082 45.5817 167.618C45.5817 167.154 46.0549 166.833 46.6321 166.833C47.0578 166.833 47.4647 166.899 47.8243 167.012V167.571C47.7013 168.091 47.1052 168.375 46.5469 168.375ZM52.956 164.098C52.3031 164.098 51.7353 164.41 51.442 164.874V164.212H50.2876V169.104H51.442V166.142C51.442 165.546 51.9719 165.082 52.6343 165.082C53.2398 165.082 53.6562 165.546 53.6562 166.218V169.104H54.7822V165.99C54.7822 164.874 54.0347 164.098 52.956 164.098ZM58.3461 169.104H63.1245V168.025H60.1817L61.5443 166.927C62.6608 166.066 63.0582 165.375 63.0582 164.514C63.0582 163.313 62.0742 162.489 60.7873 162.489C59.737 162.489 58.9517 162.953 58.3366 163.757L59.1031 164.467C59.5762 163.899 60.0682 163.549 60.7495 163.549C61.3361 163.549 61.8566 163.928 61.8566 164.543C61.8566 165.073 61.5632 165.565 60.74 166.227L58.3461 168.138V169.104ZM66.9541 169.217C68.6194 169.217 69.8022 167.826 69.8022 165.849C69.8022 163.88 68.6194 162.489 66.9541 162.489C65.2793 162.489 64.106 163.88 64.106 165.849C64.106 167.826 65.2793 169.217 66.9541 169.217ZM66.9541 168.138C65.9889 168.138 65.3077 167.192 65.3077 165.849C65.3077 164.505 65.9889 163.568 66.9541 163.568C67.9192 163.568 68.591 164.505 68.591 165.849C68.591 167.192 67.9192 168.138 66.9541 168.138ZM70.6543 169.104H75.4327V168.025H72.49L73.8525 166.927C74.9691 166.066 75.3665 165.375 75.3665 164.514C75.3665 163.313 74.3824 162.489 73.0956 162.489C72.0453 162.489 71.2599 162.953 70.6448 163.757L71.4113 164.467C71.8844 163.899 72.3764 163.549 73.0577 163.549C73.6444 163.549 74.1648 163.928 74.1648 164.543C74.1648 165.073 73.8715 165.565 73.0482 166.227L70.6543 168.138V169.104ZM78.723 169.217C80.1801 169.217 81.1453 168.422 81.1453 167.306C81.1453 166.426 80.464 165.924 79.7733 165.763C80.464 165.555 81.0033 165.044 81.0033 164.259C81.0033 163.228 80.0855 162.489 78.6946 162.489C77.5875 162.489 76.8305 162.981 76.3101 163.634L77.0103 164.354C77.455 163.861 77.9471 163.549 78.6 163.549C79.3002 163.549 79.8017 163.918 79.8017 164.448C79.8017 165.016 79.3002 165.328 78.5337 165.319H77.8051V166.341L78.5337 166.331C79.461 166.331 79.9341 166.634 79.9341 167.211C79.9341 167.779 79.461 168.167 78.6757 168.167C77.9755 168.167 77.3509 167.855 76.9062 167.344L76.1871 168.119C76.717 168.753 77.578 169.217 78.723 169.217Z" fill="#4A4566"/>
<path d="M110.503 163.682V162.603H105.611V169.104H106.794V166.407H110.144V165.328H106.794V163.682H110.503ZM113.771 168.29C113.014 168.29 112.475 167.76 112.352 166.993H116.146C116.146 165.215 115.257 164.098 113.743 164.098C112.342 164.098 111.235 165.167 111.235 166.643C111.235 168.148 112.399 169.217 113.809 169.217C114.519 169.217 115.37 168.914 115.796 168.46L115.134 167.779C114.821 168.082 114.263 168.29 113.771 168.29ZM113.752 165.025C114.49 165.025 114.925 165.536 115.03 166.227H112.361C112.513 165.498 113.052 165.025 113.752 165.025ZM120.062 164.098C119.314 164.098 118.709 164.448 118.33 165.035V162.489H117.176V169.104H118.33V168.271C118.709 168.867 119.314 169.217 120.062 169.217C121.358 169.217 122.314 168.157 122.314 166.653C122.314 165.158 121.358 164.098 120.062 164.098ZM119.75 168.233C118.945 168.233 118.368 167.571 118.368 166.653C118.368 165.735 118.945 165.082 119.75 165.082C120.582 165.082 121.169 165.735 121.169 166.653C121.169 167.571 120.582 168.233 119.75 168.233ZM125.641 169.104H130.419V168.025H127.477L128.839 166.927C129.956 166.066 130.353 165.375 130.353 164.514C130.353 163.313 129.369 162.489 128.082 162.489C127.032 162.489 126.247 162.953 125.632 163.757L126.398 164.467C126.871 163.899 127.363 163.549 128.044 163.549C128.631 163.549 129.151 163.928 129.151 164.543C129.151 165.073 128.858 165.565 128.035 166.227L125.641 168.138V169.104ZM134.249 169.217C135.914 169.217 137.097 167.826 137.097 165.849C137.097 163.88 135.914 162.489 134.249 162.489C132.574 162.489 131.401 163.88 131.401 165.849C131.401 167.826 132.574 169.217 134.249 169.217ZM134.249 168.138C133.284 168.138 132.603 167.192 132.603 165.849C132.603 164.505 133.284 163.568 134.249 163.568C135.214 163.568 135.886 164.505 135.886 165.849C135.886 167.192 135.214 168.138 134.249 168.138ZM137.949 169.104H142.728V168.025H139.785L141.147 166.927C142.264 166.066 142.661 165.375 142.661 164.514C142.661 163.313 141.677 162.489 140.39 162.489C139.34 162.489 138.555 162.953 137.94 163.757L138.706 164.467C139.179 163.899 139.671 163.549 140.353 163.549C140.939 163.549 141.46 163.928 141.46 164.543C141.46 165.073 141.166 165.565 140.343 166.227L137.949 168.138V169.104ZM146.018 169.217C147.475 169.217 148.44 168.422 148.44 167.306C148.44 166.426 147.759 165.924 147.068 165.763C147.759 165.555 148.298 165.044 148.298 164.259C148.298 163.228 147.38 162.489 145.99 162.489C144.882 162.489 144.125 162.981 143.605 163.634L144.305 164.354C144.75 163.861 145.242 163.549 145.895 163.549C146.595 163.549 147.097 163.918 147.097 164.448C147.097 165.016 146.595 165.328 145.829 165.319H145.1V166.341L145.829 166.331C146.756 166.331 147.229 166.634 147.229 167.211C147.229 167.779 146.756 168.167 145.971 168.167C145.27 168.167 144.646 167.855 144.201 167.344L143.482 168.119C144.012 168.753 144.873 169.217 146.018 169.217Z" fill="#4A4566"/>
<path d="M167.363 169.104H168.537V164.76L170.685 168.725L172.823 164.76V169.104H174.006V162.603H172.823L170.685 166.568L168.537 162.603H167.363V169.104ZM177.569 164.098C176.954 164.098 176.311 164.268 175.62 164.609L176.018 165.413C176.434 165.205 176.879 165.044 177.342 165.044C178.232 165.044 178.535 165.593 178.535 166.161V166.284C178.09 166.123 177.617 166.028 177.172 166.028C176.065 166.028 175.185 166.691 175.185 167.656C175.185 168.602 175.961 169.217 177.002 169.217C177.569 169.217 178.175 168.971 178.535 168.526V169.104H179.661V166.161C179.661 164.921 178.866 164.098 177.569 164.098ZM177.257 168.375C176.708 168.375 176.292 168.082 176.292 167.618C176.292 167.154 176.765 166.833 177.342 166.833C177.768 166.833 178.175 166.899 178.535 167.012V167.571C178.412 168.091 177.816 168.375 177.257 168.375ZM182.152 165.139V164.212H180.998V169.104H182.152V166.634C182.152 165.707 182.853 165.082 183.903 165.082V164.098C183.108 164.098 182.465 164.505 182.152 165.139ZM187.181 169.104H191.959V168.025H189.016L190.379 166.927C191.495 166.066 191.893 165.375 191.893 164.514C191.893 163.313 190.909 162.489 189.622 162.489C188.572 162.489 187.786 162.953 187.171 163.757L187.938 164.467C188.411 163.899 188.903 163.549 189.584 163.549C190.171 163.549 190.691 163.928 190.691 164.543C190.691 165.073 190.398 165.565 189.575 166.227L187.181 168.138V169.104ZM195.789 169.217C197.454 169.217 198.637 167.826 198.637 165.849C198.637 163.88 197.454 162.489 195.789 162.489C194.114 162.489 192.941 163.88 192.941 165.849C192.941 167.826 194.114 169.217 195.789 169.217ZM195.789 168.138C194.823 168.138 194.142 167.192 194.142 165.849C194.142 164.505 194.823 163.568 195.789 163.568C196.754 163.568 197.426 164.505 197.426 165.849C197.426 167.192 196.754 168.138 195.789 168.138ZM199.489 169.104H204.267V168.025H201.325L202.687 166.927C203.804 166.066 204.201 165.375 204.201 164.514C204.201 163.313 203.217 162.489 201.93 162.489C200.88 162.489 200.094 162.953 199.479 163.757L200.246 164.467C200.719 163.899 201.211 163.549 201.892 163.549C202.479 163.549 202.999 163.928 202.999 164.543C202.999 165.073 202.706 165.565 201.883 166.227L199.489 168.138V169.104ZM207.558 169.217C209.015 169.217 209.98 168.422 209.98 167.306C209.98 166.426 209.299 165.924 208.608 165.763C209.299 165.555 209.838 165.044 209.838 164.259C209.838 163.228 208.92 162.489 207.529 162.489C206.422 162.489 205.665 162.981 205.145 163.634L205.845 164.354C206.29 163.861 206.782 163.549 207.434 163.549C208.135 163.549 208.636 163.918 208.636 164.448C208.636 165.016 208.135 165.328 207.368 165.319H206.64V166.341L207.368 166.331C208.296 166.331 208.769 166.634 208.769 167.211C208.769 167.779 208.296 168.167 207.51 168.167C206.81 168.167 206.185 167.855 205.741 167.344L205.022 168.119C205.552 168.753 206.413 169.217 207.558 169.217Z" fill="#4A4566"/>
<g filter="url(#filter3_d_2926_24379)">
<rect x="11.9998" y="221.596" width="229.249" height="185" rx="25" fill="white"/>
<rect x="12.4998" y="222.096" width="228.249" height="184" rx="24.5" stroke="#EFF0F7"/>
</g>
<path d="M193.573 314.87C193.113 323.662 190.927 332.277 187.138 340.224C183.349 348.171 178.032 355.293 171.491 361.185C164.95 367.077 157.312 371.623 149.013 374.563C140.715 377.503 131.919 378.78 123.127 378.321C114.336 377.862 105.721 375.675 97.7738 371.887C89.827 368.098 82.7044 362.781 76.8124 356.239C70.9205 349.698 66.3747 342.06 63.4345 333.762C60.4944 325.464 59.2175 316.668 59.6768 307.876C60.136 299.084 62.3225 290.469 66.1112 282.522C69.9 274.575 75.2168 267.453 81.7583 261.561C88.2997 255.669 95.9376 251.123 104.236 248.183C112.534 245.243 121.33 243.966 130.122 244.425C138.914 244.884 147.529 247.071 155.476 250.86C163.422 254.648 170.545 259.965 176.437 266.507C182.329 273.048 186.875 280.686 189.815 288.984C192.755 297.283 194.032 306.079 193.573 314.87L193.573 314.87Z" stroke="#EFF0F7" stroke-width="12.66"/>
<path d="M193.573 314.87C192.773 330.172 186.756 344.738 176.524 356.143C166.291 367.548 152.461 375.103 137.335 377.551C122.21 379.999 106.702 377.192 93.3942 369.597C80.0867 362.002 69.7825 350.077 64.1975 335.809" stroke="#FF4267" stroke-width="12.66" stroke-linecap="round"/>
<path d="M147.522 247.674C157.791 251.043 167.093 256.845 174.636 264.585C182.179 272.325 187.739 281.774 190.842 292.126C193.944 302.479 194.498 313.428 192.456 324.041C190.414 334.654 185.836 344.616 179.113 353.077" stroke="#7D42FB" stroke-width="12.66" stroke-linecap="round"/>
<path d="M88.5095 256.223C97.2887 250.156 107.39 246.272 117.972 244.895C128.555 243.517 139.313 244.686 149.353 248.304" stroke="#2FF2B8" stroke-width="12.66" stroke-linecap="round"/>
<path d="M90.9499 309.734C90.9499 307.244 89.1084 306.24 86.3463 305.57V301.678C87.3298 301.929 88.2924 302.452 89.1503 303.185L90.5732 301.281C89.4223 300.276 88.0413 299.565 86.3463 299.355V298.016H84.4421V299.314C81.8055 299.565 79.9851 301.281 79.9851 303.603C79.9851 306.135 81.7846 307.035 84.4421 307.705V311.785C83.1029 311.534 81.952 310.864 80.9267 309.944L79.3991 311.806C80.7384 313.061 82.4542 313.857 84.4421 314.066V315.447H86.3463V314.087C89.2968 313.836 90.9499 312.099 90.9499 309.734ZM82.6216 303.373C82.6216 302.515 83.3331 301.762 84.4421 301.573V305.089C83.2075 304.691 82.6216 304.252 82.6216 303.373ZM86.3463 311.848V308.207C87.7065 308.604 88.3342 309.065 88.3342 309.985C88.3342 310.864 87.6437 311.639 86.3463 311.848ZM96.3211 313.898H98.9367V299.523H96.8442L92.8057 302.264L93.8519 304.105L96.3211 302.536V313.898ZM107.124 299.272C104.027 299.272 101.767 301.322 101.767 304.168C101.767 307.035 103.964 308.709 106.601 308.709C108.065 308.709 109.426 308.102 110.325 307.098C110.137 309.902 108.714 311.848 106.684 311.848C105.429 311.848 104.529 311.325 103.65 310.55L102.374 312.538C103.525 313.522 104.885 314.15 106.684 314.15C110.409 314.15 113.025 310.906 113.025 306.47C113.025 302.327 111.225 299.272 107.124 299.272ZM107.291 306.575C105.722 306.575 104.424 305.633 104.424 304.064C104.424 302.745 105.492 301.49 107.249 301.49C108.986 301.49 109.886 302.683 110.2 304.608C109.781 305.8 108.693 306.575 107.291 306.575ZM121.536 314.15C125.219 314.15 127.834 311.074 127.834 306.7C127.834 302.348 125.219 299.272 121.536 299.272C117.832 299.272 115.237 302.348 115.237 306.7C115.237 311.074 117.832 314.15 121.536 314.15ZM121.536 311.764C119.401 311.764 117.895 309.672 117.895 306.7C117.895 303.729 119.401 301.657 121.536 301.657C123.67 301.657 125.156 303.729 125.156 306.7C125.156 309.672 123.67 311.764 121.536 311.764ZM131.979 316.87C133.402 315.363 133.987 314.275 133.987 313.145C133.987 311.827 133.297 310.864 132.23 310.864C131.33 310.864 130.598 311.618 130.598 312.496C130.598 313.396 131.33 314.15 132.209 314.15C132.02 314.819 131.602 315.489 130.995 316.117L131.979 316.87ZM143.241 304.712C141.777 304.712 140.417 305.319 139.517 306.324C139.705 303.52 141.128 301.573 143.158 301.573C144.413 301.573 145.313 302.097 146.192 302.871L147.468 300.883C146.317 299.899 144.957 299.272 143.158 299.272C139.433 299.272 136.817 302.515 136.817 306.951C136.817 311.094 138.617 314.15 142.718 314.15C145.815 314.15 148.075 312.099 148.075 309.253C148.075 306.386 145.878 304.712 143.241 304.712ZM142.593 311.931C140.856 311.931 139.956 310.739 139.642 308.814C140.061 307.621 141.149 306.847 142.551 306.847C144.12 306.847 145.418 307.788 145.418 309.358C145.418 310.676 144.35 311.931 142.593 311.931ZM155.31 314.15C158.595 314.15 160.834 312.224 160.834 309.253C160.834 306.365 158.637 304.733 156.084 304.733C154.85 304.733 153.908 305.11 153.176 305.612L153.301 301.908H160.039V299.523H150.853L150.644 307.161L152.422 307.914C153.238 307.286 154.222 306.909 155.352 306.909C157.068 306.909 158.219 307.893 158.219 309.358C158.219 310.76 157.089 311.89 155.352 311.89C153.908 311.89 152.569 311.157 151.481 310.069L149.932 311.931C151.209 313.271 152.966 314.15 155.31 314.15ZM168.457 314.15C171.554 314.15 174.065 312.643 174.065 310.069C174.065 308.374 172.831 307.119 171.136 306.47C172.58 305.884 173.689 304.817 173.689 303.143C173.689 300.716 171.24 299.272 168.457 299.272C165.758 299.272 163.247 300.674 163.247 303.143C163.247 304.775 164.314 305.842 165.8 306.47C164.126 307.077 162.87 308.332 162.87 310.069C162.87 312.622 165.339 314.15 168.457 314.15ZM168.457 305.528C167.265 305.466 165.821 304.754 165.821 303.478C165.821 302.348 166.951 301.49 168.457 301.49C169.964 301.49 171.115 302.348 171.115 303.478C171.115 304.733 169.692 305.466 168.457 305.528ZM168.457 311.911C166.762 311.911 165.486 311.074 165.486 309.818C165.486 308.479 167.139 307.684 168.457 307.621C169.797 307.684 171.429 308.479 171.429 309.818C171.429 311.074 170.131 311.911 168.457 311.911Z" fill="#211F54"/>
<path d="M90.9947 330.848H92.4522V324.166H95.0058V322.837H88.4295V324.166H90.9947V330.848ZM99.0174 330.988C100.79 330.988 102.236 329.565 102.236 327.828C102.236 326.09 100.79 324.68 99.0174 324.68C97.2334 324.68 95.7759 326.09 95.7759 327.828C95.7759 329.565 97.2334 330.988 99.0174 330.988ZM99.0174 329.775C98.003 329.775 97.1751 328.9 97.1751 327.828C97.1751 326.755 98.003 325.892 99.0174 325.892C100.02 325.892 100.848 326.755 100.848 327.828C100.848 328.9 100.02 329.775 99.0174 329.775ZM106.374 329.553C106.246 329.682 106.024 329.775 105.78 329.775C105.441 329.775 105.173 329.483 105.173 329.075V325.997H106.538V324.819H105.173V323.164H103.797V324.819H102.923V325.997H103.797V329.25C103.797 330.265 104.497 330.988 105.488 330.988C105.955 330.988 106.444 330.801 106.782 330.51L106.374 329.553ZM110.361 324.68C109.604 324.68 108.811 324.889 107.959 325.309L108.449 326.3C108.962 326.044 109.51 325.846 110.082 325.846C111.178 325.846 111.551 326.522 111.551 327.221V327.373C111.003 327.175 110.42 327.058 109.872 327.058C108.508 327.058 107.423 327.874 107.423 329.064C107.423 330.23 108.379 330.988 109.662 330.988C110.361 330.988 111.108 330.684 111.551 330.136V330.848H112.938V327.221C112.938 325.694 111.959 324.68 110.361 324.68ZM109.977 329.95C109.3 329.95 108.787 329.588 108.787 329.017C108.787 328.446 109.37 328.049 110.082 328.049C110.606 328.049 111.108 328.131 111.551 328.271V328.959C111.399 329.6 110.665 329.95 109.977 329.95ZM114.586 330.848H116.009V322.697H114.586V330.848ZM122.397 325.962V324.819H120.974V330.848H122.397V327.804C122.397 326.662 123.26 325.892 124.554 325.892V324.68C123.574 324.68 122.782 325.181 122.397 325.962ZM128.53 329.845C127.597 329.845 126.932 329.192 126.781 328.247H131.456C131.456 326.055 130.36 324.68 128.495 324.68C126.769 324.68 125.405 325.997 125.405 327.816C125.405 329.67 126.839 330.988 128.576 330.988C129.451 330.988 130.5 330.614 131.025 330.055L130.209 329.215C129.824 329.588 129.136 329.845 128.53 329.845ZM128.506 325.822C129.416 325.822 129.952 326.452 130.08 327.303H126.792C126.979 326.405 127.643 325.822 128.506 325.822ZM134.568 330.848H135.897L138.45 324.819H136.946L135.232 329.204L133.483 324.819H131.967L134.568 330.848ZM142.159 329.845C141.227 329.845 140.562 329.192 140.41 328.247H145.086C145.086 326.055 143.99 324.68 142.124 324.68C140.399 324.68 139.035 325.997 139.035 327.816C139.035 329.67 140.469 330.988 142.206 330.988C143.081 330.988 144.13 330.614 144.655 330.055L143.839 329.215C143.454 329.588 142.766 329.845 142.159 329.845ZM142.136 325.822C143.046 325.822 143.582 326.452 143.71 327.303H140.422C140.609 326.405 141.273 325.822 142.136 325.822ZM149.643 324.68C148.839 324.68 148.139 325.064 147.778 325.636V324.819H146.355V330.848H147.778V327.198C147.778 326.463 148.431 325.892 149.247 325.892C149.993 325.892 150.506 326.463 150.506 327.291V330.848H151.894V327.012C151.894 325.636 150.973 324.68 149.643 324.68ZM157.528 324.819V328.469C157.528 329.204 156.875 329.775 156.059 329.775C155.313 329.775 154.8 329.204 154.8 328.376V324.819H153.412V328.656C153.412 330.031 154.333 330.988 155.662 330.988C156.467 330.988 157.167 330.603 157.528 330.031V330.848H158.951V324.819H157.528ZM163.407 329.845C162.474 329.845 161.81 329.192 161.658 328.247H166.334C166.334 326.055 165.238 324.68 163.372 324.68C161.646 324.68 160.282 325.997 160.282 327.816C160.282 329.67 161.716 330.988 163.454 330.988C164.328 330.988 165.378 330.614 165.902 330.055L165.086 329.215C164.701 329.588 164.013 329.845 163.407 329.845ZM163.384 325.822C164.293 325.822 164.83 326.452 164.958 327.303H161.67C161.856 326.405 162.521 325.822 163.384 325.822Z" fill="#6E7191"/>
<defs>
<filter id="filter0_d_2926_24379" x="254.249" y="0.40332" width="433.751" height="421.192" filterUnits="userSpaceOnUse" color-interpolation-filters="sRGB">
<feFlood flood-opacity="0" result="BackgroundImageFix"/>
<feColorMatrix in="SourceAlpha" type="matrix" values="0 0 0 0 0 0 0 0 0 0 0 0 0 0 0 0 0 0 127 0" result="hardAlpha"/>
<feOffset dy="3"/>
<feGaussianBlur stdDeviation="6"/>
<feComposite in2="hardAlpha" operator="out"/>
<feColorMatrix type="matrix" values="0 0 0 0 0.127552 0 0 0 0 0.123438 0 0 0 0 0.329167 0 0 0 0.04 0"/>
<feBlend mode="normal" in2="BackgroundImageFix" result="effect1_dropShadow_2926_24379"/>
<feBlend mode="normal" in="SourceGraphic" in2="effect1_dropShadow_2926_24379" result="shape"/>
</filter>
<filter id="filter1_d_2926_24379" x="403.527" y="97.2935" width="191.968" height="144.579" filterUnits="userSpaceOnUse" color-interpolation-filters="sRGB">
<feFlood flood-opacity="0" result="BackgroundImageFix"/>
<feColorMatrix in="SourceAlpha" type="matrix" values="0 0 0 0 0 0 0 0 0 0 0 0 0 0 0 0 0 0 127 0" result="hardAlpha"/>
<feOffset dy="10.1986"/>
<feGaussianBlur stdDeviation="14.0231"/>
<feComposite in2="hardAlpha" operator="out"/>
<feColorMatrix type="matrix" values="0 0 0 0 0.127552 0 0 0 0 0.123438 0 0 0 0 0.329167 0 0 0 0.06 0"/>
<feBlend mode="normal" in2="BackgroundImageFix" result="effect1_dropShadow_2926_24379"/>
<feBlend mode="normal" in="SourceGraphic" in2="effect1_dropShadow_2926_24379" result="shape"/>
</filter>
<filter id="filter2_d_2926_24379" x="0.000244141" y="2.16992" width="253.249" height="209.071" filterUnits="userSpaceOnUse" color-interpolation-filters="sRGB">
<feFlood flood-opacity="0" result="BackgroundImageFix"/>
<feColorMatrix in="SourceAlpha" type="matrix" values="0 0 0 0 0 0 0 0 0 0 0 0 0 0 0 0 0 0 127 0" result="hardAlpha"/>
<feOffset dy="3"/>
<feGaussianBlur stdDeviation="6"/>
<feComposite in2="hardAlpha" operator="out"/>
<feColorMatrix type="matrix" values="0 0 0 0 0.127552 0 0 0 0 0.123438 0 0 0 0 0.329167 0 0 0 0.04 0"/>
<feBlend mode="normal" in2="BackgroundImageFix" result="effect1_dropShadow_2926_24379"/>
<feBlend mode="normal" in="SourceGraphic" in2="effect1_dropShadow_2926_24379" result="shape"/>
</filter>
<filter id="filter3_d_2926_24379" x="-0.000244141" y="212.596" width="253.249" height="209" filterUnits="userSpaceOnUse" color-interpolation-filters="sRGB">
<feFlood flood-opacity="0" result="BackgroundImageFix"/>
<feColorMatrix in="SourceAlpha" type="matrix" values="0 0 0 0 0 0 0 0 0 0 0 0 0 0 0 0 0 0 127 0" result="hardAlpha"/>
<feOffset dy="3"/>
<feGaussianBlur stdDeviation="6"/>
<feComposite in2="hardAlpha" operator="out"/>
<feColorMatrix type="matrix" values="0 0 0 0 0.127552 0 0 0 0 0.123438 0 0 0 0 0.329167 0 0 0 0.04 0"/>
<feBlend mode="normal" in2="BackgroundImageFix" result="effect1_dropShadow_2926_24379"/>
<feBlend mode="normal" in="SourceGraphic" in2="effect1_dropShadow_2926_24379" result="shape"/>
</filter>
<linearGradient id="paint0_linear_2926_24379" x1="471.123" y1="142.639" x2="471.123" y2="391.698" gradientUnits="userSpaceOnUse">
<stop stop-color="#7D42FB"/>
<stop offset="1" stop-color="#7D42FB" stop-opacity="0"/>
</linearGradient>
<linearGradient id="paint1_linear_2926_24379" x1="471.123" y1="64.5651" x2="471.123" y2="313.624" gradientUnits="userSpaceOnUse">
<stop stop-color="#FFCD42"/>
<stop offset="1" stop-color="#FFCD42" stop-opacity="0"/>
</linearGradient>
</defs>
</svg>
