<svg width="54" height="54" viewBox="0 0 54 54" fill="none" xmlns="http://www.w3.org/2000/svg">
<rect width="54" height="54" rx="16" fill="#FFCD42"/>
<path d="M17.3213 20.5469C15.1826 20.5469 13.4492 22.2803 13.4492 24.4189V29.5817C13.4492 31.7203 15.1826 33.4537 17.3213 33.4537H22.484V20.5469H17.3213Z" fill="white"/>
<path d="M36.3792 14.2898C35.4112 13.8884 34.3051 14.1104 33.5655 14.85C31.9806 16.4336 26.9004 20.547 22.4837 20.547C21.0588 20.547 19.9023 21.7035 19.9023 23.1284V30.8725C19.9023 32.2974 21.0588 33.4539 22.4837 33.4539C26.872 33.4539 31.9728 37.5686 33.5655 39.1509C34.0598 39.6453 34.7181 39.9073 35.3905 39.9073C35.7235 39.9073 36.0591 39.8428 36.3792 39.7111C37.3433 39.311 37.9719 38.3701 37.9719 37.3259V16.675C37.9719 15.6308 37.3433 14.6899 36.3792 14.2898Z" fill="white"/>
<path opacity="0.5" d="M22.483 28.291H17.3203C17.3203 28.291 18.611 37.744 18.611 37.9711C18.611 39.0398 19.4783 39.9072 20.547 39.9072C21.6157 39.9072 22.483 39.0398 22.483 37.9711C22.483 37.744 22.483 28.291 22.483 28.291Z" fill="white"/>
<path opacity="0.5" d="M37.9727 23.3657V30.6361C39.4737 30.1031 40.554 28.6846 40.554 27.0016C40.554 25.3185 39.4737 23.8988 37.9727 23.3657Z" fill="white"/>
</svg>
