<svg width="60" height="60" viewBox="0 0 60 60" fill="none" xmlns="http://www.w3.org/2000/svg">
<rect width="60" height="60" rx="14.5732" fill="#2FF2B8"/>
<path opacity="0.5" d="M44.8992 16.0316C44.4876 16.0316 40.5094 16.0316 35.5869 16.0316C35.5869 13.9735 33.92 12.3066 31.862 12.3066C31.1804 12.3066 28.8188 12.3066 28.1371 12.3066C26.0791 12.3066 24.4122 13.9735 24.4122 16.0316C19.4897 16.0316 15.5115 16.0316 15.0999 16.0316C13.0419 16.0316 11.375 17.6985 11.375 19.7565C11.375 21.8145 11.375 25.3438 11.375 25.3438H48.6242C48.6242 25.3438 48.6242 21.8145 48.6242 19.7565C48.6242 17.6985 46.9573 16.0316 44.8992 16.0316Z" fill="white"/>
<path opacity="0.35" fill-rule="evenodd" clip-rule="evenodd" d="M29.5244 29.0688H30.4836C31.2472 29.0688 31.8655 29.6872 31.8655 30.4527V32.7935H34.203C34.9666 32.7935 35.5849 33.4118 35.5849 34.1773V35.1364C35.5849 35.9 34.9666 36.5184 34.2011 36.5184H31.8655V38.8616C31.8655 39.6253 31.2472 40.2436 30.4817 40.2436H29.5226C28.759 40.2436 28.1406 39.6253 28.1406 38.8598V36.5184H25.7921C25.0285 36.5184 24.4102 35.9 24.4102 35.1346V34.1754C24.4102 33.4118 25.0285 32.7935 25.7921 32.7935H28.1406V30.4508C28.1406 29.6872 28.759 29.0688 29.5244 29.0688Z" fill="white"/>
<path fill-rule="evenodd" clip-rule="evenodd" d="M16.9624 47.6934H43.0368C46.1229 47.6934 48.6241 45.1921 48.6241 42.106V23.4814H11.375V42.106C11.375 45.1921 13.8763 47.6934 16.9624 47.6934ZM30.4836 29.0688H29.5244C28.759 29.0688 28.1406 29.6872 28.1406 30.4508V32.7935H25.7921C25.0285 32.7935 24.4102 33.4118 24.4102 34.1754V35.1346C24.4102 35.9 25.0285 36.5184 25.7921 36.5184H28.1406V38.8598C28.1406 39.6253 28.759 40.2436 29.5226 40.2436H30.4817C31.2472 40.2436 31.8655 39.6253 31.8655 38.8616V36.5184H34.2011C34.9666 36.5184 35.5849 35.9 35.5849 35.1364V34.1773C35.5849 33.4118 34.9666 32.7935 34.203 32.7935H31.8655V30.4527C31.8655 29.6872 31.2472 29.0688 30.4836 29.0688Z" fill="white"/>
</svg>
