<svg width="216" height="42" viewBox="0 0 216 42" fill="none" xmlns="http://www.w3.org/2000/svg">
<g clip-path="url(#clip0_2944_28024)">
<path d="M109.097 37.5617C109.097 38.3122 109.097 38.4828 109.603 38.9434L112.437 41.7406V41.86H99.8694V36.4871C98.6045 40.0283 95.2594 42.37 91.5362 42.3205C85.0754 42.3205 80.3859 37.2035 80.3859 27.7882C80.3859 18.9699 85.4465 13.0853 92.5483 13.0853C95.6963 12.885 98.6257 14.7183 99.8525 17.6565V5.80208C99.9459 5.25312 99.7237 4.69803 99.2789 4.36928L96.5799 1.74256V1.62316L109.097 0.139251V37.5617ZM99.8693 35.856V18.1683C98.9586 17.0244 97.5766 16.3698 96.1245 16.3943C93.0712 16.3943 90.1192 19.1917 90.1192 27.4983C90.1192 35.2762 92.6664 38.0223 95.8377 38.0223C97.4456 37.9891 98.9423 37.1849 99.8694 35.8561L99.8693 35.856ZM117.43 41.86V17.9806C117.51 17.4473 117.32 16.9089 116.924 16.5478L114.14 13.6482V13.5288H126.708V37.7494C126.708 38.4999 126.708 38.6704 127.214 39.131L129.98 41.7577V41.8771L117.43 41.86ZM116.974 4.79571C116.974 1.9697 119.24 -0.321289 122.035 -0.321289C124.83 -0.321289 127.096 1.9697 127.096 4.79571C127.096 7.62178 124.83 9.91277 122.035 9.91277C119.24 9.91277 116.974 7.62178 116.974 4.79571ZM160.614 37.5106C160.614 38.2611 160.614 38.4828 161.12 38.9434L163.954 41.7406V41.86H151.319V35.7367C150.169 39.6085 146.664 42.2752 142.666 42.3205C137.065 42.3205 134.062 38.1928 134.062 30.3808C134.062 26.6113 134.063 22.4836 134.181 17.8441C134.273 17.3248 134.079 16.7957 133.675 16.4625L130.891 13.6482V13.5288H143.357V29.1015C143.357 34.2185 144.099 37.6299 147.271 37.6299C148.974 37.5223 150.509 36.5539 151.353 35.0543V17.9977C151.434 17.4644 151.243 16.9261 150.847 16.5649L148.047 13.6483V13.5289H160.614L160.614 37.5106ZM203.393 41.86C203.393 40.939 203.562 29.2039 203.562 26.509C203.562 21.3919 202.769 17.8612 199.21 17.8612C197.419 17.9171 195.76 18.8283 194.74 20.3174C195.097 21.9126 195.266 23.544 195.246 25.1785C195.246 28.7264 195.128 33.2464 195.077 37.7664C194.984 38.2857 195.178 38.8149 195.583 39.148L198.417 41.7748V41.8942H185.732C185.732 41.0413 185.9 29.2381 185.9 26.5431C185.9 21.3408 185.108 17.8953 181.599 17.8953C179.869 17.9581 178.291 18.9102 177.415 20.4197V37.8176C177.415 38.5681 177.415 38.7387 177.921 39.1992L180.688 41.8259V41.9453H168.137V18.0659C168.218 17.5326 168.028 16.9942 167.631 16.6331L164.848 13.6482V13.5288H177.415V19.601C178.581 15.5919 182.294 12.8987 186.423 13.0683C190.607 13.0683 193.441 15.4221 194.638 19.891C195.969 15.7694 199.798 13.0038 204.085 13.0683C209.685 13.0683 212.857 17.2471 212.857 25.1444C212.857 28.914 212.739 33.2122 212.688 37.7323C212.59 38.2673 212.815 38.8102 213.262 39.1139L216.028 41.7406V41.86H203.393ZM45.518 38.1416L49.246 41.7406V41.86H30.336V41.7406L34.1315 38.1416C34.5363 37.8085 34.7302 37.2794 34.6376 36.7601V13.7505C34.6376 12.7783 34.6376 11.4649 34.8063 10.3391L22.0535 42.3205H21.9017L8.69338 12.8977C8.40659 12.1642 8.32222 12.1131 8.13669 11.6184V30.9096C7.97843 32.2 8.1951 33.5086 8.76081 34.6791L14.0745 41.7406V41.86H-0.027832V41.7406L5.28584 34.6621C5.84739 33.4963 6.06396 32.1944 5.91001 30.9096V9.58869C5.99643 8.53888 5.68258 7.49539 5.03282 6.67193L1.27106 1.74261V1.62321H14.7661L26.0683 26.5432L36.0209 1.6231H49.2292V1.7425L45.518 5.92142C45.0733 6.25017 44.8511 6.8052 44.9444 7.35421V36.76C44.8461 37.295 45.0715 37.8379 45.518 38.1416V38.1416ZM60.312 26.6113V26.7307C60.312 34.031 64.04 36.9647 68.409 36.9647C72.0572 37.0907 75.4335 35.0222 77.0121 31.6942H77.1302C75.612 38.9092 71.1923 42.3206 64.5798 42.3206C57.4442 42.3206 50.7136 37.971 50.7136 27.8906C50.7136 17.2983 57.4611 13.0683 64.9172 13.0683C70.9224 13.0683 77.3158 15.9338 77.3158 25.1444V26.6113L60.312 26.6113ZM60.312 25.1444H68.6283V23.6605C68.6283 16.1555 67.0932 14.1599 64.7822 14.1599C61.982 14.1599 60.2782 17.1448 60.2782 25.1444L60.312 25.1444Z" fill="#1C1B1A"/>
</g>
<defs>
<clipPath id="clip0_2944_28024">
<rect width="216" height="42" fill="white"/>
</clipPath>
</defs>
</svg>
