<svg width="68" height="68" viewBox="0 0 68 68" fill="none" xmlns="http://www.w3.org/2000/svg">
<rect width="68" height="68" rx="16" fill="url(#paint0_linear_2926_23729)"/>
<path fill-rule="evenodd" clip-rule="evenodd" d="M15.0708 33.4327C15.0708 22.8828 23.3355 15.0713 33.9997 15.0713C44.6638 15.0713 52.9286 22.8828 52.9286 33.4327C52.9286 43.9826 44.6638 51.7941 33.9997 51.7941C32.0839 51.7941 30.2444 51.5427 28.5191 51.0666C28.1839 50.9752 27.8297 51.0019 27.5098 51.1428L23.7545 52.7996C22.7718 53.2299 21.6635 52.533 21.6293 51.4589L21.5264 48.0921C21.5112 47.677 21.3246 47.2923 21.0161 47.0143C17.3331 43.7198 15.0708 38.9514 15.0708 33.4327ZM28.1954 29.9819L22.6348 38.8027C22.0978 39.6482 23.1413 40.6041 23.9373 39.9986L29.9131 35.4625C30.3168 35.1578 30.8728 35.154 31.2804 35.4587L35.7022 38.776C37.0276 39.7701 38.9243 39.4197 39.8079 38.0181L45.3647 29.2011C45.9017 28.3556 44.8581 27.3996 44.0621 28.0052L38.0902 32.5375C37.6865 32.8422 37.1304 32.846 36.7229 32.5413L32.3011 29.224C30.9757 28.2299 29.079 28.5803 28.1954 29.9819Z" fill="white"/>
<defs>
<linearGradient id="paint0_linear_2926_23729" x1="34.8277" y1="-7.47767e-08" x2="34" y2="68" gradientUnits="userSpaceOnUse">
<stop stop-color="#F95289"/>
<stop offset="0.539302" stop-color="#8346FF"/>
<stop offset="1" stop-color="#1F94FF"/>
</linearGradient>
</defs>
</svg>
