<svg width="442" height="352" viewBox="0 0 442 352" fill="none" xmlns="http://www.w3.org/2000/svg">
<g clip-path="url(#clip0_2980_39614)">
<g opacity="0.6">
<path opacity="0.3" fill-rule="evenodd" clip-rule="evenodd" d="M700.124 695.926C665.831 716.817 614.648 704.037 569.213 701.438C526.932 699.027 485.606 697.117 445.308 681.366C397.864 662.83 337.494 645.029 319.96 604.049C302.298 562.771 352.472 531.83 364.556 492.648C375.492 457.191 352.086 406.06 387.17 386.124C422.627 365.977 475.903 401.15 521.713 403.348C563.96 405.375 604.226 380.624 643.582 398.427C683.53 416.497 699.988 457.244 717.695 491.997C734.978 525.919 746.758 560.57 743.785 595.094C740.525 632.906 734.754 674.829 700.124 695.926Z" stroke="white"/>
<path fill-rule="evenodd" clip-rule="evenodd" d="M489.703 791.326C422.265 851.425 343.118 833.191 268.584 838.479C199.227 843.406 131.209 849.325 71.6661 821.014C1.57109 787.684 -90.4497 759.481 -99.6741 663.381C-108.961 566.573 -10.1204 477.728 29.1965 378.429C64.7763 288.572 50.7232 169.052 119.003 111.1C188.011 52.5332 259.706 125.205 335.063 118.839C404.555 112.969 483.842 41.8659 540.803 75.4663C598.62 109.572 606.16 205.383 618.713 286.155C630.966 364.998 633.681 447.046 611.841 532.567C587.918 626.239 557.795 730.64 489.703 791.326Z" stroke="white" stroke-dasharray="10 10"/>
</g>
<path d="M99.614 167.743L80.2136 203.331L299.114 17.1692L99.614 167.743Z" fill="#A0A3BD"/>
<path d="M190.791 228.179L7.0583 108.228L299.113 17.1692L190.791 228.179Z" fill="white"/>
<path d="M99.612 167.743L80.2116 203.331L64.7341 145.879L274.225 33.7963L99.612 167.743Z" fill="#DCDDEB"/>
</g>
<defs>
<clipPath id="clip0_2980_39614">
<rect width="442" height="352" fill="white"/>
</clipPath>
</defs>
</svg>
