<svg width="72" height="72" viewBox="0 0 72 72" fill="none" xmlns="http://www.w3.org/2000/svg">
<rect width="72" height="72" rx="16" fill="#FF4267"/>
<path d="M26.0628 31.5822C30.3324 31.5822 33.7936 28.121 33.7936 23.8514C33.7936 19.5818 30.3324 16.1206 26.0628 16.1206C21.7932 16.1206 18.332 19.5818 18.332 23.8514C18.332 28.121 21.7932 31.5822 26.0628 31.5822Z" fill="white"/>
<path d="M45.9417 31.5822C50.2113 31.5822 53.6725 28.121 53.6725 23.8514C53.6725 19.5818 50.2113 16.1206 45.9417 16.1206C41.6721 16.1206 38.2109 19.5818 38.2109 23.8514C38.2109 28.121 41.6721 31.5822 45.9417 31.5822Z" fill="white"/>
<path opacity="0.35" d="M40.4197 48.1485C40.4197 52.4115 36.9519 55.8793 32.6889 55.8793H21.6449C19.5244 55.8793 17.5807 55.0179 16.1891 53.6043C14.7755 52.2127 13.9141 50.269 13.9141 48.1485C13.9141 43.8855 17.3819 40.4177 21.6449 40.4177H32.6889C34.8093 40.4177 36.7531 41.2792 38.1446 42.6928C39.5582 44.0843 40.4197 46.0281 40.4197 48.1485Z" fill="white"/>
<path fill-rule="evenodd" clip-rule="evenodd" d="M32.6885 55.8793C36.9515 55.8793 40.4193 52.4115 40.4193 48.1485C40.4193 46.0281 39.5578 44.0843 38.1442 42.6928C36.7527 41.2792 34.8089 40.4177 32.6885 40.4177H50.3575C54.6205 40.4177 58.0883 43.8855 58.0883 48.1485C58.0883 52.4115 54.6205 55.8793 50.3575 55.8793H32.6885Z" fill="white"/>
</svg>
