<svg width="72" height="72" viewBox="0 0 72 72" fill="none" xmlns="http://www.w3.org/2000/svg">
<rect width="72" height="72" rx="18" fill="#FFCD42"/>
<path opacity="0.5" d="M35.9476 44.9894C33.8905 42.9323 33.8905 39.5986 35.9476 37.5415C36.9754 36.5153 38.3239 35.9999 39.6708 35.9999C41.0177 35.9999 42.3662 36.5137 43.394 37.5415C43.6174 37.7649 43.8041 38.0075 43.9796 38.258C44.1552 38.0091 44.3419 37.7649 44.5653 37.5415C45.5931 36.5153 46.9416 35.9999 48.2885 35.9999C49.6354 35.9999 50.9839 36.5137 52.0117 37.5415C52.0803 37.6101 52.1282 37.6915 52.1936 37.7633C54.3703 34.0625 53.9044 29.2366 50.727 26.0592C48.8423 24.1761 46.3703 23.2329 43.8998 23.2329C41.4294 23.2329 38.9574 24.1761 37.0727 26.0608C36.6642 26.4693 36.3211 26.9162 36.0003 27.3742C35.6795 26.9162 35.3364 26.4693 34.9279 26.0608C33.0431 24.1761 30.5711 23.2329 28.1007 23.2329C25.6303 23.2329 23.1583 24.1761 21.2736 26.0608C17.5026 29.8318 17.5026 35.944 21.2736 39.7151C22.9126 41.354 32.8293 49.6031 33.5171 50.2909C34.2033 50.9771 35.1018 51.3186 36.0003 51.3186C36.8988 51.3186 37.7972 50.9755 38.4835 50.2909C38.6446 50.1297 39.3229 49.5456 40.2708 48.7381C38.5633 47.2891 36.4743 45.516 35.9476 44.9894Z" fill="white"/>
<path d="M52.0111 37.5432C50.9834 36.5155 49.6349 36 48.288 36C46.9411 36 45.5925 36.5139 44.5648 37.5416C44.3414 37.765 44.1547 38.0076 43.9791 38.2582C43.8036 38.0076 43.6169 37.765 43.3934 37.5416C42.3657 36.5155 41.0172 36 39.6703 36C38.3234 36 36.9748 36.5139 35.9471 37.5416C33.89 39.5987 33.89 42.9325 35.9471 44.9895C36.8408 45.8832 42.2492 50.382 42.6242 50.757C42.9993 51.132 43.4892 51.3172 43.9791 51.3172C44.4691 51.3172 44.959 51.1304 45.334 50.757C45.7106 50.382 51.119 45.8816 52.0111 44.9895C54.0682 42.9325 54.0682 39.6003 52.0111 37.5432Z" fill="white"/>
</svg>
