<svg width="200" height="200" viewBox="0 0 200 200" fill="none" xmlns="http://www.w3.org/2000/svg">
<circle opacity="0.08" cx="100" cy="100" r="100" fill="#FFCD42"/>
<path d="M99.7407 45.782C85.622 45.782 74.0703 57.3337 74.0703 71.4524V81.7206H84.3385V71.4524C84.3385 62.9812 91.2695 56.0502 99.7407 56.0502C108.212 56.0502 115.143 62.9812 115.143 71.4524V81.7206H125.411V71.4524C125.411 57.3337 113.859 45.782 99.7407 45.782Z" fill="#4A4566"/>
<path d="M130.549 148.464H68.94C63.2926 148.464 58.6719 143.843 58.6719 138.195V91.9886C58.6719 86.3411 63.2926 81.7204 68.94 81.7204H130.549C136.197 81.7204 140.817 86.3411 140.817 91.9886V138.195C140.817 143.843 136.197 148.464 130.549 148.464Z" fill="#FFCD42"/>
<path d="M99.748 107.391C97.7055 107.391 95.7467 108.202 94.3025 109.647C92.8582 111.091 92.0469 113.05 92.0469 115.092C92.0469 117.135 92.8582 119.094 94.3025 120.538C95.7467 121.982 97.7055 122.793 99.748 122.793C101.79 122.793 103.749 121.982 105.194 120.538C106.638 119.094 107.449 117.135 107.449 115.092C107.449 113.05 106.638 111.091 105.194 109.647C103.749 108.202 101.79 107.391 99.748 107.391Z" fill="#FFA132"/>
</svg>
