<svg width="36" height="36" viewBox="0 0 36 36" fill="none" xmlns="http://www.w3.org/2000/svg">
<rect width="36" height="36" rx="6.37765" fill="#FF4267"/>
<path opacity="0.35" d="M7.90978 12.9288C8.16106 14.7998 9.14471 19.1 13.0227 22.978C16.9007 26.856 21.1997 27.8396 23.0719 28.0909C24.428 28.3841 25.8983 28.0117 26.9522 26.9579C28.6002 25.3098 22.6305 19.34 20.9824 20.9881L19.9308 22.0396L13.9611 16.0699L15.0115 15.0183C16.6596 13.3702 10.6898 7.40045 9.0417 9.04853C7.98788 10.1024 7.61548 11.5727 7.90978 12.9288Z" fill="white"/>
<path d="M9.04492 9.04531L15.0136 15.014C16.6583 13.3647 16.6583 10.6957 15.0102 9.04757C13.3644 7.40175 10.6941 7.40062 9.04492 9.04531Z" fill="white"/>
<path d="M20.9844 20.9848L26.953 26.9534C28.5977 25.3053 28.5977 22.6351 26.9496 20.987C25.3027 19.3412 22.6336 19.3401 20.9844 20.9848Z" fill="white"/>
</svg>
