<svg width="86" height="86" viewBox="0 0 86 86" fill="none" xmlns="http://www.w3.org/2000/svg">
<rect width="86" height="86" rx="16" fill="#FF4267"/>
<path opacity="0.35" d="M22.1005 32.1937C22.6226 36.2043 24.6661 45.4215 32.7225 53.7337C40.779 62.0459 49.7102 64.1543 53.5997 64.6929C56.4169 65.3213 59.4716 64.5231 61.6609 62.2643C65.0847 58.7317 52.6826 45.9358 49.2587 49.4684L47.0741 51.7223L34.672 38.9265L36.8542 36.6725C40.2781 33.14 27.876 20.3441 24.4521 23.8767C22.2628 26.1355 21.4891 29.2871 22.1005 32.1937Z" fill="white"/>
<path d="M24.4609 23.8695L36.8607 36.6629C40.2775 33.1279 40.2775 27.4069 36.8537 23.8744C33.4345 20.3466 27.8872 20.3442 24.4609 23.8695Z" fill="white"/>
<path d="M49.2656 49.4611L61.6654 62.2545C65.0822 58.7219 65.0822 52.9985 61.6584 49.4659C58.2368 45.9382 52.6919 45.9358 49.2656 49.4611Z" fill="white"/>
</svg>
