<svg width="152" height="38" viewBox="0 0 152 38" fill="none" xmlns="http://www.w3.org/2000/svg">
<path d="M17.1177 0.888762C15.1763 1.10866 12.2642 2.02208 10.6073 2.93549C6.15538 5.35436 3.14283 9.12643 1.63656 14.1502C1.3353 15.1313 0.983839 17.8039 1.00058 19.0556C1.00058 20.1551 1.3353 22.8446 1.53614 23.4874C1.63656 23.7919 1.85413 24.5192 2.03823 25.0774C2.33949 26.0247 3.79555 29.0017 4.04659 29.2047C4.0968 29.2554 4.36459 29.5937 4.61563 29.9828C5.23488 30.9131 6.8583 32.5708 8.08006 33.5181C9.0173 34.2454 11.6616 35.7847 11.9964 35.8016C12.0801 35.8016 12.0968 35.1588 12.0466 34.3131C11.9294 32.4355 12.2809 29.8813 13.034 27.2764C13.1679 26.8366 13.2683 26.2615 13.2683 26.0077C13.2683 25.754 13.3353 25.4834 13.419 25.3988C13.5026 25.2973 13.6533 24.8068 13.737 24.2993C13.8374 23.7919 14.0047 23.0138 14.1219 22.574C14.2893 21.9143 14.2725 21.6605 14.0382 20.9501C13.7035 19.8675 13.6867 18.1084 14.0215 17.2626C14.8081 15.2497 15.6784 14.4885 17.1512 14.4885C18.9252 14.4885 19.7788 15.8417 19.4441 18.1084C19.2934 19.1402 18.875 20.764 18.6072 21.2715C18.5403 21.4237 18.4231 21.8466 18.3729 22.2018C18.306 22.574 18.1721 23.0983 18.0884 23.3859C17.8541 24.0456 18.306 25.3311 18.9085 25.8217C19.4775 26.2784 20.6658 26.4137 21.7537 26.16C22.5235 25.9908 22.8415 25.7878 23.6449 25.0097C24.5989 24.0625 25.3185 22.963 25.3185 22.4386C25.3185 22.2864 25.4022 22.0834 25.5026 21.9819C25.9712 21.5083 26.2223 17.8208 25.8708 16.2646C25.4859 14.5562 24.2976 12.8816 22.7579 11.9005C21.2181 10.9025 18.0382 10.615 16.08 11.2916C14.7077 11.7652 13.4859 12.5602 12.6993 13.4905C11.9964 14.3194 11.26 15.6726 11.26 16.1462C11.26 16.3154 11.1763 16.5353 11.0759 16.6367C10.9755 16.7382 10.8583 17.381 10.8081 18.0745C10.7244 19.1064 10.7914 19.58 11.0926 20.5949C11.2934 21.2884 11.6616 22.1003 11.8792 22.4048C12.3311 23.0138 12.3311 23.2506 11.9127 24.8744C11.7955 25.3142 11.5947 25.7202 11.4775 25.7709C10.4232 26.1769 8.2809 23.6227 7.56123 21.0854C7.29345 20.1213 7.27671 16.6875 7.5445 15.6726C7.66165 15.2497 7.86249 14.6746 7.99638 14.3701C8.13027 14.0826 8.24742 13.795 8.24742 13.7273C8.24742 13.6597 8.58215 13.0846 9.00056 12.4587C11.1763 9.14335 14.7077 7.38417 19.1763 7.38417C20.1972 7.38417 21.2516 7.45183 21.5361 7.53641C23.8457 8.26376 24.465 8.50057 25.3687 9.04186C27.126 10.1075 28.398 11.5622 29.67 13.998C29.7537 14.1502 29.8708 14.5562 29.921 14.8945C29.988 15.2328 30.1051 15.5542 30.1888 15.6049C30.2725 15.6557 30.3394 16.7552 30.3394 18.0576C30.3394 20.4088 30.1721 21.3561 29.4691 23.2844C28.6825 25.3988 26.6574 27.7331 24.8164 28.6465C23.762 29.1539 21.7871 29.7121 21.0005 29.7121C19.9461 29.7121 17.8708 28.8326 17.3018 28.1221C17.034 27.8007 16.783 27.9191 16.783 28.3759C16.783 28.545 16.716 28.8326 16.6156 29.0017C16.5319 29.1539 16.3813 29.6276 16.2976 30.0505C15.8123 32.2833 15.1261 34.0932 14.0717 35.7847C13.7537 36.309 14.0215 36.6135 14.8918 36.7319C15.3269 36.7996 15.9127 36.918 16.1805 37.0026C16.8499 37.2225 20.4817 37.1886 21.7035 36.9687C22.8081 36.7658 24.5989 36.2583 25.4022 35.92C30.4566 33.8225 34.2892 29.5599 35.9461 24.1302C36.8331 21.2377 36.8834 17.8716 36.08 14.4885C35.8122 13.389 35.7285 13.1353 35.0089 11.4438C33.9712 8.9742 31.6281 6.08171 29.2516 4.30562C27.2097 2.78326 25.2014 1.90367 22.0717 1.14249C21.2014 0.939507 18.1051 0.770356 17.1177 0.888762ZM61.7536 6.99513C61.1009 7.09662 60.0632 8.17918 59.7954 9.02494C59.5109 9.95527 59.7954 10.9533 60.5988 11.7314C62.3728 13.4736 65.4523 11.8329 65.0674 9.32941C64.8331 7.73939 63.3938 6.72448 61.7536 6.99513ZM43.511 7.99312C43.3603 8.16227 43.3603 28.5619 43.5277 28.7987C43.6114 28.9341 44.331 28.9848 45.7369 28.9679L47.8289 28.951L47.9126 25.5172C47.9796 22.7262 48.0465 22.0496 48.2473 21.9312C48.3812 21.8466 49.5193 21.762 50.7745 21.762C53.5193 21.762 54.6741 21.5591 55.9293 20.8825C57.5695 19.9859 58.5235 18.7004 59.0423 16.6537C59.3603 15.3681 59.3603 14.4378 59.0256 13.1184C58.7243 11.9343 58.5904 11.6468 57.8708 10.6826C56.9837 9.48165 56.08 8.82196 54.6072 8.29759C53.7871 8.02695 53.1009 7.9762 48.6658 7.92546C45.9043 7.89163 43.5779 7.92546 43.511 7.99312ZM52.6992 12.205C53.8206 12.5602 54.3729 13.0677 54.6239 13.9811C54.9419 15.182 54.7076 16.2984 54.0047 16.9751C53.2348 17.7024 52.5486 17.8716 50.3059 17.8716C48.8331 17.8716 48.3812 17.8208 48.1804 17.6009C47.9628 17.3979 47.9126 16.9074 47.9126 14.9791C47.9126 11.9343 47.8959 11.9513 50.2222 11.9513C51.2264 11.9513 52.1971 12.0527 52.6992 12.205ZM82.0548 11.207C82.0548 12.3741 81.9711 13.4736 81.8874 13.6597C81.7703 13.8796 81.536 13.9811 81.1343 13.9811C80.8331 13.9811 80.5485 14.0487 80.5151 14.1502C80.4983 14.2348 80.4983 14.8268 80.5485 15.4527C80.6322 16.5691 80.649 16.586 81.151 16.7044C81.4356 16.7552 81.7536 16.8566 81.854 16.9243C82.0046 17.0089 82.0548 18.3452 82.0548 21.7282C82.0548 26.2784 82.0715 26.4475 82.4397 27.1241C83.2096 28.5619 84.4146 29.0694 86.8582 29.0017L88.4983 28.951L88.5485 27.3102L88.5987 25.6525H88.1803C87.5443 25.6525 86.6071 25.1451 86.5067 24.7391C86.4565 24.5361 86.4063 22.7431 86.4063 20.7302C86.4063 17.9561 86.4565 17.0258 86.6238 16.8905C86.741 16.789 87.2096 16.6875 87.6615 16.6537L88.4983 16.6029V14.0656L87.5778 14.0149C87.0757 13.9811 86.6071 13.8627 86.5402 13.7612C86.4732 13.6428 86.4063 12.5433 86.4063 11.3085V9.07569H82.0548V11.207ZM144.264 9.17718C144.197 9.24484 144.147 10.3105 144.147 11.5453C144.147 13.9472 144.13 13.9811 143.21 13.9811C142.791 13.9811 142.791 13.998 142.841 15.2835C142.892 16.5691 142.908 16.6029 143.343 16.6537C143.578 16.6875 143.862 16.8059 143.946 16.9074C144.046 17.0258 144.147 19.0725 144.197 21.6775C144.247 24.1809 144.331 26.4644 144.398 26.7351C144.599 27.4794 145.636 28.4266 146.624 28.748C147.728 29.1201 150.54 29.154 150.825 28.7987C150.958 28.6465 151.009 28.0375 150.975 27.158L150.925 25.7371L150.339 25.6356C149.703 25.5341 148.984 25.1958 148.799 24.9083C148.733 24.8068 148.666 22.963 148.666 20.8148C148.666 16.3999 148.565 16.6875 150.021 16.6875C150.975 16.6875 151.059 16.5183 150.975 14.9791L150.925 14.0656L149.837 13.9811L148.749 13.8965L148.666 11.5284L148.582 9.16026L146.473 9.10952C145.318 9.0926 144.331 9.12643 144.264 9.17718ZM73.7703 13.5751C72.9502 13.795 71.9962 14.3532 71.3603 15.0129C70.5904 15.8248 70.3896 15.7741 70.3059 14.7423L70.2557 14.0656H66.0716V28.951L68.1804 28.9848C70.2557 29.0355 70.3059 29.0186 70.4063 28.6465C70.4565 28.4435 70.5067 26.2953 70.5067 23.8595C70.5067 19.0387 70.5234 18.9034 71.5109 17.9561C71.946 17.5333 72.1804 17.4487 73.1176 17.3979L74.2055 17.3303L74.8582 18.0238C75.6281 18.8357 75.5444 18.0576 75.6113 25.0605C75.628 26.9212 75.6448 28.5619 75.6615 28.7311C75.695 28.9679 75.9628 29.0017 77.8372 28.9679L79.9628 28.951V17.0765L79.4774 16.1124C78.6406 14.4378 77.3519 13.6428 75.377 13.5413C74.6741 13.5244 73.9544 13.5244 73.7703 13.5751ZM94.6908 13.5751C92.8832 14.0656 92.013 14.5562 90.8916 15.6726C89.3853 17.2119 88.6992 19.0049 88.6992 21.4237C88.7159 25.6694 91.3435 28.8156 95.2263 29.1878C98.5401 29.5092 101.101 28.5281 102.741 26.3122C102.975 25.9908 103.477 24.959 103.477 24.7729C103.477 24.7053 102.507 24.6376 101.335 24.6376H99.1929L98.6908 25.162C98.105 25.7709 97.2849 26.16 96.5318 26.16C95.7786 26.16 94.6238 25.6187 94.0883 25.0436C93.6866 24.5869 93.1008 23.2675 93.1008 22.8108C93.1008 22.6585 94.3226 22.6078 98.2556 22.6078C101.084 22.6078 103.477 22.5401 103.595 22.4725C103.846 22.3033 103.611 19.6138 103.243 18.6327C102.49 16.586 101.067 14.8607 99.628 14.2517C99.2096 14.0826 98.7242 13.8627 98.5569 13.7781C98.2054 13.592 95.2263 13.4398 94.6908 13.5751ZM97.9544 17.2795C98.6071 17.7362 99.1761 18.8188 99.0924 19.4277C99.0422 19.8168 99.0088 19.8168 96.1803 19.8675C92.9167 19.9183 92.9 19.9014 93.4188 18.6835C93.787 17.8377 94.5234 17.0765 95.2096 16.8566C95.9962 16.6029 97.2682 16.8059 97.9544 17.2795ZM119.461 13.5751C117.519 14.0995 116.164 14.9622 115.109 16.2984C114.691 16.8397 114.356 17.3472 114.356 17.4487C114.356 17.5333 114.239 17.8377 114.088 18.1253C113.938 18.3959 113.72 19.2417 113.603 20.0029C113.017 23.6227 114.624 27.0057 117.636 28.5281L118.791 29.1201H121.218C123.728 29.1201 123.946 29.0694 125.486 28.2405C126.607 27.6316 128.448 25.2635 128.164 24.7898C128.097 24.7053 127.143 24.6376 126.021 24.6376H123.963L123.544 25.1281C121.871 27.0396 118.741 26.0585 118.071 23.4028C117.971 23.0476 117.971 22.7431 118.055 22.6755C118.138 22.6247 120.532 22.5909 123.394 22.6078C127.477 22.6078 128.582 22.574 128.599 22.4048C128.749 20.2904 127.745 17.1611 126.49 15.8079C125.787 15.0467 124.565 14.201 123.963 14.0487C123.695 13.9811 123.394 13.8627 123.276 13.7781C123.042 13.592 119.979 13.4398 119.461 13.5751ZM122.071 16.8736C122.825 17.1442 123.695 18.0915 123.829 18.8188C124.03 19.9183 124.046 19.9183 120.933 19.8675C118.138 19.8168 118.122 19.8168 118.071 19.4277C118.005 18.9541 118.59 17.787 119.092 17.3472C119.812 16.7382 121.067 16.5353 122.071 16.8736ZM134.021 13.5751C130.59 14.404 129.352 15.6388 129.335 18.2099C129.335 20.9839 130.707 22.1511 134.774 22.8784C137.569 23.369 138.373 23.8088 138.339 24.8744C138.322 25.6356 137.804 26.1261 136.766 26.346C135.461 26.6336 134.44 26.3122 133.62 25.3819L132.967 24.6376H130.942C129.302 24.6376 128.917 24.6884 128.917 24.8744C128.917 25.365 129.586 26.6505 130.138 27.2933C130.657 27.8515 131.059 28.1221 132.632 28.8833C132.783 28.9679 133.603 29.1032 134.423 29.2047C135.946 29.3908 138.59 29.2216 139.26 28.8833C139.41 28.8156 139.845 28.5958 140.214 28.4266C141.168 27.9699 142.071 26.9381 142.406 25.957C142.774 24.8406 142.674 23.2844 142.155 22.2018C141.536 20.9332 139.896 20.0198 137.452 19.58C134.306 19.0218 134.256 19.0049 133.753 18.5143C133.151 17.8885 133.151 17.6686 133.753 16.992C134.239 16.4507 134.272 16.4338 135.611 16.4338C136.95 16.4338 136.984 16.4507 137.469 16.992C137.737 17.2964 137.954 17.6517 137.954 17.787C137.954 17.99 138.306 18.0407 140.046 18.0407C142.356 18.0407 142.289 18.0915 141.887 16.8905C141.151 14.7592 139.26 13.6766 136.113 13.5582C135.143 13.5244 134.205 13.5244 134.021 13.5751ZM111.762 13.9303C111.025 14.1841 110.005 15.0298 109.687 15.6388C109.369 16.2477 109.084 15.994 109 14.9791L108.917 14.0656H104.733L104.682 21.17C104.666 25.0774 104.682 28.4435 104.733 28.6634C104.816 29.0355 104.866 29.0355 106.875 29.0017C108.03 28.9848 108.967 28.8833 109.034 28.7818C109.101 28.6972 109.168 26.9042 109.168 24.8068C109.168 21.4914 109.201 20.8994 109.486 20.1551C110.071 18.6158 111.327 17.7024 112.9 17.7024C113.335 17.7024 113.519 17.6178 113.569 17.3979C113.687 16.9074 113.703 14.6238 113.603 14.1164C113.502 13.7104 113.419 13.6428 112.967 13.6597C112.666 13.6766 112.13 13.795 111.762 13.9303ZM60.2138 14.1841C60.1636 14.3025 60.1469 17.6347 60.1636 21.5929L60.2138 28.7818L62.2055 28.8664C63.4105 28.9171 64.2808 28.8833 64.4147 28.7818C64.5988 28.6465 64.649 27.2087 64.649 21.4576C64.6657 17.5333 64.6155 14.2348 64.5653 14.1502C64.3979 13.8965 60.2975 13.9303 60.2138 14.1841Z" fill="#D71818"/>
</svg>
