<svg width="68" height="68" viewBox="0 0 68 68" fill="none" xmlns="http://www.w3.org/2000/svg">
<rect width="68" height="68" rx="16" fill="#F10125"/>
<path d="M32.1749 14.8334C30.0985 15.0661 26.9839 16.0327 25.2118 16.9993C20.4504 19.559 17.2283 23.5508 15.6173 28.8671C15.2951 29.9053 14.9192 32.7335 14.9371 34.0581C14.9371 35.2216 15.2951 38.0677 15.5099 38.7479C15.6173 39.0701 15.85 39.8398 16.0469 40.4305C16.3691 41.4329 17.9264 44.5833 18.1949 44.7981C18.2486 44.8518 18.5351 45.2098 18.8036 45.6215C19.4659 46.606 21.2022 48.3602 22.5089 49.3626C23.5113 50.1323 26.3395 51.7612 26.6975 51.7791C26.787 51.7791 26.8049 51.0989 26.7512 50.2039C26.6259 48.217 27.0018 45.5141 27.8073 42.7575C27.9505 42.2921 28.0579 41.6835 28.0579 41.415C28.0579 41.1465 28.1295 40.8601 28.219 40.7706C28.3085 40.6632 28.4696 40.1441 28.5591 39.6071C28.6665 39.0701 28.8455 38.2467 28.9708 37.7813C29.1498 37.0832 29.1319 36.8147 28.8813 36.0629C28.5233 34.9173 28.5054 33.0557 28.8634 32.1607C29.7047 30.0306 30.6355 29.2251 32.2107 29.2251C34.1081 29.2251 35.021 30.6571 34.663 33.0557C34.5019 34.1476 34.0544 35.866 33.768 36.403C33.6964 36.5641 33.5711 37.0116 33.5174 37.3875C33.4458 37.7813 33.3026 38.3362 33.2131 38.6405C32.9625 39.3386 33.4458 40.699 34.0902 41.2181C34.6988 41.7014 35.9697 41.8446 37.1332 41.5761C37.9566 41.3971 38.2967 41.1823 39.1559 40.3589C40.1762 39.3565 40.9459 38.193 40.9459 37.6381C41.0698 37.3875 41.0354 37.2622 41.1428 37.1548C41.644 36.6536 41.9125 32.7514 41.5366 31.1046C41.1249 29.2967 39.854 27.5246 38.2072 26.4864C36.5604 25.4303 33.1594 25.126 31.0651 25.842C29.5973 26.3432 28.2906 27.1845 27.4493 28.169C26.6975 29.0461 25.9099 30.4781 25.9099 30.9793C25.9099 31.1583 25.8204 31.391 25.713 31.4984C25.6056 31.6058 25.4803 32.286 25.4266 33.0199C25.3371 34.1118 25.4087 34.613 25.7309 35.687C25.9457 36.4209 26.3395 37.2801 26.5722 37.6023C27.0555 38.2467 27.0555 38.4973 26.608 40.2157C26.4827 40.6811 26.2679 41.1107 26.1426 41.1644C25.0149 41.594 22.7237 38.8911 21.954 36.2061C21.6676 35.1858 21.6497 31.5521 21.9361 30.4781C22.0614 30.0306 22.2762 29.422 22.4194 29.0998C22.5626 28.7955 22.6879 28.4912 22.6879 28.4196C22.6879 28.348 23.0459 27.7394 23.4934 27.0771C25.8204 23.5687 29.5973 21.707 34.3766 21.707C35.4685 21.707 36.5962 21.7786 36.9005 21.8681C39.3707 22.6378 40.033 22.8885 40.9996 23.4613C42.8791 24.589 44.2395 26.1284 45.5999 28.706C45.6894 28.8671 45.8147 29.2967 45.8684 29.6547C45.94 30.0127 46.0653 30.3528 46.1548 30.4065C46.2443 30.4602 46.3159 31.6237 46.3159 33.002C46.3159 35.4901 46.1369 36.4925 45.3851 38.5331C44.5438 40.7706 42.3779 43.2408 40.4089 44.2074C39.2812 44.7444 37.169 45.3351 36.3277 45.3351C35.2 45.3351 32.9804 44.4043 32.3718 43.6525C32.0854 43.3124 31.8169 43.4377 31.8169 43.921C31.8169 44.1 31.7453 44.4043 31.6379 44.5833C31.5484 44.7444 31.3873 45.2456 31.2978 45.6931C30.7787 48.0559 30.0448 49.9712 28.9171 51.7612C28.577 52.3161 28.8634 52.6383 29.7942 52.7636C30.2596 52.8352 30.8861 52.9605 31.1725 53.05C31.8885 53.2827 35.7728 53.2469 37.0795 53.0142C38.2609 52.7994 40.1762 52.2624 41.0354 51.9044C46.4412 49.6848 50.5404 45.174 52.3125 39.4281C53.2612 36.3672 53.3149 32.8051 52.4557 29.2251C52.1693 28.0616 52.0798 27.7931 51.3101 26.0031C50.2003 23.3897 47.6942 20.3287 45.1524 18.4492C42.9686 16.8382 40.8206 15.9074 37.4733 15.1019C36.5425 14.8871 33.231 14.7081 32.1749 14.8334Z" fill="white"/>
</svg>
