<svg width="142" height="34" viewBox="0 0 142 34" fill="none" xmlns="http://www.w3.org/2000/svg">
<path d="M15.2581 0.0366698C13.4202 0.242623 10.6634 1.09812 9.09486 1.95362C4.88042 4.2191 2.02855 7.75198 0.602608 12.4572C0.31742 13.3761 -0.0152989 15.8792 0.000544871 17.0515C0.000544871 18.0813 0.31742 20.6003 0.507545 21.2023C0.602608 21.4875 0.808577 22.1687 0.982858 22.6915C1.26805 23.5787 2.64645 26.367 2.88411 26.5571C2.93164 26.6046 3.18514 26.9214 3.4228 27.2858C4.00902 28.1572 5.54586 29.7097 6.70246 30.5969C7.58971 31.2781 10.093 32.7198 10.4099 32.7356C10.4891 32.7356 10.505 32.1336 10.4574 31.3415C10.3465 29.583 10.6792 27.1908 11.3922 24.751C11.519 24.3391 11.614 23.8005 11.614 23.5628C11.614 23.3252 11.6774 23.0717 11.7566 22.9925C11.8358 22.8974 11.9784 22.438 12.0576 21.9627C12.1527 21.4875 12.3111 20.7587 12.4221 20.3468C12.5805 19.7289 12.5646 19.4913 12.3428 18.8259C12.026 17.812 12.0101 16.1644 12.327 15.3722C13.0716 13.487 13.8955 12.7741 15.2898 12.7741C16.9692 12.7741 17.7772 14.0415 17.4604 16.1644C17.3178 17.1308 16.9217 18.6516 16.6682 19.1269C16.6048 19.2695 16.4939 19.6656 16.4464 19.9983C16.383 20.3468 16.2562 20.8379 16.177 21.1072C15.9552 21.7251 16.383 22.9291 16.9534 23.3886C17.4921 23.8163 18.617 23.943 19.6468 23.7054C20.3756 23.547 20.6767 23.3569 21.4372 22.6281C22.3402 21.7409 23.0215 20.7112 23.0215 20.22C23.0215 20.0775 23.1008 19.8874 23.1958 19.7923C23.6394 19.3487 23.8771 15.895 23.5444 14.4375C23.18 12.8374 22.0551 11.269 20.5974 10.3502C19.1398 9.41545 16.1295 9.14612 14.2758 9.77982C12.9766 10.2234 11.82 10.968 11.0753 11.8394C10.4099 12.6156 9.71277 13.883 9.71277 14.3266C9.71277 14.4851 9.63355 14.691 9.53849 14.7861C9.44343 14.8811 9.33252 15.4831 9.28499 16.1327C9.20577 17.0991 9.26915 17.5427 9.55433 18.4932C9.74446 19.1428 10.093 19.9032 10.299 20.1884C10.7268 20.7587 10.7268 20.9805 10.3307 22.5014C10.2198 22.9133 10.0296 23.2935 9.91874 23.341C8.92058 23.7212 6.89258 21.329 6.2113 18.9526C5.9578 18.0496 5.94196 14.8336 6.19546 13.883C6.30636 13.487 6.49649 12.9483 6.62324 12.6632C6.74999 12.3938 6.86089 12.1245 6.86089 12.0611C6.86089 11.9978 7.17777 11.4591 7.57386 10.873C9.63355 7.76782 12.9766 6.1202 17.2069 6.1202C18.1733 6.1202 19.1715 6.18357 19.4408 6.26278C21.6273 6.94401 22.2135 7.16581 23.0691 7.67277C24.7327 8.67085 25.9368 10.0333 27.1409 12.3146C27.2201 12.4572 27.331 12.8374 27.3786 13.1543C27.4419 13.4711 27.5528 13.7721 27.6321 13.8197C27.7113 13.8672 27.7747 14.897 27.7747 16.1168C27.7747 18.3189 27.6162 19.2061 26.9508 21.0122C26.2061 22.9925 24.289 25.1788 22.5462 26.0343C21.5481 26.5095 19.6785 27.0323 18.9338 27.0323C17.9357 27.0323 15.9711 26.2085 15.4324 25.5431C15.1789 25.2421 14.9412 25.353 14.9412 25.7808C14.9412 25.9392 14.8778 26.2085 14.7828 26.367C14.7036 26.5095 14.561 26.9531 14.4817 27.3492C14.0223 29.4404 13.3727 31.1356 12.3745 32.7198C12.0735 33.2109 12.327 33.4961 13.1509 33.607C13.5628 33.6704 14.1173 33.7813 14.3708 33.8605C15.0046 34.0664 18.4427 34.0347 19.5993 33.8288C20.645 33.6387 22.3403 33.1634 23.1008 32.8465C27.8856 30.8821 31.5138 26.8898 33.0823 21.8043C33.922 19.0952 33.9696 15.9426 33.2091 12.7741C32.9556 11.7443 32.8764 11.5067 32.1951 9.92241C31.2128 7.6094 28.9946 4.90033 26.7448 3.23686C24.8119 1.81103 22.9106 0.987221 19.9478 0.274308C19.124 0.0841974 16.1929 -0.0742279 15.2581 0.0366698ZM57.5134 5.75582C56.8955 5.85088 55.9132 6.8648 55.6597 7.65693C55.3903 8.52826 55.6597 9.46297 56.4202 10.1917C58.0996 11.8235 61.0149 10.2868 60.6505 7.94209C60.4287 6.45289 59.0661 5.50234 57.5134 5.75582ZM40.2437 6.69053C40.1011 6.84896 40.1011 25.955 40.2595 26.1768C40.3388 26.3036 41.02 26.3511 42.3509 26.3353L44.3314 26.3194L44.4106 23.1034C44.474 20.4894 44.5374 19.8557 44.7275 19.7448C44.8542 19.6656 45.9316 19.5863 47.1199 19.5863C49.7183 19.5863 50.8115 19.3962 51.9998 18.7625C53.5525 17.9229 54.4556 16.7189 54.9467 14.8019C55.2477 13.5979 55.2477 12.7265 54.9309 11.4908C54.6457 10.3818 54.5189 10.1125 53.8376 9.20949C52.9979 8.08467 52.1424 7.46682 50.7481 6.9757C49.9718 6.72222 49.3222 6.67469 45.1236 6.62716C42.5094 6.59548 40.3071 6.62716 40.2437 6.69053ZM48.9419 10.6353C50.0035 10.968 50.5263 11.4433 50.764 12.2988C51.065 13.4236 50.8432 14.4692 50.1777 15.1029C49.4489 15.7841 48.7993 15.9426 46.6763 15.9426C45.282 15.9426 44.8542 15.895 44.6641 15.6891C44.4581 15.499 44.4106 15.0395 44.4106 13.2335C44.4106 10.3818 44.3948 10.3977 46.597 10.3977C47.5477 10.3977 48.4666 10.4927 48.9419 10.6353ZM76.7319 9.70061C76.7319 10.7937 76.6527 11.8235 76.5734 11.9978C76.4625 12.2037 76.2407 12.2988 75.8605 12.2988C75.5753 12.2988 75.306 12.3622 75.2743 12.4572C75.2584 12.5364 75.2584 13.0909 75.3059 13.6771C75.3852 14.7227 75.401 14.7385 75.8763 14.8494C76.1457 14.897 76.4467 14.992 76.5418 15.0554C76.6844 15.1346 76.7319 16.3862 76.7319 19.5547C76.7319 23.8163 76.7477 23.9747 77.0963 24.6084C77.8251 25.955 78.9659 26.4303 81.2791 26.367L82.8317 26.3194L82.8793 24.7827L82.9268 23.2301H82.5307C81.9286 23.2301 81.0414 22.7549 80.9463 22.3746C80.8988 22.1845 80.8513 20.5052 80.8513 18.62C80.8513 16.0218 80.8988 15.1504 81.0572 15.0237C81.1681 14.9286 81.6118 14.8336 82.0396 14.8019L82.8317 14.7544V12.378L81.9603 12.3305C81.485 12.2988 81.0414 12.1879 80.978 12.0928C80.9146 11.9819 80.8513 10.9522 80.8513 9.79567V7.70445H76.7319V9.70061ZM135.623 7.79951C135.56 7.86288 135.512 8.86096 135.512 10.0175C135.512 12.2671 135.496 12.2988 134.625 12.2988C134.229 12.2988 134.229 12.3146 134.276 13.5187C134.324 14.7227 134.34 14.7544 134.752 14.8019C134.974 14.8336 135.243 14.9445 135.322 15.0395C135.417 15.1504 135.512 17.0674 135.56 19.5071C135.607 21.8518 135.687 23.9906 135.75 24.2441C135.94 24.9411 136.922 25.8283 137.857 26.1293C138.903 26.4778 141.565 26.5095 141.834 26.1768C141.961 26.0343 142.008 25.4639 141.977 24.6401L141.929 23.3093L141.374 23.2143C140.772 23.1192 140.091 22.8024 139.917 22.5331C139.853 22.438 139.79 20.7112 139.79 18.6992C139.79 14.5643 139.695 14.8336 141.073 14.8336C141.977 14.8336 142.056 14.6752 141.977 13.2335L141.929 12.378L140.899 12.2988L139.869 12.2196L139.79 10.0016L139.711 7.78367L137.715 7.73614C136.621 7.7203 135.687 7.75198 135.623 7.79951ZM68.8892 11.9186C68.1129 12.1245 67.2098 12.6473 66.6077 13.2652C65.8789 14.0256 65.6888 13.9781 65.6096 13.0117L65.562 12.378H61.6011V26.3194L63.5974 26.3511C65.562 26.3986 65.6096 26.3828 65.7046 26.0343C65.7522 25.8441 65.7997 23.8321 65.7997 21.5508C65.7997 17.0357 65.8155 16.909 66.7503 16.0218C67.1623 15.6257 67.3841 15.5465 68.2713 15.499L69.3012 15.4356L69.9191 16.0851C70.6479 16.8456 70.5687 16.1168 70.632 22.6756C70.6479 24.4183 70.6637 25.955 70.6796 26.1135C70.7113 26.3353 70.9648 26.367 72.7393 26.3353L74.7514 26.3194V15.198L74.2919 14.2949C73.4998 12.7265 72.2798 11.9819 70.4102 11.8869C69.7448 11.871 69.0635 11.871 68.8892 11.9186ZM88.6939 11.9186C86.9828 12.378 86.1589 12.8374 85.0974 13.883C83.6715 15.3247 83.0219 17.004 83.0219 19.2695C83.0377 23.246 85.5252 26.1927 89.2009 26.5412C92.338 26.8422 94.7621 25.9234 96.3148 23.848C96.5366 23.547 97.0119 22.5806 97.0119 22.4063C97.0119 22.3429 96.093 22.2796 94.9839 22.2796H92.9559L92.4806 22.7707C91.9261 23.341 91.1497 23.7054 90.4367 23.7054C89.7238 23.7054 88.6306 23.1984 88.1236 22.6598C87.7433 22.232 87.1888 20.9963 87.1888 20.5686C87.1888 20.426 88.3454 20.3785 92.0686 20.3785C94.7462 20.3785 97.0119 20.3151 97.1228 20.2517C97.3605 20.0933 97.1387 17.5743 96.7901 16.6555C96.0771 14.7385 94.7304 13.1226 93.3678 12.5523C92.9718 12.3938 92.5123 12.1879 92.3538 12.1087C92.0211 11.9344 89.2009 11.7918 88.6939 11.9186ZM91.7835 15.3881C92.4014 15.8158 92.9401 16.8297 92.8608 17.4001C92.8133 17.7645 92.7816 17.7645 90.104 17.812C87.0145 17.8595 86.9987 17.8437 87.4898 16.703C87.8384 15.9109 88.5355 15.198 89.1851 14.992C89.9297 14.7544 91.1339 14.9445 91.7835 15.3881ZM112.143 11.9186C110.305 12.4097 109.021 13.2177 108.023 14.4692C107.627 14.9762 107.31 15.4514 107.31 15.5465C107.31 15.6257 107.199 15.9109 107.057 16.1802C106.914 16.4337 106.708 17.2258 106.597 17.9387C106.043 21.329 107.564 24.4975 110.416 25.9234L111.509 26.4778H113.806C116.183 26.4778 116.389 26.4303 117.846 25.654C118.908 25.0837 120.651 22.8658 120.381 22.4222C120.318 22.3429 119.415 22.2796 118.353 22.2796H116.405L116.009 22.739C114.424 24.5292 111.461 23.6104 110.828 21.1231C110.733 20.7904 110.733 20.5052 110.812 20.4418C110.891 20.3943 113.157 20.3626 115.866 20.3785C119.732 20.3785 120.778 20.3468 120.793 20.1884C120.936 18.208 119.985 15.2772 118.797 14.0098C118.132 13.2969 116.975 12.5047 116.405 12.3622C116.151 12.2988 115.866 12.1879 115.755 12.1087C115.533 11.9344 112.634 11.7918 112.143 11.9186ZM114.614 15.0079C115.327 15.2613 116.151 16.1485 116.278 16.8297C116.468 17.8595 116.484 17.8595 113.537 17.812C110.891 17.7645 110.875 17.7645 110.828 17.4001C110.764 16.9565 111.319 15.8634 111.794 15.4514C112.475 14.8811 113.664 14.691 114.614 15.0079ZM125.927 11.9186C122.679 12.6948 121.506 13.8514 121.491 16.2594C121.491 18.8576 122.79 19.9507 126.64 20.632C129.286 21.0914 130.046 21.5033 130.014 22.5014C129.999 23.2143 129.507 23.6737 128.525 23.8797C127.289 24.149 126.323 23.848 125.547 22.9766L124.929 22.2796H123.012C121.459 22.2796 121.094 22.3271 121.094 22.5014C121.094 22.9608 121.728 24.1648 122.251 24.7669C122.742 25.2897 123.122 25.5431 124.612 26.2561C124.754 26.3353 125.531 26.462 126.307 26.5571C127.749 26.7313 130.252 26.5729 130.886 26.2561C131.028 26.1927 131.44 25.9867 131.789 25.8283C132.692 25.4006 133.548 24.4342 133.864 23.5153C134.213 22.4697 134.118 21.0122 133.627 19.9983C133.041 18.8101 131.488 17.9546 129.175 17.5427C126.196 17.0199 126.149 17.004 125.673 16.5446C125.103 15.9584 125.103 15.7525 125.673 15.1188C126.133 14.6118 126.164 14.596 127.432 14.596C128.699 14.596 128.731 14.6118 129.191 15.1188C129.444 15.4039 129.65 15.7366 129.65 15.8634C129.65 16.0535 129.983 16.101 131.631 16.101C133.817 16.101 133.754 16.1485 133.373 15.0237C132.676 13.0275 130.886 12.0136 127.907 11.9027C126.988 11.871 126.101 11.871 125.927 11.9186ZM104.855 12.2513C104.157 12.4889 103.191 13.281 102.89 13.8514C102.589 14.4217 102.32 14.184 102.24 13.2335L102.161 12.378H98.2002L98.1527 19.0319C98.1368 22.6915 98.1527 25.8441 98.2002 26.0501C98.2794 26.3986 98.3269 26.3986 100.228 26.367C101.321 26.3511 102.209 26.2561 102.272 26.161C102.335 26.0818 102.399 24.4025 102.399 22.438C102.399 19.3329 102.43 18.7784 102.7 18.0813C103.254 16.6396 104.443 15.7841 105.932 15.7841C106.344 15.7841 106.518 15.7049 106.566 15.499C106.677 15.0395 106.692 12.9008 106.597 12.4255C106.502 12.0453 106.423 11.9819 105.995 11.9978C105.71 12.0136 105.203 12.1245 104.855 12.2513ZM56.0558 12.4889C56.0082 12.5998 55.9924 15.7208 56.0082 19.4279L56.0558 26.161L57.9412 26.2402C59.0819 26.2877 59.9058 26.2561 60.0326 26.161C60.2068 26.0343 60.2544 24.6876 60.2544 19.3012C60.2702 15.6257 60.2227 12.5364 60.1752 12.4572C60.0167 12.2196 56.135 12.2513 56.0558 12.4889Z" fill="#A0A3BD"/>
</svg>
