<svg width="184" height="44" viewBox="0 0 184 44" fill="none" xmlns="http://www.w3.org/2000/svg">
<g clip-path="url(#clip0_2944_28019)">
<path d="M20.6303 0.0474552C18.2772 0.313983 14.7475 1.4211 12.7393 2.52822C7.34335 5.46002 3.69197 10.032 1.86627 16.1211C1.50113 17.3103 1.07514 20.5496 1.09542 22.0668C1.09542 23.3994 1.50113 26.6592 1.74456 27.4383C1.86627 27.8074 2.12998 28.689 2.35312 29.3655C2.71826 30.5136 4.4831 34.122 4.78738 34.3681C4.84824 34.4296 5.1728 34.8396 5.47709 35.3112C6.22765 36.4388 8.19534 38.448 9.67618 39.5961C10.8122 40.4777 14.0173 42.3434 14.423 42.3639C14.5244 42.3639 14.5447 41.5848 14.4838 40.5597C14.3418 38.284 14.7678 35.1881 15.6807 32.0308C15.843 31.4978 15.9647 30.8007 15.9647 30.4931C15.9647 30.1856 16.0458 29.8576 16.1472 29.7551C16.2487 29.6321 16.4312 29.0375 16.5327 28.4224C16.6544 27.8074 16.8572 26.8643 16.9992 26.3312C17.2021 25.5316 17.1818 25.2241 16.8978 24.363C16.4921 23.0509 16.4718 20.9186 16.8775 19.8935C17.8309 17.4538 18.8858 16.5312 20.6709 16.5312C22.8212 16.5312 23.8557 18.1714 23.45 20.9186C23.2674 22.1693 22.7603 24.1375 22.4357 24.7525C22.3546 24.9371 22.2126 25.4496 22.1517 25.8802C22.0706 26.3312 21.9083 26.9668 21.8069 27.3153C21.5229 28.1149 22.0706 29.6731 22.8009 30.2676C23.4906 30.8212 24.9309 30.9852 26.2494 30.6777C27.1825 30.4726 27.568 30.2266 28.5417 29.2835C29.6979 28.1354 30.5702 26.8028 30.5702 26.1672C30.5702 25.9827 30.6716 25.7366 30.7934 25.6136C31.3614 25.0396 31.6656 20.5701 31.2396 18.6839C30.7731 16.6132 29.3328 14.5835 27.4665 13.3944C25.6003 12.1847 21.746 11.8362 19.3726 12.6563C17.7092 13.2303 16.2284 14.1939 15.275 15.3216C14.423 16.3262 13.5304 17.9663 13.5304 18.5404C13.5304 18.7454 13.429 19.0119 13.3073 19.135C13.1856 19.258 13.0436 20.037 12.9827 20.8776C12.8813 22.1283 12.9624 22.7023 13.3276 23.9325C13.571 24.773 14.0173 25.7571 14.281 26.1262C14.8287 26.8643 14.8287 27.1513 14.3216 29.1195C14.1796 29.6526 13.9361 30.1446 13.7941 30.2061C12.5161 30.6982 9.91961 27.6023 9.04733 24.527C8.72276 23.3584 8.70248 19.1965 9.02705 17.9663C9.16904 17.4538 9.41247 16.7567 9.57475 16.3877C9.73704 16.0391 9.87904 15.6906 9.87904 15.6086C9.87904 15.5266 10.2847 14.8295 10.7919 14.0709C13.429 10.0525 17.7092 7.92028 23.1255 7.92028C24.3629 7.92028 25.6408 8.00229 25.9857 8.1048C28.7851 8.98639 29.5357 9.27342 30.6311 9.92949C32.7611 11.2211 34.3027 12.9843 35.8444 15.9366C35.9459 16.1211 36.0879 16.6132 36.1487 17.0232C36.2299 17.4333 36.3719 17.8228 36.4733 17.8843C36.5747 17.9458 36.6559 19.2785 36.6559 20.8571C36.6559 23.7069 36.453 24.8551 35.601 27.1923C34.6476 29.7551 32.1931 32.5844 29.9617 33.6915C28.6837 34.3065 26.29 34.9831 25.3366 34.9831C24.0586 34.9831 21.5432 33.917 20.8535 33.0559C20.5289 32.6664 20.2246 32.8099 20.2246 33.3635C20.2246 33.5685 20.1435 33.917 20.0218 34.122C19.9203 34.3065 19.7378 34.8806 19.6363 35.3932C19.0481 38.0994 18.2164 40.2932 16.9384 42.3434C16.553 42.979 16.8775 43.348 17.9324 43.4915C18.4598 43.5735 19.1698 43.717 19.4944 43.8195C20.3058 44.0861 24.7077 44.0451 26.1886 43.7785C27.5274 43.5325 29.6979 42.9174 30.6716 42.5074C36.7979 39.9651 41.4432 34.7986 43.4515 28.2174C44.5266 24.7115 44.5875 20.6316 43.6138 16.5312C43.2892 15.1985 43.1878 14.891 42.3155 12.8408C41.0578 9.84748 38.2178 6.34161 35.3373 4.18889C32.8625 2.3437 30.4282 1.27758 26.6348 0.354987C25.58 0.108962 21.8272 -0.0960599 20.6303 0.0474552ZM74.7317 7.44873C73.9406 7.57174 72.6829 8.88388 72.3583 9.90899C72.0134 11.0366 72.3583 12.2462 73.332 13.1893C75.4823 15.3011 79.2148 13.3123 78.7482 10.278C78.4642 8.35083 76.7197 7.1207 74.7317 7.44873ZM52.6205 8.65836C52.438 8.86338 52.438 33.589 52.6408 33.876C52.7422 34.04 53.6145 34.1015 55.3185 34.081L57.8542 34.0605L57.9556 29.8986C58.0368 26.5157 58.1179 25.6956 58.3613 25.5521C58.5236 25.4496 59.903 25.3471 61.4244 25.3471C64.7512 25.3471 66.1509 25.1011 67.6724 24.281C69.6603 23.1944 70.8166 21.6362 71.4455 19.1555C71.8309 17.5973 71.8309 16.4697 71.4252 14.8705C71.06 13.4354 70.8977 13.0868 70.0255 11.9182C68.9503 10.4625 67.8549 9.66296 66.0698 9.0274C65.0758 8.69936 64.2441 8.63786 58.8685 8.57635C55.5214 8.53535 52.7017 8.57635 52.6205 8.65836ZM63.7573 13.7634C65.1164 14.1939 65.7858 14.809 66.0901 15.9161C66.4755 17.3718 66.1915 18.7249 65.3395 19.545C64.4064 20.4266 63.5747 20.6316 60.8564 20.6316C59.0713 20.6316 58.5236 20.5701 58.2802 20.3036C58.0165 20.0576 57.9556 19.463 57.9556 17.1257C57.9556 13.4354 57.9353 13.4559 60.755 13.4559C61.9721 13.4559 63.1487 13.5789 63.7573 13.7634ZM99.338 12.5538C99.338 13.9684 99.2366 15.3011 99.1351 15.5266C98.9931 15.7931 98.7091 15.9161 98.2223 15.9161C97.8571 15.9161 97.5123 15.9981 97.4717 16.1211C97.4514 16.2237 97.4514 16.9412 97.5123 17.6998C97.6137 19.0529 97.634 19.0734 98.2426 19.217C98.5874 19.2785 98.9728 19.4015 99.0946 19.4835C99.2771 19.586 99.338 21.2057 99.338 25.3061C99.338 30.8212 99.3583 31.0262 99.8045 31.8463C100.738 33.589 102.198 34.204 105.16 34.122L107.148 34.0605L107.209 32.0718L107.27 30.0626H106.762C105.992 30.0626 104.856 29.4475 104.734 28.9555C104.673 28.7095 104.612 26.5362 104.612 24.0965C104.612 20.7341 104.673 19.6065 104.876 19.4425C105.018 19.3195 105.586 19.1965 106.134 19.1555L107.148 19.094V16.0186L106.032 15.9571C105.424 15.9161 104.856 15.7726 104.774 15.6496C104.693 15.5061 104.612 14.1734 104.612 12.6768V9.9705H99.338V12.5538ZM174.739 10.0935C174.658 10.1755 174.597 11.4672 174.597 12.9638C174.597 15.8751 174.577 15.9161 173.461 15.9161C172.954 15.9161 172.954 15.9366 173.015 17.4948C173.076 19.0529 173.096 19.094 173.623 19.1555C173.907 19.1965 174.252 19.34 174.354 19.463C174.475 19.6065 174.597 22.0873 174.658 25.2446C174.719 28.2789 174.82 31.0467 174.901 31.3747C175.145 32.2768 176.403 33.425 177.599 33.8145C178.938 34.2655 182.346 34.3065 182.691 33.876C182.853 33.6915 182.914 32.9534 182.874 31.8873L182.813 30.1651L182.103 30.0421C181.332 29.9191 180.46 29.509 180.236 29.1605C180.155 29.0375 180.074 26.8028 180.074 24.199C180.074 18.8479 179.952 19.1965 181.717 19.1965C182.874 19.1965 182.975 18.9914 182.874 17.1257L182.813 16.0186L181.494 15.9161L180.176 15.8136L180.074 12.9433L179.973 10.073L177.417 10.0115C176.017 9.991 174.82 10.032 174.739 10.0935ZM89.2967 15.4241C88.3027 15.6906 87.1464 16.3672 86.3756 17.1667C85.4424 18.1509 85.199 18.0893 85.0976 16.8387L85.0367 16.0186H79.9654V34.0605L82.5213 34.1015C85.0367 34.163 85.0976 34.1425 85.2193 33.6915C85.2801 33.4455 85.341 30.8417 85.341 27.8894C85.341 22.0463 85.3613 21.8822 86.5581 20.7341C87.0856 20.2216 87.3696 20.1191 88.5055 20.0576L89.8241 19.9755L90.6152 20.8161C91.5484 21.8002 91.4469 20.8571 91.5281 29.345C91.5484 31.6003 91.5686 33.589 91.5889 33.794C91.6295 34.081 91.9541 34.122 94.226 34.081L96.8023 34.0605V19.668L96.214 18.4994C95.1997 16.4697 93.6378 15.5061 91.2441 15.3831C90.3921 15.3626 89.5198 15.3626 89.2967 15.4241ZM114.654 15.4241C112.463 16.0186 111.408 16.6132 110.049 17.9663C108.223 19.832 107.391 22.0053 107.391 24.9371C107.412 30.0831 110.596 33.8965 115.303 34.3476C119.319 34.7371 122.423 33.548 124.411 30.8622C124.695 30.4726 125.303 29.222 125.303 28.9965C125.303 28.9145 124.127 28.8325 122.707 28.8325H120.11L119.502 29.468C118.792 30.2061 117.798 30.6777 116.885 30.6777C115.972 30.6777 114.572 30.0216 113.923 29.3245C113.436 28.771 112.726 27.1718 112.726 26.6182C112.726 26.4337 114.207 26.3722 118.974 26.3722C122.403 26.3722 125.303 26.2902 125.445 26.2082C125.75 26.0032 125.466 22.7433 125.019 21.5542C124.107 19.0734 122.382 16.9822 120.638 16.2442C120.131 16.0391 119.542 15.7726 119.339 15.6701C118.913 15.4446 115.303 15.26 114.654 15.4241ZM118.609 19.914C119.4 20.4676 120.09 21.7797 119.989 22.5178C119.928 22.9894 119.887 22.9894 116.459 23.0509C112.503 23.1124 112.483 23.0919 113.112 21.6157C113.558 20.5906 114.451 19.668 115.282 19.4015C116.236 19.094 117.777 19.34 118.609 19.914ZM144.676 15.4241C142.323 16.0596 140.68 17.1052 139.402 18.7249C138.895 19.381 138.489 19.996 138.489 20.1191C138.489 20.2216 138.347 20.5906 138.164 20.9391C137.982 21.2672 137.718 22.2923 137.576 23.2149C136.866 27.6023 138.814 31.7028 142.465 33.548L143.865 34.2655H146.806C149.849 34.2655 150.113 34.204 151.979 33.1994C153.338 32.4614 155.569 29.5911 155.224 29.017C155.143 28.9145 153.987 28.8325 152.628 28.8325H150.133L149.626 29.427C147.597 31.7438 143.804 30.5547 142.992 27.3358C142.871 26.9053 142.871 26.5362 142.972 26.4542C143.073 26.3927 145.974 26.3517 149.443 26.3722C154.393 26.3722 155.732 26.3312 155.752 26.1262C155.934 23.5634 154.717 19.7705 153.196 18.1304C152.344 17.2078 150.863 16.1826 150.133 15.9981C149.808 15.9161 149.443 15.7726 149.301 15.6701C149.017 15.4446 145.305 15.26 144.676 15.4241ZM147.841 19.422C148.753 19.75 149.808 20.8981 149.971 21.7797C150.214 23.1124 150.234 23.1124 146.461 23.0509C143.073 22.9894 143.053 22.9894 142.992 22.5178C142.911 21.9437 143.621 20.5291 144.23 19.996C145.102 19.258 146.623 19.0119 147.841 19.422ZM162.324 15.4241C158.166 16.4287 156.665 17.9253 156.644 21.0417C156.644 24.404 158.308 25.8187 163.237 26.7002C166.625 27.2948 167.599 27.8279 167.558 29.1195C167.538 30.0421 166.909 30.6367 165.651 30.9032C164.069 31.2517 162.832 30.8622 161.838 29.7346L161.046 28.8325H158.592C156.604 28.8325 156.137 28.894 156.137 29.1195C156.137 29.7141 156.949 31.2722 157.618 32.0513C158.247 32.7279 158.734 33.0559 160.641 33.9785C160.823 34.081 161.817 34.245 162.811 34.3681C164.657 34.5936 167.862 34.3886 168.674 33.9785C168.856 33.8965 169.384 33.63 169.83 33.425C170.986 32.8714 172.082 31.6208 172.487 30.4316C172.934 29.0785 172.812 27.1923 172.183 25.8802C171.433 24.3425 169.445 23.2354 166.483 22.7023C162.669 22.0258 162.608 22.0053 162 21.4107C161.27 20.6521 161.27 20.3856 162 19.5655C162.588 18.9094 162.629 18.8889 164.252 18.8889C165.874 18.8889 165.915 18.9094 166.503 19.5655C166.828 19.9345 167.091 20.3651 167.091 20.5291C167.091 20.7751 167.517 20.8366 169.627 20.8366C172.427 20.8366 172.345 20.8981 171.859 19.4425C170.966 16.8592 168.674 15.5471 164.86 15.4036C163.684 15.3626 162.548 15.3626 162.324 15.4241ZM135.345 15.8546C134.452 16.1621 133.215 17.1873 132.829 17.9253C132.444 18.6634 132.099 18.3559 131.998 17.1257L131.896 16.0186H126.825L126.764 24.6295C126.744 29.3655 126.764 33.4455 126.825 33.712C126.926 34.163 126.987 34.163 129.421 34.122C130.821 34.1015 131.957 33.9785 132.038 33.8555C132.119 33.753 132.2 31.5798 132.2 29.0375C132.2 25.0191 132.241 24.3015 132.586 23.3994C133.296 21.5337 134.817 20.4266 136.724 20.4266C137.252 20.4266 137.475 20.3241 137.536 20.0576C137.678 19.463 137.698 16.6952 137.576 16.0801C137.454 15.5881 137.353 15.5061 136.805 15.5266C136.44 15.5471 135.791 15.6906 135.345 15.8546ZM72.8654 16.1621C72.8046 16.3057 72.7843 20.3446 72.8046 25.1421L72.8654 33.8555L75.2794 33.958C76.74 34.0195 77.7948 33.9785 77.9571 33.8555C78.1802 33.6915 78.2411 31.9488 78.2411 24.9781C78.2614 20.2216 78.2005 16.2237 78.1397 16.1211C77.9368 15.8136 72.9669 15.8546 72.8654 16.1621Z" fill="#D71818"/>
</g>
<defs>
<clipPath id="clip0_2944_28019">
<rect width="184" height="44" fill="white"/>
</clipPath>
</defs>
</svg>
