<svg width="1648" height="794" viewBox="0 0 1648 794" fill="none" xmlns="http://www.w3.org/2000/svg">
<g clip-path="url(#clip0_2987_40383)">
<mask id="mask0_2987_40383" style="mask-type:alpha" maskUnits="userSpaceOnUse" x="-359" y="-144" width="2366" height="938">
<rect x="-358.371" y="-143.393" width="2364.76" height="937" fill="#563AFF"/>
</mask>
<g mask="url(#mask0_2987_40383)">
<g opacity="0.6">
<path opacity="0.3" fill-rule="evenodd" clip-rule="evenodd" d="M851.143 688.44C842.432 704.374 819.408 710.918 800.965 720.155C783.803 728.752 767.129 737.332 747.705 740.255C724.837 743.696 697.059 750.345 680.825 738.235C664.471 726.037 677.132 702.577 672.94 684.489C669.151 668.118 648.295 653.353 657.534 637.617C666.871 621.712 695.824 623.477 714.324 613.998C731.384 605.256 741.561 586.458 761.085 584.557C780.902 582.624 796.659 594.886 811.54 604.516C826.066 613.915 838.596 624.843 845.3 639.051C852.646 654.611 859.939 672.351 851.143 688.44Z" stroke="white"/>
<path opacity="0.3" fill-rule="evenodd" clip-rule="evenodd" d="M911.978 700.173C897.906 725.913 860.824 736.509 831.102 751.452C803.446 765.357 776.578 779.233 745.293 783.979C708.464 789.568 663.718 800.341 637.608 780.809C611.311 761.135 631.752 723.238 625.057 694.031C618.999 667.601 585.455 643.788 600.37 618.365C615.445 592.671 662.06 595.484 691.872 580.15C719.365 566.011 735.8 535.649 767.24 532.547C799.152 529.4 824.495 549.178 848.432 564.706C871.796 579.864 891.944 597.492 902.701 620.422C914.485 645.544 926.182 674.18 911.978 700.173Z" stroke="white"/>
<path opacity="0.3" fill-rule="evenodd" clip-rule="evenodd" d="M970.91 711.538C951.657 746.777 900.941 761.301 860.294 781.768C822.473 800.82 785.728 819.829 742.953 826.337C692.597 834.006 631.415 848.776 595.74 822.053C559.805 795.136 587.787 743.253 578.661 703.278C570.403 667.104 524.568 634.526 544.983 599.719C565.617 564.542 629.341 568.365 670.112 547.364C707.714 527.996 730.209 486.428 773.194 482.168C816.825 477.843 851.451 504.902 884.163 526.145C916.092 546.881 943.619 571 958.306 602.385C974.389 636.761 990.353 675.953 970.91 711.538Z" stroke="white"/>
<path opacity="0.3" fill-rule="evenodd" clip-rule="evenodd" d="M1024.14 721.806C1000.21 765.627 937.183 783.698 886.668 809.155C839.666 832.842 794.003 856.488 740.847 864.602C678.273 874.142 602.246 892.525 557.928 859.305C513.291 825.848 548.083 761.331 536.762 711.63C526.518 666.654 469.579 626.16 494.959 582.878C520.612 539.136 599.793 543.873 650.462 517.75C697.188 493.662 725.163 441.972 778.574 436.663C832.793 431.271 875.805 464.91 916.446 491.315C956.109 517.088 990.302 547.071 1008.54 586.09C1028.5 628.829 1048.32 677.554 1024.14 721.806Z" stroke="white"/>
<path opacity="0.3" fill-rule="evenodd" clip-rule="evenodd" d="M1073.57 731.339C1045.28 783.12 970.832 804.483 911.154 834.582C855.625 862.592 801.672 890.529 738.888 900.127C664.966 911.414 575.157 933.144 522.815 893.893C470.096 854.367 511.216 778.116 497.854 719.385C485.764 666.236 418.517 618.39 448.512 567.238C478.822 515.541 572.358 521.128 632.219 490.249C687.421 461.779 720.479 400.687 783.574 394.405C847.617 388.03 898.417 427.773 946.414 458.971C993.259 489.423 1033.64 524.85 1055.17 570.957C1078.75 621.462 1102.14 679.041 1073.57 731.339Z" stroke="white"/>
<path opacity="0.3" fill-rule="evenodd" clip-rule="evenodd" d="M1124.9 741.239C1092.09 801.301 1005.77 826.075 936.582 860.993C872.197 893.473 809.642 925.884 736.849 937.012C651.151 950.112 547.023 975.333 486.35 929.822C425.238 883.979 472.921 795.548 457.445 727.438C443.441 665.803 365.487 610.322 400.273 550.998C435.429 491.042 543.862 497.51 613.267 461.695C677.272 428.667 715.615 357.818 788.761 350.525C863.01 343.126 921.896 389.211 977.531 425.387C1031.84 460.701 1078.65 501.777 1103.59 555.247C1130.92 613.813 1158.03 680.584 1124.9 741.239Z" stroke="white"/>
<path opacity="0.3" fill-rule="evenodd" clip-rule="evenodd" d="M1187.64 753.333C1149.31 823.513 1048.49 852.474 967.66 893.259C892.455 931.218 819.387 969.094 734.364 982.105C634.267 997.422 512.642 1026.89 441.785 973.719C370.415 920.17 426.124 816.855 408.062 737.281C391.716 665.272 300.68 600.461 341.319 531.147C382.391 461.097 509.039 468.645 590.11 426.793C664.872 388.199 709.665 305.422 795.105 296.895C881.828 288.24 950.598 342.081 1015.57 384.337C1078.99 425.586 1133.66 473.575 1162.79 536.043C1194.69 604.463 1226.35 682.471 1187.64 753.333Z" stroke="white"/>
<path opacity="0.3" fill-rule="evenodd" clip-rule="evenodd" d="M1256.08 766.531C1211.72 847.736 1095.08 881.263 1001.57 928.472C914.554 972.397 830.017 1016.24 731.651 1031.3C615.845 1049.02 475.133 1083.14 393.167 1021.62C310.607 959.659 375.073 840.097 354.187 748.019C335.287 664.696 229.975 589.705 277.003 509.494C324.529 428.431 471.044 437.153 564.845 388.718C651.343 344.053 703.175 248.262 802.023 238.389C902.355 228.368 981.907 290.66 1057.07 339.556C1130.43 387.283 1193.67 442.81 1227.36 515.094C1264.26 594.263 1300.87 684.527 1256.08 766.531Z" stroke="white"/>
<path opacity="0.3" fill-rule="evenodd" clip-rule="evenodd" d="M1322.62 779.36C1272.4 871.299 1140.37 909.256 1034.53 962.699C936.043 1012.43 840.355 1062.07 729.013 1079.12C597.937 1099.2 438.666 1137.81 345.901 1068.19C252.461 998.046 325.441 862.695 301.81 758.459C280.427 664.133 161.241 579.246 214.474 488.441C268.277 396.672 434.112 406.536 540.282 351.701C638.19 301.133 696.868 192.69 808.75 181.508C922.312 170.158 1012.35 240.67 1097.41 296.016C1180.45 350.041 1252.02 412.896 1290.14 494.721C1331.9 584.347 1373.33 686.525 1322.62 779.36Z" stroke="white"/>
<path opacity="0.3" fill-rule="evenodd" clip-rule="evenodd" d="M1383.46 791.097C1327.89 892.84 1181.79 934.849 1064.66 993.999C955.681 1049.04 849.798 1103.97 726.601 1122.85C581.562 1145.07 405.325 1187.81 302.683 1110.76C199.297 1033.14 280.06 883.357 253.921 768.003C230.268 663.618 98.389 569.685 157.303 469.194C216.843 367.634 400.34 378.544 517.823 317.856C626.163 261.891 691.098 141.88 814.898 129.501C940.556 116.936 1040.18 194.964 1134.3 256.212C1226.17 315.996 1305.36 385.551 1347.54 476.101C1393.74 575.281 1439.57 688.36 1383.46 791.097Z" stroke="white"/>
<path opacity="0.3" fill-rule="evenodd" clip-rule="evenodd" d="M1448.09 803.559C1386.83 915.722 1225.79 962.035 1096.69 1027.25C976.555 1087.93 859.843 1148.48 724.037 1169.3C564.169 1193.81 369.901 1240.93 256.766 1155.99C142.812 1070.44 231.844 905.306 203.041 778.147C176.974 663.075 31.6148 559.532 96.5609 448.745C162.196 336.785 364.464 348.805 493.96 281.9C613.387 220.197 684.971 87.8963 821.433 74.2448C959.942 60.3894 1069.74 146.405 1173.49 213.918C1274.75 279.821 1362.04 356.492 1408.52 456.316C1459.44 565.648 1509.95 690.304 1448.09 803.559Z" stroke="white"/>
<path opacity="0.3" fill-rule="evenodd" clip-rule="evenodd" d="M1518.44 817.124C1450.98 940.625 1273.68 991.63 1131.53 1063.44C999.267 1130.25 870.761 1196.93 721.25 1219.86C545.233 1246.85 331.351 1298.74 206.798 1205.22C81.3409 1111.02 179.375 929.195 147.669 789.181C118.978 662.478 -41.0532 548.466 30.458 426.486C102.728 303.208 325.413 316.437 467.996 242.764C599.479 174.825 678.302 29.1484 828.543 14.1133C981.04 -1.14772 1101.92 93.5563 1216.14 167.893C1327.63 240.453 1423.72 324.875 1474.89 434.783C1530.94 555.165 1586.55 692.422 1518.44 817.124Z" stroke="white"/>
</g>
</g>
</g>
<defs>
<clipPath id="clip0_2987_40383">
<rect width="1648" height="794" fill="white"/>
</clipPath>
</defs>
</svg>
