<svg width="222" height="52" viewBox="0 0 222 52" fill="none" xmlns="http://www.w3.org/2000/svg">
<g clip-path="url(#clip0_2944_28029)">
<path d="M51.9415 26C51.9415 40.3587 40.3001 52 25.9414 52C11.581 52 -0.0585938 40.3587 -0.0585938 26C-0.0585938 11.6395 11.5818 0 25.9414 0C40.3001 0 51.9415 11.6404 51.9415 26Z" fill="#DA552F"/>
<path d="M29.4069 26H22.0408V18.2H29.4069C29.9191 18.2 30.4262 18.3009 30.8994 18.4969C31.3725 18.6929 31.8025 18.9801 32.1646 19.3423C32.5268 19.7044 32.814 20.1344 33.01 20.6075C33.206 21.0807 33.3069 21.5879 33.3069 22.1C33.3069 22.6122 33.206 23.1193 33.01 23.5925C32.814 24.0656 32.5268 24.4956 32.1646 24.8577C31.8025 25.2199 31.3725 25.5071 30.8994 25.7031C30.4262 25.8991 29.9191 26 29.4069 26V26ZM29.4069 13H16.8408V39H22.0408V31.2H29.4069C34.4326 31.2 38.5069 27.1257 38.5069 22.1C38.5069 17.0743 34.4326 13 29.4069 13" fill="white"/>
<path d="M79.2547 22.8222C79.2547 21.3915 78.1557 20.5246 76.7276 20.5246H72.8997V25.0932H76.7285C78.1566 25.0932 79.2556 24.2263 79.2556 22.8222H79.2547ZM69.2744 34.6663V17.3333H77.2371C80.9397 17.3333 82.9547 19.8354 82.9547 22.8222C82.9547 25.7833 80.914 28.2846 77.2371 28.2846H72.8997V34.6663H69.2753H69.2744ZM85.1616 34.6663V22.03H88.401V23.6892C89.2946 22.6168 90.8018 21.7241 92.3339 21.7241V24.8887C92.1027 24.838 91.8226 24.8131 91.4402 24.8131C90.3679 24.8131 88.9372 25.4249 88.401 26.2181V34.6663H85.1607H85.1616ZM103.239 28.1823C103.239 26.2679 102.113 24.6086 100.072 24.6086C98.0541 24.6086 96.9328 26.2679 96.9328 28.1832C96.9328 30.1225 98.0541 31.7818 100.072 31.7818C102.113 31.7818 103.238 30.1225 103.238 28.1823H103.239ZM93.5619 28.1823C93.5619 24.686 96.0125 21.7241 100.072 21.7241C104.157 21.7241 106.607 24.6851 106.607 28.1823C106.607 31.6795 104.157 34.6663 100.072 34.6663C96.0125 34.6663 93.5619 31.6795 93.5619 28.1823ZM117.516 30.3777V26.0127C116.98 25.1946 115.806 24.6086 114.733 24.6086C112.871 24.6086 111.594 26.0634 111.594 28.1832C111.594 30.3261 112.871 31.7818 114.733 31.7818C115.806 31.7818 116.98 31.1949 117.516 30.3768V30.3777ZM117.516 34.6663V32.7777C116.545 34.0021 115.219 34.6663 113.712 34.6663C110.624 34.6663 108.25 32.3188 108.25 28.1823C108.25 24.1756 110.573 21.7241 113.712 21.7241C115.167 21.7241 116.545 22.3376 117.516 23.6127V17.3333H120.783V34.6663H117.516ZM132.33 34.6663V32.8026C131.489 33.722 130.008 34.6663 127.991 34.6663C125.286 34.6663 124.01 33.1858 124.01 30.7859V22.03H127.25V29.5099C127.25 31.2207 128.143 31.7818 129.522 31.7818C130.772 31.7818 131.769 31.0926 132.33 30.3768V22.03H135.572V34.6663H132.33ZM138.006 28.1823C138.006 24.405 140.763 21.7241 144.542 21.7241C147.069 21.7241 148.6 22.8222 149.417 23.9453L147.298 25.9353C146.712 25.0675 145.818 24.6086 144.695 24.6086C142.729 24.6086 141.352 26.0385 141.352 28.1832C141.352 30.3261 142.729 31.7818 144.695 31.7818C145.818 31.7818 146.712 31.2714 147.298 30.4284L149.417 32.4202C148.6 33.5433 147.069 34.6663 144.542 34.6663C140.763 34.6663 138.006 31.9863 138.006 28.1823ZM152.205 31.2714V24.8638H150.163V22.03H152.205V18.6599H155.448V22.03H157.947V24.8638H155.448V30.4035C155.448 31.1949 155.854 31.7818 156.57 31.7818C157.054 31.7818 157.516 31.603 157.692 31.3994L158.383 33.874C157.899 34.3097 157.03 34.6663 155.676 34.6663C153.405 34.6663 152.205 33.4926 152.205 31.2714V31.2714ZM178.714 34.6663V27.1864H170.672V34.6663H167.049V17.3333H170.672V24.0209H178.714V17.3341H182.364V34.6663H178.714ZM193.965 34.6663V32.8026C193.123 33.722 191.643 34.6663 189.626 34.6663C186.92 34.6663 185.644 33.1858 185.644 30.7859V22.03H188.884V29.5099C188.884 31.2207 189.778 31.7818 191.157 31.7818C192.407 31.7818 193.404 31.0926 193.965 30.3768V22.03H197.207V34.6663H193.965ZM208.751 34.6663V26.9072C208.751 25.1964 207.86 24.6095 206.48 24.6095C205.204 24.6095 204.234 25.3244 203.672 26.0393V34.6672H200.431V22.03H203.672V23.6127C204.464 22.6942 205.995 21.7241 207.986 21.7241C210.718 21.7241 212.019 23.2553 212.019 25.6543V34.6663H208.752H208.751ZM215.882 31.2714V24.8638H213.842V22.03H215.883V18.6599H219.126V22.03H221.626V24.8638H219.126V30.4035C219.126 31.1949 219.533 31.7818 220.248 31.7818C220.733 31.7818 221.194 31.603 221.372 31.3994L222.06 33.874C221.576 34.3097 220.707 34.6663 219.354 34.6663C217.082 34.6663 215.883 33.4926 215.883 31.2714" fill="#DA552F"/>
</g>
<defs>
<clipPath id="clip0_2944_28029">
<rect width="222" height="52" fill="white"/>
</clipPath>
</defs>
</svg>
