<svg width="60" height="60" viewBox="0 0 60 60" fill="none" xmlns="http://www.w3.org/2000/svg">
<circle opacity="0.2" cx="30" cy="30" r="30" fill="#563AFF"/>
<circle cx="29.7783" cy="44.0321" r="3.15334" fill="#563AFF"/>
<path fill-rule="evenodd" clip-rule="evenodd" d="M29.782 17.9171C27.5643 17.9171 25.6708 19.3334 24.9692 21.3186C24.4996 22.6471 23.042 23.3434 21.7135 22.8739C20.385 22.4043 19.6887 20.9467 20.1582 19.6182C21.558 15.658 25.3347 12.8146 29.782 12.8146C35.4182 12.8146 39.9872 17.3836 39.9872 23.0197C39.9872 27.7749 36.7349 31.7705 32.3333 32.9034V35.7762C32.3333 37.1852 31.1911 38.3274 29.782 38.3274C28.373 38.3274 27.2308 37.1852 27.2308 35.7762V30.6736C27.2308 29.2645 28.373 28.1223 29.782 28.1223C32.6001 28.1223 34.8846 25.8378 34.8846 23.0197C34.8846 20.2016 32.6001 17.9171 29.782 17.9171Z" fill="#563AFF"/>
</svg>
