<svg width="72" height="72" viewBox="0 0 72 72" fill="none" xmlns="http://www.w3.org/2000/svg">
<rect width="72" height="72" rx="18" fill="#7D42FB"/>
<path d="M34 22.1516C34 21.047 33.1018 20.1401 32.0041 20.2626C29.1502 20.581 26.4035 21.579 23.9997 23.1851C21.0397 25.163 18.7326 27.9742 17.3702 31.2633C16.0078 34.5524 15.6513 38.1716 16.3459 41.6632C17.0404 45.1549 18.7547 48.3622 21.2721 50.8795C23.7894 53.3969 26.9967 55.1112 30.4884 55.8057C33.98 56.5003 37.5992 56.1438 40.8883 54.7814C44.1774 53.419 46.9886 51.1119 48.9665 48.1519C50.5726 45.7481 51.5706 43.0014 51.889 40.1475C52.0115 39.0497 51.1046 38.1516 50 38.1516H42.0158C40.9112 38.1516 40.0469 39.0709 39.6864 40.115C39.5191 40.5994 39.2897 41.0631 39.002 41.4938C38.3409 42.4831 37.4014 43.2541 36.3022 43.7095C35.2029 44.1648 33.9933 44.2839 32.8264 44.0518C31.6594 43.8197 30.5875 43.2467 29.7462 42.4054C28.9049 41.5641 28.3319 40.4922 28.0998 39.3252C27.8677 38.1583 27.9868 36.9487 28.4421 35.8494C28.8975 34.7502 29.6685 33.8107 30.6578 33.1496C31.0885 32.8619 31.5522 32.6325 32.0366 32.4652C33.0807 32.1047 34 31.2404 34 30.1358V22.1516Z" fill="white"/>
<path opacity="0.5" d="M54 34.1516C55.1046 34.1516 56.0115 33.2534 55.889 32.1557C55.7017 30.4771 55.2787 28.8298 54.6298 27.2633C53.7252 25.0794 52.3994 23.0951 50.7279 21.4237C49.0565 19.7522 47.0722 18.4263 44.8883 17.5217C43.3217 16.8729 41.6745 16.4499 39.9959 16.2626C38.8981 16.1401 38 17.047 38 18.1516V26.1358C38 27.2404 38.9193 28.1047 39.9634 28.4652C40.0774 28.5046 40.1904 28.5474 40.3021 28.5937C41.032 28.896 41.6952 29.3392 42.2538 29.8978C42.8124 30.4564 43.2555 31.1196 43.5579 31.8494C43.6042 31.9612 43.647 32.0742 43.6864 32.1882C44.0469 33.2323 44.9112 34.1516 46.0158 34.1516H54Z" fill="white"/>
</svg>
