<svg width="64" height="64" viewBox="0 0 64 64" fill="none" xmlns="http://www.w3.org/2000/svg">
<path opacity="0.35" d="M53.1763 55.8234H10.8238C9.35998 55.8234 8.17676 54.6401 8.17676 53.1763V10.8238C8.17676 9.35998 9.35998 8.17676 10.8238 8.17676C12.2876 8.17676 13.4708 9.35998 13.4708 10.8238V50.5293H53.1763C54.6401 50.5293 55.8234 51.7125 55.8234 53.1763C55.8234 54.6401 54.6401 55.8234 53.1763 55.8234Z" fill="#7D42FB"/>
<path d="M32.0006 37.2935C31.323 37.2935 30.6453 37.0341 30.1291 36.5179L24.0595 30.4483L17.9898 36.5179C16.9549 37.5529 15.2819 37.5529 14.2469 36.5179C13.212 35.4829 13.212 33.81 14.2469 32.775L22.188 24.8339C23.223 23.7989 24.896 23.7989 25.931 24.8339L32.0006 30.9036L38.0702 24.8339C39.1052 23.7989 40.7782 23.7989 41.8132 24.8339L45.2358 28.2565L51.3054 22.1869C52.3404 21.1519 54.0133 21.1519 55.0483 22.1869C56.0833 23.2219 56.0833 24.8948 55.0483 25.9298L47.1072 33.8709C46.0722 34.9059 44.3993 34.9059 43.3643 33.8709L39.9417 30.4483L33.8721 36.5179C33.3559 37.0341 32.6782 37.2935 32.0006 37.2935Z" fill="#7D42FB"/>
</svg>
