<svg width="388" height="110" viewBox="0 0 388 110" fill="none" xmlns="http://www.w3.org/2000/svg">
<g clip-path="url(#clip0_2976_38439)">
<rect width="388" height="110" fill="white"/>
<path d="M-30.4551 -8.68689H418.453V119.363H-30.4551V-8.68689Z" fill="#F2F1FF"/>
<mask id="mask0_2976_38439" style="mask-type:alpha" maskUnits="userSpaceOnUse" x="-21" y="-6" width="430" height="122">
<path d="M-20.8027 26.7922C-20.8027 9.11913 -6.47584 -5.20776 11.1973 -5.20776H376.798C394.472 -5.20776 408.798 9.11913 408.798 26.7922V115.862H-20.8027V26.7922Z" fill="#7D42FB"/>
</mask>
<g mask="url(#mask0_2976_38439)">
<path opacity="0.3" fill-rule="evenodd" clip-rule="evenodd" d="M262.635 245.311C251.999 264.605 224.016 272.563 201.586 283.779C180.714 294.213 160.436 304.624 136.838 308.198C109.057 312.407 75.3013 320.508 55.6326 305.889C35.8215 291.163 51.2792 262.757 46.2623 240.878C41.7223 221.079 16.4517 203.257 27.7286 184.201C39.1253 164.941 74.2765 167.019 96.7759 155.514C117.525 144.905 129.954 122.146 153.666 119.803C177.736 117.427 196.826 132.23 214.861 143.851C232.465 155.195 247.64 168.39 255.728 185.566C264.586 204.378 273.375 225.827 262.635 245.311Z" stroke="#A277FF"/>
<path opacity="0.3" fill-rule="evenodd" clip-rule="evenodd" d="M282.973 249.196C270.547 271.74 237.863 281.043 211.661 294.144C187.282 306.338 163.595 318.504 136.032 322.684C103.584 327.604 64.1559 337.07 41.1856 319.99C18.0493 302.789 36.1089 269.601 30.2537 244.04C24.9545 220.909 -4.55699 200.09 8.61726 177.824C21.9316 155.322 62.9878 157.747 89.2688 144.303C113.505 131.905 128.026 105.315 155.723 102.576C183.837 99.7959 206.13 117.091 227.193 130.665C247.752 143.915 265.474 159.331 274.917 179.397C285.26 201.375 295.521 226.433 282.973 249.196Z" stroke="#A277FF"/>
<path opacity="0.3" fill-rule="evenodd" clip-rule="evenodd" d="M305.159 253.436C290.78 279.522 252.966 290.292 222.652 305.456C194.445 319.566 167.04 333.649 135.152 338.487C97.6109 344.181 51.9956 355.138 25.4242 335.377C-1.33961 315.474 19.5588 277.068 12.788 247.49C6.66104 220.724 -27.4784 196.635 -12.2332 170.869C3.17365 144.83 50.6701 147.631 81.0779 132.073C109.118 117.725 125.921 86.9548 157.965 83.7835C190.49 80.5645 216.279 100.574 240.645 116.281C264.427 131.612 284.928 149.449 295.847 172.668C307.811 198.1 319.679 227.095 305.159 253.436Z" stroke="#A277FF"/>
<path opacity="0.3" fill-rule="evenodd" clip-rule="evenodd" d="M326.73 257.557C310.45 287.09 267.649 299.283 233.338 316.45C201.411 332.426 170.392 348.369 134.298 353.848C91.8059 360.298 40.1743 372.701 10.1023 350.336C-20.1886 327.805 3.46958 284.326 -4.19097 250.843C-11.1227 220.543 -49.7601 193.275 -32.5032 164.106C-15.0617 134.627 38.6979 137.796 73.1157 120.181C104.855 103.938 123.877 69.103 160.146 65.511C196.96 61.8652 226.147 84.5154 253.723 102.294C280.64 119.648 303.842 139.839 316.201 166.124C329.738 194.914 343.167 227.736 326.73 257.557Z" stroke="#A277FF"/>
<path opacity="0.3" fill-rule="evenodd" clip-rule="evenodd" d="M346.452 261.327C328.438 294.01 281.077 307.504 243.108 326.504C207.778 344.185 173.454 361.83 133.516 367.893C86.4982 375.033 29.3665 388.761 -3.90736 364.012C-37.4227 339.079 -11.2413 290.963 -19.7147 253.909C-27.3826 220.377 -70.1343 190.204 -51.0358 157.923C-31.7347 125.3 27.7506 128.804 65.8356 109.309C100.957 91.3319 122.007 52.7814 162.14 48.8049C202.875 44.7686 235.169 69.8332 265.681 89.5078C295.464 108.712 321.135 131.055 334.81 160.142C349.785 192.001 364.642 228.325 346.452 261.327Z" stroke="#A277FF"/>
<path opacity="0.3" fill-rule="evenodd" clip-rule="evenodd" d="M367.404 265.33C347.546 301.36 295.341 316.237 253.488 337.185C214.544 356.679 176.709 376.129 132.684 382.815C80.8589 390.688 17.8819 405.827 -18.7937 378.54C-55.7346 351.058 -26.8728 298.014 -36.21 257.167C-44.6602 220.203 -91.7819 186.942 -70.728 151.354C-49.4507 115.39 16.1193 119.251 58.0986 97.7591C96.8138 77.9387 120.02 35.4402 164.257 31.055C209.158 26.6042 244.754 54.2346 278.385 75.9218C311.211 97.0915 339.507 121.72 354.577 153.786C371.083 188.907 387.458 228.949 367.404 265.33Z" stroke="#A277FF"/>
<path opacity="0.3" fill-rule="evenodd" clip-rule="evenodd" d="M390.209 269.688C368.343 309.36 310.865 325.744 264.785 348.81C221.907 370.273 180.249 391.693 131.781 399.058C74.7209 407.727 5.38556 424.396 -34.9912 394.355C-75.6613 364.095 -43.881 305.688 -54.1594 260.712C-63.4602 220.011 -115.338 183.388 -92.1562 144.205C-68.728 104.605 3.4609 108.854 49.6826 85.1881C92.3061 63.3645 117.858 16.5693 166.563 11.7396C215.998 6.83736 255.186 37.2588 292.212 61.1377C328.353 84.4459 359.503 111.564 376.094 146.87C394.263 185.54 412.289 229.63 390.209 269.688Z" stroke="#A277FF"/>
</g>
</g>
<defs>
<clipPath id="clip0_2976_38439">
<rect width="388" height="110" fill="white"/>
</clipPath>
</defs>
</svg>
