<svg width="112" height="112" viewBox="0 0 112 112" fill="none" xmlns="http://www.w3.org/2000/svg">
<rect width="112" height="112" rx="24.8889" fill="#563AFF"/>
<path d="M53.0082 35.0649C53.0082 33.4131 51.6651 32.057 50.0236 32.2401C45.7559 32.7163 41.6487 34.2087 38.0542 36.6104C33.6279 39.568 30.1779 43.7718 28.1407 48.6901C26.1035 53.6084 25.5704 59.0204 26.609 64.2416C27.6476 69.4629 30.2111 74.259 33.9754 78.0233C37.7398 81.7876 42.5358 84.3511 47.7571 85.3897C52.9783 86.4283 58.3903 85.8952 63.3086 83.858C68.2269 81.8208 72.4307 78.3708 75.3883 73.9445C77.79 70.35 79.2824 66.2428 79.7586 61.9751C79.9417 60.3336 78.5856 58.9905 76.9338 58.9905H64.9946C63.3429 58.9905 62.0504 60.3652 61.5113 61.9265C61.2612 62.6509 60.9182 63.3442 60.4879 63.9883C59.4994 65.4676 58.0944 66.6206 56.4507 67.3015C54.8069 67.9824 52.9982 68.1605 51.2532 67.8134C49.5082 67.4663 47.9053 66.6095 46.6472 65.3515C45.3892 64.0934 44.5324 62.4905 44.1853 60.7455C43.8382 59.0005 44.0163 57.1918 44.6972 55.548C45.3781 53.9043 46.5311 52.4993 48.0104 51.5109C48.6545 51.0805 49.3478 50.7375 50.0722 50.4874C51.6335 49.9483 53.0082 48.6558 53.0082 47.0041V35.0649Z" fill="white"/>
<path opacity="0.5" d="M82.9159 53.0091C84.5676 53.0091 85.9238 51.666 85.7406 50.0245C85.4606 47.5144 84.828 45.0512 83.8577 42.7086C82.505 39.443 80.5224 36.4757 78.023 33.9763C75.5236 31.4769 72.5563 29.4943 69.2907 28.1416C66.9481 27.1713 64.4849 26.5387 61.9748 26.2587C60.3333 26.0755 58.9902 27.4317 58.9902 29.0834V41.0226C58.9902 42.6744 60.3649 43.9668 61.9262 44.5059C62.0967 44.5648 62.2657 44.6289 62.4328 44.6981C63.5242 45.1502 64.5158 45.8128 65.3512 46.6481C66.1865 47.4835 66.8491 48.4751 67.3012 49.5666C67.3704 49.7337 67.4345 49.9026 67.4934 50.0731C68.0325 51.6344 69.325 53.0091 70.9767 53.0091H82.9159Z" fill="white"/>
</svg>
