<svg width="174" height="60" viewBox="0 0 174 60" fill="none" xmlns="http://www.w3.org/2000/svg">
<path d="M156.772 24.4888C158.855 24.4888 160.543 22.8012 160.543 20.7194C160.543 18.6376 158.855 16.95 156.772 16.95C154.689 16.95 153 18.6376 153 20.7194C153 22.8012 154.689 24.4888 156.772 24.4888Z" fill="#FF4500"/>
<path d="M102.903 36.792C104.753 36.792 105.82 35.4054 105.749 34.0539C105.73 33.5404 105.67 33.0292 105.572 32.5248C104.433 27.618 100.448 23.9904 95.7157 23.9904C90.0942 23.9904 85.5399 29.0755 85.5399 35.3338C85.5399 41.5921 90.0942 46.6773 95.7157 46.6773C99.2387 46.6773 101.765 45.3973 103.579 43.3705C104.469 42.3749 104.291 40.8458 103.223 40.0988C102.334 39.4943 101.231 39.7077 100.413 40.3831C99.63 41.0592 98.1357 42.41 95.7157 42.41C92.8698 42.41 90.4504 39.9563 89.9165 36.7204H102.903V36.792ZM95.6805 28.2934C98.2419 28.2934 100.448 30.2845 101.267 33.0226H90.0942C90.9126 30.2493 93.1185 28.2934 95.6805 28.2934ZM85.7535 26.2307C85.7535 25.1642 84.9709 24.3105 83.9747 24.1329C80.8788 23.6709 77.9613 24.8083 76.2893 26.9067V26.6217C76.2893 25.306 75.2216 24.4888 74.1544 24.4888C73.5888 24.4904 73.0468 24.7156 72.6468 25.1152C72.2468 25.5149 72.0213 26.0565 72.0195 26.6217V44.0459C72.0195 45.1839 72.8731 46.1795 74.0118 46.2504C75.2574 46.3213 76.2893 45.3616 76.2893 44.1168V35.1204C76.2893 31.1382 79.2778 27.8665 83.405 28.3292H83.8321C84.8992 28.2576 85.7535 27.3329 85.7535 26.2307V26.2307ZM158.906 28.5068C158.905 27.9415 158.68 27.3998 158.28 27.0001C157.88 26.6003 157.338 26.3749 156.772 26.3732C156.206 26.3748 155.664 26.6001 155.264 26.9998C154.864 27.3996 154.639 27.9414 154.637 28.5068V44.1168C154.639 44.6822 154.864 45.224 155.264 45.6237C155.664 46.0235 156.206 46.2488 156.772 46.2504C157.338 46.2486 157.88 46.0233 158.28 45.6235C158.68 45.2237 158.905 44.6821 158.906 44.1168V28.5068ZM127.169 16.7014C127.167 16.136 126.942 15.5942 126.542 15.1944C126.142 14.7946 125.6 14.5693 125.034 14.5677C124.468 14.5695 123.926 14.7949 123.526 15.1946C123.127 15.5944 122.901 16.1361 122.9 16.7014V26.1955C121.441 24.7373 119.626 24.0261 117.455 24.0261C111.834 24.0261 107.28 29.1113 107.28 35.3696C107.28 41.6279 111.834 46.713 117.455 46.713C119.626 46.713 121.476 45.966 122.935 44.5079C123.113 45.5041 124.003 46.2504 125.034 46.2504C125.6 46.2488 126.142 46.0235 126.542 45.6237C126.942 45.224 127.167 44.6822 127.169 44.1168V16.7014ZM117.491 42.481C114.217 42.481 111.584 39.3167 111.584 35.3696C111.584 31.4583 114.217 28.2576 117.491 28.2576C120.765 28.2576 123.398 31.4225 123.398 35.3696C123.398 39.3167 120.729 42.481 117.491 42.481ZM149.442 16.7014C149.441 16.136 149.215 15.5942 148.815 15.1944C148.415 14.7946 147.873 14.5693 147.307 14.5677C146.742 14.5693 146.2 14.7946 145.8 15.1944C145.4 15.5942 145.174 16.136 145.173 16.7014V26.1955C143.714 24.7373 141.9 24.0261 139.729 24.0261C134.107 24.0261 129.553 29.1113 129.553 35.3696C129.553 41.6279 134.107 46.713 139.729 46.713C141.9 46.713 143.749 45.966 145.208 44.5079C145.386 45.5041 146.275 46.2504 147.307 46.2504C147.873 46.2488 148.415 46.0235 148.815 45.6237C149.215 45.224 149.441 44.6822 149.442 44.1168V16.7014ZM139.729 42.481C136.455 42.481 133.823 39.3167 133.823 35.3696C133.823 31.4583 136.455 28.2576 139.729 28.2576C143.002 28.2576 145.635 31.4225 145.635 35.3696C145.635 39.3167 143.002 42.481 139.729 42.481ZM169.723 44.1526V28.2934H171.609C172.605 28.2934 173.495 27.5464 173.566 26.515C173.637 25.4128 172.748 24.4888 171.68 24.4888H169.723V21.5015C169.723 20.3634 168.869 19.3679 167.731 19.2969C166.485 19.226 165.454 20.1858 165.454 21.4306V24.5239H163.674C162.678 24.5239 161.789 25.2709 161.718 26.3023C161.646 27.4045 162.536 28.3292 163.603 28.3292H165.418V44.1884C165.42 44.7536 165.645 45.2953 166.045 45.6949C166.445 46.0945 166.987 46.3197 167.553 46.3213C168.798 46.2504 169.723 45.3258 169.723 44.1526V44.1526Z" fill="#222222"/>
<path d="M30.2479 59.7983C46.715 59.7983 60.0643 46.4572 60.0643 30C60.0643 13.5429 46.715 0.201782 30.2479 0.201782C13.7809 0.201782 0.431641 13.5429 0.431641 30C0.431641 46.4572 13.7809 59.7983 30.2479 59.7983Z" fill="#FF4500"/>
<path d="M50.1372 30C50.138 29.4301 50.0263 28.8656 49.8084 28.339C49.5906 27.8123 49.2708 27.3337 48.8676 26.9308C48.4644 26.5278 47.9855 26.2082 47.4585 25.9905C46.9315 25.7728 46.3667 25.6611 45.7965 25.6619C44.6226 25.6619 43.5548 26.1239 42.7722 26.8709C39.7837 24.7373 35.6917 23.3507 31.1374 23.173L33.1297 13.8565L39.6053 15.2431C39.6428 16.0507 39.9949 16.8116 40.5864 17.3631C41.1779 17.9147 41.9618 18.213 42.7706 18.1944C43.5793 18.1758 44.3487 17.8417 44.9141 17.2635C45.4796 16.6854 45.7963 15.909 45.7965 15.1006C45.7959 14.2803 45.4697 13.4938 44.8893 12.9138C44.309 12.3338 43.522 12.0077 42.7012 12.0072C42.1217 12.0087 41.5543 12.1729 41.0636 12.481C40.5729 12.789 40.1786 13.2287 39.9257 13.7497L32.7032 12.2206C32.4897 12.1848 32.2761 12.2206 32.1335 12.3273C31.9558 12.4341 31.849 12.6117 31.8138 12.8251L29.6073 23.2081C24.982 23.3506 20.819 24.7373 17.7947 26.9067C16.9802 26.1292 15.8968 25.696 14.7705 25.6977C14.2002 25.6969 13.6354 25.8086 13.1084 26.0263C12.5814 26.244 12.1026 26.5636 11.6993 26.9665C11.2961 27.3695 10.9764 27.8481 10.7585 28.3748C10.5406 28.9014 10.4289 29.4659 10.4297 30.0358C10.4297 31.8135 11.4968 33.3068 12.9917 33.9829C12.9191 34.4177 12.8834 34.8578 12.8849 35.2986C12.8849 41.9831 20.6771 47.4242 30.2838 47.4242C39.8905 47.4242 47.6827 42.0189 47.6827 35.2986C47.6827 34.8717 47.6469 34.4091 47.5759 33.9829C48.3397 33.634 48.9872 33.0731 49.4412 32.367C49.8953 31.6609 50.1369 30.8394 50.1372 30V30ZM20.3209 33.0934C20.3215 32.273 20.6478 31.4864 21.2283 30.9064C21.8088 30.3264 22.596 30.0004 23.4168 30C25.1246 30 26.5121 31.3866 26.5121 33.0934C26.5121 34.8001 25.1246 36.1874 23.4168 36.1874C21.7084 36.2226 20.3209 34.8001 20.3209 33.0934V33.0934ZM37.6488 41.3077C35.5139 43.4413 31.4577 43.5838 30.2838 43.5838C29.0741 43.5838 25.0178 43.4055 22.9181 41.3077C22.8422 41.2336 22.7819 41.1451 22.7407 41.0474C22.6995 40.9497 22.6783 40.8447 22.6783 40.7387C22.6783 40.6326 22.6995 40.5277 22.7407 40.4299C22.7819 40.3322 22.8422 40.2437 22.9181 40.1696C22.9922 40.0938 23.0808 40.0335 23.1786 39.9923C23.2763 39.9512 23.3814 39.93 23.4875 39.93C23.5936 39.93 23.6986 39.9512 23.7964 39.9923C23.8942 40.0335 23.9827 40.0938 24.0568 40.1696C25.4091 41.5211 28.2557 41.9831 30.2838 41.9831C32.3119 41.9831 35.1936 41.5211 36.5101 40.1696C36.5842 40.0938 36.6728 40.0335 36.7706 39.9923C36.8683 39.9512 36.9734 39.93 37.0795 39.93C37.1856 39.93 37.2906 39.9512 37.3884 39.9923C37.4861 40.0335 37.5747 40.0938 37.6488 40.1696C37.7865 40.3273 37.8623 40.5294 37.8623 40.7387C37.8623 40.9479 37.7865 41.15 37.6488 41.3077ZM37.0791 36.2226C35.3713 36.2226 33.9839 34.8359 33.9839 33.1292C33.9839 31.4224 35.3713 30.0358 37.0791 30.0358C37.9 30.0362 38.6871 30.3622 39.2676 30.9422C39.8481 31.5222 40.1745 32.3088 40.175 33.1292C40.175 34.8001 38.7876 36.2226 37.0791 36.2226Z" fill="white"/>
</svg>
