<svg width="68" height="68" viewBox="0 0 68 68" fill="none" xmlns="http://www.w3.org/2000/svg">
<path d="M28.7459 49.8118V35.3597H33.841L34.6038 29.7275H28.7457V26.1315C28.7457 24.5009 29.2213 23.3896 31.6775 23.3896L34.81 23.3882V18.3508C34.2682 18.2823 32.4086 18.1289 30.2454 18.1289C25.7288 18.1289 22.6366 20.7536 22.6366 25.5739V29.7275H17.5284V35.3597H22.6366V49.8116H28.7459V49.8118Z" fill="white"/>
<circle cx="34" cy="34" r="34" fill="#FF4500"/>
<rect width="68" height="68" rx="16" fill="#FF4500"/>
<path d="M53.2385 32.3762C53.2442 32.767 53.1957 33.1571 53.093 33.5343C52.9903 33.9115 52.8349 34.2731 52.6309 34.6068C52.4277 34.9406 52.1781 35.2444 51.89 35.5089C51.6019 35.7735 51.2781 35.996 50.928 36.17C50.9358 36.2741 50.9422 36.3789 50.9458 36.4838C50.9544 36.6929 50.9544 36.9022 50.9458 37.1113C50.9422 37.2162 50.9358 37.321 50.928 37.4251C50.928 43.8147 43.483 49.0062 34.2979 49.0062C25.1129 49.0062 17.6679 43.8147 17.6679 37.4251C17.66 37.321 17.6536 37.2162 17.65 37.1113C17.6414 36.9022 17.6414 36.6929 17.65 36.4838C17.6536 36.3789 17.66 36.2741 17.6679 36.17C17.1193 35.9178 16.6321 35.5495 16.2399 35.0905C15.8477 34.6314 15.56 34.0927 15.3966 33.5115C15.2334 32.93 15.1987 32.32 15.2947 31.7238C15.3908 31.1276 15.6153 30.5593 15.9528 30.0585C16.29 29.5578 16.7321 29.1364 17.2484 28.8236C17.7648 28.5108 18.343 28.3142 18.9429 28.2472C19.543 28.1799 20.1504 28.244 20.7233 28.4348C21.2961 28.6257 21.8206 28.9388 22.2604 29.3525C23.0768 28.7992 23.9322 28.3056 24.8198 27.8757C25.7076 27.4464 26.6254 27.0812 27.566 26.7846C28.5066 26.4879 29.4679 26.2604 30.4413 26.1028C31.4148 25.9452 32.3989 25.8589 33.3851 25.844L35.496 15.9458C35.5195 15.831 35.5659 15.7226 35.6322 15.6256C35.6978 15.5293 35.7826 15.4466 35.8803 15.3831C35.9788 15.3197 36.0886 15.2762 36.2041 15.2548C36.3189 15.2341 36.4373 15.2362 36.5514 15.2612L43.54 16.6589C44.2453 15.4473 45.7257 14.9282 47.0329 15.4331C48.34 15.938 49.0874 17.3178 48.795 18.6885C48.5033 20.0591 47.2582 21.0147 45.8591 20.9427C44.4592 20.8706 43.3189 19.7924 43.1692 18.3989L37.0648 17.1153L35.2107 26.0151C36.1848 26.0358 37.1568 26.1271 38.1181 26.2875C40.0432 26.6084 41.9118 27.2055 43.6662 28.0604C44.5425 28.4868 45.3869 28.9758 46.1928 29.5237C46.7723 28.9673 47.5005 28.5906 48.2894 28.439C49.0783 28.2869 49.8944 28.3664 50.6392 28.6679C51.384 28.9693 52.0257 29.4797 52.4869 30.1377C52.9482 30.7957 53.2092 31.5731 53.2385 32.3762V32.3762ZM24.9303 36.3205C25.0744 36.6663 25.284 36.9808 25.5493 37.2454C25.8139 37.5107 26.1284 37.7203 26.4742 37.8644C26.8204 38.0076 27.1914 38.0812 27.566 38.0812C28.7199 38.0812 29.7596 37.3859 30.2017 36.3205C30.6432 35.2543 30.3986 34.0278 29.5827 33.212C28.7669 32.3961 27.5404 32.1515 26.4742 32.593C25.4088 33.0351 24.7135 34.0748 24.7135 35.2287C24.7135 35.6031 24.787 35.9739 24.9303 36.3205V36.3205ZM41.268 43.1679C41.4142 43.0253 41.4976 42.8306 41.5005 42.6266C41.5033 42.422 41.4242 42.2251 41.2815 42.0789C41.1389 41.9328 40.9442 41.8493 40.7403 41.8465C40.5356 41.8436 40.3388 41.9228 40.1741 42.0461C39.7451 42.3538 39.2909 42.6246 38.8163 42.8555C38.3416 43.0866 37.8483 43.2772 37.3415 43.4253C36.8352 43.5729 36.3168 43.6778 35.7926 43.7384C35.2678 43.799 34.7393 43.8147 34.2123 43.7862C33.6861 43.8097 33.1583 43.7883 32.6356 43.7227C32.1128 43.6577 31.5965 43.548 31.0924 43.3947C30.5875 43.2421 30.0976 43.0467 29.6262 42.8113C29.1549 42.576 28.7042 42.3007 28.2791 41.9891C28.1315 41.8679 27.944 41.8058 27.7529 41.8151C27.5617 41.8244 27.3813 41.9049 27.2458 42.0397C27.1111 42.1752 27.0305 42.3556 27.0212 42.5468C27.0119 42.7379 27.074 42.9254 27.1952 43.073C27.6965 43.451 28.2292 43.7847 28.7876 44.0714C29.346 44.3581 29.9286 44.5956 30.5276 44.7824C31.1267 44.9692 31.7407 45.104 32.3632 45.186C32.9858 45.2673 33.614 45.2951 34.2409 45.2695C34.8677 45.2951 35.496 45.2673 36.1185 45.186C37.3654 45.022 38.5749 44.645 39.6941 44.0714C40.2525 43.7847 40.7852 43.451 41.2865 43.073L41.268 43.1679ZM40.7446 38.3094C41.1311 38.3137 41.5147 38.2388 41.872 38.0904C42.2293 37.9414 42.5523 37.7218 42.8219 37.4444C43.0914 37.1669 43.3011 36.8375 43.4395 36.4759C43.5779 36.1148 43.6412 35.7292 43.6256 35.3428C43.6256 34.1889 42.9303 33.1492 41.8649 32.7071C40.7988 32.2656 39.5722 32.5102 38.7564 33.3261C37.9406 34.1419 37.696 35.3684 38.1374 36.4346C38.5795 37.5 39.6192 38.1953 40.7731 38.1953L40.7446 38.3094Z" fill="white"/>
</svg>
