<svg width="60" height="60" viewBox="0 0 60 60" fill="none" xmlns="http://www.w3.org/2000/svg">
<rect width="60" height="60" rx="14.5732" fill="#563AFF"/>
<path d="M43.593 40.6814H16.4043C13.1863 40.6814 10.5781 38.0732 10.5781 34.8552V19.3188C10.5781 16.1008 13.1863 13.4927 16.4043 13.4927H43.593C46.8109 13.4927 49.4191 16.1008 49.4191 19.3188V34.8552C49.4191 38.0732 46.8109 40.6814 43.593 40.6814Z" fill="white"/>
<path opacity="0.35" d="M36.7965 40.6812C36.4547 40.6812 23.5439 40.6812 23.2021 40.6812C21.5941 40.6812 20.2891 41.9862 20.2891 43.5942C20.2891 45.2022 21.5941 46.5073 23.2021 46.5073C23.5439 46.5073 36.4547 46.5073 36.7965 46.5073C38.4045 46.5073 39.7096 45.2022 39.7096 43.5942C39.7096 41.9862 38.4045 40.6812 36.7965 40.6812Z" fill="white"/>
</svg>
