<svg width="54" height="54" viewBox="0 0 54 54" fill="none" xmlns="http://www.w3.org/2000/svg">
<rect width="54" height="54" rx="16" fill="#7D42FB"/>
<path d="M13.9224 28.3078C13.9224 27.5855 14.5079 27 15.2302 27H38.7702C39.4924 27 40.0779 27.5855 40.0779 28.3078V36.1544C40.0779 38.3212 38.3214 40.0778 36.1546 40.0778H17.8457C15.6789 40.0778 13.9224 38.3212 13.9224 36.1544V28.3078Z" fill="white"/>
<path opacity="0.5" d="M20.4613 13.9219C21.1835 13.9219 21.7691 14.5074 21.7691 15.2297V16.5374H32.2313V15.2297C32.2313 14.5074 32.8168 13.9219 33.539 13.9219C34.2613 13.9219 34.8468 14.5074 34.8468 15.2297V16.5374H36.1546C38.3214 16.5374 40.0779 18.294 40.0779 20.4608V23.0763C40.0779 23.7986 39.4924 24.3841 38.7702 24.3841H15.2302C14.5079 24.3841 13.9224 23.7986 13.9224 23.0763V20.4608C13.9224 18.294 15.6789 16.5374 17.8457 16.5374H19.1535V15.2297C19.1535 14.5074 19.739 13.9219 20.4613 13.9219Z" fill="white"/>
</svg>
