<svg width="216" height="216" viewBox="0 0 216 216" fill="none" xmlns="http://www.w3.org/2000/svg">
<circle opacity="0.1" cx="108" cy="108" r="108" fill="#FFCD42"/>
<path d="M104.729 47.4268C89.7101 47.4268 77.4219 59.7151 77.4219 74.734V85.6569H88.3448V74.734C88.3448 65.7227 95.7177 58.3497 104.729 58.3497C113.74 58.3497 121.113 65.7227 121.113 74.734V85.6569H132.036V74.734C132.036 59.7151 119.748 47.4268 104.729 47.4268Z" fill="#4A4566"/>
<path d="M137.499 156.656H71.9619C65.9544 156.656 61.0391 151.74 61.0391 145.733V96.5799C61.0391 90.5723 65.9544 85.657 71.9619 85.657H137.499C143.507 85.657 148.422 90.5723 148.422 96.5799V145.733C148.422 151.74 143.507 156.656 137.499 156.656Z" fill="#FFCD42"/>
<path d="M104.739 112.964C102.566 112.964 100.483 113.827 98.9463 115.364C97.41 116.9 96.5469 118.984 96.5469 121.156C96.5469 123.329 97.41 125.413 98.9463 126.949C100.483 128.485 102.566 129.349 104.739 129.349C106.912 129.349 108.995 128.485 110.532 126.949C112.068 125.413 112.931 123.329 112.931 121.156C112.931 118.984 112.068 116.9 110.532 115.364C108.995 113.827 106.912 112.964 104.739 112.964Z" fill="#FFFAED"/>
<path d="M141.903 123.271C156.577 123.271 168.478 135.171 168.478 149.845C168.478 164.52 156.577 176.42 141.903 176.42C127.228 176.42 115.328 164.52 115.328 149.845C115.328 135.171 127.228 123.271 141.903 123.271Z" fill="#FF4267"/>
<path d="M131.473 160.533C137.274 165.902 146.517 165.899 152.316 160.531C158.505 154.801 158.803 145.274 153.326 139.104L155.712 136.717C156.278 136.148 155.877 135.179 155.074 135.179H147.011C146.305 135.179 145.73 135.753 145.73 136.459V144.522C145.73 145.325 146.7 145.729 147.269 145.16L149.698 142.731C153.477 147.254 152.791 154.27 147.532 157.807C144.163 160.074 139.618 160.074 136.249 157.807C130.984 154.267 130.248 147.214 134.035 142.689C134.362 142.298 134.367 141.735 134.006 141.373L131.728 139.096C131.346 138.713 130.705 138.713 130.349 139.12C124.92 145.293 125.292 154.823 131.473 160.533Z" fill="white"/>
</svg>
