<svg width="78" height="78" viewBox="0 0 78 78" fill="none" xmlns="http://www.w3.org/2000/svg">
<rect width="78" height="78" rx="17.3521" fill="#FF4267"/>
<path opacity="0.35" d="M56.705 18.231L55.4044 19.5316C51.2849 15.545 45.6954 13.0627 39.5082 13.0627C29.8656 13.0627 21.6175 19.0233 18.2422 27.4614C17.0515 30.4382 19.3345 33.6715 22.5403 33.6715C24.3493 33.6715 26.0667 32.6388 26.7262 30.9557C28.7252 25.8448 33.6873 22.2222 39.5082 22.2222C43.1674 22.2222 46.4762 23.6694 48.9355 26.0028L46.9663 27.9697C45.7068 29.2292 46.5999 31.3816 48.3791 31.3816H56.8676C58.6629 31.3816 60.1169 29.9276 60.1169 28.1346V19.6438C60.1169 17.8646 57.9645 16.9738 56.705 18.231Z" fill="white"/>
<path d="M22.1455 40.5413H30.634C32.4132 40.5413 33.3062 42.6937 32.0468 43.9532L22.3103 53.6919C21.0509 54.9491 18.8984 54.0583 18.8984 52.2791V43.7906C18.8984 41.9953 20.3525 40.5413 22.1455 40.5413Z" fill="white"/>
<path d="M56.4764 38.2515C54.6674 38.2515 52.95 39.2842 52.2905 40.9672C50.2915 46.0782 45.3293 49.7008 39.5085 49.7008C34.4525 49.7008 30.0399 46.9667 27.6607 42.8953C26.8364 41.487 18.5585 45.9729 20.7568 49.1054C24.8992 55.0041 31.7527 58.8602 39.5085 58.8602C49.1511 58.8602 57.3992 52.8997 60.7744 44.4616C61.9652 41.4848 59.6822 38.2515 56.4764 38.2515Z" fill="white"/>
</svg>
