<svg width="388" height="110" viewBox="0 0 388 110" fill="none" xmlns="http://www.w3.org/2000/svg">
<g clip-path="url(#clip0_2976_38778)">
<rect width="388" height="110" fill="white"/>
<path d="M-29.748 -8.44409H417.247V118.441H-29.748V-8.44409Z" fill="#FFEBEF"/>
<mask id="mask0_2976_38778" style="mask-type:alpha" maskUnits="userSpaceOnUse" x="-22" y="-7" width="433" height="124">
<path d="M10.4258 -5.76562H378.072C395.469 -5.76562 409.572 8.33741 409.572 25.7344V115.765H-21.0742V25.7344C-21.0742 8.33743 -6.97119 -5.76562 10.4258 -5.76562Z" fill="#7D42FB" stroke="#FF4267"/>
</mask>
<g mask="url(#mask0_2976_38778)">
<path opacity="0.3" fill-rule="evenodd" clip-rule="evenodd" d="M274.709 277.02C258.913 298.609 225.179 303.429 197.254 313.158C171.271 322.215 145.975 331.346 118.101 331.6C85.2849 331.899 44.8658 335.887 24.8496 314.725C4.68838 293.412 27.7116 261.596 25.9243 234.157C24.3061 209.328 -1.58595 183.308 14.9053 162.12C31.5719 140.706 71.7408 149.319 99.7977 139.245C125.672 129.955 144.169 104.471 171.951 105.734C200.151 107.016 219.465 128.302 238.146 145.537C256.379 162.361 271.472 181.014 277.662 203.273C284.441 227.653 290.659 255.222 274.709 277.02Z" stroke="#FF4267"/>
<path opacity="0.3" fill-rule="evenodd" clip-rule="evenodd" d="M295.958 284.72C277.68 309.7 238.651 315.283 206.341 326.547C176.278 337.028 147.012 347.599 114.762 347.895C76.7956 348.243 30.0322 352.863 6.87844 328.38C-16.4432 303.72 10.1996 266.901 8.13576 235.151C6.26814 206.421 -23.6836 176.316 -4.59979 151.796C14.6864 127.016 61.1571 136.976 93.6202 125.317C123.556 114.564 144.961 85.0738 177.104 86.5326C209.729 88.0133 232.071 112.639 253.68 132.581C274.772 152.046 292.231 173.629 299.386 199.384C307.227 227.594 314.416 259.494 295.958 284.72Z" stroke="#FF4267"/>
<path opacity="0.3" fill-rule="evenodd" clip-rule="evenodd" d="M316.615 292.204C295.92 320.486 251.744 326.808 215.174 339.561C181.146 351.429 148.018 363.397 111.514 363.736C68.5404 364.134 15.6093 369.365 -10.5947 341.655C-36.9889 313.74 -6.82784 272.058 -9.16004 236.117C-11.27 203.593 -45.1671 169.517 -23.5646 141.758C-1.73141 113.705 50.8675 124.976 87.6124 111.775C121.498 99.6005 145.729 66.2148 182.111 67.8633C219.039 69.5369 244.324 97.4117 268.78 119.984C292.652 142.017 312.41 166.447 320.508 195.602C329.377 227.537 337.51 263.646 316.615 292.204Z" stroke="#FF4267"/>
<path opacity="0.3" fill-rule="evenodd" clip-rule="evenodd" d="M335.505 299.049C312.605 330.347 263.721 337.345 223.253 351.461C185.597 364.595 148.939 377.844 108.548 378.219C60.9965 378.663 2.42626 384.454 -26.5673 353.791C-55.7706 322.901 -22.3928 276.773 -24.9696 237C-27.3016 201.008 -64.8078 163.3 -40.9001 132.581C-16.7388 101.535 41.4624 114.005 82.1229 99.3932C119.619 85.9187 146.435 48.9716 186.692 50.7939C227.554 52.6435 255.53 83.489 282.59 108.467C309.002 132.848 330.863 159.882 339.823 192.146C349.632 227.484 358.628 267.445 335.505 299.049Z" stroke="#FF4267"/>
<path opacity="0.3" fill-rule="evenodd" clip-rule="evenodd" d="M355.571 306.32C330.327 340.824 276.443 348.54 231.834 364.104C190.325 378.587 149.918 393.19 105.393 393.606C52.9791 394.099 -11.5844 400.489 -43.541 366.684C-75.7292 332.636 -38.9336 281.783 -41.7708 237.939C-44.3388 198.263 -85.6784 156.698 -59.3227 122.831C-32.6874 88.6058 31.4674 102.35 76.2863 86.24C117.62 71.3831 147.181 30.6523 191.557 32.6588C236.598 34.6958 267.434 68.6982 297.259 96.2315C326.369 123.107 350.466 152.906 360.338 188.474C371.15 227.428 381.064 271.481 355.571 306.32Z" stroke="#FF4267"/>
<path opacity="0.3" fill-rule="evenodd" clip-rule="evenodd" d="M377.413 314.233C349.617 352.225 290.29 360.726 241.175 377.864C195.474 393.81 150.983 409.892 101.964 410.355C44.255 410.898 -26.8275 417.936 -62.0089 380.718C-97.4459 343.23 -56.9298 287.235 -60.0511 238.96C-62.8752 195.274 -108.387 149.508 -79.3672 112.219C-50.0393 74.5341 20.5917 89.6638 69.9402 71.9239C115.447 55.5648 147.997 10.716 196.854 12.9235C246.444 15.1641 280.391 52.6006 313.227 82.9158C345.277 112.506 371.803 145.317 382.67 184.477C394.57 227.368 405.482 275.873 377.413 314.233Z" stroke="#FF4267"/>
</g>
</g>
<defs>
<clipPath id="clip0_2976_38778">
<rect width="388" height="110" fill="white"/>
</clipPath>
</defs>
</svg>
