<svg width="16" height="16" viewBox="0 0 16 16" fill="none" xmlns="http://www.w3.org/2000/svg">
<path d="M8 10c1.105 0 2-.895 2-2s-.895-2-2-2-2 .895-2 2 .895 2 2 2z" fill="#143197"/>
<path d="M13.4 6.6c-.3-.3-.6-.5-1-.6l.1-.8c.1-.4-.1-.9-.5-1.1L10 2.2C9.6 2 9.1 2.1 8.9 2.5l-.5.7c-.3 0-.5 0-.8 0l-.5-.7c-.2-.4-.7-.5-1.1-.3L4 3.1c-.4.2-.6.7-.5 1.1l.1.8c-.4.1-.7.3-1 .6l-.8-.1c-.4-.1-.9.1-1.1.5L.2 8c-.2.4-.1.9.3 1.1l.7.5c0 .3 0 .5 0 .8l-.7.5c-.4.2-.5.7-.3 1.1l.9 2c.2.4.7.6 1.1.5l.8-.1c.3.3.6.5 1 .6l-.1.8c-.1.4.1.9.5 1.1l2 .9c.4.2.9.1 1.1-.3l.5-.7c.3 0 .5 0 .8 0l.5.7c.2.4.7.5 1.1.3l2-.9c.4-.2.6-.7.5-1.1l-.1-.8c.4-.1.7-.3 1-.6l.8.1c.4.1.9-.1 1.1-.5l.9-2c.2-.4.1-.9-.3-1.1l-.7-.5c0-.3 0-.5 0-.8l.7-.5c.4-.2.5-.7.3-1.1l-.9-2c-.2-.4-.7-.6-1.1-.5l-.8.1z" stroke="#143197" stroke-width="1" fill="none"/>
</svg>