<svg width="86" height="86" viewBox="0 0 86 86" fill="none" xmlns="http://www.w3.org/2000/svg">
<rect width="86" height="86" rx="16" fill="#7D42FB"/>
<g clip-path="url(#clip0_2987_40457)">
<path opacity="0.35" d="M55.7618 33.7454L63.7329 27.4176C65.8544 25.7351 66.2076 22.6472 64.5251 20.5257C62.8426 18.4041 59.7547 18.051 57.6332 19.7335L45.061 29.7132L35.7263 37.1251L34.5735 31.6655C33.774 27.8762 30.0533 25.453 26.264 26.2526C25.0009 26.5199 24.194 27.7585 24.4613 29.0216L27.9244 45.4224L28.567 45.2875C28.074 47.6297 28.5499 50.1584 30.1539 52.1794L41.3379 66.2698C43.2509 68.6782 46.7533 69.0805 49.1618 67.1699L61.9302 57.0356C64.7826 54.7718 65.5503 50.7593 63.7329 47.6028L55.7618 33.7454Z" fill="white"/>
<path d="M47.1891 66.6647C46.6152 65.9412 30.4278 45.5917 29.8515 44.8681C28.6178 43.3132 26.3565 43.0532 24.8015 44.2869C23.2465 45.5205 22.9865 47.7819 24.2202 49.3368C24.7941 50.0604 40.9815 70.4099 41.5579 71.1334C42.7916 72.6884 45.0529 72.9484 46.6079 71.7147C48.1653 70.481 48.4253 68.2197 47.1891 66.6647Z" fill="white"/>
<path d="M45.5157 23.442C44.8879 23.442 44.26 23.2017 43.7817 22.7234C42.8228 21.7644 42.8228 20.2143 43.7817 19.2554L46.2344 16.8027C47.1933 15.8438 48.7434 15.8438 49.7024 16.8027C50.6614 17.7617 50.6614 19.3118 49.7024 20.2708L47.2498 22.7234C46.7715 23.2017 46.1436 23.442 45.5157 23.442Z" fill="white"/>
<path d="M35.7026 23.4419C34.3463 23.4419 33.25 22.3456 33.25 20.9893V16.084C33.25 14.7277 34.3463 13.6313 35.7026 13.6313C37.0589 13.6313 38.1553 14.7277 38.1553 16.084V20.9893C38.1553 22.3456 37.0589 23.4419 35.7026 23.4419Z" fill="white"/>
</g>
<defs>
<clipPath id="clip0_2987_40457">
<rect width="58.8632" height="58.8632" fill="white" transform="translate(13.6328 13.6313)"/>
</clipPath>
</defs>
</svg>
