<svg width="694" height="1652" viewBox="0 0 694 1652" fill="none" xmlns="http://www.w3.org/2000/svg">
<mask id="mask0_2992_42519" style="mask-type:alpha" maskUnits="userSpaceOnUse" x="0" y="0" width="694" height="1652">
<rect width="694" height="1652" fill="#F7F7FC"/>
</mask>
<g mask="url(#mask0_2992_42519)">
<path opacity="0.3" fill-rule="evenodd" clip-rule="evenodd" d="M19.5651 957.26C2.41777 951.283 -7.81681 929.645 -19.9559 912.968C-31.2535 897.45 -42.4536 882.41 -48.5254 863.73C-55.6733 841.737 -66.7912 815.427 -57.5101 797.425C-48.1625 779.291 -22.9425 787.93 -5.78801 780.825C9.73926 774.401 20.8811 751.405 37.9201 757.935C55.1414 764.535 58.1528 793.385 70.5401 810.078C81.9642 825.472 102.177 832.425 107.257 851.373C112.416 870.603 102.908 888.159 95.8508 904.419C88.9628 920.291 80.2401 934.444 67.3254 943.39C53.1826 953.19 36.8798 963.296 19.5651 957.26Z" stroke="white"/>
<path opacity="0.3" fill-rule="evenodd" clip-rule="evenodd" d="M17.9753 1019.2C-9.72597 1009.54 -26.2643 974.7 -45.8838 947.834C-64.1396 922.836 -82.2372 898.61 -92.0542 868.528C-103.612 833.116 -121.584 790.745 -106.602 761.784C-91.5113 732.614 -50.7733 746.557 -23.0618 735.159C2.01551 724.844 19.9995 687.847 47.5266 698.387C75.3459 709.041 80.2227 755.485 100.242 782.375C118.702 807.175 151.35 818.404 159.57 848.908C167.913 879.871 152.563 908.116 141.174 934.277C130.057 959.813 115.975 982.581 95.122 996.955C72.2742 1012.7 45.9465 1028.94 17.9753 1019.2Z" stroke="white"/>
<path opacity="0.3" fill-rule="evenodd" clip-rule="evenodd" d="M16.4391 1079.2C-21.4821 1065.99 -44.1329 1018.35 -70.9943 981.609C-95.9963 947.428 -120.779 914.302 -134.22 873.175C-150.05 824.761 -174.662 766.833 -154.157 727.256C-133.504 687.39 -77.7311 706.477 -39.7965 690.913C-5.46794 676.829 19.1446 626.268 56.8302 640.694C94.9166 655.273 101.605 718.761 129.014 755.532C154.291 789.445 198.988 804.812 210.246 846.514C221.673 888.843 200.665 927.442 185.079 963.197C169.865 998.096 150.591 1029.21 122.043 1048.85C90.773 1070.36 54.7331 1092.54 16.4391 1079.2Z" stroke="white"/>
<path opacity="0.3" fill-rule="evenodd" clip-rule="evenodd" d="M15.0465 1133.39C-32.1098 1116.97 -60.2794 1057.77 -93.6832 1012.12C-124.764 969.641 -155.584 928.479 -172.312 877.376C-191.994 817.216 -222.607 745.237 -197.111 696.068C-171.435 646.544 -102.082 670.275 -54.9142 650.95C-12.2298 633.462 18.37 570.649 65.2306 588.581C112.59 606.706 120.914 685.59 154.999 731.284C186.43 773.423 242.011 792.533 256.014 844.349C270.233 896.947 244.111 944.898 224.734 989.321C205.821 1032.68 181.857 1071.33 146.36 1095.72C107.478 1122.43 62.6662 1149.97 15.0465 1133.39Z" stroke="white"/>
<path opacity="0.3" fill-rule="evenodd" clip-rule="evenodd" d="M13.7576 1183.72C-41.9653 1164.3 -75.2587 1094.37 -114.744 1040.45C-151.489 990.267 -187.904 941.631 -207.676 881.273C-230.944 810.208 -267.121 725.183 -236.993 667.108C-206.656 608.617 -124.69 636.663 -68.9486 613.842C-18.5055 593.193 17.6538 519.004 73.0355 540.197C129.007 561.609 138.848 654.794 179.134 708.774C216.278 758.555 281.968 781.137 298.521 842.345C315.322 904.473 284.456 961.108 261.559 1013.57C239.209 1064.78 210.892 1110.43 168.943 1139.24C122.993 1170.78 70.0351 1203.31 13.7576 1183.72Z" stroke="white"/>
<path opacity="0.3" fill-rule="evenodd" clip-rule="evenodd" d="M12.416 1235.98C-52.2169 1213.47 -90.8237 1132.39 -136.625 1069.87C-179.233 1011.69 -221.472 955.299 -244.397 885.319C-271.386 802.934 -313.356 704.359 -278.421 637.038C-243.231 569.23 -148.173 601.752 -83.5268 575.306C-25.0262 551.374 16.9067 465.372 81.1364 489.949C146.05 514.787 157.467 622.811 204.189 685.396C247.275 743.111 323.456 769.305 342.657 840.262C362.142 912.29 326.348 977.941 299.794 1038.76C273.873 1098.12 241.037 1151.04 192.387 1184.43C139.102 1221 77.6858 1258.7 12.416 1235.98Z" stroke="white"/>
<path opacity="0.3" fill-rule="evenodd" clip-rule="evenodd" d="M10.7847 1299.85C-64.7344 1273.55 -109.852 1178.85 -163.351 1105.82C-213.139 1037.86 -262.494 972.003 -289.285 890.268C-320.824 794.043 -369.855 678.904 -329.036 600.28C-287.928 521.089 -176.87 559.085 -101.34 528.207C-32.9913 500.262 15.9981 399.823 91.0425 428.534C166.884 457.551 180.227 583.72 234.818 656.822C285.16 724.236 374.167 754.834 396.601 837.715C419.374 921.841 377.551 998.517 346.533 1069.54C316.253 1138.87 277.888 1200.68 221.049 1239.67C158.794 1282.37 87.0394 1326.4 10.7847 1299.85Z" stroke="white"/>
<path opacity="0.3" fill-rule="evenodd" clip-rule="evenodd" d="M8.9996 1369.52C-78.3852 1339.1 -130.604 1229.54 -192.521 1145.04C-250.133 1066.42 -307.254 990.227 -338.257 895.666C-374.751 784.341 -431.496 651.136 -384.267 560.184C-336.699 468.575 -208.178 512.542 -120.776 476.825C-41.6854 444.505 15.0021 328.312 101.845 361.536C189.609 395.113 205.055 541.072 268.229 625.65C326.486 703.644 429.485 739.05 455.449 834.937C481.802 932.263 433.414 1020.96 397.518 1103.13C362.48 1183.33 318.086 1254.83 252.311 1299.92C180.274 1349.32 97.2433 1400.25 8.9996 1369.52Z" stroke="white"/>
<path opacity="0.3" fill-rule="evenodd" clip-rule="evenodd" d="M7.26419 1437.27C-91.671 1402.82 -150.784 1278.81 -220.875 1183.18C-286.1 1094.19 -350.765 1007.95 -385.866 900.914C-427.186 774.91 -491.418 624.138 -437.963 521.203C-384.111 417.517 -238.616 467.291 -139.673 426.871C-50.1359 390.296 14.0361 258.792 112.347 296.399C211.703 334.409 229.193 499.614 300.711 595.344C366.664 683.624 483.267 723.706 512.662 832.235C542.498 942.393 487.721 1042.78 447.088 1135.78C407.425 1226.55 357.169 1307.47 282.711 1358.51C201.155 1414.41 107.163 1472.05 7.26419 1437.27Z" stroke="white"/>
<path opacity="0.3" fill-rule="evenodd" clip-rule="evenodd" d="M5.67196 1499.21C-103.812 1461.09 -169.231 1323.87 -246.804 1218.04C-318.986 1119.57 -390.553 1024.14 -429.392 905.712C-475.124 766.289 -546.209 599.457 -487.054 485.561C-427.459 370.836 -266.447 425.918 -156.949 381.2C-57.8618 340.734 13.1511 195.226 121.95 236.846C231.904 278.908 251.262 461.708 330.41 567.636C403.399 665.321 532.44 709.676 564.972 829.765C597.992 951.657 537.374 1062.73 492.405 1165.63C448.513 1266.07 392.899 1355.6 310.502 1412.08C220.249 1473.92 116.226 1537.69 5.67196 1499.21Z" stroke="white"/>
<path opacity="0.3" fill-rule="evenodd" clip-rule="evenodd" d="M3.98811 1565.01C-116.709 1522.99 -188.826 1371.74 -274.348 1255.09C-353.928 1146.55 -432.814 1041.36 -475.637 910.807C-526.055 757.132 -604.429 573.233 -539.206 447.689C-473.518 321.239 -296.013 381.958 -175.306 332.674C-66.074 288.073 12.2063 127.69 132.151 173.571C253.366 219.939 274.709 421.436 361.962 538.194C442.43 645.873 584.686 694.771 620.551 827.141C656.954 961.498 590.128 1083.93 540.559 1197.35C492.17 1308.05 430.867 1406.74 340.027 1468.98C240.535 1537.15 125.861 1607.44 3.98811 1565.01Z" stroke="white"/>
<path opacity="0.3" fill-rule="evenodd" clip-rule="evenodd" d="M2.1556 1636.63C-130.742 1590.36 -210.158 1423.83 -304.323 1295.4C-391.943 1175.9 -478.812 1060.08 -525.969 916.358C-581.481 747.158 -667.777 544.694 -595.969 406.48C-523.639 267.262 -328.189 334.123 -195.278 279.865C-75.002 230.766 11.1959 54.1911 143.259 104.711C276.728 155.766 300.23 377.602 396.307 506.158C484.906 624.707 641.545 678.549 681.036 824.285C721.121 972.208 647.543 1107 592.962 1231.87C539.685 1353.75 472.181 1462.39 372.164 1530.92C262.614 1605.97 136.346 1683.35 2.1556 1636.63Z" stroke="white"/>
</g>
</svg>
