<svg width="68" height="68" viewBox="0 0 68 68" fill="none" xmlns="http://www.w3.org/2000/svg">
<path d="M0 16C0 7.16344 7.16344 0 16 0H52C60.8366 0 68 7.16344 68 16V52C68 60.8366 60.8366 68 52 68H16C7.16344 68 0 60.8366 0 52V16Z" fill="#F7DF03"/>
<path d="M52.0309 44.0286C46.7551 43.1601 44.3923 37.7701 44.2948 37.5401L44.2837 37.5199C44.1338 37.2748 44.0393 36.9999 44.0068 36.7144C43.9744 36.429 44.0049 36.1398 44.096 35.8674C44.4493 35.0319 45.6234 34.6602 46.3981 34.4136C46.5932 34.3529 46.7753 34.294 46.9189 34.237C48.3229 33.6849 48.6082 33.1089 48.6008 32.7243C48.564 32.4853 48.4568 32.2625 48.293 32.0846C48.1291 31.9066 47.916 31.7815 47.6807 31.7251L47.6678 31.7214C47.4597 31.6373 47.2372 31.5941 47.0127 31.5945C46.8147 31.5916 46.6183 31.6311 46.4368 31.7104C45.8888 31.9874 45.2916 32.1537 44.6794 32.1999C44.326 32.2082 43.9808 32.0923 43.7041 31.8723L43.763 30.897L43.7703 30.7774C44.1248 28.2979 43.9746 25.7723 43.3287 23.3522C42.5667 21.6145 41.3096 20.1398 39.7145 19.1121C38.1194 18.0845 36.2569 17.5495 34.3596 17.574L33.6198 17.5832C31.7258 17.56 29.8669 18.0951 28.2751 19.1217C26.6834 20.1483 25.4292 21.621 24.6691 23.3559C24.0223 25.7733 23.8709 28.2964 24.2238 30.7737C24.2483 31.1406 24.2704 31.5074 24.29 31.8742C23.9849 32.113 23.6018 32.2298 23.2154 32.2017C22.5651 32.1738 21.9286 32.0056 21.3494 31.7086C21.2076 31.6458 21.0536 31.615 20.8986 31.6184C20.5789 31.6061 20.2634 31.6941 19.9961 31.8699C19.7289 32.0458 19.5232 32.3008 19.408 32.5992C19.2571 33.3905 20.387 33.9665 21.0752 34.237C21.2224 34.2959 21.4028 34.3529 21.596 34.4136C22.3726 34.6602 23.5466 35.0319 23.8999 35.8674C23.9908 36.1399 24.0212 36.429 23.9887 36.7144C23.9563 36.9998 23.8619 37.2747 23.7122 37.5199L23.7012 37.5401C23.1929 38.6478 22.5307 39.6781 21.734 40.6004C20.2867 42.3998 18.2391 43.617 15.9669 44.0286C15.8597 44.0466 15.7628 44.1034 15.6949 44.1883C15.627 44.2732 15.5928 44.3802 15.5988 44.4887C15.603 44.5711 15.6217 44.6521 15.654 44.7279C15.9797 45.4842 17.6028 46.1081 20.352 46.5331C20.6097 46.5736 20.7164 46.9932 20.8673 47.6777C20.9262 47.9538 20.9887 48.239 21.0752 48.5334C21.104 48.6639 21.1801 48.779 21.2889 48.8565C21.3977 48.9341 21.5314 48.9684 21.6641 48.953C21.9269 48.9387 22.1879 48.9018 22.4443 48.8426C23.1216 48.6947 23.8122 48.6164 24.5054 48.6089C25.0042 48.6098 25.5021 48.6516 25.9941 48.734C27.032 48.9969 27.9974 49.49 28.8188 50.1767C30.2052 51.3606 31.9475 52.0472 33.7689 52.1273C33.8296 52.1273 33.8922 52.1255 33.9529 52.12C34.0265 52.1236 34.1277 52.1273 34.2308 52.1273C36.0533 52.0473 37.7968 51.3608 39.1846 50.1767C40.0047 49.4902 40.9689 48.9971 42.0056 48.734C42.497 48.6519 42.9942 48.61 43.4924 48.6089C44.1851 48.6123 44.8756 48.6857 45.5535 48.8279C45.8107 48.8837 46.0725 48.9163 46.3355 48.9254H46.3797C46.5039 48.9353 46.6275 48.8996 46.7273 48.8252C46.8272 48.7507 46.8966 48.6424 46.9226 48.5205C47.0028 48.2398 47.0728 47.9562 47.1323 47.6704C47.2814 46.9877 47.39 46.5699 47.6476 46.5295C50.3968 46.1062 52.0217 45.4805 52.3419 44.7298C52.3754 44.6541 52.3953 44.5731 52.4008 44.4905C52.4068 44.382 52.3726 44.275 52.3047 44.1902C52.2368 44.1053 52.14 44.0484 52.0328 44.0305L52.0309 44.0286Z" fill="white"/>
<path fill-rule="evenodd" clip-rule="evenodd" d="M53.8089 41.5633C54.1253 41.7648 54.4091 42.0183 54.6473 42.3161C55.1765 42.9776 55.4431 43.8109 55.3962 44.6567L55.3953 44.6734L55.3942 44.6902C55.3658 45.1158 55.2642 45.5333 55.0939 45.9242C54.7182 46.7931 54.0913 47.3627 53.5983 47.7132C53.0847 48.0783 52.5176 48.3471 51.9806 48.5532C51.3526 48.7943 50.6369 48.9978 49.8557 49.1707C49.8453 49.2091 49.8346 49.2474 49.8239 49.2857C49.6249 50.0622 49.1658 50.749 48.5208 51.23C47.8834 51.7054 47.1052 51.9494 46.3138 51.9254H46.284L46.2324 51.9236C45.7942 51.9085 45.3583 51.8546 44.9297 51.7623C44.4549 51.6633 43.9714 51.6119 43.4864 51.6089C43.199 51.6102 42.9121 51.6316 42.6278 51.673C42.0751 51.8305 41.561 52.1019 41.1187 52.4701C39.2244 54.0813 36.8471 55.0154 34.3623 55.1244L34.2966 55.1273H34.2308C34.1414 55.1273 34.0562 55.1257 33.98 55.1234C33.9002 55.1264 33.8289 55.1273 33.7689 55.1273H33.7029L33.6371 55.1244C31.1537 55.0152 28.7778 54.0812 26.885 52.4704C26.4416 52.1019 25.9262 51.8304 25.3723 51.673C25.0896 51.6317 24.8043 51.6103 24.5186 51.6089C24.0409 51.6154 23.565 51.6695 23.098 51.7705C22.7002 51.8612 22.2958 51.9195 21.8886 51.945C21.0581 52.0125 20.2288 51.7848 19.5481 51.2998C18.8722 50.8182 18.3883 50.1154 18.1785 49.3155C18.1646 49.2673 18.1514 49.2196 18.1386 49.1724C17.3594 48.9995 16.6452 48.7961 16.0181 48.5551C15.4806 48.3485 14.9132 48.0792 14.3992 47.7134C13.901 47.3587 13.2739 46.7858 12.8987 45.9145L12.8947 45.9052L12.8947 45.9052C12.7244 45.506 12.6256 45.08 12.603 44.6466C12.5582 43.8037 12.8249 42.9735 13.3523 42.3142C13.8751 41.6608 14.6177 41.2205 15.4411 41.075C16.9994 40.7905 18.4034 39.9546 19.3963 38.7201L19.4293 38.6792L19.4637 38.6394C19.8484 38.194 20.1923 37.7158 20.4916 37.2107C20.3377 37.161 20.1496 37.0974 19.9706 37.0262C19.5287 36.8522 18.7562 36.5127 18.0652 35.9658C17.4848 35.5064 16.0575 34.154 16.4611 32.0372L16.5118 31.7713L16.6094 31.5187C16.9498 30.6368 17.5574 29.8834 18.347 29.3638C19.1133 28.8596 20.0138 28.6 20.9296 28.6182C20.9675 28.6182 21.0054 28.6188 21.0432 28.62C20.9994 26.5869 21.2432 24.5534 21.7711 22.5805L21.8299 22.3606L21.9212 22.1521C22.9177 19.8774 24.5621 17.9465 26.6492 16.6005C28.7251 15.2617 31.1475 14.5605 33.6171 14.5831L34.3208 14.5743C34.321 14.5743 34.3211 14.5743 34.3213 14.5743C34.3216 14.5743 34.3219 14.5743 34.3223 14.5743C36.8085 14.5424 39.249 15.2436 41.3392 16.5902C43.4299 17.937 45.0774 19.8699 46.0761 22.1475L46.1681 22.3573L46.2272 22.5786C46.7518 24.544 46.9949 26.5694 46.9528 28.5945C46.979 28.5943 47.0052 28.5943 47.0314 28.5945C47.5639 28.5963 48.0918 28.6878 48.5931 28.8648C49.323 29.0806 49.9824 29.4905 50.4999 30.0525C51.0673 30.6686 51.4384 31.4398 51.5659 32.2677L51.5964 32.4662L51.6003 32.6669C51.6452 35.0154 49.7472 36.3475 48.0212 37.0271C47.8475 37.0959 47.6653 37.1581 47.5072 37.2093C47.7447 37.6032 48.077 38.0965 48.5066 38.6017C49.5023 39.7729 50.8283 40.7903 52.5183 41.0685L53.4717 41.2254L53.8089 41.5633ZM47.565 33.9422C48.4149 33.4866 48.6069 33.0407 48.6008 32.7243C48.564 32.4853 48.4568 32.2625 48.293 32.0846C48.1291 31.9066 47.916 31.7815 47.6807 31.7251L47.6678 31.7214C47.4597 31.6373 47.2372 31.5941 47.0127 31.5945C46.9158 31.5931 46.8193 31.6018 46.7247 31.6204C46.626 31.6398 46.5295 31.6699 46.4368 31.7104C46.2947 31.7822 46.1494 31.8466 46.0013 31.9033C45.9985 31.9044 45.9956 31.9055 45.9927 31.9066C45.9089 31.9386 45.8241 31.9681 45.7386 31.9952C45.735 31.9963 45.7314 31.9975 45.7278 31.9986C45.703 32.0064 45.6782 32.0139 45.6533 32.0213C45.6482 32.0228 45.6432 32.0243 45.6381 32.0258C45.3262 32.1168 45.0049 32.1753 44.6794 32.1999C44.4662 32.2049 44.256 32.1647 44.0621 32.0837C43.9345 32.0305 43.8139 31.9596 43.7041 31.8723L43.763 30.897L43.7703 30.7774C44.1248 28.2979 43.9746 25.7723 43.3287 23.3522C42.5667 21.6145 41.3096 20.1398 39.7145 19.1121C38.1194 18.0845 36.2569 17.5495 34.3596 17.574L33.6198 17.5832C31.7258 17.56 29.8669 18.0951 28.2751 19.1217C26.6834 20.1483 25.4292 21.621 24.6691 23.3559C24.0224 25.7733 23.8709 28.2964 24.2238 30.7737C24.2483 31.1406 24.2704 31.5074 24.2901 31.8742C24.1801 31.9602 24.0601 32.0304 23.9334 32.0837C23.7085 32.1783 23.4626 32.2197 23.2154 32.2017C22.9187 32.189 22.6248 32.147 22.338 32.077C22.3356 32.0764 22.3333 32.0758 22.3309 32.0752C22.317 32.0718 22.303 32.0683 22.2891 32.0647C22.2066 32.0436 22.1248 32.0201 22.0436 31.9944C22.0225 31.9877 22.0015 31.9808 21.9805 31.9738C21.9759 31.9723 21.9712 31.9707 21.9666 31.9692C21.7553 31.8979 21.5489 31.8109 21.3494 31.7086C21.3248 31.6977 21.2998 31.6877 21.2745 31.6788C21.1541 31.6362 21.0267 31.6156 20.8986 31.6184C20.5789 31.6061 20.2634 31.6941 19.9961 31.8699C19.7289 32.0458 19.5233 32.3008 19.408 32.5992C19.3104 33.111 19.7486 33.5327 20.2565 33.8399C20.296 33.8638 20.3359 33.887 20.376 33.9095C20.5189 33.9896 20.6644 34.0608 20.8025 34.1226C20.8542 34.1457 20.905 34.1675 20.9541 34.188C20.9957 34.2053 21.0362 34.2216 21.0752 34.237C21.2206 34.2951 21.3983 34.3515 21.5887 34.4114C21.5912 34.4121 21.5936 34.4129 21.596 34.4136L21.5995 34.4147C22.0196 34.5481 22.555 34.7182 23.014 34.9782C23.041 34.9935 23.0677 35.0091 23.0941 35.025C23.1871 35.0811 23.2764 35.1412 23.3603 35.2057C23.5962 35.3874 23.7887 35.6044 23.8999 35.8674C23.9908 36.1399 24.0212 36.429 23.9887 36.7144C23.9563 36.9998 23.8619 37.2747 23.7122 37.5199L23.7012 37.5401C23.1929 38.6478 22.5307 39.6781 21.734 40.6004C20.8875 41.6528 19.8357 42.5061 18.6536 43.1155C18.5319 43.1782 18.4089 43.2384 18.2846 43.2959C17.5515 43.6349 16.7733 43.8825 15.9669 44.0286C15.8597 44.0466 15.7628 44.1034 15.6949 44.1883C15.627 44.2732 15.5928 44.3802 15.5988 44.4887C15.603 44.5711 15.6217 44.6521 15.654 44.7279C15.7399 44.9274 15.9161 45.1176 16.1793 45.2974C16.1859 45.3019 16.1925 45.3064 16.1992 45.3109C16.6092 45.5856 17.2235 45.8358 18.0308 46.057C18.0338 46.0579 18.0368 46.0587 18.0399 46.0595C18.3185 46.1357 18.6201 46.2084 18.9442 46.2775C19.3743 46.3692 19.8439 46.4546 20.352 46.5331C20.6097 46.5736 20.7164 46.9932 20.8673 47.6777C20.9262 47.9538 20.9887 48.239 21.0752 48.5334C21.104 48.6639 21.1801 48.779 21.2889 48.8565C21.3977 48.9341 21.5314 48.9684 21.6641 48.953C21.9269 48.9387 22.1879 48.9018 22.4443 48.8426C23.1216 48.6947 23.8122 48.6164 24.5054 48.6089C25.0042 48.6098 25.5021 48.6516 25.9941 48.734C27.032 48.9969 27.9974 49.49 28.8188 50.1767C30.2052 51.3606 31.9475 52.0472 33.7689 52.1273C33.8296 52.1273 33.8922 52.1255 33.9529 52.12C34.0265 52.1236 34.1277 52.1273 34.2308 52.1273C36.0533 52.0473 37.7968 51.3608 39.1846 50.1767C40.0047 49.4902 40.9689 48.9971 42.0056 48.734C42.497 48.6519 42.9942 48.61 43.4925 48.6089C44.1851 48.6123 44.8756 48.6857 45.5535 48.8279C45.8107 48.8837 46.0725 48.9163 46.3355 48.9254H46.3797C46.5039 48.9353 46.6275 48.8996 46.7273 48.8252C46.8272 48.7507 46.8966 48.6424 46.9226 48.5205C47.0028 48.2398 47.0728 47.9562 47.1323 47.6704C47.2814 46.9877 47.39 46.5699 47.6476 46.5295C48.1466 46.4526 48.6086 46.3691 49.0325 46.2794C49.3641 46.2092 49.6724 46.1353 49.9569 46.0577C49.9637 46.0558 49.9705 46.054 49.9773 46.0521C49.9894 46.0488 50.0016 46.0454 50.0136 46.0421C50.0154 46.0416 50.0171 46.0411 50.0188 46.0407C50.8156 45.8192 51.4203 45.5691 51.821 45.2953C51.8215 45.295 51.8221 45.2946 51.8226 45.2943C52.0836 45.1157 52.2578 44.927 52.3419 44.7298C52.3754 44.6541 52.3953 44.5731 52.4008 44.4905C52.4068 44.382 52.3726 44.275 52.3047 44.1902C52.2368 44.1053 52.14 44.0484 52.0328 44.0305L52.0309 44.0286C51.1831 43.8891 50.4105 43.6327 49.7104 43.2998C49.5853 43.2403 49.4625 43.1783 49.342 43.1142C45.9413 41.3033 44.3738 37.7266 44.2948 37.5401L44.2837 37.5199C44.1338 37.2748 44.0393 36.9999 44.0068 36.7144C43.9744 36.429 44.0049 36.1398 44.096 35.8674C44.2084 35.6018 44.4036 35.383 44.6427 35.2003C44.6769 35.1741 44.712 35.1487 44.7479 35.124C44.7949 35.0916 44.8433 35.0604 44.8927 35.0304C45.369 34.7412 45.9457 34.5576 46.3918 34.4156L46.3981 34.4136C46.4078 34.4106 46.4175 34.4076 46.4271 34.4046C46.4883 34.3855 46.5482 34.3665 46.6057 34.3477C46.7213 34.3101 46.8279 34.2732 46.9189 34.237C46.9303 34.2325 46.9417 34.228 46.953 34.2235C46.9583 34.2214 46.9635 34.2193 46.9688 34.2172C46.9708 34.2163 46.9729 34.2155 46.9749 34.2147C46.9889 34.2091 47.0027 34.2035 47.0164 34.1979C47.0434 34.1868 47.0699 34.1758 47.0961 34.1647C47.22 34.1122 47.3343 34.0596 47.4395 34.0071C47.4829 33.9854 47.5247 33.9638 47.565 33.9422ZM21.549 37.5966C21.5502 37.5973 21.5508 37.5977 21.5508 37.5977C21.5507 37.5977 21.5502 37.5973 21.549 37.5966Z" fill="#211F54"/>
</svg>
