<svg width="388" height="110" viewBox="0 0 388 110" fill="none" xmlns="http://www.w3.org/2000/svg">
<g clip-path="url(#clip0_2942_28904)">
<rect width="388" height="110" fill="white"/>
<path opacity="0.1" d="M0 -0.174805H388V110.174H0V-0.174805Z" fill="#FF4267"/>
<mask id="mask0_2942_28904" style="mask-type:alpha" maskUnits="userSpaceOnUse" x="0" y="-1" width="388" height="112">
<path d="M0 -0.174805H388V110.174H0V-0.174805Z" fill="#7D42FB"/>
</mask>
<g mask="url(#mask0_2942_28904)">
<path opacity="0.3" fill-rule="evenodd" clip-rule="evenodd" d="M177.754 -121.518C182.493 -109.394 175.532 -93.7737 172.145 -79.4148C168.995 -66.0525 166.059 -52.9664 158.762 -40.988C150.173 -26.885 141.092 -8.61394 127.022 -5.32297C112.85 -2.00804 105.796 -19.7681 93.9677 -25.8315C83.2636 -31.3187 65.6225 -26.7247 61.233 -39.0474C56.797 -51.5013 71.025 -66.5296 74.3054 -81.0305C77.331 -94.404 71.6957 -108.652 79.5946 -120.214C87.6123 -131.95 101.547 -134.911 113.639 -138.608C125.441 -142.216 137.167 -144.026 148.021 -141.133C159.909 -137.964 172.968 -133.762 177.754 -121.518Z" stroke="#FF4267"/>
<path opacity="0.3" fill-rule="evenodd" clip-rule="evenodd" d="M191.396 -132.597C197.289 -117.521 188.645 -98.1054 184.441 -80.2562C180.529 -63.6482 176.886 -47.3815 167.824 -32.4905C157.154 -14.9633 145.877 7.74723 128.393 11.8305C110.783 15.9439 102.011 -6.14009 87.31 -13.685C74.0063 -20.5129 52.0856 -14.8114 46.6259 -30.1329C41.1088 -45.618 58.7843 -64.2941 62.8557 -82.3203C66.6102 -98.9433 59.6032 -116.661 69.4145 -131.031C79.3733 -145.619 96.6896 -149.291 111.715 -153.881C126.381 -158.36 140.951 -160.604 154.44 -157.001C169.214 -153.054 185.444 -147.822 191.396 -132.597Z" stroke="#FF4267"/>
<path opacity="0.3" fill-rule="evenodd" clip-rule="evenodd" d="M204.063 -142.885C211.026 -125.069 200.819 -102.13 195.858 -81.0383C191.243 -61.4118 186.938 -42.1921 176.238 -24.6008C163.638 -3.8918 150.32 22.9389 129.666 27.7581C108.865 32.6135 98.4978 6.51341 81.1287 -2.40661C65.411 -10.4792 39.5166 -3.74954 33.0642 -21.8572C26.5418 -40.1564 47.42 -62.2201 52.2253 -83.5199C56.658 -103.161 48.3753 -124.1 59.9629 -141.078C71.7248 -158.31 92.1796 -162.644 109.929 -168.062C127.252 -173.35 144.465 -175.997 160.401 -171.735C177.855 -167.065 197.029 -160.877 204.063 -142.885Z" stroke="#FF4267"/>
<path opacity="0.3" fill-rule="evenodd" clip-rule="evenodd" d="M217.217 -153.57C225.296 -132.907 213.461 -106.308 207.715 -81.8499C202.364 -59.0931 197.378 -36.805 184.973 -16.4093C170.369 7.60219 154.935 38.7157 130.99 44.2994C106.871 49.923 94.8472 19.6549 74.7084 9.30559C56.4841 -0.0598435 26.4629 7.73774 18.9793 -13.2626C11.416 -34.4864 35.617 -60.0659 41.1852 -84.7645C46.3204 -107.541 36.7159 -131.826 50.1467 -151.51C63.7812 -171.49 87.496 -176.511 108.073 -182.788C128.158 -188.915 148.113 -191.981 166.59 -187.035C186.827 -181.617 209.058 -174.436 217.217 -153.57Z" stroke="#FF4267"/>
<path opacity="0.3" fill-rule="evenodd" clip-rule="evenodd" d="M233.294 -166.63C242.735 -142.487 228.917 -111.415 222.204 -82.8444C215.959 -56.2586 210.139 -30.2212 195.654 -6.396C178.6 21.653 160.574 57.9967 132.605 64.5134C104.435 71.0786 90.3871 35.7158 66.8626 23.6198C45.5743 12.6745 10.51 21.7766 1.76539 -2.75883C-7.07194 -27.5549 21.1927 -57.4331 27.6926 -86.2865C33.6872 -112.895 22.4646 -141.267 38.1508 -164.261C54.0723 -187.601 81.773 -193.459 105.805 -200.789C129.264 -207.943 152.572 -211.519 174.155 -205.736C197.794 -199.402 223.762 -191.008 233.294 -166.63Z" stroke="#FF4267"/>
<path opacity="0.3" fill-rule="evenodd" clip-rule="evenodd" d="M250.832 -180.875C261.755 -152.938 245.775 -116.985 238.013 -83.9259C230.79 -53.1651 224.061 -23.0368 207.304 4.52913C187.575 36.9811 166.725 79.0324 134.369 86.5686C101.779 94.1601 85.521 53.2372 58.3027 39.237C33.6726 26.5681 -6.89442 37.0942 -17.0141 8.70162C-27.2412 -19.9922 5.45469 -54.5593 12.9726 -87.9456C19.9049 -118.733 6.91749 -151.565 25.0633 -178.17C43.4814 -205.173 75.5271 -211.949 103.331 -220.425C130.471 -228.698 157.438 -232.832 182.407 -226.135C209.758 -218.803 239.801 -209.085 250.832 -180.875Z" stroke="#FF4267"/>
<path opacity="0.3" fill-rule="evenodd" clip-rule="evenodd" d="M267.883 -194.726C280.25 -163.097 262.164 -122.4 253.381 -84.9801C245.21 -50.1594 237.596 -16.0549 218.63 15.149C196.303 51.8831 172.704 99.4813 136.084 108.01C99.1949 116.598 80.79 70.271 49.9808 54.4191C22.1009 40.0739 -23.8148 51.9835 -35.2721 19.8425C-46.8503 -12.641 -9.84471 -51.7679 -1.33867 -89.5597C6.50537 -124.411 -8.1975 -161.579 12.339 -191.693C33.184 -222.259 69.4555 -229.925 100.925 -239.517C131.643 -248.879 162.166 -253.554 190.43 -245.972C221.389 -237.666 255.395 -226.662 267.883 -194.726Z" stroke="#FF4267"/>
<path opacity="0.3" fill-rule="evenodd" clip-rule="evenodd" d="M283.475 -207.388C297.162 -172.388 277.151 -127.354 267.434 -85.9424C258.393 -47.4092 249.971 -9.66847 228.986 24.8584C204.284 65.5077 178.173 118.178 137.652 127.613C96.8333 137.113 76.4655 85.8454 42.3728 68.2996C11.5218 52.4222 -39.2851 65.5985 -51.9641 30.0282C-64.778 -5.91973 -23.8323 -49.2148 -14.4226 -91.0355C-5.74509 -129.602 -22.0167 -170.734 0.705939 -204.057C23.7697 -237.881 63.9047 -246.36 98.7275 -256.971C132.718 -267.329 166.491 -272.5 197.768 -264.108C232.023 -254.912 269.655 -242.731 283.475 -207.388Z" stroke="#FF4267"/>
<path opacity="0.3" fill-rule="evenodd" clip-rule="evenodd" d="M300.039 -220.842C315.128 -182.258 293.071 -132.616 282.364 -86.9654C272.401 -44.4875 263.118 -2.88684 239.988 35.1753C212.762 79.9828 183.984 138.046 139.315 148.44C94.3243 158.912 71.869 102.393 34.2895 83.049C0.281821 65.5441 -55.7207 80.0655 -69.6994 40.852C-83.8259 1.22284 -38.6935 -46.502 -28.3244 -92.6014C-18.7614 -135.116 -36.6996 -180.461 -11.6544 -217.194C13.7669 -254.477 58.0074 -263.821 96.3912 -275.516C133.857 -286.93 171.085 -292.63 205.562 -283.373C243.322 -273.235 284.804 -259.804 300.039 -220.842Z" stroke="#FF4267"/>
<path opacity="0.3" fill-rule="evenodd" clip-rule="evenodd" d="M318.065 -235.484C334.679 -192.999 310.399 -138.341 298.612 -88.0783C287.643 -41.3094 277.424 4.49721 251.964 46.4033C221.988 95.7374 190.306 159.664 141.128 171.108C91.5933 182.634 66.8684 120.401 25.4915 99.0989C-11.9516 79.8218 -73.611 95.8055 -89.0013 52.6293C-104.556 8.99411 -54.8686 -43.5492 -43.4534 -94.3088C-32.9268 -141.117 -52.6784 -191.047 -25.1054 -231.49C2.88137 -272.539 51.5886 -282.825 93.8488 -295.698C135.099 -308.264 176.086 -314.535 214.044 -304.342C255.618 -293.176 301.29 -278.384 318.065 -235.484Z" stroke="#FF4267"/>
</g>
</g>
<defs>
<clipPath id="clip0_2942_28904">
<rect width="388" height="110" fill="white"/>
</clipPath>
</defs>
</svg>
