<svg width="196" height="58" viewBox="0 0 196 58" fill="none" xmlns="http://www.w3.org/2000/svg">
<path d="M30.4167 0C14.4263 0 1.46289 12.9839 1.46289 29.0001C1.46289 45.0169 14.4263 57.9998 30.4167 57.9998C46.4089 57.9998 59.3709 45.0169 59.3709 29.0001C59.3709 12.985 46.4089 0.0013852 30.4164 0.0013852L30.4167 0V0ZM43.6948 41.8264C43.1761 42.6784 42.0628 42.9485 41.2123 42.4256C34.4142 38.2665 25.8563 37.3245 15.7778 39.6309C14.8066 39.8525 13.8385 39.243 13.6173 38.2699C13.3949 37.2968 14.001 36.3272 14.9747 36.1055C26.004 33.5817 35.4646 34.6684 43.0966 39.34C43.9472 39.8629 44.2168 40.9745 43.6948 41.8264V41.8264ZM47.2387 33.93C46.5852 34.9939 45.1953 35.3298 44.1339 34.6753C36.3511 29.8838 24.4875 28.4962 15.282 31.295C14.0882 31.6562 12.8272 30.9823 12.4649 29.7886C12.1053 28.5928 12.7785 27.3323 13.9703 26.9687C24.4854 23.773 37.5578 25.321 46.4953 30.822C47.5567 31.4765 47.8921 32.8686 47.2387 33.9304V33.93ZM47.5429 25.7074C38.2112 20.1559 22.8151 19.6454 13.9056 22.3538C12.4749 22.7885 10.9619 21.9795 10.5284 20.5465C10.0948 19.1128 10.9018 17.5984 12.3335 17.1628C22.561 14.053 39.5631 14.6538 50.3068 21.042C51.5964 21.807 52.0183 23.4717 51.2542 24.7589C50.4935 26.0479 48.827 26.4728 47.5443 25.7074H47.5429ZM80.2367 26.7713C75.2372 25.5772 74.3486 24.7392 74.3486 22.9782C74.3486 21.3146 75.9114 20.195 78.2383 20.195C80.4925 20.195 82.7261 21.0452 85.0702 22.7954C85.1394 22.8484 85.2293 22.8695 85.3157 22.8556C85.4056 22.8425 85.4817 22.7943 85.5335 22.722L87.9745 19.2756C88.0748 19.1336 88.0471 18.9379 87.9123 18.8295C85.1221 16.5879 81.9827 15.4981 78.3109 15.4981C72.9138 15.4981 69.1417 18.7426 69.1417 23.3848C69.1417 28.3629 72.3952 30.1256 78.017 31.4862C82.7987 32.5899 83.6077 33.5145 83.6077 35.167C83.6077 36.999 81.9758 38.1383 79.3481 38.1383C76.43 38.1383 74.0478 37.1514 71.3856 34.845C71.3199 34.7861 71.23 34.7619 71.147 34.7653C71.0571 34.7723 70.9776 34.8138 70.9223 34.8796L68.184 38.1418C68.0699 38.2803 68.0837 38.4812 68.2151 38.5989C71.313 41.3693 75.1231 42.8307 79.2375 42.8307C85.0529 42.8307 88.8112 39.6482 88.8112 34.7203C88.8216 30.5623 86.3357 28.2593 80.2471 26.7758L80.2367 26.7713V26.7713ZM101.97 21.833C99.4498 21.833 97.3823 22.8276 95.6743 24.8656V22.5717C95.6743 22.3906 95.5291 22.243 95.3493 22.243H90.8719C90.6921 22.243 90.5469 22.3906 90.5469 22.5717V48.0599C90.5469 48.24 90.6921 48.3889 90.8719 48.3889H95.3493C95.5291 48.3889 95.6743 48.24 95.6743 48.0599V40.0153C97.3823 41.9303 99.4498 42.8688 101.97 42.8688C106.655 42.8688 111.399 39.2569 111.399 32.3519C111.406 25.4456 106.662 21.8327 101.974 21.8327L101.97 21.833ZM106.192 32.3519C106.192 35.8666 104.031 38.3219 100.933 38.3219C97.8732 38.3219 95.5636 35.7558 95.5636 32.3519C95.5636 28.9478 97.8732 26.3824 100.933 26.3824C103.979 26.382 106.192 28.892 106.192 32.3516V32.3519ZM123.552 21.833C117.519 21.833 112.792 26.4859 112.792 32.4271C112.792 38.3045 117.487 42.9069 123.479 42.9069C129.533 42.9069 134.273 38.2699 134.273 32.3519C134.273 26.4541 129.564 21.8337 123.552 21.8337V21.833V21.833ZM123.552 38.3565C120.343 38.3565 117.923 35.7731 117.923 32.3502C117.923 28.9118 120.26 26.4167 123.479 26.4167C126.708 26.4167 129.143 28.999 129.143 32.4254C129.143 35.8631 126.791 38.3565 123.552 38.3565V38.3565ZM147.156 22.243H142.229V17.1988C142.229 17.018 142.084 16.8705 141.904 16.8705H137.427C137.247 16.8705 137.098 17.018 137.098 17.1988V22.243H134.948C134.768 22.243 134.623 22.3906 134.623 22.5717V26.425C134.623 26.6057 134.768 26.7536 134.948 26.7536H137.098V36.7254C137.098 40.7529 139.1 42.7961 143.052 42.7961C144.656 42.7961 145.987 42.4636 147.242 41.7503C147.346 41.6948 147.408 41.584 147.408 41.4663V37.7955C147.408 37.6847 147.35 37.5773 147.253 37.5184C147.156 37.4561 147.035 37.4526 146.935 37.5046C146.074 37.9375 145.24 38.1383 144.307 38.1383C142.872 38.1383 142.229 37.4838 142.229 36.0224V26.7554H147.156C147.336 26.7554 147.481 26.6078 147.481 26.4267V22.5737C147.488 22.3926 147.343 22.2451 147.159 22.2451L147.156 22.243V22.243ZM164.319 22.2628V21.6432C164.319 19.8206 165.017 19.0079 166.58 19.0079C167.513 19.0079 168.264 19.1935 169.104 19.474C169.208 19.5065 169.315 19.4903 169.398 19.4283C169.484 19.3663 169.533 19.2669 169.533 19.1616V15.3835C169.533 15.2391 169.443 15.1113 169.301 15.0687C168.416 14.8044 167.282 14.5333 165.581 14.5333C161.449 14.5333 159.26 16.8653 159.26 21.2748V22.2236H157.11C156.93 22.2236 156.781 22.3712 156.781 22.5519V26.425C156.781 26.6057 156.93 26.7536 157.11 26.7536H159.26V42.1312C159.26 42.3147 159.409 42.4602 159.589 42.4602H164.063C164.246 42.4602 164.391 42.3147 164.391 42.1312V26.7547H168.571L174.975 42.1312C174.249 43.745 173.533 44.067 172.558 44.067C171.77 44.067 170.936 43.8315 170.089 43.364C170.01 43.3225 169.913 43.3155 169.83 43.3398C169.744 43.371 169.671 43.4333 169.636 43.5164L168.118 46.8513C168.046 47.0106 168.108 47.1941 168.26 47.2773C169.844 48.1361 171.272 48.5032 173.038 48.5032C176.344 48.5032 178.173 46.9587 179.781 42.8099L187.546 22.7116C187.587 22.6105 187.574 22.4962 187.511 22.4065C187.453 22.3175 187.352 22.2638 187.245 22.2638H182.585C182.443 22.2638 182.318 22.3528 182.273 22.4841L177.499 36.1402L172.271 22.475C172.223 22.348 172.101 22.2638 171.967 22.2638H164.319V22.2628V22.2628ZM154.368 22.243H149.891C149.711 22.243 149.562 22.3906 149.562 22.5717V42.1312C149.562 42.3147 149.711 42.4602 149.891 42.4602H154.368C154.548 42.4602 154.697 42.3147 154.697 42.1312V22.5731C154.697 22.3919 154.551 22.2444 154.368 22.2444V22.243ZM152.155 13.3365C150.382 13.3365 148.943 14.7743 148.943 16.5505C148.943 18.3277 150.382 19.7673 152.155 19.7673C153.929 19.7673 155.364 18.3277 155.364 16.5505C155.364 14.7747 153.926 13.3365 152.155 13.3365ZM191.37 28.5322C189.6 28.5322 188.22 27.1072 188.22 25.3767C188.22 23.6462 189.617 22.2049 191.387 22.2049C193.157 22.2049 194.537 23.6296 194.537 25.3587C194.537 27.0892 193.14 28.5322 191.37 28.5322ZM191.387 22.5187C189.773 22.5187 188.552 23.8035 188.552 25.3767C188.552 26.9493 189.766 28.2167 191.37 28.2167C192.985 28.2167 194.205 26.933 194.205 25.3587C194.205 23.7861 192.991 22.5187 191.387 22.5187V22.5187ZM192.086 25.6832L192.978 26.9327H192.224L191.422 25.7864H190.734V26.9327H190.104V23.6206H191.577C192.348 23.6206 192.853 24.0144 192.853 24.6772C192.857 25.2202 192.542 25.5519 192.089 25.6832H192.086ZM191.553 24.1889H190.734V25.2365H191.553C191.961 25.2365 192.207 25.036 192.207 24.7122C192.207 24.3714 191.961 24.1889 191.553 24.1889V24.1889Z" fill="#1ED760"/>
</svg>
