<svg width="72" height="72" viewBox="0 0 72 72" fill="none" xmlns="http://www.w3.org/2000/svg">
<rect width="72" height="72" rx="16" fill="#563AFF"/>
<path d="M35.9985 13.8492C30.1237 13.8492 24.4896 16.1829 20.3355 20.337C16.1814 24.4911 13.8477 30.1252 13.8477 36C13.8477 41.8747 16.1814 47.5089 20.3355 51.663C24.4896 55.817 30.1237 58.1508 35.9985 58.1508L35.9985 36L35.9985 13.8492Z" fill="white"/>
<path opacity="0.8" d="M35.9976 13.8492C41.8724 13.8492 47.5065 16.1829 51.6606 20.337C55.8147 24.4911 58.1484 30.1252 58.1484 36C58.1484 41.8747 55.8147 47.5089 51.6606 51.663C47.5065 55.817 41.8724 58.1508 35.9976 58.1508L35.9976 36L35.9976 13.8492Z" fill="white"/>
</svg>
