<svg width="84" height="84" viewBox="0 0 84 84" fill="none" xmlns="http://www.w3.org/2000/svg">
<rect width="84" height="84" rx="24" fill="#FF4267"/>
<path opacity="0.52" d="M48.3964 48.3573L60.5999 36.1537C62.3851 34.3686 63.3858 31.9512 63.3858 29.4292V25.3692C63.3858 22.7427 61.2584 20.6152 58.6318 20.6152H54.5719C52.0498 20.6152 49.6324 21.616 47.8497 23.4011L35.6437 35.6046L27.4621 34.4352C24.8783 34.0667 22.2612 35.405 21.106 37.9555C20.0553 40.2778 20.7566 43.0328 22.5607 44.8346L39.1665 61.4403C40.9682 63.2421 43.7232 63.9433 46.0455 62.8927C48.5961 61.7374 49.9367 59.1204 49.5659 56.5366L48.3964 48.3573Z" fill="white"/>
<path d="M52.689 34.8771C54.6582 34.8771 56.2546 33.2808 56.2546 31.3116C56.2546 29.3424 54.6582 27.7461 52.689 27.7461C50.7199 27.7461 49.1235 29.3424 49.1235 31.3116C49.1235 33.2808 50.7199 34.8771 52.689 34.8771Z" fill="white"/>
<path d="M43.181 44.3849C45.1502 44.3849 46.7465 42.7886 46.7465 40.8194C46.7465 38.8502 45.1502 37.2539 43.181 37.2539C41.2118 37.2539 39.6155 38.8502 39.6155 40.8194C39.6155 42.7886 41.2118 44.3849 43.181 44.3849Z" fill="white"/>
<path d="M25.8955 48.1719C25.6102 48.3834 25.3226 48.5926 25.0659 48.8493C23.364 50.5513 21.9663 55.7189 21.1367 59.4793C20.6898 61.5045 22.4964 63.311 24.5216 62.8642C28.2796 62.0346 33.4496 60.6369 35.1515 58.935C35.4106 58.6759 35.6198 58.3906 35.829 58.1054L25.8955 48.1719Z" fill="white"/>
</svg>
