<svg width="72" height="72" viewBox="0 0 72 72" fill="none" xmlns="http://www.w3.org/2000/svg">
<rect width="72" height="72" rx="16" fill="#7D42FB"/>
<path opacity="0.35" d="M53.2878 55.7576H18.7119C14.6196 55.7576 11.3027 52.4407 11.3027 48.3484V23.6513C11.3027 19.559 14.6196 16.2422 18.7119 16.2422H53.2878C57.3801 16.2422 60.697 19.559 60.697 23.6513V48.3484C60.697 52.4407 57.3801 55.7576 53.2878 55.7576Z" fill="white"/>
<path d="M30.9172 35.4195L11.3027 23.6513C11.3027 19.559 14.6196 16.2422 18.7119 16.2422H53.2878C57.3801 16.2422 60.697 19.559 60.697 23.6513L41.0825 35.4195C37.9534 37.2965 34.0463 37.2965 30.9172 35.4195Z" fill="white"/>
</svg>
