<svg width="68" height="68" viewBox="0 0 68 68" fill="none" xmlns="http://www.w3.org/2000/svg">
<rect width="68" height="68" rx="16" fill="url(#paint0_linear_2926_23725)"/>
<path d="M19.4088 33.08C19.4088 33.08 33.5278 27.2856 38.4244 25.2452C40.3016 24.4292 46.6673 21.8175 46.6673 21.8175C46.6673 21.8175 49.6054 20.675 49.3606 23.4497C49.2789 24.5924 48.626 28.5913 47.9732 32.9168C46.9938 39.0378 45.9328 45.7299 45.9328 45.7299C45.9328 45.7299 45.7696 47.6071 44.3822 47.9335C42.9948 48.2599 40.7096 46.791 40.3016 46.4645C39.9751 46.2197 34.1806 42.5471 32.0587 40.7516C31.4874 40.2619 30.8345 39.2826 32.1403 38.14C35.0784 35.4468 38.5877 32.1007 40.7096 29.9788C41.689 28.9994 42.6683 26.7143 38.5877 29.4891C32.7932 33.4881 27.0804 37.2423 27.0804 37.2423C27.0804 37.2423 25.7745 38.0584 23.3262 37.3238C20.8777 36.5894 18.0213 35.61 18.0213 35.61C18.0213 35.61 16.0627 34.3859 19.4088 33.08V33.08Z" fill="white"/>
<defs>
<linearGradient id="paint0_linear_2926_23725" x1="34" y1="0" x2="34" y2="68" gradientUnits="userSpaceOnUse">
<stop stop-color="#22A8EC"/>
<stop offset="1" stop-color="#20A0DA"/>
</linearGradient>
</defs>
</svg>
