<svg width="162" height="54" viewBox="0 0 162 54" fill="none" xmlns="http://www.w3.org/2000/svg">
<path d="M154.607 10.0138H147.53V0.105103H131.989L124.842 10.0138H112.142L107.895 14.2603V10.0138H97.9864V0.105103H66.8449V10.0138H23.0345L15.8862 0.105103H0.31543V34.0776L20.1327 53.8949H39.95V48.2328L45.6121 53.8949H83.8312V48.2328L89.4932 53.8949H107.895V48.2328L113.557 53.8949H148.945L161.685 41.1552V17.0914L154.607 10.0138ZM24.3793 24.169H14.4706V27H24.3793V38.3242H8.80856L3.14647 32.6621V2.93614H14.4706V12.8448H24.3793V24.169ZM66.8449 38.3242H32.8724L27.2103 32.6621V12.8448H38.5345V27H41.3655V12.8448H52.6897V27H55.5207V12.8448H66.8449V38.3242ZM81.0001 38.3242H69.676V12.8448H81.0001V38.3242ZM81.0001 10.0138H69.676V2.93614H81.0001V10.0138ZM105.064 24.169H95.1553V27H105.064V38.3242H89.4932L83.8312 32.6621V2.93614H95.1553V12.8448H105.064V24.169ZM130.543 24.169H119.219V27H130.543V38.3242H113.557L107.895 32.6621V18.5069L113.557 12.8448H130.543V24.169ZM158.854 38.3242H147.53V24.169H144.699V38.3242H133.374V2.93614H144.699V12.8448H153.192L158.854 18.5069V38.3242Z" fill="#9146FF"/>
</svg>
