<svg width="68" height="68" viewBox="0 0 68 68" fill="none" xmlns="http://www.w3.org/2000/svg">
<rect width="68" height="68" rx="16" fill="#1DA1F2"/>
<path d="M27.4239 49.6646C40.8018 49.6646 48.1176 38.5817 48.1176 28.9709C48.1176 28.6562 48.1112 28.3428 48.097 28.0308C49.5205 27.0008 50.749 25.7255 51.725 24.2646C50.4218 24.8439 49.0194 25.2339 47.5484 25.4097C49.0499 24.5092 50.2027 23.0849 50.7466 21.3869C49.3188 22.2339 47.7569 22.831 46.1282 23.1524C44.801 21.7387 42.9116 20.8545 40.8193 20.8545C36.8028 20.8545 33.5458 24.1116 33.5458 28.1266C33.5458 28.6973 33.6097 29.2525 33.7344 29.7849C27.6897 29.4808 22.3296 26.5867 18.7423 22.186C18.0962 23.2958 17.7564 24.5573 17.7575 25.8415C17.7575 28.3648 19.0415 30.5924 20.994 31.8956C19.8391 31.8604 18.7095 31.5484 17.7001 30.9859C17.6991 31.0165 17.6991 31.0462 17.6991 31.0788C17.6991 34.6011 20.2061 37.542 23.534 38.2084C22.909 38.3786 22.264 38.4647 21.6162 38.4644C21.1574 38.4641 20.6997 38.4201 20.2493 38.3332C21.1752 41.223 23.8602 43.3259 27.0435 43.3847C24.5542 45.3358 21.4184 46.4979 18.0103 46.4979C17.4239 46.4979 16.8447 46.4646 16.2754 46.3973C19.4942 48.4604 23.3163 49.6643 27.4243 49.6643" fill="white"/>
</svg>
