<svg width="108" height="36" viewBox="0 0 108 36" fill="none" xmlns="http://www.w3.org/2000/svg">
<path d="M103.263 6.63158H98.5263V0H88.1252L83.3419 6.63158H74.8421L72 9.47368V6.63158H65.3684V0H44.5263V6.63158H15.2053L10.4211 0H0V22.7368L13.2632 36H26.5263V32.2105L30.3158 36H55.8947V32.2105L59.6842 36H72V32.2105L75.7895 36H99.4737L108 27.4737V11.3684L103.263 6.63158ZM16.1053 16.1053H9.47368V18H16.1053V25.5789H5.68421L1.89474 21.7895V1.89474H9.47368V8.52632H16.1053V16.1053ZM44.5263 25.5789H21.7895L18 21.7895V8.52632H25.5789V18H27.4737V8.52632H35.0526V18H36.9474V8.52632H44.5263V25.5789ZM54 25.5789H46.4211V8.52632H54V25.5789ZM54 6.63158H46.4211V1.89474H54V6.63158ZM70.1053 16.1053H63.4737V18H70.1053V25.5789H59.6842L55.8947 21.7895V1.89474H63.4737V8.52632H70.1053V16.1053ZM87.1579 16.1053H79.5789V18H87.1579V25.5789H75.7895L72 21.7895V12.3158L75.7895 8.52632H87.1579V16.1053ZM106.105 25.5789H98.5263V16.1053H96.6316V25.5789H89.0526V1.89474H96.6316V8.52632H102.316L106.105 12.3158V25.5789Z" fill="#A0A3BD"/>
</svg>
