<svg width="60" height="60" viewBox="0 0 60 60" fill="none" xmlns="http://www.w3.org/2000/svg">
<rect width="60" height="60" rx="14.5732" fill="#FF813A"/>
<path d="M30.0019 47.3794C37.681 47.3794 43.9062 45.8231 43.9062 43.9033C43.9062 41.9835 37.681 40.4272 30.0019 40.4272C22.3228 40.4272 16.0977 41.9835 16.0977 43.9033C16.0977 45.8231 22.3228 47.3794 30.0019 47.3794Z" fill="white"/>
<path d="M45.5209 22.8895C44.5615 21.1514 42.4237 18.4853 38.3532 18.4853C37.1123 18.4853 35.9513 18.7408 34.8807 19.1353L39.5125 14.5035C40.0078 14.0081 39.7854 13.1704 39.111 12.9757C37.3313 12.463 34.1594 12.1137 31.4724 14.7989C30.8223 15.4489 30.3548 16.1372 30.0037 16.8324C29.6527 16.1372 29.1851 15.4489 28.5351 14.7989C25.8498 12.1137 22.6797 12.463 20.8999 12.9757C20.2256 13.1704 20.0014 14.0064 20.4984 14.5035L25.1303 19.1353C24.0597 18.7408 22.8987 18.4853 21.6577 18.4853C17.5872 18.4853 15.4495 21.1532 14.4901 22.8895C14.1251 23.5482 14.5909 24.3511 15.3417 24.3511H21.4213C21.0928 24.591 20.7678 24.8534 20.455 25.168C17.768 27.855 18.1191 31.0252 18.6318 32.8067C18.8265 33.481 19.6624 33.7052 20.1595 33.2082L29.0148 24.3529H30.9979L39.8532 33.2082C40.3502 33.7035 41.1862 33.481 41.3809 32.8067C41.8936 31.0269 42.243 27.855 39.5577 25.168C39.2431 24.8534 38.9181 24.591 38.5896 24.3511H44.6693C45.4201 24.3511 45.8859 23.5482 45.5209 22.8895Z" fill="white"/>
<path opacity="0.35" d="M30.9964 24.3501H29.0133L27.5516 25.8118C27.2388 28.0191 26.8668 30.2107 26.4271 32.3798C25.9926 34.4811 25.4973 36.5615 24.9342 38.6089C24.4371 40.4026 23.86 42.2848 23.25 43.903H31.0416C31.2536 42.5351 31.4153 41.209 31.5647 39.8377C31.7994 37.5661 31.9541 35.3032 32.041 33.0437C32.1313 30.4854 32.1157 27.9339 32.0392 25.3912L30.9964 24.3501Z" fill="white"/>
</svg>
