<svg width="86" height="86" viewBox="0 0 86 86" fill="none" xmlns="http://www.w3.org/2000/svg">
<rect width="86" height="86" rx="16" fill="#2FF2B8"/>
<path opacity="0.6" d="M43.0666 69.1605C57.48 69.1605 69.1644 57.4761 69.1644 43.0627C69.1644 28.6492 57.48 16.9648 43.0666 16.9648C28.6531 16.9648 16.9688 28.6492 16.9688 43.0627C16.9688 57.4761 28.6531 69.1605 43.0666 69.1605Z" fill="white"/>
<path d="M40.4554 53.5018C39.7873 53.5018 39.1192 53.246 38.6103 52.7371L30.7809 44.9078C29.7605 43.8874 29.7605 42.238 30.7809 41.2176C31.8014 40.1971 33.4508 40.1971 34.4712 41.2176L40.4554 47.2018L51.6592 35.998C52.6796 34.9776 54.329 34.9776 55.3494 35.998C56.3699 37.0184 56.3699 38.6678 55.3494 39.6882L42.3005 52.7371C41.7916 53.246 41.1235 53.5018 40.4554 53.5018Z" fill="white"/>
</svg>
