<svg width="72" height="72" viewBox="0 0 72 72" fill="none" xmlns="http://www.w3.org/2000/svg">
<rect width="72" height="72" rx="16" fill="#FF4267"/>
<path d="M43.3826 50.3206C43.3826 49.4519 43.5598 48.6324 43.8354 47.8597H23.6956C20.9812 47.8597 18.7738 45.6523 18.7738 42.9379C18.7738 40.6493 20.3906 38.6314 22.6202 38.1367L22.63 38.1343C22.9696 38.0555 23.3289 38.0162 23.6956 38.0162H24.1139H36.6792H48.3044C53.7331 38.0162 58.1479 33.6013 58.1479 28.1726C58.1479 22.7439 53.7331 18.3291 48.3044 18.3291H28.1645C28.4402 19.1018 28.6173 19.9213 28.6173 20.79C28.6173 21.6587 28.4402 22.4781 28.1645 23.2509H48.3044C51.0188 23.2509 53.2262 25.4583 53.2262 28.1726C53.2262 30.887 51.0188 33.0944 48.3044 33.0944H36.6792H24.1139H23.6956C22.9647 33.0944 22.2437 33.1731 21.5472 33.3306V33.3282C21.5448 33.3282 21.5423 33.3306 21.5398 33.3306H21.5374C17.0857 34.3322 13.8521 38.3681 13.8521 42.9379C13.8521 48.3666 18.2669 52.7815 23.6956 52.7815H43.8354C43.5598 52.0087 43.3826 51.1893 43.3826 50.3206Z" fill="white"/>
<path opacity="0.35" d="M21.2347 28.1725C25.312 28.1725 28.6173 24.8672 28.6173 20.7899C28.6173 16.7125 25.312 13.4072 21.2347 13.4072C17.1574 13.4072 13.8521 16.7125 13.8521 20.7899C13.8521 24.8672 17.1574 28.1725 21.2347 28.1725Z" fill="white"/>
<path opacity="0.35" d="M50.765 57.7033C54.8423 57.7033 58.1476 54.398 58.1476 50.3206C58.1476 46.2433 54.8423 42.938 50.765 42.938C46.6876 42.938 43.3823 46.2433 43.3823 50.3206C43.3823 54.398 46.6876 57.7033 50.765 57.7033Z" fill="white"/>
</svg>
