<svg width="256" height="320" viewBox="0 0 256 320" fill="none" xmlns="http://www.w3.org/2000/svg">
<rect width="256" height="320" fill="white"/>
<rect x="0.373047" y="0.28418" width="255.254" height="319.432" fill="white"/>
<circle cx="133.573" cy="238.715" r="8.30153" fill="#7D42FB"/>
<path d="M158.832 242.55H160.81L156.697 232.705H154.705L150.593 242.55H152.584L153.358 240.687H158.059L158.832 242.55ZM153.974 239.226L155.708 235.084L157.442 239.226H153.974ZM166.294 234.97C165.305 234.97 164.445 235.443 164.001 236.145V235.142H162.253V242.55H164.001V238.065C164.001 237.162 164.804 236.46 165.807 236.46C166.724 236.46 167.354 237.162 167.354 238.18V242.55H169.06V237.836C169.06 236.145 167.928 234.97 166.294 234.97ZM176.557 232.534V236.302C175.984 235.471 175.081 234.97 173.992 234.97C172.015 234.97 170.582 236.575 170.582 238.839C170.582 241.117 172.015 242.722 173.992 242.722C175.081 242.722 175.984 242.221 176.557 241.375V242.55H178.306V232.534H176.557ZM174.451 241.232C173.204 241.232 172.316 240.229 172.316 238.839C172.316 237.449 173.204 236.46 174.451 236.46C175.683 236.46 176.543 237.449 176.543 238.839C176.543 240.229 175.683 241.232 174.451 241.232ZM182.236 236.546V235.142H180.487V242.55H182.236V238.81C182.236 237.406 183.296 236.46 184.887 236.46V234.97C183.683 234.97 182.709 235.586 182.236 236.546ZM189.888 242.722C192.066 242.722 193.843 240.974 193.843 238.839C193.843 236.704 192.066 234.97 189.888 234.97C187.695 234.97 185.904 236.704 185.904 238.839C185.904 240.974 187.695 242.722 189.888 242.722ZM189.888 241.232C188.641 241.232 187.623 240.157 187.623 238.839C187.623 237.52 188.641 236.46 189.888 236.46C191.12 236.46 192.137 237.52 192.137 238.839C192.137 240.157 191.12 241.232 189.888 241.232ZM196.336 234.024C196.88 234.024 197.324 233.551 197.324 233.021C197.324 232.491 196.88 232.032 196.336 232.032C195.777 232.032 195.332 232.491 195.332 233.021C195.332 233.551 195.777 234.024 196.336 234.024ZM195.461 242.55H197.21V235.142H195.461V242.55ZM204.868 232.534V236.302C204.295 235.471 203.392 234.97 202.303 234.97C200.325 234.97 198.892 236.575 198.892 238.839C198.892 241.117 200.325 242.722 202.303 242.722C203.392 242.722 204.295 242.221 204.868 241.375V242.55H206.616V232.534H204.868ZM202.761 241.232C201.515 241.232 200.626 240.229 200.626 238.839C200.626 237.449 201.515 236.46 202.761 236.46C203.994 236.46 204.854 237.449 204.854 238.839C204.854 240.229 203.994 241.232 202.761 241.232Z" fill="#6E7191"/>
<circle cx="56.0672" cy="238.715" r="8.30153" fill="#FF4267"/>
<path d="M72.3026 234.023C72.8471 234.023 73.2914 233.55 73.2914 233.02C73.2914 232.49 72.8471 232.031 72.3026 232.031C71.7437 232.031 71.2995 232.49 71.2995 233.02C71.2995 233.55 71.7437 234.023 72.3026 234.023ZM71.4284 242.55H73.1767V235.141H71.4284V242.55ZM80.1471 242.722C82.9558 242.722 85.3203 240.386 85.3203 237.62C85.3203 234.855 82.9558 232.533 80.1471 232.533C77.3527 232.533 74.9883 234.855 74.9883 237.62C74.9883 240.386 77.3527 242.722 80.1471 242.722ZM80.1471 241.088C78.3415 241.088 76.8082 239.512 76.8082 237.62C76.8082 235.743 78.3415 234.167 80.1471 234.167C81.9671 234.167 83.486 235.743 83.486 237.62C83.486 239.512 81.9671 241.088 80.1471 241.088ZM90.8129 242.707C93.1774 242.707 94.5101 241.461 94.5101 239.698C94.5101 237.907 93.1344 237.248 91.0852 236.789C89.5232 236.431 88.8067 236.144 88.8067 235.342C88.8067 234.654 89.4659 234.066 90.469 234.066C91.4434 234.066 92.4322 234.482 93.2777 235.213L94.2521 233.909C93.2777 233.063 92.0883 232.533 90.5263 232.533C88.4628 232.533 87.0011 233.78 87.0011 235.499C87.0011 237.348 88.4054 237.935 90.4403 238.408C92.0166 238.781 92.7188 239.053 92.7188 239.87C92.7188 240.572 92.0883 241.174 90.8846 241.174C89.5948 241.174 88.5487 240.658 87.6459 239.841L86.5998 241.117C87.6889 242.134 89.1363 242.707 90.8129 242.707Z" fill="#6E7191"/>
<circle cx="56.0672" cy="275.792" r="8.30153" fill="#1DE4FF"/>
<path d="M76.2147 279.798C79.0234 279.798 81.3879 277.463 81.3879 274.697C81.3879 271.931 79.0234 269.61 76.2147 269.61C73.4203 269.61 71.0559 271.931 71.0559 274.697C71.0559 277.463 73.4203 279.798 76.2147 279.798ZM76.2147 278.165C74.4091 278.165 72.8758 276.588 72.8758 274.697C72.8758 272.82 74.4091 271.243 76.2147 271.243C78.0347 271.243 79.5536 272.82 79.5536 274.697C79.5536 276.588 78.0347 278.165 76.2147 278.165ZM86.6656 278.036C86.5079 278.193 86.2356 278.308 85.9347 278.308C85.5191 278.308 85.1895 277.95 85.1895 277.448V273.665H86.8662V272.218H85.1895V270.183H83.4986V272.218H82.4238V273.665H83.4986V277.663C83.4986 278.91 84.3584 279.798 85.5765 279.798C86.1497 279.798 86.7515 279.569 87.1671 279.211L86.6656 278.036ZM92.6406 272.046C91.6518 272.046 90.792 272.519 90.3477 273.221V269.61H88.5995V279.626H90.3477V275.141C90.3477 274.238 91.1502 273.536 92.1533 273.536C93.0705 273.536 93.701 274.238 93.701 275.256V279.626H95.4063V274.912C95.4063 273.221 94.2742 272.046 92.6406 272.046ZM100.726 278.394C99.5794 278.394 98.7626 277.592 98.5763 276.431H104.323C104.323 273.737 102.976 272.046 100.683 272.046C98.5619 272.046 96.8853 273.665 96.8853 275.901C96.8853 278.179 98.6479 279.798 100.783 279.798C101.858 279.798 103.148 279.34 103.792 278.652L102.789 277.62C102.316 278.079 101.471 278.394 100.726 278.394ZM100.697 273.45C101.815 273.45 102.474 274.224 102.632 275.27H98.5906C98.8199 274.167 99.6367 273.45 100.697 273.45ZM107.631 273.622V272.218H105.882V279.626H107.631V275.886C107.631 274.482 108.691 273.536 110.282 273.536V272.046C109.078 272.046 108.104 272.662 107.631 273.622Z" fill="#6E7191"/>
<path d="M207.67 129.038C207.124 139.5 204.522 149.753 200.013 159.21C195.504 168.666 189.177 177.143 181.393 184.154C173.608 191.166 164.519 196.576 154.643 200.075C144.768 203.573 134.301 205.093 123.838 204.546C113.376 204 103.123 201.398 93.6662 196.889C84.2093 192.38 75.7331 186.053 68.7214 178.269C61.7098 170.484 56.3001 161.395 52.8012 151.519C49.3023 141.644 47.7828 131.177 48.3293 120.714C48.8759 110.252 51.4778 99.9991 55.9866 90.5422C60.4953 81.0853 66.8226 72.609 74.6072 65.5974C82.3917 58.5858 91.4811 53.1761 101.356 49.6772C111.232 46.1783 121.699 44.6588 132.162 45.2053C142.624 45.7519 152.877 48.3538 162.334 52.8625C171.791 57.3713 180.267 63.6986 187.278 71.4832C194.29 79.2677 199.7 88.3571 203.199 98.2323C206.697 108.108 208.217 118.575 207.67 129.038L207.67 129.038Z" stroke="#EFF0F7" stroke-width="16"/>
<path d="M207.67 129.038C206.973 142.386 202.933 155.344 195.922 166.724C188.911 178.104 179.153 187.539 167.545 194.165C155.936 200.79 142.849 204.392 129.485 204.641C116.121 204.89 102.909 201.777 91.0622 195.589C79.215 189.4 69.1126 180.334 61.6826 169.224C54.2526 158.113 49.7332 145.314 48.5395 132.001C47.3458 118.688 49.516 105.289 54.8507 93.0337C60.1855 80.7784 68.5139 70.0599 79.0711 61.8624" stroke="#FF4267" stroke-width="16" stroke-linecap="round"/>
<path d="M152.868 49.0716C165.089 53.0807 176.159 59.9849 185.135 69.1959C194.112 78.4069 200.728 89.6515 204.421 101.971C208.113 114.291 208.772 127.322 206.342 139.951C203.911 152.581 198.464 164.436 190.463 174.506" stroke="#7D42FB" stroke-width="16" stroke-linecap="round"/>
<path d="M82.8733 59.086C93.3464 51.9023 105.383 47.3227 117.983 45.7281C130.582 44.1334 143.38 45.5698 155.313 49.9176" stroke="#1DE4FF" stroke-width="16" stroke-linecap="round"/>
<path d="M103.417 128.375H106.667V124.501H109.137V121.719H106.667V110.513H102.767L94.3165 121.979L94.6285 124.501H103.417V128.375ZM97.7745 121.719L103.417 114.049V121.719H97.7745ZM118.157 128.687C122.005 128.687 125.125 126.815 125.125 123.617C125.125 121.511 123.591 119.951 121.485 119.145C123.279 118.417 124.657 117.091 124.657 115.011C124.657 111.995 121.615 110.201 118.157 110.201C114.803 110.201 111.683 111.943 111.683 115.011C111.683 117.039 113.009 118.365 114.855 119.145C112.775 119.899 111.215 121.459 111.215 123.617C111.215 126.789 114.283 128.687 118.157 128.687ZM118.157 117.975C116.675 117.897 114.881 117.013 114.881 115.427C114.881 114.023 116.285 112.957 118.157 112.957C120.029 112.957 121.459 114.023 121.459 115.427C121.459 116.987 119.691 117.897 118.157 117.975ZM118.157 125.905C116.051 125.905 114.465 124.865 114.465 123.305C114.465 121.641 116.519 120.653 118.157 120.575C119.821 120.653 121.849 121.641 121.849 123.305C121.849 124.865 120.237 125.905 118.157 125.905ZM135.621 128.687C140.197 128.687 143.447 124.865 143.447 119.431C143.447 114.023 140.197 110.201 135.621 110.201C131.019 110.201 127.795 114.023 127.795 119.431C127.795 124.865 131.019 128.687 135.621 128.687ZM135.621 125.723C132.969 125.723 131.097 123.123 131.097 119.431C131.097 115.739 132.969 113.165 135.621 113.165C138.273 113.165 140.119 115.739 140.119 119.431C140.119 123.123 138.273 125.723 135.621 125.723ZM147.271 128.375H150.495V123.279L152.913 120.679L158.841 128.375H162.819L155.175 118.391L162.325 110.513H158.321L150.495 119.249V110.513H147.271V128.375Z" fill="#211F54"/>
<path d="M83.0145 148.531C85.3285 148.531 86.9535 146.893 86.9535 144.566V139.444H85.3415V144.514C85.3415 145.996 84.3795 147.062 83.0145 147.062C81.6625 147.062 80.7005 145.996 80.7005 144.514V139.444H79.0755V144.566C79.0755 146.893 80.7135 148.531 83.0145 148.531ZM91.2789 148.531C92.8389 148.531 93.9179 147.699 93.9179 146.399C93.9179 145.008 92.6959 144.631 91.5519 144.319C90.5379 144.007 90.1219 143.89 90.1219 143.448C90.1219 142.98 90.5899 142.707 91.1749 142.707C91.7989 142.707 92.5009 142.967 93.1249 143.37L93.7489 142.304C93.0079 141.823 92.0979 141.498 91.1749 141.498C89.6799 141.498 88.6399 142.356 88.6399 143.604C88.6399 144.826 89.5629 145.229 91.0319 145.619C91.8249 145.827 92.4489 146.009 92.4489 146.542C92.4489 147.01 92.0199 147.309 91.3049 147.309C90.5769 147.309 89.7319 147.01 89.0039 146.49L88.3279 147.53C89.1469 148.167 90.2519 148.531 91.2789 148.531ZM98.3657 147.257C97.3257 147.257 96.5847 146.529 96.4157 145.476H101.629C101.629 143.032 100.407 141.498 98.3267 141.498C96.4027 141.498 94.8817 142.967 94.8817 144.995C94.8817 147.062 96.4807 148.531 98.4177 148.531C99.3927 148.531 100.563 148.115 101.148 147.491L100.238 146.555C99.8087 146.971 99.0417 147.257 98.3657 147.257ZM98.3397 142.772C99.3537 142.772 99.9517 143.474 100.095 144.423H96.4287C96.6367 143.422 97.3777 142.772 98.3397 142.772ZM104.63 142.928V141.654H103.044V148.375H104.63V144.982C104.63 143.708 105.592 142.85 107.035 142.85V141.498C105.943 141.498 105.059 142.057 104.63 142.928ZM110.804 148.531C112.364 148.531 113.443 147.699 113.443 146.399C113.443 145.008 112.221 144.631 111.077 144.319C110.063 144.007 109.647 143.89 109.647 143.448C109.647 142.98 110.115 142.707 110.7 142.707C111.324 142.707 112.026 142.967 112.65 143.37L113.274 142.304C112.533 141.823 111.623 141.498 110.7 141.498C109.205 141.498 108.165 142.356 108.165 143.604C108.165 144.826 109.088 145.229 110.557 145.619C111.35 145.827 111.974 146.009 111.974 146.542C111.974 147.01 111.545 147.309 110.83 147.309C110.102 147.309 109.257 147.01 108.529 146.49L107.853 147.53C108.672 148.167 109.777 148.531 110.804 148.531ZM122.421 141.498C121.394 141.498 120.562 141.979 120.042 142.785V139.288H118.456V148.375H120.042V147.231C120.562 148.05 121.394 148.531 122.421 148.531C124.202 148.531 125.515 147.075 125.515 145.008C125.515 142.954 124.202 141.498 122.421 141.498ZM121.992 147.179C120.887 147.179 120.094 146.269 120.094 145.008C120.094 143.747 120.887 142.85 121.992 142.85C123.136 142.85 123.942 143.747 123.942 145.008C123.942 146.269 123.136 147.179 121.992 147.179ZM128.156 150.715C129.17 150.702 129.95 150.117 130.457 148.843L133.304 141.654H131.666L129.82 146.672L127.857 141.654H126.18L129.027 148.427L128.741 149.025C128.546 149.35 128.26 149.467 127.883 149.467C127.636 149.467 127.311 149.376 127.025 149.22L126.687 150.364C127.09 150.585 127.649 150.715 128.156 150.715ZM142.985 139.288V142.707C142.465 141.953 141.646 141.498 140.658 141.498C138.864 141.498 137.564 142.954 137.564 145.008C137.564 147.075 138.864 148.531 140.658 148.531C141.646 148.531 142.465 148.076 142.985 147.309V148.375H144.571V139.288H142.985ZM141.074 147.179C139.943 147.179 139.137 146.269 139.137 145.008C139.137 143.747 139.943 142.85 141.074 142.85C142.192 142.85 142.972 143.747 142.972 145.008C142.972 146.269 142.192 147.179 141.074 147.179ZM149.541 147.257C148.501 147.257 147.76 146.529 147.591 145.476H152.804C152.804 143.032 151.582 141.498 149.502 141.498C147.578 141.498 146.057 142.967 146.057 144.995C146.057 147.062 147.656 148.531 149.593 148.531C150.568 148.531 151.738 148.115 152.323 147.491L151.413 146.555C150.984 146.971 150.217 147.257 149.541 147.257ZM149.515 142.772C150.529 142.772 151.127 143.474 151.27 144.423H147.604C147.812 143.422 148.553 142.772 149.515 142.772ZM156.272 148.375H157.754L160.601 141.654H158.924L157.013 146.542L155.063 141.654H153.373L156.272 148.375ZM162.54 140.64C163.034 140.64 163.437 140.211 163.437 139.73C163.437 139.249 163.034 138.833 162.54 138.833C162.033 138.833 161.63 139.249 161.63 139.73C161.63 140.211 162.033 140.64 162.54 140.64ZM161.747 148.375H163.333V141.654H161.747V148.375ZM168.395 148.531C169.448 148.531 170.345 148.089 170.995 147.4L169.929 146.477C169.552 146.906 168.98 147.179 168.395 147.179C167.29 147.179 166.367 146.191 166.367 145.008C166.367 143.838 167.29 142.85 168.395 142.85C168.967 142.85 169.526 143.123 169.89 143.526L170.956 142.59C170.319 141.927 169.435 141.498 168.408 141.498C166.445 141.498 164.794 143.097 164.794 145.008C164.794 146.919 166.445 148.531 168.395 148.531ZM175.249 147.257C174.209 147.257 173.468 146.529 173.299 145.476H178.512C178.512 143.032 177.29 141.498 175.21 141.498C173.286 141.498 171.765 142.967 171.765 144.995C171.765 147.062 173.364 148.531 175.301 148.531C176.276 148.531 177.446 148.115 178.031 147.491L177.121 146.555C176.692 146.971 175.925 147.257 175.249 147.257ZM175.223 142.772C176.237 142.772 176.835 143.474 176.978 144.423H173.312C173.52 143.422 174.261 142.772 175.223 142.772Z" fill="#6E7191"/>
</svg>
