<svg width="378" height="284" viewBox="0 0 378 284" fill="none" xmlns="http://www.w3.org/2000/svg">
<g clip-path="url(#clip0_2907_38303)">
<rect x="0.0482178" width="377.904" height="285.189" fill="white"/>
<path d="M149.338 187.924H151.43V178.331H155.097V176.422H145.654V178.331H149.338V187.924ZM160.857 188.124C163.401 188.124 165.477 186.082 165.477 183.587C165.477 181.093 163.401 179.067 160.857 179.067C158.295 179.067 156.203 181.093 156.203 183.587C156.203 186.082 158.295 188.124 160.857 188.124ZM160.857 186.383C159.4 186.383 158.212 185.128 158.212 183.587C158.212 182.047 159.4 180.808 160.857 180.808C162.297 180.808 163.485 182.047 163.485 183.587C163.485 185.128 162.297 186.383 160.857 186.383ZM171.42 186.065C171.236 186.249 170.918 186.383 170.566 186.383C170.081 186.383 169.696 185.965 169.696 185.379V180.959H171.654V179.268H169.696V176.891H167.72V179.268H166.464V180.959H167.72V185.63C167.72 187.086 168.725 188.124 170.148 188.124C170.817 188.124 171.52 187.857 172.006 187.438L171.42 186.065ZM177.145 179.067C176.057 179.067 174.918 179.369 173.696 179.971L174.399 181.394C175.136 181.026 175.923 180.741 176.743 180.741C178.317 180.741 178.853 181.712 178.853 182.717V182.935C178.066 182.65 177.229 182.483 176.442 182.483C174.483 182.483 172.926 183.654 172.926 185.362C172.926 187.036 174.299 188.124 176.14 188.124C177.145 188.124 178.216 187.689 178.853 186.902V187.924H180.845V182.717C180.845 180.524 179.438 179.067 177.145 179.067ZM176.592 186.634C175.621 186.634 174.885 186.115 174.885 185.295C174.885 184.475 175.722 183.906 176.743 183.906C177.496 183.906 178.216 184.023 178.853 184.224V185.211C178.635 186.132 177.58 186.634 176.592 186.634ZM183.211 187.924H185.253V176.221H183.211V187.924ZM195.38 188.124C197.389 188.124 198.778 187.053 198.778 185.379C198.778 183.587 197.205 183.102 195.731 182.7C194.425 182.298 193.89 182.148 193.89 181.578C193.89 180.976 194.492 180.624 195.246 180.624C196.049 180.624 196.953 180.959 197.757 181.478L198.561 180.105C197.606 179.486 196.434 179.067 195.246 179.067C193.321 179.067 191.981 180.172 191.981 181.779C191.981 183.353 193.17 183.872 195.062 184.374C196.083 184.642 196.887 184.877 196.887 185.563C196.887 186.166 196.334 186.551 195.413 186.551C194.476 186.551 193.387 186.166 192.45 185.496L191.579 186.835C192.634 187.656 194.057 188.124 195.38 188.124ZM204.121 179.067C203.033 179.067 201.895 179.369 200.672 179.971L201.376 181.394C202.112 181.026 202.899 180.741 203.719 180.741C205.293 180.741 205.829 181.712 205.829 182.717V182.935C205.042 182.65 204.205 182.483 203.418 182.483C201.459 182.483 199.902 183.654 199.902 185.362C199.902 187.036 201.275 188.124 203.117 188.124C204.121 188.124 205.193 187.689 205.829 186.902V187.924H207.821V182.717C207.821 180.524 206.415 179.067 204.121 179.067ZM203.569 186.634C202.598 186.634 201.861 186.115 201.861 185.295C201.861 184.475 202.698 183.906 203.719 183.906C204.473 183.906 205.193 184.023 205.829 184.224V185.211C205.611 186.132 204.557 186.634 203.569 186.634ZM210.187 187.924H212.23V176.221H210.187V187.924ZM218.632 186.484C217.293 186.484 216.339 185.546 216.121 184.19H222.834C222.834 181.043 221.261 179.067 218.582 179.067C216.104 179.067 214.145 180.959 214.145 183.571C214.145 186.233 216.205 188.124 218.699 188.124C219.955 188.124 221.462 187.589 222.215 186.785L221.043 185.58C220.491 186.115 219.503 186.484 218.632 186.484ZM218.599 180.708C219.905 180.708 220.675 181.612 220.859 182.834H216.138C216.406 181.545 217.36 180.708 218.599 180.708ZM227.653 188.124C229.662 188.124 231.052 187.053 231.052 185.379C231.052 183.587 229.478 183.102 228.005 182.7C226.699 182.298 226.163 182.148 226.163 181.578C226.163 180.976 226.766 180.624 227.519 180.624C228.323 180.624 229.227 180.959 230.031 181.478L230.834 180.105C229.88 179.486 228.708 179.067 227.519 179.067C225.594 179.067 224.255 180.172 224.255 181.779C224.255 183.353 225.443 183.872 227.335 184.374C228.357 184.642 229.16 184.877 229.16 185.563C229.16 186.166 228.608 186.551 227.687 186.551C226.749 186.551 225.661 186.166 224.724 185.496L223.853 186.835C224.908 187.656 226.331 188.124 227.653 188.124Z" fill="#6E7191"/>
<path d="M147.743 152.051C147.743 147.269 144.207 145.341 138.903 144.055V136.581C140.792 137.064 142.64 138.068 144.288 139.474L147.02 135.818C144.81 133.889 142.158 132.523 138.903 132.121V129.55H135.247V132.041C130.184 132.523 126.689 135.818 126.689 140.278C126.689 145.14 130.144 146.868 135.247 148.153V155.988C132.675 155.506 130.466 154.221 128.497 152.453L125.564 156.029C128.135 158.439 131.43 159.966 135.247 160.368V163.02H138.903V160.408C144.569 159.926 147.743 156.591 147.743 152.051ZM131.751 139.836C131.751 138.189 133.117 136.742 135.247 136.381V143.131C132.876 142.367 131.751 141.524 131.751 139.836ZM138.903 156.109V149.118C141.515 149.881 142.721 150.765 142.721 152.533C142.721 154.221 141.395 155.707 138.903 156.109ZM151.949 160.047H172.24V155.466H159.744L165.53 150.805C170.272 147.149 171.959 144.216 171.959 140.559C171.959 135.456 167.78 131.961 162.316 131.961C157.856 131.961 154.521 133.93 151.909 137.345L155.164 140.358C157.173 137.948 159.262 136.461 162.155 136.461C164.646 136.461 166.856 138.068 166.856 140.68C166.856 142.93 165.611 145.019 162.115 147.832L151.949 155.948V160.047ZM189.547 160.047H194.57V154.06H198.387V149.761H194.57V132.443H188.543L175.484 150.162L175.966 154.06H189.547V160.047ZM180.828 149.761L189.547 137.907V149.761H180.828ZM211.683 160.529C217.992 160.529 222.291 156.832 222.291 151.127C222.291 145.582 218.072 142.448 213.17 142.448C210.8 142.448 208.991 143.171 207.585 144.135L207.826 137.023H220.764V132.443H203.125L202.723 147.109L206.139 148.555C207.706 147.35 209.594 146.626 211.764 146.626C215.059 146.626 217.269 148.515 217.269 151.328C217.269 154.02 215.099 156.189 211.764 156.189C208.991 156.189 206.42 154.783 204.331 152.694L201.357 156.27C203.808 158.841 207.183 160.529 211.683 160.529ZM227.969 160.047H232.951V152.171L236.688 148.153L245.849 160.047H251.996L240.183 144.617L251.233 132.443H245.045L232.951 145.943V132.443H227.969V160.047Z" fill="#211F54"/>
<path d="M75.9213 167.477C75.9213 137.487 87.8349 108.725 109.041 87.5187C130.248 66.3123 159.01 54.3987 189 54.3987C218.99 54.3987 247.752 66.3123 268.959 87.5187C290.165 108.725 302.079 137.487 302.079 167.477" stroke="#FF4267" stroke-width="33.4835" stroke-linecap="round"/>
<path d="M264.173 83.0036C276.094 93.6121 285.635 106.624 292.168 121.183C298.701 135.742 302.079 151.52 302.079 167.477" stroke="#1DE4FF" stroke-width="33.4835" stroke-linecap="round"/>
<circle cx="71.6164" cy="227.65" r="6.02523" fill="#FF4267"/>
<path d="M90.4899 232.335C93.2735 232.335 94.8425 230.868 94.8425 228.793C94.8425 226.684 93.2229 225.908 90.8104 225.368C88.9715 224.946 88.128 224.609 88.128 223.664C88.128 222.854 88.904 222.162 90.085 222.162C91.2322 222.162 92.3963 222.652 93.3916 223.512L94.5388 221.977C93.3916 220.982 91.9914 220.357 90.1525 220.357C87.7231 220.357 86.0023 221.825 86.0023 223.85C86.0023 226.026 87.6556 226.718 90.0512 227.274C91.907 227.713 92.7337 228.033 92.7337 228.995C92.7337 229.822 91.9914 230.53 90.5742 230.53C89.0559 230.53 87.8243 229.923 86.7615 228.961L85.5299 230.463C86.8121 231.661 88.516 232.335 90.4899 232.335ZM102.682 223.428V228.708C102.682 229.771 101.737 230.598 100.557 230.598C99.4768 230.598 98.7345 229.771 98.7345 228.573V223.428H96.7269V228.978C96.7269 230.969 98.0597 232.352 99.9829 232.352C101.147 232.352 102.159 231.796 102.682 230.969V232.15H104.74V223.428H102.682ZM112.454 223.225C111.121 223.225 110.041 223.85 109.367 224.896V220.357H107.308V232.15H109.367V230.665C110.041 231.728 111.121 232.352 112.454 232.352C114.765 232.352 116.469 230.463 116.469 227.78C116.469 225.115 114.765 223.225 112.454 223.225ZM111.897 230.598C110.463 230.598 109.434 229.417 109.434 227.78C109.434 226.144 110.463 224.98 111.897 224.98C113.382 224.98 114.428 226.144 114.428 227.78C114.428 229.417 113.382 230.598 111.897 230.598ZM122.427 232.352C123.794 232.352 124.958 231.779 125.802 230.885L124.418 229.687C123.929 230.244 123.187 230.598 122.427 230.598C120.993 230.598 119.796 229.316 119.796 227.78C119.796 226.262 120.993 224.98 122.427 224.98C123.17 224.98 123.895 225.334 124.368 225.857L125.751 224.642C124.924 223.782 123.777 223.225 122.444 223.225C119.897 223.225 117.754 225.3 117.754 227.78C117.754 230.26 119.897 232.352 122.427 232.352ZM129.499 225.081V223.428H127.441V232.15H129.499V227.747C129.499 226.093 130.748 224.98 132.62 224.98V223.225C131.203 223.225 130.056 223.951 129.499 225.081ZM135.522 222.112C136.163 222.112 136.686 221.555 136.686 220.931C136.686 220.307 136.163 219.767 135.522 219.767C134.864 219.767 134.341 220.307 134.341 220.931C134.341 221.555 134.864 222.112 135.522 222.112ZM134.492 232.15H136.551V223.428H134.492V232.15ZM144.2 223.225C142.918 223.225 141.872 223.799 141.18 224.777V223.428H139.122V235.052H141.18V230.8C141.872 231.779 142.918 232.352 144.2 232.352C146.511 232.352 148.198 230.463 148.198 227.78C148.198 225.115 146.511 223.225 144.2 223.225ZM143.643 230.598C142.192 230.598 141.18 229.417 141.18 227.78C141.18 226.144 142.192 224.98 143.643 224.98C145.111 224.98 146.157 226.144 146.157 227.78C146.157 229.417 145.111 230.598 143.643 230.598ZM154.26 230.277C154.074 230.463 153.753 230.598 153.399 230.598C152.91 230.598 152.522 230.176 152.522 229.586V225.132H154.496V223.428H152.522V221.032H150.531V223.428H149.266V225.132H150.531V229.839C150.531 231.306 151.543 232.352 152.977 232.352C153.652 232.352 154.361 232.082 154.85 231.661L154.26 230.277ZM157.565 222.112C158.207 222.112 158.73 221.555 158.73 220.931C158.73 220.307 158.207 219.767 157.565 219.767C156.907 219.767 156.384 220.307 156.384 220.931C156.384 221.555 156.907 222.112 157.565 222.112ZM156.536 232.15H158.595V223.428H156.536V232.15ZM165.181 232.352C167.745 232.352 169.837 230.294 169.837 227.78C169.837 225.267 167.745 223.225 165.181 223.225C162.6 223.225 160.491 225.267 160.491 227.78C160.491 230.294 162.6 232.352 165.181 232.352ZM165.181 230.598C163.713 230.598 162.516 229.333 162.516 227.78C162.516 226.228 163.713 224.98 165.181 224.98C166.632 224.98 167.83 226.228 167.83 227.78C167.83 229.333 166.632 230.598 165.181 230.598ZM176.5 223.225C175.336 223.225 174.324 223.782 173.801 224.609V223.428H171.743V232.15H173.801V226.869C173.801 225.807 174.746 224.98 175.927 224.98C177.007 224.98 177.749 225.807 177.749 227.004V232.15H179.757V226.599C179.757 224.609 178.424 223.225 176.5 223.225ZM185.159 232.352C187.183 232.352 188.583 231.273 188.583 229.586C188.583 227.78 186.998 227.291 185.513 226.886C184.197 226.481 183.657 226.33 183.657 225.756C183.657 225.149 184.265 224.794 185.024 224.794C185.834 224.794 186.745 225.132 187.554 225.655L188.364 224.271C187.402 223.647 186.222 223.225 185.024 223.225C183.084 223.225 181.734 224.339 181.734 225.958C181.734 227.544 182.932 228.067 184.838 228.573C185.867 228.843 186.677 229.079 186.677 229.771C186.677 230.378 186.12 230.767 185.192 230.767C184.248 230.767 183.151 230.378 182.206 229.704L181.329 231.053C182.392 231.88 183.826 232.352 185.159 232.352Z" fill="#6E7191"/>
<circle cx="227.807" cy="227.65" r="6.02523" fill="#1DE4FF"/>
<path d="M242.665 232.15H244.757V228.253H247.709C250.173 228.253 252.045 226.667 252.045 224.406C252.045 222.146 250.173 220.56 247.709 220.56H242.665V232.15ZM244.757 226.313V222.5H247.456C248.89 222.5 249.886 223.225 249.886 224.406C249.886 225.587 248.89 226.313 247.456 226.313H244.757ZM256.084 225.081V223.428H254.025V232.15H256.084V227.747C256.084 226.093 257.332 224.98 259.205 224.98V223.225C257.788 223.225 256.64 223.951 256.084 225.081ZM265.092 232.352C267.656 232.352 269.748 230.294 269.748 227.78C269.748 225.267 267.656 223.225 265.092 223.225C262.511 223.225 260.402 225.267 260.402 227.78C260.402 230.294 262.511 232.352 265.092 232.352ZM265.092 230.598C263.624 230.598 262.427 229.333 262.427 227.78C262.427 226.228 263.624 224.98 265.092 224.98C266.543 224.98 267.741 226.228 267.741 227.78C267.741 229.333 266.543 230.598 265.092 230.598ZM278.099 220.357V224.794C277.424 223.816 276.361 223.225 275.079 223.225C272.751 223.225 271.064 225.115 271.064 227.78C271.064 230.463 272.751 232.352 275.079 232.352C276.361 232.352 277.424 231.762 278.099 230.767V232.15H280.157V220.357H278.099ZM275.619 230.598C274.151 230.598 273.105 229.417 273.105 227.78C273.105 226.144 274.151 224.98 275.619 224.98C277.069 224.98 278.082 226.144 278.082 227.78C278.082 229.417 277.069 230.598 275.619 230.598ZM288.495 223.428V228.708C288.495 229.771 287.55 230.598 286.369 230.598C285.29 230.598 284.547 229.771 284.547 228.573V223.428H282.54V228.978C282.54 230.969 283.873 232.352 285.796 232.352C286.96 232.352 287.972 231.796 288.495 230.969V232.15H290.553V223.428H288.495ZM297.12 232.352C298.486 232.352 299.65 231.779 300.494 230.885L299.11 229.687C298.621 230.244 297.879 230.598 297.12 230.598C295.686 230.598 294.488 229.316 294.488 227.78C294.488 226.262 295.686 224.98 297.12 224.98C297.862 224.98 298.587 225.334 299.06 225.857L300.443 224.642C299.616 223.782 298.469 223.225 297.136 223.225C294.589 223.225 292.446 225.3 292.446 227.78C292.446 230.26 294.589 232.352 297.12 232.352ZM306.216 230.277C306.03 230.463 305.71 230.598 305.355 230.598C304.866 230.598 304.478 230.176 304.478 229.586V225.132H306.452V223.428H304.478V221.032H302.487V223.428H301.222V225.132H302.487V229.839C302.487 231.306 303.5 232.352 304.934 232.352C305.609 232.352 306.317 232.082 306.806 231.661L306.216 230.277ZM311.512 232.352C313.537 232.352 314.937 231.273 314.937 229.586C314.937 227.78 313.351 227.291 311.867 226.886C310.551 226.481 310.011 226.33 310.011 225.756C310.011 225.149 310.618 224.794 311.377 224.794C312.187 224.794 313.098 225.132 313.908 225.655L314.718 224.271C313.756 223.647 312.575 223.225 311.377 223.225C309.437 223.225 308.088 224.339 308.088 225.958C308.088 227.544 309.286 228.067 311.192 228.573C312.221 228.843 313.031 229.079 313.031 229.771C313.031 230.378 312.474 230.767 311.546 230.767C310.601 230.767 309.505 230.378 308.56 229.704L307.683 231.053C308.746 231.88 310.18 232.352 311.512 232.352Z" fill="#6E7191"/>
</g>
<defs>
<clipPath id="clip0_2907_38303">
<rect width="378" height="284" fill="white"/>
</clipPath>
</defs>
</svg>
