<svg width="78" height="78" viewBox="0 0 78 78" fill="none" xmlns="http://www.w3.org/2000/svg">
<rect width="78" height="78" rx="17.3521" fill="#FF4267"/>
<g clip-path="url(#clip0_2976_37344)">
<path opacity="0.35" d="M55.4565 66.1052C61.897 66.1052 67.118 60.8842 67.118 54.4437C67.118 48.0032 61.897 42.7821 55.4565 42.7821C49.016 42.7821 43.7949 48.0032 43.7949 54.4437C43.7949 60.8842 49.016 66.1052 55.4565 66.1052Z" fill="white"/>
<path opacity="0.35" d="M39.1303 38.1175C45.5708 38.1175 50.7919 32.8965 50.7919 26.456C50.7919 20.0155 45.5708 14.7944 39.1303 14.7944C32.6898 14.7944 27.4688 20.0155 27.4688 26.456C27.4688 32.8965 32.6898 38.1175 39.1303 38.1175Z" fill="white"/>
<path d="M53.125 60.2745V48.6129C53.125 47.3255 54.1699 46.2806 55.4573 46.2806C56.7447 46.2806 57.7896 47.3255 57.7896 48.6129V60.2745C57.7896 61.5619 56.7447 62.6068 55.4573 62.6068C54.1699 62.6068 53.125 61.5619 53.125 60.2745Z" fill="white"/>
<path d="M49.6253 52.1115H61.2868C62.5743 52.1115 63.6191 53.1563 63.6191 54.4438C63.6191 55.7312 62.5743 56.7761 61.2868 56.7761H49.6253C48.3378 56.7761 47.293 55.7312 47.293 54.4438C47.293 53.1563 48.3378 52.1115 49.6253 52.1115Z" fill="white"/>
<path d="M43.7941 54.4437C43.7941 50.6118 45.6693 47.2392 48.5217 45.1145H25.1356C21.271 45.1145 18.1387 48.2468 18.1387 52.1114C18.1387 55.9761 21.271 59.1084 25.1356 59.1084H44.7783C44.1533 57.6787 43.7941 56.1043 43.7941 54.4437Z" fill="white"/>
</g>
<defs>
<clipPath id="clip0_2976_37344">
<rect width="55.9754" height="55.9754" fill="white" transform="translate(11.1426 10.1299)"/>
</clipPath>
</defs>
</svg>
