<svg width="388" height="110" viewBox="0 0 388 110" fill="none" xmlns="http://www.w3.org/2000/svg">
<g clip-path="url(#clip0_2976_38438)">
<rect width="388" height="110" fill="white"/>
<path d="M-9.0957 -6.00085H397.093V116.001H-9.0957V-6.00085Z" fill="#FFEBEF"/>
<mask id="mask0_2976_38438" style="mask-type:alpha" maskUnits="userSpaceOnUse" x="-7" y="-7" width="402" height="129">
<path d="M-6.59375 25.9991C-6.59375 8.32603 7.73314 -6.00085 25.4062 -6.00085H362.594C380.267 -6.00085 394.594 8.32603 394.594 25.9991V121.086H-6.59375V25.9991Z" fill="#7D42FB"/>
</mask>
<g mask="url(#mask0_2976_38438)">
<path opacity="0.3" fill-rule="evenodd" clip-rule="evenodd" d="M175.336 137.93C185.316 150.586 182.62 171.522 183.726 189.699C184.756 206.612 185.945 223.124 181.548 239.875C176.37 259.593 172.1 284.414 156.528 293.29C140.845 302.232 126.093 283.732 109.843 280.755C95.138 278.06 75.7829 289.743 66.1476 276.729C56.4104 263.577 67.9686 240.766 66.684 222.458C65.4995 205.576 53.6933 190.725 58.9578 174.255C64.3007 157.537 79.8296 149.099 92.9006 140.442C105.658 131.994 118.968 125.699 132.924 125.273C148.209 124.808 165.257 125.15 175.336 137.93Z" stroke="#FF4267"/>
<path opacity="0.3" fill-rule="evenodd" clip-rule="evenodd" d="M184.508 124.528C196.301 139.484 193.121 164.218 194.435 185.695C195.659 205.68 197.063 225.19 191.875 244.976C185.762 268.272 180.723 297.594 162.327 308.076C143.801 318.635 126.366 296.771 107.165 293.247C89.7901 290.058 66.9248 303.854 55.5376 288.474C44.0283 272.932 57.6796 245.984 56.1566 224.353C54.7538 204.407 40.7992 186.856 47.0151 167.399C53.3245 147.65 71.6689 137.687 87.11 127.465C102.181 117.488 117.905 110.055 134.394 109.557C152.454 109.014 172.597 109.424 184.508 124.528Z" stroke="#FF4267"/>
<path opacity="0.3" fill-rule="evenodd" clip-rule="evenodd" d="M194.036 110.608C207.715 127.954 204.029 156.632 205.559 181.536C206.979 204.709 208.613 227.331 202.598 250.272C195.516 277.281 189.681 311.281 168.353 323.43C146.871 335.667 126.65 310.312 104.386 306.22C84.238 302.517 57.7273 318.507 44.5206 300.67C31.1734 282.644 46.996 251.403 45.2263 226.322C43.5945 203.192 27.412 182.837 34.6147 160.28C41.9275 137.382 63.1967 125.835 81.0988 113.988C98.5736 102.424 116.804 93.8101 135.923 93.238C156.864 92.6113 180.221 93.0921 194.036 110.608Z" stroke="#FF4267"/>
<path opacity="0.3" fill-rule="evenodd" clip-rule="evenodd" d="M205.677 93.5969C221.661 113.863 217.363 147.363 219.149 176.454C220.814 203.523 222.728 229.95 215.706 256.747C207.438 288.295 200.625 328.01 175.712 342.196C150.62 356.485 126.996 326.863 100.987 322.076C77.4501 317.745 46.4846 336.416 31.0535 315.578C15.4588 294.517 33.9371 258.028 31.8649 228.729C29.9545 201.709 11.0468 177.929 19.4579 151.579C27.9948 124.834 52.8406 111.35 73.75 97.5156C94.1603 84.0121 115.456 73.9545 137.79 73.2911C162.252 72.5645 189.537 73.1325 205.677 93.5969Z" stroke="#FF4267"/>
<path opacity="0.3" fill-rule="evenodd" clip-rule="evenodd" d="M218.379 75.0387C236.874 98.4902 231.908 137.25 233.981 170.909C235.909 202.229 238.129 232.806 230.007 263.81C220.444 300.31 212.568 346.26 183.745 362.669C154.715 379.196 127.376 344.917 97.281 339.374C70.048 334.358 34.2217 355.955 16.3645 331.84C-1.68229 307.47 19.6918 265.255 17.2911 231.354C15.0768 200.092 -6.80373 172.573 2.92479 142.087C12.7993 111.144 41.5428 95.5479 65.7351 79.5455C89.3487 63.926 113.988 52.2928 139.828 51.5325C168.132 50.6949 199.701 51.3574 218.379 75.0387Z" stroke="#FF4267"/>
<path opacity="0.3" fill-rule="evenodd" clip-rule="evenodd" d="M230.726 56.9958C251.666 83.5469 246.048 127.419 248.397 165.518C250.584 200.97 253.1 235.582 243.909 270.677C233.089 311.991 224.174 364.002 191.554 382.572C158.693 401.275 127.743 362.469 93.6766 356.19C62.8491 350.508 22.2979 374.949 2.08165 347.651C-18.349 320.062 5.84147 272.279 3.12016 233.906C0.610594 198.518 -24.16 167.366 -13.151 132.859C-1.97661 97.8341 30.5582 80.1846 57.9402 62.0745C84.6684 44.3974 112.557 31.2337 141.808 30.3738C173.847 29.4327 209.582 30.1869 230.726 56.9958Z" stroke="#FF4267"/>
<path opacity="0.3" fill-rule="evenodd" clip-rule="evenodd" d="M242.016 40.4995C265.19 69.8802 258.975 118.428 261.577 160.59C263.999 199.821 266.786 238.122 256.617 276.954C244.648 322.671 234.787 380.224 198.691 400.769C162.329 421.462 128.078 378.517 90.3795 371.565C56.2658 365.274 11.3942 392.316 -10.9783 362.105C-33.5887 331.574 -6.82327 278.702 -9.83771 236.239C-12.6174 197.079 -40.0305 162.604 -27.8505 124.421C-15.4878 85.6647 20.5133 66.1379 50.8136 46.1009C80.3893 26.5425 111.249 11.9789 143.618 11.029C179.071 9.99216 218.616 10.8312 242.016 40.4995Z" stroke="#FF4267"/>
<path opacity="0.3" fill-rule="evenodd" clip-rule="evenodd" d="M254.01 22.973C279.558 55.3621 272.709 108.876 275.582 155.353C278.256 198.6 281.328 240.818 270.121 283.625C256.931 334.017 246.066 397.461 206.273 420.104C166.194 442.912 128.434 395.569 86.8789 387.902C49.2738 380.965 -0.187029 410.77 -24.8521 377.465C-49.7783 343.808 -20.2768 285.527 -23.6028 238.72C-26.6701 195.552 -56.8906 157.546 -43.4668 115.457C-29.8412 72.7362 9.84339 51.2146 43.2425 29.1295C75.8433 7.57479 109.86 -8.47845 145.542 -9.52014C184.623 -10.6617 228.215 -9.73352 254.01 22.973Z" stroke="#FF4267"/>
<path opacity="0.3" fill-rule="evenodd" clip-rule="evenodd" d="M267.066 3.89873C295.196 39.5622 287.66 98.4826 290.825 149.654C293.769 197.269 297.155 243.755 284.821 290.884C270.298 346.367 258.339 416.217 214.53 441.145C170.402 466.254 128.824 414.124 83.0694 405.68C41.6644 398.038 -12.7938 430.849 -39.9505 394.179C-67.3964 357.119 -34.9183 292.954 -38.5825 241.416C-41.9615 193.89 -75.2373 152.042 -60.4594 105.701C-45.4599 58.6656 -1.76791 34.9732 35.0049 10.66C70.8987 -13.0715 108.351 -30.7412 147.637 -31.8869C190.666 -33.1393 238.663 -32.1134 267.066 3.89873Z" stroke="#FF4267"/>
</g>
</g>
<defs>
<clipPath id="clip0_2976_38438">
<rect width="388" height="110" fill="white"/>
</clipPath>
</defs>
</svg>
