<svg width="546" height="496" viewBox="0 0 546 496" fill="none" xmlns="http://www.w3.org/2000/svg">
<g clip-path="url(#clip0_2907_38302)">
<rect width="546" height="496" fill="white"/>
<rect x="0.5" y="-0.381836" width="545" height="496.763" fill="white"/>
<path d="M49.2133 446.234C51.7613 446.234 53.9063 444.115 53.9063 441.606C53.9063 439.097 51.7613 436.991 49.2133 436.991C46.6783 436.991 44.5333 439.097 44.5333 441.606C44.5333 444.115 46.6783 446.234 49.2133 446.234ZM49.2133 444.752C47.5753 444.752 46.1843 443.322 46.1843 441.606C46.1843 439.903 47.5753 438.473 49.2133 438.473C50.8643 438.473 52.2423 439.903 52.2423 441.606C52.2423 443.322 50.8643 444.752 49.2133 444.752ZM58.6291 446.234C59.6821 446.234 60.5791 445.792 61.2291 445.103L60.1631 444.18C59.7861 444.609 59.2141 444.882 58.6291 444.882C57.5241 444.882 56.6011 443.894 56.6011 442.711C56.6011 441.541 57.5241 440.553 58.6291 440.553C59.2011 440.553 59.7601 440.826 60.1241 441.229L61.1901 440.293C60.5531 439.63 59.6691 439.201 58.6421 439.201C56.6791 439.201 55.0281 440.8 55.0281 442.711C55.0281 444.622 56.6791 446.234 58.6291 446.234ZM65.6384 444.635C65.4954 444.778 65.2484 444.882 64.9754 444.882C64.5984 444.882 64.2994 444.557 64.2994 444.102V440.67H65.8204V439.357H64.2994V437.511H62.7654V439.357H61.7904V440.67H62.7654V444.297C62.7654 445.428 63.5454 446.234 64.6504 446.234C65.1704 446.234 65.7164 446.026 66.0934 445.701L65.6384 444.635ZM70.4535 446.078H77.0185V444.596H72.9755L74.8475 443.088C76.3815 441.905 76.9275 440.956 76.9275 439.773C76.9275 438.122 75.5755 436.991 73.8075 436.991C72.3645 436.991 71.2855 437.628 70.4405 438.733L71.4935 439.708C72.1435 438.928 72.8195 438.447 73.7555 438.447C74.5615 438.447 75.2765 438.967 75.2765 439.812C75.2765 440.54 74.8735 441.216 73.7425 442.126L70.4535 444.752V446.078ZM82.2799 446.234C84.5679 446.234 86.1929 444.323 86.1929 441.606C86.1929 438.902 84.5679 436.991 82.2799 436.991C79.9789 436.991 78.3669 438.902 78.3669 441.606C78.3669 444.323 79.9789 446.234 82.2799 446.234ZM82.2799 444.752C80.9539 444.752 80.0179 443.452 80.0179 441.606C80.0179 439.76 80.9539 438.473 82.2799 438.473C83.6059 438.473 84.5289 439.76 84.5289 441.606C84.5289 443.452 83.6059 444.752 82.2799 444.752ZM87.3636 446.078H93.9286V444.596H89.8856L91.7576 443.088C93.2916 441.905 93.8376 440.956 93.8376 439.773C93.8376 438.122 92.4856 436.991 90.7176 436.991C89.2746 436.991 88.1956 437.628 87.3506 438.733L88.4036 439.708C89.0536 438.928 89.7296 438.447 90.6656 438.447C91.4716 438.447 92.1866 438.967 92.1866 439.812C92.1866 440.54 91.7836 441.216 90.6526 442.126L87.3636 444.752V446.078ZM95.0951 446.078H101.66V444.596H97.6171L99.4891 443.088C101.023 441.905 101.569 440.956 101.569 439.773C101.569 438.122 100.217 436.991 98.4491 436.991C97.0061 436.991 95.9271 437.628 95.0821 438.733L96.1351 439.708C96.7851 438.928 97.4611 438.447 98.3971 438.447C99.2031 438.447 99.9181 438.967 99.9181 439.812C99.9181 440.54 99.5151 441.216 98.3841 442.126L95.0951 444.752V446.078Z" fill="#4A4566"/>
<path d="M145.128 446.078H146.74V439.799L151.459 446.078H153.071V437.147H151.459V443.426L146.74 437.147H145.128V446.078ZM158.385 446.234C160.361 446.234 161.973 444.648 161.973 442.711C161.973 440.774 160.361 439.201 158.385 439.201C156.396 439.201 154.771 440.774 154.771 442.711C154.771 444.648 156.396 446.234 158.385 446.234ZM158.385 444.882C157.254 444.882 156.331 443.907 156.331 442.711C156.331 441.515 157.254 440.553 158.385 440.553C159.503 440.553 160.426 441.515 160.426 442.711C160.426 443.907 159.503 444.882 158.385 444.882ZM165.496 446.078H166.978L169.825 439.357H168.148L166.237 444.245L164.287 439.357H162.597L165.496 446.078ZM174.031 446.078H180.596V444.596H176.553L178.425 443.088C179.959 441.905 180.505 440.956 180.505 439.773C180.505 438.122 179.153 436.991 177.385 436.991C175.942 436.991 174.863 437.628 174.018 438.733L175.071 439.708C175.721 438.928 176.397 438.447 177.333 438.447C178.139 438.447 178.854 438.967 178.854 439.812C178.854 440.54 178.451 441.216 177.32 442.126L174.031 444.752V446.078ZM185.857 446.234C188.145 446.234 189.77 444.323 189.77 441.606C189.77 438.902 188.145 436.991 185.857 436.991C183.556 436.991 181.944 438.902 181.944 441.606C181.944 444.323 183.556 446.234 185.857 446.234ZM185.857 444.752C184.531 444.752 183.595 443.452 183.595 441.606C183.595 439.76 184.531 438.473 185.857 438.473C187.183 438.473 188.106 439.76 188.106 441.606C188.106 443.452 187.183 444.752 185.857 444.752ZM190.941 446.078H197.506V444.596H193.463L195.335 443.088C196.869 441.905 197.415 440.956 197.415 439.773C197.415 438.122 196.063 436.991 194.295 436.991C192.852 436.991 191.773 437.628 190.928 438.733L191.981 439.708C192.631 438.928 193.307 438.447 194.243 438.447C195.049 438.447 195.764 438.967 195.764 439.812C195.764 440.54 195.361 441.216 194.23 442.126L190.941 444.752V446.078ZM198.672 446.078H205.237V444.596H201.194L203.066 443.088C204.6 441.905 205.146 440.956 205.146 439.773C205.146 438.122 203.794 436.991 202.026 436.991C200.583 436.991 199.504 437.628 198.659 438.733L199.712 439.708C200.362 438.928 201.038 438.447 201.974 438.447C202.78 438.447 203.495 438.967 203.495 439.812C203.495 440.54 203.092 441.216 201.961 442.126L198.672 444.752V446.078Z" fill="#4A4566"/>
<path d="M249.138 446.078H252.271C255.222 446.078 257.302 444.219 257.302 441.606C257.302 438.993 255.222 437.147 252.271 437.147H249.138V446.078ZM250.75 444.609V438.616H252.44C254.325 438.616 255.651 439.851 255.651 441.606C255.651 443.361 254.325 444.609 252.44 444.609H250.75ZM261.936 444.96C260.896 444.96 260.155 444.232 259.986 443.179H265.199C265.199 440.735 263.977 439.201 261.897 439.201C259.973 439.201 258.452 440.67 258.452 442.698C258.452 444.765 260.051 446.234 261.988 446.234C262.963 446.234 264.133 445.818 264.718 445.194L263.808 444.258C263.379 444.674 262.612 444.96 261.936 444.96ZM261.91 440.475C262.924 440.475 263.522 441.177 263.665 442.126H259.999C260.207 441.125 260.948 440.475 261.91 440.475ZM269.695 446.234C270.748 446.234 271.645 445.792 272.295 445.103L271.229 444.18C270.852 444.609 270.28 444.882 269.695 444.882C268.59 444.882 267.667 443.894 267.667 442.711C267.667 441.541 268.59 440.553 269.695 440.553C270.267 440.553 270.826 440.826 271.19 441.229L272.256 440.293C271.619 439.63 270.735 439.201 269.708 439.201C267.745 439.201 266.094 440.8 266.094 442.711C266.094 444.622 267.745 446.234 269.695 446.234ZM276.619 446.078H283.184V444.596H279.141L281.013 443.088C282.547 441.905 283.093 440.956 283.093 439.773C283.093 438.122 281.741 436.991 279.973 436.991C278.53 436.991 277.451 437.628 276.606 438.733L277.659 439.708C278.309 438.928 278.985 438.447 279.921 438.447C280.727 438.447 281.442 438.967 281.442 439.812C281.442 440.54 281.039 441.216 279.908 442.126L276.619 444.752V446.078ZM288.445 446.234C290.733 446.234 292.358 444.323 292.358 441.606C292.358 438.902 290.733 436.991 288.445 436.991C286.144 436.991 284.532 438.902 284.532 441.606C284.532 444.323 286.144 446.234 288.445 446.234ZM288.445 444.752C287.119 444.752 286.183 443.452 286.183 441.606C286.183 439.76 287.119 438.473 288.445 438.473C289.771 438.473 290.694 439.76 290.694 441.606C290.694 443.452 289.771 444.752 288.445 444.752ZM293.529 446.078H300.094V444.596H296.051L297.923 443.088C299.457 441.905 300.003 440.956 300.003 439.773C300.003 438.122 298.651 436.991 296.883 436.991C295.44 436.991 294.361 437.628 293.516 438.733L294.569 439.708C295.219 438.928 295.895 438.447 296.831 438.447C297.637 438.447 298.352 438.967 298.352 439.812C298.352 440.54 297.949 441.216 296.818 442.126L293.529 444.752V446.078ZM301.261 446.078H307.826V444.596H303.783L305.655 443.088C307.189 441.905 307.735 440.956 307.735 439.773C307.735 438.122 306.383 436.991 304.615 436.991C303.172 436.991 302.093 437.628 301.248 438.733L302.301 439.708C302.951 438.928 303.627 438.447 304.563 438.447C305.369 438.447 306.084 438.967 306.084 439.812C306.084 440.54 305.681 441.216 304.55 442.126L301.261 444.752V446.078Z" fill="#4A4566"/>
<path d="M353.124 446.234C354.879 446.234 356.114 444.96 356.114 443.166V437.147H354.502V443.062C354.502 444.063 353.865 444.765 352.994 444.765C352.318 444.765 351.629 444.31 351.317 443.686L350.225 444.752C350.797 445.623 352.019 446.234 353.124 446.234ZM360.879 439.201C360.034 439.201 359.15 439.435 358.201 439.903L358.747 441.008C359.319 440.722 359.93 440.501 360.567 440.501C361.789 440.501 362.205 441.255 362.205 442.035V442.204C361.594 441.983 360.944 441.853 360.333 441.853C358.812 441.853 357.603 442.763 357.603 444.089C357.603 445.389 358.669 446.234 360.099 446.234C360.879 446.234 361.711 445.896 362.205 445.285V446.078H363.752V442.035C363.752 440.332 362.66 439.201 360.879 439.201ZM360.45 445.077C359.696 445.077 359.124 444.674 359.124 444.037C359.124 443.4 359.774 442.958 360.567 442.958C361.152 442.958 361.711 443.049 362.205 443.205V443.972C362.036 444.687 361.217 445.077 360.45 445.077ZM369.256 439.201C368.359 439.201 367.579 439.63 367.176 440.267V439.357H365.59V446.078H367.176V442.009C367.176 441.19 367.904 440.553 368.814 440.553C369.646 440.553 370.218 441.19 370.218 442.113V446.078H371.765V441.801C371.765 440.267 370.738 439.201 369.256 439.201ZM376.661 446.078H383.226V444.596H379.183L381.055 443.088C382.589 441.905 383.135 440.956 383.135 439.773C383.135 438.122 381.783 436.991 380.015 436.991C378.572 436.991 377.493 437.628 376.648 438.733L377.701 439.708C378.351 438.928 379.027 438.447 379.963 438.447C380.769 438.447 381.484 438.967 381.484 439.812C381.484 440.54 381.081 441.216 379.95 442.126L376.661 444.752V446.078ZM388.488 446.234C390.776 446.234 392.401 444.323 392.401 441.606C392.401 438.902 390.776 436.991 388.488 436.991C386.187 436.991 384.575 438.902 384.575 441.606C384.575 444.323 386.187 446.234 388.488 446.234ZM388.488 444.752C387.162 444.752 386.226 443.452 386.226 441.606C386.226 439.76 387.162 438.473 388.488 438.473C389.814 438.473 390.737 439.76 390.737 441.606C390.737 443.452 389.814 444.752 388.488 444.752ZM393.571 446.078H400.136V444.596H396.093L397.965 443.088C399.499 441.905 400.045 440.956 400.045 439.773C400.045 438.122 398.693 436.991 396.925 436.991C395.482 436.991 394.403 437.628 393.558 438.733L394.611 439.708C395.261 438.928 395.937 438.447 396.873 438.447C397.679 438.447 398.394 438.967 398.394 439.812C398.394 440.54 397.991 441.216 396.86 442.126L393.571 444.752V446.078ZM404.657 446.234C406.659 446.234 407.985 445.142 407.985 443.608C407.985 442.399 407.049 441.71 406.1 441.489C407.049 441.203 407.79 440.501 407.79 439.422C407.79 438.005 406.529 436.991 404.618 436.991C403.097 436.991 402.057 437.667 401.342 438.564L402.304 439.552C402.915 438.876 403.591 438.447 404.488 438.447C405.45 438.447 406.139 438.954 406.139 439.682C406.139 440.462 405.45 440.891 404.397 440.878H403.396V442.282L404.397 442.269C405.671 442.269 406.321 442.685 406.321 443.478C406.321 444.258 405.671 444.791 404.592 444.791C403.63 444.791 402.772 444.362 402.161 443.66L401.173 444.726C401.901 445.597 403.084 446.234 404.657 446.234Z" fill="#4A4566"/>
<path d="M457.879 438.629V437.147H451.158V446.078H452.783V442.373H457.385V440.891H452.783V438.629H457.879ZM462.369 444.96C461.329 444.96 460.588 444.232 460.419 443.179H465.632C465.632 440.735 464.41 439.201 462.33 439.201C460.406 439.201 458.885 440.67 458.885 442.698C458.885 444.765 460.484 446.234 462.421 446.234C463.396 446.234 464.566 445.818 465.151 445.194L464.241 444.258C463.812 444.674 463.045 444.96 462.369 444.96ZM462.343 440.475C463.357 440.475 463.955 441.177 464.098 442.126H460.432C460.64 441.125 461.381 440.475 462.343 440.475ZM471.012 439.201C469.985 439.201 469.153 439.682 468.633 440.488V436.991H467.047V446.078H468.633V444.934C469.153 445.753 469.985 446.234 471.012 446.234C472.793 446.234 474.106 444.778 474.106 442.711C474.106 440.657 472.793 439.201 471.012 439.201ZM470.583 444.882C469.478 444.882 468.685 443.972 468.685 442.711C468.685 441.45 469.478 440.553 470.583 440.553C471.727 440.553 472.533 441.45 472.533 442.711C472.533 443.972 471.727 444.882 470.583 444.882ZM478.677 446.078H485.242V444.596H481.199L483.071 443.088C484.605 441.905 485.151 440.956 485.151 439.773C485.151 438.122 483.799 436.991 482.031 436.991C480.588 436.991 479.509 437.628 478.664 438.733L479.717 439.708C480.367 438.928 481.043 438.447 481.979 438.447C482.785 438.447 483.5 438.967 483.5 439.812C483.5 440.54 483.097 441.216 481.966 442.126L478.677 444.752V446.078ZM490.504 446.234C492.792 446.234 494.417 444.323 494.417 441.606C494.417 438.902 492.792 436.991 490.504 436.991C488.203 436.991 486.591 438.902 486.591 441.606C486.591 444.323 488.203 446.234 490.504 446.234ZM490.504 444.752C489.178 444.752 488.242 443.452 488.242 441.606C488.242 439.76 489.178 438.473 490.504 438.473C491.83 438.473 492.753 439.76 492.753 441.606C492.753 443.452 491.83 444.752 490.504 444.752ZM495.587 446.078H502.152V444.596H498.109L499.981 443.088C501.515 441.905 502.061 440.956 502.061 439.773C502.061 438.122 500.709 436.991 498.941 436.991C497.498 436.991 496.419 437.628 495.574 438.733L496.627 439.708C497.277 438.928 497.953 438.447 498.889 438.447C499.695 438.447 500.41 438.967 500.41 439.812C500.41 440.54 500.007 441.216 498.876 442.126L495.587 444.752V446.078ZM506.673 446.234C508.675 446.234 510.001 445.142 510.001 443.608C510.001 442.399 509.065 441.71 508.116 441.489C509.065 441.203 509.806 440.501 509.806 439.422C509.806 438.005 508.545 436.991 506.634 436.991C505.113 436.991 504.073 437.667 503.358 438.564L504.32 439.552C504.931 438.876 505.607 438.447 506.504 438.447C507.466 438.447 508.155 438.954 508.155 439.682C508.155 440.462 507.466 440.891 506.413 440.878H505.412V442.282L506.413 442.269C507.687 442.269 508.337 442.685 508.337 443.478C508.337 444.258 507.687 444.791 506.608 444.791C505.646 444.791 504.788 444.362 504.177 443.66L503.189 444.726C503.917 445.597 505.1 446.234 506.673 446.234Z" fill="#4A4566"/>
<g opacity="0.7">
<line opacity="0.4" x1="32.6362" y1="169.882" x2="513.565" y2="169.882" stroke="#DCDDEB"/>
<line opacity="0.4" x1="32.6362" y1="209.882" x2="513.565" y2="209.882" stroke="#DCDDEB"/>
<line opacity="0.4" x1="32.6362" y1="249.882" x2="513.565" y2="249.882" stroke="#DCDDEB"/>
<line opacity="0.4" x1="32.6362" y1="289.882" x2="513.565" y2="289.882" stroke="#DCDDEB"/>
<line opacity="0.4" x1="32.6362" y1="329.882" x2="513.565" y2="329.882" stroke="#DCDDEB"/>
<line opacity="0.4" x1="32.6362" y1="369.882" x2="513.565" y2="369.882" stroke="#DCDDEB"/>
<line opacity="0.4" x1="33.063" y1="409.882" x2="513.991" y2="409.882" stroke="#DCDDEB"/>
</g>
<line x1="32.6362" y1="89.5461" x2="513.5" y2="89.5461" stroke="#DCDDEB"/>
<path d="M74.0585 305.849L32.5 283.908V437.078C32.5 439.84 34.7386 442.078 37.5 442.078H508.364C511.125 442.078 513.364 439.84 513.364 437.078V201.161L449.081 244.032L413.892 265.913C396.155 276.941 374.107 278.463 355.024 269.976L326.059 257.093C304.821 247.648 280.108 250.664 261.765 264.939L252.017 272.525C237.783 283.602 219.252 287.532 201.748 283.187C185.542 279.164 168.391 282.222 154.574 291.597L138.847 302.269C119.573 315.347 94.6561 316.724 74.0585 305.849Z" fill="url(#paint0_linear_2907_38302)" fill-opacity="0.7"/>
<path d="M34.9414 283.51L68.6153 301.788C92.5522 314.78 121.731 313.367 144.301 298.122L154.588 291.173C168.417 281.832 185.555 278.786 201.756 282.79V282.79C219.269 287.118 237.8 283.193 252.055 272.138L260.542 265.556C283.726 247.576 315.91 246.767 339.968 263.559V263.559C362.52 279.3 392.401 279.664 415.331 264.477L510.923 201.161" stroke="#7D42FB" stroke-width="5" stroke-linecap="round"/>
<rect x="365.806" y="256.765" width="27.2143" height="27.2143" rx="13.6071" fill="#7D42FB" stroke="white" stroke-width="3.55"/>
<g filter="url(#filter0_d_2907_38302)">
<path fill-rule="evenodd" clip-rule="evenodd" d="M295.428 145.201C291.159 145.201 287.699 148.662 287.699 152.931V221.042C287.699 225.311 291.159 228.771 295.428 228.771H371.311L377.59 236.416C378.363 237.357 379.804 237.357 380.577 236.416L386.856 228.771H461.291C465.56 228.771 469.021 225.311 469.021 221.042V152.931C469.021 148.662 465.56 145.201 461.291 145.201H295.428Z" fill="#FF0000" fill-opacity="0.01" shape-rendering="crispEdges"/>
</g>
<mask id="path-19-inside-1_2907_38302" fill="white">
<path fill-rule="evenodd" clip-rule="evenodd" d="M298.248 138.559C289.008 138.559 281.518 146.049 281.518 155.289V216.76C281.518 226 289.008 233.49 298.248 233.49H373.166L376.148 238.655C377.599 241.168 381.227 241.168 382.678 238.655L385.66 233.49H460.578C469.818 233.49 477.308 226 477.308 216.76V155.289C477.308 146.049 469.818 138.559 460.578 138.559H298.248Z"/>
</mask>
<path fill-rule="evenodd" clip-rule="evenodd" d="M298.248 138.559C289.008 138.559 281.518 146.049 281.518 155.289V216.76C281.518 226 289.008 233.49 298.248 233.49H373.166L376.148 238.655C377.599 241.168 381.227 241.168 382.678 238.655L385.66 233.49H460.578C469.818 233.49 477.308 226 477.308 216.76V155.289C477.308 146.049 469.818 138.559 460.578 138.559H298.248Z" fill="white"/>
<path d="M373.166 233.49L374.032 232.99L373.744 232.49H373.166V233.49ZM376.148 238.655L377.014 238.155L377.014 238.155L376.148 238.655ZM382.678 238.655L383.544 239.155L383.544 239.155L382.678 238.655ZM385.66 233.49V232.49H385.082L384.794 232.99L385.66 233.49ZM282.518 155.289C282.518 146.601 289.56 139.559 298.248 139.559V137.559C288.456 137.559 280.518 145.497 280.518 155.289H282.518ZM282.518 216.76V155.289H280.518V216.76H282.518ZM298.248 232.49C289.56 232.49 282.518 225.448 282.518 216.76H280.518C280.518 226.552 288.456 234.49 298.248 234.49V232.49ZM373.166 232.49H298.248V234.49H373.166V232.49ZM377.014 238.155L374.032 232.99L372.3 233.99L375.282 239.155L377.014 238.155ZM381.812 238.155C380.746 240.001 378.08 240.001 377.014 238.155L375.282 239.155C377.118 242.335 381.708 242.335 383.544 239.155L381.812 238.155ZM384.794 232.99L381.812 238.155L383.544 239.155L386.526 233.99L384.794 232.99ZM460.578 232.49H385.66V234.49H460.578V232.49ZM476.308 216.76C476.308 225.448 469.266 232.49 460.578 232.49V234.49C470.37 234.49 478.308 226.552 478.308 216.76H476.308ZM476.308 155.289V216.76H478.308V155.289H476.308ZM460.578 139.559C469.266 139.559 476.308 146.601 476.308 155.289H478.308C478.308 145.497 470.37 137.559 460.578 137.559V139.559ZM298.248 139.559H460.578V137.559H298.248V139.559Z" fill="#EFF0F7" mask="url(#path-19-inside-1_2907_38302)"/>
<path d="M344.838 205.704C346.458 205.704 347.598 204.528 347.598 202.872V197.316H346.11V202.776C346.11 203.7 345.522 204.348 344.718 204.348C344.094 204.348 343.458 203.928 343.17 203.352L342.162 204.336C342.69 205.14 343.818 205.704 344.838 205.704ZM351.996 199.212C351.216 199.212 350.4 199.428 349.524 199.86L350.028 200.88C350.556 200.616 351.12 200.412 351.708 200.412C352.836 200.412 353.22 201.108 353.22 201.828V201.984C352.656 201.78 352.056 201.66 351.492 201.66C350.088 201.66 348.972 202.5 348.972 203.724C348.972 204.924 349.956 205.704 351.276 205.704C351.996 205.704 352.764 205.392 353.22 204.828V205.56H354.648V201.828C354.648 200.256 353.64 199.212 351.996 199.212ZM351.6 204.636C350.904 204.636 350.376 204.264 350.376 203.676C350.376 203.088 350.976 202.68 351.708 202.68C352.248 202.68 352.764 202.764 353.22 202.908V203.616C353.064 204.276 352.308 204.636 351.6 204.636ZM359.728 199.212C358.9 199.212 358.18 199.608 357.808 200.196V199.356H356.344V205.56H357.808V201.804C357.808 201.048 358.48 200.46 359.32 200.46C360.088 200.46 360.616 201.048 360.616 201.9V205.56H362.044V201.612C362.044 200.196 361.096 199.212 359.728 199.212ZM366.564 205.56H372.624V204.192H368.892L370.62 202.8C372.036 201.708 372.54 200.832 372.54 199.74C372.54 198.216 371.292 197.172 369.66 197.172C368.328 197.172 367.332 197.76 366.552 198.78L367.524 199.68C368.124 198.96 368.748 198.516 369.612 198.516C370.356 198.516 371.016 198.996 371.016 199.776C371.016 200.448 370.644 201.072 369.6 201.912L366.564 204.336V205.56ZM377.793 205.56H379.293V203.772H380.433V202.488H379.293V197.316H377.493L373.593 202.608L373.737 203.772H377.793V205.56ZM375.189 202.488L377.793 198.948V202.488H375.189ZM382.532 207.264C383.348 206.4 383.684 205.776 383.684 205.128C383.684 204.372 383.288 203.82 382.676 203.82C382.16 203.82 381.74 204.252 381.74 204.756C381.74 205.272 382.16 205.704 382.664 205.704C382.556 206.088 382.316 206.472 381.968 206.832L382.532 207.264ZM388.396 205.56H394.456V204.192H390.724L392.452 202.8C393.868 201.708 394.372 200.832 394.372 199.74C394.372 198.216 393.124 197.172 391.492 197.172C390.16 197.172 389.164 197.76 388.384 198.78L389.356 199.68C389.956 198.96 390.58 198.516 391.444 198.516C392.188 198.516 392.848 198.996 392.848 199.776C392.848 200.448 392.476 201.072 391.432 201.912L388.396 204.336V205.56ZM399.313 205.704C401.425 205.704 402.925 203.94 402.925 201.432C402.925 198.936 401.425 197.172 399.313 197.172C397.189 197.172 395.701 198.936 395.701 201.432C395.701 203.94 397.189 205.704 399.313 205.704ZM399.313 204.336C398.089 204.336 397.225 203.136 397.225 201.432C397.225 199.728 398.089 198.54 399.313 198.54C400.537 198.54 401.389 199.728 401.389 201.432C401.389 203.136 400.537 204.336 399.313 204.336ZM404.006 205.56H410.066V204.192H406.334L408.062 202.8C409.478 201.708 409.982 200.832 409.982 199.74C409.982 198.216 408.734 197.172 407.102 197.172C405.77 197.172 404.774 197.76 403.994 198.78L404.966 199.68C405.566 198.96 406.19 198.516 407.054 198.516C407.798 198.516 408.458 198.996 408.458 199.776C408.458 200.448 408.086 201.072 407.042 201.912L404.006 204.336V205.56ZM414.238 205.704C416.086 205.704 417.31 204.696 417.31 203.28C417.31 202.164 416.446 201.528 415.57 201.324C416.446 201.06 417.13 200.412 417.13 199.416C417.13 198.108 415.966 197.172 414.202 197.172C412.798 197.172 411.838 197.796 411.178 198.624L412.066 199.536C412.63 198.912 413.254 198.516 414.082 198.516C414.97 198.516 415.606 198.984 415.606 199.656C415.606 200.376 414.97 200.772 413.998 200.76H413.074V202.056L413.998 202.044C415.174 202.044 415.774 202.428 415.774 203.16C415.774 203.88 415.174 204.372 414.178 204.372C413.29 204.372 412.498 203.976 411.934 203.328L411.022 204.312C411.694 205.116 412.786 205.704 414.238 205.704Z" fill="#6E7191"/>
<path d="M337.152 179.187C337.152 175.974 334.776 174.678 331.212 173.814V168.792C332.481 169.116 333.723 169.791 334.83 170.736L336.666 168.279C335.181 166.983 333.399 166.065 331.212 165.795V164.067H328.755V165.741C325.353 166.065 323.004 168.279 323.004 171.276C323.004 174.543 325.326 175.704 328.755 176.568V181.833C327.027 181.509 325.542 180.645 324.219 179.457L322.248 181.86C323.976 183.48 326.19 184.506 328.755 184.776V186.558H331.212V184.803C335.019 184.479 337.152 182.238 337.152 179.187ZM326.406 170.979C326.406 169.872 327.324 168.9 328.755 168.657V173.193C327.162 172.68 326.406 172.113 326.406 170.979ZM331.212 181.914V177.216C332.967 177.729 333.777 178.323 333.777 179.511C333.777 180.645 332.886 181.644 331.212 181.914ZM339.978 184.56H353.613V181.482H345.216L349.104 178.35C352.29 175.893 353.424 173.922 353.424 171.465C353.424 168.036 350.616 165.687 346.944 165.687C343.947 165.687 341.706 167.01 339.951 169.305L342.138 171.33C343.488 169.71 344.892 168.711 346.836 168.711C348.51 168.711 349.995 169.791 349.995 171.546C349.995 173.058 349.158 174.462 346.809 176.352L339.978 181.806V184.56ZM365.243 184.56H368.618V180.537H371.183V177.648H368.618V166.011H364.568L355.793 177.918L356.117 180.537H365.243V184.56ZM359.384 177.648L365.243 169.683V177.648H359.384ZM380.118 184.884C384.357 184.884 387.246 182.4 387.246 178.566C387.246 174.84 384.411 172.734 381.117 172.734C379.524 172.734 378.309 173.22 377.364 173.868L377.526 169.089H386.22V166.011H374.367L374.097 175.866L376.392 176.838C377.445 176.028 378.714 175.542 380.172 175.542C382.386 175.542 383.871 176.811 383.871 178.701C383.871 180.51 382.413 181.968 380.172 181.968C378.309 181.968 376.581 181.023 375.177 179.619L373.179 182.022C374.826 183.75 377.094 184.884 380.118 184.884ZM392.438 188.394C394.274 186.45 395.03 185.046 395.03 183.588C395.03 181.887 394.139 180.645 392.762 180.645C391.601 180.645 390.656 181.617 390.656 182.751C390.656 183.912 391.601 184.884 392.735 184.884C392.492 185.748 391.952 186.612 391.169 187.422L392.438 188.394ZM402.354 184.56H405.729V166.011H403.029L397.818 169.548L399.168 171.924L402.354 169.899V184.56ZM413.323 184.56H416.698V166.011H413.998L408.787 169.548L410.137 171.924L413.323 169.899V184.56ZM428.692 184.884C433.444 184.884 436.819 180.915 436.819 175.272C436.819 169.656 433.444 165.687 428.692 165.687C423.913 165.687 420.565 169.656 420.565 175.272C420.565 180.915 423.913 184.884 428.692 184.884ZM428.692 181.806C425.938 181.806 423.994 179.106 423.994 175.272C423.994 171.438 425.938 168.765 428.692 168.765C431.446 168.765 433.363 171.438 433.363 175.272C433.363 179.106 431.446 181.806 428.692 181.806Z" fill="#211F54"/>
<circle cx="372.563" cy="45.8293" r="5.96964" fill="#563AFF"/>
<circle cx="372.563" cy="45.8294" r="7.06279" fill="#7D42FB"/>
<path d="M389.039 49.3293H390.791V42.8457L393.997 48.7643L397.19 42.8457V49.3293H398.955V39.6251H397.19L393.997 45.5437L390.791 39.6251H389.039V49.3293ZM404.713 49.4989C406.86 49.4989 408.612 47.7755 408.612 45.6708C408.612 43.5661 406.86 41.8569 404.713 41.8569C402.552 41.8569 400.786 43.5661 400.786 45.6708C400.786 47.7755 402.552 49.4989 404.713 49.4989ZM404.713 48.0298C403.484 48.0298 402.482 46.9704 402.482 45.6708C402.482 44.3713 403.484 43.326 404.713 43.326C405.928 43.326 406.931 44.3713 406.931 45.6708C406.931 46.9704 405.928 48.0298 404.713 48.0298ZM414.191 41.8569C413.216 41.8569 412.369 42.3231 411.931 43.0152V42.0264H410.208V49.3293H411.931V44.908C411.931 44.0181 412.722 43.326 413.711 43.326C414.615 43.326 415.236 44.0181 415.236 45.021V49.3293H416.917V44.682C416.917 43.0152 415.801 41.8569 414.191 41.8569ZM422.33 47.7614C422.175 47.9168 421.907 48.0298 421.61 48.0298C421.2 48.0298 420.875 47.6767 420.875 47.1823V43.4531H422.528V42.0264H420.875V40.0206H419.209V42.0264H418.149V43.4531H419.209V47.3941C419.209 48.6231 420.056 49.4989 421.257 49.4989C421.822 49.4989 422.415 49.2728 422.825 48.9197L422.33 47.7614ZM428.22 41.8569C427.245 41.8569 426.398 42.3231 425.96 43.0152V39.4556H424.237V49.3293H425.96V44.908C425.96 44.0181 426.751 43.326 427.74 43.326C428.644 43.326 429.265 44.0181 429.265 45.021V49.3293H430.946V44.682C430.946 43.0152 429.83 41.8569 428.22 41.8569ZM432.941 49.3293H434.664V39.4556H432.941V49.3293ZM438.046 51.872C439.148 51.8578 439.995 51.2222 440.546 49.8379L443.64 42.0264H441.86L439.854 47.4789L437.721 42.0264H435.899L438.993 49.3858L438.682 50.0356C438.47 50.3888 438.159 50.5159 437.749 50.5159C437.481 50.5159 437.128 50.417 436.817 50.2475L436.45 51.4906C436.888 51.7307 437.495 51.872 438.046 51.872ZM450.487 43.4107V42.0264H448.763V49.3293H450.487V45.6426C450.487 44.2583 451.532 43.326 453.1 43.326V41.8569C451.913 41.8569 450.953 42.4643 450.487 43.4107ZM457.916 48.1145C456.786 48.1145 455.981 47.3235 455.797 46.1793H461.462C461.462 43.5237 460.134 41.8569 457.874 41.8569C455.783 41.8569 454.131 43.4531 454.131 45.6567C454.131 47.9027 455.868 49.4989 457.973 49.4989C459.032 49.4989 460.303 49.0468 460.939 48.3688L459.95 47.3518C459.484 47.8038 458.651 48.1145 457.916 48.1145ZM457.888 43.2412C458.99 43.2412 459.64 44.004 459.795 45.0352H455.811C456.037 43.9475 456.843 43.2412 457.888 43.2412ZM465.231 49.3293H466.841L469.935 42.0264H468.113L466.036 47.3376L463.917 42.0264H462.081L465.231 49.3293ZM474.428 48.1145C473.298 48.1145 472.493 47.3235 472.309 46.1793H477.974C477.974 43.5237 476.646 41.8569 474.386 41.8569C472.295 41.8569 470.643 43.4531 470.643 45.6567C470.643 47.9027 472.38 49.4989 474.485 49.4989C475.544 49.4989 476.815 49.0468 477.451 48.3688L476.462 47.3518C475.996 47.8038 475.163 48.1145 474.428 48.1145ZM474.4 43.2412C475.502 43.2412 476.152 44.004 476.307 45.0352H472.324C472.55 43.9475 473.355 43.2412 474.4 43.2412ZM483.495 41.8569C482.52 41.8569 481.672 42.3231 481.235 43.0152V42.0264H479.511V49.3293H481.235V44.908C481.235 44.0181 482.026 43.326 483.014 43.326C483.918 43.326 484.54 44.0181 484.54 45.021V49.3293H486.221V44.682C486.221 43.0152 485.105 41.8569 483.495 41.8569ZM493.047 42.0264V46.4477C493.047 47.3376 492.255 48.0298 491.267 48.0298C490.363 48.0298 489.741 47.3376 489.741 46.3347V42.0264H488.06V46.6737C488.06 48.3406 489.176 49.4989 490.786 49.4989C491.761 49.4989 492.609 49.0327 493.047 48.3406V49.3293H494.77V42.0264H493.047ZM500.169 48.1145C499.039 48.1145 498.234 47.3235 498.05 46.1793H503.714C503.714 43.5237 502.387 41.8569 500.126 41.8569C498.036 41.8569 496.383 43.4531 496.383 45.6567C496.383 47.9027 498.121 49.4989 500.225 49.4989C501.285 49.4989 502.556 49.0468 503.192 48.3688L502.203 47.3518C501.737 47.8038 500.903 48.1145 500.169 48.1145ZM500.141 43.2412C501.242 43.2412 501.892 44.004 502.048 45.0352H498.064C498.29 43.9475 499.095 43.2412 500.141 43.2412Z" fill="#211F54"/>
</g>
<defs>
<filter id="filter0_d_2907_38302" x="263.699" y="130.201" width="229.322" height="139.92" filterUnits="userSpaceOnUse" color-interpolation-filters="sRGB">
<feFlood flood-opacity="0" result="BackgroundImageFix"/>
<feColorMatrix in="SourceAlpha" type="matrix" values="0 0 0 0 0 0 0 0 0 0 0 0 0 0 0 0 0 0 127 0" result="hardAlpha"/>
<feOffset dy="9"/>
<feGaussianBlur stdDeviation="12"/>
<feComposite in2="hardAlpha" operator="out"/>
<feColorMatrix type="matrix" values="0 0 0 0 0.127552 0 0 0 0 0.123438 0 0 0 0 0.329167 0 0 0 0.04 0"/>
<feBlend mode="normal" in2="BackgroundImageFix" result="effect1_dropShadow_2907_38302"/>
<feBlend mode="normal" in="SourceGraphic" in2="effect1_dropShadow_2907_38302" result="shape"/>
</filter>
<linearGradient id="paint0_linear_2907_38302" x1="272.932" y1="201.161" x2="272.932" y2="382.078" gradientUnits="userSpaceOnUse">
<stop stop-color="#7D42FB" stop-opacity="0.34"/>
<stop offset="0.544509" stop-color="#7D42FB" stop-opacity="0.14"/>
<stop offset="1" stop-color="#7D42FB" stop-opacity="0"/>
</linearGradient>
<clipPath id="clip0_2907_38302">
<rect width="546" height="496" fill="white"/>
</clipPath>
</defs>
</svg>
