<svg width="522" height="482" viewBox="0 0 522 482" fill="none" xmlns="http://www.w3.org/2000/svg">
<rect width="522" height="482" fill="white"/>
<rect x="0.109619" y="0.160156" width="521.781" height="481.679" fill="white"/>
<rect opacity="0.7" x="38.6096" y="74.6689" width="444.781" height="176.705" rx="21.5" fill="white" stroke="#DCDDEB"/>
<path d="M215.064 174.796L187.565 196.355V223.011H451.551V133.252C443.857 119.163 424.138 117.823 414.61 130.743L407.174 140.824C398.089 153.142 379.753 153.377 370.355 141.297C364.851 134.222 355.752 130.971 347.011 132.955L336.132 135.424C325.263 137.892 315.884 144.715 310.191 154.296L308.379 157.345C305.252 162.609 300.879 167.023 295.645 170.199C284.492 176.969 270.616 177.43 259.038 171.416L257.867 170.807C244.051 163.631 227.316 165.19 215.064 174.796Z" fill="url(#paint0_linear_2918_23738)" fill-opacity="0.5"/>
<path d="M187.564 196.355L215.063 174.796C227.315 165.19 244.05 163.631 257.866 170.807L259.037 171.416C270.615 177.43 284.491 176.969 295.644 170.199V170.199C300.878 167.023 305.251 162.609 308.378 157.345L310.19 154.296C315.883 144.715 325.262 137.892 336.131 135.424L347.01 132.955C355.751 130.971 364.85 134.222 370.354 141.297V141.297C379.752 153.377 398.088 153.142 407.173 140.824L414.631 130.713C424.189 117.754 443.946 119.014 451.78 133.083V133.083" stroke="#7D42FB" stroke-width="3" stroke-linecap="round"/>
<path opacity="0.91" d="M77.2889 129.054C77.2889 127.312 75.8459 126.09 73.9479 126.09H70.0609V135.021H71.6729V132.018H73.1029L75.2089 135.021H77.0549L74.8709 131.914C76.3009 131.589 77.2889 130.497 77.2889 129.054ZM71.6729 127.585H73.7529C74.8579 127.585 75.6249 128.144 75.6249 129.054C75.6249 129.964 74.8579 130.523 73.7529 130.523H71.6729V127.585ZM81.9065 133.903C80.8665 133.903 80.1255 133.175 79.9565 132.122H85.1695C85.1695 129.678 83.9475 128.144 81.8675 128.144C79.9435 128.144 78.4225 129.613 78.4225 131.641C78.4225 133.708 80.0215 135.177 81.9585 135.177C82.9335 135.177 84.1035 134.761 84.6885 134.137L83.7785 133.201C83.3495 133.617 82.5825 133.903 81.9065 133.903ZM81.8805 129.418C82.8945 129.418 83.4925 130.12 83.6355 131.069H79.9695C80.1775 130.068 80.9185 129.418 81.8805 129.418ZM89.2754 128.144C88.4304 128.144 87.5464 128.378 86.5974 128.846L87.1434 129.951C87.7154 129.665 88.3264 129.444 88.9634 129.444C90.1854 129.444 90.6014 130.198 90.6014 130.978V131.147C89.9904 130.926 89.3404 130.796 88.7294 130.796C87.2084 130.796 85.9994 131.706 85.9994 133.032C85.9994 134.332 87.0654 135.177 88.4954 135.177C89.2754 135.177 90.1074 134.839 90.6014 134.228V135.021H92.1484V130.978C92.1484 129.275 91.0564 128.144 89.2754 128.144ZM88.8464 134.02C88.0924 134.02 87.5204 133.617 87.5204 132.98C87.5204 132.343 88.1704 131.901 88.9634 131.901C89.5484 131.901 90.1074 131.992 90.6014 132.148V132.915C90.4324 133.63 89.6134 134.02 88.8464 134.02ZM93.9858 135.021H95.5718V125.934H93.9858V135.021ZM100.699 133.578C100.556 133.721 100.309 133.825 100.036 133.825C99.6592 133.825 99.3602 133.5 99.3602 133.045V129.613H100.881V128.3H99.3602V126.454H97.8262V128.3H96.8512V129.613H97.8262V133.24C97.8262 134.371 98.6062 135.177 99.7112 135.177C100.231 135.177 100.777 134.969 101.154 134.644L100.699 133.578ZM103.247 127.286C103.741 127.286 104.144 126.857 104.144 126.376C104.144 125.895 103.741 125.479 103.247 125.479C102.74 125.479 102.337 125.895 102.337 126.376C102.337 126.857 102.74 127.286 103.247 127.286ZM102.454 135.021H104.04V128.3H102.454V135.021ZM113.795 128.144C112.742 128.144 111.936 128.781 111.754 129.743C111.403 128.768 110.545 128.144 109.479 128.144C108.634 128.144 107.945 128.56 107.607 129.21V128.3H106.021V135.021H107.607V130.9C107.607 130.081 108.218 129.496 109.076 129.496C109.843 129.496 110.389 130.12 110.389 131.004V135.021H111.923V130.9C111.923 130.081 112.534 129.496 113.405 129.496C114.172 129.496 114.705 130.12 114.705 131.004V135.021H116.252V130.744C116.252 129.223 115.199 128.144 113.795 128.144ZM121.059 133.903C120.019 133.903 119.278 133.175 119.109 132.122H124.322C124.322 129.678 123.1 128.144 121.02 128.144C119.096 128.144 117.575 129.613 117.575 131.641C117.575 133.708 119.174 135.177 121.111 135.177C122.086 135.177 123.256 134.761 123.841 134.137L122.931 133.201C122.502 133.617 121.735 133.903 121.059 133.903ZM121.033 129.418C122.047 129.418 122.645 130.12 122.788 131.069H119.122C119.33 130.068 120.071 129.418 121.033 129.418ZM133.737 128.3V132.369C133.737 133.188 133.009 133.825 132.099 133.825C131.267 133.825 130.695 133.188 130.695 132.265V128.3H129.148V132.577C129.148 134.111 130.175 135.177 131.657 135.177C132.554 135.177 133.334 134.748 133.737 134.111V135.021H135.323V128.3H133.737ZM139.629 135.177C141.189 135.177 142.268 134.345 142.268 133.045C142.268 131.654 141.046 131.277 139.902 130.965C138.888 130.653 138.472 130.536 138.472 130.094C138.472 129.626 138.94 129.353 139.525 129.353C140.149 129.353 140.851 129.613 141.475 130.016L142.099 128.95C141.358 128.469 140.448 128.144 139.525 128.144C138.03 128.144 136.99 129.002 136.99 130.25C136.99 131.472 137.913 131.875 139.382 132.265C140.175 132.473 140.799 132.655 140.799 133.188C140.799 133.656 140.37 133.955 139.655 133.955C138.927 133.955 138.082 133.656 137.354 133.136L136.678 134.176C137.497 134.813 138.602 135.177 139.629 135.177ZM146.716 133.903C145.676 133.903 144.935 133.175 144.766 132.122H149.979C149.979 129.678 148.757 128.144 146.677 128.144C144.753 128.144 143.232 129.613 143.232 131.641C143.232 133.708 144.831 135.177 146.768 135.177C147.743 135.177 148.913 134.761 149.498 134.137L148.588 133.201C148.159 133.617 147.392 133.903 146.716 133.903ZM146.69 129.418C147.704 129.418 148.302 130.12 148.445 131.069H144.779C144.987 130.068 145.728 129.418 146.69 129.418ZM152.98 129.574V128.3H151.394V135.021H152.98V131.628C152.98 130.354 153.942 129.496 155.385 129.496V128.144C154.293 128.144 153.409 128.703 152.98 129.574ZM159.155 135.177C160.715 135.177 161.794 134.345 161.794 133.045C161.794 131.654 160.572 131.277 159.428 130.965C158.414 130.653 157.998 130.536 157.998 130.094C157.998 129.626 158.466 129.353 159.051 129.353C159.675 129.353 160.377 129.613 161.001 130.016L161.625 128.95C160.884 128.469 159.974 128.144 159.051 128.144C157.556 128.144 156.516 129.002 156.516 130.25C156.516 131.472 157.439 131.875 158.908 132.265C159.701 132.473 160.325 132.655 160.325 133.188C160.325 133.656 159.896 133.955 159.181 133.955C158.453 133.955 157.608 133.656 156.88 133.136L156.204 134.176C157.023 134.813 158.128 135.177 159.155 135.177Z" fill="#6E7191"/>
<path d="M69.9659 177.249H85.1159V173.829H75.7859L80.1059 170.349C83.6459 167.619 84.9059 165.429 84.9059 162.699C84.9059 158.889 81.7859 156.279 77.7059 156.279C74.3759 156.279 71.8859 157.749 69.9359 160.299L72.3659 162.549C73.8659 160.749 75.4259 159.639 77.5859 159.639C79.4459 159.639 81.0959 160.839 81.0959 162.789C81.0959 164.469 80.1659 166.029 77.5559 168.129L69.9659 174.189V177.249ZM91.0477 181.509C93.0877 179.349 93.9277 177.789 93.9277 176.169C93.9277 174.279 92.9377 172.899 91.4077 172.899C90.1177 172.899 89.0677 173.979 89.0677 175.239C89.0677 176.529 90.1177 177.609 91.3777 177.609C91.1077 178.569 90.5077 179.529 89.6377 180.429L91.0477 181.509ZM105.245 177.609C109.865 177.609 112.925 175.089 112.925 171.549C112.925 168.759 110.765 167.169 108.575 166.659C110.765 165.999 112.475 164.379 112.475 161.889C112.475 158.619 109.565 156.279 105.155 156.279C101.645 156.279 99.245 157.839 97.595 159.909L99.815 162.189C101.225 160.629 102.785 159.639 104.855 159.639C107.075 159.639 108.665 160.809 108.665 162.489C108.665 164.289 107.075 165.279 104.645 165.249H102.335V168.489L104.645 168.459C107.585 168.459 109.085 169.419 109.085 171.249C109.085 173.049 107.585 174.279 105.095 174.279C102.875 174.279 100.895 173.289 99.485 171.669L97.205 174.129C98.885 176.139 101.615 177.609 105.245 177.609ZM125.119 177.609C130.399 177.609 134.149 173.199 134.149 166.929C134.149 160.689 130.399 156.279 125.119 156.279C119.809 156.279 116.089 160.689 116.089 166.929C116.089 173.199 119.809 177.609 125.119 177.609ZM125.119 174.189C122.059 174.189 119.899 171.189 119.899 166.929C119.899 162.669 122.059 159.699 125.119 159.699C128.179 159.699 130.309 162.669 130.309 166.929C130.309 171.189 128.179 174.189 125.119 174.189ZM146.541 164.079C144.441 164.079 142.491 164.949 141.201 166.389C141.471 162.369 143.511 159.579 146.421 159.579C148.221 159.579 149.511 160.329 150.771 161.439L152.601 158.589C150.951 157.179 149.001 156.279 146.421 156.279C141.081 156.279 137.331 160.929 137.331 167.289C137.331 173.229 139.911 177.609 145.791 177.609C150.231 177.609 153.471 174.669 153.471 170.589C153.471 166.479 150.321 164.079 146.541 164.079ZM145.611 174.429C143.121 174.429 141.831 172.719 141.381 169.959C141.981 168.249 143.541 167.139 145.551 167.139C147.801 167.139 149.661 168.489 149.661 170.739C149.661 172.629 148.131 174.429 145.611 174.429Z" fill="#211F54"/>
<path opacity="0.81" d="M77.0398 192.117H74.2407V189.272H72.5734V192.117H69.7743V193.708H72.5734V196.538H74.2407V193.708H77.0398V192.117ZM78.5638 198.021H86.2882V196.278H81.5312L83.7338 194.503C85.5387 193.112 86.1811 191.995 86.1811 190.603C86.1811 188.66 84.5903 187.33 82.5101 187.33C80.8123 187.33 79.5427 188.079 78.5485 189.379L79.7874 190.527C80.5522 189.609 81.3476 189.043 82.4489 189.043C83.3972 189.043 84.2385 189.655 84.2385 190.649C84.2385 191.505 83.7644 192.301 82.4336 193.372L78.5638 196.461V198.021ZM91.6069 198.205C93.9625 198.205 95.5227 196.92 95.5227 195.115C95.5227 193.693 94.4214 192.882 93.3048 192.622C94.4214 192.286 95.2932 191.46 95.2932 190.19C95.2932 188.523 93.8095 187.33 91.561 187.33C89.7714 187.33 88.5478 188.125 87.7065 189.18L88.8384 190.343C89.5573 189.548 90.3527 189.043 91.4081 189.043C92.54 189.043 93.3507 189.639 93.3507 190.496C93.3507 191.414 92.54 191.918 91.301 191.903H90.1232V193.555L91.301 193.54C92.8 193.54 93.5648 194.029 93.5648 194.962C93.5648 195.88 92.8 196.507 91.5305 196.507C90.3986 196.507 89.389 196.002 88.6701 195.176L87.5076 196.431C88.3642 197.456 89.7561 198.205 91.6069 198.205ZM99.7668 192.744C101.296 192.744 102.336 191.597 102.336 190.083C102.336 188.615 101.327 187.421 99.7821 187.421C98.2678 187.421 97.2124 188.599 97.2124 190.098C97.2124 191.567 98.2525 192.744 99.7668 192.744ZM98.5584 198.021H100.134L107.399 187.513H105.839L98.5584 198.021ZM99.7821 191.597C99.0785 191.597 98.5431 190.97 98.5431 190.098C98.5431 189.18 99.0632 188.569 99.7668 188.569C100.486 188.569 101.021 189.196 101.021 190.098C101.021 190.985 100.501 191.597 99.7821 191.597ZM106.145 198.174C107.644 198.174 108.715 197.012 108.715 195.498C108.715 194.045 107.69 192.836 106.16 192.836C104.631 192.836 103.591 194.029 103.591 195.513C103.591 197.012 104.631 198.174 106.145 198.174ZM106.16 197.027C105.426 197.027 104.906 196.4 104.906 195.498C104.906 194.626 105.411 193.999 106.145 193.999C106.864 193.999 107.399 194.626 107.399 195.513C107.399 196.415 106.879 197.027 106.16 197.027Z" fill="#05C168"/>
<path d="M125.51 196.09L120.668 191.249L115.826 196.09" stroke="#05C168" stroke-width="1.78451" stroke-linecap="round" stroke-linejoin="round"/>
<rect opacity="0.7" x="38.6096" y="271.825" width="444.781" height="176.705" rx="21.5" fill="white" stroke="#DCDDEB"/>
<path d="M221.72 381.955H187.564V410.428H457.983V309.927L421.63 344.855C404.041 361.755 378.923 368.28 355.332 362.078L299.963 347.52C283.171 343.106 265.418 349.729 255.621 364.063C247.969 375.259 235.282 381.955 221.72 381.955Z" fill="url(#paint1_linear_2918_23738)" fill-opacity="0.5"/>
<path d="M187.564 381.955H221.865C235.336 381.955 247.938 375.304 255.539 364.182V364.182C265.364 349.808 283.23 343.254 300.019 347.867L355.678 363.16C379.804 369.788 405.634 363.036 423.429 345.448L459.104 310.19" stroke="#FF4267" stroke-width="3" stroke-linecap="round"/>
<path opacity="0.91" d="M72.0629 332.177H73.6879V324.728H76.5349V323.246H69.2029V324.728H72.0629V332.177ZM81.0075 332.333C82.9835 332.333 84.5955 330.747 84.5955 328.81C84.5955 326.873 82.9835 325.3 81.0075 325.3C79.0185 325.3 77.3935 326.873 77.3935 328.81C77.3935 330.747 79.0185 332.333 81.0075 332.333ZM81.0075 330.981C79.8765 330.981 78.9535 330.006 78.9535 328.81C78.9535 327.614 79.8765 326.652 81.0075 326.652C82.1255 326.652 83.0485 327.614 83.0485 328.81C83.0485 330.006 82.1255 330.981 81.0075 330.981ZM89.2099 330.734C89.0669 330.877 88.8199 330.981 88.5469 330.981C88.1699 330.981 87.8709 330.656 87.8709 330.201V326.769H89.3919V325.456H87.8709V323.61H86.3369V325.456H85.3619V326.769H86.3369V330.396C86.3369 331.527 87.1169 332.333 88.2219 332.333C88.7419 332.333 89.2879 332.125 89.6649 331.8L89.2099 330.734ZM93.6553 325.3C92.8103 325.3 91.9263 325.534 90.9773 326.002L91.5233 327.107C92.0953 326.821 92.7063 326.6 93.3433 326.6C94.5653 326.6 94.9813 327.354 94.9813 328.134V328.303C94.3703 328.082 93.7203 327.952 93.1093 327.952C91.5883 327.952 90.3793 328.862 90.3793 330.188C90.3793 331.488 91.4453 332.333 92.8753 332.333C93.6553 332.333 94.4873 331.995 94.9813 331.384V332.177H96.5283V328.134C96.5283 326.431 95.4363 325.3 93.6553 325.3ZM93.2263 331.176C92.4723 331.176 91.9003 330.773 91.9003 330.136C91.9003 329.499 92.5503 329.057 93.3433 329.057C93.9283 329.057 94.4873 329.148 94.9813 329.304V330.071C94.8123 330.786 93.9933 331.176 93.2263 331.176ZM98.3657 332.177H99.9517V323.09H98.3657V332.177ZM107.542 332.177H109.024L111.871 325.456H110.194L108.283 330.344L106.333 325.456H104.643L107.542 332.177ZM113.809 324.442C114.303 324.442 114.706 324.013 114.706 323.532C114.706 323.051 114.303 322.635 113.809 322.635C113.302 322.635 112.899 323.051 112.899 323.532C112.899 324.013 113.302 324.442 113.809 324.442ZM113.016 332.177H114.602V325.456H113.016V332.177ZM118.91 332.333C120.47 332.333 121.549 331.501 121.549 330.201C121.549 328.81 120.327 328.433 119.183 328.121C118.169 327.809 117.753 327.692 117.753 327.25C117.753 326.782 118.221 326.509 118.806 326.509C119.43 326.509 120.132 326.769 120.756 327.172L121.38 326.106C120.639 325.625 119.729 325.3 118.806 325.3C117.311 325.3 116.271 326.158 116.271 327.406C116.271 328.628 117.194 329.031 118.663 329.421C119.456 329.629 120.08 329.811 120.08 330.344C120.08 330.812 119.651 331.111 118.936 331.111C118.208 331.111 117.363 330.812 116.635 330.292L115.959 331.332C116.778 331.969 117.883 332.333 118.91 332.333ZM123.8 324.442C124.294 324.442 124.697 324.013 124.697 323.532C124.697 323.051 124.294 322.635 123.8 322.635C123.293 322.635 122.89 323.051 122.89 323.532C122.89 324.013 123.293 324.442 123.8 324.442ZM123.007 332.177H124.593V325.456H123.007V332.177ZM129.721 330.734C129.578 330.877 129.331 330.981 129.058 330.981C128.681 330.981 128.382 330.656 128.382 330.201V326.769H129.903V325.456H128.382V323.61H126.848V325.456H125.873V326.769H126.848V330.396C126.848 331.527 127.628 332.333 128.733 332.333C129.253 332.333 129.799 332.125 130.176 331.8L129.721 330.734ZM133.802 332.333C135.362 332.333 136.441 331.501 136.441 330.201C136.441 328.81 135.219 328.433 134.075 328.121C133.061 327.809 132.645 327.692 132.645 327.25C132.645 326.782 133.113 326.509 133.698 326.509C134.322 326.509 135.024 326.769 135.648 327.172L136.272 326.106C135.531 325.625 134.621 325.3 133.698 325.3C132.203 325.3 131.163 326.158 131.163 327.406C131.163 328.628 132.086 329.031 133.555 329.421C134.348 329.629 134.972 329.811 134.972 330.344C134.972 330.812 134.543 331.111 133.828 331.111C133.1 331.111 132.255 330.812 131.527 330.292L130.851 331.332C131.67 331.969 132.775 332.333 133.802 332.333Z" fill="#6E7191"/>
<path d="M80.1959 374.405H83.9459V369.935H86.7959V366.725H83.9459V353.795H79.4459L69.6959 367.025L70.0559 369.935H80.1959V374.405ZM73.6859 366.725L80.1959 357.875V366.725H73.6859ZM97.2038 374.765C101.644 374.765 105.244 372.605 105.244 368.915C105.244 366.485 103.474 364.685 101.044 363.755C103.114 362.915 104.704 361.385 104.704 358.985C104.704 355.505 101.194 353.435 97.2038 353.435C93.3338 353.435 89.7338 355.445 89.7338 358.985C89.7338 361.325 91.2638 362.855 93.3938 363.755C90.9938 364.625 89.1938 366.425 89.1938 368.915C89.1938 372.575 92.7338 374.765 97.2038 374.765ZM97.2038 362.405C95.4938 362.315 93.4238 361.295 93.4238 359.465C93.4238 357.845 95.0438 356.615 97.2038 356.615C99.3638 356.615 101.014 357.845 101.014 359.465C101.014 361.265 98.9738 362.315 97.2038 362.405ZM97.2038 371.555C94.7738 371.555 92.9438 370.355 92.9438 368.555C92.9438 366.635 95.3138 365.495 97.2038 365.405C99.1238 365.495 101.464 366.635 101.464 368.555C101.464 370.355 99.6038 371.555 97.2038 371.555ZM117.355 374.765C122.635 374.765 126.385 370.355 126.385 364.085C126.385 357.845 122.635 353.435 117.355 353.435C112.045 353.435 108.325 357.845 108.325 364.085C108.325 370.355 112.045 374.765 117.355 374.765ZM117.355 371.345C114.295 371.345 112.135 368.345 112.135 364.085C112.135 359.825 114.295 356.855 117.355 356.855C120.415 356.855 122.545 359.825 122.545 364.085C122.545 368.345 120.415 371.345 117.355 371.345ZM130.797 374.405H134.517V368.525L137.307 365.525L144.147 374.405H148.737L139.917 362.885L148.167 353.795H143.547L134.517 363.875V353.795H130.797V374.405Z" fill="#211F54"/>
<path opacity="0.81" d="M77.0398 389.273H74.2407V386.428H72.5734V389.273H69.7743V390.864H72.5734V393.694H74.2407V390.864H77.0398V389.273ZM80.8887 395.177H82.8007V384.669H81.2711L78.319 386.673L79.0838 388.019L80.8887 386.872V395.177ZM89.7183 388.462C88.6475 388.462 87.6533 388.906 86.9956 389.64C87.1333 387.591 88.1734 386.168 89.6571 386.168C90.5748 386.168 91.2325 386.55 91.875 387.116L92.808 385.663C91.9667 384.944 90.9725 384.485 89.6571 384.485C86.9344 384.485 85.0224 386.856 85.0224 390.099C85.0224 393.128 86.3379 395.361 89.3359 395.361C91.5996 395.361 93.2516 393.862 93.2516 391.782C93.2516 389.686 91.6455 388.462 89.7183 388.462ZM89.2441 393.739C87.9745 393.739 87.3168 392.868 87.0874 391.46C87.3933 390.588 88.1887 390.023 89.2135 390.023C90.3607 390.023 91.309 390.711 91.309 391.858C91.309 392.822 90.5289 393.739 89.2441 393.739ZM97.3469 389.9C98.8765 389.9 99.9166 388.753 99.9166 387.239C99.9166 385.77 98.9071 384.577 97.3622 384.577C95.8479 384.577 94.7925 385.755 94.7925 387.254C94.7925 388.722 95.8326 389.9 97.3469 389.9ZM96.1386 395.177H97.714L104.98 384.669H103.419L96.1386 395.177ZM97.3622 388.753C96.6586 388.753 96.1233 388.126 96.1233 387.254C96.1233 386.336 96.6433 385.724 97.3469 385.724C98.0658 385.724 98.6012 386.352 98.6012 387.254C98.6012 388.141 98.0811 388.753 97.3622 388.753ZM103.725 395.33C105.224 395.33 106.295 394.168 106.295 392.653C106.295 391.2 105.27 389.992 103.741 389.992C102.211 389.992 101.171 391.185 101.171 392.669C101.171 394.168 102.211 395.33 103.725 395.33ZM103.741 394.183C103.006 394.183 102.486 393.556 102.486 392.653C102.486 391.782 102.991 391.154 103.725 391.154C104.444 391.154 104.98 391.782 104.98 392.669C104.98 393.571 104.46 394.183 103.741 394.183Z" fill="#05C168"/>
<path d="M123.51 393.246L118.668 388.404L113.826 393.246" stroke="#05C168" stroke-width="1.78451" stroke-linecap="round" stroke-linejoin="round"/>
<path d="M45.4249 51.2468C48.9011 51.2468 51.365 48.802 51.365 45.3449V37.8959H48.5382V45.2303C48.5382 47.2549 47.2394 48.6874 45.4249 48.6874C43.5913 48.6874 42.2925 47.2549 42.2925 45.2303V37.8959H39.4848V45.3449C39.4848 48.802 41.9296 51.2468 45.4249 51.2468ZM57.68 51.2468C60.1057 51.2468 61.7101 50.0053 61.7101 48.0571C61.7101 45.8988 59.8001 45.3258 58.1002 44.8865C56.7632 44.5236 56.2093 44.3708 56.2093 43.836C56.2093 43.2821 56.7823 42.9192 57.5463 42.9192C58.444 42.9192 59.5136 43.3585 60.4113 43.9315L61.4236 42.1361C60.3349 41.4103 58.9406 40.9137 57.5463 40.9137C55.197 40.9137 53.6881 42.2507 53.6881 44.1225C53.6881 46.0707 55.2543 46.6246 57.2789 47.1212C58.3676 47.3886 59.1698 47.656 59.1698 48.2863C59.1698 48.8593 58.6732 49.2031 57.7373 49.2031C56.6677 49.2031 55.3689 48.7256 54.3566 47.9998L53.2297 49.757C54.4139 50.712 56.0947 51.2468 57.68 51.2468ZM68.2027 49.0885C66.8466 49.0885 65.9298 48.1526 65.6815 46.8156H73.1114C73.1114 43.1484 71.2396 40.9137 68.1454 40.9137C65.2613 40.9137 63.0266 43.072 63.0266 46.0516C63.0266 49.0885 65.3568 51.2468 68.2982 51.2468C69.7498 51.2468 71.4497 50.6356 72.3283 49.7188L70.7621 48.1144C70.1318 48.6874 69.1195 49.0885 68.2027 49.0885ZM68.1836 43.072C69.4251 43.072 70.2082 43.9315 70.4374 45.1539H65.7006C66.0062 43.8933 66.9421 43.072 68.1836 43.072ZM77.7866 42.9956V41.1429H74.998V51.0176H77.7866V46.2999C77.7866 44.4472 79.1045 43.263 81.1673 43.263V40.9137C79.6584 40.9137 78.436 41.7159 77.7866 42.9956ZM86.8149 51.2468C89.2406 51.2468 90.845 50.0053 90.845 48.0571C90.845 45.8988 88.935 45.3258 87.2351 44.8865C85.8981 44.5236 85.3442 44.3708 85.3442 43.836C85.3442 43.2821 85.9172 42.9192 86.6812 42.9192C87.5789 42.9192 88.6485 43.3585 89.5462 43.9315L90.5585 42.1361C89.4698 41.4103 88.0755 40.9137 86.6812 40.9137C84.3319 40.9137 82.823 42.2507 82.823 44.1225C82.823 46.0707 84.3892 46.6246 86.4138 47.1212C87.5025 47.3886 88.3047 47.656 88.3047 48.2863C88.3047 48.8593 87.8081 49.2031 86.8722 49.2031C85.8026 49.2031 84.5038 48.7256 83.4915 47.9998L82.3646 49.757C83.5488 50.712 85.2296 51.2468 86.8149 51.2468ZM100.804 42.9956V41.1429H98.015V51.0176H100.804V46.2999C100.804 44.4472 102.121 43.263 104.184 43.263V40.9137C102.675 40.9137 101.453 41.7159 100.804 42.9956ZM110.749 49.0885C109.393 49.0885 108.476 48.1526 108.228 46.8156H115.657C115.657 43.1484 113.786 40.9137 110.691 40.9137C107.807 40.9137 105.573 43.072 105.573 46.0516C105.573 49.0885 107.903 51.2468 110.844 51.2468C112.296 51.2468 113.996 50.6356 114.874 49.7188L113.308 48.1144C112.678 48.6874 111.666 49.0885 110.749 49.0885ZM110.73 43.072C111.971 43.072 112.754 43.9315 112.983 45.1539H108.247C108.552 43.8933 109.488 43.072 110.73 43.072ZM123.656 40.9137C122.262 40.9137 121.116 41.5249 120.333 42.5563V41.1429H117.544V54.3028H120.333V49.6042C121.116 50.6356 122.262 51.2468 123.656 51.2468C126.292 51.2468 128.202 49.1076 128.202 46.0707C128.202 43.0529 126.292 40.9137 123.656 40.9137ZM122.854 48.8975C121.383 48.8975 120.333 47.7324 120.333 46.0707C120.333 44.4281 121.383 43.263 122.854 43.263C124.401 43.263 125.49 44.4281 125.49 46.0707C125.49 47.7324 124.401 48.8975 122.854 48.8975ZM134.945 51.2468C137.905 51.2468 140.331 48.9166 140.331 46.0707C140.331 43.2248 137.905 40.9137 134.945 40.9137C131.984 40.9137 129.559 43.2248 129.559 46.0707C129.559 48.9166 131.984 51.2468 134.945 51.2468ZM134.945 48.8975C133.455 48.8975 132.233 47.6178 132.233 46.0707C132.233 44.5236 133.455 43.263 134.945 43.263C136.435 43.263 137.638 44.5236 137.638 46.0707C137.638 47.6178 136.435 48.8975 134.945 48.8975ZM145.084 42.9956V41.1429H142.296V51.0176H145.084V46.2999C145.084 44.4472 146.402 43.263 148.465 43.263V40.9137C146.956 40.9137 145.734 41.7159 145.084 42.9956ZM155.526 48.5728C155.335 48.7638 154.953 48.8975 154.571 48.8975C154.055 48.8975 153.654 48.4391 153.654 47.7897V43.3967H155.793V41.1429H153.654V38.4307H150.961V41.1429H149.605V43.3967H150.961V48.229C150.961 50.0053 152.183 51.2468 153.941 51.2468C154.724 51.2468 155.621 50.903 156.194 50.3873L155.526 48.5728ZM161.611 51.2468C164.037 51.2468 165.641 50.0053 165.641 48.0571C165.641 45.8988 163.731 45.3258 162.031 44.8865C160.694 44.5236 160.14 44.3708 160.14 43.836C160.14 43.2821 160.713 42.9192 161.477 42.9192C162.375 42.9192 163.444 43.3585 164.342 43.9315L165.354 42.1361C164.266 41.4103 162.871 40.9137 161.477 40.9137C159.128 40.9137 157.619 42.2507 157.619 44.1225C157.619 46.0707 159.185 46.6246 161.21 47.1212C162.298 47.3886 163.101 47.656 163.101 48.2863C163.101 48.8593 162.604 49.2031 161.668 49.2031C160.599 49.2031 159.3 48.7256 158.287 47.9998L157.161 49.757C158.345 50.712 160.026 51.2468 161.611 51.2468Z" fill="#211F54"/>
<defs>
<linearGradient id="paint0_linear_2918_23738" x1="319.558" y1="103.032" x2="319.558" y2="223.011" gradientUnits="userSpaceOnUse">
<stop stop-color="#7D42FB"/>
<stop offset="1" stop-color="#7D42FB" stop-opacity="0"/>
</linearGradient>
<linearGradient id="paint1_linear_2918_23738" x1="322.773" y1="293.88" x2="322.773" y2="410.429" gradientUnits="userSpaceOnUse">
<stop stop-color="#FF4267"/>
<stop offset="1" stop-color="#FF4267" stop-opacity="0"/>
</linearGradient>
</defs>
</svg>
