<svg width="296" height="274" viewBox="0 0 296 274" fill="none" xmlns="http://www.w3.org/2000/svg">
<g clip-path="url(#clip0_2918_23739)">
<rect width="296" height="274" fill="white"/>
<rect x="-0.438477" y="-0.283203" width="296.877" height="274.566" fill="white"/>
<circle cx="44.5967" cy="236.394" r="6.95166" fill="#FF4267"/>
<path d="M64.4683 240.538C65.6803 240.538 66.7963 240.022 67.5883 239.194L66.5323 238.21C66.0043 238.798 65.2723 239.17 64.4683 239.17C62.9563 239.17 61.6723 237.85 61.6723 236.266C61.6723 234.694 62.9563 233.374 64.4683 233.374C65.2723 233.374 66.0043 233.746 66.5203 234.334L67.5883 233.338C66.7963 232.522 65.6803 232.006 64.4683 232.006C62.1283 232.006 60.1483 233.95 60.1483 236.266C60.1483 238.582 62.1283 240.538 64.4683 240.538ZM71.3936 234.046C70.6136 234.046 69.7976 234.262 68.9216 234.694L69.4256 235.714C69.9536 235.45 70.5176 235.246 71.1056 235.246C72.2336 235.246 72.6176 235.942 72.6176 236.662V236.818C72.0536 236.614 71.4536 236.494 70.8896 236.494C69.4856 236.494 68.3696 237.334 68.3696 238.558C68.3696 239.758 69.3536 240.538 70.6736 240.538C71.3936 240.538 72.1616 240.226 72.6176 239.662V240.394H74.0456V236.662C74.0456 235.09 73.0376 234.046 71.3936 234.046ZM70.9976 239.47C70.3016 239.47 69.7736 239.098 69.7736 238.51C69.7736 237.922 70.3736 237.514 71.1056 237.514C71.6456 237.514 72.1616 237.598 72.6176 237.742V238.45C72.4616 239.11 71.7056 239.47 70.9976 239.47ZM79.1256 234.046C78.2976 234.046 77.5776 234.442 77.2056 235.03V234.19H75.7416V240.394H77.2056V236.638C77.2056 235.882 77.8776 235.294 78.7176 235.294C79.4856 235.294 80.0136 235.882 80.0136 236.734V240.394H81.4416V236.446C81.4416 235.03 80.4936 234.046 79.1256 234.046ZM85.6201 234.046C84.8401 234.046 84.0241 234.262 83.1481 234.694L83.6521 235.714C84.1801 235.45 84.7441 235.246 85.3321 235.246C86.4601 235.246 86.8441 235.942 86.8441 236.662V236.818C86.2801 236.614 85.6801 236.494 85.1161 236.494C83.7121 236.494 82.5961 237.334 82.5961 238.558C82.5961 239.758 83.5801 240.538 84.9001 240.538C85.6201 240.538 86.3881 240.226 86.8441 239.662V240.394H88.2721V236.662C88.2721 235.09 87.2641 234.046 85.6201 234.046ZM85.2241 239.47C84.5281 239.47 84.0001 239.098 84.0001 238.51C84.0001 237.922 84.6001 237.514 85.3321 237.514C85.8721 237.514 86.3881 237.598 86.8441 237.742V238.45C86.6881 239.11 85.9321 239.47 85.2241 239.47ZM94.5522 232.006V235.162C94.0722 234.466 93.3162 234.046 92.4042 234.046C90.7482 234.046 89.5482 235.39 89.5482 237.286C89.5482 239.194 90.7482 240.538 92.4042 240.538C93.3162 240.538 94.0722 240.118 94.5522 239.41V240.394H96.0162V232.006H94.5522ZM92.7882 239.29C91.7442 239.29 91.0002 238.45 91.0002 237.286C91.0002 236.122 91.7442 235.294 92.7882 235.294C93.8202 235.294 94.5402 236.122 94.5402 237.286C94.5402 238.45 93.8202 239.29 92.7882 239.29ZM100.327 234.046C99.5472 234.046 98.7312 234.262 97.8552 234.694L98.3592 235.714C98.8872 235.45 99.4512 235.246 100.039 235.246C101.167 235.246 101.551 235.942 101.551 236.662V236.818C100.987 236.614 100.387 236.494 99.8232 236.494C98.4192 236.494 97.3032 237.334 97.3032 238.558C97.3032 239.758 98.2872 240.538 99.6072 240.538C100.327 240.538 101.095 240.226 101.551 239.662V240.394H102.979V236.662C102.979 235.09 101.971 234.046 100.327 234.046ZM99.9312 239.47C99.2352 239.47 98.7072 239.098 98.7072 238.51C98.7072 237.922 99.3072 237.514 100.039 237.514C100.579 237.514 101.095 237.598 101.551 237.742V238.45C101.395 239.11 100.639 239.47 99.9312 239.47Z" fill="#6E7191"/>
<circle cx="144.5" cy="236.394" r="6.95166" fill="#7D42FB"/>
<path d="M164.024 240.538C166.16 240.538 167.66 239.026 167.66 236.878V232.15H166.172V236.83C166.172 238.198 165.284 239.182 164.024 239.182C162.776 239.182 161.888 238.198 161.888 236.83V232.15H160.388V236.878C160.388 239.026 161.9 240.538 164.024 240.538ZM172.588 240.526C174.568 240.526 175.684 239.482 175.684 238.006C175.684 236.506 174.532 235.954 172.816 235.57C171.508 235.27 170.908 235.03 170.908 234.358C170.908 233.782 171.46 233.29 172.3 233.29C173.116 233.29 173.944 233.638 174.652 234.25L175.468 233.158C174.652 232.45 173.656 232.006 172.348 232.006C170.62 232.006 169.396 233.05 169.396 234.49C169.396 236.038 170.572 236.53 172.276 236.926C173.596 237.238 174.184 237.466 174.184 238.15C174.184 238.738 173.656 239.242 172.648 239.242C171.568 239.242 170.692 238.81 169.936 238.126L169.06 239.194C169.972 240.046 171.184 240.526 172.588 240.526ZM183.445 240.394H185.101L181.657 232.15H179.989L176.545 240.394H178.213L178.861 238.834H182.797L183.445 240.394ZM179.377 237.61L180.829 234.142L182.281 237.61H179.377Z" fill="#6E7191"/>
<circle cx="225.403" cy="236.394" r="6.95166" fill="#2FF2B8"/>
<path d="M244.927 240.538C247.063 240.538 248.563 239.026 248.563 236.878V232.15H247.075V236.83C247.075 238.198 246.187 239.182 244.927 239.182C243.679 239.182 242.791 238.198 242.791 236.83V232.15H241.291V236.878C241.291 239.026 242.803 240.538 244.927 240.538ZM250.636 240.394H252.124V238.042L253.24 236.842L255.976 240.394H257.812L254.284 235.786L257.584 232.15H255.736L252.124 236.182V232.15H250.636V240.394Z" fill="#6E7191"/>
<line x1="22.4883" y1="204.805" x2="273.512" y2="204.805" stroke="#EFF0F7"/>
<path d="M49.8105 108.219C49.8105 106.612 51.1134 105.309 52.7205 105.309V105.309C54.3277 105.309 55.6305 106.612 55.6305 108.219V205.304H49.8105V108.219Z" fill="#7D42FB"/>
<path d="M65.6304 154.448C65.6304 152.841 66.9332 151.538 68.5404 151.538V151.538C70.1475 151.538 71.4504 152.841 71.4504 154.448V205.304H65.6304V154.448Z" fill="#FF4267"/>
<path d="M81.4507 177.994C81.4507 176.386 82.7535 175.083 84.3607 175.083V175.083C85.9678 175.083 87.2707 176.386 87.2707 177.993V205.304H81.4507V177.994Z" fill="#2FF2B8"/>
<path d="M129.271 97.2132C129.271 95.6061 130.573 94.3032 132.181 94.3032V94.3032C133.788 94.3032 135.091 95.6061 135.091 97.2132V205.304H129.271V97.2132Z" fill="#7D42FB"/>
<path d="M145.09 125.95C145.09 124.342 146.393 123.04 148 123.04V123.04C149.607 123.04 150.91 124.342 150.91 125.95V205.304H145.09V125.95Z" fill="#FF4267"/>
<path d="M160.911 154.448C160.911 152.841 162.213 151.538 163.821 151.538V151.538C165.428 151.538 166.731 152.841 166.731 154.448V205.304H160.911V154.448Z" fill="#2FF2B8"/>
<path d="M208.73 66.5799C208.73 64.9728 210.033 63.6699 211.64 63.6699V63.6699C213.247 63.6699 214.55 64.9728 214.55 66.5799V205.305H208.73V66.5799Z" fill="#7D42FB"/>
<path d="M224.55 122.674C224.55 121.067 225.853 119.764 227.46 119.764V119.764C229.067 119.764 230.37 121.067 230.37 122.674V205.304H224.55V122.674Z" fill="#FF4267"/>
<path d="M240.37 109.182C240.37 107.575 241.672 106.272 243.28 106.272V106.272C244.887 106.272 246.19 107.575 246.19 109.182V205.304H240.37V109.182Z" fill="#2FF2B8"/>
<path d="M32.8493 34.0586L29.731 41.759L26.5967 34.0586H23.9557L28.4105 44.9888H31.0356L35.4904 34.0586H32.8493ZM38.2006 35.6337C38.8847 35.6337 39.4416 35.0609 39.4416 34.3609C39.4416 33.7086 38.8847 33.1199 38.2006 33.1199C37.4846 33.1199 36.9278 33.7086 36.9278 34.3609C36.9278 35.0609 37.4846 35.6337 38.2006 35.6337ZM37.0232 44.9888H39.3461V36.7633H37.0232V44.9888ZM44.5826 45.1797C46.6032 45.1797 47.9396 44.1455 47.9396 42.5227C47.9396 40.7249 46.3486 40.2476 44.9326 39.8817C43.8189 39.5794 43.3575 39.4521 43.3575 39.0066C43.3575 38.5452 43.8348 38.2429 44.4712 38.2429C45.219 38.2429 46.11 38.6089 46.8577 39.0862L47.701 37.5906C46.7941 36.986 45.6327 36.5724 44.4712 36.5724C42.5143 36.5724 41.2574 37.6861 41.2574 39.2453C41.2574 40.8681 42.562 41.3295 44.2485 41.7431C45.1554 41.9659 45.8236 42.1886 45.8236 42.7136C45.8236 43.1909 45.4099 43.4773 44.6303 43.4773C43.7394 43.4773 42.6575 43.0796 41.8143 42.475L40.8756 43.9387C41.862 44.7342 43.2621 45.1797 44.5826 45.1797ZM50.7546 35.6337C51.4387 35.6337 51.9955 35.0609 51.9955 34.3609C51.9955 33.7086 51.4387 33.1199 50.7546 33.1199C50.0386 33.1199 49.4818 33.7086 49.4818 34.3609C49.4818 35.0609 50.0386 35.6337 50.7546 35.6337ZM49.5772 44.9888H51.9001V36.7633H49.5772V44.9888ZM58.3139 42.9523C58.1548 43.1114 57.8366 43.2228 57.5184 43.2228C57.0888 43.2228 56.7547 42.8409 56.7547 42.3V38.6407H58.5367V36.7633H56.7547V34.5041H54.5114V36.7633H53.3818V38.6407H54.5114V42.6659C54.5114 44.1455 55.5297 45.1797 56.9934 45.1797C57.6457 45.1797 58.3935 44.8933 58.8708 44.4637L58.3139 42.9523ZM64.2894 45.1797C66.7554 45.1797 68.776 43.2387 68.776 40.8681C68.776 38.4975 66.7554 36.5724 64.2894 36.5724C61.8233 36.5724 59.8027 38.4975 59.8027 40.8681C59.8027 43.2387 61.8233 45.1797 64.2894 45.1797ZM64.2894 43.2228C63.0484 43.2228 62.0301 42.1568 62.0301 40.8681C62.0301 39.5794 63.0484 38.5293 64.2894 38.5293C65.5303 38.5293 66.5327 39.5794 66.5327 40.8681C66.5327 42.1568 65.5303 43.2228 64.2894 43.2228ZM72.7353 38.3066V36.7633H70.4125V44.9888H72.7353V41.059C72.7353 39.5157 73.8331 38.5293 75.5514 38.5293V36.5724C74.2945 36.5724 73.2763 37.2406 72.7353 38.3066ZM80.2558 45.1797C82.2764 45.1797 83.6128 44.1455 83.6128 42.5227C83.6128 40.7249 82.0218 40.2476 80.6058 39.8817C79.4921 39.5794 79.0307 39.4521 79.0307 39.0066C79.0307 38.5452 79.508 38.2429 80.1444 38.2429C80.8922 38.2429 81.7832 38.6089 82.5309 39.0862L83.3742 37.5906C82.4673 36.986 81.3059 36.5724 80.1444 36.5724C78.1875 36.5724 76.9306 37.6861 76.9306 39.2453C76.9306 40.8681 78.2352 41.3295 79.9217 41.7431C80.8286 41.9659 81.4968 42.1886 81.4968 42.7136C81.4968 43.1909 81.0831 43.4773 80.3035 43.4773C79.4126 43.4773 78.3307 43.0796 77.4875 42.475L76.5488 43.9387C77.5352 44.7342 78.9353 45.1797 80.2558 45.1797ZM94.7878 36.5724C93.5628 36.5724 92.5604 37.1292 91.9081 38.0679V33.8677H89.5853V44.9888H91.9081V43.6841C92.5604 44.6228 93.5628 45.1797 94.7878 45.1797C96.9834 45.1797 98.5585 43.3978 98.5585 40.8681C98.5585 38.3543 96.9834 36.5724 94.7878 36.5724ZM94.1196 43.2228C92.8786 43.2228 92.0195 42.2522 92.0195 40.8681C92.0195 39.4998 92.8786 38.5293 94.1196 38.5293C95.3924 38.5293 96.2993 39.4998 96.2993 40.8681C96.2993 42.2522 95.3924 43.2228 94.1196 43.2228ZM102.009 47.8526C103.298 47.8526 104.348 47.0093 104.968 45.4024L108.341 36.7633H105.971L103.918 42.5386L101.754 36.7633H99.352L102.773 45.0683L102.486 45.6729C102.311 45.9752 101.961 46.1184 101.516 46.1184C101.245 46.1184 100.832 45.9752 100.434 45.7524L99.9407 47.3434C100.498 47.6457 101.325 47.8526 102.009 47.8526ZM117.861 45.1797C119.245 45.1797 120.358 44.6228 121.17 43.7319L119.627 42.4273C119.197 42.9046 118.529 43.2228 117.892 43.2228C116.667 43.2228 115.649 42.1409 115.649 40.8522C115.649 39.5953 116.667 38.5293 117.876 38.5293C118.513 38.5293 119.165 38.8316 119.579 39.293L121.122 37.9725C120.327 37.1133 119.213 36.5724 117.892 36.5724C115.458 36.5724 113.39 38.5293 113.39 40.8681C113.39 43.2068 115.442 45.1797 117.861 45.1797ZM126.515 45.1797C128.982 45.1797 131.002 43.2387 131.002 40.8681C131.002 38.4975 128.982 36.5724 126.515 36.5724C124.049 36.5724 122.029 38.4975 122.029 40.8681C122.029 43.2387 124.049 45.1797 126.515 45.1797ZM126.515 43.2228C125.275 43.2228 124.256 42.1568 124.256 40.8681C124.256 39.5794 125.275 38.5293 126.515 38.5293C127.756 38.5293 128.759 39.5794 128.759 40.8681C128.759 42.1568 127.756 43.2228 126.515 43.2228ZM138 36.7633V41.6318C138 42.5227 137.253 43.2228 136.282 43.2228C135.359 43.2228 134.707 42.5227 134.707 41.5045V36.7633H132.48V41.9977C132.48 43.8751 133.736 45.1797 135.534 45.1797C136.584 45.1797 137.491 44.7183 138 43.9864V44.9888H140.323V36.7633H138ZM147.356 36.5724C146.29 36.5724 145.383 37.0338 144.874 37.7656V36.7633H142.551V44.9888H144.874V40.1203C144.874 39.2293 145.622 38.5293 146.592 38.5293C147.515 38.5293 148.168 39.2293 148.168 40.2476V44.9888H150.395V39.7544C150.395 37.877 149.138 36.5724 147.356 36.5724ZM156.648 42.9523C156.489 43.1114 156.171 43.2228 155.853 43.2228C155.423 43.2228 155.089 42.8409 155.089 42.3V38.6407H156.871V36.7633H155.089V34.5041H152.846V36.7633H151.716V38.6407H152.846V42.6659C152.846 44.1455 153.864 45.1797 155.328 45.1797C155.98 45.1797 156.728 44.8933 157.205 44.4637L156.648 42.9523ZM161.033 38.3066V36.7633H158.71V44.9888H161.033V41.059C161.033 39.5157 162.131 38.5293 163.849 38.5293V36.5724C162.592 36.5724 161.574 37.2406 161.033 38.3066ZM167.28 47.8526C168.569 47.8526 169.619 47.0093 170.24 45.4024L173.613 36.7633H171.242L169.19 42.5386L167.026 36.7633H164.623L168.044 45.0683L167.758 45.6729C167.583 45.9752 167.233 46.1184 166.787 46.1184C166.517 46.1184 166.103 45.9752 165.705 45.7524L165.212 47.3434C165.769 47.6457 166.596 47.8526 167.28 47.8526Z" fill="#211F54"/>
</g>
<defs>
<clipPath id="clip0_2918_23739">
<rect width="296" height="274" fill="white"/>
</clipPath>
</defs>
</svg>
