<svg width="64" height="64" viewBox="0 0 64 64" fill="none" xmlns="http://www.w3.org/2000/svg">
<path d="M41.0088 50.0163C41.0088 48.9564 41.225 47.9565 41.5613 47.0137H16.9873C13.6753 47.0137 10.9819 44.3203 10.9819 41.0083C10.9819 38.2158 12.9547 35.7536 15.6751 35.1501L15.6871 35.1471C16.1015 35.051 16.5399 35.0029 16.9873 35.0029H17.4978H32.8295H47.0141C53.6381 35.0029 59.0249 29.6161 59.0249 22.9922C59.0249 16.3683 53.6381 10.9814 47.0141 10.9814H22.4402C22.7765 11.9243 22.9927 12.9242 22.9927 13.9841C22.9927 15.0441 22.7765 16.044 22.4402 16.9868H47.0141C50.3261 16.9868 53.0195 19.6802 53.0195 22.9922C53.0195 26.3041 50.3261 28.9976 47.0141 28.9976H32.8295H17.4978H16.9873C16.0955 28.9976 15.2157 29.0936 14.366 29.2858V29.2828C14.363 29.2828 14.36 29.2858 14.3569 29.2858H14.3539C8.92209 30.5079 4.97656 35.4323 4.97656 41.0083C4.97656 47.6322 10.3634 53.019 16.9873 53.019H41.5613C41.225 52.0762 41.0088 51.0763 41.0088 50.0163Z" fill="#FF4267"/>
<path opacity="0.35" d="M13.9846 22.9917C18.9596 22.9917 22.9927 18.9587 22.9927 13.9836C22.9927 9.00863 18.9596 4.97559 13.9846 4.97559C9.00961 4.97559 4.97656 9.00863 4.97656 13.9836C4.97656 18.9587 9.00961 22.9917 13.9846 22.9917Z" fill="#FF4267"/>
<path opacity="0.35" d="M50.0159 59.0239C54.9909 59.0239 59.0239 54.9909 59.0239 50.0159C59.0239 45.0409 54.9909 41.0078 50.0159 41.0078C45.0409 41.0078 41.0078 45.0409 41.0078 50.0159C41.0078 54.9909 45.0409 59.0239 50.0159 59.0239Z" fill="#FF4267"/>
</svg>
