<svg width="68" height="68" viewBox="0 0 68 68" fill="none" xmlns="http://www.w3.org/2000/svg">
<path d="M28.7458 49.8123V35.3602H33.8409L34.6038 29.728H28.7457V26.132C28.7457 24.5013 29.2212 23.3901 31.6774 23.3901L34.81 23.3887V18.3513C34.2682 18.2828 32.4085 18.1294 30.2453 18.1294C25.7287 18.1294 22.6366 20.7541 22.6366 25.5744V29.728H17.5284V35.3602H22.6366V49.8121H28.7458V49.8123Z" fill="white"/>
<rect width="68" height="68" rx="16" fill="#4353FF"/>
<path d="M43.4513 28.3869C43.4513 28.3869 40.2813 38.3431 40.023 39.1649C39.9291 38.3196 37.6044 20.4502 37.6044 20.4502C32.2036 20.4502 29.3154 24.3012 27.7891 28.3634C27.7891 28.3634 23.9382 38.3431 23.6094 39.1884C23.586 38.4135 23.0224 28.4809 23.0224 28.4809C22.6937 23.5028 18.1383 20.4737 14.4517 20.4737L18.9131 47.5478C24.5722 47.5243 27.6248 43.6968 29.2215 39.6346C29.2215 39.6346 32.6263 30.829 32.7672 30.4298C32.7907 30.8055 35.2093 47.5478 35.2093 47.5478C40.8918 47.5478 43.9444 43.9551 45.5881 40.0337L53.5483 20.4737C47.9362 20.4737 44.9776 24.3012 43.4513 28.3869Z" fill="white"/>
</svg>
