<svg width="148" height="38" viewBox="0 0 148 38" fill="none" xmlns="http://www.w3.org/2000/svg">
<path d="M47.9663 14.9718C47.9663 12.3348 45.402 9.53408 40.9646 9.53408C35.9815 9.53408 30.5074 13.1895 29.6709 20.4822C28.8161 27.8477 33.399 31.1212 38.0184 31.1212C42.6377 31.1212 45.0565 29.3208 47.5298 26.9202C45.402 24.2468 42.6559 25.4835 42.1285 25.7563C41.5465 26.0473 40.8009 26.4474 39.2732 26.4474C37.491 26.4474 35.6723 25.6472 35.6723 22.3191C47.0933 21.1915 47.9663 17.6088 47.9663 14.9718ZM42.3103 15.4083C42.2376 16.2266 41.9102 17.627 36.127 18.409C37.3455 14.0807 39.6733 13.7533 40.7463 13.7533C41.7466 13.7533 42.3831 14.5353 42.3103 15.4083ZM22.9601 16.1175C22.9601 16.1175 20.5049 23.8285 20.3049 24.465C20.2322 23.8103 18.4317 9.97056 18.4317 9.97056C14.2489 9.97056 12.0119 12.9531 10.8298 16.0993C10.8298 16.0993 7.84727 23.8285 7.59266 24.4832C7.57448 23.8831 7.13801 16.1903 7.13801 16.1903C6.8834 12.3348 3.35525 9.98874 0.5 9.98874L3.9554 30.9576C8.3383 30.9394 10.7025 27.975 11.9392 24.8288C11.9392 24.8288 14.5762 18.0089 14.6853 17.6997C14.7035 17.9907 16.5767 30.9576 16.5767 30.9576C20.9778 30.9576 23.342 28.1751 24.6151 25.1379L30.7802 9.98874C26.4337 9.98874 24.1422 12.9531 22.9601 16.1175ZM64.1157 9.49771C61.406 9.49771 59.3327 10.9708 57.5868 13.135V13.1168L59.1509 0.513672C55.55 0.513672 52.622 3.64172 52.0582 8.29741L49.3303 30.7939C51.4035 30.7939 53.604 30.1937 54.7862 28.6661C55.841 30.0301 57.4232 31.1212 59.7692 31.1212C65.8434 31.1212 70.0081 24.065 70.0081 17.4451C69.9717 11.4073 67.0437 9.49771 64.1157 9.49771ZM63.552 20.3186C62.9154 24.0104 60.8604 26.5201 58.8781 26.5201C56.8776 26.5201 56.0228 25.629 56.0228 25.629C56.4047 22.3918 56.6412 20.4095 57.3686 18.7C58.0961 16.9905 59.8238 14.2625 61.6242 14.2625C63.3883 14.2625 64.1885 16.6086 63.552 20.3186ZM85.1755 9.98874H80.9381L80.9563 9.77051C81.2472 7.00619 81.902 5.55128 84.0661 5.31486C85.5392 5.16937 86.1939 4.40554 86.3576 3.56897C86.4849 2.91427 86.885 0.640976 86.885 0.640976C78.3738 0.586417 75.7004 4.26005 75.0093 9.86144L74.9912 9.98874H74.9002C73.5181 9.98874 71.9904 11.5528 71.7358 13.5351L71.6449 14.2625H74.4819L72.0995 33.9401L71.3721 37.4683C71.463 37.4683 71.5721 37.4865 71.6631 37.4865C75.6459 37.341 78.1919 34.1947 78.7557 29.63L80.6107 14.2625H81.9383C83.2477 14.2625 84.7754 12.9531 85.0482 10.7708L85.1755 9.98874ZM107.217 9.62502C102.325 9.62502 97.7059 13.2259 96.2873 18.8819C94.8688 24.5378 97.0148 31.2304 104.217 31.2304C111.4 31.2304 115.547 24.265 115.547 18.4636C115.547 12.6985 111.637 9.62502 107.217 9.62502ZM109.2 20.1367C108.945 22.701 107.817 26.5928 104.726 26.5928C101.616 26.5928 102.052 22.0463 102.362 19.8821C102.689 17.5724 103.98 14.2807 106.763 14.2807C109.254 14.2807 109.491 17.2451 109.2 20.1367ZM139.716 16.1175C139.716 16.1175 137.261 23.8285 137.061 24.465C136.988 23.8103 135.188 9.97056 135.188 9.97056C131.005 9.97056 128.768 12.9531 127.586 16.0993C127.586 16.0993 124.603 23.8285 124.349 24.4832C124.331 23.8831 123.894 16.1903 123.894 16.1903C123.64 12.3348 120.111 9.98874 117.256 9.98874L120.693 30.9576C125.076 30.9394 127.441 27.975 128.677 24.8288C128.677 24.8288 131.314 18.0089 131.405 17.6997C131.441 17.9907 133.296 30.9576 133.296 30.9576C137.698 30.9576 140.062 28.1751 141.335 25.1379L147.5 9.98874C143.172 9.98874 140.88 12.9531 139.716 16.1175ZM89.1765 0.640976L85.612 29.3935L84.8845 32.9399C84.9754 32.9399 85.0846 32.9581 85.1755 32.9581C89.0128 32.9035 91.7408 29.539 92.25 25.3016L94.305 8.80663C94.9234 3.76902 91.9226 0.640976 89.1765 0.640976Z" fill="#4353FF"/>
</svg>
