<svg width="180" height="46" viewBox="0 0 180 46" fill="none" xmlns="http://www.w3.org/2000/svg">
<g clip-path="url(#clip0_2944_28025)">
<path d="M58.1182 18.0667C58.1182 14.8373 54.9779 11.4074 49.5435 11.4074C43.441 11.4074 36.7371 15.8841 35.7126 24.8151C34.6658 33.8353 40.2783 37.8443 45.9354 37.8443C51.5925 37.8443 54.5547 35.6393 57.5837 32.6994C54.9779 29.4254 51.6148 30.9399 50.9689 31.274C50.2562 31.6304 49.3431 32.1204 47.4722 32.1204C45.2895 32.1204 43.0623 31.1404 43.0623 27.0646C57.0492 25.6837 58.1182 21.2962 58.1182 18.0667ZM51.1916 18.6012C51.1025 19.6035 50.7016 21.3184 43.6191 22.2761C45.1114 16.9754 47.9622 16.5745 49.2762 16.5745C50.5012 16.5745 51.2807 17.5322 51.1916 18.6012ZM27.4942 19.4699C27.4942 19.4699 24.4875 28.9132 24.2425 29.6927C24.1534 28.8909 21.9485 11.9419 21.9485 11.9419C16.8259 11.9419 14.0865 15.5945 12.6388 19.4476C12.6388 19.4476 8.98617 28.9132 8.67436 29.715C8.65209 28.98 8.11756 19.5589 8.11756 19.5589C7.80576 14.8373 3.48499 11.9642 -0.0117188 11.9642L4.21996 37.6438C9.58752 37.6215 12.4829 33.9912 13.9974 30.1381C13.9974 30.1381 17.2268 21.7861 17.3604 21.4075C17.3827 21.7639 19.6767 37.6438 19.6767 37.6438C25.0666 37.6438 27.9619 34.2362 29.521 30.5168L37.0712 11.9642C31.7482 11.9642 28.9419 15.5945 27.4942 19.4699ZM77.8958 11.3628C74.5772 11.3628 72.0382 13.1669 69.9001 15.8172V15.795L71.8155 0.360474C67.4057 0.360474 63.8199 4.19126 63.1294 9.89289L59.7886 37.4434C62.3276 37.4434 65.0225 36.7084 66.4702 34.8375C67.762 36.5079 69.6997 37.8443 72.5728 37.8443C80.0116 37.8443 85.1119 29.2027 85.1119 21.0957C85.0674 13.7014 81.4816 11.3628 77.8958 11.3628ZM77.2053 24.6147C76.4258 29.1359 73.9091 32.2094 71.4814 32.2094C69.0315 32.2094 67.9847 31.1181 67.9847 31.1181C68.4524 27.1537 68.742 24.726 69.6329 22.6325C70.5237 20.5389 72.6396 17.1981 74.8445 17.1981C77.0049 17.1981 77.9849 20.0712 77.2053 24.6147ZM103.687 11.9642H98.4974L98.5196 11.6969C98.876 8.31158 99.6778 6.52982 102.328 6.24028C104.132 6.06211 104.934 5.12668 105.134 4.10217C105.29 3.30038 105.78 0.516378 105.78 0.516378C95.357 0.449562 92.083 4.94851 91.2367 11.8083L91.2144 11.9642H91.1031C89.4104 11.9642 87.5395 13.8796 87.2277 16.3072L87.1164 17.1981H90.5908L87.6732 41.2964L86.7823 45.6172C86.8937 45.6172 87.0273 45.6395 87.1386 45.6395C92.0162 45.4613 95.1343 41.6082 95.8247 36.018L98.0965 17.1981H99.7223C101.326 17.1981 103.197 15.5945 103.531 12.9219L103.687 11.9642ZM130.68 11.5187C124.689 11.5187 119.032 15.9286 117.295 22.8552C115.558 29.7818 118.186 37.9779 127.006 37.9779C135.803 37.9779 140.881 29.4477 140.881 22.3429C140.881 15.2827 136.093 11.5187 130.68 11.5187ZM133.108 24.392C132.796 27.5323 131.415 32.2985 127.629 32.2985C123.821 32.2985 124.355 26.7305 124.734 24.0802C125.135 21.2516 126.716 17.2204 130.124 17.2204C133.175 17.2204 133.464 20.8507 133.108 24.392ZM170.481 19.4699C170.481 19.4699 167.474 28.9132 167.229 29.6927C167.14 28.8909 164.935 11.9419 164.935 11.9419C159.812 11.9419 157.073 15.5945 155.625 19.4476C155.625 19.4476 151.972 28.9132 151.661 29.715C151.638 28.98 151.104 19.5589 151.104 19.5589C150.792 14.8373 146.471 11.9642 142.975 11.9642L147.184 37.6438C152.552 37.6215 155.447 33.9912 156.961 30.1381C156.961 30.1381 160.191 21.7861 160.302 21.4075C160.347 21.7639 162.618 37.6438 162.618 37.6438C168.008 37.6438 170.904 34.2362 172.463 30.5168L180.013 11.9642C174.712 11.9642 171.906 15.5945 170.481 19.4699ZM108.587 0.516378L104.221 35.7284L103.33 40.0715C103.442 40.0715 103.575 40.0937 103.687 40.0937C108.386 40.0269 111.727 35.9066 112.351 30.7172L114.867 10.5165C115.625 4.34716 111.95 0.516378 108.587 0.516378Z" fill="#4353FF"/>
</g>
<defs>
<clipPath id="clip0_2944_28025">
<rect width="180" height="46" fill="white"/>
</clipPath>
</defs>
</svg>
