<svg width="68" height="68" viewBox="0 0 68 68" fill="none" xmlns="http://www.w3.org/2000/svg">
<rect width="68" height="68" rx="16" fill="#4ECE5D"/>
<path fill-rule="evenodd" clip-rule="evenodd" d="M42.28 37.603C41.8304 37.3779 39.6198 36.2904 39.2077 36.1401C38.7956 35.9901 38.4959 35.9152 38.1961 36.3652C37.8964 36.8152 37.0347 37.828 36.7724 38.1282C36.5102 38.4282 36.2479 38.4658 35.7983 38.2406C35.3487 38.0156 33.8999 37.5409 32.1826 36.009C30.846 34.8168 29.9436 33.3445 29.6814 32.8943C29.4191 32.4442 29.6533 32.2009 29.8784 31.9767C30.0808 31.7752 30.3282 31.4516 30.5529 31.189C30.7777 30.9265 30.8527 30.7388 31.0025 30.439C31.1524 30.1388 31.0775 29.8763 30.965 29.6513C30.8527 29.4262 29.9534 27.2131 29.5788 26.3127C29.2138 25.4361 28.8431 25.5548 28.5671 25.5409C28.3052 25.5279 28.0051 25.5251 27.7055 25.5251C27.4057 25.5251 26.9186 25.6377 26.5064 26.0877C26.0944 26.5378 24.9328 27.6257 24.9328 29.8386C24.9328 32.0518 26.5438 34.1897 26.7687 34.4897C26.9936 34.7899 29.9391 39.3313 34.4496 41.2788C35.5222 41.7421 36.3597 42.0187 37.0127 42.2259C38.0897 42.5682 39.0699 42.5198 39.8446 42.4041C40.7085 42.2751 42.5048 41.3165 42.8795 40.2663C43.2541 39.2158 43.2541 38.3156 43.1417 38.1282C43.0293 37.9406 42.7296 37.828 42.28 37.603V37.603ZM34.0762 48.8044H34.0702C31.3864 48.8034 28.7542 48.0823 26.4578 46.7197L25.9117 46.3955L20.2511 47.8804L21.762 42.3614L21.4064 41.7955C19.9093 39.4142 19.1185 36.6621 19.1197 33.836C19.123 25.5898 25.8324 18.8809 34.0821 18.8809C38.077 18.8824 41.8321 20.4401 44.656 23.2672C47.4797 26.0941 49.0339 29.8518 49.0324 33.8481C49.029 42.0949 42.3197 48.8044 34.0762 48.8044ZM46.8051 21.119C43.4078 17.7177 38.8898 15.8437 34.0761 15.8418C24.1577 15.8418 16.0855 23.9136 16.0814 33.8349C16.0801 37.0064 16.9087 40.1019 18.4834 42.8309L15.9307 52.1554L25.4697 49.6532C28.0981 51.0867 31.0572 51.8423 34.0689 51.8433H34.0763C43.9935 51.8433 52.0665 43.7708 52.0706 33.8493C52.0724 29.0412 50.2024 24.5202 46.8051 21.119" fill="white"/>
</svg>
