<svg width="34" height="34" viewBox="0 0 34 34" fill="none" xmlns="http://www.w3.org/2000/svg">
<rect width="34" height="34" rx="9.42857" fill="#FFCD42"/>
<ellipse opacity="0.5" cx="16.9998" cy="17.5154" rx="8.75758" ry="8.24242" fill="white"/>
<g clip-path="url(#clip0_2962_41641)">
<path d="M11.1773 9.57189C12.7483 8.52219 14.5953 7.96191 16.4847 7.96191C19.0183 7.96191 21.4481 8.96839 23.2397 10.7599C25.0312 12.5515 26.0377 14.9813 26.0377 17.5149C26.0377 19.4044 25.4774 21.2513 24.4277 22.8223C23.378 24.3933 21.886 25.6177 20.1405 26.3408C18.3949 27.0638 16.4741 27.253 14.621 26.8844C12.7679 26.5158 11.0657 25.606 9.72966 24.27C8.39365 22.9339 7.48381 21.2318 7.1152 19.3786C6.7466 17.5255 6.93578 15.6047 7.65883 13.8592C8.38187 12.1136 9.60631 10.6216 11.1773 9.57189ZM14.898 18.6716L14.9149 18.6891L14.933 18.7056L19.2234 22.6012C19.3785 22.7443 19.5602 22.8555 19.7582 22.9284C19.9576 23.0019 20.1697 23.0351 20.3821 23.0261C20.5945 23.0172 20.8031 22.9662 20.9956 22.8761C21.1882 22.7861 21.361 22.6587 21.5041 22.5015L20.9494 21.9968L21.5062 22.4992C21.7913 22.1831 21.9396 21.767 21.9185 21.3419C21.8974 20.9175 21.7093 20.5188 21.3953 20.2326C21.3947 20.2321 21.3941 20.2316 21.3936 20.2311L17.664 16.8075V12.7927C17.664 12.3661 17.4945 11.9569 17.1928 11.6553C16.8912 11.3536 16.482 11.1841 16.0554 11.1841C15.6288 11.1841 15.2196 11.3536 14.9179 11.6553C14.6163 11.9569 14.4468 12.3661 14.4468 12.7927V17.5007C14.4398 17.7128 14.4749 17.9242 14.55 18.1228C14.6275 18.3275 14.7459 18.5142 14.898 18.6716Z" fill="white" stroke="white" stroke-width="1.5"/>
</g>
<defs>
<clipPath id="clip0_2962_41641">
<rect width="20.6061" height="20.6061" fill="white" transform="translate(6.18164 7.21191)"/>
</clipPath>
</defs>
</svg>
