<svg width="126" height="28" viewBox="0 0 126 28" fill="none" xmlns="http://www.w3.org/2000/svg">
<path d="M21.0148 27.9641L12.7579 27.8122C10.0844 27.7593 7.40432 27.865 4.78338 27.3167C0.796149 26.4975 0.513693 22.4807 0.218098 19.1114C-0.189164 14.3745 -0.0315142 9.55169 0.73703 4.85444C1.17057 2.21843 2.87844 0.64607 5.51908 0.4743C14.4329 -0.146715 23.4058 -0.0740435 32.2999 0.216644C33.2392 0.243071 34.1851 0.388415 35.1113 0.553578C39.6832 1.35958 39.7949 5.91148 40.0904 9.74328C40.386 13.6147 40.2612 17.506 39.6963 21.351C39.2431 24.5353 38.376 27.2044 34.7172 27.462C30.1322 27.799 25.6523 28.0698 21.0542 27.9839C21.0542 27.9641 21.0279 27.9641 21.0148 27.9641V27.9641ZM16.1605 19.9041C19.6156 17.909 23.0051 15.9468 26.4406 13.9649C22.9788 11.9697 19.5959 10.0075 16.1605 8.02558V19.9041Z" fill="#A0A3BD"/>
<path d="M106.319 24.3434C106.162 24.9909 106.024 25.4996 105.886 26.0413H102.654V0.969238H106.424V10.2185C106.621 9.96744 106.72 9.86174 106.805 9.74942C107.449 8.85753 108.283 8.27615 109.36 8.05152C111.075 7.71459 112.54 8.47435 113.059 10.1326C113.394 11.1632 113.61 12.2665 113.637 13.3434C113.689 16.1116 113.65 18.8731 113.551 21.6413C113.512 22.487 113.256 23.3524 112.934 24.1452C111.876 26.7614 108.421 27.1578 106.707 24.8918C106.602 24.753 106.503 24.6011 106.319 24.3434V24.3434ZM106.503 17.4461V22.0311C106.503 22.7777 106.897 23.2335 107.639 23.4053C108.369 23.5771 108.96 23.293 109.255 22.6125C109.38 22.3284 109.505 22.0311 109.512 21.7338C109.584 18.9326 109.65 16.1314 109.669 13.3236C109.669 12.8017 109.544 12.2599 109.387 11.7512C109.091 10.8329 108.277 10.562 107.475 11.0972C106.871 11.5068 106.503 12.0882 106.503 12.8611V17.4461ZM96.2558 8.40828H100.204V26.0545H97.1229C97.0113 25.3873 96.8996 24.7002 96.7682 23.8942C96.558 24.2047 96.4332 24.4029 96.3018 24.6011C95.2771 26.0876 93.8254 26.5963 92.111 26.3254C90.6461 26.0876 89.7659 24.9512 89.5689 23.0882C89.5098 22.5332 89.4835 21.9716 89.4835 21.4167C89.4703 17.2876 89.4835 13.1452 89.4835 9.01609V8.39507H93.4773V9.11519C93.4773 13.1056 93.4641 17.0894 93.4904 21.0798C93.4904 21.6479 93.5495 22.2359 93.6481 22.8041C93.7597 23.3855 94.1801 23.5969 94.745 23.5572C95.6581 23.4846 96.2887 22.8041 96.2887 21.8924V9.18786C96.2558 8.9302 96.2558 8.69237 96.2558 8.40828V8.40828ZM69.0744 8.39507H73.0419V9.14161C73.0419 13.1122 73.0288 17.0762 73.055 21.0335C73.055 21.6017 73.1076 22.1897 73.2258 22.7446C73.3769 23.3987 73.7579 23.6101 74.4082 23.5242C75.3081 23.3987 75.8533 22.771 75.8599 21.8527V9.21429V8.42149H79.8077V26.0545H76.7401C76.6284 25.4005 76.5168 24.7266 76.3723 23.8744C76.1752 24.1716 76.0635 24.3434 75.9519 24.5218C74.9271 26.0347 73.4886 26.5897 71.7347 26.3188C70.329 26.1074 69.4685 25.0635 69.2058 23.3524C69.1335 22.8173 69.0809 22.2888 69.0809 21.7536C69.0678 17.4659 69.0678 13.1584 69.0678 8.87074L69.0744 8.39507ZM67.0381 17.8161C67.0249 18.4107 66.9855 19.0053 66.9527 19.5999C66.8016 21.3837 66.7293 23.914 65.2973 25.2155C64.3843 26.0347 63.2282 26.332 62.0327 26.3717C61.5006 26.3849 60.962 26.3849 60.4299 26.3122C57.9141 25.929 56.7448 24.8125 56.3244 22.0311C55.8449 18.8203 55.8055 15.5566 56.377 12.3458C56.9682 9.02269 59.0045 7.84672 62.1706 8.06474C65.1266 8.27615 66.4469 10.2251 66.795 12.9999C66.9855 14.5921 67.0775 16.2041 67.0381 17.8161V17.8161ZM63.018 17.2083C63.018 16.0786 63.0443 14.9422 63.0049 13.8125C62.9786 13.1584 62.8932 12.4978 62.7552 11.8503C62.5976 11.1038 62.1246 10.747 61.5335 10.7602C60.9554 10.7734 60.5481 11.1302 60.3379 11.8239C60.2657 12.0816 60.1869 12.3458 60.1869 12.6035C60.1869 14.374 60.1737 16.1512 60.1606 17.9218C60.1474 19.5734 59.9372 21.3044 60.4562 22.8834C60.6138 23.3656 61.0211 23.6299 61.5532 23.6299C62.0721 23.6299 62.4137 23.3722 62.6042 22.9098C62.7552 22.553 62.8866 22.1632 62.8866 21.7801C62.9326 20.2605 63.018 18.7344 63.018 17.2083ZM50.5308 13.8852C50.8789 12.174 51.2074 10.5026 51.5687 8.8245C52.0219 6.69056 52.5277 4.55663 52.9744 2.41609C53.086 1.89416 53.2962 1.76864 53.7889 1.78185C54.8465 1.82149 55.9237 1.79506 57.0536 1.79506C56.6857 3.15603 56.3244 4.45092 55.9697 5.726C54.8465 9.7296 53.7232 13.7464 52.6131 17.7632C52.5277 18.0737 52.4883 18.4107 52.4883 18.741C52.4752 20.9344 52.4883 23.1212 52.4883 25.3146V26.0281H48.6324C48.6193 25.8299 48.593 25.6317 48.593 25.4335C48.593 24.1915 48.4945 22.9428 48.6062 21.714C48.8886 18.7608 47.9559 16.0455 47.2004 13.2972C46.202 9.66354 45.1904 6.01669 44.192 2.38305C44.1394 2.21128 44.1197 2.0263 44.0672 1.81488H48.0018C48.8295 5.8251 49.6637 9.83531 50.5308 13.8852ZM125.973 18.49H119.325C119.398 19.8311 119.424 21.1062 119.562 22.368C119.66 23.2467 120.14 23.6233 120.895 23.6299C121.683 23.6431 122.143 23.2467 122.327 22.3747C122.386 22.0906 122.426 21.8065 122.452 21.5158C122.478 21.2581 122.491 20.9807 122.511 20.6107C123.634 20.6701 124.731 20.7362 125.815 20.7825C126.446 22.6653 125.309 25.0834 123.398 25.8299C121.894 26.4245 120.35 26.4245 118.813 25.9686C117.677 25.6317 116.829 24.905 116.448 23.7885C116.093 22.7446 115.758 21.6545 115.686 20.5644C115.489 17.8756 115.417 15.1602 115.824 12.4647C115.896 12.0155 116.021 11.5861 116.159 11.15C116.711 9.35303 117.913 8.24972 119.772 8.06474C120.784 7.96564 121.828 8.00528 122.826 8.17705C124.442 8.46113 125.303 9.6305 125.677 11.1632C125.848 11.8834 125.973 12.6233 125.999 13.3566C126.006 15.0413 125.973 16.7128 125.973 18.49ZM122.196 16.171C122.196 14.8431 122.209 13.5945 122.183 12.3392C122.183 12.0419 122.071 11.7314 121.959 11.4473C121.736 10.8924 121.27 10.7404 120.711 10.7404C120.153 10.7404 119.798 11.0245 119.66 11.5332C119.24 13.0593 119.378 14.6185 119.391 16.1843C120.396 16.171 121.309 16.171 122.196 16.171V16.171Z" fill="#A0A3BD"/>
<path d="M82.855 5.03253H78.9466V1.84814H90.6126V5.01271H86.7305V26.0284H82.8616L82.855 5.03253Z" fill="#A0A3BD"/>
</svg>
