<svg width="68" height="68" viewBox="0 0 68 68" fill="none" xmlns="http://www.w3.org/2000/svg">
<rect width="68" height="68" rx="16" fill="#FF3030"/>
<path fill-rule="evenodd" clip-rule="evenodd" d="M47.3658 22.6688C48.838 23.0648 49.9971 24.2315 50.3906 25.713L50.3904 25.7131C51.1054 28.3983 51.1054 34.001 51.1054 34.001C51.1054 34.001 51.1054 39.6034 50.3904 42.2889C49.997 43.7703 48.8378 44.9369 47.3657 45.3332C44.698 46.0525 33.9998 46.0525 33.9998 46.0525C33.9998 46.0525 23.3018 46.0525 20.6339 45.3332C19.1619 44.9368 18.0025 43.7703 17.6093 42.2887C16.8945 39.6032 16.8945 34.0008 16.8945 34.0008C16.8945 34.0008 16.8945 28.3982 17.6093 25.713C18.0025 24.2315 19.1619 23.0648 20.6341 22.6688C23.3019 21.9492 33.9999 21.9492 33.9999 21.9492C33.9999 21.9492 44.6981 21.9492 47.3658 22.6688ZM39.4424 34.0021L30.501 39.0885V28.915L39.4424 34.0021Z" fill="white"/>
</svg>
