<svg width="176" height="40" viewBox="0 0 176 40" fill="none" xmlns="http://www.w3.org/2000/svg">
<path d="M29.6777 39.4923L18.2081 39.2802C14.4944 39.2064 10.7716 39.354 7.13086 38.5886C1.59225 37.445 1.19989 31.8381 0.789286 27.1348C0.223563 20.5227 0.442552 13.7906 1.51013 7.23377C2.11235 3.5542 4.48473 1.35936 8.15281 1.11959C20.5348 0.252721 32.999 0.354163 45.3537 0.759931C46.6585 0.796819 47.9724 0.999703 49.259 1.23025C55.6097 2.35534 55.7648 8.70929 56.1754 14.0581C56.586 19.4621 56.4126 24.8939 55.6279 30.2611C54.9983 34.7061 53.7939 38.4318 48.7115 38.7915C42.3426 39.2618 36.1196 39.6399 29.7324 39.52C29.7324 39.4923 29.6959 39.4923 29.6777 39.4923V39.4923ZM22.9346 28.2415C27.7341 25.4564 32.4424 22.7175 37.2145 19.9509C32.4059 17.1659 27.7068 14.4269 22.9346 11.6603V28.2415Z" fill="#FF0000"/>
<path d="M148.175 34.4388C147.956 35.3426 147.764 36.0527 147.572 36.8089H143.083V1.81104H148.321V14.722C148.594 14.3715 148.731 14.224 148.85 14.0672C149.744 12.8222 150.903 12.0107 152.399 11.6971C154.781 11.2268 156.816 12.2873 157.536 14.6021C158.002 16.0407 158.303 17.5808 158.339 19.084C158.412 22.9481 158.358 26.8029 158.221 30.667C158.166 31.8474 157.81 33.0555 157.363 34.1621C155.894 37.8141 151.094 38.3674 148.713 35.2042C148.567 35.0106 148.43 34.7985 148.175 34.4388V34.4388ZM148.43 24.8109V31.2111C148.43 32.2532 148.978 32.8895 150.009 33.1293C151.021 33.369 151.843 32.9725 152.253 32.0226C152.427 31.6261 152.6 31.2111 152.609 30.7961C152.709 26.8859 152.801 22.9757 152.828 19.0563C152.828 18.3278 152.655 17.5716 152.436 16.8615C152.025 15.5796 150.894 15.2015 149.78 15.9485C148.941 16.5203 148.43 17.3318 148.43 18.4108V24.8109ZM134.196 12.1951H139.68V36.8273H135.4C135.245 35.8959 135.09 34.9368 134.907 33.8117C134.615 34.2451 134.442 34.5218 134.26 34.7985C132.836 36.8734 130.82 37.5835 128.438 37.2054C126.403 36.8734 125.181 35.2872 124.907 32.6866C124.825 31.9119 124.788 31.1281 124.788 30.3534C124.77 24.5896 124.788 18.8073 124.788 13.0435V12.1767H130.336V13.1819C130.336 18.752 130.318 24.3129 130.354 29.8831C130.354 30.6762 130.436 31.4969 130.573 32.29C130.728 33.1016 131.312 33.3967 132.097 33.3414C133.365 33.2399 134.241 32.29 134.241 31.0174V13.2833C134.196 12.9237 134.196 12.5917 134.196 12.1951V12.1951ZM96.4383 12.1767H101.95V13.2188C101.95 18.7612 101.931 24.2945 101.968 29.8185C101.968 30.6116 102.041 31.4324 102.205 32.207C102.415 33.12 102.944 33.4151 103.847 33.2953C105.098 33.12 105.855 32.2439 105.864 30.9621V13.3202V12.2136H111.348V36.8273H107.087C106.932 35.9143 106.776 34.9737 106.576 33.784C106.302 34.199 106.147 34.4388 105.992 34.6878C104.568 36.7996 102.57 37.5743 100.134 37.1962C98.1811 36.9011 96.9858 35.444 96.6208 33.0555C96.5205 32.3085 96.4475 31.5707 96.4475 30.8237C96.4292 24.8386 96.4292 18.8258 96.4292 12.8407L96.4383 12.1767ZM93.6097 25.3274C93.5915 26.1574 93.5367 26.9873 93.4911 27.8173C93.2812 30.3073 93.1809 33.8394 91.1917 35.6561C89.9234 36.7996 88.3175 37.2146 86.6568 37.27C85.9177 37.2884 85.1695 37.2884 84.4304 37.187C80.9357 36.6521 79.3116 35.0936 78.7276 31.2111C78.0615 26.7291 78.0067 22.1734 78.8006 17.6915C79.6218 13.0528 82.4504 11.4112 86.8484 11.7156C90.9545 12.0107 92.7885 14.7312 93.2721 18.6045C93.5367 20.827 93.6645 23.0772 93.6097 25.3274V25.3274ZM88.0255 24.4789C88.0255 22.902 88.062 21.3158 88.0073 19.7388C87.9708 18.8258 87.8521 17.9036 87.6605 16.9998C87.4415 15.9577 86.7846 15.4597 85.9634 15.4782C85.1604 15.4966 84.5947 15.9946 84.3027 16.9629C84.2023 17.3226 84.0928 17.6915 84.0928 18.0511C84.0928 20.5227 84.0746 23.0034 84.0563 25.4749C84.0381 27.7804 83.7461 30.1966 84.4669 32.4007C84.6859 33.0739 85.2516 33.4428 85.9907 33.4428C86.7116 33.4428 87.186 33.0831 87.4507 32.4376C87.6605 31.9396 87.843 31.3955 87.843 30.8606C87.9069 28.7395 88.0255 26.6092 88.0255 24.4789ZM70.6797 19.8402C71.1633 17.4517 71.6196 15.1185 72.1214 12.7761C72.751 9.79737 73.4536 6.81863 74.0741 3.83067C74.2292 3.10213 74.5212 2.92691 75.2055 2.94535C76.6746 3.00068 78.171 2.9638 79.7404 2.9638C79.2294 4.86355 78.7276 6.67108 78.2349 8.45094C76.6746 14.0395 75.1143 19.6466 73.5722 25.2536C73.4536 25.687 73.3988 26.1574 73.3988 26.6185C73.3806 29.6802 73.3988 32.7327 73.3988 35.7944V36.7904H68.0427C68.0245 36.5138 67.988 36.2371 67.988 35.9604C67.988 34.2267 67.8511 32.4837 68.0062 30.7684C68.3986 26.6461 67.1029 22.8558 66.0536 19.0195C64.6667 13.9473 63.2615 8.85671 61.8745 3.78456C61.8015 3.54479 61.7742 3.28657 61.7012 2.99146H67.1668C68.3165 8.58927 69.4753 14.1871 70.6797 19.8402ZM175.475 26.268H166.241C166.342 28.1401 166.378 29.92 166.57 31.6814C166.707 32.9079 167.373 33.4336 168.422 33.4428C169.517 33.4613 170.156 32.9079 170.411 31.6906C170.493 31.2941 170.548 30.8975 170.584 30.4917C170.621 30.1321 170.639 29.7447 170.667 29.2283C172.227 29.3113 173.751 29.4035 175.256 29.4681C176.132 32.0964 174.554 35.4717 171.898 36.5138C169.809 37.3438 167.665 37.3438 165.529 36.7074C163.951 36.2371 162.774 35.2227 162.245 33.6641C161.752 32.207 161.287 30.6854 161.186 29.1638C160.912 25.4104 160.812 21.6201 161.378 17.8575C161.478 17.2304 161.652 16.6309 161.843 16.0223C162.61 13.5139 164.279 11.9738 166.862 11.7156C168.267 11.5772 169.718 11.6326 171.105 11.8723C173.349 12.2689 174.545 13.9012 175.065 16.0407C175.302 17.0459 175.475 18.0788 175.512 19.1025C175.521 21.4541 175.475 23.7873 175.475 26.268ZM170.229 23.0311C170.229 21.1774 170.247 19.4345 170.21 17.6823C170.21 17.2673 170.055 16.8338 169.9 16.4373C169.59 15.6626 168.942 15.4505 168.166 15.4505C167.391 15.4505 166.898 15.8471 166.707 16.5572C166.123 18.6875 166.314 20.8639 166.332 23.0495C167.728 23.0311 168.997 23.0311 170.229 23.0311V23.0311Z" fill="#161616"/>
<path d="M115.583 7.48289H110.154V3.03784H126.359V7.45523H120.967V36.7907H115.593L115.583 7.48289Z" fill="#161616"/>
</svg>
